G04 #@! TF.GenerationSoftware,KiCad,Pcbnew,(6.0.7)*
G04 #@! TF.CreationDate,2023-02-03T15:50:32+01:00*
G04 #@! TF.ProjectId,vogelhuisje_camera_board,766f6765-6c68-4756-9973-6a655f63616d,rev?*
G04 #@! TF.SameCoordinates,Original*
G04 #@! TF.FileFunction,Copper,L1,Top*
G04 #@! TF.FilePolarity,Positive*
%FSLAX46Y46*%
G04 Gerber Fmt 4.6, Leading zero omitted, Abs format (unit mm)*
G04 Created by KiCad (PCBNEW (6.0.7)) date 2023-02-03 15:50:32*
%MOMM*%
%LPD*%
G01*
G04 APERTURE LIST*
G04 Aperture macros list*
%AMRoundRect*
0 Rectangle with rounded corners*
0 $1 Rounding radius*
0 $2 $3 $4 $5 $6 $7 $8 $9 X,Y pos of 4 corners*
0 Add a 4 corners polygon primitive as box body*
4,1,4,$2,$3,$4,$5,$6,$7,$8,$9,$2,$3,0*
0 Add four circle primitives for the rounded corners*
1,1,$1+$1,$2,$3*
1,1,$1+$1,$4,$5*
1,1,$1+$1,$6,$7*
1,1,$1+$1,$8,$9*
0 Add four rect primitives between the rounded corners*
20,1,$1+$1,$2,$3,$4,$5,0*
20,1,$1+$1,$4,$5,$6,$7,0*
20,1,$1+$1,$6,$7,$8,$9,0*
20,1,$1+$1,$8,$9,$2,$3,0*%
G04 Aperture macros list end*
G04 #@! TA.AperFunction,SMDPad,CuDef*
%ADD10RoundRect,0.625000X0.675000X0.625000X-0.675000X0.625000X-0.675000X-0.625000X0.675000X-0.625000X0*%
G04 #@! TD*
G04 #@! TA.AperFunction,ComponentPad*
%ADD11C,1.600000*%
G04 #@! TD*
G04 #@! TA.AperFunction,ComponentPad*
%ADD12O,1.600000X1.600000*%
G04 #@! TD*
G04 #@! TA.AperFunction,ComponentPad*
%ADD13R,1.500000X1.050000*%
G04 #@! TD*
G04 #@! TA.AperFunction,ComponentPad*
%ADD14O,1.500000X1.050000*%
G04 #@! TD*
G04 #@! TA.AperFunction,SMDPad,CuDef*
%ADD15R,0.300000X1.300000*%
G04 #@! TD*
G04 #@! TA.AperFunction,SMDPad,CuDef*
%ADD16R,1.800000X2.200000*%
G04 #@! TD*
G04 #@! TA.AperFunction,ComponentPad*
%ADD17R,1.700000X1.700000*%
G04 #@! TD*
G04 #@! TA.AperFunction,ComponentPad*
%ADD18O,1.700000X1.700000*%
G04 #@! TD*
G04 #@! TA.AperFunction,ComponentPad*
%ADD19R,1.300000X1.300000*%
G04 #@! TD*
G04 #@! TA.AperFunction,ComponentPad*
%ADD20C,1.300000*%
G04 #@! TD*
G04 #@! TA.AperFunction,ViaPad*
%ADD21C,0.600000*%
G04 #@! TD*
G04 #@! TA.AperFunction,Conductor*
%ADD22C,0.400000*%
G04 #@! TD*
G04 #@! TA.AperFunction,Conductor*
%ADD23C,0.150000*%
G04 #@! TD*
G04 #@! TA.AperFunction,Conductor*
%ADD24C,0.200000*%
G04 #@! TD*
G04 #@! TA.AperFunction,Conductor*
%ADD25C,0.254000*%
G04 #@! TD*
G04 #@! TA.AperFunction,Conductor*
%ADD26C,0.127000*%
G04 #@! TD*
G04 #@! TA.AperFunction,Conductor*
%ADD27C,0.600000*%
G04 #@! TD*
G04 APERTURE END LIST*
D10*
X123000000Y-147900000D03*
X123000000Y-143900000D03*
D11*
X102616000Y-59944000D03*
D12*
X92456000Y-59944000D03*
D13*
X100642000Y-143326000D03*
D14*
X100642000Y-144596000D03*
X100642000Y-145866000D03*
D10*
X107200000Y-136000000D03*
X107200000Y-132000000D03*
D15*
X109250000Y-71050000D03*
X109750000Y-71050000D03*
X110250000Y-71050000D03*
X110750000Y-71050000D03*
X111250000Y-71050000D03*
X111750000Y-71050000D03*
X112250000Y-71050000D03*
X112750000Y-71050000D03*
X113250000Y-71050000D03*
X113750000Y-71050000D03*
X114250000Y-71050000D03*
X114750000Y-71050000D03*
X115250000Y-71050000D03*
X115750000Y-71050000D03*
X116250000Y-71050000D03*
X116750000Y-71050000D03*
X117250000Y-71050000D03*
X117750000Y-71050000D03*
X118250000Y-71050000D03*
X118750000Y-71050000D03*
X119250000Y-71050000D03*
X119750000Y-71050000D03*
X120250000Y-71050000D03*
X120750000Y-71050000D03*
D16*
X107350000Y-74300000D03*
X122650000Y-74300000D03*
D11*
X119694000Y-87884000D03*
D12*
X127194000Y-87884000D03*
D11*
X119634000Y-91948000D03*
D12*
X119634000Y-102108000D03*
D17*
X101600000Y-130810000D03*
D18*
X101600000Y-128270000D03*
X101600000Y-125730000D03*
X101600000Y-123190000D03*
X101600000Y-120650000D03*
X101600000Y-118110000D03*
X101600000Y-115570000D03*
X101600000Y-113030000D03*
X101600000Y-110490000D03*
X101600000Y-107950000D03*
X101600000Y-105410000D03*
X101600000Y-102870000D03*
X101600000Y-100330000D03*
X101600000Y-97790000D03*
X101600000Y-95250000D03*
X101600000Y-92710000D03*
X101600000Y-90170000D03*
X101600000Y-87630000D03*
X101600000Y-85090000D03*
X101600000Y-82550000D03*
X101600000Y-80010000D03*
D19*
X116840000Y-60854000D03*
D20*
X115570000Y-62124000D03*
X114300000Y-60854000D03*
D11*
X101540000Y-67564000D03*
D12*
X94040000Y-67564000D03*
D10*
X123000000Y-136000000D03*
X123000000Y-132000000D03*
D11*
X93980000Y-71628000D03*
D12*
X101480000Y-71628000D03*
D11*
X93726000Y-128778000D03*
D12*
X93726000Y-138938000D03*
D11*
X101600000Y-63246000D03*
D12*
X111760000Y-63246000D03*
D10*
X107000000Y-147900000D03*
X107000000Y-143900000D03*
D11*
X97536000Y-91380000D03*
D12*
X97536000Y-83880000D03*
D11*
X98044000Y-128778000D03*
D12*
X98044000Y-138938000D03*
D17*
X93726000Y-77485000D03*
D18*
X93726000Y-80025000D03*
X93726000Y-82565000D03*
D11*
X115570000Y-66040000D03*
D12*
X123070000Y-66040000D03*
D19*
X124460000Y-81280000D03*
D20*
X123190000Y-82550000D03*
X121920000Y-81280000D03*
D21*
X116078000Y-81788000D03*
X113250000Y-75940000D03*
X116840000Y-82550000D03*
X112000000Y-101000000D03*
X113000000Y-97500000D03*
X113450000Y-95920000D03*
X114240000Y-93130000D03*
X115390000Y-90810000D03*
X115290000Y-88850000D03*
X116130000Y-84810000D03*
X117920000Y-80550000D03*
X118770000Y-76350000D03*
X120070000Y-73990000D03*
X119790000Y-72510000D03*
X117550000Y-74880000D03*
X117094000Y-69342000D03*
D22*
X123070000Y-66040000D02*
X117884000Y-60854000D01*
X127194000Y-87884000D02*
X127194000Y-84014000D01*
X117884000Y-60854000D02*
X116840000Y-60854000D01*
X127194000Y-84014000D02*
X124460000Y-81280000D01*
D23*
X115750000Y-71050000D02*
X115750000Y-69268000D01*
D22*
X93980000Y-71628000D02*
X93980000Y-67624000D01*
X117856000Y-90932000D02*
X117856000Y-85344000D01*
X93980000Y-77470000D02*
X93980000Y-71628000D01*
X101600000Y-128270000D02*
X116078000Y-113792000D01*
X107188000Y-67818000D02*
X114300000Y-67818000D01*
D23*
X116078000Y-81788000D02*
X116078000Y-76200000D01*
X115750000Y-69268000D02*
X115316000Y-68834000D01*
X115750000Y-75872000D02*
X115750000Y-71050000D01*
D22*
X114300000Y-60854000D02*
X114300000Y-67818000D01*
X118872000Y-58420000D02*
X125984000Y-65532000D01*
X93980000Y-77470000D02*
X97536000Y-77470000D01*
X116734000Y-58420000D02*
X118872000Y-58420000D01*
X125984000Y-65532000D02*
X125984000Y-77216000D01*
X97536000Y-77470000D02*
X107188000Y-67818000D01*
X117856000Y-85344000D02*
X121920000Y-81280000D01*
X116078000Y-113792000D02*
X116078000Y-92710000D01*
X93980000Y-67624000D02*
X94040000Y-67564000D01*
D24*
X101500000Y-127850000D02*
X101890000Y-127850000D01*
D22*
X125984000Y-77216000D02*
X121920000Y-81280000D01*
D23*
X116078000Y-76200000D02*
X115750000Y-75872000D01*
D22*
X114300000Y-60854000D02*
X116734000Y-58420000D01*
X114300000Y-67818000D02*
X115316000Y-68834000D01*
X116078000Y-92710000D02*
X117856000Y-90932000D01*
D25*
X100270000Y-83880000D02*
X101600000Y-82550000D01*
D26*
X112750000Y-75440000D02*
X113250000Y-75940000D01*
D25*
X97536000Y-83880000D02*
X100270000Y-83880000D01*
D26*
X112750000Y-71050000D02*
X112750000Y-75440000D01*
D22*
X115570000Y-62124000D02*
X115570000Y-66040000D01*
D23*
X115570000Y-67818000D02*
X115570000Y-66040000D01*
X119250000Y-71050000D02*
X119250000Y-69720000D01*
X117856000Y-68326000D02*
X116078000Y-68326000D01*
X116078000Y-68326000D02*
X115570000Y-67818000D01*
X119250000Y-69720000D02*
X117856000Y-68326000D01*
X116840000Y-75692000D02*
X116250000Y-75102000D01*
X116840000Y-82550000D02*
X116840000Y-75692000D01*
D22*
X123190000Y-82550000D02*
X123190000Y-84388000D01*
X119694000Y-87884000D02*
X119694000Y-91888000D01*
X123190000Y-84388000D02*
X119694000Y-87884000D01*
D23*
X116250000Y-75102000D02*
X116250000Y-71050000D01*
D27*
X98552000Y-128778000D02*
X101600000Y-125730000D01*
X98044000Y-128778000D02*
X98552000Y-128778000D01*
D24*
X96012000Y-128778000D02*
X101600000Y-123190000D01*
X93726000Y-128778000D02*
X96012000Y-128778000D01*
D26*
X111750000Y-99250000D02*
X113000000Y-100500000D01*
X113000000Y-108730000D02*
X101500000Y-120230000D01*
X111750000Y-71050000D02*
X111750000Y-99250000D01*
X113000000Y-100500000D02*
X113000000Y-108730000D01*
X110750000Y-71050000D02*
X110750000Y-108440000D01*
X110750000Y-108440000D02*
X101500000Y-117690000D01*
X110250000Y-71050000D02*
X110250000Y-106400000D01*
X110250000Y-106400000D02*
X101500000Y-115150000D01*
X111250000Y-71050000D02*
X111250000Y-100250000D01*
X111250000Y-100250000D02*
X112000000Y-101000000D01*
X112250000Y-71050000D02*
X112250000Y-96750000D01*
X112250000Y-96750000D02*
X113000000Y-97500000D01*
X113850000Y-92560000D02*
X113610000Y-92800000D01*
X113850000Y-75310000D02*
X113850000Y-78430000D01*
X113610000Y-92800000D02*
X113450000Y-92960000D01*
X113850000Y-78430000D02*
X113850000Y-91710000D01*
X113650000Y-75110000D02*
X113850000Y-75310000D01*
X113850000Y-91710000D02*
X113850000Y-92560000D01*
X113250000Y-74710000D02*
X113650000Y-75110000D01*
X113250000Y-71050000D02*
X113250000Y-74710000D01*
X113450000Y-92960000D02*
X113450000Y-95920000D01*
X114240000Y-93100000D02*
X114240000Y-93130000D01*
X114250000Y-93090000D02*
X114240000Y-93100000D01*
X114250000Y-71050000D02*
X114250000Y-93090000D01*
D23*
X116660000Y-89000000D02*
X116660000Y-89540000D01*
X115250000Y-71050000D02*
X115250000Y-87590000D01*
X115250000Y-87590000D02*
X116660000Y-89000000D01*
X116660000Y-89540000D02*
X115390000Y-90810000D01*
X114750000Y-71050000D02*
X114750000Y-88310000D01*
X114750000Y-88310000D02*
X115290000Y-88850000D01*
X117348000Y-83592000D02*
X117348000Y-75438000D01*
X116130000Y-84810000D02*
X117348000Y-83592000D01*
X116750000Y-74840000D02*
X116750000Y-71050000D01*
X117348000Y-75438000D02*
X116750000Y-74840000D01*
X117750000Y-71050000D02*
X117750000Y-73890000D01*
X118250000Y-75580000D02*
X117920000Y-75910000D01*
X117920000Y-75910000D02*
X117920000Y-80550000D01*
X118300000Y-75530000D02*
X118250000Y-75580000D01*
X118300000Y-74440000D02*
X118300000Y-75530000D01*
X117750000Y-73890000D02*
X118300000Y-74440000D01*
X119120000Y-76000000D02*
X118770000Y-76350000D01*
X118250000Y-72990000D02*
X119120000Y-73860000D01*
X118250000Y-71050000D02*
X118250000Y-72990000D01*
X119120000Y-73860000D02*
X119120000Y-76000000D01*
X118750000Y-72640000D02*
X119600000Y-73490000D01*
X120070000Y-73960000D02*
X120070000Y-73990000D01*
X118750000Y-71050000D02*
X118750000Y-72640000D01*
X119600000Y-73490000D02*
X120070000Y-73960000D01*
D24*
X119750000Y-71050000D02*
X119750000Y-72470000D01*
X119750000Y-72470000D02*
X119790000Y-72510000D01*
D23*
X117250000Y-71050000D02*
X117250000Y-74580000D01*
X117250000Y-71050000D02*
X117250000Y-69498000D01*
X117250000Y-69498000D02*
X117094000Y-69342000D01*
X117250000Y-74580000D02*
X117550000Y-74880000D01*
D27*
X101162000Y-145866000D02*
X100642000Y-145866000D01*
X107000000Y-147900000D02*
X109100000Y-147900000D01*
X107000000Y-147900000D02*
X103196000Y-147900000D01*
X109100000Y-147900000D02*
X123000000Y-147900000D01*
X103196000Y-147900000D02*
X101162000Y-145866000D01*
D24*
X99384000Y-144596000D02*
X100642000Y-144596000D01*
X93726000Y-138938000D02*
X99384000Y-144596000D01*
D27*
X107200000Y-132000000D02*
X100262000Y-138938000D01*
X123000000Y-132000000D02*
X107200000Y-132000000D01*
X98044000Y-138938000D02*
X100262000Y-138938000D01*
X123000000Y-143900000D02*
X123000000Y-136000000D01*
X107000000Y-136200000D02*
X107200000Y-136000000D01*
X107200000Y-136000000D02*
X123000000Y-136000000D01*
X107000000Y-143900000D02*
X107000000Y-136200000D01*
D26*
X101585000Y-80025000D02*
X101600000Y-80010000D01*
X93726000Y-80025000D02*
X101585000Y-80025000D01*
G04 #@! TA.AperFunction,Conductor*
G36*
X129471621Y-55910502D02*
G01*
X129518114Y-55964158D01*
X129529500Y-56016500D01*
X129529500Y-150993500D01*
X129509498Y-151061621D01*
X129455842Y-151108114D01*
X129403500Y-151119500D01*
X90306500Y-151119500D01*
X90238379Y-151099498D01*
X90191886Y-151045842D01*
X90180500Y-150993500D01*
X90180500Y-138938000D01*
X92793391Y-138938000D01*
X92813771Y-139131900D01*
X92815811Y-139138178D01*
X92815811Y-139138179D01*
X92838598Y-139208311D01*
X92874019Y-139317326D01*
X92971503Y-139486174D01*
X93101963Y-139631064D01*
X93259695Y-139745663D01*
X93265723Y-139748347D01*
X93265725Y-139748348D01*
X93304036Y-139765405D01*
X93437808Y-139824964D01*
X93533162Y-139845232D01*
X93622059Y-139864128D01*
X93622063Y-139864128D01*
X93628516Y-139865500D01*
X93823484Y-139865500D01*
X93829937Y-139864128D01*
X93829941Y-139864128D01*
X93918838Y-139845232D01*
X94014192Y-139824964D01*
X94126775Y-139774839D01*
X94197141Y-139765405D01*
X94261438Y-139795511D01*
X94267118Y-139800851D01*
X99216587Y-144750321D01*
X99221128Y-144755105D01*
X99247292Y-144784163D01*
X99259390Y-144789549D01*
X99259391Y-144789550D01*
X99266049Y-144792514D01*
X99283427Y-144801949D01*
X99289544Y-144805922D01*
X99289546Y-144805923D01*
X99300650Y-144813134D01*
X99313729Y-144815205D01*
X99318526Y-144817047D01*
X99323546Y-144818114D01*
X99335643Y-144823500D01*
X99356182Y-144823500D01*
X99375891Y-144825051D01*
X99396172Y-144828263D01*
X99408961Y-144824836D01*
X99422189Y-144824143D01*
X99422213Y-144824596D01*
X99430537Y-144823500D01*
X99719303Y-144823500D01*
X99787424Y-144843502D01*
X99825688Y-144881986D01*
X99910244Y-145015225D01*
X100030422Y-145128079D01*
X100037114Y-145131758D01*
X100080388Y-145187881D01*
X100086462Y-145258617D01*
X100053328Y-145321408D01*
X100037033Y-145335527D01*
X99966783Y-145386568D01*
X99861697Y-145513594D01*
X99791503Y-145662764D01*
X99760612Y-145824704D01*
X99770963Y-145989238D01*
X99821908Y-146146029D01*
X99910244Y-146285225D01*
X100030422Y-146398079D01*
X100174890Y-146477501D01*
X100334570Y-146518500D01*
X100908052Y-146518500D01*
X100978374Y-146509616D01*
X101022693Y-146504018D01*
X101022694Y-146504018D01*
X101030560Y-146503024D01*
X101071012Y-146487008D01*
X101141712Y-146480530D01*
X101206489Y-146515066D01*
X102870478Y-148179054D01*
X102880333Y-148190143D01*
X102900050Y-148215154D01*
X102907797Y-148220509D01*
X102907799Y-148220510D01*
X102945778Y-148246758D01*
X102948957Y-148249029D01*
X102993700Y-148282077D01*
X103000166Y-148284348D01*
X103005802Y-148288243D01*
X103014779Y-148291082D01*
X103014781Y-148291083D01*
X103058793Y-148305002D01*
X103062543Y-148306253D01*
X103114989Y-148324671D01*
X103121837Y-148324940D01*
X103128369Y-148327006D01*
X103134645Y-148327500D01*
X103184512Y-148327500D01*
X103189459Y-148327597D01*
X103243441Y-148329718D01*
X103250261Y-148327910D01*
X103257703Y-148327500D01*
X105446500Y-148327500D01*
X105514621Y-148347502D01*
X105561114Y-148401158D01*
X105572500Y-148453500D01*
X105572500Y-148575002D01*
X105583388Y-148679931D01*
X105638920Y-148846383D01*
X105731256Y-148995596D01*
X105855441Y-149119565D01*
X106004815Y-149211640D01*
X106171364Y-149266882D01*
X106178200Y-149267582D01*
X106178203Y-149267583D01*
X106229992Y-149272889D01*
X106274998Y-149277500D01*
X107725002Y-149277500D01*
X107728248Y-149277163D01*
X107728251Y-149277163D01*
X107823072Y-149267324D01*
X107823074Y-149267323D01*
X107829931Y-149266612D01*
X107996383Y-149211080D01*
X108145596Y-149118744D01*
X108269565Y-148994559D01*
X108361640Y-148845185D01*
X108416882Y-148678636D01*
X108427500Y-148575002D01*
X108427500Y-148453500D01*
X108447502Y-148385379D01*
X108501158Y-148338886D01*
X108553500Y-148327500D01*
X121446500Y-148327500D01*
X121514621Y-148347502D01*
X121561114Y-148401158D01*
X121572500Y-148453500D01*
X121572500Y-148575002D01*
X121583388Y-148679931D01*
X121638920Y-148846383D01*
X121731256Y-148995596D01*
X121855441Y-149119565D01*
X122004815Y-149211640D01*
X122171364Y-149266882D01*
X122178200Y-149267582D01*
X122178203Y-149267583D01*
X122229992Y-149272889D01*
X122274998Y-149277500D01*
X123725002Y-149277500D01*
X123728248Y-149277163D01*
X123728251Y-149277163D01*
X123823072Y-149267324D01*
X123823074Y-149267323D01*
X123829931Y-149266612D01*
X123996383Y-149211080D01*
X124145596Y-149118744D01*
X124269565Y-148994559D01*
X124361640Y-148845185D01*
X124416882Y-148678636D01*
X124427500Y-148575002D01*
X124427500Y-147224998D01*
X124416612Y-147120069D01*
X124361080Y-146953617D01*
X124268744Y-146804404D01*
X124144559Y-146680435D01*
X123995185Y-146588360D01*
X123828636Y-146533118D01*
X123821800Y-146532418D01*
X123821797Y-146532417D01*
X123770008Y-146527111D01*
X123725002Y-146522500D01*
X122274998Y-146522500D01*
X122271752Y-146522837D01*
X122271749Y-146522837D01*
X122176928Y-146532676D01*
X122176926Y-146532677D01*
X122170069Y-146533388D01*
X122003617Y-146588920D01*
X121854404Y-146681256D01*
X121730435Y-146805441D01*
X121638360Y-146954815D01*
X121583118Y-147121364D01*
X121572500Y-147224998D01*
X121572500Y-147346500D01*
X121552498Y-147414621D01*
X121498842Y-147461114D01*
X121446500Y-147472500D01*
X108553500Y-147472500D01*
X108485379Y-147452498D01*
X108438886Y-147398842D01*
X108427500Y-147346500D01*
X108427500Y-147224998D01*
X108416612Y-147120069D01*
X108361080Y-146953617D01*
X108268744Y-146804404D01*
X108144559Y-146680435D01*
X107995185Y-146588360D01*
X107828636Y-146533118D01*
X107821800Y-146532418D01*
X107821797Y-146532417D01*
X107770008Y-146527111D01*
X107725002Y-146522500D01*
X106274998Y-146522500D01*
X106271752Y-146522837D01*
X106271749Y-146522837D01*
X106176928Y-146532676D01*
X106176926Y-146532677D01*
X106170069Y-146533388D01*
X106003617Y-146588920D01*
X105854404Y-146681256D01*
X105730435Y-146805441D01*
X105638360Y-146954815D01*
X105583118Y-147121364D01*
X105572500Y-147224998D01*
X105572500Y-147346500D01*
X105552498Y-147414621D01*
X105498842Y-147461114D01*
X105446500Y-147472500D01*
X103425266Y-147472500D01*
X103357145Y-147452498D01*
X103336171Y-147435595D01*
X101487523Y-145586947D01*
X101477668Y-145575858D01*
X101463781Y-145558243D01*
X101457950Y-145550846D01*
X101446664Y-145543046D01*
X101411918Y-145506910D01*
X101373756Y-145446775D01*
X101253578Y-145333921D01*
X101246886Y-145330242D01*
X101203612Y-145274119D01*
X101197538Y-145203383D01*
X101230672Y-145140592D01*
X101246966Y-145126473D01*
X101310807Y-145080089D01*
X101317217Y-145075432D01*
X101422303Y-144948406D01*
X101492497Y-144799236D01*
X101523388Y-144637296D01*
X101519469Y-144575002D01*
X105572500Y-144575002D01*
X105583388Y-144679931D01*
X105638920Y-144846383D01*
X105731256Y-144995596D01*
X105855441Y-145119565D01*
X105861671Y-145123405D01*
X105861672Y-145123406D01*
X105991420Y-145203383D01*
X106004815Y-145211640D01*
X106171364Y-145266882D01*
X106178200Y-145267582D01*
X106178203Y-145267583D01*
X106229992Y-145272889D01*
X106274998Y-145277500D01*
X107725002Y-145277500D01*
X107728248Y-145277163D01*
X107728251Y-145277163D01*
X107823072Y-145267324D01*
X107823074Y-145267323D01*
X107829931Y-145266612D01*
X107996383Y-145211080D01*
X108145596Y-145118744D01*
X108269565Y-144994559D01*
X108361640Y-144845185D01*
X108416882Y-144678636D01*
X108427500Y-144575002D01*
X108427500Y-143224998D01*
X108416612Y-143120069D01*
X108361080Y-142953617D01*
X108268744Y-142804404D01*
X108144559Y-142680435D01*
X107995185Y-142588360D01*
X107828636Y-142533118D01*
X107821800Y-142532418D01*
X107821797Y-142532417D01*
X107770008Y-142527111D01*
X107725002Y-142522500D01*
X107553500Y-142522500D01*
X107485379Y-142502498D01*
X107438886Y-142448842D01*
X107427500Y-142396500D01*
X107427500Y-137503500D01*
X107447502Y-137435379D01*
X107501158Y-137388886D01*
X107553500Y-137377500D01*
X107925002Y-137377500D01*
X107928248Y-137377163D01*
X107928251Y-137377163D01*
X108023072Y-137367324D01*
X108023074Y-137367323D01*
X108029931Y-137366612D01*
X108196383Y-137311080D01*
X108345596Y-137218744D01*
X108469565Y-137094559D01*
X108561640Y-136945185D01*
X108616882Y-136778636D01*
X108627500Y-136675002D01*
X108627500Y-136553500D01*
X108647502Y-136485379D01*
X108701158Y-136438886D01*
X108753500Y-136427500D01*
X121446500Y-136427500D01*
X121514621Y-136447502D01*
X121561114Y-136501158D01*
X121572500Y-136553500D01*
X121572500Y-136675002D01*
X121583388Y-136779931D01*
X121638920Y-136946383D01*
X121731256Y-137095596D01*
X121855441Y-137219565D01*
X122004815Y-137311640D01*
X122171364Y-137366882D01*
X122178200Y-137367582D01*
X122178203Y-137367583D01*
X122229992Y-137372889D01*
X122274998Y-137377500D01*
X122446500Y-137377500D01*
X122514621Y-137397502D01*
X122561114Y-137451158D01*
X122572500Y-137503500D01*
X122572500Y-142396500D01*
X122552498Y-142464621D01*
X122498842Y-142511114D01*
X122446500Y-142522500D01*
X122274998Y-142522500D01*
X122271752Y-142522837D01*
X122271749Y-142522837D01*
X122176928Y-142532676D01*
X122176926Y-142532677D01*
X122170069Y-142533388D01*
X122003617Y-142588920D01*
X121854404Y-142681256D01*
X121730435Y-142805441D01*
X121638360Y-142954815D01*
X121583118Y-143121364D01*
X121572500Y-143224998D01*
X121572500Y-144575002D01*
X121583388Y-144679931D01*
X121638920Y-144846383D01*
X121731256Y-144995596D01*
X121855441Y-145119565D01*
X121861671Y-145123405D01*
X121861672Y-145123406D01*
X121991420Y-145203383D01*
X122004815Y-145211640D01*
X122171364Y-145266882D01*
X122178200Y-145267582D01*
X122178203Y-145267583D01*
X122229992Y-145272889D01*
X122274998Y-145277500D01*
X123725002Y-145277500D01*
X123728248Y-145277163D01*
X123728251Y-145277163D01*
X123823072Y-145267324D01*
X123823074Y-145267323D01*
X123829931Y-145266612D01*
X123996383Y-145211080D01*
X124145596Y-145118744D01*
X124269565Y-144994559D01*
X124361640Y-144845185D01*
X124416882Y-144678636D01*
X124427500Y-144575002D01*
X124427500Y-143224998D01*
X124416612Y-143120069D01*
X124361080Y-142953617D01*
X124268744Y-142804404D01*
X124144559Y-142680435D01*
X123995185Y-142588360D01*
X123828636Y-142533118D01*
X123821800Y-142532418D01*
X123821797Y-142532417D01*
X123770008Y-142527111D01*
X123725002Y-142522500D01*
X123553500Y-142522500D01*
X123485379Y-142502498D01*
X123438886Y-142448842D01*
X123427500Y-142396500D01*
X123427500Y-137503500D01*
X123447502Y-137435379D01*
X123501158Y-137388886D01*
X123553500Y-137377500D01*
X123725002Y-137377500D01*
X123728248Y-137377163D01*
X123728251Y-137377163D01*
X123823072Y-137367324D01*
X123823074Y-137367323D01*
X123829931Y-137366612D01*
X123996383Y-137311080D01*
X124145596Y-137218744D01*
X124269565Y-137094559D01*
X124361640Y-136945185D01*
X124416882Y-136778636D01*
X124427500Y-136675002D01*
X124427500Y-135324998D01*
X124416612Y-135220069D01*
X124361080Y-135053617D01*
X124268744Y-134904404D01*
X124144559Y-134780435D01*
X123995185Y-134688360D01*
X123828636Y-134633118D01*
X123821800Y-134632418D01*
X123821797Y-134632417D01*
X123770008Y-134627111D01*
X123725002Y-134622500D01*
X122274998Y-134622500D01*
X122271752Y-134622837D01*
X122271749Y-134622837D01*
X122176928Y-134632676D01*
X122176926Y-134632677D01*
X122170069Y-134633388D01*
X122003617Y-134688920D01*
X121854404Y-134781256D01*
X121730435Y-134905441D01*
X121638360Y-135054815D01*
X121583118Y-135221364D01*
X121572500Y-135324998D01*
X121572500Y-135446500D01*
X121552498Y-135514621D01*
X121498842Y-135561114D01*
X121446500Y-135572500D01*
X108753500Y-135572500D01*
X108685379Y-135552498D01*
X108638886Y-135498842D01*
X108627500Y-135446500D01*
X108627500Y-135324998D01*
X108616612Y-135220069D01*
X108561080Y-135053617D01*
X108468744Y-134904404D01*
X108344559Y-134780435D01*
X108195185Y-134688360D01*
X108028636Y-134633118D01*
X108021800Y-134632418D01*
X108021797Y-134632417D01*
X107970008Y-134627111D01*
X107925002Y-134622500D01*
X106474998Y-134622500D01*
X106471752Y-134622837D01*
X106471749Y-134622837D01*
X106376928Y-134632676D01*
X106376926Y-134632677D01*
X106370069Y-134633388D01*
X106203617Y-134688920D01*
X106054404Y-134781256D01*
X105930435Y-134905441D01*
X105838360Y-135054815D01*
X105783118Y-135221364D01*
X105772500Y-135324998D01*
X105772500Y-136675002D01*
X105783388Y-136779931D01*
X105838920Y-136946383D01*
X105931256Y-137095596D01*
X106055441Y-137219565D01*
X106204815Y-137311640D01*
X106371364Y-137366882D01*
X106378200Y-137367582D01*
X106378203Y-137367583D01*
X106459342Y-137375896D01*
X106525070Y-137402737D01*
X106565852Y-137460852D01*
X106572500Y-137501240D01*
X106572500Y-142396500D01*
X106552498Y-142464621D01*
X106498842Y-142511114D01*
X106446500Y-142522500D01*
X106274998Y-142522500D01*
X106271752Y-142522837D01*
X106271749Y-142522837D01*
X106176928Y-142532676D01*
X106176926Y-142532677D01*
X106170069Y-142533388D01*
X106003617Y-142588920D01*
X105854404Y-142681256D01*
X105730435Y-142805441D01*
X105638360Y-142954815D01*
X105583118Y-143121364D01*
X105572500Y-143224998D01*
X105572500Y-144575002D01*
X101519469Y-144575002D01*
X101513037Y-144472762D01*
X101510588Y-144465225D01*
X101509815Y-144461173D01*
X101516698Y-144390511D01*
X101560692Y-144334788D01*
X101589354Y-144319582D01*
X101630052Y-144304325D01*
X101645649Y-144295786D01*
X101747724Y-144219285D01*
X101760285Y-144206724D01*
X101836786Y-144104649D01*
X101845324Y-144089054D01*
X101890478Y-143968606D01*
X101894105Y-143953351D01*
X101899631Y-143902486D01*
X101900000Y-143895672D01*
X101900000Y-143598115D01*
X101895525Y-143582876D01*
X101894135Y-143581671D01*
X101886452Y-143580000D01*
X99402116Y-143580000D01*
X99386877Y-143584475D01*
X99385672Y-143585865D01*
X99384001Y-143593548D01*
X99384001Y-143895669D01*
X99384371Y-143902490D01*
X99390748Y-143961207D01*
X99388288Y-143961474D01*
X99385225Y-144020170D01*
X99343781Y-144077815D01*
X99277752Y-144103902D01*
X99208100Y-144090151D01*
X99177248Y-144067515D01*
X98163618Y-143053885D01*
X99384000Y-143053885D01*
X99388475Y-143069124D01*
X99389865Y-143070329D01*
X99397548Y-143072000D01*
X100369885Y-143072000D01*
X100385124Y-143067525D01*
X100386329Y-143066135D01*
X100388000Y-143058452D01*
X100388000Y-143053885D01*
X100896000Y-143053885D01*
X100900475Y-143069124D01*
X100901865Y-143070329D01*
X100909548Y-143072000D01*
X101881884Y-143072000D01*
X101897123Y-143067525D01*
X101898328Y-143066135D01*
X101899999Y-143058452D01*
X101899999Y-142756331D01*
X101899629Y-142749510D01*
X101894105Y-142698648D01*
X101890479Y-142683396D01*
X101845324Y-142562946D01*
X101836786Y-142547351D01*
X101760285Y-142445276D01*
X101747724Y-142432715D01*
X101645649Y-142356214D01*
X101630054Y-142347676D01*
X101509606Y-142302522D01*
X101494351Y-142298895D01*
X101443486Y-142293369D01*
X101436672Y-142293000D01*
X100914115Y-142293000D01*
X100898876Y-142297475D01*
X100897671Y-142298865D01*
X100896000Y-142306548D01*
X100896000Y-143053885D01*
X100388000Y-143053885D01*
X100388000Y-142311116D01*
X100383525Y-142295877D01*
X100382135Y-142294672D01*
X100374452Y-142293001D01*
X99847331Y-142293001D01*
X99840510Y-142293371D01*
X99789648Y-142298895D01*
X99774396Y-142302521D01*
X99653946Y-142347676D01*
X99638351Y-142356214D01*
X99536276Y-142432715D01*
X99523715Y-142445276D01*
X99447214Y-142547351D01*
X99438676Y-142562946D01*
X99393522Y-142683394D01*
X99389895Y-142698649D01*
X99384369Y-142749514D01*
X99384000Y-142756328D01*
X99384000Y-143053885D01*
X98163618Y-143053885D01*
X94591105Y-139481371D01*
X94557079Y-139419059D01*
X94562144Y-139348244D01*
X94571076Y-139329285D01*
X94577981Y-139317326D01*
X94613402Y-139208311D01*
X94636189Y-139138179D01*
X94636189Y-139138178D01*
X94638229Y-139131900D01*
X94658609Y-138938000D01*
X97111391Y-138938000D01*
X97131771Y-139131900D01*
X97133811Y-139138178D01*
X97133811Y-139138179D01*
X97156598Y-139208311D01*
X97192019Y-139317326D01*
X97289503Y-139486174D01*
X97419963Y-139631064D01*
X97577695Y-139745663D01*
X97583723Y-139748347D01*
X97583725Y-139748348D01*
X97622036Y-139765405D01*
X97755808Y-139824964D01*
X97851162Y-139845232D01*
X97940059Y-139864128D01*
X97940063Y-139864128D01*
X97946516Y-139865500D01*
X98141484Y-139865500D01*
X98147937Y-139864128D01*
X98147941Y-139864128D01*
X98236838Y-139845232D01*
X98332192Y-139824964D01*
X98465964Y-139765405D01*
X98504275Y-139748348D01*
X98504277Y-139748347D01*
X98510305Y-139745663D01*
X98668037Y-139631064D01*
X98798497Y-139486174D01*
X98831795Y-139428500D01*
X98883177Y-139379507D01*
X98940914Y-139365500D01*
X100229146Y-139365500D01*
X100243955Y-139366373D01*
X100275579Y-139370116D01*
X100284843Y-139368424D01*
X100284844Y-139368424D01*
X100330261Y-139360129D01*
X100334167Y-139359479D01*
X100348282Y-139357357D01*
X100389122Y-139351217D01*
X100395299Y-139348251D01*
X100402039Y-139347020D01*
X100451360Y-139321399D01*
X100454900Y-139319631D01*
X100496515Y-139299648D01*
X100496516Y-139299647D01*
X100505005Y-139295571D01*
X100510039Y-139290918D01*
X100516116Y-139287761D01*
X100520904Y-139283673D01*
X100556150Y-139248427D01*
X100559716Y-139244997D01*
X100592490Y-139214702D01*
X100592492Y-139214699D01*
X100599403Y-139208311D01*
X100602946Y-139202210D01*
X100607926Y-139196651D01*
X106390172Y-133414405D01*
X106452484Y-133380379D01*
X106479267Y-133377500D01*
X107925002Y-133377500D01*
X107928248Y-133377163D01*
X107928251Y-133377163D01*
X108023072Y-133367324D01*
X108023074Y-133367323D01*
X108029931Y-133366612D01*
X108196383Y-133311080D01*
X108345596Y-133218744D01*
X108469565Y-133094559D01*
X108561640Y-132945185D01*
X108616882Y-132778636D01*
X108619884Y-132749342D01*
X108627172Y-132678201D01*
X108627500Y-132675002D01*
X108627500Y-132553500D01*
X108647502Y-132485379D01*
X108701158Y-132438886D01*
X108753500Y-132427500D01*
X121446500Y-132427500D01*
X121514621Y-132447502D01*
X121561114Y-132501158D01*
X121572500Y-132553500D01*
X121572500Y-132675002D01*
X121583388Y-132779931D01*
X121638920Y-132946383D01*
X121731256Y-133095596D01*
X121855441Y-133219565D01*
X122004815Y-133311640D01*
X122171364Y-133366882D01*
X122178200Y-133367582D01*
X122178203Y-133367583D01*
X122229992Y-133372889D01*
X122274998Y-133377500D01*
X123725002Y-133377500D01*
X123728248Y-133377163D01*
X123728251Y-133377163D01*
X123823072Y-133367324D01*
X123823074Y-133367323D01*
X123829931Y-133366612D01*
X123996383Y-133311080D01*
X124145596Y-133218744D01*
X124269565Y-133094559D01*
X124361640Y-132945185D01*
X124416882Y-132778636D01*
X124419884Y-132749342D01*
X124427172Y-132678201D01*
X124427500Y-132675002D01*
X124427500Y-131324998D01*
X124416612Y-131220069D01*
X124361080Y-131053617D01*
X124268744Y-130904404D01*
X124144559Y-130780435D01*
X123995185Y-130688360D01*
X123828636Y-130633118D01*
X123821800Y-130632418D01*
X123821797Y-130632417D01*
X123770008Y-130627111D01*
X123725002Y-130622500D01*
X122274998Y-130622500D01*
X122271752Y-130622837D01*
X122271749Y-130622837D01*
X122176928Y-130632676D01*
X122176926Y-130632677D01*
X122170069Y-130633388D01*
X122003617Y-130688920D01*
X121854404Y-130781256D01*
X121730435Y-130905441D01*
X121638360Y-131054815D01*
X121583118Y-131221364D01*
X121572500Y-131324998D01*
X121572500Y-131446500D01*
X121552498Y-131514621D01*
X121498842Y-131561114D01*
X121446500Y-131572500D01*
X108753500Y-131572500D01*
X108685379Y-131552498D01*
X108638886Y-131498842D01*
X108627500Y-131446500D01*
X108627500Y-131324998D01*
X108616612Y-131220069D01*
X108561080Y-131053617D01*
X108468744Y-130904404D01*
X108344559Y-130780435D01*
X108195185Y-130688360D01*
X108028636Y-130633118D01*
X108021800Y-130632418D01*
X108021797Y-130632417D01*
X107970008Y-130627111D01*
X107925002Y-130622500D01*
X106474998Y-130622500D01*
X106471752Y-130622837D01*
X106471749Y-130622837D01*
X106376928Y-130632676D01*
X106376926Y-130632677D01*
X106370069Y-130633388D01*
X106203617Y-130688920D01*
X106054404Y-130781256D01*
X105930435Y-130905441D01*
X105838360Y-131054815D01*
X105783118Y-131221364D01*
X105772500Y-131324998D01*
X105772500Y-132675002D01*
X105772837Y-132678248D01*
X105772837Y-132678251D01*
X105780214Y-132749342D01*
X105767350Y-132819164D01*
X105743982Y-132851442D01*
X100121829Y-138473595D01*
X100059517Y-138507621D01*
X100032734Y-138510500D01*
X98940914Y-138510500D01*
X98872793Y-138490498D01*
X98831795Y-138447500D01*
X98801800Y-138395547D01*
X98798497Y-138389826D01*
X98668037Y-138244936D01*
X98510305Y-138130337D01*
X98504277Y-138127653D01*
X98504275Y-138127652D01*
X98338223Y-138053721D01*
X98338222Y-138053721D01*
X98332192Y-138051036D01*
X98236838Y-138030768D01*
X98147941Y-138011872D01*
X98147937Y-138011872D01*
X98141484Y-138010500D01*
X97946516Y-138010500D01*
X97940063Y-138011872D01*
X97940059Y-138011872D01*
X97851162Y-138030768D01*
X97755808Y-138051036D01*
X97749779Y-138053720D01*
X97749777Y-138053721D01*
X97583726Y-138127652D01*
X97583724Y-138127653D01*
X97577696Y-138130337D01*
X97419963Y-138244936D01*
X97289503Y-138389826D01*
X97192019Y-138558674D01*
X97131771Y-138744100D01*
X97111391Y-138938000D01*
X94658609Y-138938000D01*
X94638229Y-138744100D01*
X94577981Y-138558674D01*
X94480497Y-138389826D01*
X94350037Y-138244936D01*
X94192305Y-138130337D01*
X94186277Y-138127653D01*
X94186275Y-138127652D01*
X94020223Y-138053721D01*
X94020222Y-138053721D01*
X94014192Y-138051036D01*
X93918838Y-138030768D01*
X93829941Y-138011872D01*
X93829937Y-138011872D01*
X93823484Y-138010500D01*
X93628516Y-138010500D01*
X93622063Y-138011872D01*
X93622059Y-138011872D01*
X93533162Y-138030768D01*
X93437808Y-138051036D01*
X93431779Y-138053720D01*
X93431777Y-138053721D01*
X93265726Y-138127652D01*
X93265724Y-138127653D01*
X93259696Y-138130337D01*
X93101963Y-138244936D01*
X92971503Y-138389826D01*
X92874019Y-138558674D01*
X92813771Y-138744100D01*
X92793391Y-138938000D01*
X90180500Y-138938000D01*
X90180500Y-131704669D01*
X100242001Y-131704669D01*
X100242371Y-131711490D01*
X100247895Y-131762352D01*
X100251521Y-131777604D01*
X100296676Y-131898054D01*
X100305214Y-131913649D01*
X100381715Y-132015724D01*
X100394276Y-132028285D01*
X100496351Y-132104786D01*
X100511946Y-132113324D01*
X100632394Y-132158478D01*
X100647649Y-132162105D01*
X100698514Y-132167631D01*
X100705328Y-132168000D01*
X101327885Y-132168000D01*
X101343124Y-132163525D01*
X101344329Y-132162135D01*
X101346000Y-132154452D01*
X101346000Y-132149884D01*
X101854000Y-132149884D01*
X101858475Y-132165123D01*
X101859865Y-132166328D01*
X101867548Y-132167999D01*
X102494669Y-132167999D01*
X102501490Y-132167629D01*
X102552352Y-132162105D01*
X102567604Y-132158479D01*
X102688054Y-132113324D01*
X102703649Y-132104786D01*
X102805724Y-132028285D01*
X102818285Y-132015724D01*
X102894786Y-131913649D01*
X102903324Y-131898054D01*
X102948478Y-131777606D01*
X102952105Y-131762351D01*
X102957631Y-131711486D01*
X102958000Y-131704672D01*
X102958000Y-131082115D01*
X102953525Y-131066876D01*
X102952135Y-131065671D01*
X102944452Y-131064000D01*
X101872115Y-131064000D01*
X101856876Y-131068475D01*
X101855671Y-131069865D01*
X101854000Y-131077548D01*
X101854000Y-132149884D01*
X101346000Y-132149884D01*
X101346000Y-131082115D01*
X101341525Y-131066876D01*
X101340135Y-131065671D01*
X101332452Y-131064000D01*
X100260116Y-131064000D01*
X100244877Y-131068475D01*
X100243672Y-131069865D01*
X100242001Y-131077548D01*
X100242001Y-131704669D01*
X90180500Y-131704669D01*
X90180500Y-128778000D01*
X92793391Y-128778000D01*
X92794081Y-128784565D01*
X92812527Y-128960060D01*
X92813771Y-128971900D01*
X92874019Y-129157326D01*
X92877322Y-129163048D01*
X92877323Y-129163049D01*
X92901336Y-129204641D01*
X92971503Y-129326174D01*
X92975921Y-129331081D01*
X92975922Y-129331082D01*
X93090106Y-129457895D01*
X93101963Y-129471064D01*
X93259695Y-129585663D01*
X93265723Y-129588347D01*
X93265725Y-129588348D01*
X93301500Y-129604276D01*
X93437808Y-129664964D01*
X93533162Y-129685232D01*
X93622059Y-129704128D01*
X93622063Y-129704128D01*
X93628516Y-129705500D01*
X93823484Y-129705500D01*
X93829937Y-129704128D01*
X93829941Y-129704128D01*
X93918838Y-129685232D01*
X94014192Y-129664964D01*
X94150500Y-129604276D01*
X94186275Y-129588348D01*
X94186277Y-129588347D01*
X94192305Y-129585663D01*
X94350037Y-129471064D01*
X94361895Y-129457895D01*
X94476078Y-129331082D01*
X94476079Y-129331081D01*
X94480497Y-129326174D01*
X94550664Y-129204641D01*
X94574677Y-129163049D01*
X94574678Y-129163048D01*
X94577981Y-129157326D01*
X94599023Y-129092565D01*
X94639096Y-129033959D01*
X94704492Y-129006321D01*
X94718856Y-129005500D01*
X96002764Y-129005500D01*
X96009357Y-129005673D01*
X96035158Y-129007025D01*
X96048384Y-129007718D01*
X96060746Y-129002973D01*
X96060751Y-129002972D01*
X96067561Y-129000358D01*
X96086512Y-128994744D01*
X96106600Y-128990474D01*
X96117314Y-128982690D01*
X96122006Y-128980601D01*
X96126311Y-128977806D01*
X96138673Y-128973060D01*
X96153191Y-128958542D01*
X96168225Y-128945701D01*
X96174130Y-128941411D01*
X96174131Y-128941410D01*
X96184842Y-128933628D01*
X96191463Y-128922161D01*
X96200325Y-128912318D01*
X96200662Y-128912621D01*
X96205776Y-128905957D01*
X96333733Y-128778000D01*
X97111391Y-128778000D01*
X97112081Y-128784565D01*
X97130527Y-128960060D01*
X97131771Y-128971900D01*
X97192019Y-129157326D01*
X97195322Y-129163048D01*
X97195323Y-129163049D01*
X97219336Y-129204641D01*
X97289503Y-129326174D01*
X97293921Y-129331081D01*
X97293922Y-129331082D01*
X97408106Y-129457895D01*
X97419963Y-129471064D01*
X97577695Y-129585663D01*
X97583723Y-129588347D01*
X97583725Y-129588348D01*
X97619500Y-129604276D01*
X97755808Y-129664964D01*
X97851162Y-129685232D01*
X97940059Y-129704128D01*
X97940063Y-129704128D01*
X97946516Y-129705500D01*
X98141484Y-129705500D01*
X98147937Y-129704128D01*
X98147941Y-129704128D01*
X98236838Y-129685232D01*
X98332192Y-129664964D01*
X98468500Y-129604276D01*
X98504275Y-129588348D01*
X98504277Y-129588347D01*
X98510305Y-129585663D01*
X98668037Y-129471064D01*
X98679895Y-129457895D01*
X98794078Y-129331082D01*
X98794079Y-129331081D01*
X98798497Y-129326174D01*
X98868664Y-129204641D01*
X98892677Y-129163049D01*
X98892678Y-129163048D01*
X98895981Y-129157326D01*
X98943779Y-129010219D01*
X98974517Y-128960060D01*
X101225932Y-126708645D01*
X101288244Y-126674619D01*
X101353961Y-126677906D01*
X101389081Y-126689317D01*
X101579430Y-126712015D01*
X101585565Y-126711543D01*
X101585567Y-126711543D01*
X101764420Y-126697781D01*
X101764424Y-126697780D01*
X101770562Y-126697308D01*
X101955199Y-126645756D01*
X102126305Y-126559324D01*
X102277365Y-126441303D01*
X102402624Y-126296189D01*
X102497312Y-126129509D01*
X102557821Y-125947612D01*
X102581847Y-125757425D01*
X102582230Y-125730000D01*
X102563524Y-125539217D01*
X102508117Y-125355701D01*
X102418120Y-125186442D01*
X102296962Y-125037887D01*
X102233081Y-124985040D01*
X102154006Y-124919623D01*
X102154002Y-124919621D01*
X102149256Y-124915694D01*
X101980629Y-124824518D01*
X101889067Y-124796175D01*
X101803392Y-124769654D01*
X101803389Y-124769653D01*
X101797505Y-124767832D01*
X101791380Y-124767188D01*
X101791379Y-124767188D01*
X101612985Y-124748438D01*
X101612984Y-124748438D01*
X101606857Y-124747794D01*
X101526779Y-124755082D01*
X101422087Y-124764609D01*
X101422084Y-124764610D01*
X101415948Y-124765168D01*
X101410042Y-124766906D01*
X101410038Y-124766907D01*
X101274622Y-124806762D01*
X101232050Y-124819292D01*
X101226590Y-124822146D01*
X101226591Y-124822146D01*
X101067627Y-124905250D01*
X101067623Y-124905253D01*
X101062167Y-124908105D01*
X101057367Y-124911965D01*
X101057366Y-124911965D01*
X101052728Y-124915694D01*
X100912770Y-125028223D01*
X100789549Y-125175072D01*
X100786585Y-125180464D01*
X100786582Y-125180468D01*
X100711110Y-125317752D01*
X100697198Y-125343058D01*
X100639234Y-125525783D01*
X100617866Y-125716286D01*
X100633907Y-125907311D01*
X100654499Y-125979124D01*
X100654048Y-126050117D01*
X100622475Y-126102948D01*
X98728176Y-127997248D01*
X98665864Y-128031273D01*
X98595049Y-128026209D01*
X98565021Y-128010090D01*
X98515646Y-127974217D01*
X98515643Y-127974215D01*
X98510305Y-127970337D01*
X98504277Y-127967653D01*
X98504275Y-127967652D01*
X98338223Y-127893721D01*
X98338222Y-127893721D01*
X98332192Y-127891036D01*
X98236838Y-127870768D01*
X98147941Y-127851872D01*
X98147937Y-127851872D01*
X98141484Y-127850500D01*
X97946516Y-127850500D01*
X97940063Y-127851872D01*
X97940059Y-127851872D01*
X97851162Y-127870768D01*
X97755808Y-127891036D01*
X97749779Y-127893720D01*
X97749777Y-127893721D01*
X97583726Y-127967652D01*
X97583724Y-127967653D01*
X97577696Y-127970337D01*
X97419963Y-128084936D01*
X97289503Y-128229826D01*
X97192019Y-128398674D01*
X97131771Y-128584100D01*
X97111391Y-128778000D01*
X96333733Y-128778000D01*
X101020637Y-124091097D01*
X101082949Y-124057071D01*
X101153764Y-124062136D01*
X101171202Y-124070204D01*
X101198527Y-124085475D01*
X101206765Y-124090079D01*
X101389081Y-124149317D01*
X101579430Y-124172015D01*
X101585565Y-124171543D01*
X101585567Y-124171543D01*
X101764420Y-124157781D01*
X101764424Y-124157780D01*
X101770562Y-124157308D01*
X101955199Y-124105756D01*
X102126305Y-124019324D01*
X102277365Y-123901303D01*
X102281391Y-123896639D01*
X102398595Y-123760857D01*
X102398596Y-123760855D01*
X102402624Y-123756189D01*
X102497312Y-123589509D01*
X102557821Y-123407612D01*
X102581847Y-123217425D01*
X102582230Y-123190000D01*
X102563524Y-122999217D01*
X102508117Y-122815701D01*
X102418120Y-122646442D01*
X102296962Y-122497887D01*
X102233081Y-122445040D01*
X102154006Y-122379623D01*
X102154002Y-122379621D01*
X102149256Y-122375694D01*
X101980629Y-122284518D01*
X101889067Y-122256175D01*
X101803392Y-122229654D01*
X101803389Y-122229653D01*
X101797505Y-122227832D01*
X101791380Y-122227188D01*
X101791379Y-122227188D01*
X101612985Y-122208438D01*
X101612984Y-122208438D01*
X101606857Y-122207794D01*
X101526779Y-122215082D01*
X101422087Y-122224609D01*
X101422084Y-122224610D01*
X101415948Y-122225168D01*
X101410042Y-122226906D01*
X101410038Y-122226907D01*
X101274622Y-122266762D01*
X101232050Y-122279292D01*
X101226590Y-122282146D01*
X101226591Y-122282146D01*
X101067627Y-122365250D01*
X101067623Y-122365253D01*
X101062167Y-122368105D01*
X101057367Y-122371965D01*
X101057366Y-122371965D01*
X101052728Y-122375694D01*
X100912770Y-122488223D01*
X100789549Y-122635072D01*
X100786585Y-122640464D01*
X100786582Y-122640468D01*
X100711110Y-122777752D01*
X100697198Y-122803058D01*
X100639234Y-122985783D01*
X100617866Y-123176286D01*
X100633907Y-123367311D01*
X100635606Y-123373236D01*
X100643709Y-123401493D01*
X100686746Y-123551583D01*
X100689561Y-123557060D01*
X100689562Y-123557063D01*
X100722804Y-123621745D01*
X100736151Y-123691476D01*
X100709680Y-123757353D01*
X100699832Y-123768434D01*
X95954671Y-128513595D01*
X95892359Y-128547621D01*
X95865576Y-128550500D01*
X94718856Y-128550500D01*
X94650735Y-128530498D01*
X94604242Y-128476842D01*
X94599023Y-128463435D01*
X94580024Y-128404961D01*
X94580023Y-128404959D01*
X94577981Y-128398674D01*
X94480497Y-128229826D01*
X94350037Y-128084936D01*
X94192305Y-127970337D01*
X94186277Y-127967653D01*
X94186275Y-127967652D01*
X94020223Y-127893721D01*
X94020222Y-127893721D01*
X94014192Y-127891036D01*
X93918838Y-127870768D01*
X93829941Y-127851872D01*
X93829937Y-127851872D01*
X93823484Y-127850500D01*
X93628516Y-127850500D01*
X93622063Y-127851872D01*
X93622059Y-127851872D01*
X93533162Y-127870768D01*
X93437808Y-127891036D01*
X93431779Y-127893720D01*
X93431777Y-127893721D01*
X93265726Y-127967652D01*
X93265724Y-127967653D01*
X93259696Y-127970337D01*
X93101963Y-128084936D01*
X92971503Y-128229826D01*
X92874019Y-128398674D01*
X92813771Y-128584100D01*
X92793391Y-128778000D01*
X90180500Y-128778000D01*
X90180500Y-113016286D01*
X100617866Y-113016286D01*
X100633907Y-113207311D01*
X100635606Y-113213236D01*
X100643709Y-113241493D01*
X100686746Y-113391583D01*
X100774370Y-113562082D01*
X100778193Y-113566906D01*
X100778196Y-113566910D01*
X100849082Y-113656345D01*
X100893443Y-113712314D01*
X101039428Y-113836557D01*
X101206765Y-113930079D01*
X101389081Y-113989317D01*
X101579430Y-114012015D01*
X101585565Y-114011543D01*
X101585567Y-114011543D01*
X101764420Y-113997781D01*
X101764424Y-113997780D01*
X101770562Y-113997308D01*
X101955199Y-113945756D01*
X102126305Y-113859324D01*
X102151600Y-113839562D01*
X102272509Y-113745097D01*
X102277365Y-113741303D01*
X102318843Y-113693250D01*
X102398595Y-113600857D01*
X102398596Y-113600855D01*
X102402624Y-113596189D01*
X102497312Y-113429509D01*
X102557821Y-113247612D01*
X102581847Y-113057425D01*
X102582230Y-113030000D01*
X102563524Y-112839217D01*
X102508117Y-112655701D01*
X102418120Y-112486442D01*
X102296962Y-112337887D01*
X102233081Y-112285040D01*
X102154006Y-112219623D01*
X102154002Y-112219621D01*
X102149256Y-112215694D01*
X101980629Y-112124518D01*
X101889067Y-112096175D01*
X101803392Y-112069654D01*
X101803389Y-112069653D01*
X101797505Y-112067832D01*
X101791380Y-112067188D01*
X101791379Y-112067188D01*
X101612985Y-112048438D01*
X101612984Y-112048438D01*
X101606857Y-112047794D01*
X101526779Y-112055082D01*
X101422087Y-112064609D01*
X101422084Y-112064610D01*
X101415948Y-112065168D01*
X101410042Y-112066906D01*
X101410038Y-112066907D01*
X101274622Y-112106762D01*
X101232050Y-112119292D01*
X101226590Y-112122146D01*
X101226591Y-112122146D01*
X101067627Y-112205250D01*
X101067623Y-112205253D01*
X101062167Y-112208105D01*
X101057367Y-112211965D01*
X101057366Y-112211965D01*
X101052728Y-112215694D01*
X100912770Y-112328223D01*
X100789549Y-112475072D01*
X100786585Y-112480464D01*
X100786582Y-112480468D01*
X100711110Y-112617752D01*
X100697198Y-112643058D01*
X100639234Y-112825783D01*
X100617866Y-113016286D01*
X90180500Y-113016286D01*
X90180500Y-110476286D01*
X100617866Y-110476286D01*
X100633907Y-110667311D01*
X100635606Y-110673236D01*
X100643709Y-110701493D01*
X100686746Y-110851583D01*
X100774370Y-111022082D01*
X100778193Y-111026906D01*
X100778196Y-111026910D01*
X100885904Y-111162802D01*
X100893443Y-111172314D01*
X101039428Y-111296557D01*
X101206765Y-111390079D01*
X101389081Y-111449317D01*
X101579430Y-111472015D01*
X101585565Y-111471543D01*
X101585567Y-111471543D01*
X101764420Y-111457781D01*
X101764424Y-111457780D01*
X101770562Y-111457308D01*
X101955199Y-111405756D01*
X102126305Y-111319324D01*
X102151600Y-111299562D01*
X102272509Y-111205097D01*
X102277365Y-111201303D01*
X102402624Y-111056189D01*
X102497312Y-110889509D01*
X102557821Y-110707612D01*
X102581847Y-110517425D01*
X102582230Y-110490000D01*
X102563524Y-110299217D01*
X102508117Y-110115701D01*
X102418120Y-109946442D01*
X102296962Y-109797887D01*
X102233081Y-109745040D01*
X102154006Y-109679623D01*
X102154002Y-109679621D01*
X102149256Y-109675694D01*
X101980629Y-109584518D01*
X101889067Y-109556175D01*
X101803392Y-109529654D01*
X101803389Y-109529653D01*
X101797505Y-109527832D01*
X101791380Y-109527188D01*
X101791379Y-109527188D01*
X101612985Y-109508438D01*
X101612984Y-109508438D01*
X101606857Y-109507794D01*
X101526779Y-109515082D01*
X101422087Y-109524609D01*
X101422084Y-109524610D01*
X101415948Y-109525168D01*
X101410042Y-109526906D01*
X101410038Y-109526907D01*
X101274622Y-109566762D01*
X101232050Y-109579292D01*
X101226590Y-109582146D01*
X101226591Y-109582146D01*
X101067627Y-109665250D01*
X101067623Y-109665253D01*
X101062167Y-109668105D01*
X101057367Y-109671965D01*
X101057366Y-109671965D01*
X101052728Y-109675694D01*
X100912770Y-109788223D01*
X100789549Y-109935072D01*
X100786585Y-109940464D01*
X100786582Y-109940468D01*
X100711110Y-110077752D01*
X100697198Y-110103058D01*
X100639234Y-110285783D01*
X100617866Y-110476286D01*
X90180500Y-110476286D01*
X90180500Y-107936286D01*
X100617866Y-107936286D01*
X100633907Y-108127311D01*
X100635606Y-108133236D01*
X100643709Y-108161493D01*
X100686746Y-108311583D01*
X100689561Y-108317060D01*
X100689562Y-108317063D01*
X100769252Y-108472123D01*
X100774370Y-108482082D01*
X100778193Y-108486906D01*
X100778196Y-108486910D01*
X100828966Y-108550965D01*
X100893443Y-108632314D01*
X100898137Y-108636308D01*
X100898137Y-108636309D01*
X101033725Y-108751703D01*
X101039428Y-108756557D01*
X101206765Y-108850079D01*
X101389081Y-108909317D01*
X101579430Y-108932015D01*
X101585565Y-108931543D01*
X101585567Y-108931543D01*
X101764420Y-108917781D01*
X101764424Y-108917780D01*
X101770562Y-108917308D01*
X101955199Y-108865756D01*
X102126305Y-108779324D01*
X102151600Y-108759562D01*
X102272509Y-108665097D01*
X102277365Y-108661303D01*
X102331407Y-108598695D01*
X102398595Y-108520857D01*
X102398596Y-108520855D01*
X102402624Y-108516189D01*
X102497312Y-108349509D01*
X102557821Y-108167612D01*
X102581847Y-107977425D01*
X102582230Y-107950000D01*
X102563524Y-107759217D01*
X102508117Y-107575701D01*
X102418120Y-107406442D01*
X102296962Y-107257887D01*
X102233081Y-107205040D01*
X102154006Y-107139623D01*
X102154002Y-107139621D01*
X102149256Y-107135694D01*
X101980629Y-107044518D01*
X101889067Y-107016175D01*
X101803392Y-106989654D01*
X101803389Y-106989653D01*
X101797505Y-106987832D01*
X101791380Y-106987188D01*
X101791379Y-106987188D01*
X101612985Y-106968438D01*
X101612984Y-106968438D01*
X101606857Y-106967794D01*
X101526779Y-106975082D01*
X101422087Y-106984609D01*
X101422084Y-106984610D01*
X101415948Y-106985168D01*
X101410042Y-106986906D01*
X101410038Y-106986907D01*
X101274622Y-107026762D01*
X101232050Y-107039292D01*
X101226590Y-107042146D01*
X101226591Y-107042146D01*
X101067627Y-107125250D01*
X101067623Y-107125253D01*
X101062167Y-107128105D01*
X101057367Y-107131965D01*
X101057366Y-107131965D01*
X101052728Y-107135694D01*
X100912770Y-107248223D01*
X100789549Y-107395072D01*
X100786585Y-107400464D01*
X100786582Y-107400468D01*
X100711110Y-107537752D01*
X100697198Y-107563058D01*
X100639234Y-107745783D01*
X100617866Y-107936286D01*
X90180500Y-107936286D01*
X90180500Y-105396286D01*
X100617866Y-105396286D01*
X100633907Y-105587311D01*
X100635606Y-105593236D01*
X100643709Y-105621493D01*
X100686746Y-105771583D01*
X100774370Y-105942082D01*
X100778193Y-105946906D01*
X100778196Y-105946910D01*
X100885904Y-106082802D01*
X100893443Y-106092314D01*
X101039428Y-106216557D01*
X101206765Y-106310079D01*
X101389081Y-106369317D01*
X101579430Y-106392015D01*
X101585565Y-106391543D01*
X101585567Y-106391543D01*
X101764420Y-106377781D01*
X101764424Y-106377780D01*
X101770562Y-106377308D01*
X101955199Y-106325756D01*
X102126305Y-106239324D01*
X102151600Y-106219562D01*
X102272509Y-106125097D01*
X102277365Y-106121303D01*
X102402624Y-105976189D01*
X102497312Y-105809509D01*
X102557821Y-105627612D01*
X102581847Y-105437425D01*
X102582230Y-105410000D01*
X102563524Y-105219217D01*
X102508117Y-105035701D01*
X102418120Y-104866442D01*
X102296962Y-104717887D01*
X102233081Y-104665040D01*
X102154006Y-104599623D01*
X102154002Y-104599621D01*
X102149256Y-104595694D01*
X101980629Y-104504518D01*
X101889067Y-104476175D01*
X101803392Y-104449654D01*
X101803389Y-104449653D01*
X101797505Y-104447832D01*
X101791380Y-104447188D01*
X101791379Y-104447188D01*
X101612985Y-104428438D01*
X101612984Y-104428438D01*
X101606857Y-104427794D01*
X101526779Y-104435082D01*
X101422087Y-104444609D01*
X101422084Y-104444610D01*
X101415948Y-104445168D01*
X101410042Y-104446906D01*
X101410038Y-104446907D01*
X101274622Y-104486762D01*
X101232050Y-104499292D01*
X101226590Y-104502146D01*
X101226591Y-104502146D01*
X101067627Y-104585250D01*
X101067623Y-104585253D01*
X101062167Y-104588105D01*
X101057367Y-104591965D01*
X101057366Y-104591965D01*
X101052728Y-104595694D01*
X100912770Y-104708223D01*
X100789549Y-104855072D01*
X100786585Y-104860464D01*
X100786582Y-104860468D01*
X100711110Y-104997752D01*
X100697198Y-105023058D01*
X100639234Y-105205783D01*
X100617866Y-105396286D01*
X90180500Y-105396286D01*
X90180500Y-102856286D01*
X100617866Y-102856286D01*
X100633907Y-103047311D01*
X100635606Y-103053236D01*
X100643709Y-103081493D01*
X100686746Y-103231583D01*
X100689561Y-103237060D01*
X100689562Y-103237063D01*
X100767849Y-103389394D01*
X100774370Y-103402082D01*
X100778193Y-103406906D01*
X100778196Y-103406910D01*
X100885904Y-103542802D01*
X100893443Y-103552314D01*
X101039428Y-103676557D01*
X101206765Y-103770079D01*
X101389081Y-103829317D01*
X101579430Y-103852015D01*
X101585565Y-103851543D01*
X101585567Y-103851543D01*
X101764420Y-103837781D01*
X101764424Y-103837780D01*
X101770562Y-103837308D01*
X101955199Y-103785756D01*
X102126305Y-103699324D01*
X102151600Y-103679562D01*
X102272509Y-103585097D01*
X102277365Y-103581303D01*
X102402624Y-103436189D01*
X102497312Y-103269509D01*
X102557821Y-103087612D01*
X102581847Y-102897425D01*
X102582230Y-102870000D01*
X102563524Y-102679217D01*
X102508117Y-102495701D01*
X102446330Y-102379497D01*
X102421014Y-102331884D01*
X102421012Y-102331881D01*
X102418120Y-102326442D01*
X102296962Y-102177887D01*
X102233081Y-102125040D01*
X102154006Y-102059623D01*
X102154002Y-102059621D01*
X102149256Y-102055694D01*
X101980629Y-101964518D01*
X101889067Y-101936175D01*
X101803392Y-101909654D01*
X101803389Y-101909653D01*
X101797505Y-101907832D01*
X101791380Y-101907188D01*
X101791379Y-101907188D01*
X101612985Y-101888438D01*
X101612984Y-101888438D01*
X101606857Y-101887794D01*
X101526779Y-101895082D01*
X101422087Y-101904609D01*
X101422084Y-101904610D01*
X101415948Y-101905168D01*
X101410042Y-101906906D01*
X101410038Y-101906907D01*
X101274622Y-101946762D01*
X101232050Y-101959292D01*
X101226590Y-101962146D01*
X101226591Y-101962146D01*
X101067627Y-102045250D01*
X101067623Y-102045253D01*
X101062167Y-102048105D01*
X101057367Y-102051965D01*
X101057366Y-102051965D01*
X101052728Y-102055694D01*
X100912770Y-102168223D01*
X100789549Y-102315072D01*
X100786585Y-102320464D01*
X100786582Y-102320468D01*
X100756866Y-102374522D01*
X100697198Y-102483058D01*
X100639234Y-102665783D01*
X100617866Y-102856286D01*
X90180500Y-102856286D01*
X90180500Y-100316286D01*
X100617866Y-100316286D01*
X100633907Y-100507311D01*
X100635606Y-100513236D01*
X100681859Y-100674539D01*
X100686746Y-100691583D01*
X100689561Y-100697060D01*
X100689562Y-100697063D01*
X100760392Y-100834884D01*
X100774370Y-100862082D01*
X100778193Y-100866906D01*
X100778196Y-100866910D01*
X100822306Y-100922562D01*
X100893443Y-101012314D01*
X100898137Y-101016308D01*
X100898137Y-101016309D01*
X101025097Y-101124360D01*
X101039428Y-101136557D01*
X101206765Y-101230079D01*
X101389081Y-101289317D01*
X101579430Y-101312015D01*
X101585565Y-101311543D01*
X101585567Y-101311543D01*
X101764420Y-101297781D01*
X101764424Y-101297780D01*
X101770562Y-101297308D01*
X101955199Y-101245756D01*
X102126305Y-101159324D01*
X102151600Y-101139562D01*
X102272509Y-101045097D01*
X102277365Y-101041303D01*
X102306558Y-101007483D01*
X102398595Y-100900857D01*
X102398596Y-100900855D01*
X102402624Y-100896189D01*
X102497312Y-100729509D01*
X102557821Y-100547612D01*
X102581847Y-100357425D01*
X102582230Y-100330000D01*
X102563524Y-100139217D01*
X102508117Y-99955701D01*
X102418120Y-99786442D01*
X102296962Y-99637887D01*
X102233081Y-99585040D01*
X102154006Y-99519623D01*
X102154002Y-99519621D01*
X102149256Y-99515694D01*
X101980629Y-99424518D01*
X101871015Y-99390587D01*
X101803392Y-99369654D01*
X101803389Y-99369653D01*
X101797505Y-99367832D01*
X101791380Y-99367188D01*
X101791379Y-99367188D01*
X101612985Y-99348438D01*
X101612984Y-99348438D01*
X101606857Y-99347794D01*
X101526779Y-99355082D01*
X101422087Y-99364609D01*
X101422084Y-99364610D01*
X101415948Y-99365168D01*
X101410042Y-99366906D01*
X101410038Y-99366907D01*
X101329581Y-99390587D01*
X101232050Y-99419292D01*
X101226590Y-99422146D01*
X101226591Y-99422146D01*
X101067627Y-99505250D01*
X101067623Y-99505253D01*
X101062167Y-99508105D01*
X101057367Y-99511965D01*
X101057366Y-99511965D01*
X101053212Y-99515305D01*
X100912770Y-99628223D01*
X100789549Y-99775072D01*
X100786585Y-99780464D01*
X100786582Y-99780468D01*
X100711110Y-99917752D01*
X100697198Y-99943058D01*
X100639234Y-100125783D01*
X100617866Y-100316286D01*
X90180500Y-100316286D01*
X90180500Y-97776286D01*
X100617866Y-97776286D01*
X100618382Y-97782430D01*
X100630467Y-97926340D01*
X100633907Y-97967311D01*
X100635606Y-97973236D01*
X100643709Y-98001493D01*
X100686746Y-98151583D01*
X100774370Y-98322082D01*
X100778193Y-98326906D01*
X100778196Y-98326910D01*
X100885904Y-98462802D01*
X100893443Y-98472314D01*
X101039428Y-98596557D01*
X101206765Y-98690079D01*
X101389081Y-98749317D01*
X101579430Y-98772015D01*
X101585565Y-98771543D01*
X101585567Y-98771543D01*
X101764420Y-98757781D01*
X101764424Y-98757780D01*
X101770562Y-98757308D01*
X101955199Y-98705756D01*
X102126305Y-98619324D01*
X102151600Y-98599562D01*
X102272509Y-98505097D01*
X102277365Y-98501303D01*
X102402624Y-98356189D01*
X102497312Y-98189509D01*
X102557821Y-98007612D01*
X102581847Y-97817425D01*
X102582230Y-97790000D01*
X102563524Y-97599217D01*
X102508117Y-97415701D01*
X102487217Y-97376394D01*
X102421014Y-97251884D01*
X102421012Y-97251881D01*
X102418120Y-97246442D01*
X102305157Y-97107935D01*
X102300856Y-97102661D01*
X102300854Y-97102659D01*
X102296962Y-97097887D01*
X102233081Y-97045040D01*
X102154006Y-96979623D01*
X102154002Y-96979621D01*
X102149256Y-96975694D01*
X101980629Y-96884518D01*
X101889067Y-96856175D01*
X101803392Y-96829654D01*
X101803389Y-96829653D01*
X101797505Y-96827832D01*
X101791380Y-96827188D01*
X101791379Y-96827188D01*
X101612985Y-96808438D01*
X101612984Y-96808438D01*
X101606857Y-96807794D01*
X101526779Y-96815082D01*
X101422087Y-96824609D01*
X101422084Y-96824610D01*
X101415948Y-96825168D01*
X101410042Y-96826906D01*
X101410038Y-96826907D01*
X101295733Y-96860549D01*
X101232050Y-96879292D01*
X101226590Y-96882146D01*
X101226591Y-96882146D01*
X101067627Y-96965250D01*
X101067623Y-96965253D01*
X101062167Y-96968105D01*
X101057367Y-96971965D01*
X101057366Y-96971965D01*
X101052728Y-96975694D01*
X100912770Y-97088223D01*
X100908812Y-97092940D01*
X100908810Y-97092942D01*
X100892133Y-97112817D01*
X100789549Y-97235072D01*
X100786585Y-97240464D01*
X100786582Y-97240468D01*
X100767334Y-97275481D01*
X100697198Y-97403058D01*
X100639234Y-97585783D01*
X100617866Y-97776286D01*
X90180500Y-97776286D01*
X90180500Y-95236286D01*
X100617866Y-95236286D01*
X100633907Y-95427311D01*
X100635606Y-95433236D01*
X100682801Y-95597824D01*
X100686746Y-95611583D01*
X100689561Y-95617060D01*
X100689562Y-95617063D01*
X100727563Y-95691005D01*
X100774370Y-95782082D01*
X100778193Y-95786906D01*
X100778196Y-95786910D01*
X100872469Y-95905852D01*
X100893443Y-95932314D01*
X100898137Y-95936308D01*
X100898137Y-95936309D01*
X101025097Y-96044360D01*
X101039428Y-96056557D01*
X101206765Y-96150079D01*
X101389081Y-96209317D01*
X101579430Y-96232015D01*
X101585565Y-96231543D01*
X101585567Y-96231543D01*
X101764420Y-96217781D01*
X101764424Y-96217780D01*
X101770562Y-96217308D01*
X101955199Y-96165756D01*
X102126305Y-96079324D01*
X102151600Y-96059562D01*
X102272509Y-95965097D01*
X102277365Y-95961303D01*
X102306558Y-95927483D01*
X102398595Y-95820857D01*
X102398596Y-95820855D01*
X102402624Y-95816189D01*
X102497312Y-95649509D01*
X102557821Y-95467612D01*
X102581847Y-95277425D01*
X102582230Y-95250000D01*
X102563524Y-95059217D01*
X102508117Y-94875701D01*
X102418120Y-94706442D01*
X102296962Y-94557887D01*
X102233081Y-94505040D01*
X102154006Y-94439623D01*
X102154002Y-94439621D01*
X102149256Y-94435694D01*
X101980629Y-94344518D01*
X101889067Y-94316175D01*
X101803392Y-94289654D01*
X101803389Y-94289653D01*
X101797505Y-94287832D01*
X101791380Y-94287188D01*
X101791379Y-94287188D01*
X101612985Y-94268438D01*
X101612984Y-94268438D01*
X101606857Y-94267794D01*
X101526779Y-94275082D01*
X101422087Y-94284609D01*
X101422084Y-94284610D01*
X101415948Y-94285168D01*
X101410042Y-94286906D01*
X101410038Y-94286907D01*
X101274622Y-94326762D01*
X101232050Y-94339292D01*
X101226590Y-94342146D01*
X101226591Y-94342146D01*
X101067627Y-94425250D01*
X101067623Y-94425253D01*
X101062167Y-94428105D01*
X101057367Y-94431965D01*
X101057366Y-94431965D01*
X101052728Y-94435694D01*
X100912770Y-94548223D01*
X100789549Y-94695072D01*
X100786585Y-94700464D01*
X100786582Y-94700468D01*
X100711110Y-94837752D01*
X100697198Y-94863058D01*
X100639234Y-95045783D01*
X100617866Y-95236286D01*
X90180500Y-95236286D01*
X90180500Y-92696286D01*
X100617866Y-92696286D01*
X100620218Y-92724297D01*
X100631174Y-92854761D01*
X100633907Y-92887311D01*
X100635606Y-92893236D01*
X100664350Y-92993477D01*
X100686746Y-93071583D01*
X100689561Y-93077060D01*
X100689562Y-93077063D01*
X100714293Y-93125184D01*
X100774370Y-93242082D01*
X100778193Y-93246906D01*
X100778196Y-93246910D01*
X100864112Y-93355308D01*
X100893443Y-93392314D01*
X101039428Y-93516557D01*
X101206765Y-93610079D01*
X101389081Y-93669317D01*
X101579430Y-93692015D01*
X101585565Y-93691543D01*
X101585567Y-93691543D01*
X101764420Y-93677781D01*
X101764424Y-93677780D01*
X101770562Y-93677308D01*
X101955199Y-93625756D01*
X102126305Y-93539324D01*
X102151600Y-93519562D01*
X102272509Y-93425097D01*
X102277365Y-93421303D01*
X102333004Y-93356845D01*
X102398595Y-93280857D01*
X102398596Y-93280855D01*
X102402624Y-93276189D01*
X102497312Y-93109509D01*
X102557821Y-92927612D01*
X102581847Y-92737425D01*
X102582230Y-92710000D01*
X102563524Y-92519217D01*
X102508117Y-92335701D01*
X102418120Y-92166442D01*
X102357579Y-92092211D01*
X102300856Y-92022661D01*
X102300854Y-92022659D01*
X102296962Y-92017887D01*
X102212483Y-91948000D01*
X102154006Y-91899623D01*
X102154002Y-91899621D01*
X102149256Y-91895694D01*
X101980629Y-91804518D01*
X101838959Y-91760664D01*
X101803392Y-91749654D01*
X101803389Y-91749653D01*
X101797505Y-91747832D01*
X101791380Y-91747188D01*
X101791379Y-91747188D01*
X101612985Y-91728438D01*
X101612984Y-91728438D01*
X101606857Y-91727794D01*
X101526779Y-91735082D01*
X101422087Y-91744609D01*
X101422084Y-91744610D01*
X101415948Y-91745168D01*
X101410042Y-91746906D01*
X101410038Y-91746907D01*
X101274622Y-91786762D01*
X101232050Y-91799292D01*
X101226590Y-91802146D01*
X101226591Y-91802146D01*
X101067627Y-91885250D01*
X101067623Y-91885253D01*
X101062167Y-91888105D01*
X101057367Y-91891965D01*
X101057366Y-91891965D01*
X101052728Y-91895694D01*
X100912770Y-92008223D01*
X100789549Y-92155072D01*
X100786585Y-92160464D01*
X100786582Y-92160468D01*
X100711110Y-92297752D01*
X100697198Y-92323058D01*
X100695337Y-92328925D01*
X100695336Y-92328927D01*
X100641096Y-92499913D01*
X100639234Y-92505783D01*
X100617866Y-92696286D01*
X90180500Y-92696286D01*
X90180500Y-92466062D01*
X96814493Y-92466062D01*
X96823789Y-92478077D01*
X96874994Y-92513931D01*
X96884489Y-92519414D01*
X97081947Y-92611490D01*
X97092239Y-92615236D01*
X97302688Y-92671625D01*
X97313481Y-92673528D01*
X97530525Y-92692517D01*
X97541475Y-92692517D01*
X97758519Y-92673528D01*
X97769312Y-92671625D01*
X97979761Y-92615236D01*
X97990053Y-92611490D01*
X98187511Y-92519414D01*
X98197006Y-92513931D01*
X98249048Y-92477491D01*
X98257424Y-92467012D01*
X98250356Y-92453566D01*
X97548812Y-91752022D01*
X97534868Y-91744408D01*
X97533035Y-91744539D01*
X97526420Y-91748790D01*
X96820923Y-92454287D01*
X96814493Y-92466062D01*
X90180500Y-92466062D01*
X90180500Y-91385475D01*
X96223483Y-91385475D01*
X96242472Y-91602519D01*
X96244375Y-91613312D01*
X96300764Y-91823761D01*
X96304510Y-91834053D01*
X96396586Y-92031511D01*
X96402069Y-92041006D01*
X96438509Y-92093048D01*
X96448988Y-92101424D01*
X96462434Y-92094356D01*
X97163978Y-91392812D01*
X97170356Y-91381132D01*
X97900408Y-91381132D01*
X97900539Y-91382965D01*
X97904790Y-91389580D01*
X98610287Y-92095077D01*
X98622062Y-92101507D01*
X98634077Y-92092211D01*
X98669931Y-92041006D01*
X98675414Y-92031511D01*
X98767490Y-91834053D01*
X98771236Y-91823761D01*
X98827625Y-91613312D01*
X98829528Y-91602519D01*
X98848517Y-91385475D01*
X98848517Y-91374525D01*
X98829528Y-91157481D01*
X98827625Y-91146688D01*
X98771236Y-90936239D01*
X98767490Y-90925947D01*
X98675414Y-90728489D01*
X98669931Y-90718994D01*
X98633491Y-90666952D01*
X98623012Y-90658576D01*
X98609566Y-90665644D01*
X97908022Y-91367188D01*
X97900408Y-91381132D01*
X97170356Y-91381132D01*
X97171592Y-91378868D01*
X97171461Y-91377035D01*
X97167210Y-91370420D01*
X96461713Y-90664923D01*
X96449938Y-90658493D01*
X96437923Y-90667789D01*
X96402069Y-90718994D01*
X96396586Y-90728489D01*
X96304510Y-90925947D01*
X96300764Y-90936239D01*
X96244375Y-91146688D01*
X96242472Y-91157481D01*
X96223483Y-91374525D01*
X96223483Y-91385475D01*
X90180500Y-91385475D01*
X90180500Y-90292988D01*
X96814576Y-90292988D01*
X96821644Y-90306434D01*
X97523188Y-91007978D01*
X97537132Y-91015592D01*
X97538965Y-91015461D01*
X97545580Y-91011210D01*
X98251077Y-90305713D01*
X98257507Y-90293938D01*
X98248211Y-90281923D01*
X98197006Y-90246069D01*
X98187511Y-90240586D01*
X98006729Y-90156286D01*
X100617866Y-90156286D01*
X100633907Y-90347311D01*
X100635606Y-90353236D01*
X100643709Y-90381493D01*
X100686746Y-90531583D01*
X100689561Y-90537060D01*
X100689562Y-90537063D01*
X100756316Y-90666952D01*
X100774370Y-90702082D01*
X100778193Y-90706906D01*
X100778196Y-90706910D01*
X100849082Y-90796345D01*
X100893443Y-90852314D01*
X100898137Y-90856308D01*
X100898137Y-90856309D01*
X100992055Y-90936239D01*
X101039428Y-90976557D01*
X101206765Y-91070079D01*
X101389081Y-91129317D01*
X101579430Y-91152015D01*
X101585565Y-91151543D01*
X101585567Y-91151543D01*
X101764420Y-91137781D01*
X101764424Y-91137780D01*
X101770562Y-91137308D01*
X101955199Y-91085756D01*
X102126305Y-90999324D01*
X102151600Y-90979562D01*
X102272509Y-90885097D01*
X102277365Y-90881303D01*
X102335780Y-90813629D01*
X102398595Y-90740857D01*
X102398596Y-90740855D01*
X102402624Y-90736189D01*
X102497312Y-90569509D01*
X102557821Y-90387612D01*
X102581847Y-90197425D01*
X102582230Y-90170000D01*
X102563524Y-89979217D01*
X102508117Y-89795701D01*
X102498526Y-89777663D01*
X102421014Y-89631884D01*
X102421012Y-89631881D01*
X102418120Y-89626442D01*
X102351216Y-89544409D01*
X102300856Y-89482661D01*
X102300854Y-89482659D01*
X102296962Y-89477887D01*
X102207566Y-89403932D01*
X102154006Y-89359623D01*
X102154002Y-89359621D01*
X102149256Y-89355694D01*
X101980629Y-89264518D01*
X101884780Y-89234848D01*
X101803392Y-89209654D01*
X101803389Y-89209653D01*
X101797505Y-89207832D01*
X101791380Y-89207188D01*
X101791379Y-89207188D01*
X101612985Y-89188438D01*
X101612984Y-89188438D01*
X101606857Y-89187794D01*
X101526779Y-89195082D01*
X101422087Y-89204609D01*
X101422084Y-89204610D01*
X101415948Y-89205168D01*
X101410042Y-89206906D01*
X101410038Y-89206907D01*
X101298200Y-89239823D01*
X101232050Y-89259292D01*
X101226590Y-89262146D01*
X101226591Y-89262146D01*
X101067627Y-89345250D01*
X101067623Y-89345253D01*
X101062167Y-89348105D01*
X101057367Y-89351965D01*
X101057366Y-89351965D01*
X101052728Y-89355694D01*
X100912770Y-89468223D01*
X100908812Y-89472940D01*
X100908810Y-89472942D01*
X100871619Y-89517265D01*
X100789549Y-89615072D01*
X100786585Y-89620464D01*
X100786582Y-89620468D01*
X100711110Y-89757752D01*
X100697198Y-89783058D01*
X100639234Y-89965783D01*
X100617866Y-90156286D01*
X98006729Y-90156286D01*
X97990053Y-90148510D01*
X97979761Y-90144764D01*
X97769312Y-90088375D01*
X97758519Y-90086472D01*
X97541475Y-90067483D01*
X97530525Y-90067483D01*
X97313481Y-90086472D01*
X97302688Y-90088375D01*
X97092239Y-90144764D01*
X97081947Y-90148510D01*
X96884489Y-90240586D01*
X96874994Y-90246069D01*
X96822952Y-90282509D01*
X96814576Y-90292988D01*
X90180500Y-90292988D01*
X90180500Y-87616286D01*
X100617866Y-87616286D01*
X100618382Y-87622430D01*
X100629796Y-87758350D01*
X100633907Y-87807311D01*
X100635606Y-87813236D01*
X100643709Y-87841493D01*
X100686746Y-87991583D01*
X100689561Y-87997060D01*
X100689562Y-87997063D01*
X100763741Y-88141401D01*
X100774370Y-88162082D01*
X100778193Y-88166906D01*
X100778196Y-88166910D01*
X100849634Y-88257041D01*
X100893443Y-88312314D01*
X100898137Y-88316308D01*
X100898137Y-88316309D01*
X101022506Y-88422155D01*
X101039428Y-88436557D01*
X101206765Y-88530079D01*
X101389081Y-88589317D01*
X101579430Y-88612015D01*
X101585565Y-88611543D01*
X101585567Y-88611543D01*
X101764420Y-88597781D01*
X101764424Y-88597780D01*
X101770562Y-88597308D01*
X101955199Y-88545756D01*
X102126305Y-88459324D01*
X102144536Y-88445081D01*
X102272509Y-88345097D01*
X102277365Y-88341303D01*
X102289054Y-88327761D01*
X102398595Y-88200857D01*
X102398596Y-88200855D01*
X102402624Y-88196189D01*
X102497312Y-88029509D01*
X102557821Y-87847612D01*
X102581847Y-87657425D01*
X102582230Y-87630000D01*
X102563524Y-87439217D01*
X102508117Y-87255701D01*
X102418120Y-87086442D01*
X102347393Y-86999722D01*
X102300856Y-86942661D01*
X102300854Y-86942659D01*
X102296962Y-86937887D01*
X102220979Y-86875028D01*
X102154006Y-86819623D01*
X102154002Y-86819621D01*
X102149256Y-86815694D01*
X101980629Y-86724518D01*
X101889067Y-86696175D01*
X101803392Y-86669654D01*
X101803389Y-86669653D01*
X101797505Y-86667832D01*
X101791380Y-86667188D01*
X101791379Y-86667188D01*
X101612985Y-86648438D01*
X101612984Y-86648438D01*
X101606857Y-86647794D01*
X101526779Y-86655082D01*
X101422087Y-86664609D01*
X101422084Y-86664610D01*
X101415948Y-86665168D01*
X101410042Y-86666906D01*
X101410038Y-86666907D01*
X101274622Y-86706762D01*
X101232050Y-86719292D01*
X101226590Y-86722146D01*
X101226591Y-86722146D01*
X101067627Y-86805250D01*
X101067623Y-86805253D01*
X101062167Y-86808105D01*
X101057367Y-86811965D01*
X101057366Y-86811965D01*
X101052728Y-86815694D01*
X100912770Y-86928223D01*
X100908812Y-86932940D01*
X100908810Y-86932942D01*
X100871353Y-86977582D01*
X100789549Y-87075072D01*
X100786585Y-87080464D01*
X100786582Y-87080468D01*
X100727985Y-87187057D01*
X100697198Y-87243058D01*
X100639234Y-87425783D01*
X100617866Y-87616286D01*
X90180500Y-87616286D01*
X90180500Y-85076286D01*
X100617866Y-85076286D01*
X100618382Y-85082430D01*
X100628465Y-85202500D01*
X100633907Y-85267311D01*
X100635606Y-85273236D01*
X100643709Y-85301493D01*
X100686746Y-85451583D01*
X100774370Y-85622082D01*
X100778193Y-85626906D01*
X100778196Y-85626910D01*
X100885904Y-85762802D01*
X100893443Y-85772314D01*
X101039428Y-85896557D01*
X101206765Y-85990079D01*
X101389081Y-86049317D01*
X101579430Y-86072015D01*
X101585565Y-86071543D01*
X101585567Y-86071543D01*
X101764420Y-86057781D01*
X101764424Y-86057780D01*
X101770562Y-86057308D01*
X101955199Y-86005756D01*
X102126305Y-85919324D01*
X102151600Y-85899562D01*
X102272509Y-85805097D01*
X102277365Y-85801303D01*
X102402624Y-85656189D01*
X102497312Y-85489509D01*
X102557821Y-85307612D01*
X102581847Y-85117425D01*
X102582230Y-85090000D01*
X102563524Y-84899217D01*
X102508117Y-84715701D01*
X102466879Y-84638144D01*
X102421014Y-84551884D01*
X102421012Y-84551881D01*
X102418120Y-84546442D01*
X102351185Y-84464371D01*
X102300856Y-84402661D01*
X102300854Y-84402659D01*
X102296962Y-84397887D01*
X102233081Y-84345040D01*
X102154006Y-84279623D01*
X102154002Y-84279621D01*
X102149256Y-84275694D01*
X101980629Y-84184518D01*
X101889067Y-84156175D01*
X101803392Y-84129654D01*
X101803389Y-84129653D01*
X101797505Y-84127832D01*
X101791380Y-84127188D01*
X101791379Y-84127188D01*
X101612985Y-84108438D01*
X101612984Y-84108438D01*
X101606857Y-84107794D01*
X101551400Y-84112841D01*
X101422087Y-84124609D01*
X101422084Y-84124610D01*
X101415948Y-84125168D01*
X101410042Y-84126906D01*
X101410038Y-84126907D01*
X101367299Y-84139486D01*
X101232050Y-84179292D01*
X101226590Y-84182146D01*
X101226591Y-84182146D01*
X101067627Y-84265250D01*
X101067623Y-84265253D01*
X101062167Y-84268105D01*
X101057367Y-84271965D01*
X101057366Y-84271965D01*
X101052728Y-84275694D01*
X100912770Y-84388223D01*
X100908812Y-84392940D01*
X100908810Y-84392942D01*
X100879702Y-84427632D01*
X100789549Y-84535072D01*
X100786585Y-84540464D01*
X100786582Y-84540468D01*
X100766530Y-84576943D01*
X100697198Y-84703058D01*
X100695337Y-84708925D01*
X100695336Y-84708927D01*
X100646908Y-84861592D01*
X100639234Y-84885783D01*
X100617866Y-85076286D01*
X90180500Y-85076286D01*
X90180500Y-82832966D01*
X92394257Y-82832966D01*
X92424565Y-82967446D01*
X92427645Y-82977275D01*
X92507770Y-83174603D01*
X92512413Y-83183794D01*
X92623694Y-83365388D01*
X92629777Y-83373699D01*
X92769213Y-83534667D01*
X92776580Y-83541883D01*
X92940434Y-83677916D01*
X92948881Y-83683831D01*
X93132756Y-83791279D01*
X93142042Y-83795729D01*
X93341001Y-83871703D01*
X93350899Y-83874579D01*
X93454250Y-83895606D01*
X93468299Y-83894410D01*
X93472000Y-83884065D01*
X93472000Y-83883517D01*
X93980000Y-83883517D01*
X93984064Y-83897359D01*
X93997478Y-83899393D01*
X94004184Y-83898534D01*
X94014262Y-83896392D01*
X94068899Y-83880000D01*
X96603391Y-83880000D01*
X96623771Y-84073900D01*
X96625811Y-84080178D01*
X96625811Y-84080179D01*
X96638663Y-84119734D01*
X96684019Y-84259326D01*
X96687322Y-84265048D01*
X96687323Y-84265049D01*
X96735828Y-84349062D01*
X96781503Y-84428174D01*
X96785921Y-84433081D01*
X96785922Y-84433082D01*
X96880006Y-84537572D01*
X96911963Y-84573064D01*
X96917302Y-84576943D01*
X97053092Y-84675600D01*
X97069695Y-84687663D01*
X97075723Y-84690347D01*
X97075725Y-84690348D01*
X97218915Y-84754100D01*
X97247808Y-84766964D01*
X97343162Y-84787232D01*
X97432059Y-84806128D01*
X97432063Y-84806128D01*
X97438516Y-84807500D01*
X97633484Y-84807500D01*
X97639937Y-84806128D01*
X97639941Y-84806128D01*
X97728838Y-84787232D01*
X97824192Y-84766964D01*
X97853085Y-84754100D01*
X97996275Y-84690348D01*
X97996277Y-84690347D01*
X98002305Y-84687663D01*
X98018909Y-84675600D01*
X98154698Y-84576943D01*
X98160037Y-84573064D01*
X98191995Y-84537572D01*
X98286078Y-84433082D01*
X98286079Y-84433081D01*
X98290497Y-84428174D01*
X98336172Y-84349062D01*
X98384677Y-84265049D01*
X98384678Y-84265048D01*
X98387981Y-84259326D01*
X98400251Y-84221564D01*
X98440322Y-84162959D01*
X98505718Y-84135322D01*
X98520083Y-84134500D01*
X100232524Y-84134500D01*
X100257103Y-84136921D01*
X100270000Y-84139486D01*
X100282171Y-84137065D01*
X100357131Y-84122155D01*
X100357132Y-84122154D01*
X100369301Y-84119734D01*
X100432234Y-84077684D01*
X100432237Y-84077681D01*
X100453484Y-84063484D01*
X100460790Y-84052550D01*
X100476460Y-84033458D01*
X101045132Y-83464786D01*
X101107444Y-83430760D01*
X101178259Y-83435825D01*
X101195690Y-83443889D01*
X101206765Y-83450079D01*
X101389081Y-83509317D01*
X101579430Y-83532015D01*
X101585565Y-83531543D01*
X101585567Y-83531543D01*
X101764420Y-83517781D01*
X101764424Y-83517780D01*
X101770562Y-83517308D01*
X101955199Y-83465756D01*
X102126305Y-83379324D01*
X102144143Y-83365388D01*
X102272509Y-83265097D01*
X102277365Y-83261303D01*
X102281391Y-83256639D01*
X102398595Y-83120857D01*
X102398596Y-83120855D01*
X102402624Y-83116189D01*
X102497312Y-82949509D01*
X102557821Y-82767612D01*
X102581847Y-82577425D01*
X102582230Y-82550000D01*
X102563524Y-82359217D01*
X102508117Y-82175701D01*
X102487113Y-82136198D01*
X102421014Y-82011884D01*
X102421012Y-82011881D01*
X102418120Y-82006442D01*
X102347058Y-81919311D01*
X102300856Y-81862661D01*
X102300854Y-81862659D01*
X102296962Y-81857887D01*
X102212483Y-81788000D01*
X102154006Y-81739623D01*
X102154002Y-81739621D01*
X102149256Y-81735694D01*
X101980629Y-81644518D01*
X101844480Y-81602373D01*
X101803392Y-81589654D01*
X101803389Y-81589653D01*
X101797505Y-81587832D01*
X101791380Y-81587188D01*
X101791379Y-81587188D01*
X101612985Y-81568438D01*
X101612984Y-81568438D01*
X101606857Y-81567794D01*
X101526779Y-81575082D01*
X101422087Y-81584609D01*
X101422084Y-81584610D01*
X101415948Y-81585168D01*
X101410042Y-81586906D01*
X101410038Y-81586907D01*
X101274622Y-81626762D01*
X101232050Y-81639292D01*
X101226590Y-81642146D01*
X101226591Y-81642146D01*
X101067627Y-81725250D01*
X101067623Y-81725253D01*
X101062167Y-81728105D01*
X101057367Y-81731965D01*
X101057366Y-81731965D01*
X101052728Y-81735694D01*
X100912770Y-81848223D01*
X100908812Y-81852940D01*
X100908810Y-81852942D01*
X100858767Y-81912581D01*
X100789549Y-81995072D01*
X100786585Y-82000464D01*
X100786582Y-82000468D01*
X100726384Y-82109968D01*
X100697198Y-82163058D01*
X100695337Y-82168925D01*
X100695336Y-82168927D01*
X100641096Y-82339913D01*
X100639234Y-82345783D01*
X100617866Y-82536286D01*
X100618382Y-82542430D01*
X100629461Y-82674360D01*
X100633907Y-82727311D01*
X100686746Y-82911583D01*
X100709843Y-82956524D01*
X100723190Y-83026251D01*
X100696720Y-83092129D01*
X100686871Y-83103211D01*
X100201487Y-83588595D01*
X100139175Y-83622621D01*
X100112392Y-83625500D01*
X98520083Y-83625500D01*
X98451962Y-83605498D01*
X98405469Y-83551842D01*
X98400254Y-83538447D01*
X98387981Y-83500674D01*
X98290497Y-83331826D01*
X98230414Y-83265097D01*
X98164452Y-83191839D01*
X98164450Y-83191838D01*
X98160037Y-83186936D01*
X98055283Y-83110828D01*
X98007647Y-83076218D01*
X98007646Y-83076217D01*
X98002305Y-83072337D01*
X97996277Y-83069653D01*
X97996275Y-83069652D01*
X97830223Y-82995721D01*
X97830222Y-82995721D01*
X97824192Y-82993036D01*
X97703800Y-82967446D01*
X97639941Y-82953872D01*
X97639937Y-82953872D01*
X97633484Y-82952500D01*
X97438516Y-82952500D01*
X97432063Y-82953872D01*
X97432059Y-82953872D01*
X97368200Y-82967446D01*
X97247808Y-82993036D01*
X97241779Y-82995720D01*
X97241777Y-82995721D01*
X97075726Y-83069652D01*
X97075724Y-83069653D01*
X97069696Y-83072337D01*
X97064355Y-83076217D01*
X97064354Y-83076218D01*
X96937527Y-83168363D01*
X96911963Y-83186936D01*
X96907550Y-83191838D01*
X96907548Y-83191839D01*
X96841586Y-83265097D01*
X96781503Y-83331826D01*
X96684019Y-83500674D01*
X96623771Y-83686100D01*
X96603391Y-83880000D01*
X94068899Y-83880000D01*
X94218255Y-83835191D01*
X94227842Y-83831433D01*
X94419095Y-83737739D01*
X94427945Y-83732464D01*
X94601328Y-83608792D01*
X94609200Y-83602139D01*
X94760052Y-83451812D01*
X94766730Y-83443965D01*
X94891003Y-83271020D01*
X94896313Y-83262183D01*
X94990670Y-83071267D01*
X94994469Y-83061672D01*
X95056377Y-82857910D01*
X95058555Y-82847837D01*
X95059986Y-82836962D01*
X95057775Y-82822778D01*
X95044617Y-82819000D01*
X93998115Y-82819000D01*
X93982876Y-82823475D01*
X93981671Y-82824865D01*
X93980000Y-82832548D01*
X93980000Y-83883517D01*
X93472000Y-83883517D01*
X93472000Y-82837115D01*
X93467525Y-82821876D01*
X93466135Y-82820671D01*
X93458452Y-82819000D01*
X92409225Y-82819000D01*
X92395694Y-82822973D01*
X92394257Y-82832966D01*
X90180500Y-82832966D01*
X90180500Y-82299183D01*
X92390389Y-82299183D01*
X92391912Y-82307607D01*
X92404292Y-82311000D01*
X95044344Y-82311000D01*
X95057875Y-82307027D01*
X95059180Y-82297947D01*
X95017214Y-82130875D01*
X95013894Y-82121124D01*
X94928972Y-81925814D01*
X94924105Y-81916739D01*
X94808426Y-81737926D01*
X94802136Y-81729757D01*
X94658806Y-81572240D01*
X94651273Y-81565215D01*
X94484139Y-81433222D01*
X94475552Y-81427517D01*
X94289117Y-81324599D01*
X94279705Y-81320369D01*
X94078959Y-81249280D01*
X94068989Y-81246646D01*
X93951383Y-81225698D01*
X93887826Y-81194060D01*
X93851463Y-81133083D01*
X93853839Y-81062126D01*
X93894200Y-81003718D01*
X93939595Y-80980293D01*
X93985725Y-80967413D01*
X94081199Y-80940756D01*
X94252305Y-80854324D01*
X94267949Y-80842102D01*
X94398509Y-80740097D01*
X94403365Y-80736303D01*
X94464615Y-80665344D01*
X94524595Y-80595857D01*
X94524596Y-80595855D01*
X94528624Y-80591189D01*
X94623312Y-80424509D01*
X94663990Y-80302226D01*
X94704470Y-80243904D01*
X94770058Y-80216724D01*
X94783547Y-80216000D01*
X100547185Y-80216000D01*
X100615306Y-80236002D01*
X100661799Y-80289658D01*
X100668304Y-80307269D01*
X100671183Y-80317307D01*
X100686746Y-80371583D01*
X100694455Y-80386583D01*
X100766848Y-80527445D01*
X100774370Y-80542082D01*
X100778193Y-80546906D01*
X100778196Y-80546910D01*
X100864942Y-80656355D01*
X100893443Y-80692314D01*
X100898137Y-80696308D01*
X100898137Y-80696309D01*
X100997132Y-80780560D01*
X101039428Y-80816557D01*
X101206765Y-80910079D01*
X101389081Y-80969317D01*
X101579430Y-80992015D01*
X101585565Y-80991543D01*
X101585567Y-80991543D01*
X101764420Y-80977781D01*
X101764424Y-80977780D01*
X101770562Y-80977308D01*
X101955199Y-80925756D01*
X102126305Y-80839324D01*
X102136247Y-80831557D01*
X102272509Y-80725097D01*
X102277365Y-80721303D01*
X102311885Y-80681311D01*
X102398595Y-80580857D01*
X102398596Y-80580855D01*
X102402624Y-80576189D01*
X102497312Y-80409509D01*
X102557821Y-80227612D01*
X102581847Y-80037425D01*
X102582230Y-80010000D01*
X102563524Y-79819217D01*
X102508117Y-79635701D01*
X102498526Y-79617663D01*
X102421014Y-79471884D01*
X102421012Y-79471881D01*
X102418120Y-79466442D01*
X102381868Y-79421993D01*
X102300856Y-79322661D01*
X102300854Y-79322659D01*
X102296962Y-79317887D01*
X102233081Y-79265040D01*
X102154006Y-79199623D01*
X102154002Y-79199621D01*
X102149256Y-79195694D01*
X101998706Y-79114292D01*
X101986048Y-79107448D01*
X101980629Y-79104518D01*
X101889067Y-79076175D01*
X101803392Y-79049654D01*
X101803389Y-79049653D01*
X101797505Y-79047832D01*
X101791380Y-79047188D01*
X101791379Y-79047188D01*
X101612985Y-79028438D01*
X101612984Y-79028438D01*
X101606857Y-79027794D01*
X101526779Y-79035082D01*
X101422087Y-79044609D01*
X101422084Y-79044610D01*
X101415948Y-79045168D01*
X101410042Y-79046906D01*
X101410038Y-79046907D01*
X101274622Y-79086762D01*
X101232050Y-79099292D01*
X101226590Y-79102146D01*
X101226591Y-79102146D01*
X101067627Y-79185250D01*
X101067623Y-79185253D01*
X101062167Y-79188105D01*
X101057367Y-79191965D01*
X101057366Y-79191965D01*
X101052728Y-79195694D01*
X100912770Y-79308223D01*
X100908812Y-79312940D01*
X100908810Y-79312942D01*
X100828701Y-79408413D01*
X100789549Y-79455072D01*
X100786585Y-79460464D01*
X100786582Y-79460468D01*
X100775052Y-79481442D01*
X100697198Y-79623058D01*
X100695337Y-79628925D01*
X100695336Y-79628927D01*
X100658167Y-79746099D01*
X100618504Y-79804983D01*
X100553301Y-79833075D01*
X100538065Y-79834000D01*
X94783034Y-79834000D01*
X94714913Y-79813998D01*
X94668420Y-79760342D01*
X94662412Y-79744418D01*
X94635898Y-79656601D01*
X94634117Y-79650701D01*
X94544120Y-79481442D01*
X94422962Y-79332887D01*
X94359081Y-79280040D01*
X94280006Y-79214623D01*
X94280002Y-79214621D01*
X94275256Y-79210694D01*
X94106629Y-79119518D01*
X94015067Y-79091175D01*
X93929392Y-79064654D01*
X93929389Y-79064653D01*
X93923505Y-79062832D01*
X93917380Y-79062188D01*
X93917379Y-79062188D01*
X93738985Y-79043438D01*
X93738984Y-79043438D01*
X93732857Y-79042794D01*
X93657478Y-79049654D01*
X93548087Y-79059609D01*
X93548084Y-79059610D01*
X93541948Y-79060168D01*
X93536042Y-79061906D01*
X93536038Y-79061907D01*
X93414924Y-79097553D01*
X93358050Y-79114292D01*
X93352590Y-79117146D01*
X93352591Y-79117146D01*
X93193627Y-79200250D01*
X93193623Y-79200253D01*
X93188167Y-79203105D01*
X93183367Y-79206965D01*
X93183366Y-79206965D01*
X93178728Y-79210694D01*
X93038770Y-79323223D01*
X92915549Y-79470072D01*
X92912585Y-79475464D01*
X92912582Y-79475468D01*
X92837110Y-79612752D01*
X92823198Y-79638058D01*
X92765234Y-79820783D01*
X92743866Y-80011286D01*
X92744382Y-80017430D01*
X92753963Y-80131522D01*
X92759907Y-80202311D01*
X92761606Y-80208236D01*
X92780543Y-80274276D01*
X92812746Y-80386583D01*
X92815561Y-80392060D01*
X92815562Y-80392063D01*
X92896598Y-80549743D01*
X92900370Y-80557082D01*
X92904193Y-80561906D01*
X92904196Y-80561910D01*
X93011904Y-80697802D01*
X93019443Y-80707314D01*
X93165428Y-80831557D01*
X93332765Y-80925079D01*
X93510346Y-80982778D01*
X93568951Y-81022851D01*
X93596588Y-81088248D01*
X93584481Y-81158205D01*
X93536475Y-81210511D01*
X93490469Y-81227161D01*
X93415319Y-81238661D01*
X93405293Y-81241050D01*
X93202868Y-81307212D01*
X93193359Y-81311209D01*
X93004463Y-81409542D01*
X92995738Y-81415036D01*
X92825433Y-81542905D01*
X92817726Y-81549748D01*
X92670590Y-81703717D01*
X92664104Y-81711727D01*
X92544098Y-81887649D01*
X92539000Y-81896623D01*
X92449338Y-82089783D01*
X92445775Y-82099470D01*
X92390389Y-82299183D01*
X90180500Y-82299183D01*
X90180500Y-78347558D01*
X92748500Y-78347558D01*
X92755898Y-78384748D01*
X92784078Y-78426922D01*
X92826252Y-78455102D01*
X92838422Y-78457523D01*
X92857377Y-78461294D01*
X92857382Y-78461294D01*
X92863442Y-78462500D01*
X94588558Y-78462500D01*
X94594618Y-78461294D01*
X94594623Y-78461294D01*
X94613578Y-78457523D01*
X94625748Y-78455102D01*
X94667922Y-78426922D01*
X94696102Y-78384748D01*
X94703500Y-78347558D01*
X94703500Y-77923500D01*
X94723502Y-77855379D01*
X94777158Y-77808886D01*
X94829500Y-77797500D01*
X97516206Y-77797500D01*
X97527189Y-77797980D01*
X97553999Y-77800326D01*
X97554000Y-77800326D01*
X97564984Y-77801287D01*
X97601644Y-77791464D01*
X97612367Y-77789087D01*
X97614690Y-77788677D01*
X97649739Y-77782497D01*
X97659285Y-77776986D01*
X97662653Y-77775760D01*
X97665899Y-77774246D01*
X97676543Y-77771394D01*
X97707635Y-77749623D01*
X97716894Y-77743725D01*
X97740211Y-77730263D01*
X97749760Y-77724750D01*
X97774160Y-77695671D01*
X97781587Y-77687567D01*
X100056596Y-75412558D01*
X106322500Y-75412558D01*
X106323706Y-75418618D01*
X106323706Y-75418623D01*
X106326698Y-75433660D01*
X106329898Y-75449748D01*
X106336791Y-75460065D01*
X106336792Y-75460066D01*
X106338120Y-75462053D01*
X106358078Y-75491922D01*
X106368394Y-75498815D01*
X106389396Y-75512848D01*
X106400252Y-75520102D01*
X106412422Y-75522523D01*
X106431377Y-75526294D01*
X106431382Y-75526294D01*
X106437442Y-75527500D01*
X108262558Y-75527500D01*
X108268618Y-75526294D01*
X108268623Y-75526294D01*
X108287578Y-75522523D01*
X108299748Y-75520102D01*
X108310605Y-75512848D01*
X108331606Y-75498815D01*
X108341922Y-75491922D01*
X108361880Y-75462053D01*
X108363208Y-75460066D01*
X108363209Y-75460065D01*
X108370102Y-75449748D01*
X108373302Y-75433660D01*
X108376294Y-75418623D01*
X108376294Y-75418618D01*
X108377500Y-75412558D01*
X108377500Y-73187442D01*
X108370102Y-73150252D01*
X108341922Y-73108078D01*
X108299748Y-73079898D01*
X108287578Y-73077477D01*
X108268623Y-73073706D01*
X108268618Y-73073706D01*
X108262558Y-73072500D01*
X106437442Y-73072500D01*
X106431382Y-73073706D01*
X106431377Y-73073706D01*
X106412422Y-73077477D01*
X106400252Y-73079898D01*
X106358078Y-73108078D01*
X106329898Y-73150252D01*
X106322500Y-73187442D01*
X106322500Y-75412558D01*
X100056596Y-75412558D01*
X107286750Y-68182405D01*
X107349062Y-68148379D01*
X107375845Y-68145500D01*
X114112155Y-68145500D01*
X114180276Y-68165502D01*
X114201251Y-68182405D01*
X115104683Y-69085838D01*
X115175457Y-69135394D01*
X115287016Y-69165287D01*
X115298004Y-69164326D01*
X115308980Y-69165286D01*
X115308834Y-69166955D01*
X115366037Y-69178451D01*
X115396510Y-69200888D01*
X115510595Y-69314973D01*
X115544621Y-69377285D01*
X115547500Y-69404068D01*
X115547500Y-70147381D01*
X115527498Y-70215502D01*
X115473842Y-70261995D01*
X115412558Y-70272206D01*
X115412558Y-70272500D01*
X115087442Y-70272500D01*
X115081382Y-70273706D01*
X115081377Y-70273706D01*
X115062422Y-70277477D01*
X115050252Y-70279898D01*
X115044467Y-70283764D01*
X114977631Y-70290950D01*
X114957398Y-70285009D01*
X114949748Y-70279898D01*
X114937578Y-70277477D01*
X114918623Y-70273706D01*
X114918618Y-70273706D01*
X114912558Y-70272500D01*
X114587442Y-70272500D01*
X114581382Y-70273706D01*
X114581377Y-70273706D01*
X114562422Y-70277477D01*
X114550252Y-70279898D01*
X114544467Y-70283764D01*
X114477631Y-70290950D01*
X114457397Y-70285009D01*
X114449748Y-70279898D01*
X114438921Y-70277744D01*
X114384380Y-70233789D01*
X114369900Y-70206162D01*
X114353324Y-70161946D01*
X114344786Y-70146351D01*
X114268285Y-70044276D01*
X114255724Y-70031715D01*
X114153649Y-69955214D01*
X114138054Y-69946676D01*
X114017606Y-69901522D01*
X114002351Y-69897895D01*
X113951486Y-69892369D01*
X113944672Y-69892000D01*
X113918115Y-69892000D01*
X113902876Y-69896475D01*
X113901671Y-69897865D01*
X113900000Y-69905548D01*
X113900000Y-72189884D01*
X113904475Y-72205123D01*
X113905865Y-72206328D01*
X113913548Y-72207999D01*
X113933000Y-72207999D01*
X114001121Y-72228001D01*
X114047614Y-72281657D01*
X114059000Y-72333999D01*
X114059000Y-74944695D01*
X114038998Y-75012816D01*
X113985342Y-75059309D01*
X113915068Y-75069413D01*
X113850488Y-75039919D01*
X113843905Y-75033790D01*
X113477904Y-74667789D01*
X113443879Y-74605477D01*
X113441000Y-74578694D01*
X113441000Y-72334000D01*
X113461002Y-72265879D01*
X113514658Y-72219386D01*
X113567000Y-72208000D01*
X113581885Y-72208000D01*
X113597124Y-72203525D01*
X113598329Y-72202135D01*
X113600000Y-72194452D01*
X113600000Y-69910116D01*
X113595525Y-69894877D01*
X113594135Y-69893672D01*
X113586452Y-69892001D01*
X113555331Y-69892001D01*
X113548510Y-69892371D01*
X113497648Y-69897895D01*
X113482396Y-69901521D01*
X113361946Y-69946676D01*
X113346351Y-69955214D01*
X113244276Y-70031715D01*
X113231715Y-70044276D01*
X113155214Y-70146351D01*
X113146676Y-70161946D01*
X113130100Y-70206162D01*
X113087458Y-70262926D01*
X113061553Y-70277650D01*
X113050252Y-70279898D01*
X113044468Y-70283763D01*
X112977633Y-70290951D01*
X112957398Y-70285010D01*
X112949748Y-70279898D01*
X112937578Y-70277477D01*
X112918623Y-70273706D01*
X112918618Y-70273706D01*
X112912558Y-70272500D01*
X112587442Y-70272500D01*
X112581382Y-70273706D01*
X112581377Y-70273706D01*
X112562422Y-70277477D01*
X112550252Y-70279898D01*
X112544467Y-70283764D01*
X112477631Y-70290950D01*
X112457398Y-70285009D01*
X112449748Y-70279898D01*
X112437578Y-70277477D01*
X112418623Y-70273706D01*
X112418618Y-70273706D01*
X112412558Y-70272500D01*
X112087442Y-70272500D01*
X112081382Y-70273706D01*
X112081377Y-70273706D01*
X112062422Y-70277477D01*
X112050252Y-70279898D01*
X112044467Y-70283764D01*
X111977631Y-70290950D01*
X111957398Y-70285009D01*
X111949748Y-70279898D01*
X111937578Y-70277477D01*
X111918623Y-70273706D01*
X111918618Y-70273706D01*
X111912558Y-70272500D01*
X111587442Y-70272500D01*
X111581382Y-70273706D01*
X111581377Y-70273706D01*
X111562422Y-70277477D01*
X111550252Y-70279898D01*
X111544467Y-70283764D01*
X111477631Y-70290950D01*
X111457398Y-70285009D01*
X111449748Y-70279898D01*
X111437578Y-70277477D01*
X111418623Y-70273706D01*
X111418618Y-70273706D01*
X111412558Y-70272500D01*
X111087442Y-70272500D01*
X111081382Y-70273706D01*
X111081377Y-70273706D01*
X111062422Y-70277477D01*
X111050252Y-70279898D01*
X111044467Y-70283764D01*
X110977631Y-70290950D01*
X110957398Y-70285009D01*
X110949748Y-70279898D01*
X110937578Y-70277477D01*
X110918623Y-70273706D01*
X110918618Y-70273706D01*
X110912558Y-70272500D01*
X110587442Y-70272500D01*
X110581382Y-70273706D01*
X110581377Y-70273706D01*
X110562422Y-70277477D01*
X110550252Y-70279898D01*
X110544467Y-70283764D01*
X110477631Y-70290950D01*
X110457398Y-70285009D01*
X110449748Y-70279898D01*
X110437578Y-70277477D01*
X110418623Y-70273706D01*
X110418618Y-70273706D01*
X110412558Y-70272500D01*
X110087442Y-70272500D01*
X110081382Y-70273706D01*
X110081377Y-70273706D01*
X110062422Y-70277477D01*
X110050252Y-70279898D01*
X110044467Y-70283764D01*
X109977631Y-70290950D01*
X109957398Y-70285009D01*
X109949748Y-70279898D01*
X109937578Y-70277477D01*
X109918623Y-70273706D01*
X109918618Y-70273706D01*
X109912558Y-70272500D01*
X109587442Y-70272500D01*
X109581382Y-70273706D01*
X109581377Y-70273706D01*
X109562422Y-70277477D01*
X109550252Y-70279898D01*
X109544467Y-70283764D01*
X109477631Y-70290950D01*
X109457398Y-70285009D01*
X109449748Y-70279898D01*
X109437578Y-70277477D01*
X109418623Y-70273706D01*
X109418618Y-70273706D01*
X109412558Y-70272500D01*
X109087442Y-70272500D01*
X109081382Y-70273706D01*
X109081377Y-70273706D01*
X109062422Y-70277477D01*
X109050252Y-70279898D01*
X109039935Y-70286791D01*
X109039934Y-70286792D01*
X109033710Y-70290951D01*
X109008078Y-70308078D01*
X108979898Y-70350252D01*
X108972500Y-70387442D01*
X108972500Y-71712558D01*
X108979898Y-71749748D01*
X109008078Y-71791922D01*
X109018394Y-71798815D01*
X109033712Y-71809050D01*
X109050252Y-71820102D01*
X109062422Y-71822523D01*
X109081377Y-71826294D01*
X109081382Y-71826294D01*
X109087442Y-71827500D01*
X109412558Y-71827500D01*
X109418618Y-71826294D01*
X109418623Y-71826294D01*
X109437578Y-71822523D01*
X109449748Y-71820102D01*
X109455533Y-71816236D01*
X109522369Y-71809050D01*
X109542602Y-71814991D01*
X109550252Y-71820102D01*
X109562422Y-71822523D01*
X109581377Y-71826294D01*
X109581382Y-71826294D01*
X109587442Y-71827500D01*
X109912558Y-71827500D01*
X109918620Y-71826294D01*
X109920652Y-71826094D01*
X109990405Y-71839323D01*
X110041932Y-71888165D01*
X110059000Y-71951487D01*
X110059000Y-106268695D01*
X110038998Y-106336816D01*
X110022095Y-106357790D01*
X101816971Y-114562914D01*
X101754659Y-114596940D01*
X101714706Y-114599129D01*
X101612986Y-114588438D01*
X101612984Y-114588438D01*
X101606857Y-114587794D01*
X101526779Y-114595082D01*
X101422087Y-114604609D01*
X101422084Y-114604610D01*
X101415948Y-114605168D01*
X101410042Y-114606906D01*
X101410038Y-114606907D01*
X101274622Y-114646762D01*
X101232050Y-114659292D01*
X101226590Y-114662146D01*
X101226591Y-114662146D01*
X101067627Y-114745250D01*
X101067623Y-114745253D01*
X101062167Y-114748105D01*
X101057367Y-114751965D01*
X101057366Y-114751965D01*
X101023076Y-114779535D01*
X100912770Y-114868223D01*
X100789549Y-115015072D01*
X100786585Y-115020464D01*
X100786582Y-115020468D01*
X100711110Y-115157752D01*
X100697198Y-115183058D01*
X100639234Y-115365783D01*
X100617866Y-115556286D01*
X100633907Y-115747311D01*
X100635606Y-115753236D01*
X100643709Y-115781493D01*
X100686746Y-115931583D01*
X100774370Y-116102082D01*
X100778193Y-116106906D01*
X100778196Y-116106910D01*
X100885904Y-116242802D01*
X100893443Y-116252314D01*
X101039428Y-116376557D01*
X101206765Y-116470079D01*
X101389081Y-116529317D01*
X101579430Y-116552015D01*
X101585565Y-116551543D01*
X101585567Y-116551543D01*
X101764420Y-116537781D01*
X101764424Y-116537780D01*
X101770562Y-116537308D01*
X101955199Y-116485756D01*
X102126305Y-116399324D01*
X102151600Y-116379562D01*
X102272509Y-116285097D01*
X102277365Y-116281303D01*
X102402624Y-116136189D01*
X102497312Y-115969509D01*
X102557821Y-115787612D01*
X102581847Y-115597425D01*
X102582230Y-115570000D01*
X102563524Y-115379217D01*
X102508117Y-115195701D01*
X102418120Y-115026442D01*
X102296962Y-114877887D01*
X102292220Y-114873964D01*
X102292216Y-114873960D01*
X102264249Y-114850824D01*
X102224511Y-114791990D01*
X102222890Y-114721012D01*
X102255470Y-114664645D01*
X110343905Y-106576210D01*
X110406217Y-106542184D01*
X110477032Y-106547249D01*
X110533868Y-106589796D01*
X110558679Y-106656316D01*
X110559000Y-106665305D01*
X110559000Y-108308696D01*
X110538998Y-108376817D01*
X110522095Y-108397791D01*
X101816971Y-117102914D01*
X101754659Y-117136940D01*
X101714706Y-117139129D01*
X101612986Y-117128438D01*
X101612984Y-117128438D01*
X101606857Y-117127794D01*
X101526779Y-117135082D01*
X101422087Y-117144609D01*
X101422084Y-117144610D01*
X101415948Y-117145168D01*
X101410042Y-117146906D01*
X101410038Y-117146907D01*
X101274622Y-117186762D01*
X101232050Y-117199292D01*
X101226590Y-117202146D01*
X101226591Y-117202146D01*
X101067627Y-117285250D01*
X101067623Y-117285253D01*
X101062167Y-117288105D01*
X101057367Y-117291965D01*
X101057366Y-117291965D01*
X101023076Y-117319535D01*
X100912770Y-117408223D01*
X100789549Y-117555072D01*
X100786585Y-117560464D01*
X100786582Y-117560468D01*
X100711110Y-117697752D01*
X100697198Y-117723058D01*
X100639234Y-117905783D01*
X100617866Y-118096286D01*
X100633907Y-118287311D01*
X100635606Y-118293236D01*
X100643709Y-118321493D01*
X100686746Y-118471583D01*
X100774370Y-118642082D01*
X100778193Y-118646906D01*
X100778196Y-118646910D01*
X100885904Y-118782802D01*
X100893443Y-118792314D01*
X101039428Y-118916557D01*
X101206765Y-119010079D01*
X101389081Y-119069317D01*
X101579430Y-119092015D01*
X101585565Y-119091543D01*
X101585567Y-119091543D01*
X101764420Y-119077781D01*
X101764424Y-119077780D01*
X101770562Y-119077308D01*
X101955199Y-119025756D01*
X102126305Y-118939324D01*
X102151600Y-118919562D01*
X102272509Y-118825097D01*
X102277365Y-118821303D01*
X102402624Y-118676189D01*
X102497312Y-118509509D01*
X102557821Y-118327612D01*
X102581847Y-118137425D01*
X102582230Y-118110000D01*
X102563524Y-117919217D01*
X102508117Y-117735701D01*
X102418120Y-117566442D01*
X102296962Y-117417887D01*
X102292220Y-117413964D01*
X102292216Y-117413960D01*
X102264249Y-117390824D01*
X102224511Y-117331990D01*
X102222890Y-117261012D01*
X102255470Y-117204645D01*
X110861358Y-108598757D01*
X110862195Y-108598010D01*
X110871958Y-108593322D01*
X110888222Y-108572985D01*
X110893340Y-108567266D01*
X110895274Y-108564841D01*
X110900283Y-108559832D01*
X110904052Y-108553835D01*
X110906341Y-108550965D01*
X110910413Y-108545236D01*
X110917520Y-108536349D01*
X110926383Y-108525267D01*
X110928907Y-108514290D01*
X110934902Y-108504752D01*
X110937465Y-108482082D01*
X110937773Y-108479353D01*
X110939009Y-108472123D01*
X110939404Y-108468644D01*
X110941000Y-108461703D01*
X110941000Y-108454577D01*
X110941372Y-108451299D01*
X110941797Y-108443755D01*
X110943096Y-108432261D01*
X110944690Y-108418162D01*
X110941071Y-108407800D01*
X110941000Y-108406526D01*
X110941000Y-100515306D01*
X110961002Y-100447185D01*
X111014658Y-100400692D01*
X111084932Y-100390588D01*
X111149512Y-100420082D01*
X111156095Y-100426210D01*
X111361191Y-100631305D01*
X111543967Y-100814081D01*
X111577992Y-100876394D01*
X111579372Y-100922562D01*
X111568136Y-100994724D01*
X111569300Y-101003626D01*
X111569300Y-101003629D01*
X111582698Y-101106084D01*
X111584014Y-101116145D01*
X111633333Y-101228230D01*
X111712127Y-101321968D01*
X111814064Y-101389823D01*
X111930948Y-101426340D01*
X112053383Y-101428584D01*
X112071434Y-101423663D01*
X112162863Y-101398737D01*
X112171527Y-101396375D01*
X112275881Y-101332301D01*
X112316512Y-101287413D01*
X112352035Y-101248167D01*
X112358058Y-101241513D01*
X112411451Y-101131311D01*
X112414003Y-101116145D01*
X112430960Y-101015348D01*
X112431767Y-101010552D01*
X112431896Y-101000000D01*
X112417029Y-100896189D01*
X112415809Y-100887667D01*
X112415808Y-100887664D01*
X112414536Y-100878781D01*
X112406944Y-100862082D01*
X112390966Y-100826942D01*
X112363852Y-100767307D01*
X112283918Y-100674539D01*
X112181160Y-100607935D01*
X112063838Y-100572848D01*
X112054862Y-100572793D01*
X112054861Y-100572793D01*
X112004483Y-100572485D01*
X111941385Y-100572100D01*
X111932753Y-100574567D01*
X111923862Y-100575785D01*
X111923574Y-100573682D01*
X111864555Y-100573256D01*
X111811829Y-100541714D01*
X111477905Y-100207790D01*
X111443879Y-100145478D01*
X111441000Y-100118695D01*
X111441000Y-99515305D01*
X111461002Y-99447184D01*
X111514658Y-99400691D01*
X111584932Y-99390587D01*
X111649512Y-99420081D01*
X111656095Y-99426210D01*
X112772095Y-100542210D01*
X112806121Y-100604522D01*
X112809000Y-100631305D01*
X112809000Y-108598695D01*
X112788998Y-108666816D01*
X112772095Y-108687790D01*
X101816971Y-119642914D01*
X101754659Y-119676940D01*
X101714706Y-119679129D01*
X101612986Y-119668438D01*
X101612984Y-119668438D01*
X101606857Y-119667794D01*
X101526779Y-119675082D01*
X101422087Y-119684609D01*
X101422084Y-119684610D01*
X101415948Y-119685168D01*
X101410042Y-119686906D01*
X101410038Y-119686907D01*
X101274622Y-119726762D01*
X101232050Y-119739292D01*
X101226590Y-119742146D01*
X101226591Y-119742146D01*
X101067627Y-119825250D01*
X101067623Y-119825253D01*
X101062167Y-119828105D01*
X101057367Y-119831965D01*
X101057366Y-119831965D01*
X101023076Y-119859535D01*
X100912770Y-119948223D01*
X100789549Y-120095072D01*
X100786585Y-120100464D01*
X100786582Y-120100468D01*
X100711110Y-120237752D01*
X100697198Y-120263058D01*
X100639234Y-120445783D01*
X100617866Y-120636286D01*
X100633907Y-120827311D01*
X100635606Y-120833236D01*
X100643709Y-120861493D01*
X100686746Y-121011583D01*
X100774370Y-121182082D01*
X100778193Y-121186906D01*
X100778196Y-121186910D01*
X100885904Y-121322802D01*
X100893443Y-121332314D01*
X101039428Y-121456557D01*
X101206765Y-121550079D01*
X101389081Y-121609317D01*
X101579430Y-121632015D01*
X101585565Y-121631543D01*
X101585567Y-121631543D01*
X101764420Y-121617781D01*
X101764424Y-121617780D01*
X101770562Y-121617308D01*
X101955199Y-121565756D01*
X102126305Y-121479324D01*
X102151600Y-121459562D01*
X102272509Y-121365097D01*
X102277365Y-121361303D01*
X102402624Y-121216189D01*
X102497312Y-121049509D01*
X102557821Y-120867612D01*
X102581847Y-120677425D01*
X102582230Y-120650000D01*
X102563524Y-120459217D01*
X102508117Y-120275701D01*
X102418120Y-120106442D01*
X102296962Y-119957887D01*
X102292220Y-119953964D01*
X102292216Y-119953960D01*
X102264249Y-119930824D01*
X102224511Y-119871990D01*
X102222890Y-119801012D01*
X102255470Y-119744645D01*
X113111358Y-108888757D01*
X113112195Y-108888010D01*
X113121958Y-108883322D01*
X113138227Y-108862979D01*
X113143345Y-108857261D01*
X113145280Y-108854835D01*
X113150284Y-108849831D01*
X113154048Y-108843842D01*
X113156339Y-108840970D01*
X113160412Y-108835239D01*
X113167519Y-108826352D01*
X113167520Y-108826349D01*
X113176383Y-108815267D01*
X113178907Y-108804290D01*
X113184902Y-108794752D01*
X113187776Y-108769333D01*
X113189009Y-108762118D01*
X113189403Y-108758648D01*
X113191000Y-108751703D01*
X113191000Y-108744579D01*
X113191373Y-108741293D01*
X113191798Y-108733752D01*
X113193097Y-108722263D01*
X113193097Y-108722262D01*
X113194691Y-108708162D01*
X113191071Y-108697797D01*
X113191000Y-108696523D01*
X113191000Y-100533510D01*
X113191063Y-100532397D01*
X113194652Y-100522178D01*
X113191773Y-100496304D01*
X113191346Y-100488607D01*
X113191000Y-100485535D01*
X113191000Y-100478467D01*
X113189428Y-100471576D01*
X113189017Y-100467926D01*
X113187843Y-100460985D01*
X113186584Y-100449673D01*
X113185015Y-100435571D01*
X113179037Y-100426023D01*
X113176532Y-100415041D01*
X113160602Y-100395050D01*
X113156359Y-100389058D01*
X113154184Y-100386326D01*
X113150404Y-100380289D01*
X113145364Y-100375249D01*
X113143305Y-100372663D01*
X113138285Y-100367045D01*
X113122225Y-100346891D01*
X113112338Y-100342122D01*
X113111384Y-100341269D01*
X111977905Y-99207790D01*
X111943879Y-99145478D01*
X111941000Y-99118695D01*
X111941000Y-97015306D01*
X111961002Y-96947185D01*
X112014658Y-96900692D01*
X112084932Y-96890588D01*
X112149512Y-96920082D01*
X112156095Y-96926210D01*
X112543967Y-97314081D01*
X112577992Y-97376394D01*
X112579372Y-97422562D01*
X112568136Y-97494724D01*
X112569300Y-97503626D01*
X112569300Y-97503629D01*
X112581800Y-97599217D01*
X112584014Y-97616145D01*
X112633333Y-97728230D01*
X112712127Y-97821968D01*
X112814064Y-97889823D01*
X112930948Y-97926340D01*
X113053383Y-97928584D01*
X113071434Y-97923663D01*
X113162863Y-97898737D01*
X113171527Y-97896375D01*
X113275881Y-97832301D01*
X113286175Y-97820929D01*
X113352035Y-97748167D01*
X113358058Y-97741513D01*
X113411451Y-97631311D01*
X113414003Y-97616145D01*
X113430960Y-97515348D01*
X113431767Y-97510552D01*
X113431896Y-97500000D01*
X113420806Y-97422562D01*
X113415809Y-97387667D01*
X113415808Y-97387664D01*
X113414536Y-97378781D01*
X113363852Y-97267307D01*
X113283918Y-97174539D01*
X113181160Y-97107935D01*
X113063838Y-97072848D01*
X113054862Y-97072793D01*
X113054861Y-97072793D01*
X113004483Y-97072485D01*
X112941385Y-97072100D01*
X112932753Y-97074567D01*
X112923862Y-97075785D01*
X112923574Y-97073682D01*
X112864555Y-97073256D01*
X112811829Y-97041714D01*
X112477905Y-96707790D01*
X112443879Y-96645478D01*
X112441000Y-96618695D01*
X112441000Y-75705305D01*
X112461002Y-75637184D01*
X112514658Y-75590691D01*
X112584932Y-75580587D01*
X112649512Y-75610081D01*
X112656095Y-75616210D01*
X112793967Y-75754082D01*
X112827993Y-75816394D01*
X112829372Y-75862562D01*
X112820102Y-75922100D01*
X112818136Y-75934724D01*
X112819300Y-75943626D01*
X112819300Y-75943629D01*
X112832071Y-76041287D01*
X112834014Y-76056145D01*
X112883333Y-76168230D01*
X112962127Y-76261968D01*
X113064064Y-76329823D01*
X113146863Y-76355691D01*
X113162422Y-76360552D01*
X113180948Y-76366340D01*
X113303383Y-76368584D01*
X113321434Y-76363663D01*
X113371550Y-76350000D01*
X113421527Y-76336375D01*
X113432198Y-76329823D01*
X113467072Y-76308411D01*
X113535589Y-76289813D01*
X113603284Y-76311210D01*
X113648665Y-76365810D01*
X113659000Y-76415786D01*
X113659000Y-92428695D01*
X113638998Y-92496816D01*
X113622095Y-92517790D01*
X113338642Y-92801243D01*
X113337805Y-92801990D01*
X113328042Y-92806678D01*
X113319181Y-92817758D01*
X113319180Y-92817759D01*
X113311778Y-92827015D01*
X113306655Y-92832739D01*
X113304720Y-92835165D01*
X113299716Y-92840169D01*
X113295952Y-92846158D01*
X113293661Y-92849030D01*
X113289588Y-92854761D01*
X113282481Y-92863648D01*
X113282480Y-92863651D01*
X113273617Y-92874733D01*
X113271093Y-92885710D01*
X113265098Y-92895248D01*
X113262224Y-92920667D01*
X113260991Y-92927882D01*
X113260597Y-92931352D01*
X113259000Y-92938297D01*
X113259000Y-92945421D01*
X113258627Y-92948707D01*
X113258202Y-92956248D01*
X113255309Y-92981838D01*
X113258929Y-92992203D01*
X113259000Y-92993477D01*
X113259000Y-95465507D01*
X113238998Y-95533628D01*
X113200234Y-95572069D01*
X113180857Y-95584295D01*
X113170080Y-95591095D01*
X113164137Y-95597824D01*
X113147146Y-95617063D01*
X113089018Y-95682879D01*
X113036976Y-95793726D01*
X113035595Y-95802595D01*
X113032752Y-95820857D01*
X113018136Y-95914724D01*
X113019300Y-95923626D01*
X113019300Y-95923629D01*
X113023617Y-95956639D01*
X113034014Y-96036145D01*
X113083333Y-96148230D01*
X113162127Y-96241968D01*
X113264064Y-96309823D01*
X113380948Y-96346340D01*
X113503383Y-96348584D01*
X113521434Y-96343663D01*
X113612863Y-96318737D01*
X113621527Y-96316375D01*
X113725881Y-96252301D01*
X113766512Y-96207413D01*
X113802035Y-96168167D01*
X113808058Y-96161513D01*
X113861451Y-96051311D01*
X113864003Y-96036145D01*
X113880960Y-95935348D01*
X113881767Y-95930552D01*
X113881896Y-95920000D01*
X113867029Y-95816189D01*
X113865809Y-95807667D01*
X113865808Y-95807664D01*
X113864536Y-95798781D01*
X113856944Y-95782082D01*
X113817568Y-95695481D01*
X113813852Y-95687307D01*
X113733918Y-95594539D01*
X113698469Y-95571562D01*
X113652184Y-95517727D01*
X113641000Y-95465829D01*
X113641000Y-93423429D01*
X113661002Y-93355308D01*
X113714658Y-93308815D01*
X113784932Y-93298711D01*
X113849512Y-93328205D01*
X113871399Y-93353834D01*
X113873333Y-93358230D01*
X113879109Y-93365102D01*
X113879110Y-93365103D01*
X113896669Y-93385992D01*
X113952127Y-93451968D01*
X114054064Y-93519823D01*
X114170948Y-93556340D01*
X114293383Y-93558584D01*
X114311434Y-93553663D01*
X114353840Y-93542102D01*
X114411527Y-93526375D01*
X114515881Y-93462301D01*
X114552991Y-93421303D01*
X114592035Y-93378167D01*
X114598058Y-93371513D01*
X114651451Y-93261311D01*
X114654003Y-93246145D01*
X114670960Y-93145348D01*
X114671767Y-93140552D01*
X114671896Y-93130000D01*
X114654536Y-93008781D01*
X114603852Y-92897307D01*
X114548217Y-92832739D01*
X114529776Y-92811337D01*
X114529774Y-92811335D01*
X114523918Y-92804539D01*
X114516390Y-92799660D01*
X114516387Y-92799657D01*
X114498467Y-92788042D01*
X114452184Y-92734206D01*
X114441000Y-92682310D01*
X114441000Y-88591568D01*
X114461002Y-88523447D01*
X114514658Y-88476954D01*
X114584932Y-88466850D01*
X114649512Y-88496344D01*
X114656095Y-88502473D01*
X114831776Y-88678154D01*
X114865802Y-88740466D01*
X114867181Y-88786633D01*
X114858136Y-88844724D01*
X114859300Y-88853626D01*
X114859300Y-88853629D01*
X114871353Y-88945795D01*
X114874014Y-88966145D01*
X114923333Y-89078230D01*
X115002127Y-89171968D01*
X115104064Y-89239823D01*
X115220948Y-89276340D01*
X115343383Y-89278584D01*
X115361434Y-89273663D01*
X115452863Y-89248737D01*
X115461527Y-89246375D01*
X115555886Y-89188438D01*
X115558233Y-89186997D01*
X115565881Y-89182301D01*
X115581185Y-89165394D01*
X115642035Y-89098167D01*
X115648058Y-89091513D01*
X115701451Y-88981311D01*
X115704003Y-88966145D01*
X115720960Y-88865348D01*
X115721767Y-88860552D01*
X115721896Y-88850000D01*
X115712821Y-88786634D01*
X115705809Y-88737667D01*
X115705808Y-88737664D01*
X115704536Y-88728781D01*
X115681518Y-88678154D01*
X115660493Y-88631913D01*
X115650507Y-88561622D01*
X115680107Y-88497091D01*
X115739897Y-88458807D01*
X115810894Y-88458925D01*
X115864289Y-88490667D01*
X116420595Y-89046973D01*
X116454621Y-89109285D01*
X116457500Y-89136068D01*
X116457500Y-89403932D01*
X116437498Y-89472053D01*
X116420595Y-89493027D01*
X115564560Y-90349062D01*
X115502248Y-90383088D01*
X115459362Y-90384500D01*
X115453838Y-90382848D01*
X115444867Y-90382793D01*
X115444866Y-90382793D01*
X115390034Y-90382458D01*
X115331385Y-90382100D01*
X115213644Y-90415751D01*
X115110080Y-90481095D01*
X115104137Y-90487824D01*
X115037164Y-90563656D01*
X115029018Y-90572879D01*
X114976976Y-90683726D01*
X114975595Y-90692595D01*
X114967420Y-90745101D01*
X114958136Y-90804724D01*
X114959300Y-90813626D01*
X114959300Y-90813629D01*
X114967540Y-90876639D01*
X114974014Y-90926145D01*
X115023333Y-91038230D01*
X115102127Y-91131968D01*
X115204064Y-91199823D01*
X115320948Y-91236340D01*
X115443383Y-91238584D01*
X115461434Y-91233663D01*
X115552863Y-91208737D01*
X115561527Y-91206375D01*
X115665881Y-91142301D01*
X115748058Y-91051513D01*
X115801451Y-90941311D01*
X115804003Y-90926145D01*
X115820960Y-90825348D01*
X115821767Y-90820552D01*
X115821896Y-90810000D01*
X115812601Y-90745099D01*
X115822745Y-90674833D01*
X115848234Y-90638144D01*
X116777176Y-89709202D01*
X116779177Y-89707416D01*
X116789301Y-89702554D01*
X116806813Y-89680656D01*
X116812789Y-89673979D01*
X116814326Y-89672052D01*
X116819333Y-89667045D01*
X116823098Y-89661055D01*
X116824988Y-89658685D01*
X116829808Y-89651903D01*
X116838139Y-89641486D01*
X116838141Y-89641483D01*
X116847003Y-89630401D01*
X116849679Y-89618763D01*
X116856035Y-89608651D01*
X116859129Y-89581287D01*
X116860581Y-89572792D01*
X116860903Y-89569958D01*
X116862500Y-89563011D01*
X116862500Y-89555883D01*
X116862801Y-89553231D01*
X116863298Y-89544409D01*
X116864820Y-89530948D01*
X116864820Y-89530947D01*
X116866414Y-89516847D01*
X116862661Y-89506100D01*
X116862500Y-89503221D01*
X116862500Y-89036784D01*
X116862652Y-89034108D01*
X116866373Y-89023513D01*
X116863273Y-88995658D01*
X116862776Y-88986694D01*
X116862500Y-88984243D01*
X116862500Y-88977169D01*
X116860926Y-88970271D01*
X116860588Y-88967267D01*
X116859199Y-88959056D01*
X116857723Y-88945795D01*
X116856154Y-88931692D01*
X116849817Y-88921571D01*
X116847161Y-88909926D01*
X116829999Y-88888389D01*
X116825015Y-88881350D01*
X116823242Y-88879123D01*
X116819460Y-88873082D01*
X116814419Y-88868041D01*
X116812759Y-88865956D01*
X116806876Y-88859371D01*
X116789585Y-88837672D01*
X116779333Y-88832727D01*
X116777179Y-88830801D01*
X115489405Y-87543027D01*
X115455379Y-87480715D01*
X115452500Y-87453932D01*
X115452500Y-84861592D01*
X115468998Y-84805403D01*
X115453582Y-84770576D01*
X115452500Y-84754100D01*
X115452500Y-82027195D01*
X115472502Y-81959074D01*
X115526158Y-81912581D01*
X115596432Y-81902477D01*
X115661012Y-81931971D01*
X115693828Y-81976448D01*
X115711333Y-82016230D01*
X115790127Y-82109968D01*
X115892064Y-82177823D01*
X116008948Y-82214340D01*
X116131383Y-82216584D01*
X116149434Y-82211663D01*
X116240863Y-82186737D01*
X116249527Y-82184375D01*
X116284245Y-82163058D01*
X116297701Y-82154796D01*
X116366219Y-82136198D01*
X116433914Y-82157595D01*
X116479295Y-82212194D01*
X116487953Y-82282661D01*
X116477687Y-82315715D01*
X116426976Y-82423726D01*
X116425595Y-82432595D01*
X116410404Y-82530161D01*
X116408136Y-82544724D01*
X116409300Y-82553626D01*
X116409300Y-82553629D01*
X116412412Y-82577425D01*
X116424014Y-82666145D01*
X116473333Y-82778230D01*
X116552127Y-82871968D01*
X116654064Y-82939823D01*
X116770948Y-82976340D01*
X116893383Y-82978584D01*
X116986360Y-82953236D01*
X117057341Y-82954616D01*
X117116310Y-82994153D01*
X117144542Y-83059295D01*
X117145500Y-83074799D01*
X117145500Y-83455932D01*
X117125498Y-83524053D01*
X117108595Y-83545027D01*
X116304560Y-84349062D01*
X116242248Y-84383088D01*
X116199362Y-84384500D01*
X116193838Y-84382848D01*
X116184867Y-84382793D01*
X116184866Y-84382793D01*
X116130034Y-84382458D01*
X116071385Y-84382100D01*
X115953644Y-84415751D01*
X115946057Y-84420538D01*
X115946055Y-84420539D01*
X115926176Y-84433082D01*
X115850080Y-84481095D01*
X115844137Y-84487824D01*
X115796587Y-84541664D01*
X115769018Y-84572879D01*
X115716976Y-84683726D01*
X115715595Y-84692595D01*
X115703000Y-84773485D01*
X115687179Y-84807085D01*
X115699396Y-84826094D01*
X115703436Y-84845254D01*
X115711295Y-84905350D01*
X115714014Y-84926145D01*
X115763333Y-85038230D01*
X115842127Y-85131968D01*
X115849604Y-85136945D01*
X115902839Y-85172381D01*
X115944064Y-85199823D01*
X116060948Y-85236340D01*
X116183383Y-85238584D01*
X116201434Y-85233663D01*
X116292863Y-85208737D01*
X116301527Y-85206375D01*
X116405881Y-85142301D01*
X116488058Y-85051513D01*
X116541451Y-84941311D01*
X116544003Y-84926145D01*
X116557611Y-84845254D01*
X116561767Y-84820552D01*
X116561896Y-84810000D01*
X116552601Y-84745099D01*
X116562745Y-84674833D01*
X116588234Y-84638144D01*
X117465176Y-83761202D01*
X117467177Y-83759416D01*
X117477301Y-83754554D01*
X117494813Y-83732656D01*
X117500789Y-83725979D01*
X117502326Y-83724052D01*
X117507333Y-83719045D01*
X117511098Y-83713055D01*
X117512988Y-83710685D01*
X117517808Y-83703903D01*
X117526139Y-83693486D01*
X117526141Y-83693483D01*
X117535003Y-83682401D01*
X117537679Y-83670763D01*
X117544035Y-83660651D01*
X117547129Y-83633287D01*
X117548581Y-83624792D01*
X117548903Y-83621958D01*
X117550500Y-83615011D01*
X117550500Y-83607883D01*
X117550801Y-83605231D01*
X117551298Y-83596409D01*
X117552820Y-83582948D01*
X117552820Y-83582947D01*
X117554414Y-83568847D01*
X117550661Y-83558100D01*
X117550500Y-83555221D01*
X117550500Y-81050555D01*
X117570502Y-80982434D01*
X117624158Y-80935941D01*
X117694432Y-80925837D01*
X117728585Y-80936176D01*
X117734064Y-80939823D01*
X117850948Y-80976340D01*
X117973383Y-80978584D01*
X117991434Y-80973663D01*
X118082863Y-80948737D01*
X118091527Y-80946375D01*
X118195881Y-80882301D01*
X118221205Y-80854324D01*
X118272035Y-80798167D01*
X118278058Y-80791513D01*
X118331451Y-80681311D01*
X118335650Y-80656355D01*
X118350038Y-80570828D01*
X118351767Y-80560552D01*
X118351896Y-80550000D01*
X118334536Y-80428781D01*
X118283852Y-80317307D01*
X118219491Y-80242612D01*
X118209776Y-80231337D01*
X118209774Y-80231335D01*
X118203918Y-80224539D01*
X118196390Y-80219659D01*
X118196388Y-80219658D01*
X118179970Y-80209017D01*
X118133685Y-80155181D01*
X118122500Y-80103283D01*
X118122500Y-76539197D01*
X118142502Y-76471076D01*
X118196158Y-76424583D01*
X118266432Y-76414479D01*
X118331012Y-76443973D01*
X118363829Y-76488451D01*
X118403333Y-76578230D01*
X118482127Y-76671968D01*
X118584064Y-76739823D01*
X118700948Y-76776340D01*
X118823383Y-76778584D01*
X118841434Y-76773663D01*
X118932863Y-76748737D01*
X118941527Y-76746375D01*
X119045881Y-76682301D01*
X119128058Y-76591513D01*
X119181451Y-76481311D01*
X119184003Y-76466145D01*
X119200960Y-76365348D01*
X119201767Y-76360552D01*
X119201896Y-76350000D01*
X119192601Y-76285099D01*
X119202745Y-76214833D01*
X119228234Y-76178144D01*
X119237176Y-76169202D01*
X119239177Y-76167416D01*
X119249301Y-76162554D01*
X119266813Y-76140656D01*
X119272789Y-76133979D01*
X119274326Y-76132052D01*
X119279333Y-76127045D01*
X119283098Y-76121055D01*
X119284988Y-76118685D01*
X119289808Y-76111903D01*
X119298139Y-76101486D01*
X119298141Y-76101483D01*
X119307003Y-76090401D01*
X119309679Y-76078763D01*
X119316035Y-76068651D01*
X119319129Y-76041287D01*
X119320581Y-76032792D01*
X119320903Y-76029958D01*
X119322500Y-76023011D01*
X119322500Y-76015883D01*
X119322801Y-76013231D01*
X119323298Y-76004409D01*
X119324820Y-75990948D01*
X119324820Y-75990947D01*
X119326414Y-75976847D01*
X119322661Y-75966100D01*
X119322500Y-75963221D01*
X119322500Y-75412558D01*
X121622500Y-75412558D01*
X121623706Y-75418618D01*
X121623706Y-75418623D01*
X121626698Y-75433660D01*
X121629898Y-75449748D01*
X121636791Y-75460065D01*
X121636792Y-75460066D01*
X121638120Y-75462053D01*
X121658078Y-75491922D01*
X121668394Y-75498815D01*
X121689396Y-75512848D01*
X121700252Y-75520102D01*
X121712422Y-75522523D01*
X121731377Y-75526294D01*
X121731382Y-75526294D01*
X121737442Y-75527500D01*
X123562558Y-75527500D01*
X123568618Y-75526294D01*
X123568623Y-75526294D01*
X123587578Y-75522523D01*
X123599748Y-75520102D01*
X123610605Y-75512848D01*
X123631606Y-75498815D01*
X123641922Y-75491922D01*
X123661880Y-75462053D01*
X123663208Y-75460066D01*
X123663209Y-75460065D01*
X123670102Y-75449748D01*
X123673302Y-75433660D01*
X123676294Y-75418623D01*
X123676294Y-75418618D01*
X123677500Y-75412558D01*
X123677500Y-73187442D01*
X123670102Y-73150252D01*
X123641922Y-73108078D01*
X123599748Y-73079898D01*
X123587578Y-73077477D01*
X123568623Y-73073706D01*
X123568618Y-73073706D01*
X123562558Y-73072500D01*
X121737442Y-73072500D01*
X121731382Y-73073706D01*
X121731377Y-73073706D01*
X121712422Y-73077477D01*
X121700252Y-73079898D01*
X121658078Y-73108078D01*
X121629898Y-73150252D01*
X121622500Y-73187442D01*
X121622500Y-75412558D01*
X119322500Y-75412558D01*
X119322500Y-73896788D01*
X119322652Y-73894110D01*
X119326373Y-73883514D01*
X119324734Y-73868781D01*
X119323273Y-73855660D01*
X119322776Y-73846693D01*
X119322500Y-73844243D01*
X119322500Y-73837169D01*
X119320926Y-73830269D01*
X119320588Y-73827269D01*
X119319200Y-73819065D01*
X119318431Y-73812155D01*
X119330780Y-73742243D01*
X119378966Y-73690103D01*
X119447692Y-73672292D01*
X119515138Y-73694464D01*
X119532754Y-73709132D01*
X119615818Y-73792196D01*
X119649844Y-73854508D01*
X119651223Y-73900675D01*
X119638136Y-73984724D01*
X119639300Y-73993626D01*
X119639300Y-73993629D01*
X119647764Y-74058350D01*
X119654014Y-74106145D01*
X119703333Y-74218230D01*
X119782127Y-74311968D01*
X119797650Y-74322301D01*
X119873182Y-74372579D01*
X119884064Y-74379823D01*
X120000948Y-74416340D01*
X120123383Y-74418584D01*
X120141434Y-74413663D01*
X120232863Y-74388737D01*
X120241527Y-74386375D01*
X120345881Y-74322301D01*
X120361615Y-74304919D01*
X120422035Y-74238167D01*
X120428058Y-74231513D01*
X120481451Y-74121311D01*
X120484003Y-74106145D01*
X120500960Y-74005348D01*
X120501767Y-74000552D01*
X120501896Y-73990000D01*
X120492420Y-73923829D01*
X120485809Y-73877667D01*
X120485808Y-73877664D01*
X120484536Y-73868781D01*
X120478479Y-73855458D01*
X120437568Y-73765481D01*
X120433852Y-73757307D01*
X120378024Y-73692515D01*
X120359776Y-73671337D01*
X120359774Y-73671335D01*
X120353918Y-73664539D01*
X120251160Y-73597935D01*
X120133838Y-73562848D01*
X120124862Y-73562793D01*
X120124861Y-73562793D01*
X120011385Y-73562100D01*
X120011406Y-73558623D01*
X119957753Y-73550547D01*
X119921754Y-73525376D01*
X119759470Y-73363092D01*
X119759461Y-73363082D01*
X119518363Y-73121984D01*
X119484339Y-73059673D01*
X119489403Y-72988858D01*
X119531950Y-72932022D01*
X119598470Y-72907211D01*
X119645032Y-72912623D01*
X119712377Y-72933663D01*
X119712382Y-72933664D01*
X119720948Y-72936340D01*
X119843383Y-72938584D01*
X119861434Y-72933663D01*
X119952863Y-72908737D01*
X119961527Y-72906375D01*
X120065881Y-72842301D01*
X120148058Y-72751513D01*
X120201451Y-72641311D01*
X120204003Y-72626145D01*
X120220960Y-72525348D01*
X120221767Y-72520552D01*
X120221896Y-72510000D01*
X120204536Y-72388781D01*
X120153852Y-72277307D01*
X120130546Y-72250259D01*
X120103176Y-72189884D01*
X120400000Y-72189884D01*
X120404475Y-72205123D01*
X120405865Y-72206328D01*
X120413548Y-72207999D01*
X120444669Y-72207999D01*
X120451490Y-72207629D01*
X120502352Y-72202105D01*
X120517604Y-72198479D01*
X120638054Y-72153324D01*
X120653649Y-72144786D01*
X120755724Y-72068285D01*
X120768285Y-72055724D01*
X120844786Y-71953649D01*
X120853324Y-71938054D01*
X120869900Y-71893838D01*
X120912542Y-71837074D01*
X120938447Y-71822350D01*
X120949748Y-71820102D01*
X120991922Y-71791922D01*
X121020102Y-71749748D01*
X121027500Y-71712558D01*
X121027500Y-70387442D01*
X121020102Y-70350252D01*
X120991922Y-70308078D01*
X120949748Y-70279898D01*
X120938922Y-70277744D01*
X120884381Y-70233790D01*
X120869900Y-70206162D01*
X120853324Y-70161946D01*
X120844786Y-70146351D01*
X120768285Y-70044276D01*
X120755724Y-70031715D01*
X120653649Y-69955214D01*
X120638054Y-69946676D01*
X120517606Y-69901522D01*
X120502351Y-69897895D01*
X120451486Y-69892369D01*
X120444672Y-69892000D01*
X120418115Y-69892000D01*
X120402876Y-69896475D01*
X120401671Y-69897865D01*
X120400000Y-69905548D01*
X120400000Y-72189884D01*
X120103176Y-72189884D01*
X120101233Y-72185597D01*
X120100000Y-72168012D01*
X120100000Y-69910116D01*
X120095525Y-69894877D01*
X120094135Y-69893672D01*
X120086452Y-69892001D01*
X120055331Y-69892001D01*
X120048510Y-69892371D01*
X119997648Y-69897895D01*
X119982396Y-69901521D01*
X119861946Y-69946676D01*
X119846351Y-69955214D01*
X119744276Y-70031715D01*
X119731719Y-70044272D01*
X119679327Y-70114179D01*
X119622467Y-70156694D01*
X119551649Y-70161720D01*
X119489355Y-70127660D01*
X119455365Y-70065329D01*
X119452500Y-70038614D01*
X119452500Y-69756788D01*
X119452652Y-69754110D01*
X119456373Y-69743514D01*
X119453273Y-69715658D01*
X119452776Y-69706693D01*
X119452500Y-69704243D01*
X119452500Y-69697169D01*
X119450926Y-69690271D01*
X119450588Y-69687267D01*
X119449199Y-69679056D01*
X119447723Y-69665795D01*
X119446154Y-69651692D01*
X119439817Y-69641570D01*
X119437161Y-69629926D01*
X119420004Y-69608395D01*
X119415013Y-69601347D01*
X119413245Y-69599127D01*
X119409461Y-69593082D01*
X119404414Y-69588035D01*
X119402757Y-69585954D01*
X119396872Y-69579366D01*
X119388426Y-69568767D01*
X119379585Y-69557672D01*
X119369334Y-69552727D01*
X119367181Y-69550802D01*
X118025200Y-68208822D01*
X118023415Y-68206822D01*
X118018554Y-68196699D01*
X117996656Y-68179187D01*
X117989979Y-68173211D01*
X117988052Y-68171674D01*
X117983045Y-68166667D01*
X117977055Y-68162902D01*
X117974685Y-68161012D01*
X117967903Y-68156192D01*
X117957486Y-68147861D01*
X117957483Y-68147859D01*
X117946401Y-68138997D01*
X117934763Y-68136321D01*
X117924651Y-68129965D01*
X117900029Y-68127181D01*
X117897287Y-68126871D01*
X117888792Y-68125419D01*
X117885958Y-68125097D01*
X117879011Y-68123500D01*
X117871883Y-68123500D01*
X117869231Y-68123199D01*
X117860409Y-68122702D01*
X117846948Y-68121180D01*
X117846947Y-68121180D01*
X117832847Y-68119586D01*
X117822100Y-68123339D01*
X117819221Y-68123500D01*
X116214068Y-68123500D01*
X116145947Y-68103498D01*
X116124973Y-68086595D01*
X115809405Y-67771027D01*
X115775379Y-67708715D01*
X115772500Y-67681932D01*
X115772500Y-67045626D01*
X115792502Y-66977505D01*
X115846158Y-66931012D01*
X115854587Y-66927730D01*
X115858192Y-66926964D01*
X115864223Y-66924279D01*
X116030275Y-66850348D01*
X116030277Y-66850347D01*
X116036305Y-66847663D01*
X116194037Y-66733064D01*
X116222902Y-66701007D01*
X116320078Y-66593082D01*
X116320079Y-66593081D01*
X116324497Y-66588174D01*
X116384780Y-66483761D01*
X116418677Y-66425049D01*
X116418678Y-66425048D01*
X116421981Y-66419326D01*
X116458633Y-66306522D01*
X121787273Y-66306522D01*
X121834764Y-66483761D01*
X121838510Y-66494053D01*
X121930586Y-66691511D01*
X121936069Y-66701007D01*
X122061028Y-66879467D01*
X122068084Y-66887875D01*
X122222125Y-67041916D01*
X122230533Y-67048972D01*
X122408993Y-67173931D01*
X122418489Y-67179414D01*
X122615947Y-67271490D01*
X122626239Y-67275236D01*
X122798503Y-67321394D01*
X122812599Y-67321058D01*
X122816000Y-67313116D01*
X122816000Y-67307967D01*
X123324000Y-67307967D01*
X123327973Y-67321498D01*
X123336522Y-67322727D01*
X123513761Y-67275236D01*
X123524053Y-67271490D01*
X123721511Y-67179414D01*
X123731007Y-67173931D01*
X123909467Y-67048972D01*
X123917875Y-67041916D01*
X124071916Y-66887875D01*
X124078972Y-66879467D01*
X124203931Y-66701007D01*
X124209414Y-66691511D01*
X124301490Y-66494053D01*
X124305236Y-66483761D01*
X124351394Y-66311497D01*
X124351058Y-66297401D01*
X124343116Y-66294000D01*
X123342115Y-66294000D01*
X123326876Y-66298475D01*
X123325671Y-66299865D01*
X123324000Y-66307548D01*
X123324000Y-67307967D01*
X122816000Y-67307967D01*
X122816000Y-66312115D01*
X122811525Y-66296876D01*
X122810135Y-66295671D01*
X122802452Y-66294000D01*
X121802033Y-66294000D01*
X121788502Y-66297973D01*
X121787273Y-66306522D01*
X116458633Y-66306522D01*
X116461411Y-66297973D01*
X116480189Y-66240179D01*
X116480189Y-66240178D01*
X116482229Y-66233900D01*
X116502609Y-66040000D01*
X116482229Y-65846100D01*
X116461597Y-65782599D01*
X116457017Y-65768503D01*
X121788606Y-65768503D01*
X121788942Y-65782599D01*
X121796884Y-65786000D01*
X122797885Y-65786000D01*
X122813124Y-65781525D01*
X122814329Y-65780135D01*
X122816000Y-65772452D01*
X122816000Y-65767885D01*
X123324000Y-65767885D01*
X123328475Y-65783124D01*
X123329865Y-65784329D01*
X123337548Y-65786000D01*
X124337967Y-65786000D01*
X124351498Y-65782027D01*
X124352727Y-65773478D01*
X124305236Y-65596239D01*
X124301490Y-65585947D01*
X124209414Y-65388489D01*
X124203931Y-65378993D01*
X124078972Y-65200533D01*
X124071916Y-65192125D01*
X123917875Y-65038084D01*
X123909467Y-65031028D01*
X123731007Y-64906069D01*
X123721511Y-64900586D01*
X123524053Y-64808510D01*
X123513761Y-64804764D01*
X123341497Y-64758606D01*
X123327401Y-64758942D01*
X123324000Y-64766884D01*
X123324000Y-65767885D01*
X122816000Y-65767885D01*
X122816000Y-64772033D01*
X122812027Y-64758502D01*
X122803478Y-64757273D01*
X122626239Y-64804764D01*
X122615947Y-64808510D01*
X122418489Y-64900586D01*
X122408993Y-64906069D01*
X122230533Y-65031028D01*
X122222125Y-65038084D01*
X122068084Y-65192125D01*
X122061028Y-65200533D01*
X121936069Y-65378993D01*
X121930586Y-65388489D01*
X121838510Y-65585947D01*
X121834764Y-65596239D01*
X121788606Y-65768503D01*
X116457017Y-65768503D01*
X116424023Y-65666959D01*
X116421981Y-65660674D01*
X116404705Y-65630750D01*
X116327800Y-65497547D01*
X116324497Y-65491826D01*
X116289598Y-65453067D01*
X116198452Y-65351839D01*
X116198450Y-65351838D01*
X116194037Y-65346936D01*
X116036305Y-65232337D01*
X116030277Y-65229653D01*
X116030275Y-65229652D01*
X115972251Y-65203818D01*
X115918155Y-65157837D01*
X115897500Y-65088711D01*
X115897500Y-62905564D01*
X115917502Y-62837443D01*
X115958983Y-62797335D01*
X116036998Y-62750829D01*
X116037000Y-62750828D01*
X116043050Y-62747221D01*
X116169368Y-62626930D01*
X116182973Y-62606454D01*
X116237427Y-62524493D01*
X116265897Y-62481643D01*
X116277086Y-62452188D01*
X116325339Y-62325163D01*
X116325340Y-62325158D01*
X116327839Y-62318580D01*
X116332323Y-62286674D01*
X116351564Y-62149769D01*
X116351564Y-62149764D01*
X116352115Y-62145846D01*
X116352249Y-62136242D01*
X116373200Y-62068407D01*
X116427499Y-62022667D01*
X116478237Y-62012000D01*
X116567885Y-62012000D01*
X116583124Y-62007525D01*
X116584329Y-62006135D01*
X116586000Y-61998452D01*
X116586000Y-61993884D01*
X117094000Y-61993884D01*
X117098475Y-62009123D01*
X117099865Y-62010328D01*
X117107548Y-62011999D01*
X117534669Y-62011999D01*
X117541490Y-62011629D01*
X117592352Y-62006105D01*
X117607604Y-62002479D01*
X117728054Y-61957324D01*
X117743649Y-61948786D01*
X117845724Y-61872285D01*
X117858285Y-61859724D01*
X117934786Y-61757649D01*
X117943324Y-61742054D01*
X117988478Y-61621606D01*
X117992105Y-61606351D01*
X117997631Y-61555486D01*
X117998000Y-61548672D01*
X117998000Y-61126115D01*
X117993525Y-61110876D01*
X117992135Y-61109671D01*
X117984452Y-61108000D01*
X117112115Y-61108000D01*
X117096876Y-61112475D01*
X117095671Y-61113865D01*
X117094000Y-61121548D01*
X117094000Y-61993884D01*
X116586000Y-61993884D01*
X116586000Y-61126115D01*
X116581525Y-61110876D01*
X116580135Y-61109671D01*
X116572452Y-61108000D01*
X115700116Y-61108000D01*
X115684877Y-61112475D01*
X115683672Y-61113865D01*
X115682001Y-61121548D01*
X115682001Y-61216950D01*
X115661999Y-61285071D01*
X115608343Y-61331564D01*
X115569172Y-61342260D01*
X115408987Y-61359096D01*
X115408985Y-61359097D01*
X115401987Y-61359832D01*
X115236862Y-61416045D01*
X115088294Y-61507445D01*
X115086722Y-61504890D01*
X115033145Y-61526132D01*
X114963477Y-61512463D01*
X114912258Y-61463299D01*
X114895750Y-61394248D01*
X114916639Y-61330935D01*
X114995897Y-61211643D01*
X115007086Y-61182188D01*
X115055339Y-61055163D01*
X115055340Y-61055158D01*
X115057839Y-61048580D01*
X115058819Y-61041608D01*
X115081564Y-60879769D01*
X115081564Y-60879764D01*
X115082115Y-60875846D01*
X115082420Y-60854000D01*
X115062976Y-60680656D01*
X115056301Y-60661487D01*
X115052787Y-60590582D01*
X115086197Y-60530957D01*
X115466905Y-60150249D01*
X115529217Y-60116223D01*
X115600032Y-60121288D01*
X115656868Y-60163835D01*
X115681679Y-60230355D01*
X115682000Y-60239344D01*
X115682000Y-60581885D01*
X115686475Y-60597124D01*
X115687865Y-60598329D01*
X115695548Y-60600000D01*
X116567885Y-60600000D01*
X116583124Y-60595525D01*
X116584329Y-60594135D01*
X116586000Y-60586452D01*
X116586000Y-60581885D01*
X117094000Y-60581885D01*
X117098475Y-60597124D01*
X117099865Y-60598329D01*
X117107548Y-60600000D01*
X117979884Y-60600000D01*
X117995123Y-60595525D01*
X117996328Y-60594135D01*
X117997999Y-60586452D01*
X117997999Y-60159331D01*
X117997629Y-60152510D01*
X117992105Y-60101648D01*
X117988479Y-60086396D01*
X117943324Y-59965946D01*
X117934786Y-59950351D01*
X117858285Y-59848276D01*
X117845724Y-59835715D01*
X117743649Y-59759214D01*
X117728054Y-59750676D01*
X117607606Y-59705522D01*
X117592351Y-59701895D01*
X117541486Y-59696369D01*
X117534672Y-59696000D01*
X117112115Y-59696000D01*
X117096876Y-59700475D01*
X117095671Y-59701865D01*
X117094000Y-59709548D01*
X117094000Y-60581885D01*
X116586000Y-60581885D01*
X116586000Y-59714116D01*
X116581525Y-59698877D01*
X116580135Y-59697672D01*
X116572452Y-59696001D01*
X116225344Y-59696001D01*
X116157223Y-59675999D01*
X116110730Y-59622343D01*
X116100626Y-59552069D01*
X116130120Y-59487489D01*
X116136249Y-59480906D01*
X116832750Y-58784405D01*
X116895062Y-58750379D01*
X116921845Y-58747500D01*
X118684156Y-58747500D01*
X118752277Y-58767502D01*
X118773251Y-58784405D01*
X125619595Y-65630750D01*
X125653621Y-65693062D01*
X125656500Y-65719845D01*
X125656500Y-77028155D01*
X125636498Y-77096276D01*
X125619595Y-77117250D01*
X122243427Y-80493419D01*
X122181115Y-80527445D01*
X122112068Y-80523024D01*
X122098666Y-80518252D01*
X122091680Y-80517419D01*
X122091676Y-80517418D01*
X121968558Y-80502738D01*
X121925462Y-80497599D01*
X121918459Y-80498335D01*
X121918458Y-80498335D01*
X121758987Y-80515096D01*
X121758985Y-80515097D01*
X121751987Y-80515832D01*
X121586862Y-80572045D01*
X121565266Y-80585331D01*
X121444301Y-80659749D01*
X121444298Y-80659751D01*
X121438294Y-80663445D01*
X121433259Y-80668376D01*
X121433256Y-80668378D01*
X121318700Y-80780560D01*
X121313668Y-80785488D01*
X121269306Y-80854324D01*
X121223708Y-80925079D01*
X121219177Y-80932109D01*
X121216768Y-80938729D01*
X121216766Y-80938732D01*
X121185003Y-81026000D01*
X121159518Y-81096020D01*
X121137656Y-81269076D01*
X121154678Y-81442674D01*
X121164935Y-81473508D01*
X121167459Y-81544456D01*
X121134472Y-81602373D01*
X117638433Y-85098413D01*
X117630329Y-85105840D01*
X117601250Y-85130240D01*
X117595737Y-85139789D01*
X117582275Y-85163106D01*
X117576377Y-85172365D01*
X117554606Y-85203457D01*
X117551754Y-85214101D01*
X117550240Y-85217347D01*
X117549014Y-85220715D01*
X117543503Y-85230261D01*
X117541589Y-85241117D01*
X117536913Y-85267633D01*
X117534536Y-85278356D01*
X117524713Y-85315016D01*
X117525674Y-85325999D01*
X117528020Y-85352811D01*
X117528500Y-85363794D01*
X117528500Y-90744155D01*
X117508498Y-90812276D01*
X117491595Y-90833250D01*
X115860433Y-92464413D01*
X115852329Y-92471840D01*
X115823250Y-92496240D01*
X115817737Y-92505789D01*
X115804275Y-92529106D01*
X115798377Y-92538365D01*
X115776606Y-92569457D01*
X115773754Y-92580101D01*
X115772240Y-92583347D01*
X115771014Y-92586715D01*
X115765503Y-92596261D01*
X115763589Y-92607117D01*
X115758913Y-92633633D01*
X115756536Y-92644356D01*
X115746713Y-92681016D01*
X115747674Y-92691999D01*
X115750020Y-92718811D01*
X115750500Y-92729794D01*
X115750500Y-113604155D01*
X115730498Y-113672276D01*
X115713595Y-113693250D01*
X102081490Y-127325356D01*
X102019178Y-127359382D01*
X101955136Y-127356626D01*
X101803392Y-127309654D01*
X101803389Y-127309653D01*
X101797505Y-127307832D01*
X101791380Y-127307188D01*
X101791379Y-127307188D01*
X101612985Y-127288438D01*
X101612984Y-127288438D01*
X101606857Y-127287794D01*
X101526779Y-127295082D01*
X101422087Y-127304609D01*
X101422084Y-127304610D01*
X101415948Y-127305168D01*
X101410042Y-127306906D01*
X101410038Y-127306907D01*
X101274622Y-127346762D01*
X101232050Y-127359292D01*
X101226590Y-127362146D01*
X101226591Y-127362146D01*
X101067627Y-127445250D01*
X101067623Y-127445253D01*
X101062167Y-127448105D01*
X100912770Y-127568223D01*
X100789549Y-127715072D01*
X100786585Y-127720464D01*
X100786582Y-127720468D01*
X100749400Y-127788102D01*
X100697198Y-127883058D01*
X100695337Y-127888925D01*
X100695336Y-127888927D01*
X100668280Y-127974218D01*
X100639234Y-128065783D01*
X100617866Y-128256286D01*
X100618382Y-128262430D01*
X100630351Y-128404959D01*
X100633907Y-128447311D01*
X100635606Y-128453236D01*
X100675013Y-128590664D01*
X100686746Y-128631583D01*
X100689561Y-128637060D01*
X100689562Y-128637063D01*
X100771555Y-128796605D01*
X100774370Y-128802082D01*
X100778193Y-128806906D01*
X100778196Y-128806910D01*
X100865999Y-128917688D01*
X100893443Y-128952314D01*
X100898137Y-128956308D01*
X100898137Y-128956309D01*
X100989376Y-129033959D01*
X101039428Y-129076557D01*
X101206765Y-129170079D01*
X101279085Y-129193577D01*
X101317835Y-129206168D01*
X101376441Y-129246242D01*
X101404078Y-129311638D01*
X101391971Y-129381595D01*
X101343965Y-129433901D01*
X101278899Y-129452001D01*
X100705331Y-129452001D01*
X100698510Y-129452371D01*
X100647648Y-129457895D01*
X100632396Y-129461521D01*
X100511946Y-129506676D01*
X100496351Y-129515214D01*
X100394276Y-129591715D01*
X100381715Y-129604276D01*
X100305214Y-129706351D01*
X100296676Y-129721946D01*
X100251522Y-129842394D01*
X100247895Y-129857649D01*
X100242369Y-129908514D01*
X100242000Y-129915328D01*
X100242000Y-130537885D01*
X100246475Y-130553124D01*
X100247865Y-130554329D01*
X100255548Y-130556000D01*
X102939884Y-130556000D01*
X102955123Y-130551525D01*
X102956328Y-130550135D01*
X102957999Y-130542452D01*
X102957999Y-129915331D01*
X102957629Y-129908510D01*
X102952105Y-129857648D01*
X102948479Y-129842396D01*
X102903324Y-129721946D01*
X102894786Y-129706351D01*
X102818285Y-129604276D01*
X102805724Y-129591715D01*
X102703649Y-129515214D01*
X102688054Y-129506676D01*
X102567606Y-129461522D01*
X102552351Y-129457895D01*
X102501486Y-129452369D01*
X102494672Y-129452000D01*
X101921440Y-129452000D01*
X101853319Y-129431998D01*
X101806826Y-129378342D01*
X101796722Y-129308068D01*
X101826216Y-129243488D01*
X101887554Y-129204643D01*
X101955199Y-129185756D01*
X102126305Y-129099324D01*
X102151600Y-129079562D01*
X102272509Y-128985097D01*
X102277365Y-128981303D01*
X102284480Y-128973060D01*
X102398595Y-128840857D01*
X102398596Y-128840855D01*
X102402624Y-128836189D01*
X102497312Y-128669509D01*
X102557821Y-128487612D01*
X102581847Y-128297425D01*
X102582230Y-128270000D01*
X102563524Y-128079217D01*
X102513525Y-127913613D01*
X102512984Y-127842621D01*
X102545052Y-127788102D01*
X116295573Y-114037582D01*
X116303677Y-114030155D01*
X116324305Y-114012846D01*
X116332750Y-114005760D01*
X116351723Y-113972898D01*
X116357626Y-113963633D01*
X116373071Y-113941574D01*
X116373072Y-113941572D01*
X116379394Y-113932543D01*
X116382246Y-113921899D01*
X116383760Y-113918653D01*
X116384986Y-113915285D01*
X116390497Y-113905739D01*
X116397087Y-113868367D01*
X116399466Y-113857635D01*
X116406434Y-113831631D01*
X116409287Y-113820984D01*
X116405980Y-113783189D01*
X116405500Y-113772206D01*
X116405500Y-102374522D01*
X118351273Y-102374522D01*
X118398764Y-102551761D01*
X118402510Y-102562053D01*
X118494586Y-102759511D01*
X118500069Y-102769007D01*
X118625028Y-102947467D01*
X118632084Y-102955875D01*
X118786125Y-103109916D01*
X118794533Y-103116972D01*
X118972993Y-103241931D01*
X118982489Y-103247414D01*
X119179947Y-103339490D01*
X119190239Y-103343236D01*
X119362503Y-103389394D01*
X119376599Y-103389058D01*
X119380000Y-103381116D01*
X119380000Y-103375967D01*
X119888000Y-103375967D01*
X119891973Y-103389498D01*
X119900522Y-103390727D01*
X120077761Y-103343236D01*
X120088053Y-103339490D01*
X120285511Y-103247414D01*
X120295007Y-103241931D01*
X120473467Y-103116972D01*
X120481875Y-103109916D01*
X120635916Y-102955875D01*
X120642972Y-102947467D01*
X120767931Y-102769007D01*
X120773414Y-102759511D01*
X120865490Y-102562053D01*
X120869236Y-102551761D01*
X120915394Y-102379497D01*
X120915058Y-102365401D01*
X120907116Y-102362000D01*
X119906115Y-102362000D01*
X119890876Y-102366475D01*
X119889671Y-102367865D01*
X119888000Y-102375548D01*
X119888000Y-103375967D01*
X119380000Y-103375967D01*
X119380000Y-102380115D01*
X119375525Y-102364876D01*
X119374135Y-102363671D01*
X119366452Y-102362000D01*
X118366033Y-102362000D01*
X118352502Y-102365973D01*
X118351273Y-102374522D01*
X116405500Y-102374522D01*
X116405500Y-101836503D01*
X118352606Y-101836503D01*
X118352942Y-101850599D01*
X118360884Y-101854000D01*
X119361885Y-101854000D01*
X119377124Y-101849525D01*
X119378329Y-101848135D01*
X119380000Y-101840452D01*
X119380000Y-101835885D01*
X119888000Y-101835885D01*
X119892475Y-101851124D01*
X119893865Y-101852329D01*
X119901548Y-101854000D01*
X120901967Y-101854000D01*
X120915498Y-101850027D01*
X120916727Y-101841478D01*
X120869236Y-101664239D01*
X120865490Y-101653947D01*
X120773414Y-101456489D01*
X120767931Y-101446993D01*
X120642972Y-101268533D01*
X120635916Y-101260125D01*
X120481875Y-101106084D01*
X120473467Y-101099028D01*
X120295007Y-100974069D01*
X120285511Y-100968586D01*
X120088053Y-100876510D01*
X120077761Y-100872764D01*
X119905497Y-100826606D01*
X119891401Y-100826942D01*
X119888000Y-100834884D01*
X119888000Y-101835885D01*
X119380000Y-101835885D01*
X119380000Y-100840033D01*
X119376027Y-100826502D01*
X119367478Y-100825273D01*
X119190239Y-100872764D01*
X119179947Y-100876510D01*
X118982489Y-100968586D01*
X118972993Y-100974069D01*
X118794533Y-101099028D01*
X118786125Y-101106084D01*
X118632084Y-101260125D01*
X118625028Y-101268533D01*
X118500069Y-101446993D01*
X118494586Y-101456489D01*
X118402510Y-101653947D01*
X118398764Y-101664239D01*
X118352606Y-101836503D01*
X116405500Y-101836503D01*
X116405500Y-92897844D01*
X116425502Y-92829723D01*
X116442405Y-92808749D01*
X117242932Y-92008223D01*
X118073573Y-91177582D01*
X118081677Y-91170155D01*
X118102306Y-91152845D01*
X118110750Y-91145760D01*
X118116590Y-91135646D01*
X118119823Y-91130046D01*
X118129730Y-91112886D01*
X118135622Y-91103639D01*
X118157395Y-91072543D01*
X118160248Y-91061894D01*
X118161756Y-91058660D01*
X118162983Y-91055288D01*
X118168497Y-91045739D01*
X118175087Y-91008367D01*
X118177462Y-90997653D01*
X118187287Y-90960984D01*
X118184958Y-90934360D01*
X118183980Y-90923189D01*
X118183500Y-90912206D01*
X118183500Y-85531844D01*
X118203502Y-85463723D01*
X118220405Y-85442749D01*
X121595712Y-82067443D01*
X121658024Y-82033417D01*
X121716636Y-82037577D01*
X121717274Y-82035019D01*
X121724116Y-82036725D01*
X121730715Y-82039179D01*
X121737695Y-82040110D01*
X121737698Y-82040111D01*
X121793874Y-82047606D01*
X121903614Y-82062248D01*
X121910625Y-82061610D01*
X121910629Y-82061610D01*
X122070306Y-82047078D01*
X122077327Y-82046439D01*
X122084029Y-82044261D01*
X122084031Y-82044261D01*
X122236522Y-81994714D01*
X122236525Y-81994713D01*
X122243221Y-81992537D01*
X122393050Y-81903221D01*
X122393066Y-81903247D01*
X122456714Y-81879024D01*
X122526187Y-81893653D01*
X122576722Y-81943520D01*
X122592275Y-82012792D01*
X122572450Y-82072895D01*
X122541899Y-82120301D01*
X122502394Y-82181601D01*
X122489177Y-82202109D01*
X122486768Y-82208729D01*
X122486766Y-82208732D01*
X122434142Y-82353315D01*
X122429518Y-82366020D01*
X122407656Y-82539076D01*
X122424678Y-82712674D01*
X122426902Y-82719359D01*
X122426902Y-82719360D01*
X122452010Y-82794836D01*
X122479737Y-82878188D01*
X122483384Y-82884210D01*
X122483385Y-82884212D01*
X122550918Y-82995721D01*
X122570097Y-83027390D01*
X122691267Y-83152865D01*
X122697163Y-83156724D01*
X122697164Y-83156724D01*
X122805493Y-83227613D01*
X122851542Y-83281651D01*
X122862500Y-83333045D01*
X122862500Y-84200155D01*
X122842498Y-84268276D01*
X122825595Y-84289250D01*
X120137264Y-86977582D01*
X120074952Y-87011608D01*
X120004137Y-87006543D01*
X119996941Y-87003603D01*
X119982192Y-86997036D01*
X119881267Y-86975584D01*
X119797941Y-86957872D01*
X119797937Y-86957872D01*
X119791484Y-86956500D01*
X119596516Y-86956500D01*
X119590063Y-86957872D01*
X119590059Y-86957872D01*
X119501162Y-86976768D01*
X119405808Y-86997036D01*
X119399779Y-86999720D01*
X119399777Y-86999721D01*
X119233726Y-87073652D01*
X119233724Y-87073653D01*
X119227696Y-87076337D01*
X119222355Y-87080217D01*
X119222354Y-87080218D01*
X119206297Y-87091884D01*
X119069963Y-87190936D01*
X119065550Y-87195838D01*
X119065548Y-87195839D01*
X118943922Y-87330918D01*
X118939503Y-87335826D01*
X118936200Y-87341547D01*
X118876270Y-87445350D01*
X118842019Y-87504674D01*
X118825518Y-87555458D01*
X118785029Y-87680074D01*
X118781771Y-87690100D01*
X118781081Y-87696663D01*
X118781081Y-87696664D01*
X118762081Y-87877435D01*
X118761391Y-87884000D01*
X118762081Y-87890565D01*
X118777249Y-88034872D01*
X118781771Y-88077900D01*
X118783811Y-88084178D01*
X118783811Y-88084179D01*
X118802589Y-88141973D01*
X118842019Y-88263326D01*
X118845322Y-88269048D01*
X118845323Y-88269049D01*
X118884346Y-88336639D01*
X118939503Y-88432174D01*
X118943921Y-88437081D01*
X118943922Y-88437082D01*
X119041099Y-88545007D01*
X119069963Y-88577064D01*
X119075302Y-88580943D01*
X119117066Y-88611286D01*
X119227695Y-88691663D01*
X119233723Y-88694347D01*
X119233725Y-88694348D01*
X119291749Y-88720182D01*
X119345845Y-88766163D01*
X119366500Y-88835289D01*
X119366500Y-90969998D01*
X119346498Y-91038119D01*
X119291750Y-91085104D01*
X119286565Y-91087413D01*
X119173726Y-91137652D01*
X119173724Y-91137653D01*
X119167696Y-91140337D01*
X119162355Y-91144217D01*
X119162354Y-91144218D01*
X119085820Y-91199823D01*
X119009963Y-91254936D01*
X119005550Y-91259838D01*
X119005548Y-91259839D01*
X118885818Y-91392812D01*
X118879503Y-91399826D01*
X118782019Y-91568674D01*
X118779977Y-91574959D01*
X118724878Y-91744539D01*
X118721771Y-91754100D01*
X118701391Y-91948000D01*
X118702081Y-91954565D01*
X118708737Y-92017887D01*
X118721771Y-92141900D01*
X118782019Y-92327326D01*
X118785322Y-92333048D01*
X118785323Y-92333049D01*
X118840544Y-92428695D01*
X118879503Y-92496174D01*
X118883921Y-92501081D01*
X118883922Y-92501082D01*
X119003864Y-92634290D01*
X119009963Y-92641064D01*
X119015302Y-92644943D01*
X119142593Y-92737425D01*
X119167695Y-92755663D01*
X119173723Y-92758347D01*
X119173725Y-92758348D01*
X119339777Y-92832279D01*
X119345808Y-92834964D01*
X119411984Y-92849030D01*
X119530059Y-92874128D01*
X119530063Y-92874128D01*
X119536516Y-92875500D01*
X119731484Y-92875500D01*
X119737937Y-92874128D01*
X119737941Y-92874128D01*
X119856016Y-92849030D01*
X119922192Y-92834964D01*
X119928223Y-92832279D01*
X120094275Y-92758348D01*
X120094277Y-92758347D01*
X120100305Y-92755663D01*
X120125408Y-92737425D01*
X120252698Y-92644943D01*
X120258037Y-92641064D01*
X120264137Y-92634290D01*
X120384078Y-92501082D01*
X120384079Y-92501081D01*
X120388497Y-92496174D01*
X120427456Y-92428695D01*
X120482677Y-92333049D01*
X120482678Y-92333048D01*
X120485981Y-92327326D01*
X120546229Y-92141900D01*
X120559264Y-92017887D01*
X120565919Y-91954565D01*
X120566609Y-91948000D01*
X120546229Y-91754100D01*
X120543123Y-91744539D01*
X120488023Y-91574959D01*
X120485981Y-91568674D01*
X120388497Y-91399826D01*
X120382182Y-91392812D01*
X120262452Y-91259839D01*
X120262450Y-91259838D01*
X120258037Y-91254936D01*
X120184732Y-91201677D01*
X120105647Y-91144218D01*
X120105646Y-91144217D01*
X120100305Y-91140337D01*
X120094275Y-91137652D01*
X120088552Y-91134348D01*
X120089466Y-91132765D01*
X120042155Y-91092551D01*
X120021500Y-91023425D01*
X120021500Y-88835289D01*
X120041502Y-88767168D01*
X120096251Y-88720182D01*
X120154275Y-88694348D01*
X120154277Y-88694347D01*
X120160305Y-88691663D01*
X120270935Y-88611286D01*
X120312698Y-88580943D01*
X120318037Y-88577064D01*
X120346902Y-88545007D01*
X120444078Y-88437082D01*
X120444079Y-88437081D01*
X120448497Y-88432174D01*
X120503654Y-88336639D01*
X120542677Y-88269049D01*
X120542678Y-88269048D01*
X120545981Y-88263326D01*
X120582633Y-88150522D01*
X125911273Y-88150522D01*
X125958764Y-88327761D01*
X125962510Y-88338053D01*
X126054586Y-88535511D01*
X126060069Y-88545007D01*
X126185028Y-88723467D01*
X126192084Y-88731875D01*
X126346125Y-88885916D01*
X126354533Y-88892972D01*
X126532993Y-89017931D01*
X126542489Y-89023414D01*
X126739947Y-89115490D01*
X126750239Y-89119236D01*
X126922503Y-89165394D01*
X126936599Y-89165058D01*
X126940000Y-89157116D01*
X126940000Y-89151967D01*
X127448000Y-89151967D01*
X127451973Y-89165498D01*
X127460522Y-89166727D01*
X127637761Y-89119236D01*
X127648053Y-89115490D01*
X127845511Y-89023414D01*
X127855007Y-89017931D01*
X128033467Y-88892972D01*
X128041875Y-88885916D01*
X128195916Y-88731875D01*
X128202972Y-88723467D01*
X128327931Y-88545007D01*
X128333414Y-88535511D01*
X128425490Y-88338053D01*
X128429236Y-88327761D01*
X128475394Y-88155497D01*
X128475058Y-88141401D01*
X128467116Y-88138000D01*
X127466115Y-88138000D01*
X127450876Y-88142475D01*
X127449671Y-88143865D01*
X127448000Y-88151548D01*
X127448000Y-89151967D01*
X126940000Y-89151967D01*
X126940000Y-88156115D01*
X126935525Y-88140876D01*
X126934135Y-88139671D01*
X126926452Y-88138000D01*
X125926033Y-88138000D01*
X125912502Y-88141973D01*
X125911273Y-88150522D01*
X120582633Y-88150522D01*
X120585411Y-88141973D01*
X120604189Y-88084179D01*
X120604189Y-88084178D01*
X120606229Y-88077900D01*
X120610752Y-88034872D01*
X120625919Y-87890565D01*
X120626609Y-87884000D01*
X120625919Y-87877435D01*
X120606919Y-87696664D01*
X120606919Y-87696663D01*
X120606229Y-87690100D01*
X120604188Y-87683818D01*
X120581017Y-87612503D01*
X125912606Y-87612503D01*
X125912942Y-87626599D01*
X125920884Y-87630000D01*
X126921885Y-87630000D01*
X126937124Y-87625525D01*
X126938329Y-87624135D01*
X126940000Y-87616452D01*
X126940000Y-87611885D01*
X127448000Y-87611885D01*
X127452475Y-87627124D01*
X127453865Y-87628329D01*
X127461548Y-87630000D01*
X128461967Y-87630000D01*
X128475498Y-87626027D01*
X128476727Y-87617478D01*
X128429236Y-87440239D01*
X128425490Y-87429947D01*
X128333414Y-87232489D01*
X128327931Y-87222993D01*
X128202972Y-87044533D01*
X128195916Y-87036125D01*
X128041875Y-86882084D01*
X128033467Y-86875028D01*
X127855007Y-86750069D01*
X127845511Y-86744586D01*
X127648053Y-86652510D01*
X127637761Y-86648764D01*
X127465497Y-86602606D01*
X127451401Y-86602942D01*
X127448000Y-86610884D01*
X127448000Y-87611885D01*
X126940000Y-87611885D01*
X126940000Y-86616033D01*
X126936027Y-86602502D01*
X126927478Y-86601273D01*
X126750239Y-86648764D01*
X126739947Y-86652510D01*
X126542489Y-86744586D01*
X126532993Y-86750069D01*
X126354533Y-86875028D01*
X126346125Y-86882084D01*
X126192084Y-87036125D01*
X126185028Y-87044533D01*
X126060069Y-87222993D01*
X126054586Y-87232489D01*
X125962510Y-87429947D01*
X125958764Y-87440239D01*
X125912606Y-87612503D01*
X120581017Y-87612503D01*
X120567511Y-87570935D01*
X120565484Y-87499968D01*
X120598249Y-87442905D01*
X121983374Y-86057781D01*
X123407573Y-84633582D01*
X123415677Y-84626155D01*
X123436306Y-84608845D01*
X123444750Y-84601760D01*
X123463730Y-84568886D01*
X123469622Y-84559639D01*
X123491395Y-84528543D01*
X123494248Y-84517894D01*
X123495756Y-84514660D01*
X123496983Y-84511288D01*
X123502497Y-84501739D01*
X123509087Y-84464367D01*
X123511462Y-84453653D01*
X123521287Y-84416984D01*
X123518771Y-84388223D01*
X123517980Y-84379189D01*
X123517500Y-84368206D01*
X123517500Y-83331564D01*
X123537502Y-83263443D01*
X123578983Y-83223335D01*
X123656998Y-83176829D01*
X123657000Y-83176828D01*
X123663050Y-83173221D01*
X123764913Y-83076218D01*
X123784268Y-83057787D01*
X123784269Y-83057785D01*
X123789368Y-83052930D01*
X123802973Y-83032454D01*
X123862738Y-82942500D01*
X123885897Y-82907643D01*
X123907954Y-82849578D01*
X123945339Y-82751163D01*
X123945340Y-82751158D01*
X123947839Y-82744580D01*
X123951129Y-82721169D01*
X123971564Y-82575769D01*
X123971564Y-82575764D01*
X123972115Y-82571846D01*
X123972249Y-82562242D01*
X123993200Y-82494407D01*
X124047499Y-82448667D01*
X124098237Y-82438000D01*
X124187885Y-82438000D01*
X124203124Y-82433525D01*
X124204329Y-82432135D01*
X124206000Y-82424452D01*
X124206000Y-82419884D01*
X124714000Y-82419884D01*
X124718475Y-82435123D01*
X124719865Y-82436328D01*
X124727548Y-82437999D01*
X125154669Y-82437999D01*
X125161490Y-82437629D01*
X125212352Y-82432105D01*
X125227604Y-82428479D01*
X125348054Y-82383324D01*
X125363649Y-82374786D01*
X125465724Y-82298285D01*
X125478285Y-82285724D01*
X125554786Y-82183649D01*
X125563324Y-82168054D01*
X125608478Y-82047606D01*
X125612105Y-82032351D01*
X125617631Y-81981486D01*
X125618000Y-81974672D01*
X125618000Y-81552115D01*
X125613525Y-81536876D01*
X125612135Y-81535671D01*
X125604452Y-81534000D01*
X124732115Y-81534000D01*
X124716876Y-81538475D01*
X124715671Y-81539865D01*
X124714000Y-81547548D01*
X124714000Y-82419884D01*
X124206000Y-82419884D01*
X124206000Y-81552115D01*
X124201525Y-81536876D01*
X124200135Y-81535671D01*
X124192452Y-81534000D01*
X123320116Y-81534000D01*
X123304877Y-81538475D01*
X123303672Y-81539865D01*
X123302001Y-81547548D01*
X123302001Y-81642950D01*
X123281999Y-81711071D01*
X123228343Y-81757564D01*
X123189172Y-81768260D01*
X123028987Y-81785096D01*
X123028985Y-81785097D01*
X123021987Y-81785832D01*
X122856862Y-81842045D01*
X122708294Y-81933445D01*
X122706722Y-81930890D01*
X122653145Y-81952132D01*
X122583477Y-81938463D01*
X122532258Y-81889299D01*
X122515750Y-81820248D01*
X122536639Y-81756935D01*
X122590792Y-81675429D01*
X122615897Y-81637643D01*
X122629981Y-81600567D01*
X122675339Y-81481163D01*
X122675340Y-81481158D01*
X122677839Y-81474580D01*
X122680688Y-81454307D01*
X122701564Y-81305769D01*
X122701564Y-81305764D01*
X122702115Y-81301846D01*
X122702420Y-81280000D01*
X122682976Y-81106656D01*
X122676301Y-81087487D01*
X122672787Y-81016582D01*
X122706197Y-80956957D01*
X123086905Y-80576249D01*
X123149217Y-80542223D01*
X123220032Y-80547288D01*
X123276868Y-80589835D01*
X123301679Y-80656355D01*
X123302000Y-80665344D01*
X123302000Y-81007885D01*
X123306475Y-81023124D01*
X123307865Y-81024329D01*
X123315548Y-81026000D01*
X124187885Y-81026000D01*
X124203124Y-81021525D01*
X124204329Y-81020135D01*
X124206000Y-81012452D01*
X124206000Y-81007885D01*
X124714000Y-81007885D01*
X124718475Y-81023124D01*
X124719865Y-81024329D01*
X124727548Y-81026000D01*
X125599884Y-81026000D01*
X125615123Y-81021525D01*
X125616328Y-81020135D01*
X125617999Y-81012452D01*
X125617999Y-80585331D01*
X125617629Y-80578510D01*
X125612105Y-80527648D01*
X125608479Y-80512396D01*
X125563324Y-80391946D01*
X125554786Y-80376351D01*
X125478285Y-80274276D01*
X125465724Y-80261715D01*
X125363649Y-80185214D01*
X125348054Y-80176676D01*
X125227606Y-80131522D01*
X125212351Y-80127895D01*
X125161486Y-80122369D01*
X125154672Y-80122000D01*
X124732115Y-80122000D01*
X124716876Y-80126475D01*
X124715671Y-80127865D01*
X124714000Y-80135548D01*
X124714000Y-81007885D01*
X124206000Y-81007885D01*
X124206000Y-80140116D01*
X124201525Y-80124877D01*
X124200135Y-80123672D01*
X124192452Y-80122001D01*
X123845343Y-80122001D01*
X123777222Y-80101999D01*
X123730729Y-80048343D01*
X123720625Y-79978069D01*
X123750119Y-79913489D01*
X123756248Y-79906906D01*
X124448532Y-79214623D01*
X126201573Y-77461582D01*
X126209677Y-77454155D01*
X126230305Y-77436846D01*
X126238750Y-77429760D01*
X126257723Y-77396898D01*
X126263626Y-77387633D01*
X126279071Y-77365574D01*
X126279072Y-77365572D01*
X126285394Y-77356543D01*
X126288246Y-77345899D01*
X126289760Y-77342653D01*
X126290986Y-77339285D01*
X126296497Y-77329739D01*
X126303087Y-77292367D01*
X126305466Y-77281635D01*
X126312434Y-77255631D01*
X126315287Y-77244984D01*
X126311980Y-77207189D01*
X126311500Y-77196206D01*
X126311500Y-65551794D01*
X126311980Y-65540811D01*
X126314326Y-65513999D01*
X126315287Y-65503016D01*
X126305464Y-65466356D01*
X126303087Y-65455633D01*
X126298411Y-65429117D01*
X126296497Y-65418261D01*
X126290986Y-65408715D01*
X126289760Y-65405347D01*
X126288246Y-65402101D01*
X126285394Y-65391457D01*
X126276667Y-65378993D01*
X126263626Y-65360367D01*
X126257721Y-65351099D01*
X126238750Y-65318240D01*
X126209677Y-65293845D01*
X126201573Y-65286418D01*
X119117587Y-58202433D01*
X119110160Y-58194329D01*
X119092846Y-58173695D01*
X119085760Y-58165250D01*
X119052895Y-58146275D01*
X119043630Y-58140374D01*
X119012543Y-58118606D01*
X119001899Y-58115754D01*
X118998653Y-58114240D01*
X118995285Y-58113014D01*
X118985739Y-58107503D01*
X118948368Y-58100913D01*
X118937644Y-58098536D01*
X118900984Y-58088713D01*
X118890000Y-58089674D01*
X118889999Y-58089674D01*
X118863189Y-58092020D01*
X118852206Y-58092500D01*
X116753794Y-58092500D01*
X116742811Y-58092020D01*
X116716001Y-58089674D01*
X116716000Y-58089674D01*
X116705016Y-58088713D01*
X116668356Y-58098536D01*
X116657632Y-58100913D01*
X116620261Y-58107503D01*
X116610715Y-58113014D01*
X116607347Y-58114240D01*
X116604101Y-58115754D01*
X116593457Y-58118606D01*
X116584430Y-58124927D01*
X116584426Y-58124929D01*
X116562367Y-58140374D01*
X116553102Y-58146277D01*
X116520240Y-58165250D01*
X116513154Y-58173695D01*
X116495845Y-58194323D01*
X116488418Y-58202427D01*
X115550628Y-59140218D01*
X114623427Y-60067419D01*
X114561115Y-60101444D01*
X114492068Y-60097024D01*
X114478666Y-60092252D01*
X114471680Y-60091419D01*
X114471676Y-60091418D01*
X114348558Y-60076738D01*
X114305462Y-60071599D01*
X114298459Y-60072335D01*
X114298458Y-60072335D01*
X114138987Y-60089096D01*
X114138985Y-60089097D01*
X114131987Y-60089832D01*
X113966862Y-60146045D01*
X113945266Y-60159331D01*
X113824301Y-60233749D01*
X113824298Y-60233751D01*
X113818294Y-60237445D01*
X113813259Y-60242376D01*
X113813256Y-60242378D01*
X113737013Y-60317041D01*
X113693668Y-60359488D01*
X113611975Y-60486250D01*
X113604995Y-60497082D01*
X113599177Y-60506109D01*
X113596768Y-60512729D01*
X113596766Y-60512732D01*
X113551513Y-60637064D01*
X113539518Y-60670020D01*
X113517656Y-60843076D01*
X113534678Y-61016674D01*
X113536902Y-61023359D01*
X113536902Y-61023360D01*
X113555055Y-61077931D01*
X113589737Y-61182188D01*
X113593384Y-61188210D01*
X113593385Y-61188212D01*
X113615904Y-61225394D01*
X113680097Y-61331390D01*
X113801267Y-61456865D01*
X113807163Y-61460724D01*
X113807164Y-61460724D01*
X113915493Y-61531613D01*
X113961542Y-61585651D01*
X113972500Y-61637045D01*
X113972500Y-67364500D01*
X113952498Y-67432621D01*
X113898842Y-67479114D01*
X113846500Y-67490500D01*
X107207796Y-67490500D01*
X107196814Y-67490021D01*
X107159015Y-67486714D01*
X107148369Y-67489567D01*
X107148366Y-67489567D01*
X107122370Y-67496533D01*
X107111637Y-67498913D01*
X107104267Y-67500213D01*
X107074261Y-67505503D01*
X107064712Y-67511016D01*
X107061353Y-67512238D01*
X107058106Y-67513752D01*
X107047457Y-67516606D01*
X107038429Y-67522928D01*
X107038428Y-67522928D01*
X107016372Y-67538372D01*
X107007102Y-67544277D01*
X106983788Y-67557737D01*
X106983786Y-67557739D01*
X106974240Y-67563250D01*
X106967154Y-67571695D01*
X106949845Y-67592323D01*
X106942418Y-67600427D01*
X102993864Y-71548982D01*
X102931553Y-71583007D01*
X102860738Y-71577942D01*
X102803902Y-71535395D01*
X102779249Y-71470868D01*
X102773528Y-71405480D01*
X102771625Y-71394688D01*
X102715236Y-71184239D01*
X102711490Y-71173947D01*
X102619414Y-70976489D01*
X102613931Y-70966993D01*
X102488972Y-70788533D01*
X102481916Y-70780125D01*
X102327875Y-70626084D01*
X102319467Y-70619028D01*
X102141007Y-70494069D01*
X102131511Y-70488586D01*
X101934053Y-70396510D01*
X101923761Y-70392764D01*
X101751497Y-70346606D01*
X101737401Y-70346942D01*
X101734000Y-70354884D01*
X101734000Y-71756000D01*
X101713998Y-71824121D01*
X101660342Y-71870614D01*
X101608000Y-71882000D01*
X100212033Y-71882000D01*
X100198502Y-71885973D01*
X100197273Y-71894522D01*
X100244764Y-72071761D01*
X100248510Y-72082053D01*
X100340586Y-72279511D01*
X100346069Y-72289007D01*
X100471028Y-72467467D01*
X100478084Y-72475875D01*
X100632125Y-72629916D01*
X100640533Y-72636972D01*
X100818993Y-72761931D01*
X100828489Y-72767414D01*
X101025947Y-72859490D01*
X101036239Y-72863236D01*
X101246688Y-72919625D01*
X101257480Y-72921528D01*
X101322868Y-72927249D01*
X101388986Y-72953113D01*
X101430625Y-73010616D01*
X101434566Y-73081503D01*
X101400981Y-73141865D01*
X97437251Y-77105595D01*
X97374939Y-77139621D01*
X97348156Y-77142500D01*
X94829500Y-77142500D01*
X94761379Y-77122498D01*
X94714886Y-77068842D01*
X94703500Y-77016500D01*
X94703500Y-76622442D01*
X94696102Y-76585252D01*
X94667922Y-76543078D01*
X94625748Y-76514898D01*
X94613578Y-76512477D01*
X94594623Y-76508706D01*
X94594618Y-76508706D01*
X94588558Y-76507500D01*
X94433500Y-76507500D01*
X94365379Y-76487498D01*
X94318886Y-76433842D01*
X94307500Y-76381500D01*
X94307500Y-72579289D01*
X94327502Y-72511168D01*
X94382251Y-72464182D01*
X94440275Y-72438348D01*
X94440277Y-72438347D01*
X94446305Y-72435663D01*
X94586234Y-72333999D01*
X94598698Y-72324943D01*
X94604037Y-72321064D01*
X94632902Y-72289007D01*
X94730078Y-72181082D01*
X94730079Y-72181081D01*
X94734497Y-72176174D01*
X94794780Y-72071761D01*
X94828677Y-72013049D01*
X94828678Y-72013048D01*
X94831981Y-72007326D01*
X94876401Y-71870614D01*
X94890189Y-71828179D01*
X94890189Y-71828178D01*
X94892229Y-71821900D01*
X94896651Y-71779833D01*
X94911919Y-71634565D01*
X94912609Y-71628000D01*
X94892229Y-71434100D01*
X94871597Y-71370599D01*
X94867017Y-71356503D01*
X100198606Y-71356503D01*
X100198942Y-71370599D01*
X100206884Y-71374000D01*
X101207885Y-71374000D01*
X101223124Y-71369525D01*
X101224329Y-71368135D01*
X101226000Y-71360452D01*
X101226000Y-70360033D01*
X101222027Y-70346502D01*
X101213478Y-70345273D01*
X101036239Y-70392764D01*
X101025947Y-70396510D01*
X100828489Y-70488586D01*
X100818993Y-70494069D01*
X100640533Y-70619028D01*
X100632125Y-70626084D01*
X100478084Y-70780125D01*
X100471028Y-70788533D01*
X100346069Y-70966993D01*
X100340586Y-70976489D01*
X100248510Y-71173947D01*
X100244764Y-71184239D01*
X100198606Y-71356503D01*
X94867017Y-71356503D01*
X94834023Y-71254959D01*
X94831981Y-71248674D01*
X94734497Y-71079826D01*
X94641452Y-70976489D01*
X94608452Y-70939839D01*
X94608450Y-70939838D01*
X94604037Y-70934936D01*
X94446305Y-70820337D01*
X94440277Y-70817653D01*
X94440275Y-70817652D01*
X94382251Y-70791818D01*
X94328155Y-70745837D01*
X94307500Y-70676711D01*
X94307500Y-68650062D01*
X100818493Y-68650062D01*
X100827789Y-68662077D01*
X100878994Y-68697931D01*
X100888489Y-68703414D01*
X101085947Y-68795490D01*
X101096239Y-68799236D01*
X101306688Y-68855625D01*
X101317481Y-68857528D01*
X101534525Y-68876517D01*
X101545475Y-68876517D01*
X101762519Y-68857528D01*
X101773312Y-68855625D01*
X101983761Y-68799236D01*
X101994053Y-68795490D01*
X102191511Y-68703414D01*
X102201006Y-68697931D01*
X102253048Y-68661491D01*
X102261424Y-68651012D01*
X102254356Y-68637566D01*
X101552812Y-67936022D01*
X101538868Y-67928408D01*
X101537035Y-67928539D01*
X101530420Y-67932790D01*
X100824923Y-68638287D01*
X100818493Y-68650062D01*
X94307500Y-68650062D01*
X94307500Y-68542002D01*
X94327502Y-68473881D01*
X94382250Y-68426896D01*
X94489298Y-68379235D01*
X94500275Y-68374348D01*
X94500277Y-68374347D01*
X94506305Y-68371663D01*
X94664037Y-68257064D01*
X94692903Y-68225006D01*
X94790078Y-68117082D01*
X94790079Y-68117081D01*
X94794497Y-68112174D01*
X94891981Y-67943326D01*
X94952229Y-67757900D01*
X94972034Y-67569475D01*
X100227483Y-67569475D01*
X100246472Y-67786519D01*
X100248375Y-67797312D01*
X100304764Y-68007761D01*
X100308510Y-68018053D01*
X100400586Y-68215511D01*
X100406069Y-68225006D01*
X100442509Y-68277048D01*
X100452988Y-68285424D01*
X100466434Y-68278356D01*
X101167978Y-67576812D01*
X101174356Y-67565132D01*
X101904408Y-67565132D01*
X101904539Y-67566965D01*
X101908790Y-67573580D01*
X102614287Y-68279077D01*
X102626062Y-68285507D01*
X102638077Y-68276211D01*
X102673931Y-68225006D01*
X102679414Y-68215511D01*
X102771490Y-68018053D01*
X102775236Y-68007761D01*
X102831625Y-67797312D01*
X102833528Y-67786519D01*
X102852517Y-67569475D01*
X102852517Y-67558525D01*
X102833528Y-67341481D01*
X102831625Y-67330688D01*
X102775236Y-67120239D01*
X102771490Y-67109947D01*
X102679414Y-66912489D01*
X102673931Y-66902994D01*
X102637491Y-66850952D01*
X102627012Y-66842576D01*
X102613566Y-66849644D01*
X101912022Y-67551188D01*
X101904408Y-67565132D01*
X101174356Y-67565132D01*
X101175592Y-67562868D01*
X101175461Y-67561035D01*
X101171210Y-67554420D01*
X100465713Y-66848923D01*
X100453938Y-66842493D01*
X100441923Y-66851789D01*
X100406069Y-66902994D01*
X100400586Y-66912489D01*
X100308510Y-67109947D01*
X100304764Y-67120239D01*
X100248375Y-67330688D01*
X100246472Y-67341481D01*
X100227483Y-67558525D01*
X100227483Y-67569475D01*
X94972034Y-67569475D01*
X94972609Y-67564000D01*
X94952229Y-67370100D01*
X94936295Y-67321058D01*
X94896828Y-67199592D01*
X94891981Y-67184674D01*
X94794497Y-67015826D01*
X94790078Y-67010918D01*
X94668452Y-66875839D01*
X94668450Y-66875838D01*
X94664037Y-66870936D01*
X94506305Y-66756337D01*
X94500277Y-66753653D01*
X94500275Y-66753652D01*
X94334223Y-66679721D01*
X94334222Y-66679721D01*
X94328192Y-66677036D01*
X94232838Y-66656768D01*
X94143941Y-66637872D01*
X94143937Y-66637872D01*
X94137484Y-66636500D01*
X93942516Y-66636500D01*
X93936063Y-66637872D01*
X93936059Y-66637872D01*
X93847162Y-66656768D01*
X93751808Y-66677036D01*
X93745779Y-66679720D01*
X93745777Y-66679721D01*
X93579726Y-66753652D01*
X93579724Y-66753653D01*
X93573696Y-66756337D01*
X93568355Y-66760217D01*
X93568354Y-66760218D01*
X93447996Y-66847663D01*
X93415963Y-66870936D01*
X93411550Y-66875838D01*
X93411548Y-66875839D01*
X93289922Y-67010918D01*
X93285503Y-67015826D01*
X93188019Y-67184674D01*
X93183172Y-67199592D01*
X93143706Y-67321058D01*
X93127771Y-67370100D01*
X93107391Y-67564000D01*
X93127771Y-67757900D01*
X93188019Y-67943326D01*
X93285503Y-68112174D01*
X93289921Y-68117081D01*
X93289922Y-68117082D01*
X93387098Y-68225006D01*
X93415963Y-68257064D01*
X93573695Y-68371663D01*
X93579725Y-68374348D01*
X93585448Y-68377652D01*
X93584534Y-68379235D01*
X93631845Y-68419449D01*
X93652500Y-68488575D01*
X93652500Y-70676712D01*
X93632498Y-70744833D01*
X93577748Y-70791819D01*
X93519729Y-70817650D01*
X93519722Y-70817654D01*
X93513696Y-70820337D01*
X93355963Y-70934936D01*
X93351550Y-70939838D01*
X93351548Y-70939839D01*
X93318548Y-70976489D01*
X93225503Y-71079826D01*
X93128019Y-71248674D01*
X93125977Y-71254959D01*
X93088404Y-71370599D01*
X93067771Y-71434100D01*
X93047391Y-71628000D01*
X93048081Y-71634565D01*
X93063350Y-71779833D01*
X93067771Y-71821900D01*
X93069811Y-71828178D01*
X93069811Y-71828179D01*
X93083599Y-71870614D01*
X93128019Y-72007326D01*
X93131322Y-72013048D01*
X93131323Y-72013049D01*
X93165220Y-72071761D01*
X93225503Y-72176174D01*
X93229921Y-72181081D01*
X93229922Y-72181082D01*
X93327099Y-72289007D01*
X93355963Y-72321064D01*
X93361302Y-72324943D01*
X93373767Y-72333999D01*
X93513695Y-72435663D01*
X93519723Y-72438347D01*
X93519725Y-72438348D01*
X93577749Y-72464182D01*
X93631845Y-72510163D01*
X93652500Y-72579289D01*
X93652500Y-76381500D01*
X93632498Y-76449621D01*
X93578842Y-76496114D01*
X93526500Y-76507500D01*
X92863442Y-76507500D01*
X92857382Y-76508706D01*
X92857377Y-76508706D01*
X92838422Y-76512477D01*
X92826252Y-76514898D01*
X92784078Y-76543078D01*
X92755898Y-76585252D01*
X92748500Y-76622442D01*
X92748500Y-78347558D01*
X90180500Y-78347558D01*
X90180500Y-66476988D01*
X100818576Y-66476988D01*
X100825644Y-66490434D01*
X101527188Y-67191978D01*
X101541132Y-67199592D01*
X101542965Y-67199461D01*
X101549580Y-67195210D01*
X102255077Y-66489713D01*
X102261507Y-66477938D01*
X102252211Y-66465923D01*
X102201006Y-66430069D01*
X102191511Y-66424586D01*
X101994053Y-66332510D01*
X101983761Y-66328764D01*
X101773312Y-66272375D01*
X101762519Y-66270472D01*
X101545475Y-66251483D01*
X101534525Y-66251483D01*
X101317481Y-66270472D01*
X101306688Y-66272375D01*
X101096239Y-66328764D01*
X101085947Y-66332510D01*
X100888489Y-66424586D01*
X100878994Y-66430069D01*
X100826952Y-66466509D01*
X100818576Y-66476988D01*
X90180500Y-66476988D01*
X90180500Y-64332062D01*
X100878493Y-64332062D01*
X100887789Y-64344077D01*
X100938994Y-64379931D01*
X100948489Y-64385414D01*
X101145947Y-64477490D01*
X101156239Y-64481236D01*
X101366688Y-64537625D01*
X101377481Y-64539528D01*
X101594525Y-64558517D01*
X101605475Y-64558517D01*
X101822519Y-64539528D01*
X101833312Y-64537625D01*
X102043761Y-64481236D01*
X102054053Y-64477490D01*
X102251511Y-64385414D01*
X102261006Y-64379931D01*
X102313048Y-64343491D01*
X102321424Y-64333012D01*
X102314356Y-64319566D01*
X101612812Y-63618022D01*
X101598868Y-63610408D01*
X101597035Y-63610539D01*
X101590420Y-63614790D01*
X100884923Y-64320287D01*
X100878493Y-64332062D01*
X90180500Y-64332062D01*
X90180500Y-63251475D01*
X100287483Y-63251475D01*
X100306472Y-63468519D01*
X100308375Y-63479312D01*
X100364764Y-63689761D01*
X100368510Y-63700053D01*
X100460586Y-63897511D01*
X100466069Y-63907006D01*
X100502509Y-63959048D01*
X100512988Y-63967424D01*
X100526434Y-63960356D01*
X101227978Y-63258812D01*
X101234356Y-63247132D01*
X101964408Y-63247132D01*
X101964539Y-63248965D01*
X101968790Y-63255580D01*
X102674287Y-63961077D01*
X102686062Y-63967507D01*
X102698077Y-63958211D01*
X102733931Y-63907006D01*
X102739414Y-63897511D01*
X102831490Y-63700053D01*
X102835236Y-63689761D01*
X102891625Y-63479312D01*
X102893528Y-63468519D01*
X102912517Y-63251475D01*
X102912517Y-63246000D01*
X110827391Y-63246000D01*
X110847771Y-63439900D01*
X110908019Y-63625326D01*
X111005503Y-63794174D01*
X111009921Y-63799081D01*
X111009922Y-63799082D01*
X111107098Y-63907006D01*
X111135963Y-63939064D01*
X111293695Y-64053663D01*
X111299723Y-64056347D01*
X111299725Y-64056348D01*
X111465777Y-64130279D01*
X111471808Y-64132964D01*
X111567162Y-64153232D01*
X111656059Y-64172128D01*
X111656063Y-64172128D01*
X111662516Y-64173500D01*
X111857484Y-64173500D01*
X111863937Y-64172128D01*
X111863941Y-64172128D01*
X111952838Y-64153232D01*
X112048192Y-64132964D01*
X112054223Y-64130279D01*
X112220275Y-64056348D01*
X112220277Y-64056347D01*
X112226305Y-64053663D01*
X112384037Y-63939064D01*
X112412903Y-63907006D01*
X112510078Y-63799082D01*
X112510079Y-63799081D01*
X112514497Y-63794174D01*
X112611981Y-63625326D01*
X112672229Y-63439900D01*
X112692609Y-63246000D01*
X112672229Y-63052100D01*
X112611981Y-62866674D01*
X112514497Y-62697826D01*
X112432225Y-62606454D01*
X112388452Y-62557839D01*
X112388450Y-62557838D01*
X112384037Y-62552936D01*
X112344889Y-62524493D01*
X112231647Y-62442218D01*
X112231646Y-62442217D01*
X112226305Y-62438337D01*
X112220277Y-62435653D01*
X112220275Y-62435652D01*
X112054223Y-62361721D01*
X112054222Y-62361721D01*
X112048192Y-62359036D01*
X111952838Y-62338768D01*
X111863941Y-62319872D01*
X111863937Y-62319872D01*
X111857484Y-62318500D01*
X111662516Y-62318500D01*
X111656063Y-62319872D01*
X111656059Y-62319872D01*
X111567162Y-62338768D01*
X111471808Y-62359036D01*
X111465779Y-62361720D01*
X111465777Y-62361721D01*
X111299726Y-62435652D01*
X111299724Y-62435653D01*
X111293696Y-62438337D01*
X111288355Y-62442217D01*
X111288354Y-62442218D01*
X111271134Y-62454729D01*
X111135963Y-62552936D01*
X111131550Y-62557838D01*
X111131548Y-62557839D01*
X111087775Y-62606454D01*
X111005503Y-62697826D01*
X110908019Y-62866674D01*
X110847771Y-63052100D01*
X110827391Y-63246000D01*
X102912517Y-63246000D01*
X102912517Y-63240525D01*
X102893528Y-63023481D01*
X102891625Y-63012688D01*
X102835236Y-62802239D01*
X102831490Y-62791947D01*
X102739414Y-62594489D01*
X102733931Y-62584994D01*
X102697491Y-62532952D01*
X102687012Y-62524576D01*
X102673566Y-62531644D01*
X101972022Y-63233188D01*
X101964408Y-63247132D01*
X101234356Y-63247132D01*
X101235592Y-63244868D01*
X101235461Y-63243035D01*
X101231210Y-63236420D01*
X100525713Y-62530923D01*
X100513938Y-62524493D01*
X100501923Y-62533789D01*
X100466069Y-62584994D01*
X100460586Y-62594489D01*
X100368510Y-62791947D01*
X100364764Y-62802239D01*
X100308375Y-63012688D01*
X100306472Y-63023481D01*
X100287483Y-63240525D01*
X100287483Y-63251475D01*
X90180500Y-63251475D01*
X90180500Y-62158988D01*
X100878576Y-62158988D01*
X100885644Y-62172434D01*
X101587188Y-62873978D01*
X101601132Y-62881592D01*
X101602965Y-62881461D01*
X101609580Y-62877210D01*
X102315077Y-62171713D01*
X102321507Y-62159938D01*
X102312211Y-62147923D01*
X102261006Y-62112069D01*
X102251511Y-62106586D01*
X102054053Y-62014510D01*
X102043761Y-62010764D01*
X101833312Y-61954375D01*
X101822519Y-61952472D01*
X101605475Y-61933483D01*
X101594525Y-61933483D01*
X101377481Y-61952472D01*
X101366688Y-61954375D01*
X101156239Y-62010764D01*
X101145947Y-62014510D01*
X100948489Y-62106586D01*
X100938994Y-62112069D01*
X100886952Y-62148509D01*
X100878576Y-62158988D01*
X90180500Y-62158988D01*
X90180500Y-60210522D01*
X91173273Y-60210522D01*
X91220764Y-60387761D01*
X91224510Y-60398053D01*
X91316586Y-60595511D01*
X91322069Y-60605007D01*
X91447028Y-60783467D01*
X91454084Y-60791875D01*
X91608125Y-60945916D01*
X91616533Y-60952972D01*
X91794993Y-61077931D01*
X91804489Y-61083414D01*
X92001947Y-61175490D01*
X92012239Y-61179236D01*
X92184503Y-61225394D01*
X92198599Y-61225058D01*
X92202000Y-61217116D01*
X92202000Y-61211967D01*
X92710000Y-61211967D01*
X92713973Y-61225498D01*
X92722522Y-61226727D01*
X92899761Y-61179236D01*
X92910053Y-61175490D01*
X93107511Y-61083414D01*
X93117007Y-61077931D01*
X93295467Y-60952972D01*
X93303875Y-60945916D01*
X93457916Y-60791875D01*
X93464972Y-60783467D01*
X93589931Y-60605007D01*
X93595414Y-60595511D01*
X93687490Y-60398053D01*
X93691236Y-60387761D01*
X93737394Y-60215497D01*
X93737058Y-60201401D01*
X93729116Y-60198000D01*
X92728115Y-60198000D01*
X92712876Y-60202475D01*
X92711671Y-60203865D01*
X92710000Y-60211548D01*
X92710000Y-61211967D01*
X92202000Y-61211967D01*
X92202000Y-60216115D01*
X92197525Y-60200876D01*
X92196135Y-60199671D01*
X92188452Y-60198000D01*
X91188033Y-60198000D01*
X91174502Y-60201973D01*
X91173273Y-60210522D01*
X90180500Y-60210522D01*
X90180500Y-59944000D01*
X101683391Y-59944000D01*
X101703771Y-60137900D01*
X101705811Y-60144178D01*
X101705811Y-60144179D01*
X101724589Y-60201973D01*
X101764019Y-60323326D01*
X101861503Y-60492174D01*
X101865921Y-60497081D01*
X101865922Y-60497082D01*
X101963099Y-60605007D01*
X101991963Y-60637064D01*
X101997302Y-60640943D01*
X102061596Y-60687655D01*
X102149695Y-60751663D01*
X102155723Y-60754347D01*
X102155725Y-60754348D01*
X102321777Y-60828279D01*
X102327808Y-60830964D01*
X102417658Y-60850062D01*
X102512059Y-60870128D01*
X102512063Y-60870128D01*
X102518516Y-60871500D01*
X102713484Y-60871500D01*
X102719937Y-60870128D01*
X102719941Y-60870128D01*
X102814342Y-60850062D01*
X102904192Y-60830964D01*
X102910223Y-60828279D01*
X103076275Y-60754348D01*
X103076277Y-60754347D01*
X103082305Y-60751663D01*
X103170405Y-60687655D01*
X103234698Y-60640943D01*
X103240037Y-60637064D01*
X103268902Y-60605007D01*
X103366078Y-60497082D01*
X103366079Y-60497081D01*
X103370497Y-60492174D01*
X103467981Y-60323326D01*
X103507411Y-60201973D01*
X103526189Y-60144179D01*
X103526189Y-60144178D01*
X103528229Y-60137900D01*
X103548609Y-59944000D01*
X103528229Y-59750100D01*
X103507597Y-59686599D01*
X103470023Y-59570959D01*
X103467981Y-59564674D01*
X103423419Y-59487489D01*
X103373800Y-59401547D01*
X103370497Y-59395826D01*
X103277452Y-59292489D01*
X103244452Y-59255839D01*
X103244450Y-59255838D01*
X103240037Y-59250936D01*
X103082305Y-59136337D01*
X103076277Y-59133653D01*
X103076275Y-59133652D01*
X102910223Y-59059721D01*
X102910222Y-59059721D01*
X102904192Y-59057036D01*
X102808838Y-59036768D01*
X102719941Y-59017872D01*
X102719937Y-59017872D01*
X102713484Y-59016500D01*
X102518516Y-59016500D01*
X102512063Y-59017872D01*
X102512059Y-59017872D01*
X102423162Y-59036768D01*
X102327808Y-59057036D01*
X102321779Y-59059720D01*
X102321777Y-59059721D01*
X102155726Y-59133652D01*
X102155724Y-59133653D01*
X102149696Y-59136337D01*
X101991963Y-59250936D01*
X101987550Y-59255838D01*
X101987548Y-59255839D01*
X101954548Y-59292489D01*
X101861503Y-59395826D01*
X101858200Y-59401547D01*
X101808582Y-59487489D01*
X101764019Y-59564674D01*
X101761977Y-59570959D01*
X101724404Y-59686599D01*
X101703771Y-59750100D01*
X101683391Y-59944000D01*
X90180500Y-59944000D01*
X90180500Y-59672503D01*
X91174606Y-59672503D01*
X91174942Y-59686599D01*
X91182884Y-59690000D01*
X92183885Y-59690000D01*
X92199124Y-59685525D01*
X92200329Y-59684135D01*
X92202000Y-59676452D01*
X92202000Y-59671885D01*
X92710000Y-59671885D01*
X92714475Y-59687124D01*
X92715865Y-59688329D01*
X92723548Y-59690000D01*
X93723967Y-59690000D01*
X93737498Y-59686027D01*
X93738727Y-59677478D01*
X93691236Y-59500239D01*
X93687490Y-59489947D01*
X93595414Y-59292489D01*
X93589931Y-59282993D01*
X93464972Y-59104533D01*
X93457916Y-59096125D01*
X93303875Y-58942084D01*
X93295467Y-58935028D01*
X93117007Y-58810069D01*
X93107511Y-58804586D01*
X92910053Y-58712510D01*
X92899761Y-58708764D01*
X92727497Y-58662606D01*
X92713401Y-58662942D01*
X92710000Y-58670884D01*
X92710000Y-59671885D01*
X92202000Y-59671885D01*
X92202000Y-58676033D01*
X92198027Y-58662502D01*
X92189478Y-58661273D01*
X92012239Y-58708764D01*
X92001947Y-58712510D01*
X91804489Y-58804586D01*
X91794993Y-58810069D01*
X91616533Y-58935028D01*
X91608125Y-58942084D01*
X91454084Y-59096125D01*
X91447028Y-59104533D01*
X91322069Y-59282993D01*
X91316586Y-59292489D01*
X91224510Y-59489947D01*
X91220764Y-59500239D01*
X91174606Y-59672503D01*
X90180500Y-59672503D01*
X90180500Y-56016500D01*
X90200502Y-55948379D01*
X90254158Y-55901886D01*
X90306500Y-55890500D01*
X129403500Y-55890500D01*
X129471621Y-55910502D01*
G37*
G04 #@! TD.AperFunction*
M02*
