%TF.GenerationSoftware,KiCad,Pcbnew,(6.0.9)*%
%TF.CreationDate,2023-01-12T19:47:36+01:00*%
%TF.ProjectId,vogelhuisje_camera_board,766f6765-6c68-4756-9973-6a655f63616d,rev?*%
%TF.SameCoordinates,Original*%
%TF.FileFunction,Drillmap*%
%TF.FilePolarity,Positive*%
%FSLAX45Y45*%
G04 Gerber Fmt 4.5, Leading zero omitted, Abs format (unit mm)*
G04 Created by KiCad (PCBNEW (6.0.9)) date 2023-01-12 19:47:36*
%MOMM*%
%LPD*%
G01*
G04 APERTURE LIST*
%ADD10C,0.254000*%
%ADD11C,0.200000*%
G04 APERTURE END LIST*
D10*
X9017000Y-5588000D02*
X12954000Y-5588000D01*
X12954000Y-5588000D02*
X12954000Y-15113000D01*
X12954000Y-15113000D02*
X9017000Y-15113000D01*
X9017000Y-15113000D02*
X9017000Y-5588000D01*
D11*
X9261919Y-15436176D02*
X9261919Y-15236176D01*
X9309538Y-15236176D01*
X9338110Y-15245700D01*
X9357157Y-15264748D01*
X9366681Y-15283795D01*
X9376205Y-15321890D01*
X9376205Y-15350462D01*
X9366681Y-15388557D01*
X9357157Y-15407605D01*
X9338110Y-15426652D01*
X9309538Y-15436176D01*
X9261919Y-15436176D01*
X9461919Y-15436176D02*
X9461919Y-15302843D01*
X9461919Y-15340938D02*
X9471443Y-15321890D01*
X9480967Y-15312367D01*
X9500014Y-15302843D01*
X9519062Y-15302843D01*
X9585729Y-15436176D02*
X9585729Y-15302843D01*
X9585729Y-15236176D02*
X9576205Y-15245700D01*
X9585729Y-15255224D01*
X9595252Y-15245700D01*
X9585729Y-15236176D01*
X9585729Y-15255224D01*
X9709538Y-15436176D02*
X9690490Y-15426652D01*
X9680967Y-15407605D01*
X9680967Y-15236176D01*
X9814300Y-15436176D02*
X9795252Y-15426652D01*
X9785729Y-15407605D01*
X9785729Y-15236176D01*
X10042871Y-15436176D02*
X10042871Y-15236176D01*
X10109538Y-15379033D01*
X10176205Y-15236176D01*
X10176205Y-15436176D01*
X10357157Y-15436176D02*
X10357157Y-15331414D01*
X10347633Y-15312367D01*
X10328586Y-15302843D01*
X10290490Y-15302843D01*
X10271443Y-15312367D01*
X10357157Y-15426652D02*
X10338110Y-15436176D01*
X10290490Y-15436176D01*
X10271443Y-15426652D01*
X10261919Y-15407605D01*
X10261919Y-15388557D01*
X10271443Y-15369509D01*
X10290490Y-15359986D01*
X10338110Y-15359986D01*
X10357157Y-15350462D01*
X10452395Y-15302843D02*
X10452395Y-15502843D01*
X10452395Y-15312367D02*
X10471443Y-15302843D01*
X10509538Y-15302843D01*
X10528586Y-15312367D01*
X10538110Y-15321890D01*
X10547633Y-15340938D01*
X10547633Y-15398081D01*
X10538110Y-15417128D01*
X10528586Y-15426652D01*
X10509538Y-15436176D01*
X10471443Y-15436176D01*
X10452395Y-15426652D01*
X10633348Y-15417128D02*
X10642871Y-15426652D01*
X10633348Y-15436176D01*
X10623824Y-15426652D01*
X10633348Y-15417128D01*
X10633348Y-15436176D01*
X10633348Y-15312367D02*
X10642871Y-15321890D01*
X10633348Y-15331414D01*
X10623824Y-15321890D01*
X10633348Y-15312367D01*
X10633348Y-15331414D01*
M02*
