G04 #@! TF.GenerationSoftware,KiCad,Pcbnew,(6.0.9)*
G04 #@! TF.CreationDate,2023-01-12T19:47:39+01:00*
G04 #@! TF.ProjectId,vogelhuisje_camera_board,766f6765-6c68-4756-9973-6a655f63616d,rev?*
G04 #@! TF.SameCoordinates,Original*
G04 #@! TF.FileFunction,Soldermask,Bot*
G04 #@! TF.FilePolarity,Negative*
%FSLAX46Y46*%
G04 Gerber Fmt 4.6, Leading zero omitted, Abs format (unit mm)*
G04 Created by KiCad (PCBNEW (6.0.9)) date 2023-01-12 19:47:39*
%MOMM*%
%LPD*%
G01*
G04 APERTURE LIST*
%ADD10C,1.600000*%
%ADD11O,1.600000X1.600000*%
%ADD12R,1.500000X1.050000*%
%ADD13O,1.500000X1.050000*%
%ADD14R,1.700000X1.700000*%
%ADD15O,1.700000X1.700000*%
%ADD16R,1.300000X1.300000*%
%ADD17C,1.300000*%
G04 APERTURE END LIST*
D10*
X119634000Y-91948000D03*
D11*
X119634000Y-102108000D03*
D10*
X102616000Y-59944000D03*
D11*
X92456000Y-59944000D03*
D12*
X100642000Y-143326000D03*
D13*
X100642000Y-144596000D03*
X100642000Y-145866000D03*
D10*
X119694000Y-87884000D03*
D11*
X127194000Y-87884000D03*
D14*
X101600000Y-130810000D03*
D15*
X101600000Y-128270000D03*
X101600000Y-125730000D03*
X101600000Y-123190000D03*
X101600000Y-120650000D03*
X101600000Y-118110000D03*
X101600000Y-115570000D03*
X101600000Y-113030000D03*
X101600000Y-110490000D03*
X101600000Y-107950000D03*
X101600000Y-105410000D03*
X101600000Y-102870000D03*
X101600000Y-100330000D03*
X101600000Y-97790000D03*
X101600000Y-95250000D03*
X101600000Y-92710000D03*
X101600000Y-90170000D03*
X101600000Y-87630000D03*
X101600000Y-85090000D03*
X101600000Y-82550000D03*
X101600000Y-80010000D03*
D16*
X116840000Y-60854000D03*
D17*
X115570000Y-62124000D03*
X114300000Y-60854000D03*
D10*
X101540000Y-67564000D03*
D11*
X94040000Y-67564000D03*
D10*
X93980000Y-71628000D03*
D11*
X101480000Y-71628000D03*
D10*
X93726000Y-128778000D03*
D11*
X93726000Y-138938000D03*
D10*
X101600000Y-63246000D03*
D11*
X111760000Y-63246000D03*
D10*
X97536000Y-91380000D03*
D11*
X97536000Y-83880000D03*
D10*
X98044000Y-128778000D03*
D11*
X98044000Y-138938000D03*
D14*
X93726000Y-77485000D03*
D15*
X93726000Y-80025000D03*
X93726000Y-82565000D03*
D10*
X115570000Y-66040000D03*
D11*
X123070000Y-66040000D03*
D16*
X124460000Y-81280000D03*
D17*
X123190000Y-82550000D03*
X121920000Y-81280000D03*
M02*
