M48
; DRILL file {KiCad (6.0.11)} date vr 17 feb 2023 15:41:13 CET
; FORMAT={-:-/ absolute / metric / decimal}
; #@! TF.CreationDate,2023-02-17T15:41:13+01:00
; #@! TF.GenerationSoftware,Kicad,Pcbnew,(6.0.11)
; #@! TF.FileFunction,Plated,1,2,PTH
FMAT,2
METRIC
; #@! TA.AperFunction,Plated,PTH,ViaDrill
T1C0.300
; #@! TA.AperFunction,Plated,PTH,ComponentDrill
T2C0.750
; #@! TA.AperFunction,Plated,PTH,ComponentDrill
T3C0.800
; #@! TA.AperFunction,Plated,PTH,ComponentDrill
T4C1.000
%
G90
G05
T1
X112.0Y-101.0
X113.0Y-97.5
X113.25Y-75.94
X113.45Y-95.92
X114.24Y-93.13
X115.29Y-88.85
X115.39Y-90.81
X116.078Y-81.788
X116.13Y-84.81
X116.84Y-81.24
X117.094Y-69.342
X117.55Y-74.88
X117.92Y-80.55
X118.77Y-76.35
X119.0Y-82.6
X119.79Y-72.51
X120.07Y-73.99
T2
X100.642Y-143.326
X100.642Y-144.596
X100.642Y-145.866
X114.3Y-60.854
X115.57Y-62.124
X116.84Y-60.854
X121.92Y-81.28
X123.19Y-82.55
X124.46Y-81.28
T3
X92.456Y-59.944
X93.726Y-128.778
X93.726Y-138.938
X93.98Y-71.628
X94.04Y-67.564
X97.536Y-83.88
X97.536Y-91.38
X98.044Y-128.778
X98.044Y-138.938
X101.48Y-71.628
X101.54Y-67.564
X101.6Y-63.246
X102.616Y-59.944
X111.76Y-63.246
X115.57Y-66.04
X119.634Y-91.948
X119.634Y-102.108
X119.694Y-87.884
X123.07Y-66.04
X127.194Y-87.884
T4
X93.726Y-77.485
X93.726Y-80.025
X93.726Y-82.565
X101.6Y-80.01
X101.6Y-82.55
X101.6Y-85.09
X101.6Y-87.63
X101.6Y-90.17
X101.6Y-92.71
X101.6Y-95.25
X101.6Y-97.79
X101.6Y-100.33
X101.6Y-102.87
X101.6Y-105.41
X101.6Y-107.95
X101.6Y-110.49
X101.6Y-113.03
X101.6Y-115.57
X101.6Y-118.11
X101.6Y-120.65
X101.6Y-123.19
X101.6Y-125.73
X101.6Y-128.27
X101.6Y-130.81
T0
M30
