%TF.GenerationSoftware,KiCad,Pcbnew,(6.0.9)*%
%TF.CreationDate,2023-01-12T19:49:18+01:00*%
%TF.ProjectId,vogelhuisje_kicad,766f6765-6c68-4756-9973-6a655f6b6963,rev?*%
%TF.SameCoordinates,Original*%
%TF.FileFunction,Drillmap*%
%TF.FilePolarity,Positive*%
%FSLAX45Y45*%
G04 Gerber Fmt 4.5, Leading zero omitted, Abs format (unit mm)*
G04 Created by KiCad (PCBNEW (6.0.9)) date 2023-01-12 19:49:18*
%MOMM*%
%LPD*%
G01*
G04 APERTURE LIST*
%ADD10C,0.254000*%
%ADD11C,0.200000*%
%ADD12C,0.030000*%
%ADD13C,0.040000*%
%ADD14C,0.075000*%
%ADD15C,0.076200*%
%ADD16C,0.080000*%
%ADD17C,0.100000*%
%ADD18C,0.110000*%
%ADD19C,0.140000*%
G04 APERTURE END LIST*
D10*
X6604000Y-4318000D02*
X15748000Y-4318000D01*
X15748000Y-4318000D02*
X15748000Y-18034000D01*
X15748000Y-18034000D02*
X6604000Y-18034000D01*
X6604000Y-18034000D02*
X6604000Y-4318000D01*
D11*
D12*
X8685000Y-8585000D02*
X8715000Y-8615000D01*
X8715000Y-8585000D02*
X8685000Y-8615000D01*
X10907000Y-5573000D02*
X10937000Y-5603000D01*
X10937000Y-5573000D02*
X10907000Y-5603000D01*
X10985000Y-13285000D02*
X11015000Y-13315000D01*
X11015000Y-13285000D02*
X10985000Y-13315000D01*
X11285000Y-13585000D02*
X11315000Y-13615000D01*
X11315000Y-13585000D02*
X11285000Y-13615000D01*
X11985000Y-15385000D02*
X12015000Y-15415000D01*
X12015000Y-15385000D02*
X11985000Y-15415000D01*
X12177000Y-15225000D02*
X12207000Y-15255000D01*
X12207000Y-15225000D02*
X12177000Y-15255000D01*
X12185000Y-15385000D02*
X12215000Y-15415000D01*
X12215000Y-15385000D02*
X12185000Y-15415000D01*
X12785000Y-11705000D02*
X12815000Y-11735000D01*
X12815000Y-11705000D02*
X12785000Y-11735000D01*
X12945000Y-12145000D02*
X12975000Y-12175000D01*
X12975000Y-12145000D02*
X12945000Y-12175000D01*
X13485000Y-14485000D02*
X13515000Y-14515000D01*
X13515000Y-14485000D02*
X13485000Y-14515000D01*
X13558000Y-14399000D02*
X13588000Y-14429000D01*
X13588000Y-14399000D02*
X13558000Y-14429000D01*
X13585000Y-14285000D02*
X13615000Y-14315000D01*
X13615000Y-14285000D02*
X13585000Y-14315000D01*
X13695000Y-12135000D02*
X13725000Y-12165000D01*
X13725000Y-12135000D02*
X13695000Y-12165000D01*
X13985000Y-12495000D02*
X14015000Y-12525000D01*
X14015000Y-12495000D02*
X13985000Y-12525000D01*
X14095000Y-14135000D02*
X14125000Y-14165000D01*
X14125000Y-14135000D02*
X14095000Y-14165000D01*
X14145000Y-12625000D02*
X14175000Y-12655000D01*
X14175000Y-12625000D02*
X14145000Y-12655000D01*
X14165000Y-11805000D02*
X14195000Y-11835000D01*
X14195000Y-11805000D02*
X14165000Y-11835000D01*
X14275000Y-11795000D02*
X14305000Y-11825000D01*
X14305000Y-11795000D02*
X14275000Y-11825000D01*
X14285000Y-12485000D02*
X14315000Y-12515000D01*
X14315000Y-12485000D02*
X14285000Y-12515000D01*
X14425000Y-12095000D02*
X14455000Y-12125000D01*
X14455000Y-12095000D02*
X14425000Y-12125000D01*
X14463000Y-5827000D02*
X14493000Y-5857000D01*
X14493000Y-5827000D02*
X14463000Y-5857000D01*
X14463000Y-9383000D02*
X14493000Y-9413000D01*
X14493000Y-9383000D02*
X14463000Y-9413000D01*
X14685000Y-14185000D02*
X14715000Y-14215000D01*
X14715000Y-14185000D02*
X14685000Y-14215000D01*
X14775000Y-13085000D02*
X14805000Y-13115000D01*
X14805000Y-13085000D02*
X14775000Y-13115000D01*
D13*
X8275000Y-8763000D02*
G75*
G03*
X8275000Y-8763000I-20000J0D01*
G01*
X8320000Y-16500000D02*
G75*
G03*
X8320000Y-16500000I-20000J0D01*
G01*
X9926000Y-7874000D02*
G75*
G03*
X9926000Y-7874000I-20000J0D01*
G01*
D14*
X13970000Y-7582500D02*
X13970000Y-7657500D01*
X13932500Y-7620000D02*
X14007500Y-7620000D01*
X13970000Y-7782500D02*
X13970000Y-7857500D01*
X13932500Y-7820000D02*
X14007500Y-7820000D01*
X13970000Y-8598500D02*
X13970000Y-8673500D01*
X13932500Y-8636000D02*
X14007500Y-8636000D01*
X13970000Y-8798500D02*
X13970000Y-8873500D01*
X13932500Y-8836000D02*
X14007500Y-8836000D01*
X13970000Y-9614500D02*
X13970000Y-9689500D01*
X13932500Y-9652000D02*
X14007500Y-9652000D01*
X13970000Y-9814500D02*
X13970000Y-9889500D01*
X13932500Y-9852000D02*
X14007500Y-9852000D01*
D15*
X7978941Y-14104941D02*
X7978941Y-14051059D01*
X7925059Y-14051059D01*
X7925059Y-14104941D01*
X7978941Y-14104941D01*
X8232941Y-14104941D02*
X8232941Y-14051059D01*
X8179059Y-14051059D01*
X8179059Y-14104941D01*
X8232941Y-14104941D01*
X8486941Y-14104941D02*
X8486941Y-14051059D01*
X8433059Y-14051059D01*
X8433059Y-14104941D01*
X8486941Y-14104941D01*
X8740941Y-14104941D02*
X8740941Y-14051059D01*
X8687059Y-14051059D01*
X8687059Y-14104941D01*
X8740941Y-14104941D01*
X10390941Y-11310941D02*
X10390941Y-11257059D01*
X10337059Y-11257059D01*
X10337059Y-11310941D01*
X10390941Y-11310941D01*
X10390941Y-14104941D02*
X10390941Y-14051059D01*
X10337059Y-14051059D01*
X10337059Y-14104941D01*
X10390941Y-14104941D01*
X10644941Y-11310941D02*
X10644941Y-11257059D01*
X10591059Y-11257059D01*
X10591059Y-11310941D01*
X10644941Y-11310941D01*
X10644941Y-14104941D02*
X10644941Y-14051059D01*
X10591059Y-14051059D01*
X10591059Y-14104941D01*
X10644941Y-14104941D01*
X10898941Y-11310941D02*
X10898941Y-11257059D01*
X10845059Y-11257059D01*
X10845059Y-11310941D01*
X10898941Y-11310941D01*
X10898941Y-14104941D02*
X10898941Y-14051059D01*
X10845059Y-14051059D01*
X10845059Y-14104941D01*
X10898941Y-14104941D01*
X11152941Y-11310941D02*
X11152941Y-11257059D01*
X11099059Y-11257059D01*
X11099059Y-11310941D01*
X11152941Y-11310941D01*
X11152941Y-14104941D02*
X11152941Y-14051059D01*
X11099059Y-14051059D01*
X11099059Y-14104941D01*
X11152941Y-14104941D01*
X11218941Y-8915441D02*
X11218941Y-8861559D01*
X11165059Y-8861559D01*
X11165059Y-8915441D01*
X11218941Y-8915441D01*
X11218941Y-9935441D02*
X11218941Y-9881559D01*
X11165059Y-9881559D01*
X11165059Y-9935441D01*
X11218941Y-9935441D01*
X11406941Y-11310941D02*
X11406941Y-11257059D01*
X11353059Y-11257059D01*
X11353059Y-11310941D01*
X11406941Y-11310941D01*
X11406941Y-14104941D02*
X11406941Y-14051059D01*
X11353059Y-14051059D01*
X11353059Y-14104941D01*
X11406941Y-14104941D01*
X11660941Y-11310941D02*
X11660941Y-11257059D01*
X11607059Y-11257059D01*
X11607059Y-11310941D01*
X11660941Y-11310941D01*
X11660941Y-14104941D02*
X11660941Y-14051059D01*
X11607059Y-14051059D01*
X11607059Y-14104941D01*
X11660941Y-14104941D01*
X11914941Y-11310941D02*
X11914941Y-11257059D01*
X11861059Y-11257059D01*
X11861059Y-11310941D01*
X11914941Y-11310941D01*
X11914941Y-14104941D02*
X11914941Y-14051059D01*
X11861059Y-14051059D01*
X11861059Y-14104941D01*
X11914941Y-14104941D01*
X12168941Y-11310941D02*
X12168941Y-11257059D01*
X12115059Y-11257059D01*
X12115059Y-11310941D01*
X12168941Y-11310941D01*
X12168941Y-14104941D02*
X12168941Y-14051059D01*
X12115059Y-14051059D01*
X12115059Y-14104941D01*
X12168941Y-14104941D01*
X12422941Y-11310941D02*
X12422941Y-11257059D01*
X12369059Y-11257059D01*
X12369059Y-11310941D01*
X12422941Y-11310941D01*
X12422941Y-14104941D02*
X12422941Y-14051059D01*
X12369059Y-14051059D01*
X12369059Y-14104941D01*
X12422941Y-14104941D01*
X12676941Y-11310941D02*
X12676941Y-11257059D01*
X12623059Y-11257059D01*
X12623059Y-11310941D01*
X12676941Y-11310941D01*
X12676941Y-14104941D02*
X12676941Y-14051059D01*
X12623059Y-14051059D01*
X12623059Y-14104941D01*
X12676941Y-14104941D01*
X12930941Y-11310941D02*
X12930941Y-11257059D01*
X12877059Y-11257059D01*
X12877059Y-11310941D01*
X12930941Y-11310941D01*
X12930941Y-14104941D02*
X12930941Y-14051059D01*
X12877059Y-14051059D01*
X12877059Y-14104941D01*
X12930941Y-14104941D01*
X12978941Y-8915441D02*
X12978941Y-8861559D01*
X12925059Y-8861559D01*
X12925059Y-8915441D01*
X12978941Y-8915441D01*
X12978941Y-9935441D02*
X12978941Y-9881559D01*
X12925059Y-9881559D01*
X12925059Y-9935441D01*
X12978941Y-9935441D01*
X13184941Y-11310941D02*
X13184941Y-11257059D01*
X13131059Y-11257059D01*
X13131059Y-11310941D01*
X13184941Y-11310941D01*
X13184941Y-14104941D02*
X13184941Y-14051059D01*
X13131059Y-14051059D01*
X13131059Y-14104941D01*
X13184941Y-14104941D01*
X13438941Y-11310941D02*
X13438941Y-11257059D01*
X13385059Y-11257059D01*
X13385059Y-11310941D01*
X13438941Y-11310941D01*
X13438941Y-14104941D02*
X13438941Y-14051059D01*
X13385059Y-14051059D01*
X13385059Y-14104941D01*
X13438941Y-14104941D01*
X13692941Y-11310941D02*
X13692941Y-11257059D01*
X13639059Y-11257059D01*
X13639059Y-11310941D01*
X13692941Y-11310941D01*
X13692941Y-14104941D02*
X13692941Y-14051059D01*
X13639059Y-14051059D01*
X13639059Y-14104941D01*
X13692941Y-14104941D01*
X13946941Y-11310941D02*
X13946941Y-11257059D01*
X13893059Y-11257059D01*
X13893059Y-11310941D01*
X13946941Y-11310941D01*
X13946941Y-14104941D02*
X13946941Y-14051059D01*
X13893059Y-14051059D01*
X13893059Y-14104941D01*
X13946941Y-14104941D01*
D16*
X8000000Y-15559000D02*
X8040000Y-15519000D01*
X8000000Y-15479000D01*
X7960000Y-15519000D01*
X8000000Y-15559000D01*
X8000000Y-16321000D02*
X8040000Y-16281000D01*
X8000000Y-16241000D01*
X7960000Y-16281000D01*
X8000000Y-16321000D01*
X8509000Y-10581000D02*
X8549000Y-10541000D01*
X8509000Y-10501000D01*
X8469000Y-10541000D01*
X8509000Y-10581000D01*
X9271000Y-10581000D02*
X9311000Y-10541000D01*
X9271000Y-10501000D01*
X9231000Y-10541000D01*
X9271000Y-10581000D01*
D17*
X7570000Y-7824000D02*
X7670000Y-7924000D01*
X7670000Y-7824000D02*
X7570000Y-7924000D01*
X7670000Y-7874000D02*
G75*
G03*
X7670000Y-7874000I-50000J0D01*
G01*
X7570000Y-8078000D02*
X7670000Y-8178000D01*
X7670000Y-8078000D02*
X7570000Y-8178000D01*
X7670000Y-8128000D02*
G75*
G03*
X7670000Y-8128000I-50000J0D01*
G01*
X8572000Y-16955000D02*
X8672000Y-17055000D01*
X8672000Y-16955000D02*
X8572000Y-17055000D01*
X8672000Y-17005000D02*
G75*
G03*
X8672000Y-17005000I-50000J0D01*
G01*
X8742500Y-14709500D02*
X8842500Y-14809500D01*
X8842500Y-14709500D02*
X8742500Y-14809500D01*
X8842500Y-14759500D02*
G75*
G03*
X8842500Y-14759500I-50000J0D01*
G01*
X8742500Y-16233500D02*
X8842500Y-16333500D01*
X8842500Y-16233500D02*
X8742500Y-16333500D01*
X8842500Y-16283500D02*
G75*
G03*
X8842500Y-16283500I-50000J0D01*
G01*
X8826000Y-16955000D02*
X8926000Y-17055000D01*
X8926000Y-16955000D02*
X8826000Y-17055000D01*
X8926000Y-17005000D02*
G75*
G03*
X8926000Y-17005000I-50000J0D01*
G01*
X8996500Y-14709500D02*
X9096500Y-14809500D01*
X9096500Y-14709500D02*
X8996500Y-14809500D01*
X9096500Y-14759500D02*
G75*
G03*
X9096500Y-14759500I-50000J0D01*
G01*
X8996500Y-16233500D02*
X9096500Y-16333500D01*
X9096500Y-16233500D02*
X8996500Y-16333500D01*
X9096500Y-16283500D02*
G75*
G03*
X9096500Y-16283500I-50000J0D01*
G01*
X9080000Y-16955000D02*
X9180000Y-17055000D01*
X9180000Y-16955000D02*
X9080000Y-17055000D01*
X9180000Y-17005000D02*
G75*
G03*
X9180000Y-17005000I-50000J0D01*
G01*
X9250500Y-14709500D02*
X9350500Y-14809500D01*
X9350500Y-14709500D02*
X9250500Y-14809500D01*
X9350500Y-14759500D02*
G75*
G03*
X9350500Y-14759500I-50000J0D01*
G01*
X9250500Y-16233500D02*
X9350500Y-16333500D01*
X9350500Y-16233500D02*
X9250500Y-16333500D01*
X9350500Y-16283500D02*
G75*
G03*
X9350500Y-16283500I-50000J0D01*
G01*
X9334000Y-16955000D02*
X9434000Y-17055000D01*
X9434000Y-16955000D02*
X9334000Y-17055000D01*
X9434000Y-17005000D02*
G75*
G03*
X9434000Y-17005000I-50000J0D01*
G01*
X9504500Y-14709500D02*
X9604500Y-14809500D01*
X9604500Y-14709500D02*
X9504500Y-14809500D01*
X9604500Y-14759500D02*
G75*
G03*
X9604500Y-14759500I-50000J0D01*
G01*
X9504500Y-16233500D02*
X9604500Y-16333500D01*
X9604500Y-16233500D02*
X9504500Y-16333500D01*
X9604500Y-16283500D02*
G75*
G03*
X9604500Y-16283500I-50000J0D01*
G01*
X9588000Y-16955000D02*
X9688000Y-17055000D01*
X9688000Y-16955000D02*
X9588000Y-17055000D01*
X9688000Y-17005000D02*
G75*
G03*
X9688000Y-17005000I-50000J0D01*
G01*
X9758500Y-14709500D02*
X9858500Y-14809500D01*
X9858500Y-14709500D02*
X9758500Y-14809500D01*
X9858500Y-14759500D02*
G75*
G03*
X9858500Y-14759500I-50000J0D01*
G01*
X9758500Y-16233500D02*
X9858500Y-16333500D01*
X9858500Y-16233500D02*
X9758500Y-16333500D01*
X9858500Y-16283500D02*
G75*
G03*
X9858500Y-16283500I-50000J0D01*
G01*
X9842000Y-16955000D02*
X9942000Y-17055000D01*
X9942000Y-16955000D02*
X9842000Y-17055000D01*
X9942000Y-17005000D02*
G75*
G03*
X9942000Y-17005000I-50000J0D01*
G01*
X10012500Y-14709500D02*
X10112500Y-14809500D01*
X10112500Y-14709500D02*
X10012500Y-14809500D01*
X10112500Y-14759500D02*
G75*
G03*
X10112500Y-14759500I-50000J0D01*
G01*
X10012500Y-16233500D02*
X10112500Y-16333500D01*
X10112500Y-16233500D02*
X10012500Y-16333500D01*
X10112500Y-16283500D02*
G75*
G03*
X10112500Y-16283500I-50000J0D01*
G01*
X10096000Y-16955000D02*
X10196000Y-17055000D01*
X10196000Y-16955000D02*
X10096000Y-17055000D01*
X10196000Y-17005000D02*
G75*
G03*
X10196000Y-17005000I-50000J0D01*
G01*
X10266500Y-14709500D02*
X10366500Y-14809500D01*
X10366500Y-14709500D02*
X10266500Y-14809500D01*
X10366500Y-14759500D02*
G75*
G03*
X10366500Y-14759500I-50000J0D01*
G01*
X10266500Y-16233500D02*
X10366500Y-16333500D01*
X10366500Y-16233500D02*
X10266500Y-16333500D01*
X10366500Y-16283500D02*
G75*
G03*
X10366500Y-16283500I-50000J0D01*
G01*
X10350000Y-16955000D02*
X10450000Y-17055000D01*
X10450000Y-16955000D02*
X10350000Y-17055000D01*
X10450000Y-17005000D02*
G75*
G03*
X10450000Y-17005000I-50000J0D01*
G01*
X10520500Y-14709500D02*
X10620500Y-14809500D01*
X10620500Y-14709500D02*
X10520500Y-14809500D01*
X10620500Y-14759500D02*
G75*
G03*
X10620500Y-14759500I-50000J0D01*
G01*
X10520500Y-16233500D02*
X10620500Y-16333500D01*
X10620500Y-16233500D02*
X10520500Y-16333500D01*
X10620500Y-16283500D02*
G75*
G03*
X10620500Y-16283500I-50000J0D01*
G01*
X10774500Y-14709500D02*
X10874500Y-14809500D01*
X10874500Y-14709500D02*
X10774500Y-14809500D01*
X10874500Y-14759500D02*
G75*
G03*
X10874500Y-14759500I-50000J0D01*
G01*
X10774500Y-16233500D02*
X10874500Y-16333500D01*
X10874500Y-16233500D02*
X10774500Y-16333500D01*
X10874500Y-16283500D02*
G75*
G03*
X10874500Y-16283500I-50000J0D01*
G01*
X11028500Y-14709500D02*
X11128500Y-14809500D01*
X11128500Y-14709500D02*
X11028500Y-14809500D01*
X11128500Y-14759500D02*
G75*
G03*
X11128500Y-14759500I-50000J0D01*
G01*
X11028500Y-16233500D02*
X11128500Y-16333500D01*
X11128500Y-16233500D02*
X11028500Y-16333500D01*
X11128500Y-16283500D02*
G75*
G03*
X11128500Y-16283500I-50000J0D01*
G01*
X11062500Y-16950000D02*
X11162500Y-17050000D01*
X11162500Y-16950000D02*
X11062500Y-17050000D01*
X11162500Y-17000000D02*
G75*
G03*
X11162500Y-17000000I-50000J0D01*
G01*
X11282500Y-14709500D02*
X11382500Y-14809500D01*
X11382500Y-14709500D02*
X11282500Y-14809500D01*
X11382500Y-14759500D02*
G75*
G03*
X11382500Y-14759500I-50000J0D01*
G01*
X11282500Y-16233500D02*
X11382500Y-16333500D01*
X11382500Y-16233500D02*
X11282500Y-16333500D01*
X11382500Y-16283500D02*
G75*
G03*
X11382500Y-16283500I-50000J0D01*
G01*
X11316500Y-16950000D02*
X11416500Y-17050000D01*
X11416500Y-16950000D02*
X11316500Y-17050000D01*
X11416500Y-17000000D02*
G75*
G03*
X11416500Y-17000000I-50000J0D01*
G01*
X11536500Y-14709500D02*
X11636500Y-14809500D01*
X11636500Y-14709500D02*
X11536500Y-14809500D01*
X11636500Y-14759500D02*
G75*
G03*
X11636500Y-14759500I-50000J0D01*
G01*
X11536500Y-16233500D02*
X11636500Y-16333500D01*
X11636500Y-16233500D02*
X11536500Y-16333500D01*
X11636500Y-16283500D02*
G75*
G03*
X11636500Y-16283500I-50000J0D01*
G01*
X11570500Y-16950000D02*
X11670500Y-17050000D01*
X11670500Y-16950000D02*
X11570500Y-17050000D01*
X11670500Y-17000000D02*
G75*
G03*
X11670500Y-17000000I-50000J0D01*
G01*
X11790500Y-14709500D02*
X11890500Y-14809500D01*
X11890500Y-14709500D02*
X11790500Y-14809500D01*
X11890500Y-14759500D02*
G75*
G03*
X11890500Y-14759500I-50000J0D01*
G01*
X11790500Y-16233500D02*
X11890500Y-16333500D01*
X11890500Y-16233500D02*
X11790500Y-16333500D01*
X11890500Y-16283500D02*
G75*
G03*
X11890500Y-16283500I-50000J0D01*
G01*
X11824500Y-16950000D02*
X11924500Y-17050000D01*
X11924500Y-16950000D02*
X11824500Y-17050000D01*
X11924500Y-17000000D02*
G75*
G03*
X11924500Y-17000000I-50000J0D01*
G01*
X12044500Y-14709500D02*
X12144500Y-14809500D01*
X12144500Y-14709500D02*
X12044500Y-14809500D01*
X12144500Y-14759500D02*
G75*
G03*
X12144500Y-14759500I-50000J0D01*
G01*
X12044500Y-16233500D02*
X12144500Y-16333500D01*
X12144500Y-16233500D02*
X12044500Y-16333500D01*
X12144500Y-16283500D02*
G75*
G03*
X12144500Y-16283500I-50000J0D01*
G01*
X12078500Y-16950000D02*
X12178500Y-17050000D01*
X12178500Y-16950000D02*
X12078500Y-17050000D01*
X12178500Y-17000000D02*
G75*
G03*
X12178500Y-17000000I-50000J0D01*
G01*
X12298500Y-14709500D02*
X12398500Y-14809500D01*
X12398500Y-14709500D02*
X12298500Y-14809500D01*
X12398500Y-14759500D02*
G75*
G03*
X12398500Y-14759500I-50000J0D01*
G01*
X12298500Y-16233500D02*
X12398500Y-16333500D01*
X12398500Y-16233500D02*
X12298500Y-16333500D01*
X12398500Y-16283500D02*
G75*
G03*
X12398500Y-16283500I-50000J0D01*
G01*
X12332500Y-16950000D02*
X12432500Y-17050000D01*
X12432500Y-16950000D02*
X12332500Y-17050000D01*
X12432500Y-17000000D02*
G75*
G03*
X12432500Y-17000000I-50000J0D01*
G01*
X13015000Y-17352500D02*
X13115000Y-17452500D01*
X13115000Y-17352500D02*
X13015000Y-17452500D01*
X13115000Y-17402500D02*
G75*
G03*
X13115000Y-17402500I-50000J0D01*
G01*
X13027500Y-16952500D02*
X13127500Y-17052500D01*
X13127500Y-16952500D02*
X13027500Y-17052500D01*
X13127500Y-17002500D02*
G75*
G03*
X13127500Y-17002500I-50000J0D01*
G01*
X13269000Y-17352500D02*
X13369000Y-17452500D01*
X13369000Y-17352500D02*
X13269000Y-17452500D01*
X13369000Y-17402500D02*
G75*
G03*
X13369000Y-17402500I-50000J0D01*
G01*
X13281500Y-16952500D02*
X13381500Y-17052500D01*
X13381500Y-16952500D02*
X13281500Y-17052500D01*
X13381500Y-17002500D02*
G75*
G03*
X13381500Y-17002500I-50000J0D01*
G01*
X13523000Y-17352500D02*
X13623000Y-17452500D01*
X13623000Y-17352500D02*
X13523000Y-17452500D01*
X13623000Y-17402500D02*
G75*
G03*
X13623000Y-17402500I-50000J0D01*
G01*
X13535500Y-16952500D02*
X13635500Y-17052500D01*
X13635500Y-16952500D02*
X13535500Y-17052500D01*
X13635500Y-17002500D02*
G75*
G03*
X13635500Y-17002500I-50000J0D01*
G01*
X13777000Y-17352500D02*
X13877000Y-17452500D01*
X13877000Y-17352500D02*
X13777000Y-17452500D01*
X13877000Y-17402500D02*
G75*
G03*
X13877000Y-17402500I-50000J0D01*
G01*
X13789500Y-16952500D02*
X13889500Y-17052500D01*
X13889500Y-16952500D02*
X13789500Y-17052500D01*
X13889500Y-17002500D02*
G75*
G03*
X13889500Y-17002500I-50000J0D01*
G01*
X14031000Y-17352500D02*
X14131000Y-17452500D01*
X14131000Y-17352500D02*
X14031000Y-17452500D01*
X14131000Y-17402500D02*
G75*
G03*
X14131000Y-17402500I-50000J0D01*
G01*
X14043500Y-16952500D02*
X14143500Y-17052500D01*
X14143500Y-16952500D02*
X14043500Y-17052500D01*
X14143500Y-17002500D02*
G75*
G03*
X14143500Y-17002500I-50000J0D01*
G01*
X14285000Y-17352500D02*
X14385000Y-17452500D01*
X14385000Y-17352500D02*
X14285000Y-17452500D01*
X14385000Y-17402500D02*
G75*
G03*
X14385000Y-17402500I-50000J0D01*
G01*
X14297500Y-16952500D02*
X14397500Y-17052500D01*
X14397500Y-16952500D02*
X14297500Y-17052500D01*
X14397500Y-17002500D02*
G75*
G03*
X14397500Y-17002500I-50000J0D01*
G01*
X15088400Y-11380000D02*
X15188400Y-11480000D01*
X15188400Y-11380000D02*
X15088400Y-11480000D01*
X15188400Y-11430000D02*
G75*
G03*
X15188400Y-11430000I-50000J0D01*
G01*
X15088400Y-11634000D02*
X15188400Y-11734000D01*
X15188400Y-11634000D02*
X15088400Y-11734000D01*
X15188400Y-11684000D02*
G75*
G03*
X15188400Y-11684000I-50000J0D01*
G01*
X15088400Y-11888000D02*
X15188400Y-11988000D01*
X15188400Y-11888000D02*
X15088400Y-11988000D01*
X15188400Y-11938000D02*
G75*
G03*
X15188400Y-11938000I-50000J0D01*
G01*
X15088400Y-12142000D02*
X15188400Y-12242000D01*
X15188400Y-12142000D02*
X15088400Y-12242000D01*
X15188400Y-12192000D02*
G75*
G03*
X15188400Y-12192000I-50000J0D01*
G01*
X15088400Y-12396000D02*
X15188400Y-12496000D01*
X15188400Y-12396000D02*
X15088400Y-12496000D01*
X15188400Y-12446000D02*
G75*
G03*
X15188400Y-12446000I-50000J0D01*
G01*
X15088400Y-12650000D02*
X15188400Y-12750000D01*
X15188400Y-12650000D02*
X15088400Y-12750000D01*
X15188400Y-12700000D02*
G75*
G03*
X15188400Y-12700000I-50000J0D01*
G01*
X15088400Y-12904000D02*
X15188400Y-13004000D01*
X15188400Y-12904000D02*
X15088400Y-13004000D01*
X15188400Y-12954000D02*
G75*
G03*
X15188400Y-12954000I-50000J0D01*
G01*
X15088400Y-13158000D02*
X15188400Y-13258000D01*
X15188400Y-13158000D02*
X15088400Y-13258000D01*
X15188400Y-13208000D02*
G75*
G03*
X15188400Y-13208000I-50000J0D01*
G01*
X15088400Y-13412000D02*
X15188400Y-13512000D01*
X15188400Y-13412000D02*
X15088400Y-13512000D01*
X15188400Y-13462000D02*
G75*
G03*
X15188400Y-13462000I-50000J0D01*
G01*
X15088400Y-13666000D02*
X15188400Y-13766000D01*
X15188400Y-13666000D02*
X15088400Y-13766000D01*
X15188400Y-13716000D02*
G75*
G03*
X15188400Y-13716000I-50000J0D01*
G01*
X15088400Y-13920000D02*
X15188400Y-14020000D01*
X15188400Y-13920000D02*
X15088400Y-14020000D01*
X15188400Y-13970000D02*
G75*
G03*
X15188400Y-13970000I-50000J0D01*
G01*
X15088400Y-14174000D02*
X15188400Y-14274000D01*
X15188400Y-14174000D02*
X15088400Y-14274000D01*
X15188400Y-14224000D02*
G75*
G03*
X15188400Y-14224000I-50000J0D01*
G01*
X15088400Y-14428000D02*
X15188400Y-14528000D01*
X15188400Y-14428000D02*
X15088400Y-14528000D01*
X15188400Y-14478000D02*
G75*
G03*
X15188400Y-14478000I-50000J0D01*
G01*
X15088400Y-14682000D02*
X15188400Y-14782000D01*
X15188400Y-14682000D02*
X15088400Y-14782000D01*
X15188400Y-14732000D02*
G75*
G03*
X15188400Y-14732000I-50000J0D01*
G01*
X15088400Y-14936000D02*
X15188400Y-15036000D01*
X15188400Y-14936000D02*
X15088400Y-15036000D01*
X15188400Y-14986000D02*
G75*
G03*
X15188400Y-14986000I-50000J0D01*
G01*
X15088400Y-15190000D02*
X15188400Y-15290000D01*
X15188400Y-15190000D02*
X15088400Y-15290000D01*
X15188400Y-15240000D02*
G75*
G03*
X15188400Y-15240000I-50000J0D01*
G01*
X15088400Y-15444000D02*
X15188400Y-15544000D01*
X15188400Y-15444000D02*
X15088400Y-15544000D01*
X15188400Y-15494000D02*
G75*
G03*
X15188400Y-15494000I-50000J0D01*
G01*
X15088400Y-15698000D02*
X15188400Y-15798000D01*
X15188400Y-15698000D02*
X15088400Y-15798000D01*
X15188400Y-15748000D02*
G75*
G03*
X15188400Y-15748000I-50000J0D01*
G01*
X15088400Y-15952000D02*
X15188400Y-16052000D01*
X15188400Y-15952000D02*
X15088400Y-16052000D01*
X15188400Y-16002000D02*
G75*
G03*
X15188400Y-16002000I-50000J0D01*
G01*
X15088400Y-16206000D02*
X15188400Y-16306000D01*
X15188400Y-16206000D02*
X15088400Y-16306000D01*
X15188400Y-16256000D02*
G75*
G03*
X15188400Y-16256000I-50000J0D01*
G01*
X15088400Y-16460000D02*
X15188400Y-16560000D01*
X15188400Y-16460000D02*
X15088400Y-16560000D01*
X15188400Y-16510000D02*
G75*
G03*
X15188400Y-16510000I-50000J0D01*
G01*
D18*
X8073000Y-8200000D02*
X8183000Y-8310000D01*
X8183000Y-8200000D02*
X8073000Y-8310000D01*
X8128000Y-8200000D02*
X8128000Y-8310000D01*
X8073000Y-8255000D02*
X8183000Y-8255000D01*
X8454000Y-8200000D02*
X8564000Y-8310000D01*
X8564000Y-8200000D02*
X8454000Y-8310000D01*
X8509000Y-8200000D02*
X8509000Y-8310000D01*
X8454000Y-8255000D02*
X8564000Y-8255000D01*
X11375000Y-7565000D02*
X11485000Y-7675000D01*
X11485000Y-7565000D02*
X11375000Y-7675000D01*
X11430000Y-7565000D02*
X11430000Y-7675000D01*
X11375000Y-7620000D02*
X11485000Y-7620000D01*
X11375000Y-7819000D02*
X11485000Y-7929000D01*
X11485000Y-7819000D02*
X11375000Y-7929000D01*
X11430000Y-7819000D02*
X11430000Y-7929000D01*
X11375000Y-7874000D02*
X11485000Y-7874000D01*
X11375000Y-8073000D02*
X11485000Y-8183000D01*
X11485000Y-8073000D02*
X11375000Y-8183000D01*
X11430000Y-8073000D02*
X11430000Y-8183000D01*
X11375000Y-8128000D02*
X11485000Y-8128000D01*
D19*
X8160000Y-7603000D02*
X8300000Y-7743000D01*
X8300000Y-7603000D02*
X8160000Y-7743000D01*
X8279498Y-7722498D02*
X8279498Y-7623502D01*
X8180502Y-7623502D01*
X8180502Y-7722498D01*
X8279498Y-7722498D01*
X9430000Y-7603000D02*
X9570000Y-7743000D01*
X9570000Y-7603000D02*
X9430000Y-7743000D01*
X9549498Y-7722498D02*
X9549498Y-7623502D01*
X9450502Y-7623502D01*
X9450502Y-7722498D01*
X9549498Y-7722498D01*
D11*
X6848919Y-18357176D02*
X6848919Y-18157176D01*
X6896538Y-18157176D01*
X6925109Y-18166700D01*
X6944157Y-18185748D01*
X6953681Y-18204795D01*
X6963205Y-18242890D01*
X6963205Y-18271462D01*
X6953681Y-18309557D01*
X6944157Y-18328605D01*
X6925109Y-18347652D01*
X6896538Y-18357176D01*
X6848919Y-18357176D01*
X7048919Y-18357176D02*
X7048919Y-18223843D01*
X7048919Y-18261938D02*
X7058443Y-18242890D01*
X7067967Y-18233367D01*
X7087014Y-18223843D01*
X7106062Y-18223843D01*
X7172728Y-18357176D02*
X7172728Y-18223843D01*
X7172728Y-18157176D02*
X7163205Y-18166700D01*
X7172728Y-18176224D01*
X7182252Y-18166700D01*
X7172728Y-18157176D01*
X7172728Y-18176224D01*
X7296538Y-18357176D02*
X7277490Y-18347652D01*
X7267967Y-18328605D01*
X7267967Y-18157176D01*
X7401300Y-18357176D02*
X7382252Y-18347652D01*
X7372728Y-18328605D01*
X7372728Y-18157176D01*
X7629871Y-18357176D02*
X7629871Y-18157176D01*
X7696538Y-18300033D01*
X7763205Y-18157176D01*
X7763205Y-18357176D01*
X7944157Y-18357176D02*
X7944157Y-18252414D01*
X7934633Y-18233367D01*
X7915586Y-18223843D01*
X7877490Y-18223843D01*
X7858443Y-18233367D01*
X7944157Y-18347652D02*
X7925109Y-18357176D01*
X7877490Y-18357176D01*
X7858443Y-18347652D01*
X7848919Y-18328605D01*
X7848919Y-18309557D01*
X7858443Y-18290510D01*
X7877490Y-18280986D01*
X7925109Y-18280986D01*
X7944157Y-18271462D01*
X8039395Y-18223843D02*
X8039395Y-18423843D01*
X8039395Y-18233367D02*
X8058443Y-18223843D01*
X8096538Y-18223843D01*
X8115586Y-18233367D01*
X8125109Y-18242890D01*
X8134633Y-18261938D01*
X8134633Y-18319081D01*
X8125109Y-18338129D01*
X8115586Y-18347652D01*
X8096538Y-18357176D01*
X8058443Y-18357176D01*
X8039395Y-18347652D01*
X8220348Y-18338129D02*
X8229871Y-18347652D01*
X8220348Y-18357176D01*
X8210824Y-18347652D01*
X8220348Y-18338129D01*
X8220348Y-18357176D01*
X8220348Y-18233367D02*
X8229871Y-18242890D01*
X8220348Y-18252414D01*
X8210824Y-18242890D01*
X8220348Y-18233367D01*
X8220348Y-18252414D01*
D12*
X6561300Y-18671700D02*
X6591300Y-18701700D01*
X6591300Y-18671700D02*
X6561300Y-18701700D01*
D11*
X6887014Y-18577176D02*
X6906062Y-18577176D01*
X6925109Y-18586700D01*
X6934633Y-18596224D01*
X6944157Y-18615271D01*
X6953681Y-18653367D01*
X6953681Y-18700986D01*
X6944157Y-18739081D01*
X6934633Y-18758129D01*
X6925109Y-18767652D01*
X6906062Y-18777176D01*
X6887014Y-18777176D01*
X6867967Y-18767652D01*
X6858443Y-18758129D01*
X6848919Y-18739081D01*
X6839395Y-18700986D01*
X6839395Y-18653367D01*
X6848919Y-18615271D01*
X6858443Y-18596224D01*
X6867967Y-18586700D01*
X6887014Y-18577176D01*
X7039395Y-18758129D02*
X7048919Y-18767652D01*
X7039395Y-18777176D01*
X7029871Y-18767652D01*
X7039395Y-18758129D01*
X7039395Y-18777176D01*
X7115586Y-18577176D02*
X7239395Y-18577176D01*
X7172728Y-18653367D01*
X7201300Y-18653367D01*
X7220348Y-18662890D01*
X7229871Y-18672414D01*
X7239395Y-18691462D01*
X7239395Y-18739081D01*
X7229871Y-18758129D01*
X7220348Y-18767652D01*
X7201300Y-18777176D01*
X7144157Y-18777176D01*
X7125109Y-18767652D01*
X7115586Y-18758129D01*
X7363205Y-18577176D02*
X7382252Y-18577176D01*
X7401300Y-18586700D01*
X7410824Y-18596224D01*
X7420348Y-18615271D01*
X7429871Y-18653367D01*
X7429871Y-18700986D01*
X7420348Y-18739081D01*
X7410824Y-18758129D01*
X7401300Y-18767652D01*
X7382252Y-18777176D01*
X7363205Y-18777176D01*
X7344157Y-18767652D01*
X7334633Y-18758129D01*
X7325109Y-18739081D01*
X7315586Y-18700986D01*
X7315586Y-18653367D01*
X7325109Y-18615271D01*
X7334633Y-18596224D01*
X7344157Y-18586700D01*
X7363205Y-18577176D01*
X7553681Y-18577176D02*
X7572728Y-18577176D01*
X7591776Y-18586700D01*
X7601300Y-18596224D01*
X7610824Y-18615271D01*
X7620348Y-18653367D01*
X7620348Y-18700986D01*
X7610824Y-18739081D01*
X7601300Y-18758129D01*
X7591776Y-18767652D01*
X7572728Y-18777176D01*
X7553681Y-18777176D01*
X7534633Y-18767652D01*
X7525109Y-18758129D01*
X7515586Y-18739081D01*
X7506062Y-18700986D01*
X7506062Y-18653367D01*
X7515586Y-18615271D01*
X7525109Y-18596224D01*
X7534633Y-18586700D01*
X7553681Y-18577176D01*
X7706062Y-18777176D02*
X7706062Y-18643843D01*
X7706062Y-18662890D02*
X7715586Y-18653367D01*
X7734633Y-18643843D01*
X7763205Y-18643843D01*
X7782252Y-18653367D01*
X7791776Y-18672414D01*
X7791776Y-18777176D01*
X7791776Y-18672414D02*
X7801300Y-18653367D01*
X7820348Y-18643843D01*
X7848919Y-18643843D01*
X7867967Y-18653367D01*
X7877490Y-18672414D01*
X7877490Y-18777176D01*
X7972728Y-18777176D02*
X7972728Y-18643843D01*
X7972728Y-18662890D02*
X7982252Y-18653367D01*
X8001300Y-18643843D01*
X8029871Y-18643843D01*
X8048919Y-18653367D01*
X8058443Y-18672414D01*
X8058443Y-18777176D01*
X8058443Y-18672414D02*
X8067967Y-18653367D01*
X8087014Y-18643843D01*
X8115586Y-18643843D01*
X8134633Y-18653367D01*
X8144157Y-18672414D01*
X8144157Y-18777176D01*
X8534633Y-18567652D02*
X8363205Y-18824795D01*
X8791776Y-18577176D02*
X8810824Y-18577176D01*
X8829871Y-18586700D01*
X8839395Y-18596224D01*
X8848919Y-18615271D01*
X8858443Y-18653367D01*
X8858443Y-18700986D01*
X8848919Y-18739081D01*
X8839395Y-18758129D01*
X8829871Y-18767652D01*
X8810824Y-18777176D01*
X8791776Y-18777176D01*
X8772729Y-18767652D01*
X8763205Y-18758129D01*
X8753681Y-18739081D01*
X8744157Y-18700986D01*
X8744157Y-18653367D01*
X8753681Y-18615271D01*
X8763205Y-18596224D01*
X8772729Y-18586700D01*
X8791776Y-18577176D01*
X8944157Y-18758129D02*
X8953681Y-18767652D01*
X8944157Y-18777176D01*
X8934633Y-18767652D01*
X8944157Y-18758129D01*
X8944157Y-18777176D01*
X9077490Y-18577176D02*
X9096538Y-18577176D01*
X9115586Y-18586700D01*
X9125110Y-18596224D01*
X9134633Y-18615271D01*
X9144157Y-18653367D01*
X9144157Y-18700986D01*
X9134633Y-18739081D01*
X9125110Y-18758129D01*
X9115586Y-18767652D01*
X9096538Y-18777176D01*
X9077490Y-18777176D01*
X9058443Y-18767652D01*
X9048919Y-18758129D01*
X9039395Y-18739081D01*
X9029871Y-18700986D01*
X9029871Y-18653367D01*
X9039395Y-18615271D01*
X9048919Y-18596224D01*
X9058443Y-18586700D01*
X9077490Y-18577176D01*
X9334633Y-18777176D02*
X9220348Y-18777176D01*
X9277490Y-18777176D02*
X9277490Y-18577176D01*
X9258443Y-18605748D01*
X9239395Y-18624795D01*
X9220348Y-18634319D01*
X9525110Y-18777176D02*
X9410824Y-18777176D01*
X9467967Y-18777176D02*
X9467967Y-18577176D01*
X9448919Y-18605748D01*
X9429871Y-18624795D01*
X9410824Y-18634319D01*
X9639395Y-18662890D02*
X9620348Y-18653367D01*
X9610824Y-18643843D01*
X9601300Y-18624795D01*
X9601300Y-18615271D01*
X9610824Y-18596224D01*
X9620348Y-18586700D01*
X9639395Y-18577176D01*
X9677490Y-18577176D01*
X9696538Y-18586700D01*
X9706062Y-18596224D01*
X9715586Y-18615271D01*
X9715586Y-18624795D01*
X9706062Y-18643843D01*
X9696538Y-18653367D01*
X9677490Y-18662890D01*
X9639395Y-18662890D01*
X9620348Y-18672414D01*
X9610824Y-18681938D01*
X9601300Y-18700986D01*
X9601300Y-18739081D01*
X9610824Y-18758129D01*
X9620348Y-18767652D01*
X9639395Y-18777176D01*
X9677490Y-18777176D01*
X9696538Y-18767652D01*
X9706062Y-18758129D01*
X9715586Y-18739081D01*
X9715586Y-18700986D01*
X9706062Y-18681938D01*
X9696538Y-18672414D01*
X9677490Y-18662890D01*
X9791776Y-18577176D02*
X9791776Y-18615271D01*
X9867967Y-18577176D02*
X9867967Y-18615271D01*
X10163205Y-18853367D02*
X10153681Y-18843843D01*
X10134633Y-18815271D01*
X10125110Y-18796224D01*
X10115586Y-18767652D01*
X10106062Y-18720033D01*
X10106062Y-18681938D01*
X10115586Y-18634319D01*
X10125110Y-18605748D01*
X10134633Y-18586700D01*
X10153681Y-18558129D01*
X10163205Y-18548605D01*
X10229871Y-18596224D02*
X10239395Y-18586700D01*
X10258443Y-18577176D01*
X10306062Y-18577176D01*
X10325110Y-18586700D01*
X10334633Y-18596224D01*
X10344157Y-18615271D01*
X10344157Y-18634319D01*
X10334633Y-18662890D01*
X10220348Y-18777176D01*
X10344157Y-18777176D01*
X10515586Y-18643843D02*
X10515586Y-18777176D01*
X10467967Y-18567652D02*
X10420348Y-18710510D01*
X10544157Y-18710510D01*
X10772729Y-18777176D02*
X10772729Y-18577176D01*
X10858443Y-18777176D02*
X10858443Y-18672414D01*
X10848919Y-18653367D01*
X10829871Y-18643843D01*
X10801300Y-18643843D01*
X10782252Y-18653367D01*
X10772729Y-18662890D01*
X10982252Y-18777176D02*
X10963205Y-18767652D01*
X10953681Y-18758129D01*
X10944157Y-18739081D01*
X10944157Y-18681938D01*
X10953681Y-18662890D01*
X10963205Y-18653367D01*
X10982252Y-18643843D01*
X11010824Y-18643843D01*
X11029871Y-18653367D01*
X11039395Y-18662890D01*
X11048919Y-18681938D01*
X11048919Y-18739081D01*
X11039395Y-18758129D01*
X11029871Y-18767652D01*
X11010824Y-18777176D01*
X10982252Y-18777176D01*
X11163205Y-18777176D02*
X11144157Y-18767652D01*
X11134633Y-18748605D01*
X11134633Y-18577176D01*
X11315586Y-18767652D02*
X11296538Y-18777176D01*
X11258443Y-18777176D01*
X11239395Y-18767652D01*
X11229871Y-18748605D01*
X11229871Y-18672414D01*
X11239395Y-18653367D01*
X11258443Y-18643843D01*
X11296538Y-18643843D01*
X11315586Y-18653367D01*
X11325109Y-18672414D01*
X11325109Y-18691462D01*
X11229871Y-18710510D01*
X11401300Y-18767652D02*
X11420348Y-18777176D01*
X11458443Y-18777176D01*
X11477490Y-18767652D01*
X11487014Y-18748605D01*
X11487014Y-18739081D01*
X11477490Y-18720033D01*
X11458443Y-18710510D01*
X11429871Y-18710510D01*
X11410824Y-18700986D01*
X11401300Y-18681938D01*
X11401300Y-18672414D01*
X11410824Y-18653367D01*
X11429871Y-18643843D01*
X11458443Y-18643843D01*
X11477490Y-18653367D01*
X11553681Y-18853367D02*
X11563205Y-18843843D01*
X11582252Y-18815271D01*
X11591776Y-18796224D01*
X11601300Y-18767652D01*
X11610824Y-18720033D01*
X11610824Y-18681938D01*
X11601300Y-18634319D01*
X11591776Y-18605748D01*
X11582252Y-18586700D01*
X11563205Y-18558129D01*
X11553681Y-18548605D01*
D13*
X6591300Y-18950700D02*
G75*
G03*
X6591300Y-18950700I-20000J0D01*
G01*
D11*
X6887014Y-18841176D02*
X6906062Y-18841176D01*
X6925109Y-18850700D01*
X6934633Y-18860224D01*
X6944157Y-18879271D01*
X6953681Y-18917367D01*
X6953681Y-18964986D01*
X6944157Y-19003081D01*
X6934633Y-19022129D01*
X6925109Y-19031652D01*
X6906062Y-19041176D01*
X6887014Y-19041176D01*
X6867967Y-19031652D01*
X6858443Y-19022129D01*
X6848919Y-19003081D01*
X6839395Y-18964986D01*
X6839395Y-18917367D01*
X6848919Y-18879271D01*
X6858443Y-18860224D01*
X6867967Y-18850700D01*
X6887014Y-18841176D01*
X7039395Y-19022129D02*
X7048919Y-19031652D01*
X7039395Y-19041176D01*
X7029871Y-19031652D01*
X7039395Y-19022129D01*
X7039395Y-19041176D01*
X7220348Y-18907843D02*
X7220348Y-19041176D01*
X7172728Y-18831652D02*
X7125109Y-18974510D01*
X7248919Y-18974510D01*
X7363205Y-18841176D02*
X7382252Y-18841176D01*
X7401300Y-18850700D01*
X7410824Y-18860224D01*
X7420348Y-18879271D01*
X7429871Y-18917367D01*
X7429871Y-18964986D01*
X7420348Y-19003081D01*
X7410824Y-19022129D01*
X7401300Y-19031652D01*
X7382252Y-19041176D01*
X7363205Y-19041176D01*
X7344157Y-19031652D01*
X7334633Y-19022129D01*
X7325109Y-19003081D01*
X7315586Y-18964986D01*
X7315586Y-18917367D01*
X7325109Y-18879271D01*
X7334633Y-18860224D01*
X7344157Y-18850700D01*
X7363205Y-18841176D01*
X7553681Y-18841176D02*
X7572728Y-18841176D01*
X7591776Y-18850700D01*
X7601300Y-18860224D01*
X7610824Y-18879271D01*
X7620348Y-18917367D01*
X7620348Y-18964986D01*
X7610824Y-19003081D01*
X7601300Y-19022129D01*
X7591776Y-19031652D01*
X7572728Y-19041176D01*
X7553681Y-19041176D01*
X7534633Y-19031652D01*
X7525109Y-19022129D01*
X7515586Y-19003081D01*
X7506062Y-18964986D01*
X7506062Y-18917367D01*
X7515586Y-18879271D01*
X7525109Y-18860224D01*
X7534633Y-18850700D01*
X7553681Y-18841176D01*
X7706062Y-19041176D02*
X7706062Y-18907843D01*
X7706062Y-18926890D02*
X7715586Y-18917367D01*
X7734633Y-18907843D01*
X7763205Y-18907843D01*
X7782252Y-18917367D01*
X7791776Y-18936414D01*
X7791776Y-19041176D01*
X7791776Y-18936414D02*
X7801300Y-18917367D01*
X7820348Y-18907843D01*
X7848919Y-18907843D01*
X7867967Y-18917367D01*
X7877490Y-18936414D01*
X7877490Y-19041176D01*
X7972728Y-19041176D02*
X7972728Y-18907843D01*
X7972728Y-18926890D02*
X7982252Y-18917367D01*
X8001300Y-18907843D01*
X8029871Y-18907843D01*
X8048919Y-18917367D01*
X8058443Y-18936414D01*
X8058443Y-19041176D01*
X8058443Y-18936414D02*
X8067967Y-18917367D01*
X8087014Y-18907843D01*
X8115586Y-18907843D01*
X8134633Y-18917367D01*
X8144157Y-18936414D01*
X8144157Y-19041176D01*
X8534633Y-18831652D02*
X8363205Y-19088795D01*
X8791776Y-18841176D02*
X8810824Y-18841176D01*
X8829871Y-18850700D01*
X8839395Y-18860224D01*
X8848919Y-18879271D01*
X8858443Y-18917367D01*
X8858443Y-18964986D01*
X8848919Y-19003081D01*
X8839395Y-19022129D01*
X8829871Y-19031652D01*
X8810824Y-19041176D01*
X8791776Y-19041176D01*
X8772729Y-19031652D01*
X8763205Y-19022129D01*
X8753681Y-19003081D01*
X8744157Y-18964986D01*
X8744157Y-18917367D01*
X8753681Y-18879271D01*
X8763205Y-18860224D01*
X8772729Y-18850700D01*
X8791776Y-18841176D01*
X8944157Y-19022129D02*
X8953681Y-19031652D01*
X8944157Y-19041176D01*
X8934633Y-19031652D01*
X8944157Y-19022129D01*
X8944157Y-19041176D01*
X9077490Y-18841176D02*
X9096538Y-18841176D01*
X9115586Y-18850700D01*
X9125110Y-18860224D01*
X9134633Y-18879271D01*
X9144157Y-18917367D01*
X9144157Y-18964986D01*
X9134633Y-19003081D01*
X9125110Y-19022129D01*
X9115586Y-19031652D01*
X9096538Y-19041176D01*
X9077490Y-19041176D01*
X9058443Y-19031652D01*
X9048919Y-19022129D01*
X9039395Y-19003081D01*
X9029871Y-18964986D01*
X9029871Y-18917367D01*
X9039395Y-18879271D01*
X9048919Y-18860224D01*
X9058443Y-18850700D01*
X9077490Y-18841176D01*
X9334633Y-19041176D02*
X9220348Y-19041176D01*
X9277490Y-19041176D02*
X9277490Y-18841176D01*
X9258443Y-18869748D01*
X9239395Y-18888795D01*
X9220348Y-18898319D01*
X9515586Y-18841176D02*
X9420348Y-18841176D01*
X9410824Y-18936414D01*
X9420348Y-18926890D01*
X9439395Y-18917367D01*
X9487014Y-18917367D01*
X9506062Y-18926890D01*
X9515586Y-18936414D01*
X9525110Y-18955462D01*
X9525110Y-19003081D01*
X9515586Y-19022129D01*
X9506062Y-19031652D01*
X9487014Y-19041176D01*
X9439395Y-19041176D01*
X9420348Y-19031652D01*
X9410824Y-19022129D01*
X9591776Y-18841176D02*
X9725110Y-18841176D01*
X9639395Y-19041176D01*
X9791776Y-18841176D02*
X9791776Y-18879271D01*
X9867967Y-18841176D02*
X9867967Y-18879271D01*
X10163205Y-19117367D02*
X10153681Y-19107843D01*
X10134633Y-19079271D01*
X10125110Y-19060224D01*
X10115586Y-19031652D01*
X10106062Y-18984033D01*
X10106062Y-18945938D01*
X10115586Y-18898319D01*
X10125110Y-18869748D01*
X10134633Y-18850700D01*
X10153681Y-18822129D01*
X10163205Y-18812605D01*
X10220348Y-18841176D02*
X10344157Y-18841176D01*
X10277490Y-18917367D01*
X10306062Y-18917367D01*
X10325110Y-18926890D01*
X10334633Y-18936414D01*
X10344157Y-18955462D01*
X10344157Y-19003081D01*
X10334633Y-19022129D01*
X10325110Y-19031652D01*
X10306062Y-19041176D01*
X10248919Y-19041176D01*
X10229871Y-19031652D01*
X10220348Y-19022129D01*
X10582252Y-19041176D02*
X10582252Y-18841176D01*
X10667967Y-19041176D02*
X10667967Y-18936414D01*
X10658443Y-18917367D01*
X10639395Y-18907843D01*
X10610824Y-18907843D01*
X10591776Y-18917367D01*
X10582252Y-18926890D01*
X10791776Y-19041176D02*
X10772729Y-19031652D01*
X10763205Y-19022129D01*
X10753681Y-19003081D01*
X10753681Y-18945938D01*
X10763205Y-18926890D01*
X10772729Y-18917367D01*
X10791776Y-18907843D01*
X10820348Y-18907843D01*
X10839395Y-18917367D01*
X10848919Y-18926890D01*
X10858443Y-18945938D01*
X10858443Y-19003081D01*
X10848919Y-19022129D01*
X10839395Y-19031652D01*
X10820348Y-19041176D01*
X10791776Y-19041176D01*
X10972729Y-19041176D02*
X10953681Y-19031652D01*
X10944157Y-19012605D01*
X10944157Y-18841176D01*
X11125110Y-19031652D02*
X11106062Y-19041176D01*
X11067967Y-19041176D01*
X11048919Y-19031652D01*
X11039395Y-19012605D01*
X11039395Y-18936414D01*
X11048919Y-18917367D01*
X11067967Y-18907843D01*
X11106062Y-18907843D01*
X11125110Y-18917367D01*
X11134633Y-18936414D01*
X11134633Y-18955462D01*
X11039395Y-18974510D01*
X11210824Y-19031652D02*
X11229871Y-19041176D01*
X11267967Y-19041176D01*
X11287014Y-19031652D01*
X11296538Y-19012605D01*
X11296538Y-19003081D01*
X11287014Y-18984033D01*
X11267967Y-18974510D01*
X11239395Y-18974510D01*
X11220348Y-18964986D01*
X11210824Y-18945938D01*
X11210824Y-18936414D01*
X11220348Y-18917367D01*
X11239395Y-18907843D01*
X11267967Y-18907843D01*
X11287014Y-18917367D01*
X11363205Y-19117367D02*
X11372728Y-19107843D01*
X11391776Y-19079271D01*
X11401300Y-19060224D01*
X11410824Y-19031652D01*
X11420348Y-18984033D01*
X11420348Y-18945938D01*
X11410824Y-18898319D01*
X11401300Y-18869748D01*
X11391776Y-18850700D01*
X11372728Y-18822129D01*
X11363205Y-18812605D01*
D14*
X6553800Y-19177200D02*
X6553800Y-19252200D01*
X6516300Y-19214700D02*
X6591300Y-19214700D01*
D11*
X6887014Y-19105176D02*
X6906062Y-19105176D01*
X6925109Y-19114700D01*
X6934633Y-19124224D01*
X6944157Y-19143271D01*
X6953681Y-19181367D01*
X6953681Y-19228986D01*
X6944157Y-19267081D01*
X6934633Y-19286129D01*
X6925109Y-19295652D01*
X6906062Y-19305176D01*
X6887014Y-19305176D01*
X6867967Y-19295652D01*
X6858443Y-19286129D01*
X6848919Y-19267081D01*
X6839395Y-19228986D01*
X6839395Y-19181367D01*
X6848919Y-19143271D01*
X6858443Y-19124224D01*
X6867967Y-19114700D01*
X6887014Y-19105176D01*
X7039395Y-19286129D02*
X7048919Y-19295652D01*
X7039395Y-19305176D01*
X7029871Y-19295652D01*
X7039395Y-19286129D01*
X7039395Y-19305176D01*
X7115586Y-19105176D02*
X7248919Y-19105176D01*
X7163205Y-19305176D01*
X7420348Y-19105176D02*
X7325109Y-19105176D01*
X7315586Y-19200414D01*
X7325109Y-19190890D01*
X7344157Y-19181367D01*
X7391776Y-19181367D01*
X7410824Y-19190890D01*
X7420348Y-19200414D01*
X7429871Y-19219462D01*
X7429871Y-19267081D01*
X7420348Y-19286129D01*
X7410824Y-19295652D01*
X7391776Y-19305176D01*
X7344157Y-19305176D01*
X7325109Y-19295652D01*
X7315586Y-19286129D01*
X7553681Y-19105176D02*
X7572728Y-19105176D01*
X7591776Y-19114700D01*
X7601300Y-19124224D01*
X7610824Y-19143271D01*
X7620348Y-19181367D01*
X7620348Y-19228986D01*
X7610824Y-19267081D01*
X7601300Y-19286129D01*
X7591776Y-19295652D01*
X7572728Y-19305176D01*
X7553681Y-19305176D01*
X7534633Y-19295652D01*
X7525109Y-19286129D01*
X7515586Y-19267081D01*
X7506062Y-19228986D01*
X7506062Y-19181367D01*
X7515586Y-19143271D01*
X7525109Y-19124224D01*
X7534633Y-19114700D01*
X7553681Y-19105176D01*
X7706062Y-19305176D02*
X7706062Y-19171843D01*
X7706062Y-19190890D02*
X7715586Y-19181367D01*
X7734633Y-19171843D01*
X7763205Y-19171843D01*
X7782252Y-19181367D01*
X7791776Y-19200414D01*
X7791776Y-19305176D01*
X7791776Y-19200414D02*
X7801300Y-19181367D01*
X7820348Y-19171843D01*
X7848919Y-19171843D01*
X7867967Y-19181367D01*
X7877490Y-19200414D01*
X7877490Y-19305176D01*
X7972728Y-19305176D02*
X7972728Y-19171843D01*
X7972728Y-19190890D02*
X7982252Y-19181367D01*
X8001300Y-19171843D01*
X8029871Y-19171843D01*
X8048919Y-19181367D01*
X8058443Y-19200414D01*
X8058443Y-19305176D01*
X8058443Y-19200414D02*
X8067967Y-19181367D01*
X8087014Y-19171843D01*
X8115586Y-19171843D01*
X8134633Y-19181367D01*
X8144157Y-19200414D01*
X8144157Y-19305176D01*
X8534633Y-19095652D02*
X8363205Y-19352795D01*
X8791776Y-19105176D02*
X8810824Y-19105176D01*
X8829871Y-19114700D01*
X8839395Y-19124224D01*
X8848919Y-19143271D01*
X8858443Y-19181367D01*
X8858443Y-19228986D01*
X8848919Y-19267081D01*
X8839395Y-19286129D01*
X8829871Y-19295652D01*
X8810824Y-19305176D01*
X8791776Y-19305176D01*
X8772729Y-19295652D01*
X8763205Y-19286129D01*
X8753681Y-19267081D01*
X8744157Y-19228986D01*
X8744157Y-19181367D01*
X8753681Y-19143271D01*
X8763205Y-19124224D01*
X8772729Y-19114700D01*
X8791776Y-19105176D01*
X8944157Y-19286129D02*
X8953681Y-19295652D01*
X8944157Y-19305176D01*
X8934633Y-19295652D01*
X8944157Y-19286129D01*
X8944157Y-19305176D01*
X9077490Y-19105176D02*
X9096538Y-19105176D01*
X9115586Y-19114700D01*
X9125110Y-19124224D01*
X9134633Y-19143271D01*
X9144157Y-19181367D01*
X9144157Y-19228986D01*
X9134633Y-19267081D01*
X9125110Y-19286129D01*
X9115586Y-19295652D01*
X9096538Y-19305176D01*
X9077490Y-19305176D01*
X9058443Y-19295652D01*
X9048919Y-19286129D01*
X9039395Y-19267081D01*
X9029871Y-19228986D01*
X9029871Y-19181367D01*
X9039395Y-19143271D01*
X9048919Y-19124224D01*
X9058443Y-19114700D01*
X9077490Y-19105176D01*
X9220348Y-19124224D02*
X9229871Y-19114700D01*
X9248919Y-19105176D01*
X9296538Y-19105176D01*
X9315586Y-19114700D01*
X9325110Y-19124224D01*
X9334633Y-19143271D01*
X9334633Y-19162319D01*
X9325110Y-19190890D01*
X9210824Y-19305176D01*
X9334633Y-19305176D01*
X9429871Y-19305176D02*
X9467967Y-19305176D01*
X9487014Y-19295652D01*
X9496538Y-19286129D01*
X9515586Y-19257557D01*
X9525110Y-19219462D01*
X9525110Y-19143271D01*
X9515586Y-19124224D01*
X9506062Y-19114700D01*
X9487014Y-19105176D01*
X9448919Y-19105176D01*
X9429871Y-19114700D01*
X9420348Y-19124224D01*
X9410824Y-19143271D01*
X9410824Y-19190890D01*
X9420348Y-19209938D01*
X9429871Y-19219462D01*
X9448919Y-19228986D01*
X9487014Y-19228986D01*
X9506062Y-19219462D01*
X9515586Y-19209938D01*
X9525110Y-19190890D01*
X9706062Y-19105176D02*
X9610824Y-19105176D01*
X9601300Y-19200414D01*
X9610824Y-19190890D01*
X9629871Y-19181367D01*
X9677490Y-19181367D01*
X9696538Y-19190890D01*
X9706062Y-19200414D01*
X9715586Y-19219462D01*
X9715586Y-19267081D01*
X9706062Y-19286129D01*
X9696538Y-19295652D01*
X9677490Y-19305176D01*
X9629871Y-19305176D01*
X9610824Y-19295652D01*
X9601300Y-19286129D01*
X9791776Y-19105176D02*
X9791776Y-19143271D01*
X9867967Y-19105176D02*
X9867967Y-19143271D01*
X10163205Y-19381367D02*
X10153681Y-19371843D01*
X10134633Y-19343271D01*
X10125110Y-19324224D01*
X10115586Y-19295652D01*
X10106062Y-19248033D01*
X10106062Y-19209938D01*
X10115586Y-19162319D01*
X10125110Y-19133748D01*
X10134633Y-19114700D01*
X10153681Y-19086129D01*
X10163205Y-19076605D01*
X10325110Y-19105176D02*
X10287014Y-19105176D01*
X10267967Y-19114700D01*
X10258443Y-19124224D01*
X10239395Y-19152795D01*
X10229871Y-19190890D01*
X10229871Y-19267081D01*
X10239395Y-19286129D01*
X10248919Y-19295652D01*
X10267967Y-19305176D01*
X10306062Y-19305176D01*
X10325110Y-19295652D01*
X10334633Y-19286129D01*
X10344157Y-19267081D01*
X10344157Y-19219462D01*
X10334633Y-19200414D01*
X10325110Y-19190890D01*
X10306062Y-19181367D01*
X10267967Y-19181367D01*
X10248919Y-19190890D01*
X10239395Y-19200414D01*
X10229871Y-19219462D01*
X10582252Y-19305176D02*
X10582252Y-19105176D01*
X10667967Y-19305176D02*
X10667967Y-19200414D01*
X10658443Y-19181367D01*
X10639395Y-19171843D01*
X10610824Y-19171843D01*
X10591776Y-19181367D01*
X10582252Y-19190890D01*
X10791776Y-19305176D02*
X10772729Y-19295652D01*
X10763205Y-19286129D01*
X10753681Y-19267081D01*
X10753681Y-19209938D01*
X10763205Y-19190890D01*
X10772729Y-19181367D01*
X10791776Y-19171843D01*
X10820348Y-19171843D01*
X10839395Y-19181367D01*
X10848919Y-19190890D01*
X10858443Y-19209938D01*
X10858443Y-19267081D01*
X10848919Y-19286129D01*
X10839395Y-19295652D01*
X10820348Y-19305176D01*
X10791776Y-19305176D01*
X10972729Y-19305176D02*
X10953681Y-19295652D01*
X10944157Y-19276605D01*
X10944157Y-19105176D01*
X11125110Y-19295652D02*
X11106062Y-19305176D01*
X11067967Y-19305176D01*
X11048919Y-19295652D01*
X11039395Y-19276605D01*
X11039395Y-19200414D01*
X11048919Y-19181367D01*
X11067967Y-19171843D01*
X11106062Y-19171843D01*
X11125110Y-19181367D01*
X11134633Y-19200414D01*
X11134633Y-19219462D01*
X11039395Y-19238510D01*
X11210824Y-19295652D02*
X11229871Y-19305176D01*
X11267967Y-19305176D01*
X11287014Y-19295652D01*
X11296538Y-19276605D01*
X11296538Y-19267081D01*
X11287014Y-19248033D01*
X11267967Y-19238510D01*
X11239395Y-19238510D01*
X11220348Y-19228986D01*
X11210824Y-19209938D01*
X11210824Y-19200414D01*
X11220348Y-19181367D01*
X11239395Y-19171843D01*
X11267967Y-19171843D01*
X11287014Y-19181367D01*
X11363205Y-19381367D02*
X11372728Y-19371843D01*
X11391776Y-19343271D01*
X11401300Y-19324224D01*
X11410824Y-19295652D01*
X11420348Y-19248033D01*
X11420348Y-19209938D01*
X11410824Y-19162319D01*
X11401300Y-19133748D01*
X11391776Y-19114700D01*
X11372728Y-19086129D01*
X11363205Y-19076605D01*
D15*
X6580141Y-19505641D02*
X6580141Y-19451759D01*
X6526259Y-19451759D01*
X6526259Y-19505641D01*
X6580141Y-19505641D01*
D11*
X6887014Y-19369176D02*
X6906062Y-19369176D01*
X6925109Y-19378700D01*
X6934633Y-19388224D01*
X6944157Y-19407271D01*
X6953681Y-19445367D01*
X6953681Y-19492986D01*
X6944157Y-19531081D01*
X6934633Y-19550129D01*
X6925109Y-19559652D01*
X6906062Y-19569176D01*
X6887014Y-19569176D01*
X6867967Y-19559652D01*
X6858443Y-19550129D01*
X6848919Y-19531081D01*
X6839395Y-19492986D01*
X6839395Y-19445367D01*
X6848919Y-19407271D01*
X6858443Y-19388224D01*
X6867967Y-19378700D01*
X6887014Y-19369176D01*
X7039395Y-19550129D02*
X7048919Y-19559652D01*
X7039395Y-19569176D01*
X7029871Y-19559652D01*
X7039395Y-19550129D01*
X7039395Y-19569176D01*
X7115586Y-19369176D02*
X7248919Y-19369176D01*
X7163205Y-19569176D01*
X7410824Y-19369176D02*
X7372728Y-19369176D01*
X7353681Y-19378700D01*
X7344157Y-19388224D01*
X7325109Y-19416795D01*
X7315586Y-19454890D01*
X7315586Y-19531081D01*
X7325109Y-19550129D01*
X7334633Y-19559652D01*
X7353681Y-19569176D01*
X7391776Y-19569176D01*
X7410824Y-19559652D01*
X7420348Y-19550129D01*
X7429871Y-19531081D01*
X7429871Y-19483462D01*
X7420348Y-19464414D01*
X7410824Y-19454890D01*
X7391776Y-19445367D01*
X7353681Y-19445367D01*
X7334633Y-19454890D01*
X7325109Y-19464414D01*
X7315586Y-19483462D01*
X7506062Y-19388224D02*
X7515586Y-19378700D01*
X7534633Y-19369176D01*
X7582252Y-19369176D01*
X7601300Y-19378700D01*
X7610824Y-19388224D01*
X7620348Y-19407271D01*
X7620348Y-19426319D01*
X7610824Y-19454890D01*
X7496538Y-19569176D01*
X7620348Y-19569176D01*
X7706062Y-19569176D02*
X7706062Y-19435843D01*
X7706062Y-19454890D02*
X7715586Y-19445367D01*
X7734633Y-19435843D01*
X7763205Y-19435843D01*
X7782252Y-19445367D01*
X7791776Y-19464414D01*
X7791776Y-19569176D01*
X7791776Y-19464414D02*
X7801300Y-19445367D01*
X7820348Y-19435843D01*
X7848919Y-19435843D01*
X7867967Y-19445367D01*
X7877490Y-19464414D01*
X7877490Y-19569176D01*
X7972728Y-19569176D02*
X7972728Y-19435843D01*
X7972728Y-19454890D02*
X7982252Y-19445367D01*
X8001300Y-19435843D01*
X8029871Y-19435843D01*
X8048919Y-19445367D01*
X8058443Y-19464414D01*
X8058443Y-19569176D01*
X8058443Y-19464414D02*
X8067967Y-19445367D01*
X8087014Y-19435843D01*
X8115586Y-19435843D01*
X8134633Y-19445367D01*
X8144157Y-19464414D01*
X8144157Y-19569176D01*
X8534633Y-19359652D02*
X8363205Y-19616795D01*
X8791776Y-19369176D02*
X8810824Y-19369176D01*
X8829871Y-19378700D01*
X8839395Y-19388224D01*
X8848919Y-19407271D01*
X8858443Y-19445367D01*
X8858443Y-19492986D01*
X8848919Y-19531081D01*
X8839395Y-19550129D01*
X8829871Y-19559652D01*
X8810824Y-19569176D01*
X8791776Y-19569176D01*
X8772729Y-19559652D01*
X8763205Y-19550129D01*
X8753681Y-19531081D01*
X8744157Y-19492986D01*
X8744157Y-19445367D01*
X8753681Y-19407271D01*
X8763205Y-19388224D01*
X8772729Y-19378700D01*
X8791776Y-19369176D01*
X8944157Y-19550129D02*
X8953681Y-19559652D01*
X8944157Y-19569176D01*
X8934633Y-19559652D01*
X8944157Y-19550129D01*
X8944157Y-19569176D01*
X9077490Y-19369176D02*
X9096538Y-19369176D01*
X9115586Y-19378700D01*
X9125110Y-19388224D01*
X9134633Y-19407271D01*
X9144157Y-19445367D01*
X9144157Y-19492986D01*
X9134633Y-19531081D01*
X9125110Y-19550129D01*
X9115586Y-19559652D01*
X9096538Y-19569176D01*
X9077490Y-19569176D01*
X9058443Y-19559652D01*
X9048919Y-19550129D01*
X9039395Y-19531081D01*
X9029871Y-19492986D01*
X9029871Y-19445367D01*
X9039395Y-19407271D01*
X9048919Y-19388224D01*
X9058443Y-19378700D01*
X9077490Y-19369176D01*
X9210824Y-19369176D02*
X9334633Y-19369176D01*
X9267967Y-19445367D01*
X9296538Y-19445367D01*
X9315586Y-19454890D01*
X9325110Y-19464414D01*
X9334633Y-19483462D01*
X9334633Y-19531081D01*
X9325110Y-19550129D01*
X9315586Y-19559652D01*
X9296538Y-19569176D01*
X9239395Y-19569176D01*
X9220348Y-19559652D01*
X9210824Y-19550129D01*
X9458443Y-19369176D02*
X9477490Y-19369176D01*
X9496538Y-19378700D01*
X9506062Y-19388224D01*
X9515586Y-19407271D01*
X9525110Y-19445367D01*
X9525110Y-19492986D01*
X9515586Y-19531081D01*
X9506062Y-19550129D01*
X9496538Y-19559652D01*
X9477490Y-19569176D01*
X9458443Y-19569176D01*
X9439395Y-19559652D01*
X9429871Y-19550129D01*
X9420348Y-19531081D01*
X9410824Y-19492986D01*
X9410824Y-19445367D01*
X9420348Y-19407271D01*
X9429871Y-19388224D01*
X9439395Y-19378700D01*
X9458443Y-19369176D01*
X9648919Y-19369176D02*
X9667967Y-19369176D01*
X9687014Y-19378700D01*
X9696538Y-19388224D01*
X9706062Y-19407271D01*
X9715586Y-19445367D01*
X9715586Y-19492986D01*
X9706062Y-19531081D01*
X9696538Y-19550129D01*
X9687014Y-19559652D01*
X9667967Y-19569176D01*
X9648919Y-19569176D01*
X9629871Y-19559652D01*
X9620348Y-19550129D01*
X9610824Y-19531081D01*
X9601300Y-19492986D01*
X9601300Y-19445367D01*
X9610824Y-19407271D01*
X9620348Y-19388224D01*
X9629871Y-19378700D01*
X9648919Y-19369176D01*
X9791776Y-19369176D02*
X9791776Y-19407271D01*
X9867967Y-19369176D02*
X9867967Y-19407271D01*
X10163205Y-19645367D02*
X10153681Y-19635843D01*
X10134633Y-19607271D01*
X10125110Y-19588224D01*
X10115586Y-19559652D01*
X10106062Y-19512033D01*
X10106062Y-19473938D01*
X10115586Y-19426319D01*
X10125110Y-19397748D01*
X10134633Y-19378700D01*
X10153681Y-19350129D01*
X10163205Y-19340605D01*
X10220348Y-19369176D02*
X10344157Y-19369176D01*
X10277490Y-19445367D01*
X10306062Y-19445367D01*
X10325110Y-19454890D01*
X10334633Y-19464414D01*
X10344157Y-19483462D01*
X10344157Y-19531081D01*
X10334633Y-19550129D01*
X10325110Y-19559652D01*
X10306062Y-19569176D01*
X10248919Y-19569176D01*
X10229871Y-19559652D01*
X10220348Y-19550129D01*
X10458443Y-19454890D02*
X10439395Y-19445367D01*
X10429871Y-19435843D01*
X10420348Y-19416795D01*
X10420348Y-19407271D01*
X10429871Y-19388224D01*
X10439395Y-19378700D01*
X10458443Y-19369176D01*
X10496538Y-19369176D01*
X10515586Y-19378700D01*
X10525110Y-19388224D01*
X10534633Y-19407271D01*
X10534633Y-19416795D01*
X10525110Y-19435843D01*
X10515586Y-19445367D01*
X10496538Y-19454890D01*
X10458443Y-19454890D01*
X10439395Y-19464414D01*
X10429871Y-19473938D01*
X10420348Y-19492986D01*
X10420348Y-19531081D01*
X10429871Y-19550129D01*
X10439395Y-19559652D01*
X10458443Y-19569176D01*
X10496538Y-19569176D01*
X10515586Y-19559652D01*
X10525110Y-19550129D01*
X10534633Y-19531081D01*
X10534633Y-19492986D01*
X10525110Y-19473938D01*
X10515586Y-19464414D01*
X10496538Y-19454890D01*
X10772729Y-19569176D02*
X10772729Y-19369176D01*
X10858443Y-19569176D02*
X10858443Y-19464414D01*
X10848919Y-19445367D01*
X10829871Y-19435843D01*
X10801300Y-19435843D01*
X10782252Y-19445367D01*
X10772729Y-19454890D01*
X10982252Y-19569176D02*
X10963205Y-19559652D01*
X10953681Y-19550129D01*
X10944157Y-19531081D01*
X10944157Y-19473938D01*
X10953681Y-19454890D01*
X10963205Y-19445367D01*
X10982252Y-19435843D01*
X11010824Y-19435843D01*
X11029871Y-19445367D01*
X11039395Y-19454890D01*
X11048919Y-19473938D01*
X11048919Y-19531081D01*
X11039395Y-19550129D01*
X11029871Y-19559652D01*
X11010824Y-19569176D01*
X10982252Y-19569176D01*
X11163205Y-19569176D02*
X11144157Y-19559652D01*
X11134633Y-19540605D01*
X11134633Y-19369176D01*
X11315586Y-19559652D02*
X11296538Y-19569176D01*
X11258443Y-19569176D01*
X11239395Y-19559652D01*
X11229871Y-19540605D01*
X11229871Y-19464414D01*
X11239395Y-19445367D01*
X11258443Y-19435843D01*
X11296538Y-19435843D01*
X11315586Y-19445367D01*
X11325109Y-19464414D01*
X11325109Y-19483462D01*
X11229871Y-19502510D01*
X11401300Y-19559652D02*
X11420348Y-19569176D01*
X11458443Y-19569176D01*
X11477490Y-19559652D01*
X11487014Y-19540605D01*
X11487014Y-19531081D01*
X11477490Y-19512033D01*
X11458443Y-19502510D01*
X11429871Y-19502510D01*
X11410824Y-19492986D01*
X11401300Y-19473938D01*
X11401300Y-19464414D01*
X11410824Y-19445367D01*
X11429871Y-19435843D01*
X11458443Y-19435843D01*
X11477490Y-19445367D01*
X11553681Y-19645367D02*
X11563205Y-19635843D01*
X11582252Y-19607271D01*
X11591776Y-19588224D01*
X11601300Y-19559652D01*
X11610824Y-19512033D01*
X11610824Y-19473938D01*
X11601300Y-19426319D01*
X11591776Y-19397748D01*
X11582252Y-19378700D01*
X11563205Y-19350129D01*
X11553681Y-19340605D01*
D16*
X6551300Y-19782700D02*
X6591300Y-19742700D01*
X6551300Y-19702700D01*
X6511300Y-19742700D01*
X6551300Y-19782700D01*
D11*
X6887014Y-19633176D02*
X6906062Y-19633176D01*
X6925109Y-19642700D01*
X6934633Y-19652224D01*
X6944157Y-19671271D01*
X6953681Y-19709367D01*
X6953681Y-19756986D01*
X6944157Y-19795081D01*
X6934633Y-19814129D01*
X6925109Y-19823652D01*
X6906062Y-19833176D01*
X6887014Y-19833176D01*
X6867967Y-19823652D01*
X6858443Y-19814129D01*
X6848919Y-19795081D01*
X6839395Y-19756986D01*
X6839395Y-19709367D01*
X6848919Y-19671271D01*
X6858443Y-19652224D01*
X6867967Y-19642700D01*
X6887014Y-19633176D01*
X7039395Y-19814129D02*
X7048919Y-19823652D01*
X7039395Y-19833176D01*
X7029871Y-19823652D01*
X7039395Y-19814129D01*
X7039395Y-19833176D01*
X7163205Y-19718890D02*
X7144157Y-19709367D01*
X7134633Y-19699843D01*
X7125109Y-19680795D01*
X7125109Y-19671271D01*
X7134633Y-19652224D01*
X7144157Y-19642700D01*
X7163205Y-19633176D01*
X7201300Y-19633176D01*
X7220348Y-19642700D01*
X7229871Y-19652224D01*
X7239395Y-19671271D01*
X7239395Y-19680795D01*
X7229871Y-19699843D01*
X7220348Y-19709367D01*
X7201300Y-19718890D01*
X7163205Y-19718890D01*
X7144157Y-19728414D01*
X7134633Y-19737938D01*
X7125109Y-19756986D01*
X7125109Y-19795081D01*
X7134633Y-19814129D01*
X7144157Y-19823652D01*
X7163205Y-19833176D01*
X7201300Y-19833176D01*
X7220348Y-19823652D01*
X7229871Y-19814129D01*
X7239395Y-19795081D01*
X7239395Y-19756986D01*
X7229871Y-19737938D01*
X7220348Y-19728414D01*
X7201300Y-19718890D01*
X7363205Y-19633176D02*
X7382252Y-19633176D01*
X7401300Y-19642700D01*
X7410824Y-19652224D01*
X7420348Y-19671271D01*
X7429871Y-19709367D01*
X7429871Y-19756986D01*
X7420348Y-19795081D01*
X7410824Y-19814129D01*
X7401300Y-19823652D01*
X7382252Y-19833176D01*
X7363205Y-19833176D01*
X7344157Y-19823652D01*
X7334633Y-19814129D01*
X7325109Y-19795081D01*
X7315586Y-19756986D01*
X7315586Y-19709367D01*
X7325109Y-19671271D01*
X7334633Y-19652224D01*
X7344157Y-19642700D01*
X7363205Y-19633176D01*
X7553681Y-19633176D02*
X7572728Y-19633176D01*
X7591776Y-19642700D01*
X7601300Y-19652224D01*
X7610824Y-19671271D01*
X7620348Y-19709367D01*
X7620348Y-19756986D01*
X7610824Y-19795081D01*
X7601300Y-19814129D01*
X7591776Y-19823652D01*
X7572728Y-19833176D01*
X7553681Y-19833176D01*
X7534633Y-19823652D01*
X7525109Y-19814129D01*
X7515586Y-19795081D01*
X7506062Y-19756986D01*
X7506062Y-19709367D01*
X7515586Y-19671271D01*
X7525109Y-19652224D01*
X7534633Y-19642700D01*
X7553681Y-19633176D01*
X7706062Y-19833176D02*
X7706062Y-19699843D01*
X7706062Y-19718890D02*
X7715586Y-19709367D01*
X7734633Y-19699843D01*
X7763205Y-19699843D01*
X7782252Y-19709367D01*
X7791776Y-19728414D01*
X7791776Y-19833176D01*
X7791776Y-19728414D02*
X7801300Y-19709367D01*
X7820348Y-19699843D01*
X7848919Y-19699843D01*
X7867967Y-19709367D01*
X7877490Y-19728414D01*
X7877490Y-19833176D01*
X7972728Y-19833176D02*
X7972728Y-19699843D01*
X7972728Y-19718890D02*
X7982252Y-19709367D01*
X8001300Y-19699843D01*
X8029871Y-19699843D01*
X8048919Y-19709367D01*
X8058443Y-19728414D01*
X8058443Y-19833176D01*
X8058443Y-19728414D02*
X8067967Y-19709367D01*
X8087014Y-19699843D01*
X8115586Y-19699843D01*
X8134633Y-19709367D01*
X8144157Y-19728414D01*
X8144157Y-19833176D01*
X8534633Y-19623652D02*
X8363205Y-19880795D01*
X8791776Y-19633176D02*
X8810824Y-19633176D01*
X8829871Y-19642700D01*
X8839395Y-19652224D01*
X8848919Y-19671271D01*
X8858443Y-19709367D01*
X8858443Y-19756986D01*
X8848919Y-19795081D01*
X8839395Y-19814129D01*
X8829871Y-19823652D01*
X8810824Y-19833176D01*
X8791776Y-19833176D01*
X8772729Y-19823652D01*
X8763205Y-19814129D01*
X8753681Y-19795081D01*
X8744157Y-19756986D01*
X8744157Y-19709367D01*
X8753681Y-19671271D01*
X8763205Y-19652224D01*
X8772729Y-19642700D01*
X8791776Y-19633176D01*
X8944157Y-19814129D02*
X8953681Y-19823652D01*
X8944157Y-19833176D01*
X8934633Y-19823652D01*
X8944157Y-19814129D01*
X8944157Y-19833176D01*
X9077490Y-19633176D02*
X9096538Y-19633176D01*
X9115586Y-19642700D01*
X9125110Y-19652224D01*
X9134633Y-19671271D01*
X9144157Y-19709367D01*
X9144157Y-19756986D01*
X9134633Y-19795081D01*
X9125110Y-19814129D01*
X9115586Y-19823652D01*
X9096538Y-19833176D01*
X9077490Y-19833176D01*
X9058443Y-19823652D01*
X9048919Y-19814129D01*
X9039395Y-19795081D01*
X9029871Y-19756986D01*
X9029871Y-19709367D01*
X9039395Y-19671271D01*
X9048919Y-19652224D01*
X9058443Y-19642700D01*
X9077490Y-19633176D01*
X9210824Y-19633176D02*
X9334633Y-19633176D01*
X9267967Y-19709367D01*
X9296538Y-19709367D01*
X9315586Y-19718890D01*
X9325110Y-19728414D01*
X9334633Y-19747462D01*
X9334633Y-19795081D01*
X9325110Y-19814129D01*
X9315586Y-19823652D01*
X9296538Y-19833176D01*
X9239395Y-19833176D01*
X9220348Y-19823652D01*
X9210824Y-19814129D01*
X9525110Y-19833176D02*
X9410824Y-19833176D01*
X9467967Y-19833176D02*
X9467967Y-19633176D01*
X9448919Y-19661748D01*
X9429871Y-19680795D01*
X9410824Y-19690319D01*
X9706062Y-19633176D02*
X9610824Y-19633176D01*
X9601300Y-19728414D01*
X9610824Y-19718890D01*
X9629871Y-19709367D01*
X9677490Y-19709367D01*
X9696538Y-19718890D01*
X9706062Y-19728414D01*
X9715586Y-19747462D01*
X9715586Y-19795081D01*
X9706062Y-19814129D01*
X9696538Y-19823652D01*
X9677490Y-19833176D01*
X9629871Y-19833176D01*
X9610824Y-19823652D01*
X9601300Y-19814129D01*
X9791776Y-19633176D02*
X9791776Y-19671271D01*
X9867967Y-19633176D02*
X9867967Y-19671271D01*
X10163205Y-19909367D02*
X10153681Y-19899843D01*
X10134633Y-19871271D01*
X10125110Y-19852224D01*
X10115586Y-19823652D01*
X10106062Y-19776033D01*
X10106062Y-19737938D01*
X10115586Y-19690319D01*
X10125110Y-19661748D01*
X10134633Y-19642700D01*
X10153681Y-19614129D01*
X10163205Y-19604605D01*
X10325110Y-19699843D02*
X10325110Y-19833176D01*
X10277490Y-19623652D02*
X10229871Y-19766510D01*
X10353681Y-19766510D01*
X10582252Y-19833176D02*
X10582252Y-19633176D01*
X10667967Y-19833176D02*
X10667967Y-19728414D01*
X10658443Y-19709367D01*
X10639395Y-19699843D01*
X10610824Y-19699843D01*
X10591776Y-19709367D01*
X10582252Y-19718890D01*
X10791776Y-19833176D02*
X10772729Y-19823652D01*
X10763205Y-19814129D01*
X10753681Y-19795081D01*
X10753681Y-19737938D01*
X10763205Y-19718890D01*
X10772729Y-19709367D01*
X10791776Y-19699843D01*
X10820348Y-19699843D01*
X10839395Y-19709367D01*
X10848919Y-19718890D01*
X10858443Y-19737938D01*
X10858443Y-19795081D01*
X10848919Y-19814129D01*
X10839395Y-19823652D01*
X10820348Y-19833176D01*
X10791776Y-19833176D01*
X10972729Y-19833176D02*
X10953681Y-19823652D01*
X10944157Y-19804605D01*
X10944157Y-19633176D01*
X11125110Y-19823652D02*
X11106062Y-19833176D01*
X11067967Y-19833176D01*
X11048919Y-19823652D01*
X11039395Y-19804605D01*
X11039395Y-19728414D01*
X11048919Y-19709367D01*
X11067967Y-19699843D01*
X11106062Y-19699843D01*
X11125110Y-19709367D01*
X11134633Y-19728414D01*
X11134633Y-19747462D01*
X11039395Y-19766510D01*
X11210824Y-19823652D02*
X11229871Y-19833176D01*
X11267967Y-19833176D01*
X11287014Y-19823652D01*
X11296538Y-19804605D01*
X11296538Y-19795081D01*
X11287014Y-19776033D01*
X11267967Y-19766510D01*
X11239395Y-19766510D01*
X11220348Y-19756986D01*
X11210824Y-19737938D01*
X11210824Y-19728414D01*
X11220348Y-19709367D01*
X11239395Y-19699843D01*
X11267967Y-19699843D01*
X11287014Y-19709367D01*
X11363205Y-19909367D02*
X11372728Y-19899843D01*
X11391776Y-19871271D01*
X11401300Y-19852224D01*
X11410824Y-19823652D01*
X11420348Y-19776033D01*
X11420348Y-19737938D01*
X11410824Y-19690319D01*
X11401300Y-19661748D01*
X11391776Y-19642700D01*
X11372728Y-19614129D01*
X11363205Y-19604605D01*
D17*
X6491300Y-19956700D02*
X6591300Y-20056700D01*
X6591300Y-19956700D02*
X6491300Y-20056700D01*
X6591300Y-20006700D02*
G75*
G03*
X6591300Y-20006700I-50000J0D01*
G01*
D11*
X6953681Y-20097176D02*
X6839395Y-20097176D01*
X6896538Y-20097176D02*
X6896538Y-19897176D01*
X6877490Y-19925748D01*
X6858443Y-19944795D01*
X6839395Y-19954319D01*
X7039395Y-20078129D02*
X7048919Y-20087652D01*
X7039395Y-20097176D01*
X7029871Y-20087652D01*
X7039395Y-20078129D01*
X7039395Y-20097176D01*
X7172728Y-19897176D02*
X7191776Y-19897176D01*
X7210824Y-19906700D01*
X7220348Y-19916224D01*
X7229871Y-19935271D01*
X7239395Y-19973367D01*
X7239395Y-20020986D01*
X7229871Y-20059081D01*
X7220348Y-20078129D01*
X7210824Y-20087652D01*
X7191776Y-20097176D01*
X7172728Y-20097176D01*
X7153681Y-20087652D01*
X7144157Y-20078129D01*
X7134633Y-20059081D01*
X7125109Y-20020986D01*
X7125109Y-19973367D01*
X7134633Y-19935271D01*
X7144157Y-19916224D01*
X7153681Y-19906700D01*
X7172728Y-19897176D01*
X7363205Y-19897176D02*
X7382252Y-19897176D01*
X7401300Y-19906700D01*
X7410824Y-19916224D01*
X7420348Y-19935271D01*
X7429871Y-19973367D01*
X7429871Y-20020986D01*
X7420348Y-20059081D01*
X7410824Y-20078129D01*
X7401300Y-20087652D01*
X7382252Y-20097176D01*
X7363205Y-20097176D01*
X7344157Y-20087652D01*
X7334633Y-20078129D01*
X7325109Y-20059081D01*
X7315586Y-20020986D01*
X7315586Y-19973367D01*
X7325109Y-19935271D01*
X7334633Y-19916224D01*
X7344157Y-19906700D01*
X7363205Y-19897176D01*
X7553681Y-19897176D02*
X7572728Y-19897176D01*
X7591776Y-19906700D01*
X7601300Y-19916224D01*
X7610824Y-19935271D01*
X7620348Y-19973367D01*
X7620348Y-20020986D01*
X7610824Y-20059081D01*
X7601300Y-20078129D01*
X7591776Y-20087652D01*
X7572728Y-20097176D01*
X7553681Y-20097176D01*
X7534633Y-20087652D01*
X7525109Y-20078129D01*
X7515586Y-20059081D01*
X7506062Y-20020986D01*
X7506062Y-19973367D01*
X7515586Y-19935271D01*
X7525109Y-19916224D01*
X7534633Y-19906700D01*
X7553681Y-19897176D01*
X7706062Y-20097176D02*
X7706062Y-19963843D01*
X7706062Y-19982890D02*
X7715586Y-19973367D01*
X7734633Y-19963843D01*
X7763205Y-19963843D01*
X7782252Y-19973367D01*
X7791776Y-19992414D01*
X7791776Y-20097176D01*
X7791776Y-19992414D02*
X7801300Y-19973367D01*
X7820348Y-19963843D01*
X7848919Y-19963843D01*
X7867967Y-19973367D01*
X7877490Y-19992414D01*
X7877490Y-20097176D01*
X7972728Y-20097176D02*
X7972728Y-19963843D01*
X7972728Y-19982890D02*
X7982252Y-19973367D01*
X8001300Y-19963843D01*
X8029871Y-19963843D01*
X8048919Y-19973367D01*
X8058443Y-19992414D01*
X8058443Y-20097176D01*
X8058443Y-19992414D02*
X8067967Y-19973367D01*
X8087014Y-19963843D01*
X8115586Y-19963843D01*
X8134633Y-19973367D01*
X8144157Y-19992414D01*
X8144157Y-20097176D01*
X8534633Y-19887652D02*
X8363205Y-20144795D01*
X8791776Y-19897176D02*
X8810824Y-19897176D01*
X8829871Y-19906700D01*
X8839395Y-19916224D01*
X8848919Y-19935271D01*
X8858443Y-19973367D01*
X8858443Y-20020986D01*
X8848919Y-20059081D01*
X8839395Y-20078129D01*
X8829871Y-20087652D01*
X8810824Y-20097176D01*
X8791776Y-20097176D01*
X8772729Y-20087652D01*
X8763205Y-20078129D01*
X8753681Y-20059081D01*
X8744157Y-20020986D01*
X8744157Y-19973367D01*
X8753681Y-19935271D01*
X8763205Y-19916224D01*
X8772729Y-19906700D01*
X8791776Y-19897176D01*
X8944157Y-20078129D02*
X8953681Y-20087652D01*
X8944157Y-20097176D01*
X8934633Y-20087652D01*
X8944157Y-20078129D01*
X8944157Y-20097176D01*
X9077490Y-19897176D02*
X9096538Y-19897176D01*
X9115586Y-19906700D01*
X9125110Y-19916224D01*
X9134633Y-19935271D01*
X9144157Y-19973367D01*
X9144157Y-20020986D01*
X9134633Y-20059081D01*
X9125110Y-20078129D01*
X9115586Y-20087652D01*
X9096538Y-20097176D01*
X9077490Y-20097176D01*
X9058443Y-20087652D01*
X9048919Y-20078129D01*
X9039395Y-20059081D01*
X9029871Y-20020986D01*
X9029871Y-19973367D01*
X9039395Y-19935271D01*
X9048919Y-19916224D01*
X9058443Y-19906700D01*
X9077490Y-19897176D01*
X9210824Y-19897176D02*
X9334633Y-19897176D01*
X9267967Y-19973367D01*
X9296538Y-19973367D01*
X9315586Y-19982890D01*
X9325110Y-19992414D01*
X9334633Y-20011462D01*
X9334633Y-20059081D01*
X9325110Y-20078129D01*
X9315586Y-20087652D01*
X9296538Y-20097176D01*
X9239395Y-20097176D01*
X9220348Y-20087652D01*
X9210824Y-20078129D01*
X9429871Y-20097176D02*
X9467967Y-20097176D01*
X9487014Y-20087652D01*
X9496538Y-20078129D01*
X9515586Y-20049557D01*
X9525110Y-20011462D01*
X9525110Y-19935271D01*
X9515586Y-19916224D01*
X9506062Y-19906700D01*
X9487014Y-19897176D01*
X9448919Y-19897176D01*
X9429871Y-19906700D01*
X9420348Y-19916224D01*
X9410824Y-19935271D01*
X9410824Y-19982890D01*
X9420348Y-20001938D01*
X9429871Y-20011462D01*
X9448919Y-20020986D01*
X9487014Y-20020986D01*
X9506062Y-20011462D01*
X9515586Y-20001938D01*
X9525110Y-19982890D01*
X9696538Y-19963843D02*
X9696538Y-20097176D01*
X9648919Y-19887652D02*
X9601300Y-20030510D01*
X9725110Y-20030510D01*
X9791776Y-19897176D02*
X9791776Y-19935271D01*
X9867967Y-19897176D02*
X9867967Y-19935271D01*
X10163205Y-20173367D02*
X10153681Y-20163843D01*
X10134633Y-20135271D01*
X10125110Y-20116224D01*
X10115586Y-20087652D01*
X10106062Y-20040033D01*
X10106062Y-20001938D01*
X10115586Y-19954319D01*
X10125110Y-19925748D01*
X10134633Y-19906700D01*
X10153681Y-19878129D01*
X10163205Y-19868605D01*
X10220348Y-19897176D02*
X10353681Y-19897176D01*
X10267967Y-20097176D01*
X10439395Y-20097176D02*
X10477490Y-20097176D01*
X10496538Y-20087652D01*
X10506062Y-20078129D01*
X10525110Y-20049557D01*
X10534633Y-20011462D01*
X10534633Y-19935271D01*
X10525110Y-19916224D01*
X10515586Y-19906700D01*
X10496538Y-19897176D01*
X10458443Y-19897176D01*
X10439395Y-19906700D01*
X10429871Y-19916224D01*
X10420348Y-19935271D01*
X10420348Y-19982890D01*
X10429871Y-20001938D01*
X10439395Y-20011462D01*
X10458443Y-20020986D01*
X10496538Y-20020986D01*
X10515586Y-20011462D01*
X10525110Y-20001938D01*
X10534633Y-19982890D01*
X10772729Y-20097176D02*
X10772729Y-19897176D01*
X10858443Y-20097176D02*
X10858443Y-19992414D01*
X10848919Y-19973367D01*
X10829871Y-19963843D01*
X10801300Y-19963843D01*
X10782252Y-19973367D01*
X10772729Y-19982890D01*
X10982252Y-20097176D02*
X10963205Y-20087652D01*
X10953681Y-20078129D01*
X10944157Y-20059081D01*
X10944157Y-20001938D01*
X10953681Y-19982890D01*
X10963205Y-19973367D01*
X10982252Y-19963843D01*
X11010824Y-19963843D01*
X11029871Y-19973367D01*
X11039395Y-19982890D01*
X11048919Y-20001938D01*
X11048919Y-20059081D01*
X11039395Y-20078129D01*
X11029871Y-20087652D01*
X11010824Y-20097176D01*
X10982252Y-20097176D01*
X11163205Y-20097176D02*
X11144157Y-20087652D01*
X11134633Y-20068605D01*
X11134633Y-19897176D01*
X11315586Y-20087652D02*
X11296538Y-20097176D01*
X11258443Y-20097176D01*
X11239395Y-20087652D01*
X11229871Y-20068605D01*
X11229871Y-19992414D01*
X11239395Y-19973367D01*
X11258443Y-19963843D01*
X11296538Y-19963843D01*
X11315586Y-19973367D01*
X11325109Y-19992414D01*
X11325109Y-20011462D01*
X11229871Y-20030510D01*
X11401300Y-20087652D02*
X11420348Y-20097176D01*
X11458443Y-20097176D01*
X11477490Y-20087652D01*
X11487014Y-20068605D01*
X11487014Y-20059081D01*
X11477490Y-20040033D01*
X11458443Y-20030510D01*
X11429871Y-20030510D01*
X11410824Y-20020986D01*
X11401300Y-20001938D01*
X11401300Y-19992414D01*
X11410824Y-19973367D01*
X11429871Y-19963843D01*
X11458443Y-19963843D01*
X11477490Y-19973367D01*
X11553681Y-20173367D02*
X11563205Y-20163843D01*
X11582252Y-20135271D01*
X11591776Y-20116224D01*
X11601300Y-20087652D01*
X11610824Y-20040033D01*
X11610824Y-20001938D01*
X11601300Y-19954319D01*
X11591776Y-19925748D01*
X11582252Y-19906700D01*
X11563205Y-19878129D01*
X11553681Y-19868605D01*
D18*
X6481300Y-20215700D02*
X6591300Y-20325700D01*
X6591300Y-20215700D02*
X6481300Y-20325700D01*
X6536300Y-20215700D02*
X6536300Y-20325700D01*
X6481300Y-20270700D02*
X6591300Y-20270700D01*
D11*
X6953681Y-20361176D02*
X6839395Y-20361176D01*
X6896538Y-20361176D02*
X6896538Y-20161176D01*
X6877490Y-20189748D01*
X6858443Y-20208795D01*
X6839395Y-20218319D01*
X7039395Y-20342129D02*
X7048919Y-20351652D01*
X7039395Y-20361176D01*
X7029871Y-20351652D01*
X7039395Y-20342129D01*
X7039395Y-20361176D01*
X7239395Y-20361176D02*
X7125109Y-20361176D01*
X7182252Y-20361176D02*
X7182252Y-20161176D01*
X7163205Y-20189748D01*
X7144157Y-20208795D01*
X7125109Y-20218319D01*
X7363205Y-20161176D02*
X7382252Y-20161176D01*
X7401300Y-20170700D01*
X7410824Y-20180224D01*
X7420348Y-20199271D01*
X7429871Y-20237367D01*
X7429871Y-20284986D01*
X7420348Y-20323081D01*
X7410824Y-20342129D01*
X7401300Y-20351652D01*
X7382252Y-20361176D01*
X7363205Y-20361176D01*
X7344157Y-20351652D01*
X7334633Y-20342129D01*
X7325109Y-20323081D01*
X7315586Y-20284986D01*
X7315586Y-20237367D01*
X7325109Y-20199271D01*
X7334633Y-20180224D01*
X7344157Y-20170700D01*
X7363205Y-20161176D01*
X7553681Y-20161176D02*
X7572728Y-20161176D01*
X7591776Y-20170700D01*
X7601300Y-20180224D01*
X7610824Y-20199271D01*
X7620348Y-20237367D01*
X7620348Y-20284986D01*
X7610824Y-20323081D01*
X7601300Y-20342129D01*
X7591776Y-20351652D01*
X7572728Y-20361176D01*
X7553681Y-20361176D01*
X7534633Y-20351652D01*
X7525109Y-20342129D01*
X7515586Y-20323081D01*
X7506062Y-20284986D01*
X7506062Y-20237367D01*
X7515586Y-20199271D01*
X7525109Y-20180224D01*
X7534633Y-20170700D01*
X7553681Y-20161176D01*
X7706062Y-20361176D02*
X7706062Y-20227843D01*
X7706062Y-20246890D02*
X7715586Y-20237367D01*
X7734633Y-20227843D01*
X7763205Y-20227843D01*
X7782252Y-20237367D01*
X7791776Y-20256414D01*
X7791776Y-20361176D01*
X7791776Y-20256414D02*
X7801300Y-20237367D01*
X7820348Y-20227843D01*
X7848919Y-20227843D01*
X7867967Y-20237367D01*
X7877490Y-20256414D01*
X7877490Y-20361176D01*
X7972728Y-20361176D02*
X7972728Y-20227843D01*
X7972728Y-20246890D02*
X7982252Y-20237367D01*
X8001300Y-20227843D01*
X8029871Y-20227843D01*
X8048919Y-20237367D01*
X8058443Y-20256414D01*
X8058443Y-20361176D01*
X8058443Y-20256414D02*
X8067967Y-20237367D01*
X8087014Y-20227843D01*
X8115586Y-20227843D01*
X8134633Y-20237367D01*
X8144157Y-20256414D01*
X8144157Y-20361176D01*
X8534633Y-20151652D02*
X8363205Y-20408795D01*
X8791776Y-20161176D02*
X8810824Y-20161176D01*
X8829871Y-20170700D01*
X8839395Y-20180224D01*
X8848919Y-20199271D01*
X8858443Y-20237367D01*
X8858443Y-20284986D01*
X8848919Y-20323081D01*
X8839395Y-20342129D01*
X8829871Y-20351652D01*
X8810824Y-20361176D01*
X8791776Y-20361176D01*
X8772729Y-20351652D01*
X8763205Y-20342129D01*
X8753681Y-20323081D01*
X8744157Y-20284986D01*
X8744157Y-20237367D01*
X8753681Y-20199271D01*
X8763205Y-20180224D01*
X8772729Y-20170700D01*
X8791776Y-20161176D01*
X8944157Y-20342129D02*
X8953681Y-20351652D01*
X8944157Y-20361176D01*
X8934633Y-20351652D01*
X8944157Y-20342129D01*
X8944157Y-20361176D01*
X9077490Y-20161176D02*
X9096538Y-20161176D01*
X9115586Y-20170700D01*
X9125110Y-20180224D01*
X9134633Y-20199271D01*
X9144157Y-20237367D01*
X9144157Y-20284986D01*
X9134633Y-20323081D01*
X9125110Y-20342129D01*
X9115586Y-20351652D01*
X9096538Y-20361176D01*
X9077490Y-20361176D01*
X9058443Y-20351652D01*
X9048919Y-20342129D01*
X9039395Y-20323081D01*
X9029871Y-20284986D01*
X9029871Y-20237367D01*
X9039395Y-20199271D01*
X9048919Y-20180224D01*
X9058443Y-20170700D01*
X9077490Y-20161176D01*
X9315586Y-20227843D02*
X9315586Y-20361176D01*
X9267967Y-20151652D02*
X9220348Y-20294510D01*
X9344157Y-20294510D01*
X9401300Y-20161176D02*
X9525110Y-20161176D01*
X9458443Y-20237367D01*
X9487014Y-20237367D01*
X9506062Y-20246890D01*
X9515586Y-20256414D01*
X9525110Y-20275462D01*
X9525110Y-20323081D01*
X9515586Y-20342129D01*
X9506062Y-20351652D01*
X9487014Y-20361176D01*
X9429871Y-20361176D01*
X9410824Y-20351652D01*
X9401300Y-20342129D01*
X9591776Y-20161176D02*
X9715586Y-20161176D01*
X9648919Y-20237367D01*
X9677490Y-20237367D01*
X9696538Y-20246890D01*
X9706062Y-20256414D01*
X9715586Y-20275462D01*
X9715586Y-20323081D01*
X9706062Y-20342129D01*
X9696538Y-20351652D01*
X9677490Y-20361176D01*
X9620348Y-20361176D01*
X9601300Y-20351652D01*
X9591776Y-20342129D01*
X9791776Y-20161176D02*
X9791776Y-20199271D01*
X9867967Y-20161176D02*
X9867967Y-20199271D01*
X10163205Y-20437367D02*
X10153681Y-20427843D01*
X10134633Y-20399271D01*
X10125110Y-20380224D01*
X10115586Y-20351652D01*
X10106062Y-20304033D01*
X10106062Y-20265938D01*
X10115586Y-20218319D01*
X10125110Y-20189748D01*
X10134633Y-20170700D01*
X10153681Y-20142129D01*
X10163205Y-20132605D01*
X10334633Y-20161176D02*
X10239395Y-20161176D01*
X10229871Y-20256414D01*
X10239395Y-20246890D01*
X10258443Y-20237367D01*
X10306062Y-20237367D01*
X10325110Y-20246890D01*
X10334633Y-20256414D01*
X10344157Y-20275462D01*
X10344157Y-20323081D01*
X10334633Y-20342129D01*
X10325110Y-20351652D01*
X10306062Y-20361176D01*
X10258443Y-20361176D01*
X10239395Y-20351652D01*
X10229871Y-20342129D01*
X10582252Y-20361176D02*
X10582252Y-20161176D01*
X10667967Y-20361176D02*
X10667967Y-20256414D01*
X10658443Y-20237367D01*
X10639395Y-20227843D01*
X10610824Y-20227843D01*
X10591776Y-20237367D01*
X10582252Y-20246890D01*
X10791776Y-20361176D02*
X10772729Y-20351652D01*
X10763205Y-20342129D01*
X10753681Y-20323081D01*
X10753681Y-20265938D01*
X10763205Y-20246890D01*
X10772729Y-20237367D01*
X10791776Y-20227843D01*
X10820348Y-20227843D01*
X10839395Y-20237367D01*
X10848919Y-20246890D01*
X10858443Y-20265938D01*
X10858443Y-20323081D01*
X10848919Y-20342129D01*
X10839395Y-20351652D01*
X10820348Y-20361176D01*
X10791776Y-20361176D01*
X10972729Y-20361176D02*
X10953681Y-20351652D01*
X10944157Y-20332605D01*
X10944157Y-20161176D01*
X11125110Y-20351652D02*
X11106062Y-20361176D01*
X11067967Y-20361176D01*
X11048919Y-20351652D01*
X11039395Y-20332605D01*
X11039395Y-20256414D01*
X11048919Y-20237367D01*
X11067967Y-20227843D01*
X11106062Y-20227843D01*
X11125110Y-20237367D01*
X11134633Y-20256414D01*
X11134633Y-20275462D01*
X11039395Y-20294510D01*
X11210824Y-20351652D02*
X11229871Y-20361176D01*
X11267967Y-20361176D01*
X11287014Y-20351652D01*
X11296538Y-20332605D01*
X11296538Y-20323081D01*
X11287014Y-20304033D01*
X11267967Y-20294510D01*
X11239395Y-20294510D01*
X11220348Y-20284986D01*
X11210824Y-20265938D01*
X11210824Y-20256414D01*
X11220348Y-20237367D01*
X11239395Y-20227843D01*
X11267967Y-20227843D01*
X11287014Y-20237367D01*
X11363205Y-20437367D02*
X11372728Y-20427843D01*
X11391776Y-20399271D01*
X11401300Y-20380224D01*
X11410824Y-20351652D01*
X11420348Y-20304033D01*
X11420348Y-20265938D01*
X11410824Y-20218319D01*
X11401300Y-20189748D01*
X11391776Y-20170700D01*
X11372728Y-20142129D01*
X11363205Y-20132605D01*
D19*
X6451300Y-20464700D02*
X6591300Y-20604700D01*
X6591300Y-20464700D02*
X6451300Y-20604700D01*
X6570798Y-20584198D02*
X6570798Y-20485202D01*
X6471802Y-20485202D01*
X6471802Y-20584198D01*
X6570798Y-20584198D01*
D11*
X6953681Y-20625176D02*
X6839395Y-20625176D01*
X6896538Y-20625176D02*
X6896538Y-20425176D01*
X6877490Y-20453748D01*
X6858443Y-20472795D01*
X6839395Y-20482319D01*
X7039395Y-20606129D02*
X7048919Y-20615652D01*
X7039395Y-20625176D01*
X7029871Y-20615652D01*
X7039395Y-20606129D01*
X7039395Y-20625176D01*
X7220348Y-20491843D02*
X7220348Y-20625176D01*
X7172728Y-20415652D02*
X7125109Y-20558510D01*
X7248919Y-20558510D01*
X7363205Y-20425176D02*
X7382252Y-20425176D01*
X7401300Y-20434700D01*
X7410824Y-20444224D01*
X7420348Y-20463271D01*
X7429871Y-20501367D01*
X7429871Y-20548986D01*
X7420348Y-20587081D01*
X7410824Y-20606129D01*
X7401300Y-20615652D01*
X7382252Y-20625176D01*
X7363205Y-20625176D01*
X7344157Y-20615652D01*
X7334633Y-20606129D01*
X7325109Y-20587081D01*
X7315586Y-20548986D01*
X7315586Y-20501367D01*
X7325109Y-20463271D01*
X7334633Y-20444224D01*
X7344157Y-20434700D01*
X7363205Y-20425176D01*
X7553681Y-20425176D02*
X7572728Y-20425176D01*
X7591776Y-20434700D01*
X7601300Y-20444224D01*
X7610824Y-20463271D01*
X7620348Y-20501367D01*
X7620348Y-20548986D01*
X7610824Y-20587081D01*
X7601300Y-20606129D01*
X7591776Y-20615652D01*
X7572728Y-20625176D01*
X7553681Y-20625176D01*
X7534633Y-20615652D01*
X7525109Y-20606129D01*
X7515586Y-20587081D01*
X7506062Y-20548986D01*
X7506062Y-20501367D01*
X7515586Y-20463271D01*
X7525109Y-20444224D01*
X7534633Y-20434700D01*
X7553681Y-20425176D01*
X7706062Y-20625176D02*
X7706062Y-20491843D01*
X7706062Y-20510890D02*
X7715586Y-20501367D01*
X7734633Y-20491843D01*
X7763205Y-20491843D01*
X7782252Y-20501367D01*
X7791776Y-20520414D01*
X7791776Y-20625176D01*
X7791776Y-20520414D02*
X7801300Y-20501367D01*
X7820348Y-20491843D01*
X7848919Y-20491843D01*
X7867967Y-20501367D01*
X7877490Y-20520414D01*
X7877490Y-20625176D01*
X7972728Y-20625176D02*
X7972728Y-20491843D01*
X7972728Y-20510890D02*
X7982252Y-20501367D01*
X8001300Y-20491843D01*
X8029871Y-20491843D01*
X8048919Y-20501367D01*
X8058443Y-20520414D01*
X8058443Y-20625176D01*
X8058443Y-20520414D02*
X8067967Y-20501367D01*
X8087014Y-20491843D01*
X8115586Y-20491843D01*
X8134633Y-20501367D01*
X8144157Y-20520414D01*
X8144157Y-20625176D01*
X8534633Y-20415652D02*
X8363205Y-20672795D01*
X8791776Y-20425176D02*
X8810824Y-20425176D01*
X8829871Y-20434700D01*
X8839395Y-20444224D01*
X8848919Y-20463271D01*
X8858443Y-20501367D01*
X8858443Y-20548986D01*
X8848919Y-20587081D01*
X8839395Y-20606129D01*
X8829871Y-20615652D01*
X8810824Y-20625176D01*
X8791776Y-20625176D01*
X8772729Y-20615652D01*
X8763205Y-20606129D01*
X8753681Y-20587081D01*
X8744157Y-20548986D01*
X8744157Y-20501367D01*
X8753681Y-20463271D01*
X8763205Y-20444224D01*
X8772729Y-20434700D01*
X8791776Y-20425176D01*
X8944157Y-20606129D02*
X8953681Y-20615652D01*
X8944157Y-20625176D01*
X8934633Y-20615652D01*
X8944157Y-20606129D01*
X8944157Y-20625176D01*
X9077490Y-20425176D02*
X9096538Y-20425176D01*
X9115586Y-20434700D01*
X9125110Y-20444224D01*
X9134633Y-20463271D01*
X9144157Y-20501367D01*
X9144157Y-20548986D01*
X9134633Y-20587081D01*
X9125110Y-20606129D01*
X9115586Y-20615652D01*
X9096538Y-20625176D01*
X9077490Y-20625176D01*
X9058443Y-20615652D01*
X9048919Y-20606129D01*
X9039395Y-20587081D01*
X9029871Y-20548986D01*
X9029871Y-20501367D01*
X9039395Y-20463271D01*
X9048919Y-20444224D01*
X9058443Y-20434700D01*
X9077490Y-20425176D01*
X9325110Y-20425176D02*
X9229871Y-20425176D01*
X9220348Y-20520414D01*
X9229871Y-20510890D01*
X9248919Y-20501367D01*
X9296538Y-20501367D01*
X9315586Y-20510890D01*
X9325110Y-20520414D01*
X9334633Y-20539462D01*
X9334633Y-20587081D01*
X9325110Y-20606129D01*
X9315586Y-20615652D01*
X9296538Y-20625176D01*
X9248919Y-20625176D01*
X9229871Y-20615652D01*
X9220348Y-20606129D01*
X9515586Y-20425176D02*
X9420348Y-20425176D01*
X9410824Y-20520414D01*
X9420348Y-20510890D01*
X9439395Y-20501367D01*
X9487014Y-20501367D01*
X9506062Y-20510890D01*
X9515586Y-20520414D01*
X9525110Y-20539462D01*
X9525110Y-20587081D01*
X9515586Y-20606129D01*
X9506062Y-20615652D01*
X9487014Y-20625176D01*
X9439395Y-20625176D01*
X9420348Y-20615652D01*
X9410824Y-20606129D01*
X9715586Y-20625176D02*
X9601300Y-20625176D01*
X9658443Y-20625176D02*
X9658443Y-20425176D01*
X9639395Y-20453748D01*
X9620348Y-20472795D01*
X9601300Y-20482319D01*
X9791776Y-20425176D02*
X9791776Y-20463271D01*
X9867967Y-20425176D02*
X9867967Y-20463271D01*
X10163205Y-20701367D02*
X10153681Y-20691843D01*
X10134633Y-20663271D01*
X10125110Y-20644224D01*
X10115586Y-20615652D01*
X10106062Y-20568033D01*
X10106062Y-20529938D01*
X10115586Y-20482319D01*
X10125110Y-20453748D01*
X10134633Y-20434700D01*
X10153681Y-20406129D01*
X10163205Y-20396605D01*
X10229871Y-20444224D02*
X10239395Y-20434700D01*
X10258443Y-20425176D01*
X10306062Y-20425176D01*
X10325110Y-20434700D01*
X10334633Y-20444224D01*
X10344157Y-20463271D01*
X10344157Y-20482319D01*
X10334633Y-20510890D01*
X10220348Y-20625176D01*
X10344157Y-20625176D01*
X10582252Y-20625176D02*
X10582252Y-20425176D01*
X10667967Y-20625176D02*
X10667967Y-20520414D01*
X10658443Y-20501367D01*
X10639395Y-20491843D01*
X10610824Y-20491843D01*
X10591776Y-20501367D01*
X10582252Y-20510890D01*
X10791776Y-20625176D02*
X10772729Y-20615652D01*
X10763205Y-20606129D01*
X10753681Y-20587081D01*
X10753681Y-20529938D01*
X10763205Y-20510890D01*
X10772729Y-20501367D01*
X10791776Y-20491843D01*
X10820348Y-20491843D01*
X10839395Y-20501367D01*
X10848919Y-20510890D01*
X10858443Y-20529938D01*
X10858443Y-20587081D01*
X10848919Y-20606129D01*
X10839395Y-20615652D01*
X10820348Y-20625176D01*
X10791776Y-20625176D01*
X10972729Y-20625176D02*
X10953681Y-20615652D01*
X10944157Y-20596605D01*
X10944157Y-20425176D01*
X11125110Y-20615652D02*
X11106062Y-20625176D01*
X11067967Y-20625176D01*
X11048919Y-20615652D01*
X11039395Y-20596605D01*
X11039395Y-20520414D01*
X11048919Y-20501367D01*
X11067967Y-20491843D01*
X11106062Y-20491843D01*
X11125110Y-20501367D01*
X11134633Y-20520414D01*
X11134633Y-20539462D01*
X11039395Y-20558510D01*
X11210824Y-20615652D02*
X11229871Y-20625176D01*
X11267967Y-20625176D01*
X11287014Y-20615652D01*
X11296538Y-20596605D01*
X11296538Y-20587081D01*
X11287014Y-20568033D01*
X11267967Y-20558510D01*
X11239395Y-20558510D01*
X11220348Y-20548986D01*
X11210824Y-20529938D01*
X11210824Y-20520414D01*
X11220348Y-20501367D01*
X11239395Y-20491843D01*
X11267967Y-20491843D01*
X11287014Y-20501367D01*
X11363205Y-20701367D02*
X11372728Y-20691843D01*
X11391776Y-20663271D01*
X11401300Y-20644224D01*
X11410824Y-20615652D01*
X11420348Y-20568033D01*
X11420348Y-20529938D01*
X11410824Y-20482319D01*
X11401300Y-20453748D01*
X11391776Y-20434700D01*
X11372728Y-20406129D01*
X11363205Y-20396605D01*
M02*
