G04 #@! TF.GenerationSoftware,KiCad,Pcbnew,(6.0.7)*
G04 #@! TF.CreationDate,2022-11-05T23:49:30+01:00*
G04 #@! TF.ProjectId,vogelhuisje_camera_board,766f6765-6c68-4756-9973-6a655f63616d,rev?*
G04 #@! TF.SameCoordinates,Original*
G04 #@! TF.FileFunction,Legend,Top*
G04 #@! TF.FilePolarity,Positive*
%FSLAX46Y46*%
G04 Gerber Fmt 4.6, Leading zero omitted, Abs format (unit mm)*
G04 Created by KiCad (PCBNEW (6.0.7)) date 2022-11-05 23:49:30*
%MOMM*%
%LPD*%
G01*
G04 APERTURE LIST*
G04 Aperture macros list*
%AMRoundRect*
0 Rectangle with rounded corners*
0 $1 Rounding radius*
0 $2 $3 $4 $5 $6 $7 $8 $9 X,Y pos of 4 corners*
0 Add a 4 corners polygon primitive as box body*
4,1,4,$2,$3,$4,$5,$6,$7,$8,$9,$2,$3,0*
0 Add four circle primitives for the rounded corners*
1,1,$1+$1,$2,$3*
1,1,$1+$1,$4,$5*
1,1,$1+$1,$6,$7*
1,1,$1+$1,$8,$9*
0 Add four rect primitives between the rounded corners*
20,1,$1+$1,$2,$3,$4,$5,0*
20,1,$1+$1,$4,$5,$6,$7,0*
20,1,$1+$1,$6,$7,$8,$9,0*
20,1,$1+$1,$8,$9,$2,$3,0*%
G04 Aperture macros list end*
%ADD10C,0.152400*%
%ADD11C,0.150000*%
%ADD12C,0.120000*%
%ADD13C,1.600000*%
%ADD14O,1.600000X1.600000*%
%ADD15R,1.300000X1.300000*%
%ADD16C,1.300000*%
%ADD17R,1.700000X1.700000*%
%ADD18O,1.700000X1.700000*%
%ADD19RoundRect,0.625000X0.675000X0.625000X-0.675000X0.625000X-0.675000X-0.625000X0.675000X-0.625000X0*%
%ADD20R,1.500000X1.050000*%
%ADD21O,1.500000X1.050000*%
%ADD22R,1.800000X2.200000*%
%ADD23R,0.300000X1.300000*%
G04 APERTURE END LIST*
D10*
X91033600Y-99679276D02*
X90994895Y-99756685D01*
X90994895Y-99872800D01*
X91033600Y-99988914D01*
X91111009Y-100066323D01*
X91188419Y-100105028D01*
X91343238Y-100143733D01*
X91459352Y-100143733D01*
X91614171Y-100105028D01*
X91691580Y-100066323D01*
X91768990Y-99988914D01*
X91807695Y-99872800D01*
X91807695Y-99795390D01*
X91768990Y-99679276D01*
X91730285Y-99640571D01*
X91459352Y-99640571D01*
X91459352Y-99795390D01*
X91807695Y-99292228D02*
X90994895Y-99292228D01*
X91807695Y-98827771D01*
X90994895Y-98827771D01*
X91807695Y-98440723D02*
X90994895Y-98440723D01*
X90994895Y-98247200D01*
X91033600Y-98131085D01*
X91111009Y-98053676D01*
X91188419Y-98014971D01*
X91343238Y-97976266D01*
X91459352Y-97976266D01*
X91614171Y-98014971D01*
X91691580Y-98053676D01*
X91768990Y-98131085D01*
X91807695Y-98247200D01*
X91807695Y-98440723D01*
X90994895Y-94986323D02*
X90994895Y-94483161D01*
X91304533Y-94754095D01*
X91304533Y-94637980D01*
X91343238Y-94560571D01*
X91381942Y-94521866D01*
X91459352Y-94483161D01*
X91652876Y-94483161D01*
X91730285Y-94521866D01*
X91768990Y-94560571D01*
X91807695Y-94637980D01*
X91807695Y-94870209D01*
X91768990Y-94947619D01*
X91730285Y-94986323D01*
X90994895Y-94250933D02*
X91807695Y-93980000D01*
X90994895Y-93709066D01*
X90994895Y-93515542D02*
X90994895Y-93012380D01*
X91304533Y-93283314D01*
X91304533Y-93167200D01*
X91343238Y-93089790D01*
X91381942Y-93051085D01*
X91459352Y-93012380D01*
X91652876Y-93012380D01*
X91730285Y-93051085D01*
X91768990Y-93089790D01*
X91807695Y-93167200D01*
X91807695Y-93399428D01*
X91768990Y-93476838D01*
X91730285Y-93515542D01*
D11*
X114657142Y-120217619D02*
X114704761Y-120265238D01*
X114752380Y-120408095D01*
X114752380Y-120503333D01*
X114704761Y-120646190D01*
X114609523Y-120741428D01*
X114514285Y-120789047D01*
X114323809Y-120836666D01*
X114180952Y-120836666D01*
X113990476Y-120789047D01*
X113895238Y-120741428D01*
X113800000Y-120646190D01*
X113752380Y-120503333D01*
X113752380Y-120408095D01*
X113800000Y-120265238D01*
X113847619Y-120217619D01*
X114752380Y-119265238D02*
X114752380Y-119836666D01*
X114752380Y-119550952D02*
X113752380Y-119550952D01*
X113895238Y-119646190D01*
X113990476Y-119741428D01*
X114038095Y-119836666D01*
X113752380Y-118646190D02*
X113752380Y-118550952D01*
X113800000Y-118455714D01*
X113847619Y-118408095D01*
X113942857Y-118360476D01*
X114133333Y-118312857D01*
X114371428Y-118312857D01*
X114561904Y-118360476D01*
X114657142Y-118408095D01*
X114704761Y-118455714D01*
X114752380Y-118550952D01*
X114752380Y-118646190D01*
X114704761Y-118741428D01*
X114657142Y-118789047D01*
X114561904Y-118836666D01*
X114371428Y-118884285D01*
X114133333Y-118884285D01*
X113942857Y-118836666D01*
X113847619Y-118789047D01*
X113800000Y-118741428D01*
X113752380Y-118646190D01*
X113752380Y-117693809D02*
X113752380Y-117598571D01*
X113800000Y-117503333D01*
X113847619Y-117455714D01*
X113942857Y-117408095D01*
X114133333Y-117360476D01*
X114371428Y-117360476D01*
X114561904Y-117408095D01*
X114657142Y-117455714D01*
X114704761Y-117503333D01*
X114752380Y-117598571D01*
X114752380Y-117693809D01*
X114704761Y-117789047D01*
X114657142Y-117836666D01*
X114561904Y-117884285D01*
X114371428Y-117931904D01*
X114133333Y-117931904D01*
X113942857Y-117884285D01*
X113847619Y-117836666D01*
X113800000Y-117789047D01*
X113752380Y-117693809D01*
X114085714Y-116931904D02*
X114752380Y-116931904D01*
X114180952Y-116931904D02*
X114133333Y-116884285D01*
X114085714Y-116789047D01*
X114085714Y-116646190D01*
X114133333Y-116550952D01*
X114228571Y-116503333D01*
X114752380Y-116503333D01*
X113752380Y-116122380D02*
X113752380Y-115503333D01*
X114133333Y-115836666D01*
X114133333Y-115693809D01*
X114180952Y-115598571D01*
X114228571Y-115550952D01*
X114323809Y-115503333D01*
X114561904Y-115503333D01*
X114657142Y-115550952D01*
X114704761Y-115598571D01*
X114752380Y-115693809D01*
X114752380Y-115979523D01*
X114704761Y-116074761D01*
X114657142Y-116122380D01*
X101827142Y-65607619D02*
X101874761Y-65655238D01*
X101922380Y-65798095D01*
X101922380Y-65893333D01*
X101874761Y-66036190D01*
X101779523Y-66131428D01*
X101684285Y-66179047D01*
X101493809Y-66226666D01*
X101350952Y-66226666D01*
X101160476Y-66179047D01*
X101065238Y-66131428D01*
X100970000Y-66036190D01*
X100922380Y-65893333D01*
X100922380Y-65798095D01*
X100970000Y-65655238D01*
X101017619Y-65607619D01*
X101922380Y-64655238D02*
X101922380Y-65226666D01*
X101922380Y-64940952D02*
X100922380Y-64940952D01*
X101065238Y-65036190D01*
X101160476Y-65131428D01*
X101208095Y-65226666D01*
X100922380Y-64036190D02*
X100922380Y-63940952D01*
X100970000Y-63845714D01*
X101017619Y-63798095D01*
X101112857Y-63750476D01*
X101303333Y-63702857D01*
X101541428Y-63702857D01*
X101731904Y-63750476D01*
X101827142Y-63798095D01*
X101874761Y-63845714D01*
X101922380Y-63940952D01*
X101922380Y-64036190D01*
X101874761Y-64131428D01*
X101827142Y-64179047D01*
X101731904Y-64226666D01*
X101541428Y-64274285D01*
X101303333Y-64274285D01*
X101112857Y-64226666D01*
X101017619Y-64179047D01*
X100970000Y-64131428D01*
X100922380Y-64036190D01*
X100922380Y-63083809D02*
X100922380Y-62988571D01*
X100970000Y-62893333D01*
X101017619Y-62845714D01*
X101112857Y-62798095D01*
X101303333Y-62750476D01*
X101541428Y-62750476D01*
X101731904Y-62798095D01*
X101827142Y-62845714D01*
X101874761Y-62893333D01*
X101922380Y-62988571D01*
X101922380Y-63083809D01*
X101874761Y-63179047D01*
X101827142Y-63226666D01*
X101731904Y-63274285D01*
X101541428Y-63321904D01*
X101303333Y-63321904D01*
X101112857Y-63274285D01*
X101017619Y-63226666D01*
X100970000Y-63179047D01*
X100922380Y-63083809D01*
X101255714Y-62321904D02*
X101922380Y-62321904D01*
X101350952Y-62321904D02*
X101303333Y-62274285D01*
X101255714Y-62179047D01*
X101255714Y-62036190D01*
X101303333Y-61940952D01*
X101398571Y-61893333D01*
X101922380Y-61893333D01*
X101017619Y-61464761D02*
X100970000Y-61417142D01*
X100922380Y-61321904D01*
X100922380Y-61083809D01*
X100970000Y-60988571D01*
X101017619Y-60940952D01*
X101112857Y-60893333D01*
X101208095Y-60893333D01*
X101350952Y-60940952D01*
X101922380Y-61512380D01*
X101922380Y-60893333D01*
X93067142Y-63801428D02*
X93114761Y-63849047D01*
X93162380Y-63991904D01*
X93162380Y-64087142D01*
X93114761Y-64230000D01*
X93019523Y-64325238D01*
X92924285Y-64372857D01*
X92733809Y-64420476D01*
X92590952Y-64420476D01*
X92400476Y-64372857D01*
X92305238Y-64325238D01*
X92210000Y-64230000D01*
X92162380Y-64087142D01*
X92162380Y-63991904D01*
X92210000Y-63849047D01*
X92257619Y-63801428D01*
X93162380Y-62849047D02*
X93162380Y-63420476D01*
X93162380Y-63134761D02*
X92162380Y-63134761D01*
X92305238Y-63230000D01*
X92400476Y-63325238D01*
X92448095Y-63420476D01*
X92162380Y-62230000D02*
X92162380Y-62134761D01*
X92210000Y-62039523D01*
X92257619Y-61991904D01*
X92352857Y-61944285D01*
X92543333Y-61896666D01*
X92781428Y-61896666D01*
X92971904Y-61944285D01*
X93067142Y-61991904D01*
X93114761Y-62039523D01*
X93162380Y-62134761D01*
X93162380Y-62230000D01*
X93114761Y-62325238D01*
X93067142Y-62372857D01*
X92971904Y-62420476D01*
X92781428Y-62468095D01*
X92543333Y-62468095D01*
X92352857Y-62420476D01*
X92257619Y-62372857D01*
X92210000Y-62325238D01*
X92162380Y-62230000D01*
X92495714Y-61039523D02*
X93162380Y-61039523D01*
X92495714Y-61468095D02*
X93019523Y-61468095D01*
X93114761Y-61420476D01*
X93162380Y-61325238D01*
X93162380Y-61182380D01*
X93114761Y-61087142D01*
X93067142Y-61039523D01*
X92162380Y-60658571D02*
X92162380Y-60039523D01*
X92543333Y-60372857D01*
X92543333Y-60230000D01*
X92590952Y-60134761D01*
X92638571Y-60087142D01*
X92733809Y-60039523D01*
X92971904Y-60039523D01*
X93067142Y-60087142D01*
X93114761Y-60134761D01*
X93162380Y-60230000D01*
X93162380Y-60515714D01*
X93114761Y-60610952D01*
X93067142Y-60658571D01*
X119737142Y-65071428D02*
X119784761Y-65119047D01*
X119832380Y-65261904D01*
X119832380Y-65357142D01*
X119784761Y-65500000D01*
X119689523Y-65595238D01*
X119594285Y-65642857D01*
X119403809Y-65690476D01*
X119260952Y-65690476D01*
X119070476Y-65642857D01*
X118975238Y-65595238D01*
X118880000Y-65500000D01*
X118832380Y-65357142D01*
X118832380Y-65261904D01*
X118880000Y-65119047D01*
X118927619Y-65071428D01*
X119832380Y-64119047D02*
X119832380Y-64690476D01*
X119832380Y-64404761D02*
X118832380Y-64404761D01*
X118975238Y-64500000D01*
X119070476Y-64595238D01*
X119118095Y-64690476D01*
X118832380Y-63500000D02*
X118832380Y-63404761D01*
X118880000Y-63309523D01*
X118927619Y-63261904D01*
X119022857Y-63214285D01*
X119213333Y-63166666D01*
X119451428Y-63166666D01*
X119641904Y-63214285D01*
X119737142Y-63261904D01*
X119784761Y-63309523D01*
X119832380Y-63404761D01*
X119832380Y-63500000D01*
X119784761Y-63595238D01*
X119737142Y-63642857D01*
X119641904Y-63690476D01*
X119451428Y-63738095D01*
X119213333Y-63738095D01*
X119022857Y-63690476D01*
X118927619Y-63642857D01*
X118880000Y-63595238D01*
X118832380Y-63500000D01*
X119165714Y-62309523D02*
X119832380Y-62309523D01*
X119165714Y-62738095D02*
X119689523Y-62738095D01*
X119784761Y-62690476D01*
X119832380Y-62595238D01*
X119832380Y-62452380D01*
X119784761Y-62357142D01*
X119737142Y-62309523D01*
X118927619Y-61880952D02*
X118880000Y-61833333D01*
X118832380Y-61738095D01*
X118832380Y-61500000D01*
X118880000Y-61404761D01*
X118927619Y-61357142D01*
X119022857Y-61309523D01*
X119118095Y-61309523D01*
X119260952Y-61357142D01*
X119832380Y-61928571D01*
X119832380Y-61309523D01*
X94337142Y-86661428D02*
X94384761Y-86709047D01*
X94432380Y-86851904D01*
X94432380Y-86947142D01*
X94384761Y-87090000D01*
X94289523Y-87185238D01*
X94194285Y-87232857D01*
X94003809Y-87280476D01*
X93860952Y-87280476D01*
X93670476Y-87232857D01*
X93575238Y-87185238D01*
X93480000Y-87090000D01*
X93432380Y-86947142D01*
X93432380Y-86851904D01*
X93480000Y-86709047D01*
X93527619Y-86661428D01*
X94432380Y-85709047D02*
X94432380Y-86280476D01*
X94432380Y-85994761D02*
X93432380Y-85994761D01*
X93575238Y-86090000D01*
X93670476Y-86185238D01*
X93718095Y-86280476D01*
X93432380Y-85090000D02*
X93432380Y-84994761D01*
X93480000Y-84899523D01*
X93527619Y-84851904D01*
X93622857Y-84804285D01*
X93813333Y-84756666D01*
X94051428Y-84756666D01*
X94241904Y-84804285D01*
X94337142Y-84851904D01*
X94384761Y-84899523D01*
X94432380Y-84994761D01*
X94432380Y-85090000D01*
X94384761Y-85185238D01*
X94337142Y-85232857D01*
X94241904Y-85280476D01*
X94051428Y-85328095D01*
X93813333Y-85328095D01*
X93622857Y-85280476D01*
X93527619Y-85232857D01*
X93480000Y-85185238D01*
X93432380Y-85090000D01*
X93765714Y-83899523D02*
X94432380Y-83899523D01*
X93765714Y-84328095D02*
X94289523Y-84328095D01*
X94384761Y-84280476D01*
X94432380Y-84185238D01*
X94432380Y-84042380D01*
X94384761Y-83947142D01*
X94337142Y-83899523D01*
X94432380Y-82899523D02*
X94432380Y-83470952D01*
X94432380Y-83185238D02*
X93432380Y-83185238D01*
X93575238Y-83280476D01*
X93670476Y-83375714D01*
X93718095Y-83470952D01*
X114752380Y-63825238D02*
X114752380Y-64396666D01*
X114752380Y-64110952D02*
X113752380Y-64110952D01*
X113895238Y-64206190D01*
X113990476Y-64301428D01*
X114038095Y-64396666D01*
X113752380Y-63206190D02*
X113752380Y-63110952D01*
X113800000Y-63015714D01*
X113847619Y-62968095D01*
X113942857Y-62920476D01*
X114133333Y-62872857D01*
X114371428Y-62872857D01*
X114561904Y-62920476D01*
X114657142Y-62968095D01*
X114704761Y-63015714D01*
X114752380Y-63110952D01*
X114752380Y-63206190D01*
X114704761Y-63301428D01*
X114657142Y-63349047D01*
X114561904Y-63396666D01*
X114371428Y-63444285D01*
X114133333Y-63444285D01*
X113942857Y-63396666D01*
X113847619Y-63349047D01*
X113800000Y-63301428D01*
X113752380Y-63206190D01*
X113752380Y-62253809D02*
X113752380Y-62158571D01*
X113800000Y-62063333D01*
X113847619Y-62015714D01*
X113942857Y-61968095D01*
X114133333Y-61920476D01*
X114371428Y-61920476D01*
X114561904Y-61968095D01*
X114657142Y-62015714D01*
X114704761Y-62063333D01*
X114752380Y-62158571D01*
X114752380Y-62253809D01*
X114704761Y-62349047D01*
X114657142Y-62396666D01*
X114561904Y-62444285D01*
X114371428Y-62491904D01*
X114133333Y-62491904D01*
X113942857Y-62444285D01*
X113847619Y-62396666D01*
X113800000Y-62349047D01*
X113752380Y-62253809D01*
X114085714Y-61491904D02*
X114752380Y-61491904D01*
X114180952Y-61491904D02*
X114133333Y-61444285D01*
X114085714Y-61349047D01*
X114085714Y-61206190D01*
X114133333Y-61110952D01*
X114228571Y-61063333D01*
X114752380Y-61063333D01*
X114752380Y-60063333D02*
X114752380Y-60634761D01*
X114752380Y-60349047D02*
X113752380Y-60349047D01*
X113895238Y-60444285D01*
X113990476Y-60539523D01*
X114038095Y-60634761D01*
X109672380Y-64904761D02*
X109672380Y-65476190D01*
X109672380Y-65190476D02*
X108672380Y-65190476D01*
X108815238Y-65285714D01*
X108910476Y-65380952D01*
X108958095Y-65476190D01*
X108672380Y-64000000D02*
X108672380Y-64476190D01*
X109148571Y-64523809D01*
X109100952Y-64476190D01*
X109053333Y-64380952D01*
X109053333Y-64142857D01*
X109100952Y-64047619D01*
X109148571Y-64000000D01*
X109243809Y-63952380D01*
X109481904Y-63952380D01*
X109577142Y-64000000D01*
X109624761Y-64047619D01*
X109672380Y-64142857D01*
X109672380Y-64380952D01*
X109624761Y-64476190D01*
X109577142Y-64523809D01*
X109005714Y-63523809D02*
X110005714Y-63523809D01*
X109053333Y-63523809D02*
X109005714Y-63428571D01*
X109005714Y-63238095D01*
X109053333Y-63142857D01*
X109100952Y-63095238D01*
X109196190Y-63047619D01*
X109481904Y-63047619D01*
X109577142Y-63095238D01*
X109624761Y-63142857D01*
X109672380Y-63238095D01*
X109672380Y-63428571D01*
X109624761Y-63523809D01*
X109005714Y-62761904D02*
X109005714Y-62380952D01*
X109672380Y-62619047D02*
X108815238Y-62619047D01*
X108720000Y-62571428D01*
X108672380Y-62476190D01*
X108672380Y-62380952D01*
X109672380Y-61523809D02*
X109672380Y-62095238D01*
X109672380Y-61809523D02*
X108672380Y-61809523D01*
X108815238Y-61904761D01*
X108910476Y-62000000D01*
X108958095Y-62095238D01*
X123968095Y-123392380D02*
X123634761Y-122916190D01*
X123396666Y-123392380D02*
X123396666Y-122392380D01*
X123777619Y-122392380D01*
X123872857Y-122440000D01*
X123920476Y-122487619D01*
X123968095Y-122582857D01*
X123968095Y-122725714D01*
X123920476Y-122820952D01*
X123872857Y-122868571D01*
X123777619Y-122916190D01*
X123396666Y-122916190D01*
X124777619Y-123344761D02*
X124682380Y-123392380D01*
X124491904Y-123392380D01*
X124396666Y-123344761D01*
X124349047Y-123249523D01*
X124349047Y-122868571D01*
X124396666Y-122773333D01*
X124491904Y-122725714D01*
X124682380Y-122725714D01*
X124777619Y-122773333D01*
X124825238Y-122868571D01*
X124825238Y-122963809D01*
X124349047Y-123059047D01*
X125682380Y-122725714D02*
X125682380Y-123535238D01*
X125634761Y-123630476D01*
X125587142Y-123678095D01*
X125491904Y-123725714D01*
X125349047Y-123725714D01*
X125253809Y-123678095D01*
X125682380Y-123344761D02*
X125587142Y-123392380D01*
X125396666Y-123392380D01*
X125301428Y-123344761D01*
X125253809Y-123297142D01*
X125206190Y-123201904D01*
X125206190Y-122916190D01*
X125253809Y-122820952D01*
X125301428Y-122773333D01*
X125396666Y-122725714D01*
X125587142Y-122725714D01*
X125682380Y-122773333D01*
X126110952Y-122487619D02*
X126158571Y-122440000D01*
X126253809Y-122392380D01*
X126491904Y-122392380D01*
X126587142Y-122440000D01*
X126634761Y-122487619D01*
X126682380Y-122582857D01*
X126682380Y-122678095D01*
X126634761Y-122820952D01*
X126063333Y-123392380D01*
X126682380Y-123392380D01*
X127110952Y-123297142D02*
X127158571Y-123344761D01*
X127110952Y-123392380D01*
X127063333Y-123344761D01*
X127110952Y-123297142D01*
X127110952Y-123392380D01*
X127730000Y-122820952D02*
X127634761Y-122773333D01*
X127587142Y-122725714D01*
X127539523Y-122630476D01*
X127539523Y-122582857D01*
X127587142Y-122487619D01*
X127634761Y-122440000D01*
X127730000Y-122392380D01*
X127920476Y-122392380D01*
X128015714Y-122440000D01*
X128063333Y-122487619D01*
X128110952Y-122582857D01*
X128110952Y-122630476D01*
X128063333Y-122725714D01*
X128015714Y-122773333D01*
X127920476Y-122820952D01*
X127730000Y-122820952D01*
X127634761Y-122868571D01*
X127587142Y-122916190D01*
X127539523Y-123011428D01*
X127539523Y-123201904D01*
X127587142Y-123297142D01*
X127634761Y-123344761D01*
X127730000Y-123392380D01*
X127920476Y-123392380D01*
X128015714Y-123344761D01*
X128063333Y-123297142D01*
X128110952Y-123201904D01*
X128110952Y-123011428D01*
X128063333Y-122916190D01*
X128015714Y-122868571D01*
X127920476Y-122820952D01*
X92170476Y-70302380D02*
X91599047Y-70302380D01*
X91884761Y-70302380D02*
X91884761Y-69302380D01*
X91789523Y-69445238D01*
X91694285Y-69540476D01*
X91599047Y-69588095D01*
X92599047Y-70207142D02*
X92646666Y-70254761D01*
X92599047Y-70302380D01*
X92551428Y-70254761D01*
X92599047Y-70207142D01*
X92599047Y-70302380D01*
X93027619Y-69397619D02*
X93075238Y-69350000D01*
X93170476Y-69302380D01*
X93408571Y-69302380D01*
X93503809Y-69350000D01*
X93551428Y-69397619D01*
X93599047Y-69492857D01*
X93599047Y-69588095D01*
X93551428Y-69730952D01*
X92980000Y-70302380D01*
X93599047Y-70302380D01*
X94599047Y-70302380D02*
X94265714Y-69826190D01*
X94027619Y-70302380D02*
X94027619Y-69302380D01*
X94408571Y-69302380D01*
X94503809Y-69350000D01*
X94551428Y-69397619D01*
X94599047Y-69492857D01*
X94599047Y-69635714D01*
X94551428Y-69730952D01*
X94503809Y-69778571D01*
X94408571Y-69826190D01*
X94027619Y-69826190D01*
X95408571Y-70254761D02*
X95313333Y-70302380D01*
X95122857Y-70302380D01*
X95027619Y-70254761D01*
X94980000Y-70159523D01*
X94980000Y-69778571D01*
X95027619Y-69683333D01*
X95122857Y-69635714D01*
X95313333Y-69635714D01*
X95408571Y-69683333D01*
X95456190Y-69778571D01*
X95456190Y-69873809D01*
X94980000Y-69969047D01*
X96313333Y-69635714D02*
X96313333Y-70445238D01*
X96265714Y-70540476D01*
X96218095Y-70588095D01*
X96122857Y-70635714D01*
X95980000Y-70635714D01*
X95884761Y-70588095D01*
X96313333Y-70254761D02*
X96218095Y-70302380D01*
X96027619Y-70302380D01*
X95932380Y-70254761D01*
X95884761Y-70207142D01*
X95837142Y-70111904D01*
X95837142Y-69826190D01*
X95884761Y-69730952D01*
X95932380Y-69683333D01*
X96027619Y-69635714D01*
X96218095Y-69635714D01*
X96313333Y-69683333D01*
X95972380Y-101845714D02*
X96686666Y-101845714D01*
X96829523Y-101893333D01*
X96924761Y-101988571D01*
X96972380Y-102131428D01*
X96972380Y-102226666D01*
X96972380Y-101369523D02*
X95972380Y-101369523D01*
X96686666Y-101036190D01*
X95972380Y-100702857D01*
X96972380Y-100702857D01*
X96972380Y-100083809D02*
X96924761Y-100179047D01*
X96877142Y-100226666D01*
X96781904Y-100274285D01*
X96496190Y-100274285D01*
X96400952Y-100226666D01*
X96353333Y-100179047D01*
X96305714Y-100083809D01*
X96305714Y-99940952D01*
X96353333Y-99845714D01*
X96400952Y-99798095D01*
X96496190Y-99750476D01*
X96781904Y-99750476D01*
X96877142Y-99798095D01*
X96924761Y-99845714D01*
X96972380Y-99940952D01*
X96972380Y-100083809D01*
X96305714Y-99464761D02*
X96305714Y-99083809D01*
X95972380Y-99321904D02*
X96829523Y-99321904D01*
X96924761Y-99274285D01*
X96972380Y-99179047D01*
X96972380Y-99083809D01*
X96972380Y-98750476D02*
X96305714Y-98750476D01*
X95972380Y-98750476D02*
X96020000Y-98798095D01*
X96067619Y-98750476D01*
X96020000Y-98702857D01*
X95972380Y-98750476D01*
X96067619Y-98750476D01*
X96972380Y-98131428D02*
X96924761Y-98226666D01*
X96877142Y-98274285D01*
X96781904Y-98321904D01*
X96496190Y-98321904D01*
X96400952Y-98274285D01*
X96353333Y-98226666D01*
X96305714Y-98131428D01*
X96305714Y-97988571D01*
X96353333Y-97893333D01*
X96400952Y-97845714D01*
X96496190Y-97798095D01*
X96781904Y-97798095D01*
X96877142Y-97845714D01*
X96924761Y-97893333D01*
X96972380Y-97988571D01*
X96972380Y-98131428D01*
X96305714Y-97369523D02*
X96972380Y-97369523D01*
X96400952Y-97369523D02*
X96353333Y-97321904D01*
X96305714Y-97226666D01*
X96305714Y-97083809D01*
X96353333Y-96988571D01*
X96448571Y-96940952D01*
X96972380Y-96940952D01*
X96972380Y-95940952D02*
X96972380Y-96512380D01*
X96972380Y-96226666D02*
X95972380Y-96226666D01*
X96115238Y-96321904D01*
X96210476Y-96417142D01*
X96258095Y-96512380D01*
X119247619Y-144861904D02*
X120247619Y-144861904D01*
X120247619Y-145100000D01*
X120200000Y-145242857D01*
X120104761Y-145338095D01*
X120009523Y-145385714D01*
X119819047Y-145433333D01*
X119676190Y-145433333D01*
X119485714Y-145385714D01*
X119390476Y-145338095D01*
X119295238Y-145242857D01*
X119247619Y-145100000D01*
X119247619Y-144861904D01*
X120247619Y-145766666D02*
X120247619Y-146433333D01*
X119247619Y-146004761D01*
X98587619Y-146225238D02*
X98540000Y-146320476D01*
X98444761Y-146415714D01*
X98301904Y-146558571D01*
X98254285Y-146653809D01*
X98254285Y-146749047D01*
X98492380Y-146701428D02*
X98444761Y-146796666D01*
X98349523Y-146891904D01*
X98159047Y-146939523D01*
X97825714Y-146939523D01*
X97635238Y-146891904D01*
X97540000Y-146796666D01*
X97492380Y-146701428D01*
X97492380Y-146510952D01*
X97540000Y-146415714D01*
X97635238Y-146320476D01*
X97825714Y-146272857D01*
X98159047Y-146272857D01*
X98349523Y-146320476D01*
X98444761Y-146415714D01*
X98492380Y-146510952D01*
X98492380Y-146701428D01*
X97587619Y-145891904D02*
X97540000Y-145844285D01*
X97492380Y-145749047D01*
X97492380Y-145510952D01*
X97540000Y-145415714D01*
X97587619Y-145368095D01*
X97682857Y-145320476D01*
X97778095Y-145320476D01*
X97920952Y-145368095D01*
X98492380Y-145939523D01*
X98492380Y-145320476D01*
X101452380Y-136747619D02*
X100976190Y-137080952D01*
X101452380Y-137319047D02*
X100452380Y-137319047D01*
X100452380Y-136938095D01*
X100500000Y-136842857D01*
X100547619Y-136795238D01*
X100642857Y-136747619D01*
X100785714Y-136747619D01*
X100880952Y-136795238D01*
X100928571Y-136842857D01*
X100976190Y-136938095D01*
X100976190Y-137319047D01*
X101452380Y-135795238D02*
X101452380Y-136366666D01*
X101452380Y-136080952D02*
X100452380Y-136080952D01*
X100595238Y-136176190D01*
X100690476Y-136271428D01*
X100738095Y-136366666D01*
X101452380Y-135366666D02*
X100452380Y-135366666D01*
X101071428Y-135271428D02*
X101452380Y-134985714D01*
X100785714Y-134985714D02*
X101166666Y-135366666D01*
X101452380Y-134033333D02*
X101452380Y-134604761D01*
X101452380Y-134319047D02*
X100452380Y-134319047D01*
X100595238Y-134414285D01*
X100690476Y-134509523D01*
X100738095Y-134604761D01*
X108767619Y-133881904D02*
X109767619Y-133881904D01*
X109767619Y-134120000D01*
X109720000Y-134262857D01*
X109624761Y-134358095D01*
X109529523Y-134405714D01*
X109339047Y-134453333D01*
X109196190Y-134453333D01*
X109005714Y-134405714D01*
X108910476Y-134358095D01*
X108815238Y-134262857D01*
X108767619Y-134120000D01*
X108767619Y-133881904D01*
X109767619Y-135310476D02*
X109767619Y-135120000D01*
X109720000Y-135024761D01*
X109672380Y-134977142D01*
X109529523Y-134881904D01*
X109339047Y-134834285D01*
X108958095Y-134834285D01*
X108862857Y-134881904D01*
X108815238Y-134929523D01*
X108767619Y-135024761D01*
X108767619Y-135215238D01*
X108815238Y-135310476D01*
X108862857Y-135358095D01*
X108958095Y-135405714D01*
X109196190Y-135405714D01*
X109291428Y-135358095D01*
X109339047Y-135310476D01*
X109386666Y-135215238D01*
X109386666Y-135024761D01*
X109339047Y-134929523D01*
X109291428Y-134881904D01*
X109196190Y-134834285D01*
X108366666Y-77752380D02*
X108366666Y-78466666D01*
X108319047Y-78609523D01*
X108223809Y-78704761D01*
X108080952Y-78752380D01*
X107985714Y-78752380D01*
X109271428Y-78085714D02*
X109271428Y-78752380D01*
X109033333Y-77704761D02*
X108795238Y-78419047D01*
X109414285Y-78419047D01*
X98252380Y-135866666D02*
X97776190Y-136200000D01*
X98252380Y-136438095D02*
X97252380Y-136438095D01*
X97252380Y-136057142D01*
X97300000Y-135961904D01*
X97347619Y-135914285D01*
X97442857Y-135866666D01*
X97585714Y-135866666D01*
X97680952Y-135914285D01*
X97728571Y-135961904D01*
X97776190Y-136057142D01*
X97776190Y-136438095D01*
X97585714Y-135009523D02*
X98252380Y-135009523D01*
X97204761Y-135247619D02*
X97919047Y-135485714D01*
X97919047Y-134866666D01*
X125277619Y-132611904D02*
X126277619Y-132611904D01*
X126277619Y-132850000D01*
X126230000Y-132992857D01*
X126134761Y-133088095D01*
X126039523Y-133135714D01*
X125849047Y-133183333D01*
X125706190Y-133183333D01*
X125515714Y-133135714D01*
X125420476Y-133088095D01*
X125325238Y-132992857D01*
X125277619Y-132850000D01*
X125277619Y-132611904D01*
X125944285Y-134040476D02*
X125277619Y-134040476D01*
X126325238Y-133802380D02*
X125610952Y-133564285D01*
X125610952Y-134183333D01*
X109447619Y-144761904D02*
X110447619Y-144761904D01*
X110447619Y-145000000D01*
X110400000Y-145142857D01*
X110304761Y-145238095D01*
X110209523Y-145285714D01*
X110019047Y-145333333D01*
X109876190Y-145333333D01*
X109685714Y-145285714D01*
X109590476Y-145238095D01*
X109495238Y-145142857D01*
X109447619Y-145000000D01*
X109447619Y-144761904D01*
X110447619Y-146238095D02*
X110447619Y-145761904D01*
X109971428Y-145714285D01*
X110019047Y-145761904D01*
X110066666Y-145857142D01*
X110066666Y-146095238D01*
X110019047Y-146190476D01*
X109971428Y-146238095D01*
X109876190Y-146285714D01*
X109638095Y-146285714D01*
X109542857Y-146238095D01*
X109495238Y-146190476D01*
X109447619Y-146095238D01*
X109447619Y-145857142D01*
X109495238Y-145761904D01*
X109542857Y-145714285D01*
D12*
X117867500Y-120880000D02*
X117867500Y-120840000D01*
X116197500Y-115500000D02*
X116197500Y-120840000D01*
X116197500Y-120840000D02*
X119537500Y-120840000D01*
X117867500Y-115460000D02*
X117867500Y-115500000D01*
X119537500Y-120840000D02*
X119537500Y-115500000D01*
X119537500Y-115500000D02*
X116197500Y-115500000D01*
X104140000Y-60850000D02*
X104140000Y-60890000D01*
X105810000Y-66230000D02*
X105810000Y-60890000D01*
X105810000Y-60890000D02*
X102470000Y-60890000D01*
X104140000Y-66270000D02*
X104140000Y-66230000D01*
X102470000Y-60890000D02*
X102470000Y-66230000D01*
X102470000Y-66230000D02*
X105810000Y-66230000D01*
X92710000Y-64940000D02*
X92710000Y-64900000D01*
X91040000Y-59560000D02*
X91040000Y-64900000D01*
X91040000Y-64900000D02*
X94380000Y-64900000D01*
X92710000Y-59520000D02*
X92710000Y-59560000D01*
X94380000Y-64900000D02*
X94380000Y-59560000D01*
X94380000Y-59560000D02*
X91040000Y-59560000D01*
X119380000Y-60790000D02*
X119380000Y-60830000D01*
X121050000Y-66170000D02*
X121050000Y-60830000D01*
X121050000Y-60830000D02*
X117710000Y-60830000D01*
X119380000Y-66210000D02*
X119380000Y-66170000D01*
X117710000Y-60830000D02*
X117710000Y-66170000D01*
X117710000Y-66170000D02*
X121050000Y-66170000D01*
X93980000Y-87800000D02*
X93980000Y-87760000D01*
X92310000Y-82420000D02*
X92310000Y-87760000D01*
X92310000Y-87760000D02*
X95650000Y-87760000D01*
X93980000Y-82380000D02*
X93980000Y-82420000D01*
X95650000Y-87760000D02*
X95650000Y-82420000D01*
X95650000Y-82420000D02*
X92310000Y-82420000D01*
X114300000Y-64940000D02*
X114300000Y-64900000D01*
X112630000Y-59560000D02*
X112630000Y-64900000D01*
X112630000Y-64900000D02*
X115970000Y-64900000D01*
X114300000Y-59520000D02*
X114300000Y-59560000D01*
X115970000Y-64900000D02*
X115970000Y-59560000D01*
X115970000Y-59560000D02*
X112630000Y-59560000D01*
X109220000Y-66210000D02*
X109220000Y-66170000D01*
X107550000Y-60830000D02*
X107550000Y-66170000D01*
X107550000Y-66170000D02*
X110890000Y-66170000D01*
X109220000Y-60790000D02*
X109220000Y-60830000D01*
X110890000Y-66170000D02*
X110890000Y-60830000D01*
X110890000Y-60830000D02*
X107550000Y-60830000D01*
X127530000Y-117530000D02*
X123930000Y-117530000D01*
X123891522Y-117541522D02*
G75*
G03*
X125730000Y-121980000I1838478J-1838478D01*
G01*
X125730000Y-121980001D02*
G75*
G03*
X127568478Y-117541522I0J2600001D01*
G01*
X95780000Y-73080000D02*
X92180000Y-73080000D01*
X92141522Y-73091522D02*
G75*
G03*
X93980000Y-77530000I1838478J-1838478D01*
G01*
X93980000Y-77530001D02*
G75*
G03*
X95818478Y-73091522I0J2600001D01*
G01*
X92650000Y-100390000D02*
X95310000Y-100390000D01*
X92650000Y-95250000D02*
X92650000Y-100390000D01*
X92650000Y-93980000D02*
X92650000Y-92650000D01*
X95310000Y-95250000D02*
X95310000Y-100390000D01*
X92650000Y-92650000D02*
X93980000Y-92650000D01*
X92650000Y-95250000D02*
X95310000Y-95250000D01*
X102830000Y-127850000D02*
X102830000Y-129180000D01*
X100170000Y-126580000D02*
X100170000Y-78260000D01*
X102830000Y-78260000D02*
X100170000Y-78260000D01*
X102830000Y-126580000D02*
X102830000Y-78260000D01*
X102830000Y-129180000D02*
X101500000Y-129180000D01*
X102830000Y-126580000D02*
X100170000Y-126580000D01*
X103300000Y-148070000D02*
X103300000Y-144220000D01*
X103290122Y-144181389D02*
G75*
G03*
X103300000Y-148070000I-1690122J-1948611D01*
G01*
X101000000Y-131960000D02*
X101000000Y-132730000D01*
X99630000Y-132730000D02*
X99630000Y-139270000D01*
X102370000Y-139270000D02*
X102370000Y-132730000D01*
X99630000Y-139270000D02*
X102370000Y-139270000D01*
X102370000Y-132730000D02*
X99630000Y-132730000D01*
X101000000Y-140040000D02*
X101000000Y-139270000D01*
X105370000Y-139270000D02*
X105370000Y-132730000D01*
X104000000Y-131960000D02*
X104000000Y-132730000D01*
X102630000Y-132730000D02*
X102630000Y-139270000D01*
X104000000Y-140040000D02*
X104000000Y-139270000D01*
X102630000Y-139270000D02*
X105370000Y-139270000D01*
X105370000Y-132730000D02*
X102630000Y-132730000D01*
X107350000Y-77400000D02*
X122650000Y-77400000D01*
X107350000Y-75660000D02*
X107350000Y-77400000D01*
X121160000Y-71600000D02*
X122650000Y-71600000D01*
X108840000Y-71600000D02*
X107350000Y-71600000D01*
X122650000Y-77400000D02*
X122650000Y-75660000D01*
X108840000Y-71600000D02*
X108840000Y-70400000D01*
X122650000Y-71600000D02*
X122650000Y-72940000D01*
X107350000Y-71600000D02*
X107350000Y-72940000D01*
X96630000Y-139270000D02*
X99370000Y-139270000D01*
X99370000Y-139270000D02*
X99370000Y-132730000D01*
X98000000Y-140040000D02*
X98000000Y-139270000D01*
X99370000Y-132730000D02*
X96630000Y-132730000D01*
X96630000Y-132730000D02*
X96630000Y-139270000D01*
X98000000Y-131960000D02*
X98000000Y-132730000D01*
%LPC*%
D13*
X117867500Y-114420000D03*
D14*
X117867500Y-121920000D03*
D13*
X104140000Y-67310000D03*
D14*
X104140000Y-59810000D03*
D13*
X92710000Y-58480000D03*
D14*
X92710000Y-65980000D03*
D13*
X119380000Y-67250000D03*
D14*
X119380000Y-59750000D03*
D13*
X93980000Y-81340000D03*
D14*
X93980000Y-88840000D03*
D13*
X114300000Y-58480000D03*
D14*
X114300000Y-65980000D03*
D13*
X109220000Y-59750000D03*
D14*
X109220000Y-67250000D03*
D15*
X127000000Y-119380000D03*
D16*
X125730000Y-120650000D03*
X124460000Y-119380000D03*
D15*
X95250000Y-74930000D03*
D16*
X93980000Y-76200000D03*
X92710000Y-74930000D03*
D17*
X93980000Y-93980000D03*
D18*
X93980000Y-96520000D03*
X93980000Y-99060000D03*
D17*
X101500000Y-127850000D03*
D18*
X101500000Y-125310000D03*
X101500000Y-122770000D03*
X101500000Y-120230000D03*
X101500000Y-117690000D03*
X101500000Y-115150000D03*
X101500000Y-112610000D03*
X101500000Y-110070000D03*
X101500000Y-107530000D03*
X101500000Y-104990000D03*
X101500000Y-102450000D03*
X101500000Y-99910000D03*
X101500000Y-97370000D03*
X101500000Y-94830000D03*
X101500000Y-92290000D03*
X101500000Y-89750000D03*
X101500000Y-87210000D03*
X101500000Y-84670000D03*
X101500000Y-82130000D03*
X101500000Y-79590000D03*
D19*
X123000000Y-147900000D03*
X123000000Y-143900000D03*
D20*
X101600000Y-147320000D03*
D21*
X101600000Y-146050000D03*
X101600000Y-144780000D03*
D13*
X101000000Y-141080000D03*
D14*
X101000000Y-130920000D03*
D13*
X104000000Y-130920000D03*
D14*
X104000000Y-141080000D03*
D19*
X107200000Y-136000000D03*
X107200000Y-132000000D03*
D22*
X122650000Y-74300000D03*
X107350000Y-74300000D03*
D23*
X120750000Y-71050000D03*
X120250000Y-71050000D03*
X119750000Y-71050000D03*
X119250000Y-71050000D03*
X118750000Y-71050000D03*
X118250000Y-71050000D03*
X117750000Y-71050000D03*
X117250000Y-71050000D03*
X116750000Y-71050000D03*
X116250000Y-71050000D03*
X115750000Y-71050000D03*
X115250000Y-71050000D03*
X114750000Y-71050000D03*
X114250000Y-71050000D03*
X113750000Y-71050000D03*
X113250000Y-71050000D03*
X112750000Y-71050000D03*
X112250000Y-71050000D03*
X111750000Y-71050000D03*
X111250000Y-71050000D03*
X110750000Y-71050000D03*
X110250000Y-71050000D03*
X109750000Y-71050000D03*
X109250000Y-71050000D03*
D13*
X98000000Y-130920000D03*
D14*
X98000000Y-141080000D03*
D19*
X123000000Y-136000000D03*
X123000000Y-132000000D03*
X107000000Y-147900000D03*
X107000000Y-143900000D03*
M02*
