  0
SECTION
  2
HEADER
  9
$ANGBASE
  50
0.0
  9
$ANGDIR
  70
1
  9
$MEASUREMENT
  70
1
  0
ENDSEC
  0
SECTION
  2
TABLES
  0
TABLE
  2
LTYPE
  70
4
  0
LTYPE
  5
40F
  2
CONTINUOUS
  70
0
  3
Solid line
  72
65
  73
0
  40
0.0
  0
LTYPE
  5
410
  2
DASHDOT
 70
0
  3
Dash Dot ____ _ ____ _
 72
65
 73
4
 40
2.0
 49
1.25
 49
-0.25
 49
0.25
 49
-0.25
  0
LTYPE
  5
411
  2
DASHED
 70
0
  3
Dashed __ __ __ __ __
 72
65
 73
2
 40
0.75
 49
0.5
 49
-0.25
  0
LTYPE
  5
43B
  2
DOTTED
 70
0
  3
Dotted .  .  .  .
 72
65
 73
2
 40
0.2
 49
0.0
 49
-0.2
  0
ENDTAB
  0
TABLE
  2
STYLE
  70
4
  0
STYLE
  2
KICAD
  70
0
  40
0
  41
1
  42
1
  50
0
  71
0
  3
isocp.shx
  0
STYLE
  2
KICADB
  70
0
  40
0
  41
1
  42
1
  50
0
  71
0
  3
isocp.shx
  0
STYLE
  2
KICADI
  70
0
  40
0
  41
1
  42
1
  50
15
  71
0
  3
isocp.shx
  0
STYLE
  2
KICADBI
  70
0
  40
0
  41
1
  42
1
  50
15
  71
0
  3
isocp.shx
  0
ENDTAB
  0
TABLE
  2
LAYER
  70
1
  0
LAYER
  2
BLACK
  70
0
  62
7
  6
CONTINUOUS
  0
ENDTAB
  0
ENDSEC
  0
SECTION
  2
ENTITIES
0
LINE
8
BLACK
6
CONTINUOUS
10
90.17
20
-55.88
11
129.54
21
-55.88
0
LINE
8
BLACK
6
CONTINUOUS
10
129.54
20
-55.88
11
129.54
21
-151.13
0
LINE
8
BLACK
6
CONTINUOUS
10
129.54
20
-151.13
11
90.17
21
-151.13
0
LINE
8
BLACK
6
CONTINUOUS
10
90.17
20
-151.13
11
90.17
21
-55.88
0
LINE
8
BLACK
6
CONTINUOUS
10
92.6192
20
-154.362
11
92.6192
21
-152.362
0
LINE
8
BLACK
6
CONTINUOUS
10
92.6192
20
-152.362
11
93.0954
21
-152.362
0
LINE
8
BLACK
6
CONTINUOUS
10
93.0954
20
-152.362
11
93.3811
21
-152.457
0
LINE
8
BLACK
6
CONTINUOUS
10
93.3811
20
-152.457
11
93.5716
21
-152.647
0
LINE
8
BLACK
6
CONTINUOUS
10
93.5716
20
-152.647
11
93.6668
21
-152.838
0
LINE
8
BLACK
6
CONTINUOUS
10
93.6668
20
-152.838
11
93.762
21
-153.219
0
LINE
8
BLACK
6
CONTINUOUS
10
93.762
20
-153.219
11
93.762
21
-153.505
0
LINE
8
BLACK
6
CONTINUOUS
10
93.762
20
-153.505
11
93.6668
21
-153.886
0
LINE
8
BLACK
6
CONTINUOUS
10
93.6668
20
-153.886
11
93.5716
21
-154.076
0
LINE
8
BLACK
6
CONTINUOUS
10
93.5716
20
-154.076
11
93.3811
21
-154.267
0
LINE
8
BLACK
6
CONTINUOUS
10
93.3811
20
-154.267
11
93.0954
21
-154.362
0
LINE
8
BLACK
6
CONTINUOUS
10
93.0954
20
-154.362
11
92.6192
21
-154.362
0
LINE
8
BLACK
6
CONTINUOUS
10
94.6192
20
-154.362
11
94.6192
21
-153.028
0
LINE
8
BLACK
6
CONTINUOUS
10
94.6192
20
-153.409
11
94.7144
21
-153.219
0
LINE
8
BLACK
6
CONTINUOUS
10
94.7144
20
-153.219
11
94.8097
21
-153.124
0
LINE
8
BLACK
6
CONTINUOUS
10
94.8097
20
-153.124
11
95.0001
21
-153.028
0
LINE
8
BLACK
6
CONTINUOUS
10
95.0001
20
-153.028
11
95.1906
21
-153.028
0
LINE
8
BLACK
6
CONTINUOUS
10
95.8573
20
-154.362
11
95.8573
21
-153.028
0
LINE
8
BLACK
6
CONTINUOUS
10
95.8573
20
-152.362
11
95.762
21
-152.457
0
LINE
8
BLACK
6
CONTINUOUS
10
95.762
20
-152.457
11
95.8573
21
-152.552
0
LINE
8
BLACK
6
CONTINUOUS
10
95.8573
20
-152.552
11
95.9525
21
-152.457
0
LINE
8
BLACK
6
CONTINUOUS
10
95.9525
20
-152.457
11
95.8573
21
-152.362
0
LINE
8
BLACK
6
CONTINUOUS
10
95.8573
20
-152.362
11
95.8573
21
-152.552
0
LINE
8
BLACK
6
CONTINUOUS
10
97.0954
20
-154.362
11
96.9049
21
-154.267
0
LINE
8
BLACK
6
CONTINUOUS
10
96.9049
20
-154.267
11
96.8097
21
-154.076
0
LINE
8
BLACK
6
CONTINUOUS
10
96.8097
20
-154.076
11
96.8097
21
-152.362
0
LINE
8
BLACK
6
CONTINUOUS
10
98.143
20
-154.362
11
97.9525
21
-154.267
0
LINE
8
BLACK
6
CONTINUOUS
10
97.9525
20
-154.267
11
97.8573
21
-154.076
0
LINE
8
BLACK
6
CONTINUOUS
10
97.8573
20
-154.076
11
97.8573
21
-152.362
0
LINE
8
BLACK
6
CONTINUOUS
10
100.429
20
-154.362
11
100.429
21
-152.362
0
LINE
8
BLACK
6
CONTINUOUS
10
100.429
20
-152.362
11
101.095
21
-153.79
0
LINE
8
BLACK
6
CONTINUOUS
10
101.095
20
-153.79
11
101.762
21
-152.362
0
LINE
8
BLACK
6
CONTINUOUS
10
101.762
20
-152.362
11
101.762
21
-154.362
0
LINE
8
BLACK
6
CONTINUOUS
10
103.572
20
-154.362
11
103.572
21
-153.314
0
LINE
8
BLACK
6
CONTINUOUS
10
103.572
20
-153.314
11
103.476
21
-153.124
0
LINE
8
BLACK
6
CONTINUOUS
10
103.476
20
-153.124
11
103.286
21
-153.028
0
LINE
8
BLACK
6
CONTINUOUS
10
103.286
20
-153.028
11
102.905
21
-153.028
0
LINE
8
BLACK
6
CONTINUOUS
10
102.905
20
-153.028
11
102.714
21
-153.124
0
LINE
8
BLACK
6
CONTINUOUS
10
103.572
20
-154.267
11
103.381
21
-154.362
0
LINE
8
BLACK
6
CONTINUOUS
10
103.381
20
-154.362
11
102.905
21
-154.362
0
LINE
8
BLACK
6
CONTINUOUS
10
102.905
20
-154.362
11
102.714
21
-154.267
0
LINE
8
BLACK
6
CONTINUOUS
10
102.714
20
-154.267
11
102.619
21
-154.076
0
LINE
8
BLACK
6
CONTINUOUS
10
102.619
20
-154.076
11
102.619
21
-153.886
0
LINE
8
BLACK
6
CONTINUOUS
10
102.619
20
-153.886
11
102.714
21
-153.695
0
LINE
8
BLACK
6
CONTINUOUS
10
102.714
20
-153.695
11
102.905
21
-153.6
0
LINE
8
BLACK
6
CONTINUOUS
10
102.905
20
-153.6
11
103.381
21
-153.6
0
LINE
8
BLACK
6
CONTINUOUS
10
103.381
20
-153.6
11
103.572
21
-153.505
0
LINE
8
BLACK
6
CONTINUOUS
10
104.524
20
-153.028
11
104.524
21
-155.028
0
LINE
8
BLACK
6
CONTINUOUS
10
104.524
20
-153.124
11
104.714
21
-153.028
0
LINE
8
BLACK
6
CONTINUOUS
10
104.714
20
-153.028
11
105.095
21
-153.028
0
LINE
8
BLACK
6
CONTINUOUS
10
105.095
20
-153.028
11
105.286
21
-153.124
0
LINE
8
BLACK
6
CONTINUOUS
10
105.286
20
-153.124
11
105.381
21
-153.219
0
LINE
8
BLACK
6
CONTINUOUS
10
105.381
20
-153.219
11
105.476
21
-153.409
0
LINE
8
BLACK
6
CONTINUOUS
10
105.476
20
-153.409
11
105.476
21
-153.981
0
LINE
8
BLACK
6
CONTINUOUS
10
105.476
20
-153.981
11
105.381
21
-154.171
0
LINE
8
BLACK
6
CONTINUOUS
10
105.381
20
-154.171
11
105.286
21
-154.267
0
LINE
8
BLACK
6
CONTINUOUS
10
105.286
20
-154.267
11
105.095
21
-154.362
0
LINE
8
BLACK
6
CONTINUOUS
10
105.095
20
-154.362
11
104.714
21
-154.362
0
LINE
8
BLACK
6
CONTINUOUS
10
104.714
20
-154.362
11
104.524
21
-154.267
0
LINE
8
BLACK
6
CONTINUOUS
10
106.333
20
-154.171
11
106.429
21
-154.267
0
LINE
8
BLACK
6
CONTINUOUS
10
106.429
20
-154.267
11
106.333
21
-154.362
0
LINE
8
BLACK
6
CONTINUOUS
10
106.333
20
-154.362
11
106.238
21
-154.267
0
LINE
8
BLACK
6
CONTINUOUS
10
106.238
20
-154.267
11
106.333
21
-154.171
0
LINE
8
BLACK
6
CONTINUOUS
10
106.333
20
-154.171
11
106.333
21
-154.362
0
LINE
8
BLACK
6
CONTINUOUS
10
106.333
20
-153.124
11
106.429
21
-153.219
0
LINE
8
BLACK
6
CONTINUOUS
10
106.429
20
-153.219
11
106.333
21
-153.314
0
LINE
8
BLACK
6
CONTINUOUS
10
106.333
20
-153.314
11
106.238
21
-153.219
0
LINE
8
BLACK
6
CONTINUOUS
10
106.238
20
-153.219
11
106.333
21
-153.124
0
LINE
8
BLACK
6
CONTINUOUS
10
106.333
20
-153.124
11
106.333
21
-153.314
  0
ENDSEC
  0
EOF
