  0
SECTION
  2
HEADER
  9
$ANGBASE
  50
0.0
  9
$ANGDIR
  70
1
  9
$MEASUREMENT
  70
1
  0
ENDSEC
  0
SECTION
  2
TABLES
  0
TABLE
  2
LTYPE
  70
4
  0
LTYPE
  5
40F
  2
CONTINUOUS
  70
0
  3
Solid line
  72
65
  73
0
  40
0.0
  0
LTYPE
  5
410
  2
DASHDOT
 70
0
  3
Dash Dot ____ _ ____ _
 72
65
 73
4
 40
2.0
 49
1.25
 49
-0.25
 49
0.25
 49
-0.25
  0
LTYPE
  5
411
  2
DASHED
 70
0
  3
Dashed __ __ __ __ __
 72
65
 73
2
 40
0.75
 49
0.5
 49
-0.25
  0
LTYPE
  5
43B
  2
DOTTED
 70
0
  3
Dotted .  .  .  .
 72
65
 73
2
 40
0.2
 49
0.0
 49
-0.2
  0
ENDTAB
  0
TABLE
  2
STYLE
  70
4
  0
STYLE
  2
KICAD
  70
0
  40
0
  41
1
  42
1
  50
0
  71
0
  3
isocp.shx
  0
STYLE
  2
KICADB
  70
0
  40
0
  41
1
  42
1
  50
0
  71
0
  3
isocp.shx
  0
STYLE
  2
KICADI
  70
0
  40
0
  41
1
  42
1
  50
15
  71
0
  3
isocp.shx
  0
STYLE
  2
KICADBI
  70
0
  40
0
  41
1
  42
1
  50
15
  71
0
  3
isocp.shx
  0
ENDTAB
  0
TABLE
  2
LAYER
  70
1
  0
LAYER
  2
BLACK
  70
0
  62
7
  6
CONTINUOUS
  0
ENDTAB
  0
ENDSEC
  0
SECTION
  2
ENTITIES
0
LINE
8
BLACK
6
CONTINUOUS
10
90.17
20
-55.88
11
129.54
21
-55.88
0
LINE
8
BLACK
6
CONTINUOUS
10
129.54
20
-55.88
11
129.54
21
-151.13
0
LINE
8
BLACK
6
CONTINUOUS
10
129.54
20
-151.13
11
90.17
21
-151.13
0
LINE
8
BLACK
6
CONTINUOUS
10
90.17
20
-151.13
11
90.17
21
-55.88
0
LINE
8
BLACK
6
CONTINUOUS
10
111.85
20
-100.85
11
112.15
21
-101.15
0
LINE
8
BLACK
6
CONTINUOUS
10
112.15
20
-100.85
11
111.85
21
-101.15
0
LINE
8
BLACK
6
CONTINUOUS
10
112.85
20
-97.35
11
113.15
21
-97.65
0
LINE
8
BLACK
6
CONTINUOUS
10
113.15
20
-97.35
11
112.85
21
-97.65
0
LINE
8
BLACK
6
CONTINUOUS
10
113.1
20
-75.79
11
113.4
21
-76.09
0
LINE
8
BLACK
6
CONTINUOUS
10
113.4
20
-75.79
11
113.1
21
-76.09
0
LINE
8
BLACK
6
CONTINUOUS
10
113.3
20
-95.77
11
113.6
21
-96.07
0
LINE
8
BLACK
6
CONTINUOUS
10
113.6
20
-95.77
11
113.3
21
-96.07
0
LINE
8
BLACK
6
CONTINUOUS
10
114.09
20
-92.98
11
114.39
21
-93.28
0
LINE
8
BLACK
6
CONTINUOUS
10
114.39
20
-92.98
11
114.09
21
-93.28
0
LINE
8
BLACK
6
CONTINUOUS
10
115.14
20
-88.7
11
115.44
21
-89
0
LINE
8
BLACK
6
CONTINUOUS
10
115.44
20
-88.7
11
115.14
21
-89
0
LINE
8
BLACK
6
CONTINUOUS
10
115.24
20
-90.66
11
115.54
21
-90.96
0
LINE
8
BLACK
6
CONTINUOUS
10
115.54
20
-90.66
11
115.24
21
-90.96
0
LINE
8
BLACK
6
CONTINUOUS
10
115.928
20
-81.638
11
116.228
21
-81.938
0
LINE
8
BLACK
6
CONTINUOUS
10
116.228
20
-81.638
11
115.928
21
-81.938
0
LINE
8
BLACK
6
CONTINUOUS
10
115.98
20
-84.66
11
116.28
21
-84.96
0
LINE
8
BLACK
6
CONTINUOUS
10
116.28
20
-84.66
11
115.98
21
-84.96
0
LINE
8
BLACK
6
CONTINUOUS
10
116.69
20
-81.09
11
116.99
21
-81.39
0
LINE
8
BLACK
6
CONTINUOUS
10
116.99
20
-81.09
11
116.69
21
-81.39
0
LINE
8
BLACK
6
CONTINUOUS
10
116.944
20
-69.192
11
117.244
21
-69.492
0
LINE
8
BLACK
6
CONTINUOUS
10
117.244
20
-69.192
11
116.944
21
-69.492
0
LINE
8
BLACK
6
CONTINUOUS
10
117.4
20
-74.73
11
117.7
21
-75.03
0
LINE
8
BLACK
6
CONTINUOUS
10
117.7
20
-74.73
11
117.4
21
-75.03
0
LINE
8
BLACK
6
CONTINUOUS
10
117.77
20
-80.4
11
118.07
21
-80.7
0
LINE
8
BLACK
6
CONTINUOUS
10
118.07
20
-80.4
11
117.77
21
-80.7
0
LINE
8
BLACK
6
CONTINUOUS
10
118.62
20
-76.2
11
118.92
21
-76.5
0
LINE
8
BLACK
6
CONTINUOUS
10
118.92
20
-76.2
11
118.62
21
-76.5
0
LINE
8
BLACK
6
CONTINUOUS
10
118.85
20
-82.45
11
119.15
21
-82.75
0
LINE
8
BLACK
6
CONTINUOUS
10
119.15
20
-82.45
11
118.85
21
-82.75
0
LINE
8
BLACK
6
CONTINUOUS
10
119.64
20
-72.36
11
119.94
21
-72.66
0
LINE
8
BLACK
6
CONTINUOUS
10
119.94
20
-72.36
11
119.64
21
-72.66
0
LINE
8
BLACK
6
CONTINUOUS
10
119.92
20
-73.84
11
120.22
21
-74.14
0
LINE
8
BLACK
6
CONTINUOUS
10
120.22
20
-73.84
11
119.92
21
-74.14
0
CIRCLE
8
BLACK
10
100.642
20
-143.326
40
0.375
0
CIRCLE
8
BLACK
10
100.642
20
-144.596
40
0.375
0
CIRCLE
8
BLACK
10
100.642
20
-145.866
40
0.375
0
CIRCLE
8
BLACK
10
114.3
20
-60.854
40
0.375
0
CIRCLE
8
BLACK
10
115.57
20
-62.124
40
0.375
0
CIRCLE
8
BLACK
10
116.84
20
-60.854
40
0.375
0
CIRCLE
8
BLACK
10
121.92
20
-81.28
40
0.375
0
CIRCLE
8
BLACK
10
123.19
20
-82.55
40
0.375
0
CIRCLE
8
BLACK
10
124.46
20
-81.28
40
0.375
0
LINE
8
BLACK
6
CONTINUOUS
10
92.456
20
-59.544
11
92.456
21
-60.344
0
LINE
8
BLACK
6
CONTINUOUS
10
92.056
20
-59.944
11
92.856
21
-59.944
0
LINE
8
BLACK
6
CONTINUOUS
10
93.726
20
-128.378
11
93.726
21
-129.178
0
LINE
8
BLACK
6
CONTINUOUS
10
93.326
20
-128.778
11
94.126
21
-128.778
0
LINE
8
BLACK
6
CONTINUOUS
10
93.726
20
-138.538
11
93.726
21
-139.338
0
LINE
8
BLACK
6
CONTINUOUS
10
93.326
20
-138.938
11
94.126
21
-138.938
0
LINE
8
BLACK
6
CONTINUOUS
10
93.98
20
-71.228
11
93.98
21
-72.028
0
LINE
8
BLACK
6
CONTINUOUS
10
93.58
20
-71.628
11
94.38
21
-71.628
0
LINE
8
BLACK
6
CONTINUOUS
10
94.04
20
-67.164
11
94.04
21
-67.964
0
LINE
8
BLACK
6
CONTINUOUS
10
93.64
20
-67.564
11
94.44
21
-67.564
0
LINE
8
BLACK
6
CONTINUOUS
10
97.536
20
-83.48
11
97.536
21
-84.28
0
LINE
8
BLACK
6
CONTINUOUS
10
97.136
20
-83.88
11
97.936
21
-83.88
0
LINE
8
BLACK
6
CONTINUOUS
10
97.536
20
-90.98
11
97.536
21
-91.78
0
LINE
8
BLACK
6
CONTINUOUS
10
97.136
20
-91.38
11
97.936
21
-91.38
0
LINE
8
BLACK
6
CONTINUOUS
10
98.044
20
-128.378
11
98.044
21
-129.178
0
LINE
8
BLACK
6
CONTINUOUS
10
97.644
20
-128.778
11
98.444
21
-128.778
0
LINE
8
BLACK
6
CONTINUOUS
10
98.044
20
-138.538
11
98.044
21
-139.338
0
LINE
8
BLACK
6
CONTINUOUS
10
97.644
20
-138.938
11
98.444
21
-138.938
0
LINE
8
BLACK
6
CONTINUOUS
10
101.48
20
-71.228
11
101.48
21
-72.028
0
LINE
8
BLACK
6
CONTINUOUS
10
101.08
20
-71.628
11
101.88
21
-71.628
0
LINE
8
BLACK
6
CONTINUOUS
10
101.54
20
-67.164
11
101.54
21
-67.964
0
LINE
8
BLACK
6
CONTINUOUS
10
101.14
20
-67.564
11
101.94
21
-67.564
0
LINE
8
BLACK
6
CONTINUOUS
10
101.6
20
-62.846
11
101.6
21
-63.646
0
LINE
8
BLACK
6
CONTINUOUS
10
101.2
20
-63.246
11
102
21
-63.246
0
LINE
8
BLACK
6
CONTINUOUS
10
102.616
20
-59.544
11
102.616
21
-60.344
0
LINE
8
BLACK
6
CONTINUOUS
10
102.216
20
-59.944
11
103.016
21
-59.944
0
LINE
8
BLACK
6
CONTINUOUS
10
111.76
20
-62.846
11
111.76
21
-63.646
0
LINE
8
BLACK
6
CONTINUOUS
10
111.36
20
-63.246
11
112.16
21
-63.246
0
LINE
8
BLACK
6
CONTINUOUS
10
115.57
20
-65.64
11
115.57
21
-66.44
0
LINE
8
BLACK
6
CONTINUOUS
10
115.17
20
-66.04
11
115.97
21
-66.04
0
LINE
8
BLACK
6
CONTINUOUS
10
119.634
20
-91.548
11
119.634
21
-92.348
0
LINE
8
BLACK
6
CONTINUOUS
10
119.234
20
-91.948
11
120.034
21
-91.948
0
LINE
8
BLACK
6
CONTINUOUS
10
119.634
20
-101.708
11
119.634
21
-102.508
0
LINE
8
BLACK
6
CONTINUOUS
10
119.234
20
-102.108
11
120.034
21
-102.108
0
LINE
8
BLACK
6
CONTINUOUS
10
119.694
20
-87.484
11
119.694
21
-88.284
0
LINE
8
BLACK
6
CONTINUOUS
10
119.294
20
-87.884
11
120.094
21
-87.884
0
LINE
8
BLACK
6
CONTINUOUS
10
123.07
20
-65.64
11
123.07
21
-66.44
0
LINE
8
BLACK
6
CONTINUOUS
10
122.67
20
-66.04
11
123.47
21
-66.04
0
LINE
8
BLACK
6
CONTINUOUS
10
127.194
20
-87.484
11
127.194
21
-88.284
0
LINE
8
BLACK
6
CONTINUOUS
10
126.794
20
-87.884
11
127.594
21
-87.884
0
LINE
8
BLACK
6
CONTINUOUS
10
94.0796
20
-77.8386
11
94.0796
21
-77.1314
0
LINE
8
BLACK
6
CONTINUOUS
10
94.0796
20
-77.1314
11
93.3724
21
-77.1314
0
LINE
8
BLACK
6
CONTINUOUS
10
93.3724
20
-77.1314
11
93.3724
21
-77.8386
0
LINE
8
BLACK
6
CONTINUOUS
10
93.3724
20
-77.8386
11
94.0796
21
-77.8386
0
LINE
8
BLACK
6
CONTINUOUS
10
94.0796
20
-80.3786
11
94.0796
21
-79.6714
0
LINE
8
BLACK
6
CONTINUOUS
10
94.0796
20
-79.6714
11
93.3724
21
-79.6714
0
LINE
8
BLACK
6
CONTINUOUS
10
93.3724
20
-79.6714
11
93.3724
21
-80.3786
0
LINE
8
BLACK
6
CONTINUOUS
10
93.3724
20
-80.3786
11
94.0796
21
-80.3786
0
LINE
8
BLACK
6
CONTINUOUS
10
94.0796
20
-82.9186
11
94.0796
21
-82.2114
0
LINE
8
BLACK
6
CONTINUOUS
10
94.0796
20
-82.2114
11
93.3724
21
-82.2114
0
LINE
8
BLACK
6
CONTINUOUS
10
93.3724
20
-82.2114
11
93.3724
21
-82.9186
0
LINE
8
BLACK
6
CONTINUOUS
10
93.3724
20
-82.9186
11
94.0796
21
-82.9186
0
LINE
8
BLACK
6
CONTINUOUS
10
101.954
20
-80.3636
11
101.954
21
-79.6564
0
LINE
8
BLACK
6
CONTINUOUS
10
101.954
20
-79.6564
11
101.246
21
-79.6564
0
LINE
8
BLACK
6
CONTINUOUS
10
101.246
20
-79.6564
11
101.246
21
-80.3636
0
LINE
8
BLACK
6
CONTINUOUS
10
101.246
20
-80.3636
11
101.954
21
-80.3636
0
LINE
8
BLACK
6
CONTINUOUS
10
101.954
20
-82.9036
11
101.954
21
-82.1964
0
LINE
8
BLACK
6
CONTINUOUS
10
101.954
20
-82.1964
11
101.246
21
-82.1964
0
LINE
8
BLACK
6
CONTINUOUS
10
101.246
20
-82.1964
11
101.246
21
-82.9036
0
LINE
8
BLACK
6
CONTINUOUS
10
101.246
20
-82.9036
11
101.954
21
-82.9036
0
LINE
8
BLACK
6
CONTINUOUS
10
101.954
20
-85.4436
11
101.954
21
-84.7364
0
LINE
8
BLACK
6
CONTINUOUS
10
101.954
20
-84.7364
11
101.246
21
-84.7364
0
LINE
8
BLACK
6
CONTINUOUS
10
101.246
20
-84.7364
11
101.246
21
-85.4436
0
LINE
8
BLACK
6
CONTINUOUS
10
101.246
20
-85.4436
11
101.954
21
-85.4436
0
LINE
8
BLACK
6
CONTINUOUS
10
101.954
20
-87.9836
11
101.954
21
-87.2764
0
LINE
8
BLACK
6
CONTINUOUS
10
101.954
20
-87.2764
11
101.246
21
-87.2764
0
LINE
8
BLACK
6
CONTINUOUS
10
101.246
20
-87.2764
11
101.246
21
-87.9836
0
LINE
8
BLACK
6
CONTINUOUS
10
101.246
20
-87.9836
11
101.954
21
-87.9836
0
LINE
8
BLACK
6
CONTINUOUS
10
101.954
20
-90.5236
11
101.954
21
-89.8164
0
LINE
8
BLACK
6
CONTINUOUS
10
101.954
20
-89.8164
11
101.246
21
-89.8164
0
LINE
8
BLACK
6
CONTINUOUS
10
101.246
20
-89.8164
11
101.246
21
-90.5236
0
LINE
8
BLACK
6
CONTINUOUS
10
101.246
20
-90.5236
11
101.954
21
-90.5236
0
LINE
8
BLACK
6
CONTINUOUS
10
101.954
20
-93.0636
11
101.954
21
-92.3564
0
LINE
8
BLACK
6
CONTINUOUS
10
101.954
20
-92.3564
11
101.246
21
-92.3564
0
LINE
8
BLACK
6
CONTINUOUS
10
101.246
20
-92.3564
11
101.246
21
-93.0636
0
LINE
8
BLACK
6
CONTINUOUS
10
101.246
20
-93.0636
11
101.954
21
-93.0636
0
LINE
8
BLACK
6
CONTINUOUS
10
101.954
20
-95.6036
11
101.954
21
-94.8964
0
LINE
8
BLACK
6
CONTINUOUS
10
101.954
20
-94.8964
11
101.246
21
-94.8964
0
LINE
8
BLACK
6
CONTINUOUS
10
101.246
20
-94.8964
11
101.246
21
-95.6036
0
LINE
8
BLACK
6
CONTINUOUS
10
101.246
20
-95.6036
11
101.954
21
-95.6036
0
LINE
8
BLACK
6
CONTINUOUS
10
101.954
20
-98.1436
11
101.954
21
-97.4364
0
LINE
8
BLACK
6
CONTINUOUS
10
101.954
20
-97.4364
11
101.246
21
-97.4364
0
LINE
8
BLACK
6
CONTINUOUS
10
101.246
20
-97.4364
11
101.246
21
-98.1436
0
LINE
8
BLACK
6
CONTINUOUS
10
101.246
20
-98.1436
11
101.954
21
-98.1436
0
LINE
8
BLACK
6
CONTINUOUS
10
101.954
20
-100.684
11
101.954
21
-99.9764
0
LINE
8
BLACK
6
CONTINUOUS
10
101.954
20
-99.9764
11
101.246
21
-99.9764
0
LINE
8
BLACK
6
CONTINUOUS
10
101.246
20
-99.9764
11
101.246
21
-100.684
0
LINE
8
BLACK
6
CONTINUOUS
10
101.246
20
-100.684
11
101.954
21
-100.684
0
LINE
8
BLACK
6
CONTINUOUS
10
101.954
20
-103.224
11
101.954
21
-102.516
0
LINE
8
BLACK
6
CONTINUOUS
10
101.954
20
-102.516
11
101.246
21
-102.516
0
LINE
8
BLACK
6
CONTINUOUS
10
101.246
20
-102.516
11
101.246
21
-103.224
0
LINE
8
BLACK
6
CONTINUOUS
10
101.246
20
-103.224
11
101.954
21
-103.224
0
LINE
8
BLACK
6
CONTINUOUS
10
101.954
20
-105.764
11
101.954
21
-105.056
0
LINE
8
BLACK
6
CONTINUOUS
10
101.954
20
-105.056
11
101.246
21
-105.056
0
LINE
8
BLACK
6
CONTINUOUS
10
101.246
20
-105.056
11
101.246
21
-105.764
0
LINE
8
BLACK
6
CONTINUOUS
10
101.246
20
-105.764
11
101.954
21
-105.764
0
LINE
8
BLACK
6
CONTINUOUS
10
101.954
20
-108.304
11
101.954
21
-107.596
0
LINE
8
BLACK
6
CONTINUOUS
10
101.954
20
-107.596
11
101.246
21
-107.596
0
LINE
8
BLACK
6
CONTINUOUS
10
101.246
20
-107.596
11
101.246
21
-108.304
0
LINE
8
BLACK
6
CONTINUOUS
10
101.246
20
-108.304
11
101.954
21
-108.304
0
LINE
8
BLACK
6
CONTINUOUS
10
101.954
20
-110.844
11
101.954
21
-110.136
0
LINE
8
BLACK
6
CONTINUOUS
10
101.954
20
-110.136
11
101.246
21
-110.136
0
LINE
8
BLACK
6
CONTINUOUS
10
101.246
20
-110.136
11
101.246
21
-110.844
0
LINE
8
BLACK
6
CONTINUOUS
10
101.246
20
-110.844
11
101.954
21
-110.844
0
LINE
8
BLACK
6
CONTINUOUS
10
101.954
20
-113.384
11
101.954
21
-112.676
0
LINE
8
BLACK
6
CONTINUOUS
10
101.954
20
-112.676
11
101.246
21
-112.676
0
LINE
8
BLACK
6
CONTINUOUS
10
101.246
20
-112.676
11
101.246
21
-113.384
0
LINE
8
BLACK
6
CONTINUOUS
10
101.246
20
-113.384
11
101.954
21
-113.384
0
LINE
8
BLACK
6
CONTINUOUS
10
101.954
20
-115.924
11
101.954
21
-115.216
0
LINE
8
BLACK
6
CONTINUOUS
10
101.954
20
-115.216
11
101.246
21
-115.216
0
LINE
8
BLACK
6
CONTINUOUS
10
101.246
20
-115.216
11
101.246
21
-115.924
0
LINE
8
BLACK
6
CONTINUOUS
10
101.246
20
-115.924
11
101.954
21
-115.924
0
LINE
8
BLACK
6
CONTINUOUS
10
101.954
20
-118.464
11
101.954
21
-117.756
0
LINE
8
BLACK
6
CONTINUOUS
10
101.954
20
-117.756
11
101.246
21
-117.756
0
LINE
8
BLACK
6
CONTINUOUS
10
101.246
20
-117.756
11
101.246
21
-118.464
0
LINE
8
BLACK
6
CONTINUOUS
10
101.246
20
-118.464
11
101.954
21
-118.464
0
LINE
8
BLACK
6
CONTINUOUS
10
101.954
20
-121.004
11
101.954
21
-120.296
0
LINE
8
BLACK
6
CONTINUOUS
10
101.954
20
-120.296
11
101.246
21
-120.296
0
LINE
8
BLACK
6
CONTINUOUS
10
101.246
20
-120.296
11
101.246
21
-121.004
0
LINE
8
BLACK
6
CONTINUOUS
10
101.246
20
-121.004
11
101.954
21
-121.004
0
LINE
8
BLACK
6
CONTINUOUS
10
101.954
20
-123.544
11
101.954
21
-122.836
0
LINE
8
BLACK
6
CONTINUOUS
10
101.954
20
-122.836
11
101.246
21
-122.836
0
LINE
8
BLACK
6
CONTINUOUS
10
101.246
20
-122.836
11
101.246
21
-123.544
0
LINE
8
BLACK
6
CONTINUOUS
10
101.246
20
-123.544
11
101.954
21
-123.544
0
LINE
8
BLACK
6
CONTINUOUS
10
101.954
20
-126.084
11
101.954
21
-125.376
0
LINE
8
BLACK
6
CONTINUOUS
10
101.954
20
-125.376
11
101.246
21
-125.376
0
LINE
8
BLACK
6
CONTINUOUS
10
101.246
20
-125.376
11
101.246
21
-126.084
0
LINE
8
BLACK
6
CONTINUOUS
10
101.246
20
-126.084
11
101.954
21
-126.084
0
LINE
8
BLACK
6
CONTINUOUS
10
101.954
20
-128.624
11
101.954
21
-127.916
0
LINE
8
BLACK
6
CONTINUOUS
10
101.954
20
-127.916
11
101.246
21
-127.916
0
LINE
8
BLACK
6
CONTINUOUS
10
101.246
20
-127.916
11
101.246
21
-128.624
0
LINE
8
BLACK
6
CONTINUOUS
10
101.246
20
-128.624
11
101.954
21
-128.624
0
LINE
8
BLACK
6
CONTINUOUS
10
101.954
20
-131.164
11
101.954
21
-130.456
0
LINE
8
BLACK
6
CONTINUOUS
10
101.954
20
-130.456
11
101.246
21
-130.456
0
LINE
8
BLACK
6
CONTINUOUS
10
101.246
20
-130.456
11
101.246
21
-131.164
0
LINE
8
BLACK
6
CONTINUOUS
10
101.246
20
-131.164
11
101.954
21
-131.164
0
LINE
8
BLACK
6
CONTINUOUS
10
92.6192
20
-154.362
11
92.6192
21
-152.362
0
LINE
8
BLACK
6
CONTINUOUS
10
92.6192
20
-152.362
11
93.0954
21
-152.362
0
LINE
8
BLACK
6
CONTINUOUS
10
93.0954
20
-152.362
11
93.3811
21
-152.457
0
LINE
8
BLACK
6
CONTINUOUS
10
93.3811
20
-152.457
11
93.5716
21
-152.647
0
LINE
8
BLACK
6
CONTINUOUS
10
93.5716
20
-152.647
11
93.6668
21
-152.838
0
LINE
8
BLACK
6
CONTINUOUS
10
93.6668
20
-152.838
11
93.762
21
-153.219
0
LINE
8
BLACK
6
CONTINUOUS
10
93.762
20
-153.219
11
93.762
21
-153.505
0
LINE
8
BLACK
6
CONTINUOUS
10
93.762
20
-153.505
11
93.6668
21
-153.886
0
LINE
8
BLACK
6
CONTINUOUS
10
93.6668
20
-153.886
11
93.5716
21
-154.076
0
LINE
8
BLACK
6
CONTINUOUS
10
93.5716
20
-154.076
11
93.3811
21
-154.267
0
LINE
8
BLACK
6
CONTINUOUS
10
93.3811
20
-154.267
11
93.0954
21
-154.362
0
LINE
8
BLACK
6
CONTINUOUS
10
93.0954
20
-154.362
11
92.6192
21
-154.362
0
LINE
8
BLACK
6
CONTINUOUS
10
94.6192
20
-154.362
11
94.6192
21
-153.028
0
LINE
8
BLACK
6
CONTINUOUS
10
94.6192
20
-153.409
11
94.7144
21
-153.219
0
LINE
8
BLACK
6
CONTINUOUS
10
94.7144
20
-153.219
11
94.8097
21
-153.124
0
LINE
8
BLACK
6
CONTINUOUS
10
94.8097
20
-153.124
11
95.0001
21
-153.028
0
LINE
8
BLACK
6
CONTINUOUS
10
95.0001
20
-153.028
11
95.1906
21
-153.028
0
LINE
8
BLACK
6
CONTINUOUS
10
95.8573
20
-154.362
11
95.8573
21
-153.028
0
LINE
8
BLACK
6
CONTINUOUS
10
95.8573
20
-152.362
11
95.762
21
-152.457
0
LINE
8
BLACK
6
CONTINUOUS
10
95.762
20
-152.457
11
95.8573
21
-152.552
0
LINE
8
BLACK
6
CONTINUOUS
10
95.8573
20
-152.552
11
95.9525
21
-152.457
0
LINE
8
BLACK
6
CONTINUOUS
10
95.9525
20
-152.457
11
95.8573
21
-152.362
0
LINE
8
BLACK
6
CONTINUOUS
10
95.8573
20
-152.362
11
95.8573
21
-152.552
0
LINE
8
BLACK
6
CONTINUOUS
10
97.0954
20
-154.362
11
96.9049
21
-154.267
0
LINE
8
BLACK
6
CONTINUOUS
10
96.9049
20
-154.267
11
96.8097
21
-154.076
0
LINE
8
BLACK
6
CONTINUOUS
10
96.8097
20
-154.076
11
96.8097
21
-152.362
0
LINE
8
BLACK
6
CONTINUOUS
10
98.143
20
-154.362
11
97.9525
21
-154.267
0
LINE
8
BLACK
6
CONTINUOUS
10
97.9525
20
-154.267
11
97.8573
21
-154.076
0
LINE
8
BLACK
6
CONTINUOUS
10
97.8573
20
-154.076
11
97.8573
21
-152.362
0
LINE
8
BLACK
6
CONTINUOUS
10
100.429
20
-154.362
11
100.429
21
-152.362
0
LINE
8
BLACK
6
CONTINUOUS
10
100.429
20
-152.362
11
101.095
21
-153.79
0
LINE
8
BLACK
6
CONTINUOUS
10
101.095
20
-153.79
11
101.762
21
-152.362
0
LINE
8
BLACK
6
CONTINUOUS
10
101.762
20
-152.362
11
101.762
21
-154.362
0
LINE
8
BLACK
6
CONTINUOUS
10
103.572
20
-154.362
11
103.572
21
-153.314
0
LINE
8
BLACK
6
CONTINUOUS
10
103.572
20
-153.314
11
103.476
21
-153.124
0
LINE
8
BLACK
6
CONTINUOUS
10
103.476
20
-153.124
11
103.286
21
-153.028
0
LINE
8
BLACK
6
CONTINUOUS
10
103.286
20
-153.028
11
102.905
21
-153.028
0
LINE
8
BLACK
6
CONTINUOUS
10
102.905
20
-153.028
11
102.714
21
-153.124
0
LINE
8
BLACK
6
CONTINUOUS
10
103.572
20
-154.267
11
103.381
21
-154.362
0
LINE
8
BLACK
6
CONTINUOUS
10
103.381
20
-154.362
11
102.905
21
-154.362
0
LINE
8
BLACK
6
CONTINUOUS
10
102.905
20
-154.362
11
102.714
21
-154.267
0
LINE
8
BLACK
6
CONTINUOUS
10
102.714
20
-154.267
11
102.619
21
-154.076
0
LINE
8
BLACK
6
CONTINUOUS
10
102.619
20
-154.076
11
102.619
21
-153.886
0
LINE
8
BLACK
6
CONTINUOUS
10
102.619
20
-153.886
11
102.714
21
-153.695
0
LINE
8
BLACK
6
CONTINUOUS
10
102.714
20
-153.695
11
102.905
21
-153.6
0
LINE
8
BLACK
6
CONTINUOUS
10
102.905
20
-153.6
11
103.381
21
-153.6
0
LINE
8
BLACK
6
CONTINUOUS
10
103.381
20
-153.6
11
103.572
21
-153.505
0
LINE
8
BLACK
6
CONTINUOUS
10
104.524
20
-153.028
11
104.524
21
-155.028
0
LINE
8
BLACK
6
CONTINUOUS
10
104.524
20
-153.124
11
104.714
21
-153.028
0
LINE
8
BLACK
6
CONTINUOUS
10
104.714
20
-153.028
11
105.095
21
-153.028
0
LINE
8
BLACK
6
CONTINUOUS
10
105.095
20
-153.028
11
105.286
21
-153.124
0
LINE
8
BLACK
6
CONTINUOUS
10
105.286
20
-153.124
11
105.381
21
-153.219
0
LINE
8
BLACK
6
CONTINUOUS
10
105.381
20
-153.219
11
105.476
21
-153.409
0
LINE
8
BLACK
6
CONTINUOUS
10
105.476
20
-153.409
11
105.476
21
-153.981
0
LINE
8
BLACK
6
CONTINUOUS
10
105.476
20
-153.981
11
105.381
21
-154.171
0
LINE
8
BLACK
6
CONTINUOUS
10
105.381
20
-154.171
11
105.286
21
-154.267
0
LINE
8
BLACK
6
CONTINUOUS
10
105.286
20
-154.267
11
105.095
21
-154.362
0
LINE
8
BLACK
6
CONTINUOUS
10
105.095
20
-154.362
11
104.714
21
-154.362
0
LINE
8
BLACK
6
CONTINUOUS
10
104.714
20
-154.362
11
104.524
21
-154.267
0
LINE
8
BLACK
6
CONTINUOUS
10
106.333
20
-154.171
11
106.429
21
-154.267
0
LINE
8
BLACK
6
CONTINUOUS
10
106.429
20
-154.267
11
106.333
21
-154.362
0
LINE
8
BLACK
6
CONTINUOUS
10
106.333
20
-154.362
11
106.238
21
-154.267
0
LINE
8
BLACK
6
CONTINUOUS
10
106.238
20
-154.267
11
106.333
21
-154.171
0
LINE
8
BLACK
6
CONTINUOUS
10
106.333
20
-154.171
11
106.333
21
-154.362
0
LINE
8
BLACK
6
CONTINUOUS
10
106.333
20
-153.124
11
106.429
21
-153.219
0
LINE
8
BLACK
6
CONTINUOUS
10
106.429
20
-153.219
11
106.333
21
-153.314
0
LINE
8
BLACK
6
CONTINUOUS
10
106.333
20
-153.314
11
106.238
21
-153.219
0
LINE
8
BLACK
6
CONTINUOUS
10
106.238
20
-153.219
11
106.333
21
-153.124
0
LINE
8
BLACK
6
CONTINUOUS
10
106.333
20
-153.124
11
106.333
21
-153.314
0
LINE
8
BLACK
6
CONTINUOUS
10
89.743
20
-157.507
11
90.043
21
-157.807
0
LINE
8
BLACK
6
CONTINUOUS
10
90.043
20
-157.507
11
89.743
21
-157.807
0
LINE
8
BLACK
6
CONTINUOUS
10
93.0001
20
-156.562
11
93.1906
21
-156.562
0
LINE
8
BLACK
6
CONTINUOUS
10
93.1906
20
-156.562
11
93.3811
21
-156.657
0
LINE
8
BLACK
6
CONTINUOUS
10
93.3811
20
-156.657
11
93.4763
21
-156.752
0
LINE
8
BLACK
6
CONTINUOUS
10
93.4763
20
-156.752
11
93.5716
21
-156.943
0
LINE
8
BLACK
6
CONTINUOUS
10
93.5716
20
-156.943
11
93.6668
21
-157.324
0
LINE
8
BLACK
6
CONTINUOUS
10
93.6668
20
-157.324
11
93.6668
21
-157.8
0
LINE
8
BLACK
6
CONTINUOUS
10
93.6668
20
-157.8
11
93.5716
21
-158.181
0
LINE
8
BLACK
6
CONTINUOUS
10
93.5716
20
-158.181
11
93.4763
21
-158.371
0
LINE
8
BLACK
6
CONTINUOUS
10
93.4763
20
-158.371
11
93.3811
21
-158.467
0
LINE
8
BLACK
6
CONTINUOUS
10
93.3811
20
-158.467
11
93.1906
21
-158.562
0
LINE
8
BLACK
6
CONTINUOUS
10
93.1906
20
-158.562
11
93.0001
21
-158.562
0
LINE
8
BLACK
6
CONTINUOUS
10
93.0001
20
-158.562
11
92.8097
21
-158.467
0
LINE
8
BLACK
6
CONTINUOUS
10
92.8097
20
-158.467
11
92.7144
21
-158.371
0
LINE
8
BLACK
6
CONTINUOUS
10
92.7144
20
-158.371
11
92.6192
21
-158.181
0
LINE
8
BLACK
6
CONTINUOUS
10
92.6192
20
-158.181
11
92.524
21
-157.8
0
LINE
8
BLACK
6
CONTINUOUS
10
92.524
20
-157.8
11
92.524
21
-157.324
0
LINE
8
BLACK
6
CONTINUOUS
10
92.524
20
-157.324
11
92.6192
21
-156.943
0
LINE
8
BLACK
6
CONTINUOUS
10
92.6192
20
-156.943
11
92.7144
21
-156.752
0
LINE
8
BLACK
6
CONTINUOUS
10
92.7144
20
-156.752
11
92.8097
21
-156.657
0
LINE
8
BLACK
6
CONTINUOUS
10
92.8097
20
-156.657
11
93.0001
21
-156.562
0
LINE
8
BLACK
6
CONTINUOUS
10
94.524
20
-158.371
11
94.6192
21
-158.467
0
LINE
8
BLACK
6
CONTINUOUS
10
94.6192
20
-158.467
11
94.524
21
-158.562
0
LINE
8
BLACK
6
CONTINUOUS
10
94.524
20
-158.562
11
94.4287
21
-158.467
0
LINE
8
BLACK
6
CONTINUOUS
10
94.4287
20
-158.467
11
94.524
21
-158.371
0
LINE
8
BLACK
6
CONTINUOUS
10
94.524
20
-158.371
11
94.524
21
-158.562
0
LINE
8
BLACK
6
CONTINUOUS
10
95.2859
20
-156.562
11
96.524
21
-156.562
0
LINE
8
BLACK
6
CONTINUOUS
10
96.524
20
-156.562
11
95.8573
21
-157.324
0
LINE
8
BLACK
6
CONTINUOUS
10
95.8573
20
-157.324
11
96.143
21
-157.324
0
LINE
8
BLACK
6
CONTINUOUS
10
96.143
20
-157.324
11
96.3335
21
-157.419
0
LINE
8
BLACK
6
CONTINUOUS
10
96.3335
20
-157.419
11
96.4287
21
-157.514
0
LINE
8
BLACK
6
CONTINUOUS
10
96.4287
20
-157.514
11
96.524
21
-157.705
0
LINE
8
BLACK
6
CONTINUOUS
10
96.524
20
-157.705
11
96.524
21
-158.181
0
LINE
8
BLACK
6
CONTINUOUS
10
96.524
20
-158.181
11
96.4287
21
-158.371
0
LINE
8
BLACK
6
CONTINUOUS
10
96.4287
20
-158.371
11
96.3335
21
-158.467
0
LINE
8
BLACK
6
CONTINUOUS
10
96.3335
20
-158.467
11
96.143
21
-158.562
0
LINE
8
BLACK
6
CONTINUOUS
10
96.143
20
-158.562
11
95.5716
21
-158.562
0
LINE
8
BLACK
6
CONTINUOUS
10
95.5716
20
-158.562
11
95.3811
21
-158.467
0
LINE
8
BLACK
6
CONTINUOUS
10
95.3811
20
-158.467
11
95.2859
21
-158.371
0
LINE
8
BLACK
6
CONTINUOUS
10
97.762
20
-156.562
11
97.9525
21
-156.562
0
LINE
8
BLACK
6
CONTINUOUS
10
97.9525
20
-156.562
11
98.143
21
-156.657
0
LINE
8
BLACK
6
CONTINUOUS
10
98.143
20
-156.657
11
98.2382
21
-156.752
0
LINE
8
BLACK
6
CONTINUOUS
10
98.2382
20
-156.752
11
98.3335
21
-156.943
0
LINE
8
BLACK
6
CONTINUOUS
10
98.3335
20
-156.943
11
98.4287
21
-157.324
0
LINE
8
BLACK
6
CONTINUOUS
10
98.4287
20
-157.324
11
98.4287
21
-157.8
0
LINE
8
BLACK
6
CONTINUOUS
10
98.4287
20
-157.8
11
98.3335
21
-158.181
0
LINE
8
BLACK
6
CONTINUOUS
10
98.3335
20
-158.181
11
98.2382
21
-158.371
0
LINE
8
BLACK
6
CONTINUOUS
10
98.2382
20
-158.371
11
98.143
21
-158.467
0
LINE
8
BLACK
6
CONTINUOUS
10
98.143
20
-158.467
11
97.9525
21
-158.562
0
LINE
8
BLACK
6
CONTINUOUS
10
97.9525
20
-158.562
11
97.762
21
-158.562
0
LINE
8
BLACK
6
CONTINUOUS
10
97.762
20
-158.562
11
97.5716
21
-158.467
0
LINE
8
BLACK
6
CONTINUOUS
10
97.5716
20
-158.467
11
97.4763
21
-158.371
0
LINE
8
BLACK
6
CONTINUOUS
10
97.4763
20
-158.371
11
97.3811
21
-158.181
0
LINE
8
BLACK
6
CONTINUOUS
10
97.3811
20
-158.181
11
97.2859
21
-157.8
0
LINE
8
BLACK
6
CONTINUOUS
10
97.2859
20
-157.8
11
97.2859
21
-157.324
0
LINE
8
BLACK
6
CONTINUOUS
10
97.2859
20
-157.324
11
97.3811
21
-156.943
0
LINE
8
BLACK
6
CONTINUOUS
10
97.3811
20
-156.943
11
97.4763
21
-156.752
0
LINE
8
BLACK
6
CONTINUOUS
10
97.4763
20
-156.752
11
97.5716
21
-156.657
0
LINE
8
BLACK
6
CONTINUOUS
10
97.5716
20
-156.657
11
97.762
21
-156.562
0
LINE
8
BLACK
6
CONTINUOUS
10
99.6668
20
-156.562
11
99.8573
21
-156.562
0
LINE
8
BLACK
6
CONTINUOUS
10
99.8573
20
-156.562
11
100.048
21
-156.657
0
LINE
8
BLACK
6
CONTINUOUS
10
100.048
20
-156.657
11
100.143
21
-156.752
0
LINE
8
BLACK
6
CONTINUOUS
10
100.143
20
-156.752
11
100.238
21
-156.943
0
LINE
8
BLACK
6
CONTINUOUS
10
100.238
20
-156.943
11
100.333
21
-157.324
0
LINE
8
BLACK
6
CONTINUOUS
10
100.333
20
-157.324
11
100.333
21
-157.8
0
LINE
8
BLACK
6
CONTINUOUS
10
100.333
20
-157.8
11
100.238
21
-158.181
0
LINE
8
BLACK
6
CONTINUOUS
10
100.238
20
-158.181
11
100.143
21
-158.371
0
LINE
8
BLACK
6
CONTINUOUS
10
100.143
20
-158.371
11
100.048
21
-158.467
0
LINE
8
BLACK
6
CONTINUOUS
10
100.048
20
-158.467
11
99.8573
21
-158.562
0
LINE
8
BLACK
6
CONTINUOUS
10
99.8573
20
-158.562
11
99.6668
21
-158.562
0
LINE
8
BLACK
6
CONTINUOUS
10
99.6668
20
-158.562
11
99.4763
21
-158.467
0
LINE
8
BLACK
6
CONTINUOUS
10
99.4763
20
-158.467
11
99.3811
21
-158.371
0
LINE
8
BLACK
6
CONTINUOUS
10
99.3811
20
-158.371
11
99.2859
21
-158.181
0
LINE
8
BLACK
6
CONTINUOUS
10
99.2859
20
-158.181
11
99.1906
21
-157.8
0
LINE
8
BLACK
6
CONTINUOUS
10
99.1906
20
-157.8
11
99.1906
21
-157.324
0
LINE
8
BLACK
6
CONTINUOUS
10
99.1906
20
-157.324
11
99.2859
21
-156.943
0
LINE
8
BLACK
6
CONTINUOUS
10
99.2859
20
-156.943
11
99.3811
21
-156.752
0
LINE
8
BLACK
6
CONTINUOUS
10
99.3811
20
-156.752
11
99.4763
21
-156.657
0
LINE
8
BLACK
6
CONTINUOUS
10
99.4763
20
-156.657
11
99.6668
21
-156.562
0
LINE
8
BLACK
6
CONTINUOUS
10
101.191
20
-158.562
11
101.191
21
-157.228
0
LINE
8
BLACK
6
CONTINUOUS
10
101.191
20
-157.419
11
101.286
21
-157.324
0
LINE
8
BLACK
6
CONTINUOUS
10
101.286
20
-157.324
11
101.476
21
-157.228
0
LINE
8
BLACK
6
CONTINUOUS
10
101.476
20
-157.228
11
101.762
21
-157.228
0
LINE
8
BLACK
6
CONTINUOUS
10
101.762
20
-157.228
11
101.953
21
-157.324
0
LINE
8
BLACK
6
CONTINUOUS
10
101.953
20
-157.324
11
102.048
21
-157.514
0
LINE
8
BLACK
6
CONTINUOUS
10
102.048
20
-157.514
11
102.048
21
-158.562
0
LINE
8
BLACK
6
CONTINUOUS
10
102.048
20
-157.514
11
102.143
21
-157.324
0
LINE
8
BLACK
6
CONTINUOUS
10
102.143
20
-157.324
11
102.333
21
-157.228
0
LINE
8
BLACK
6
CONTINUOUS
10
102.333
20
-157.228
11
102.619
21
-157.228
0
LINE
8
BLACK
6
CONTINUOUS
10
102.619
20
-157.228
11
102.81
21
-157.324
0
LINE
8
BLACK
6
CONTINUOUS
10
102.81
20
-157.324
11
102.905
21
-157.514
0
LINE
8
BLACK
6
CONTINUOUS
10
102.905
20
-157.514
11
102.905
21
-158.562
0
LINE
8
BLACK
6
CONTINUOUS
10
103.857
20
-158.562
11
103.857
21
-157.228
0
LINE
8
BLACK
6
CONTINUOUS
10
103.857
20
-157.419
11
103.953
21
-157.324
0
LINE
8
BLACK
6
CONTINUOUS
10
103.953
20
-157.324
11
104.143
21
-157.228
0
LINE
8
BLACK
6
CONTINUOUS
10
104.143
20
-157.228
11
104.429
21
-157.228
0
LINE
8
BLACK
6
CONTINUOUS
10
104.429
20
-157.228
11
104.619
21
-157.324
0
LINE
8
BLACK
6
CONTINUOUS
10
104.619
20
-157.324
11
104.714
21
-157.514
0
LINE
8
BLACK
6
CONTINUOUS
10
104.714
20
-157.514
11
104.714
21
-158.562
0
LINE
8
BLACK
6
CONTINUOUS
10
104.714
20
-157.514
11
104.81
21
-157.324
0
LINE
8
BLACK
6
CONTINUOUS
10
104.81
20
-157.324
11
105
21
-157.228
0
LINE
8
BLACK
6
CONTINUOUS
10
105
20
-157.228
11
105.286
21
-157.228
0
LINE
8
BLACK
6
CONTINUOUS
10
105.286
20
-157.228
11
105.476
21
-157.324
0
LINE
8
BLACK
6
CONTINUOUS
10
105.476
20
-157.324
11
105.572
21
-157.514
0
LINE
8
BLACK
6
CONTINUOUS
10
105.572
20
-157.514
11
105.572
21
-158.562
0
LINE
8
BLACK
6
CONTINUOUS
10
109.476
20
-156.467
11
107.762
21
-159.038
0
LINE
8
BLACK
6
CONTINUOUS
10
112.048
20
-156.562
11
112.238
21
-156.562
0
LINE
8
BLACK
6
CONTINUOUS
10
112.238
20
-156.562
11
112.429
21
-156.657
0
LINE
8
BLACK
6
CONTINUOUS
10
112.429
20
-156.657
11
112.524
21
-156.752
0
LINE
8
BLACK
6
CONTINUOUS
10
112.524
20
-156.752
11
112.619
21
-156.943
0
LINE
8
BLACK
6
CONTINUOUS
10
112.619
20
-156.943
11
112.714
21
-157.324
0
LINE
8
BLACK
6
CONTINUOUS
10
112.714
20
-157.324
11
112.714
21
-157.8
0
LINE
8
BLACK
6
CONTINUOUS
10
112.714
20
-157.8
11
112.619
21
-158.181
0
LINE
8
BLACK
6
CONTINUOUS
10
112.619
20
-158.181
11
112.524
21
-158.371
0
LINE
8
BLACK
6
CONTINUOUS
10
112.524
20
-158.371
11
112.429
21
-158.467
0
LINE
8
BLACK
6
CONTINUOUS
10
112.429
20
-158.467
11
112.238
21
-158.562
0
LINE
8
BLACK
6
CONTINUOUS
10
112.238
20
-158.562
11
112.048
21
-158.562
0
LINE
8
BLACK
6
CONTINUOUS
10
112.048
20
-158.562
11
111.857
21
-158.467
0
LINE
8
BLACK
6
CONTINUOUS
10
111.857
20
-158.467
11
111.762
21
-158.371
0
LINE
8
BLACK
6
CONTINUOUS
10
111.762
20
-158.371
11
111.667
21
-158.181
0
LINE
8
BLACK
6
CONTINUOUS
10
111.667
20
-158.181
11
111.572
21
-157.8
0
LINE
8
BLACK
6
CONTINUOUS
10
111.572
20
-157.8
11
111.572
21
-157.324
0
LINE
8
BLACK
6
CONTINUOUS
10
111.572
20
-157.324
11
111.667
21
-156.943
0
LINE
8
BLACK
6
CONTINUOUS
10
111.667
20
-156.943
11
111.762
21
-156.752
0
LINE
8
BLACK
6
CONTINUOUS
10
111.762
20
-156.752
11
111.857
21
-156.657
0
LINE
8
BLACK
6
CONTINUOUS
10
111.857
20
-156.657
11
112.048
21
-156.562
0
LINE
8
BLACK
6
CONTINUOUS
10
113.572
20
-158.371
11
113.667
21
-158.467
0
LINE
8
BLACK
6
CONTINUOUS
10
113.667
20
-158.467
11
113.572
21
-158.562
0
LINE
8
BLACK
6
CONTINUOUS
10
113.572
20
-158.562
11
113.476
21
-158.467
0
LINE
8
BLACK
6
CONTINUOUS
10
113.476
20
-158.467
11
113.572
21
-158.371
0
LINE
8
BLACK
6
CONTINUOUS
10
113.572
20
-158.371
11
113.572
21
-158.562
0
LINE
8
BLACK
6
CONTINUOUS
10
114.905
20
-156.562
11
115.095
21
-156.562
0
LINE
8
BLACK
6
CONTINUOUS
10
115.095
20
-156.562
11
115.286
21
-156.657
0
LINE
8
BLACK
6
CONTINUOUS
10
115.286
20
-156.657
11
115.381
21
-156.752
0
LINE
8
BLACK
6
CONTINUOUS
10
115.381
20
-156.752
11
115.476
21
-156.943
0
LINE
8
BLACK
6
CONTINUOUS
10
115.476
20
-156.943
11
115.572
21
-157.324
0
LINE
8
BLACK
6
CONTINUOUS
10
115.572
20
-157.324
11
115.572
21
-157.8
0
LINE
8
BLACK
6
CONTINUOUS
10
115.572
20
-157.8
11
115.476
21
-158.181
0
LINE
8
BLACK
6
CONTINUOUS
10
115.476
20
-158.181
11
115.381
21
-158.371
0
LINE
8
BLACK
6
CONTINUOUS
10
115.381
20
-158.371
11
115.286
21
-158.467
0
LINE
8
BLACK
6
CONTINUOUS
10
115.286
20
-158.467
11
115.095
21
-158.562
0
LINE
8
BLACK
6
CONTINUOUS
10
115.095
20
-158.562
11
114.905
21
-158.562
0
LINE
8
BLACK
6
CONTINUOUS
10
114.905
20
-158.562
11
114.714
21
-158.467
0
LINE
8
BLACK
6
CONTINUOUS
10
114.714
20
-158.467
11
114.619
21
-158.371
0
LINE
8
BLACK
6
CONTINUOUS
10
114.619
20
-158.371
11
114.524
21
-158.181
0
LINE
8
BLACK
6
CONTINUOUS
10
114.524
20
-158.181
11
114.429
21
-157.8
0
LINE
8
BLACK
6
CONTINUOUS
10
114.429
20
-157.8
11
114.429
21
-157.324
0
LINE
8
BLACK
6
CONTINUOUS
10
114.429
20
-157.324
11
114.524
21
-156.943
0
LINE
8
BLACK
6
CONTINUOUS
10
114.524
20
-156.943
11
114.619
21
-156.752
0
LINE
8
BLACK
6
CONTINUOUS
10
114.619
20
-156.752
11
114.714
21
-156.657
0
LINE
8
BLACK
6
CONTINUOUS
10
114.714
20
-156.657
11
114.905
21
-156.562
0
LINE
8
BLACK
6
CONTINUOUS
10
117.476
20
-158.562
11
116.333
21
-158.562
0
LINE
8
BLACK
6
CONTINUOUS
10
116.905
20
-158.562
11
116.905
21
-156.562
0
LINE
8
BLACK
6
CONTINUOUS
10
116.905
20
-156.562
11
116.714
21
-156.847
0
LINE
8
BLACK
6
CONTINUOUS
10
116.714
20
-156.847
11
116.524
21
-157.038
0
LINE
8
BLACK
6
CONTINUOUS
10
116.524
20
-157.038
11
116.333
21
-157.133
0
LINE
8
BLACK
6
CONTINUOUS
10
119.381
20
-158.562
11
118.238
21
-158.562
0
LINE
8
BLACK
6
CONTINUOUS
10
118.81
20
-158.562
11
118.81
21
-156.562
0
LINE
8
BLACK
6
CONTINUOUS
10
118.81
20
-156.562
11
118.619
21
-156.847
0
LINE
8
BLACK
6
CONTINUOUS
10
118.619
20
-156.847
11
118.429
21
-157.038
0
LINE
8
BLACK
6
CONTINUOUS
10
118.429
20
-157.038
11
118.238
21
-157.133
0
LINE
8
BLACK
6
CONTINUOUS
10
120.524
20
-157.419
11
120.333
21
-157.324
0
LINE
8
BLACK
6
CONTINUOUS
10
120.333
20
-157.324
11
120.238
21
-157.228
0
LINE
8
BLACK
6
CONTINUOUS
10
120.238
20
-157.228
11
120.143
21
-157.038
0
LINE
8
BLACK
6
CONTINUOUS
10
120.143
20
-157.038
11
120.143
21
-156.943
0
LINE
8
BLACK
6
CONTINUOUS
10
120.143
20
-156.943
11
120.238
21
-156.752
0
LINE
8
BLACK
6
CONTINUOUS
10
120.238
20
-156.752
11
120.333
21
-156.657
0
LINE
8
BLACK
6
CONTINUOUS
10
120.333
20
-156.657
11
120.524
21
-156.562
0
LINE
8
BLACK
6
CONTINUOUS
10
120.524
20
-156.562
11
120.905
21
-156.562
0
LINE
8
BLACK
6
CONTINUOUS
10
120.905
20
-156.562
11
121.095
21
-156.657
0
LINE
8
BLACK
6
CONTINUOUS
10
121.095
20
-156.657
11
121.191
21
-156.752
0
LINE
8
BLACK
6
CONTINUOUS
10
121.191
20
-156.752
11
121.286
21
-156.943
0
LINE
8
BLACK
6
CONTINUOUS
10
121.286
20
-156.943
11
121.286
21
-157.038
0
LINE
8
BLACK
6
CONTINUOUS
10
121.286
20
-157.038
11
121.191
21
-157.228
0
LINE
8
BLACK
6
CONTINUOUS
10
121.191
20
-157.228
11
121.095
21
-157.324
0
LINE
8
BLACK
6
CONTINUOUS
10
121.095
20
-157.324
11
120.905
21
-157.419
0
LINE
8
BLACK
6
CONTINUOUS
10
120.905
20
-157.419
11
120.524
21
-157.419
0
LINE
8
BLACK
6
CONTINUOUS
10
120.524
20
-157.419
11
120.333
21
-157.514
0
LINE
8
BLACK
6
CONTINUOUS
10
120.333
20
-157.514
11
120.238
21
-157.609
0
LINE
8
BLACK
6
CONTINUOUS
10
120.238
20
-157.609
11
120.143
21
-157.8
0
LINE
8
BLACK
6
CONTINUOUS
10
120.143
20
-157.8
11
120.143
21
-158.181
0
LINE
8
BLACK
6
CONTINUOUS
10
120.143
20
-158.181
11
120.238
21
-158.371
0
LINE
8
BLACK
6
CONTINUOUS
10
120.238
20
-158.371
11
120.333
21
-158.467
0
LINE
8
BLACK
6
CONTINUOUS
10
120.333
20
-158.467
11
120.524
21
-158.562
0
LINE
8
BLACK
6
CONTINUOUS
10
120.524
20
-158.562
11
120.905
21
-158.562
0
LINE
8
BLACK
6
CONTINUOUS
10
120.905
20
-158.562
11
121.095
21
-158.467
0
LINE
8
BLACK
6
CONTINUOUS
10
121.095
20
-158.467
11
121.191
21
-158.371
0
LINE
8
BLACK
6
CONTINUOUS
10
121.191
20
-158.371
11
121.286
21
-158.181
0
LINE
8
BLACK
6
CONTINUOUS
10
121.286
20
-158.181
11
121.286
21
-157.8
0
LINE
8
BLACK
6
CONTINUOUS
10
121.286
20
-157.8
11
121.191
21
-157.609
0
LINE
8
BLACK
6
CONTINUOUS
10
121.191
20
-157.609
11
121.095
21
-157.514
0
LINE
8
BLACK
6
CONTINUOUS
10
121.095
20
-157.514
11
120.905
21
-157.419
0
LINE
8
BLACK
6
CONTINUOUS
10
122.048
20
-156.562
11
122.048
21
-156.943
0
LINE
8
BLACK
6
CONTINUOUS
10
122.81
20
-156.562
11
122.81
21
-156.943
0
LINE
8
BLACK
6
CONTINUOUS
10
125.762
20
-159.324
11
125.667
21
-159.228
0
LINE
8
BLACK
6
CONTINUOUS
10
125.667
20
-159.228
11
125.476
21
-158.943
0
LINE
8
BLACK
6
CONTINUOUS
10
125.476
20
-158.943
11
125.381
21
-158.752
0
LINE
8
BLACK
6
CONTINUOUS
10
125.381
20
-158.752
11
125.286
21
-158.467
0
LINE
8
BLACK
6
CONTINUOUS
10
125.286
20
-158.467
11
125.191
21
-157.99
0
LINE
8
BLACK
6
CONTINUOUS
10
125.191
20
-157.99
11
125.191
21
-157.609
0
LINE
8
BLACK
6
CONTINUOUS
10
125.191
20
-157.609
11
125.286
21
-157.133
0
LINE
8
BLACK
6
CONTINUOUS
10
125.286
20
-157.133
11
125.381
21
-156.847
0
LINE
8
BLACK
6
CONTINUOUS
10
125.381
20
-156.847
11
125.476
21
-156.657
0
LINE
8
BLACK
6
CONTINUOUS
10
125.476
20
-156.657
11
125.667
21
-156.371
0
LINE
8
BLACK
6
CONTINUOUS
10
125.667
20
-156.371
11
125.762
21
-156.276
0
LINE
8
BLACK
6
CONTINUOUS
10
127.572
20
-158.562
11
126.429
21
-158.562
0
LINE
8
BLACK
6
CONTINUOUS
10
127
20
-158.562
11
127
21
-156.562
0
LINE
8
BLACK
6
CONTINUOUS
10
127
20
-156.562
11
126.81
21
-156.847
0
LINE
8
BLACK
6
CONTINUOUS
10
126.81
20
-156.847
11
126.619
21
-157.038
0
LINE
8
BLACK
6
CONTINUOUS
10
126.619
20
-157.038
11
126.429
21
-157.133
0
LINE
8
BLACK
6
CONTINUOUS
10
128.238
20
-156.562
11
129.572
21
-156.562
0
LINE
8
BLACK
6
CONTINUOUS
10
129.572
20
-156.562
11
128.714
21
-158.562
0
LINE
8
BLACK
6
CONTINUOUS
10
131.857
20
-158.562
11
131.857
21
-156.562
0
LINE
8
BLACK
6
CONTINUOUS
10
132.714
20
-158.562
11
132.714
21
-157.514
0
LINE
8
BLACK
6
CONTINUOUS
10
132.714
20
-157.514
11
132.619
21
-157.324
0
LINE
8
BLACK
6
CONTINUOUS
10
132.619
20
-157.324
11
132.429
21
-157.228
0
LINE
8
BLACK
6
CONTINUOUS
10
132.429
20
-157.228
11
132.143
21
-157.228
0
LINE
8
BLACK
6
CONTINUOUS
10
132.143
20
-157.228
11
131.953
21
-157.324
0
LINE
8
BLACK
6
CONTINUOUS
10
131.953
20
-157.324
11
131.857
21
-157.419
0
LINE
8
BLACK
6
CONTINUOUS
10
133.953
20
-158.562
11
133.762
21
-158.467
0
LINE
8
BLACK
6
CONTINUOUS
10
133.762
20
-158.467
11
133.667
21
-158.371
0
LINE
8
BLACK
6
CONTINUOUS
10
133.667
20
-158.371
11
133.572
21
-158.181
0
LINE
8
BLACK
6
CONTINUOUS
10
133.572
20
-158.181
11
133.572
21
-157.609
0
LINE
8
BLACK
6
CONTINUOUS
10
133.572
20
-157.609
11
133.667
21
-157.419
0
LINE
8
BLACK
6
CONTINUOUS
10
133.667
20
-157.419
11
133.762
21
-157.324
0
LINE
8
BLACK
6
CONTINUOUS
10
133.762
20
-157.324
11
133.953
21
-157.228
0
LINE
8
BLACK
6
CONTINUOUS
10
133.953
20
-157.228
11
134.238
21
-157.228
0
LINE
8
BLACK
6
CONTINUOUS
10
134.238
20
-157.228
11
134.429
21
-157.324
0
LINE
8
BLACK
6
CONTINUOUS
10
134.429
20
-157.324
11
134.524
21
-157.419
0
LINE
8
BLACK
6
CONTINUOUS
10
134.524
20
-157.419
11
134.619
21
-157.609
0
LINE
8
BLACK
6
CONTINUOUS
10
134.619
20
-157.609
11
134.619
21
-158.181
0
LINE
8
BLACK
6
CONTINUOUS
10
134.619
20
-158.181
11
134.524
21
-158.371
0
LINE
8
BLACK
6
CONTINUOUS
10
134.524
20
-158.371
11
134.429
21
-158.467
0
LINE
8
BLACK
6
CONTINUOUS
10
134.429
20
-158.467
11
134.238
21
-158.562
0
LINE
8
BLACK
6
CONTINUOUS
10
134.238
20
-158.562
11
133.953
21
-158.562
0
LINE
8
BLACK
6
CONTINUOUS
10
135.762
20
-158.562
11
135.572
21
-158.467
0
LINE
8
BLACK
6
CONTINUOUS
10
135.572
20
-158.467
11
135.476
21
-158.276
0
LINE
8
BLACK
6
CONTINUOUS
10
135.476
20
-158.276
11
135.476
21
-156.562
0
LINE
8
BLACK
6
CONTINUOUS
10
137.286
20
-158.467
11
137.095
21
-158.562
0
LINE
8
BLACK
6
CONTINUOUS
10
137.095
20
-158.562
11
136.714
21
-158.562
0
LINE
8
BLACK
6
CONTINUOUS
10
136.714
20
-158.562
11
136.524
21
-158.467
0
LINE
8
BLACK
6
CONTINUOUS
10
136.524
20
-158.467
11
136.429
21
-158.276
0
LINE
8
BLACK
6
CONTINUOUS
10
136.429
20
-158.276
11
136.429
21
-157.514
0
LINE
8
BLACK
6
CONTINUOUS
10
136.429
20
-157.514
11
136.524
21
-157.324
0
LINE
8
BLACK
6
CONTINUOUS
10
136.524
20
-157.324
11
136.714
21
-157.228
0
LINE
8
BLACK
6
CONTINUOUS
10
136.714
20
-157.228
11
137.095
21
-157.228
0
LINE
8
BLACK
6
CONTINUOUS
10
137.095
20
-157.228
11
137.286
21
-157.324
0
LINE
8
BLACK
6
CONTINUOUS
10
137.286
20
-157.324
11
137.381
21
-157.514
0
LINE
8
BLACK
6
CONTINUOUS
10
137.381
20
-157.514
11
137.381
21
-157.705
0
LINE
8
BLACK
6
CONTINUOUS
10
137.381
20
-157.705
11
136.429
21
-157.895
0
LINE
8
BLACK
6
CONTINUOUS
10
138.143
20
-158.467
11
138.333
21
-158.562
0
LINE
8
BLACK
6
CONTINUOUS
10
138.333
20
-158.562
11
138.714
21
-158.562
0
LINE
8
BLACK
6
CONTINUOUS
10
138.714
20
-158.562
11
138.905
21
-158.467
0
LINE
8
BLACK
6
CONTINUOUS
10
138.905
20
-158.467
11
139
21
-158.276
0
LINE
8
BLACK
6
CONTINUOUS
10
139
20
-158.276
11
139
21
-158.181
0
LINE
8
BLACK
6
CONTINUOUS
10
139
20
-158.181
11
138.905
21
-157.99
0
LINE
8
BLACK
6
CONTINUOUS
10
138.905
20
-157.99
11
138.714
21
-157.895
0
LINE
8
BLACK
6
CONTINUOUS
10
138.714
20
-157.895
11
138.429
21
-157.895
0
LINE
8
BLACK
6
CONTINUOUS
10
138.429
20
-157.895
11
138.238
21
-157.8
0
LINE
8
BLACK
6
CONTINUOUS
10
138.238
20
-157.8
11
138.143
21
-157.609
0
LINE
8
BLACK
6
CONTINUOUS
10
138.143
20
-157.609
11
138.143
21
-157.514
0
LINE
8
BLACK
6
CONTINUOUS
10
138.143
20
-157.514
11
138.238
21
-157.324
0
LINE
8
BLACK
6
CONTINUOUS
10
138.238
20
-157.324
11
138.429
21
-157.228
0
LINE
8
BLACK
6
CONTINUOUS
10
138.429
20
-157.228
11
138.714
21
-157.228
0
LINE
8
BLACK
6
CONTINUOUS
10
138.714
20
-157.228
11
138.905
21
-157.324
0
LINE
8
BLACK
6
CONTINUOUS
10
139.667
20
-159.324
11
139.762
21
-159.228
0
LINE
8
BLACK
6
CONTINUOUS
10
139.762
20
-159.228
11
139.953
21
-158.943
0
LINE
8
BLACK
6
CONTINUOUS
10
139.953
20
-158.943
11
140.048
21
-158.752
0
LINE
8
BLACK
6
CONTINUOUS
10
140.048
20
-158.752
11
140.143
21
-158.467
0
LINE
8
BLACK
6
CONTINUOUS
10
140.143
20
-158.467
11
140.238
21
-157.99
0
LINE
8
BLACK
6
CONTINUOUS
10
140.238
20
-157.99
11
140.238
21
-157.609
0
LINE
8
BLACK
6
CONTINUOUS
10
140.238
20
-157.609
11
140.143
21
-157.133
0
LINE
8
BLACK
6
CONTINUOUS
10
140.143
20
-157.133
11
140.048
21
-156.847
0
LINE
8
BLACK
6
CONTINUOUS
10
140.048
20
-156.847
11
139.953
21
-156.657
0
LINE
8
BLACK
6
CONTINUOUS
10
139.953
20
-156.657
11
139.762
21
-156.371
0
LINE
8
BLACK
6
CONTINUOUS
10
139.762
20
-156.371
11
139.667
21
-156.276
0
CIRCLE
8
BLACK
10
89.668
20
-160.297
40
0.375
0
LINE
8
BLACK
6
CONTINUOUS
10
93.0001
20
-159.202
11
93.1906
21
-159.202
0
LINE
8
BLACK
6
CONTINUOUS
10
93.1906
20
-159.202
11
93.3811
21
-159.297
0
LINE
8
BLACK
6
CONTINUOUS
10
93.3811
20
-159.297
11
93.4763
21
-159.392
0
LINE
8
BLACK
6
CONTINUOUS
10
93.4763
20
-159.392
11
93.5716
21
-159.583
0
LINE
8
BLACK
6
CONTINUOUS
10
93.5716
20
-159.583
11
93.6668
21
-159.964
0
LINE
8
BLACK
6
CONTINUOUS
10
93.6668
20
-159.964
11
93.6668
21
-160.44
0
LINE
8
BLACK
6
CONTINUOUS
10
93.6668
20
-160.44
11
93.5716
21
-160.821
0
LINE
8
BLACK
6
CONTINUOUS
10
93.5716
20
-160.821
11
93.4763
21
-161.011
0
LINE
8
BLACK
6
CONTINUOUS
10
93.4763
20
-161.011
11
93.3811
21
-161.107
0
LINE
8
BLACK
6
CONTINUOUS
10
93.3811
20
-161.107
11
93.1906
21
-161.202
0
LINE
8
BLACK
6
CONTINUOUS
10
93.1906
20
-161.202
11
93.0001
21
-161.202
0
LINE
8
BLACK
6
CONTINUOUS
10
93.0001
20
-161.202
11
92.8097
21
-161.107
0
LINE
8
BLACK
6
CONTINUOUS
10
92.8097
20
-161.107
11
92.7144
21
-161.011
0
LINE
8
BLACK
6
CONTINUOUS
10
92.7144
20
-161.011
11
92.6192
21
-160.821
0
LINE
8
BLACK
6
CONTINUOUS
10
92.6192
20
-160.821
11
92.524
21
-160.44
0
LINE
8
BLACK
6
CONTINUOUS
10
92.524
20
-160.44
11
92.524
21
-159.964
0
LINE
8
BLACK
6
CONTINUOUS
10
92.524
20
-159.964
11
92.6192
21
-159.583
0
LINE
8
BLACK
6
CONTINUOUS
10
92.6192
20
-159.583
11
92.7144
21
-159.392
0
LINE
8
BLACK
6
CONTINUOUS
10
92.7144
20
-159.392
11
92.8097
21
-159.297
0
LINE
8
BLACK
6
CONTINUOUS
10
92.8097
20
-159.297
11
93.0001
21
-159.202
0
LINE
8
BLACK
6
CONTINUOUS
10
94.524
20
-161.011
11
94.6192
21
-161.107
0
LINE
8
BLACK
6
CONTINUOUS
10
94.6192
20
-161.107
11
94.524
21
-161.202
0
LINE
8
BLACK
6
CONTINUOUS
10
94.524
20
-161.202
11
94.4287
21
-161.107
0
LINE
8
BLACK
6
CONTINUOUS
10
94.4287
20
-161.107
11
94.524
21
-161.011
0
LINE
8
BLACK
6
CONTINUOUS
10
94.524
20
-161.011
11
94.524
21
-161.202
0
LINE
8
BLACK
6
CONTINUOUS
10
95.2859
20
-159.202
11
96.6192
21
-159.202
0
LINE
8
BLACK
6
CONTINUOUS
10
96.6192
20
-159.202
11
95.762
21
-161.202
0
LINE
8
BLACK
6
CONTINUOUS
10
98.3335
20
-159.202
11
97.3811
21
-159.202
0
LINE
8
BLACK
6
CONTINUOUS
10
97.3811
20
-159.202
11
97.2859
21
-160.154
0
LINE
8
BLACK
6
CONTINUOUS
10
97.2859
20
-160.154
11
97.3811
21
-160.059
0
LINE
8
BLACK
6
CONTINUOUS
10
97.3811
20
-160.059
11
97.5716
21
-159.964
0
LINE
8
BLACK
6
CONTINUOUS
10
97.5716
20
-159.964
11
98.0478
21
-159.964
0
LINE
8
BLACK
6
CONTINUOUS
10
98.0478
20
-159.964
11
98.2382
21
-160.059
0
LINE
8
BLACK
6
CONTINUOUS
10
98.2382
20
-160.059
11
98.3335
21
-160.154
0
LINE
8
BLACK
6
CONTINUOUS
10
98.3335
20
-160.154
11
98.4287
21
-160.345
0
LINE
8
BLACK
6
CONTINUOUS
10
98.4287
20
-160.345
11
98.4287
21
-160.821
0
LINE
8
BLACK
6
CONTINUOUS
10
98.4287
20
-160.821
11
98.3335
21
-161.011
0
LINE
8
BLACK
6
CONTINUOUS
10
98.3335
20
-161.011
11
98.2382
21
-161.107
0
LINE
8
BLACK
6
CONTINUOUS
10
98.2382
20
-161.107
11
98.0478
21
-161.202
0
LINE
8
BLACK
6
CONTINUOUS
10
98.0478
20
-161.202
11
97.5716
21
-161.202
0
LINE
8
BLACK
6
CONTINUOUS
10
97.5716
20
-161.202
11
97.3811
21
-161.107
0
LINE
8
BLACK
6
CONTINUOUS
10
97.3811
20
-161.107
11
97.2859
21
-161.011
0
LINE
8
BLACK
6
CONTINUOUS
10
99.6668
20
-159.202
11
99.8573
21
-159.202
0
LINE
8
BLACK
6
CONTINUOUS
10
99.8573
20
-159.202
11
100.048
21
-159.297
0
LINE
8
BLACK
6
CONTINUOUS
10
100.048
20
-159.297
11
100.143
21
-159.392
0
LINE
8
BLACK
6
CONTINUOUS
10
100.143
20
-159.392
11
100.238
21
-159.583
0
LINE
8
BLACK
6
CONTINUOUS
10
100.238
20
-159.583
11
100.333
21
-159.964
0
LINE
8
BLACK
6
CONTINUOUS
10
100.333
20
-159.964
11
100.333
21
-160.44
0
LINE
8
BLACK
6
CONTINUOUS
10
100.333
20
-160.44
11
100.238
21
-160.821
0
LINE
8
BLACK
6
CONTINUOUS
10
100.238
20
-160.821
11
100.143
21
-161.011
0
LINE
8
BLACK
6
CONTINUOUS
10
100.143
20
-161.011
11
100.048
21
-161.107
0
LINE
8
BLACK
6
CONTINUOUS
10
100.048
20
-161.107
11
99.8573
21
-161.202
0
LINE
8
BLACK
6
CONTINUOUS
10
99.8573
20
-161.202
11
99.6668
21
-161.202
0
LINE
8
BLACK
6
CONTINUOUS
10
99.6668
20
-161.202
11
99.4763
21
-161.107
0
LINE
8
BLACK
6
CONTINUOUS
10
99.4763
20
-161.107
11
99.3811
21
-161.011
0
LINE
8
BLACK
6
CONTINUOUS
10
99.3811
20
-161.011
11
99.2859
21
-160.821
0
LINE
8
BLACK
6
CONTINUOUS
10
99.2859
20
-160.821
11
99.1906
21
-160.44
0
LINE
8
BLACK
6
CONTINUOUS
10
99.1906
20
-160.44
11
99.1906
21
-159.964
0
LINE
8
BLACK
6
CONTINUOUS
10
99.1906
20
-159.964
11
99.2859
21
-159.583
0
LINE
8
BLACK
6
CONTINUOUS
10
99.2859
20
-159.583
11
99.3811
21
-159.392
0
LINE
8
BLACK
6
CONTINUOUS
10
99.3811
20
-159.392
11
99.4763
21
-159.297
0
LINE
8
BLACK
6
CONTINUOUS
10
99.4763
20
-159.297
11
99.6668
21
-159.202
0
LINE
8
BLACK
6
CONTINUOUS
10
101.191
20
-161.202
11
101.191
21
-159.868
0
LINE
8
BLACK
6
CONTINUOUS
10
101.191
20
-160.059
11
101.286
21
-159.964
0
LINE
8
BLACK
6
CONTINUOUS
10
101.286
20
-159.964
11
101.476
21
-159.868
0
LINE
8
BLACK
6
CONTINUOUS
10
101.476
20
-159.868
11
101.762
21
-159.868
0
LINE
8
BLACK
6
CONTINUOUS
10
101.762
20
-159.868
11
101.953
21
-159.964
0
LINE
8
BLACK
6
CONTINUOUS
10
101.953
20
-159.964
11
102.048
21
-160.154
0
LINE
8
BLACK
6
CONTINUOUS
10
102.048
20
-160.154
11
102.048
21
-161.202
0
LINE
8
BLACK
6
CONTINUOUS
10
102.048
20
-160.154
11
102.143
21
-159.964
0
LINE
8
BLACK
6
CONTINUOUS
10
102.143
20
-159.964
11
102.333
21
-159.868
0
LINE
8
BLACK
6
CONTINUOUS
10
102.333
20
-159.868
11
102.619
21
-159.868
0
LINE
8
BLACK
6
CONTINUOUS
10
102.619
20
-159.868
11
102.81
21
-159.964
0
LINE
8
BLACK
6
CONTINUOUS
10
102.81
20
-159.964
11
102.905
21
-160.154
0
LINE
8
BLACK
6
CONTINUOUS
10
102.905
20
-160.154
11
102.905
21
-161.202
0
LINE
8
BLACK
6
CONTINUOUS
10
103.857
20
-161.202
11
103.857
21
-159.868
0
LINE
8
BLACK
6
CONTINUOUS
10
103.857
20
-160.059
11
103.953
21
-159.964
0
LINE
8
BLACK
6
CONTINUOUS
10
103.953
20
-159.964
11
104.143
21
-159.868
0
LINE
8
BLACK
6
CONTINUOUS
10
104.143
20
-159.868
11
104.429
21
-159.868
0
LINE
8
BLACK
6
CONTINUOUS
10
104.429
20
-159.868
11
104.619
21
-159.964
0
LINE
8
BLACK
6
CONTINUOUS
10
104.619
20
-159.964
11
104.714
21
-160.154
0
LINE
8
BLACK
6
CONTINUOUS
10
104.714
20
-160.154
11
104.714
21
-161.202
0
LINE
8
BLACK
6
CONTINUOUS
10
104.714
20
-160.154
11
104.81
21
-159.964
0
LINE
8
BLACK
6
CONTINUOUS
10
104.81
20
-159.964
11
105
21
-159.868
0
LINE
8
BLACK
6
CONTINUOUS
10
105
20
-159.868
11
105.286
21
-159.868
0
LINE
8
BLACK
6
CONTINUOUS
10
105.286
20
-159.868
11
105.476
21
-159.964
0
LINE
8
BLACK
6
CONTINUOUS
10
105.476
20
-159.964
11
105.572
21
-160.154
0
LINE
8
BLACK
6
CONTINUOUS
10
105.572
20
-160.154
11
105.572
21
-161.202
0
LINE
8
BLACK
6
CONTINUOUS
10
109.476
20
-159.107
11
107.762
21
-161.678
0
LINE
8
BLACK
6
CONTINUOUS
10
112.048
20
-159.202
11
112.238
21
-159.202
0
LINE
8
BLACK
6
CONTINUOUS
10
112.238
20
-159.202
11
112.429
21
-159.297
0
LINE
8
BLACK
6
CONTINUOUS
10
112.429
20
-159.297
11
112.524
21
-159.392
0
LINE
8
BLACK
6
CONTINUOUS
10
112.524
20
-159.392
11
112.619
21
-159.583
0
LINE
8
BLACK
6
CONTINUOUS
10
112.619
20
-159.583
11
112.714
21
-159.964
0
LINE
8
BLACK
6
CONTINUOUS
10
112.714
20
-159.964
11
112.714
21
-160.44
0
LINE
8
BLACK
6
CONTINUOUS
10
112.714
20
-160.44
11
112.619
21
-160.821
0
LINE
8
BLACK
6
CONTINUOUS
10
112.619
20
-160.821
11
112.524
21
-161.011
0
LINE
8
BLACK
6
CONTINUOUS
10
112.524
20
-161.011
11
112.429
21
-161.107
0
LINE
8
BLACK
6
CONTINUOUS
10
112.429
20
-161.107
11
112.238
21
-161.202
0
LINE
8
BLACK
6
CONTINUOUS
10
112.238
20
-161.202
11
112.048
21
-161.202
0
LINE
8
BLACK
6
CONTINUOUS
10
112.048
20
-161.202
11
111.857
21
-161.107
0
LINE
8
BLACK
6
CONTINUOUS
10
111.857
20
-161.107
11
111.762
21
-161.011
0
LINE
8
BLACK
6
CONTINUOUS
10
111.762
20
-161.011
11
111.667
21
-160.821
0
LINE
8
BLACK
6
CONTINUOUS
10
111.667
20
-160.821
11
111.572
21
-160.44
0
LINE
8
BLACK
6
CONTINUOUS
10
111.572
20
-160.44
11
111.572
21
-159.964
0
LINE
8
BLACK
6
CONTINUOUS
10
111.572
20
-159.964
11
111.667
21
-159.583
0
LINE
8
BLACK
6
CONTINUOUS
10
111.667
20
-159.583
11
111.762
21
-159.392
0
LINE
8
BLACK
6
CONTINUOUS
10
111.762
20
-159.392
11
111.857
21
-159.297
0
LINE
8
BLACK
6
CONTINUOUS
10
111.857
20
-159.297
11
112.048
21
-159.202
0
LINE
8
BLACK
6
CONTINUOUS
10
113.572
20
-161.011
11
113.667
21
-161.107
0
LINE
8
BLACK
6
CONTINUOUS
10
113.667
20
-161.107
11
113.572
21
-161.202
0
LINE
8
BLACK
6
CONTINUOUS
10
113.572
20
-161.202
11
113.476
21
-161.107
0
LINE
8
BLACK
6
CONTINUOUS
10
113.476
20
-161.107
11
113.572
21
-161.011
0
LINE
8
BLACK
6
CONTINUOUS
10
113.572
20
-161.011
11
113.572
21
-161.202
0
LINE
8
BLACK
6
CONTINUOUS
10
114.905
20
-159.202
11
115.095
21
-159.202
0
LINE
8
BLACK
6
CONTINUOUS
10
115.095
20
-159.202
11
115.286
21
-159.297
0
LINE
8
BLACK
6
CONTINUOUS
10
115.286
20
-159.297
11
115.381
21
-159.392
0
LINE
8
BLACK
6
CONTINUOUS
10
115.381
20
-159.392
11
115.476
21
-159.583
0
LINE
8
BLACK
6
CONTINUOUS
10
115.476
20
-159.583
11
115.572
21
-159.964
0
LINE
8
BLACK
6
CONTINUOUS
10
115.572
20
-159.964
11
115.572
21
-160.44
0
LINE
8
BLACK
6
CONTINUOUS
10
115.572
20
-160.44
11
115.476
21
-160.821
0
LINE
8
BLACK
6
CONTINUOUS
10
115.476
20
-160.821
11
115.381
21
-161.011
0
LINE
8
BLACK
6
CONTINUOUS
10
115.381
20
-161.011
11
115.286
21
-161.107
0
LINE
8
BLACK
6
CONTINUOUS
10
115.286
20
-161.107
11
115.095
21
-161.202
0
LINE
8
BLACK
6
CONTINUOUS
10
115.095
20
-161.202
11
114.905
21
-161.202
0
LINE
8
BLACK
6
CONTINUOUS
10
114.905
20
-161.202
11
114.714
21
-161.107
0
LINE
8
BLACK
6
CONTINUOUS
10
114.714
20
-161.107
11
114.619
21
-161.011
0
LINE
8
BLACK
6
CONTINUOUS
10
114.619
20
-161.011
11
114.524
21
-160.821
0
LINE
8
BLACK
6
CONTINUOUS
10
114.524
20
-160.821
11
114.429
21
-160.44
0
LINE
8
BLACK
6
CONTINUOUS
10
114.429
20
-160.44
11
114.429
21
-159.964
0
LINE
8
BLACK
6
CONTINUOUS
10
114.429
20
-159.964
11
114.524
21
-159.583
0
LINE
8
BLACK
6
CONTINUOUS
10
114.524
20
-159.583
11
114.619
21
-159.392
0
LINE
8
BLACK
6
CONTINUOUS
10
114.619
20
-159.392
11
114.714
21
-159.297
0
LINE
8
BLACK
6
CONTINUOUS
10
114.714
20
-159.297
11
114.905
21
-159.202
0
LINE
8
BLACK
6
CONTINUOUS
10
116.333
20
-159.392
11
116.429
21
-159.297
0
LINE
8
BLACK
6
CONTINUOUS
10
116.429
20
-159.297
11
116.619
21
-159.202
0
LINE
8
BLACK
6
CONTINUOUS
10
116.619
20
-159.202
11
117.095
21
-159.202
0
LINE
8
BLACK
6
CONTINUOUS
10
117.095
20
-159.202
11
117.286
21
-159.297
0
LINE
8
BLACK
6
CONTINUOUS
10
117.286
20
-159.297
11
117.381
21
-159.392
0
LINE
8
BLACK
6
CONTINUOUS
10
117.381
20
-159.392
11
117.476
21
-159.583
0
LINE
8
BLACK
6
CONTINUOUS
10
117.476
20
-159.583
11
117.476
21
-159.773
0
LINE
8
BLACK
6
CONTINUOUS
10
117.476
20
-159.773
11
117.381
21
-160.059
0
LINE
8
BLACK
6
CONTINUOUS
10
117.381
20
-160.059
11
116.238
21
-161.202
0
LINE
8
BLACK
6
CONTINUOUS
10
116.238
20
-161.202
11
117.476
21
-161.202
0
LINE
8
BLACK
6
CONTINUOUS
10
118.429
20
-161.202
11
118.81
21
-161.202
0
LINE
8
BLACK
6
CONTINUOUS
10
118.81
20
-161.202
11
119
21
-161.107
0
LINE
8
BLACK
6
CONTINUOUS
10
119
20
-161.107
11
119.095
21
-161.011
0
LINE
8
BLACK
6
CONTINUOUS
10
119.095
20
-161.011
11
119.286
21
-160.726
0
LINE
8
BLACK
6
CONTINUOUS
10
119.286
20
-160.726
11
119.381
21
-160.345
0
LINE
8
BLACK
6
CONTINUOUS
10
119.381
20
-160.345
11
119.381
21
-159.583
0
LINE
8
BLACK
6
CONTINUOUS
10
119.381
20
-159.583
11
119.286
21
-159.392
0
LINE
8
BLACK
6
CONTINUOUS
10
119.286
20
-159.392
11
119.191
21
-159.297
0
LINE
8
BLACK
6
CONTINUOUS
10
119.191
20
-159.297
11
119
21
-159.202
0
LINE
8
BLACK
6
CONTINUOUS
10
119
20
-159.202
11
118.619
21
-159.202
0
LINE
8
BLACK
6
CONTINUOUS
10
118.619
20
-159.202
11
118.429
21
-159.297
0
LINE
8
BLACK
6
CONTINUOUS
10
118.429
20
-159.297
11
118.333
21
-159.392
0
LINE
8
BLACK
6
CONTINUOUS
10
118.333
20
-159.392
11
118.238
21
-159.583
0
LINE
8
BLACK
6
CONTINUOUS
10
118.238
20
-159.583
11
118.238
21
-160.059
0
LINE
8
BLACK
6
CONTINUOUS
10
118.238
20
-160.059
11
118.333
21
-160.249
0
LINE
8
BLACK
6
CONTINUOUS
10
118.333
20
-160.249
11
118.429
21
-160.345
0
LINE
8
BLACK
6
CONTINUOUS
10
118.429
20
-160.345
11
118.619
21
-160.44
0
LINE
8
BLACK
6
CONTINUOUS
10
118.619
20
-160.44
11
119
21
-160.44
0
LINE
8
BLACK
6
CONTINUOUS
10
119
20
-160.44
11
119.191
21
-160.345
0
LINE
8
BLACK
6
CONTINUOUS
10
119.191
20
-160.345
11
119.286
21
-160.249
0
LINE
8
BLACK
6
CONTINUOUS
10
119.286
20
-160.249
11
119.381
21
-160.059
0
LINE
8
BLACK
6
CONTINUOUS
10
121.191
20
-159.202
11
120.238
21
-159.202
0
LINE
8
BLACK
6
CONTINUOUS
10
120.238
20
-159.202
11
120.143
21
-160.154
0
LINE
8
BLACK
6
CONTINUOUS
10
120.143
20
-160.154
11
120.238
21
-160.059
0
LINE
8
BLACK
6
CONTINUOUS
10
120.238
20
-160.059
11
120.429
21
-159.964
0
LINE
8
BLACK
6
CONTINUOUS
10
120.429
20
-159.964
11
120.905
21
-159.964
0
LINE
8
BLACK
6
CONTINUOUS
10
120.905
20
-159.964
11
121.095
21
-160.059
0
LINE
8
BLACK
6
CONTINUOUS
10
121.095
20
-160.059
11
121.191
21
-160.154
0
LINE
8
BLACK
6
CONTINUOUS
10
121.191
20
-160.154
11
121.286
21
-160.345
0
LINE
8
BLACK
6
CONTINUOUS
10
121.286
20
-160.345
11
121.286
21
-160.821
0
LINE
8
BLACK
6
CONTINUOUS
10
121.286
20
-160.821
11
121.191
21
-161.011
0
LINE
8
BLACK
6
CONTINUOUS
10
121.191
20
-161.011
11
121.095
21
-161.107
0
LINE
8
BLACK
6
CONTINUOUS
10
121.095
20
-161.107
11
120.905
21
-161.202
0
LINE
8
BLACK
6
CONTINUOUS
10
120.905
20
-161.202
11
120.429
21
-161.202
0
LINE
8
BLACK
6
CONTINUOUS
10
120.429
20
-161.202
11
120.238
21
-161.107
0
LINE
8
BLACK
6
CONTINUOUS
10
120.238
20
-161.107
11
120.143
21
-161.011
0
LINE
8
BLACK
6
CONTINUOUS
10
122.048
20
-159.202
11
122.048
21
-159.583
0
LINE
8
BLACK
6
CONTINUOUS
10
122.81
20
-159.202
11
122.81
21
-159.583
0
LINE
8
BLACK
6
CONTINUOUS
10
125.762
20
-161.964
11
125.667
21
-161.868
0
LINE
8
BLACK
6
CONTINUOUS
10
125.667
20
-161.868
11
125.476
21
-161.583
0
LINE
8
BLACK
6
CONTINUOUS
10
125.476
20
-161.583
11
125.381
21
-161.392
0
LINE
8
BLACK
6
CONTINUOUS
10
125.381
20
-161.392
11
125.286
21
-161.107
0
LINE
8
BLACK
6
CONTINUOUS
10
125.286
20
-161.107
11
125.191
21
-160.63
0
LINE
8
BLACK
6
CONTINUOUS
10
125.191
20
-160.63
11
125.191
21
-160.249
0
LINE
8
BLACK
6
CONTINUOUS
10
125.191
20
-160.249
11
125.286
21
-159.773
0
LINE
8
BLACK
6
CONTINUOUS
10
125.286
20
-159.773
11
125.381
21
-159.487
0
LINE
8
BLACK
6
CONTINUOUS
10
125.381
20
-159.487
11
125.476
21
-159.297
0
LINE
8
BLACK
6
CONTINUOUS
10
125.476
20
-159.297
11
125.667
21
-159.011
0
LINE
8
BLACK
6
CONTINUOUS
10
125.667
20
-159.011
11
125.762
21
-158.916
0
LINE
8
BLACK
6
CONTINUOUS
10
126.619
20
-161.202
11
127
21
-161.202
0
LINE
8
BLACK
6
CONTINUOUS
10
127
20
-161.202
11
127.191
21
-161.107
0
LINE
8
BLACK
6
CONTINUOUS
10
127.191
20
-161.107
11
127.286
21
-161.011
0
LINE
8
BLACK
6
CONTINUOUS
10
127.286
20
-161.011
11
127.476
21
-160.726
0
LINE
8
BLACK
6
CONTINUOUS
10
127.476
20
-160.726
11
127.572
21
-160.345
0
LINE
8
BLACK
6
CONTINUOUS
10
127.572
20
-160.345
11
127.572
21
-159.583
0
LINE
8
BLACK
6
CONTINUOUS
10
127.572
20
-159.583
11
127.476
21
-159.392
0
LINE
8
BLACK
6
CONTINUOUS
10
127.476
20
-159.392
11
127.381
21
-159.297
0
LINE
8
BLACK
6
CONTINUOUS
10
127.381
20
-159.297
11
127.191
21
-159.202
0
LINE
8
BLACK
6
CONTINUOUS
10
127.191
20
-159.202
11
126.81
21
-159.202
0
LINE
8
BLACK
6
CONTINUOUS
10
126.81
20
-159.202
11
126.619
21
-159.297
0
LINE
8
BLACK
6
CONTINUOUS
10
126.619
20
-159.297
11
126.524
21
-159.392
0
LINE
8
BLACK
6
CONTINUOUS
10
126.524
20
-159.392
11
126.429
21
-159.583
0
LINE
8
BLACK
6
CONTINUOUS
10
126.429
20
-159.583
11
126.429
21
-160.059
0
LINE
8
BLACK
6
CONTINUOUS
10
126.429
20
-160.059
11
126.524
21
-160.249
0
LINE
8
BLACK
6
CONTINUOUS
10
126.524
20
-160.249
11
126.619
21
-160.345
0
LINE
8
BLACK
6
CONTINUOUS
10
126.619
20
-160.345
11
126.81
21
-160.44
0
LINE
8
BLACK
6
CONTINUOUS
10
126.81
20
-160.44
11
127.191
21
-160.44
0
LINE
8
BLACK
6
CONTINUOUS
10
127.191
20
-160.44
11
127.381
21
-160.345
0
LINE
8
BLACK
6
CONTINUOUS
10
127.381
20
-160.345
11
127.476
21
-160.249
0
LINE
8
BLACK
6
CONTINUOUS
10
127.476
20
-160.249
11
127.572
21
-160.059
0
LINE
8
BLACK
6
CONTINUOUS
10
129.953
20
-161.202
11
129.953
21
-159.202
0
LINE
8
BLACK
6
CONTINUOUS
10
130.81
20
-161.202
11
130.81
21
-160.154
0
LINE
8
BLACK
6
CONTINUOUS
10
130.81
20
-160.154
11
130.714
21
-159.964
0
LINE
8
BLACK
6
CONTINUOUS
10
130.714
20
-159.964
11
130.524
21
-159.868
0
LINE
8
BLACK
6
CONTINUOUS
10
130.524
20
-159.868
11
130.238
21
-159.868
0
LINE
8
BLACK
6
CONTINUOUS
10
130.238
20
-159.868
11
130.048
21
-159.964
0
LINE
8
BLACK
6
CONTINUOUS
10
130.048
20
-159.964
11
129.953
21
-160.059
0
LINE
8
BLACK
6
CONTINUOUS
10
132.048
20
-161.202
11
131.857
21
-161.107
0
LINE
8
BLACK
6
CONTINUOUS
10
131.857
20
-161.107
11
131.762
21
-161.011
0
LINE
8
BLACK
6
CONTINUOUS
10
131.762
20
-161.011
11
131.667
21
-160.821
0
LINE
8
BLACK
6
CONTINUOUS
10
131.667
20
-160.821
11
131.667
21
-160.249
0
LINE
8
BLACK
6
CONTINUOUS
10
131.667
20
-160.249
11
131.762
21
-160.059
0
LINE
8
BLACK
6
CONTINUOUS
10
131.762
20
-160.059
11
131.857
21
-159.964
0
LINE
8
BLACK
6
CONTINUOUS
10
131.857
20
-159.964
11
132.048
21
-159.868
0
LINE
8
BLACK
6
CONTINUOUS
10
132.048
20
-159.868
11
132.333
21
-159.868
0
LINE
8
BLACK
6
CONTINUOUS
10
132.333
20
-159.868
11
132.524
21
-159.964
0
LINE
8
BLACK
6
CONTINUOUS
10
132.524
20
-159.964
11
132.619
21
-160.059
0
LINE
8
BLACK
6
CONTINUOUS
10
132.619
20
-160.059
11
132.714
21
-160.249
0
LINE
8
BLACK
6
CONTINUOUS
10
132.714
20
-160.249
11
132.714
21
-160.821
0
LINE
8
BLACK
6
CONTINUOUS
10
132.714
20
-160.821
11
132.619
21
-161.011
0
LINE
8
BLACK
6
CONTINUOUS
10
132.619
20
-161.011
11
132.524
21
-161.107
0
LINE
8
BLACK
6
CONTINUOUS
10
132.524
20
-161.107
11
132.333
21
-161.202
0
LINE
8
BLACK
6
CONTINUOUS
10
132.333
20
-161.202
11
132.048
21
-161.202
0
LINE
8
BLACK
6
CONTINUOUS
10
133.857
20
-161.202
11
133.667
21
-161.107
0
LINE
8
BLACK
6
CONTINUOUS
10
133.667
20
-161.107
11
133.572
21
-160.916
0
LINE
8
BLACK
6
CONTINUOUS
10
133.572
20
-160.916
11
133.572
21
-159.202
0
LINE
8
BLACK
6
CONTINUOUS
10
135.381
20
-161.107
11
135.191
21
-161.202
0
LINE
8
BLACK
6
CONTINUOUS
10
135.191
20
-161.202
11
134.81
21
-161.202
0
LINE
8
BLACK
6
CONTINUOUS
10
134.81
20
-161.202
11
134.619
21
-161.107
0
LINE
8
BLACK
6
CONTINUOUS
10
134.619
20
-161.107
11
134.524
21
-160.916
0
LINE
8
BLACK
6
CONTINUOUS
10
134.524
20
-160.916
11
134.524
21
-160.154
0
LINE
8
BLACK
6
CONTINUOUS
10
134.524
20
-160.154
11
134.619
21
-159.964
0
LINE
8
BLACK
6
CONTINUOUS
10
134.619
20
-159.964
11
134.81
21
-159.868
0
LINE
8
BLACK
6
CONTINUOUS
10
134.81
20
-159.868
11
135.191
21
-159.868
0
LINE
8
BLACK
6
CONTINUOUS
10
135.191
20
-159.868
11
135.381
21
-159.964
0
LINE
8
BLACK
6
CONTINUOUS
10
135.381
20
-159.964
11
135.476
21
-160.154
0
LINE
8
BLACK
6
CONTINUOUS
10
135.476
20
-160.154
11
135.476
21
-160.345
0
LINE
8
BLACK
6
CONTINUOUS
10
135.476
20
-160.345
11
134.524
21
-160.535
0
LINE
8
BLACK
6
CONTINUOUS
10
136.238
20
-161.107
11
136.429
21
-161.202
0
LINE
8
BLACK
6
CONTINUOUS
10
136.429
20
-161.202
11
136.81
21
-161.202
0
LINE
8
BLACK
6
CONTINUOUS
10
136.81
20
-161.202
11
137
21
-161.107
0
LINE
8
BLACK
6
CONTINUOUS
10
137
20
-161.107
11
137.095
21
-160.916
0
LINE
8
BLACK
6
CONTINUOUS
10
137.095
20
-160.916
11
137.095
21
-160.821
0
LINE
8
BLACK
6
CONTINUOUS
10
137.095
20
-160.821
11
137
21
-160.63
0
LINE
8
BLACK
6
CONTINUOUS
10
137
20
-160.63
11
136.81
21
-160.535
0
LINE
8
BLACK
6
CONTINUOUS
10
136.81
20
-160.535
11
136.524
21
-160.535
0
LINE
8
BLACK
6
CONTINUOUS
10
136.524
20
-160.535
11
136.333
21
-160.44
0
LINE
8
BLACK
6
CONTINUOUS
10
136.333
20
-160.44
11
136.238
21
-160.249
0
LINE
8
BLACK
6
CONTINUOUS
10
136.238
20
-160.249
11
136.238
21
-160.154
0
LINE
8
BLACK
6
CONTINUOUS
10
136.238
20
-160.154
11
136.333
21
-159.964
0
LINE
8
BLACK
6
CONTINUOUS
10
136.333
20
-159.964
11
136.524
21
-159.868
0
LINE
8
BLACK
6
CONTINUOUS
10
136.524
20
-159.868
11
136.81
21
-159.868
0
LINE
8
BLACK
6
CONTINUOUS
10
136.81
20
-159.868
11
137
21
-159.964
0
LINE
8
BLACK
6
CONTINUOUS
10
137.762
20
-161.964
11
137.857
21
-161.868
0
LINE
8
BLACK
6
CONTINUOUS
10
137.857
20
-161.868
11
138.048
21
-161.583
0
LINE
8
BLACK
6
CONTINUOUS
10
138.048
20
-161.583
11
138.143
21
-161.392
0
LINE
8
BLACK
6
CONTINUOUS
10
138.143
20
-161.392
11
138.238
21
-161.107
0
LINE
8
BLACK
6
CONTINUOUS
10
138.238
20
-161.107
11
138.333
21
-160.63
0
LINE
8
BLACK
6
CONTINUOUS
10
138.333
20
-160.63
11
138.333
21
-160.249
0
LINE
8
BLACK
6
CONTINUOUS
10
138.333
20
-160.249
11
138.238
21
-159.773
0
LINE
8
BLACK
6
CONTINUOUS
10
138.238
20
-159.773
11
138.143
21
-159.487
0
LINE
8
BLACK
6
CONTINUOUS
10
138.143
20
-159.487
11
138.048
21
-159.297
0
LINE
8
BLACK
6
CONTINUOUS
10
138.048
20
-159.297
11
137.857
21
-159.011
0
LINE
8
BLACK
6
CONTINUOUS
10
137.857
20
-159.011
11
137.762
21
-158.916
0
LINE
8
BLACK
6
CONTINUOUS
10
89.643
20
-162.537
11
89.643
21
-163.337
0
LINE
8
BLACK
6
CONTINUOUS
10
89.243
20
-162.937
11
90.043
21
-162.937
0
LINE
8
BLACK
6
CONTINUOUS
10
93.0001
20
-161.842
11
93.1906
21
-161.842
0
LINE
8
BLACK
6
CONTINUOUS
10
93.1906
20
-161.842
11
93.3811
21
-161.937
0
LINE
8
BLACK
6
CONTINUOUS
10
93.3811
20
-161.937
11
93.4763
21
-162.032
0
LINE
8
BLACK
6
CONTINUOUS
10
93.4763
20
-162.032
11
93.5716
21
-162.223
0
LINE
8
BLACK
6
CONTINUOUS
10
93.5716
20
-162.223
11
93.6668
21
-162.604
0
LINE
8
BLACK
6
CONTINUOUS
10
93.6668
20
-162.604
11
93.6668
21
-163.08
0
LINE
8
BLACK
6
CONTINUOUS
10
93.6668
20
-163.08
11
93.5716
21
-163.461
0
LINE
8
BLACK
6
CONTINUOUS
10
93.5716
20
-163.461
11
93.4763
21
-163.651
0
LINE
8
BLACK
6
CONTINUOUS
10
93.4763
20
-163.651
11
93.3811
21
-163.747
0
LINE
8
BLACK
6
CONTINUOUS
10
93.3811
20
-163.747
11
93.1906
21
-163.842
0
LINE
8
BLACK
6
CONTINUOUS
10
93.1906
20
-163.842
11
93.0001
21
-163.842
0
LINE
8
BLACK
6
CONTINUOUS
10
93.0001
20
-163.842
11
92.8097
21
-163.747
0
LINE
8
BLACK
6
CONTINUOUS
10
92.8097
20
-163.747
11
92.7144
21
-163.651
0
LINE
8
BLACK
6
CONTINUOUS
10
92.7144
20
-163.651
11
92.6192
21
-163.461
0
LINE
8
BLACK
6
CONTINUOUS
10
92.6192
20
-163.461
11
92.524
21
-163.08
0
LINE
8
BLACK
6
CONTINUOUS
10
92.524
20
-163.08
11
92.524
21
-162.604
0
LINE
8
BLACK
6
CONTINUOUS
10
92.524
20
-162.604
11
92.6192
21
-162.223
0
LINE
8
BLACK
6
CONTINUOUS
10
92.6192
20
-162.223
11
92.7144
21
-162.032
0
LINE
8
BLACK
6
CONTINUOUS
10
92.7144
20
-162.032
11
92.8097
21
-161.937
0
LINE
8
BLACK
6
CONTINUOUS
10
92.8097
20
-161.937
11
93.0001
21
-161.842
0
LINE
8
BLACK
6
CONTINUOUS
10
94.524
20
-163.651
11
94.6192
21
-163.747
0
LINE
8
BLACK
6
CONTINUOUS
10
94.6192
20
-163.747
11
94.524
21
-163.842
0
LINE
8
BLACK
6
CONTINUOUS
10
94.524
20
-163.842
11
94.4287
21
-163.747
0
LINE
8
BLACK
6
CONTINUOUS
10
94.4287
20
-163.747
11
94.524
21
-163.651
0
LINE
8
BLACK
6
CONTINUOUS
10
94.524
20
-163.651
11
94.524
21
-163.842
0
LINE
8
BLACK
6
CONTINUOUS
10
95.762
20
-162.699
11
95.5716
21
-162.604
0
LINE
8
BLACK
6
CONTINUOUS
10
95.5716
20
-162.604
11
95.4763
21
-162.508
0
LINE
8
BLACK
6
CONTINUOUS
10
95.4763
20
-162.508
11
95.3811
21
-162.318
0
LINE
8
BLACK
6
CONTINUOUS
10
95.3811
20
-162.318
11
95.3811
21
-162.223
0
LINE
8
BLACK
6
CONTINUOUS
10
95.3811
20
-162.223
11
95.4763
21
-162.032
0
LINE
8
BLACK
6
CONTINUOUS
10
95.4763
20
-162.032
11
95.5716
21
-161.937
0
LINE
8
BLACK
6
CONTINUOUS
10
95.5716
20
-161.937
11
95.762
21
-161.842
0
LINE
8
BLACK
6
CONTINUOUS
10
95.762
20
-161.842
11
96.143
21
-161.842
0
LINE
8
BLACK
6
CONTINUOUS
10
96.143
20
-161.842
11
96.3335
21
-161.937
0
LINE
8
BLACK
6
CONTINUOUS
10
96.3335
20
-161.937
11
96.4287
21
-162.032
0
LINE
8
BLACK
6
CONTINUOUS
10
96.4287
20
-162.032
11
96.524
21
-162.223
0
LINE
8
BLACK
6
CONTINUOUS
10
96.524
20
-162.223
11
96.524
21
-162.318
0
LINE
8
BLACK
6
CONTINUOUS
10
96.524
20
-162.318
11
96.4287
21
-162.508
0
LINE
8
BLACK
6
CONTINUOUS
10
96.4287
20
-162.508
11
96.3335
21
-162.604
0
LINE
8
BLACK
6
CONTINUOUS
10
96.3335
20
-162.604
11
96.143
21
-162.699
0
LINE
8
BLACK
6
CONTINUOUS
10
96.143
20
-162.699
11
95.762
21
-162.699
0
LINE
8
BLACK
6
CONTINUOUS
10
95.762
20
-162.699
11
95.5716
21
-162.794
0
LINE
8
BLACK
6
CONTINUOUS
10
95.5716
20
-162.794
11
95.4763
21
-162.889
0
LINE
8
BLACK
6
CONTINUOUS
10
95.4763
20
-162.889
11
95.3811
21
-163.08
0
LINE
8
BLACK
6
CONTINUOUS
10
95.3811
20
-163.08
11
95.3811
21
-163.461
0
LINE
8
BLACK
6
CONTINUOUS
10
95.3811
20
-163.461
11
95.4763
21
-163.651
0
LINE
8
BLACK
6
CONTINUOUS
10
95.4763
20
-163.651
11
95.5716
21
-163.747
0
LINE
8
BLACK
6
CONTINUOUS
10
95.5716
20
-163.747
11
95.762
21
-163.842
0
LINE
8
BLACK
6
CONTINUOUS
10
95.762
20
-163.842
11
96.143
21
-163.842
0
LINE
8
BLACK
6
CONTINUOUS
10
96.143
20
-163.842
11
96.3335
21
-163.747
0
LINE
8
BLACK
6
CONTINUOUS
10
96.3335
20
-163.747
11
96.4287
21
-163.651
0
LINE
8
BLACK
6
CONTINUOUS
10
96.4287
20
-163.651
11
96.524
21
-163.461
0
LINE
8
BLACK
6
CONTINUOUS
10
96.524
20
-163.461
11
96.524
21
-163.08
0
LINE
8
BLACK
6
CONTINUOUS
10
96.524
20
-163.08
11
96.4287
21
-162.889
0
LINE
8
BLACK
6
CONTINUOUS
10
96.4287
20
-162.889
11
96.3335
21
-162.794
0
LINE
8
BLACK
6
CONTINUOUS
10
96.3335
20
-162.794
11
96.143
21
-162.699
0
LINE
8
BLACK
6
CONTINUOUS
10
97.762
20
-161.842
11
97.9525
21
-161.842
0
LINE
8
BLACK
6
CONTINUOUS
10
97.9525
20
-161.842
11
98.143
21
-161.937
0
LINE
8
BLACK
6
CONTINUOUS
10
98.143
20
-161.937
11
98.2382
21
-162.032
0
LINE
8
BLACK
6
CONTINUOUS
10
98.2382
20
-162.032
11
98.3335
21
-162.223
0
LINE
8
BLACK
6
CONTINUOUS
10
98.3335
20
-162.223
11
98.4287
21
-162.604
0
LINE
8
BLACK
6
CONTINUOUS
10
98.4287
20
-162.604
11
98.4287
21
-163.08
0
LINE
8
BLACK
6
CONTINUOUS
10
98.4287
20
-163.08
11
98.3335
21
-163.461
0
LINE
8
BLACK
6
CONTINUOUS
10
98.3335
20
-163.461
11
98.2382
21
-163.651
0
LINE
8
BLACK
6
CONTINUOUS
10
98.2382
20
-163.651
11
98.143
21
-163.747
0
LINE
8
BLACK
6
CONTINUOUS
10
98.143
20
-163.747
11
97.9525
21
-163.842
0
LINE
8
BLACK
6
CONTINUOUS
10
97.9525
20
-163.842
11
97.762
21
-163.842
0
LINE
8
BLACK
6
CONTINUOUS
10
97.762
20
-163.842
11
97.5716
21
-163.747
0
LINE
8
BLACK
6
CONTINUOUS
10
97.5716
20
-163.747
11
97.4763
21
-163.651
0
LINE
8
BLACK
6
CONTINUOUS
10
97.4763
20
-163.651
11
97.3811
21
-163.461
0
LINE
8
BLACK
6
CONTINUOUS
10
97.3811
20
-163.461
11
97.2859
21
-163.08
0
LINE
8
BLACK
6
CONTINUOUS
10
97.2859
20
-163.08
11
97.2859
21
-162.604
0
LINE
8
BLACK
6
CONTINUOUS
10
97.2859
20
-162.604
11
97.3811
21
-162.223
0
LINE
8
BLACK
6
CONTINUOUS
10
97.3811
20
-162.223
11
97.4763
21
-162.032
0
LINE
8
BLACK
6
CONTINUOUS
10
97.4763
20
-162.032
11
97.5716
21
-161.937
0
LINE
8
BLACK
6
CONTINUOUS
10
97.5716
20
-161.937
11
97.762
21
-161.842
0
LINE
8
BLACK
6
CONTINUOUS
10
99.6668
20
-161.842
11
99.8573
21
-161.842
0
LINE
8
BLACK
6
CONTINUOUS
10
99.8573
20
-161.842
11
100.048
21
-161.937
0
LINE
8
BLACK
6
CONTINUOUS
10
100.048
20
-161.937
11
100.143
21
-162.032
0
LINE
8
BLACK
6
CONTINUOUS
10
100.143
20
-162.032
11
100.238
21
-162.223
0
LINE
8
BLACK
6
CONTINUOUS
10
100.238
20
-162.223
11
100.333
21
-162.604
0
LINE
8
BLACK
6
CONTINUOUS
10
100.333
20
-162.604
11
100.333
21
-163.08
0
LINE
8
BLACK
6
CONTINUOUS
10
100.333
20
-163.08
11
100.238
21
-163.461
0
LINE
8
BLACK
6
CONTINUOUS
10
100.238
20
-163.461
11
100.143
21
-163.651
0
LINE
8
BLACK
6
CONTINUOUS
10
100.143
20
-163.651
11
100.048
21
-163.747
0
LINE
8
BLACK
6
CONTINUOUS
10
100.048
20
-163.747
11
99.8573
21
-163.842
0
LINE
8
BLACK
6
CONTINUOUS
10
99.8573
20
-163.842
11
99.6668
21
-163.842
0
LINE
8
BLACK
6
CONTINUOUS
10
99.6668
20
-163.842
11
99.4763
21
-163.747
0
LINE
8
BLACK
6
CONTINUOUS
10
99.4763
20
-163.747
11
99.3811
21
-163.651
0
LINE
8
BLACK
6
CONTINUOUS
10
99.3811
20
-163.651
11
99.2859
21
-163.461
0
LINE
8
BLACK
6
CONTINUOUS
10
99.2859
20
-163.461
11
99.1906
21
-163.08
0
LINE
8
BLACK
6
CONTINUOUS
10
99.1906
20
-163.08
11
99.1906
21
-162.604
0
LINE
8
BLACK
6
CONTINUOUS
10
99.1906
20
-162.604
11
99.2859
21
-162.223
0
LINE
8
BLACK
6
CONTINUOUS
10
99.2859
20
-162.223
11
99.3811
21
-162.032
0
LINE
8
BLACK
6
CONTINUOUS
10
99.3811
20
-162.032
11
99.4763
21
-161.937
0
LINE
8
BLACK
6
CONTINUOUS
10
99.4763
20
-161.937
11
99.6668
21
-161.842
0
LINE
8
BLACK
6
CONTINUOUS
10
101.191
20
-163.842
11
101.191
21
-162.508
0
LINE
8
BLACK
6
CONTINUOUS
10
101.191
20
-162.699
11
101.286
21
-162.604
0
LINE
8
BLACK
6
CONTINUOUS
10
101.286
20
-162.604
11
101.476
21
-162.508
0
LINE
8
BLACK
6
CONTINUOUS
10
101.476
20
-162.508
11
101.762
21
-162.508
0
LINE
8
BLACK
6
CONTINUOUS
10
101.762
20
-162.508
11
101.953
21
-162.604
0
LINE
8
BLACK
6
CONTINUOUS
10
101.953
20
-162.604
11
102.048
21
-162.794
0
LINE
8
BLACK
6
CONTINUOUS
10
102.048
20
-162.794
11
102.048
21
-163.842
0
LINE
8
BLACK
6
CONTINUOUS
10
102.048
20
-162.794
11
102.143
21
-162.604
0
LINE
8
BLACK
6
CONTINUOUS
10
102.143
20
-162.604
11
102.333
21
-162.508
0
LINE
8
BLACK
6
CONTINUOUS
10
102.333
20
-162.508
11
102.619
21
-162.508
0
LINE
8
BLACK
6
CONTINUOUS
10
102.619
20
-162.508
11
102.81
21
-162.604
0
LINE
8
BLACK
6
CONTINUOUS
10
102.81
20
-162.604
11
102.905
21
-162.794
0
LINE
8
BLACK
6
CONTINUOUS
10
102.905
20
-162.794
11
102.905
21
-163.842
0
LINE
8
BLACK
6
CONTINUOUS
10
103.857
20
-163.842
11
103.857
21
-162.508
0
LINE
8
BLACK
6
CONTINUOUS
10
103.857
20
-162.699
11
103.953
21
-162.604
0
LINE
8
BLACK
6
CONTINUOUS
10
103.953
20
-162.604
11
104.143
21
-162.508
0
LINE
8
BLACK
6
CONTINUOUS
10
104.143
20
-162.508
11
104.429
21
-162.508
0
LINE
8
BLACK
6
CONTINUOUS
10
104.429
20
-162.508
11
104.619
21
-162.604
0
LINE
8
BLACK
6
CONTINUOUS
10
104.619
20
-162.604
11
104.714
21
-162.794
0
LINE
8
BLACK
6
CONTINUOUS
10
104.714
20
-162.794
11
104.714
21
-163.842
0
LINE
8
BLACK
6
CONTINUOUS
10
104.714
20
-162.794
11
104.81
21
-162.604
0
LINE
8
BLACK
6
CONTINUOUS
10
104.81
20
-162.604
11
105
21
-162.508
0
LINE
8
BLACK
6
CONTINUOUS
10
105
20
-162.508
11
105.286
21
-162.508
0
LINE
8
BLACK
6
CONTINUOUS
10
105.286
20
-162.508
11
105.476
21
-162.604
0
LINE
8
BLACK
6
CONTINUOUS
10
105.476
20
-162.604
11
105.572
21
-162.794
0
LINE
8
BLACK
6
CONTINUOUS
10
105.572
20
-162.794
11
105.572
21
-163.842
0
LINE
8
BLACK
6
CONTINUOUS
10
109.476
20
-161.747
11
107.762
21
-164.318
0
LINE
8
BLACK
6
CONTINUOUS
10
112.048
20
-161.842
11
112.238
21
-161.842
0
LINE
8
BLACK
6
CONTINUOUS
10
112.238
20
-161.842
11
112.429
21
-161.937
0
LINE
8
BLACK
6
CONTINUOUS
10
112.429
20
-161.937
11
112.524
21
-162.032
0
LINE
8
BLACK
6
CONTINUOUS
10
112.524
20
-162.032
11
112.619
21
-162.223
0
LINE
8
BLACK
6
CONTINUOUS
10
112.619
20
-162.223
11
112.714
21
-162.604
0
LINE
8
BLACK
6
CONTINUOUS
10
112.714
20
-162.604
11
112.714
21
-163.08
0
LINE
8
BLACK
6
CONTINUOUS
10
112.714
20
-163.08
11
112.619
21
-163.461
0
LINE
8
BLACK
6
CONTINUOUS
10
112.619
20
-163.461
11
112.524
21
-163.651
0
LINE
8
BLACK
6
CONTINUOUS
10
112.524
20
-163.651
11
112.429
21
-163.747
0
LINE
8
BLACK
6
CONTINUOUS
10
112.429
20
-163.747
11
112.238
21
-163.842
0
LINE
8
BLACK
6
CONTINUOUS
10
112.238
20
-163.842
11
112.048
21
-163.842
0
LINE
8
BLACK
6
CONTINUOUS
10
112.048
20
-163.842
11
111.857
21
-163.747
0
LINE
8
BLACK
6
CONTINUOUS
10
111.857
20
-163.747
11
111.762
21
-163.651
0
LINE
8
BLACK
6
CONTINUOUS
10
111.762
20
-163.651
11
111.667
21
-163.461
0
LINE
8
BLACK
6
CONTINUOUS
10
111.667
20
-163.461
11
111.572
21
-163.08
0
LINE
8
BLACK
6
CONTINUOUS
10
111.572
20
-163.08
11
111.572
21
-162.604
0
LINE
8
BLACK
6
CONTINUOUS
10
111.572
20
-162.604
11
111.667
21
-162.223
0
LINE
8
BLACK
6
CONTINUOUS
10
111.667
20
-162.223
11
111.762
21
-162.032
0
LINE
8
BLACK
6
CONTINUOUS
10
111.762
20
-162.032
11
111.857
21
-161.937
0
LINE
8
BLACK
6
CONTINUOUS
10
111.857
20
-161.937
11
112.048
21
-161.842
0
LINE
8
BLACK
6
CONTINUOUS
10
113.572
20
-163.651
11
113.667
21
-163.747
0
LINE
8
BLACK
6
CONTINUOUS
10
113.667
20
-163.747
11
113.572
21
-163.842
0
LINE
8
BLACK
6
CONTINUOUS
10
113.572
20
-163.842
11
113.476
21
-163.747
0
LINE
8
BLACK
6
CONTINUOUS
10
113.476
20
-163.747
11
113.572
21
-163.651
0
LINE
8
BLACK
6
CONTINUOUS
10
113.572
20
-163.651
11
113.572
21
-163.842
0
LINE
8
BLACK
6
CONTINUOUS
10
114.905
20
-161.842
11
115.095
21
-161.842
0
LINE
8
BLACK
6
CONTINUOUS
10
115.095
20
-161.842
11
115.286
21
-161.937
0
LINE
8
BLACK
6
CONTINUOUS
10
115.286
20
-161.937
11
115.381
21
-162.032
0
LINE
8
BLACK
6
CONTINUOUS
10
115.381
20
-162.032
11
115.476
21
-162.223
0
LINE
8
BLACK
6
CONTINUOUS
10
115.476
20
-162.223
11
115.572
21
-162.604
0
LINE
8
BLACK
6
CONTINUOUS
10
115.572
20
-162.604
11
115.572
21
-163.08
0
LINE
8
BLACK
6
CONTINUOUS
10
115.572
20
-163.08
11
115.476
21
-163.461
0
LINE
8
BLACK
6
CONTINUOUS
10
115.476
20
-163.461
11
115.381
21
-163.651
0
LINE
8
BLACK
6
CONTINUOUS
10
115.381
20
-163.651
11
115.286
21
-163.747
0
LINE
8
BLACK
6
CONTINUOUS
10
115.286
20
-163.747
11
115.095
21
-163.842
0
LINE
8
BLACK
6
CONTINUOUS
10
115.095
20
-163.842
11
114.905
21
-163.842
0
LINE
8
BLACK
6
CONTINUOUS
10
114.905
20
-163.842
11
114.714
21
-163.747
0
LINE
8
BLACK
6
CONTINUOUS
10
114.714
20
-163.747
11
114.619
21
-163.651
0
LINE
8
BLACK
6
CONTINUOUS
10
114.619
20
-163.651
11
114.524
21
-163.461
0
LINE
8
BLACK
6
CONTINUOUS
10
114.524
20
-163.461
11
114.429
21
-163.08
0
LINE
8
BLACK
6
CONTINUOUS
10
114.429
20
-163.08
11
114.429
21
-162.604
0
LINE
8
BLACK
6
CONTINUOUS
10
114.429
20
-162.604
11
114.524
21
-162.223
0
LINE
8
BLACK
6
CONTINUOUS
10
114.524
20
-162.223
11
114.619
21
-162.032
0
LINE
8
BLACK
6
CONTINUOUS
10
114.619
20
-162.032
11
114.714
21
-161.937
0
LINE
8
BLACK
6
CONTINUOUS
10
114.714
20
-161.937
11
114.905
21
-161.842
0
LINE
8
BLACK
6
CONTINUOUS
10
116.238
20
-161.842
11
117.476
21
-161.842
0
LINE
8
BLACK
6
CONTINUOUS
10
117.476
20
-161.842
11
116.81
21
-162.604
0
LINE
8
BLACK
6
CONTINUOUS
10
116.81
20
-162.604
11
117.095
21
-162.604
0
LINE
8
BLACK
6
CONTINUOUS
10
117.095
20
-162.604
11
117.286
21
-162.699
0
LINE
8
BLACK
6
CONTINUOUS
10
117.286
20
-162.699
11
117.381
21
-162.794
0
LINE
8
BLACK
6
CONTINUOUS
10
117.381
20
-162.794
11
117.476
21
-162.985
0
LINE
8
BLACK
6
CONTINUOUS
10
117.476
20
-162.985
11
117.476
21
-163.461
0
LINE
8
BLACK
6
CONTINUOUS
10
117.476
20
-163.461
11
117.381
21
-163.651
0
LINE
8
BLACK
6
CONTINUOUS
10
117.381
20
-163.651
11
117.286
21
-163.747
0
LINE
8
BLACK
6
CONTINUOUS
10
117.286
20
-163.747
11
117.095
21
-163.842
0
LINE
8
BLACK
6
CONTINUOUS
10
117.095
20
-163.842
11
116.524
21
-163.842
0
LINE
8
BLACK
6
CONTINUOUS
10
116.524
20
-163.842
11
116.333
21
-163.747
0
LINE
8
BLACK
6
CONTINUOUS
10
116.333
20
-163.747
11
116.238
21
-163.651
0
LINE
8
BLACK
6
CONTINUOUS
10
119.381
20
-163.842
11
118.238
21
-163.842
0
LINE
8
BLACK
6
CONTINUOUS
10
118.81
20
-163.842
11
118.81
21
-161.842
0
LINE
8
BLACK
6
CONTINUOUS
10
118.81
20
-161.842
11
118.619
21
-162.127
0
LINE
8
BLACK
6
CONTINUOUS
10
118.619
20
-162.127
11
118.429
21
-162.318
0
LINE
8
BLACK
6
CONTINUOUS
10
118.429
20
-162.318
11
118.238
21
-162.413
0
LINE
8
BLACK
6
CONTINUOUS
10
121.191
20
-161.842
11
120.238
21
-161.842
0
LINE
8
BLACK
6
CONTINUOUS
10
120.238
20
-161.842
11
120.143
21
-162.794
0
LINE
8
BLACK
6
CONTINUOUS
10
120.143
20
-162.794
11
120.238
21
-162.699
0
LINE
8
BLACK
6
CONTINUOUS
10
120.238
20
-162.699
11
120.429
21
-162.604
0
LINE
8
BLACK
6
CONTINUOUS
10
120.429
20
-162.604
11
120.905
21
-162.604
0
LINE
8
BLACK
6
CONTINUOUS
10
120.905
20
-162.604
11
121.095
21
-162.699
0
LINE
8
BLACK
6
CONTINUOUS
10
121.095
20
-162.699
11
121.191
21
-162.794
0
LINE
8
BLACK
6
CONTINUOUS
10
121.191
20
-162.794
11
121.286
21
-162.985
0
LINE
8
BLACK
6
CONTINUOUS
10
121.286
20
-162.985
11
121.286
21
-163.461
0
LINE
8
BLACK
6
CONTINUOUS
10
121.286
20
-163.461
11
121.191
21
-163.651
0
LINE
8
BLACK
6
CONTINUOUS
10
121.191
20
-163.651
11
121.095
21
-163.747
0
LINE
8
BLACK
6
CONTINUOUS
10
121.095
20
-163.747
11
120.905
21
-163.842
0
LINE
8
BLACK
6
CONTINUOUS
10
120.905
20
-163.842
11
120.429
21
-163.842
0
LINE
8
BLACK
6
CONTINUOUS
10
120.429
20
-163.842
11
120.238
21
-163.747
0
LINE
8
BLACK
6
CONTINUOUS
10
120.238
20
-163.747
11
120.143
21
-163.651
0
LINE
8
BLACK
6
CONTINUOUS
10
122.048
20
-161.842
11
122.048
21
-162.223
0
LINE
8
BLACK
6
CONTINUOUS
10
122.81
20
-161.842
11
122.81
21
-162.223
0
LINE
8
BLACK
6
CONTINUOUS
10
125.762
20
-164.604
11
125.667
21
-164.508
0
LINE
8
BLACK
6
CONTINUOUS
10
125.667
20
-164.508
11
125.476
21
-164.223
0
LINE
8
BLACK
6
CONTINUOUS
10
125.476
20
-164.223
11
125.381
21
-164.032
0
LINE
8
BLACK
6
CONTINUOUS
10
125.381
20
-164.032
11
125.286
21
-163.747
0
LINE
8
BLACK
6
CONTINUOUS
10
125.286
20
-163.747
11
125.191
21
-163.27
0
LINE
8
BLACK
6
CONTINUOUS
10
125.191
20
-163.27
11
125.191
21
-162.889
0
LINE
8
BLACK
6
CONTINUOUS
10
125.191
20
-162.889
11
125.286
21
-162.413
0
LINE
8
BLACK
6
CONTINUOUS
10
125.286
20
-162.413
11
125.381
21
-162.127
0
LINE
8
BLACK
6
CONTINUOUS
10
125.381
20
-162.127
11
125.476
21
-161.937
0
LINE
8
BLACK
6
CONTINUOUS
10
125.476
20
-161.937
11
125.667
21
-161.651
0
LINE
8
BLACK
6
CONTINUOUS
10
125.667
20
-161.651
11
125.762
21
-161.556
0
LINE
8
BLACK
6
CONTINUOUS
10
126.429
20
-162.032
11
126.524
21
-161.937
0
LINE
8
BLACK
6
CONTINUOUS
10
126.524
20
-161.937
11
126.714
21
-161.842
0
LINE
8
BLACK
6
CONTINUOUS
10
126.714
20
-161.842
11
127.191
21
-161.842
0
LINE
8
BLACK
6
CONTINUOUS
10
127.191
20
-161.842
11
127.381
21
-161.937
0
LINE
8
BLACK
6
CONTINUOUS
10
127.381
20
-161.937
11
127.476
21
-162.032
0
LINE
8
BLACK
6
CONTINUOUS
10
127.476
20
-162.032
11
127.572
21
-162.223
0
LINE
8
BLACK
6
CONTINUOUS
10
127.572
20
-162.223
11
127.572
21
-162.413
0
LINE
8
BLACK
6
CONTINUOUS
10
127.572
20
-162.413
11
127.476
21
-162.699
0
LINE
8
BLACK
6
CONTINUOUS
10
127.476
20
-162.699
11
126.333
21
-163.842
0
LINE
8
BLACK
6
CONTINUOUS
10
126.333
20
-163.842
11
127.572
21
-163.842
0
LINE
8
BLACK
6
CONTINUOUS
10
128.81
20
-161.842
11
129
21
-161.842
0
LINE
8
BLACK
6
CONTINUOUS
10
129
20
-161.842
11
129.191
21
-161.937
0
LINE
8
BLACK
6
CONTINUOUS
10
129.191
20
-161.937
11
129.286
21
-162.032
0
LINE
8
BLACK
6
CONTINUOUS
10
129.286
20
-162.032
11
129.381
21
-162.223
0
LINE
8
BLACK
6
CONTINUOUS
10
129.381
20
-162.223
11
129.476
21
-162.604
0
LINE
8
BLACK
6
CONTINUOUS
10
129.476
20
-162.604
11
129.476
21
-163.08
0
LINE
8
BLACK
6
CONTINUOUS
10
129.476
20
-163.08
11
129.381
21
-163.461
0
LINE
8
BLACK
6
CONTINUOUS
10
129.381
20
-163.461
11
129.286
21
-163.651
0
LINE
8
BLACK
6
CONTINUOUS
10
129.286
20
-163.651
11
129.191
21
-163.747
0
LINE
8
BLACK
6
CONTINUOUS
10
129.191
20
-163.747
11
129
21
-163.842
0
LINE
8
BLACK
6
CONTINUOUS
10
129
20
-163.842
11
128.81
21
-163.842
0
LINE
8
BLACK
6
CONTINUOUS
10
128.81
20
-163.842
11
128.619
21
-163.747
0
LINE
8
BLACK
6
CONTINUOUS
10
128.619
20
-163.747
11
128.524
21
-163.651
0
LINE
8
BLACK
6
CONTINUOUS
10
128.524
20
-163.651
11
128.429
21
-163.461
0
LINE
8
BLACK
6
CONTINUOUS
10
128.429
20
-163.461
11
128.333
21
-163.08
0
LINE
8
BLACK
6
CONTINUOUS
10
128.333
20
-163.08
11
128.333
21
-162.604
0
LINE
8
BLACK
6
CONTINUOUS
10
128.333
20
-162.604
11
128.429
21
-162.223
0
LINE
8
BLACK
6
CONTINUOUS
10
128.429
20
-162.223
11
128.524
21
-162.032
0
LINE
8
BLACK
6
CONTINUOUS
10
128.524
20
-162.032
11
128.619
21
-161.937
0
LINE
8
BLACK
6
CONTINUOUS
10
128.619
20
-161.937
11
128.81
21
-161.842
0
LINE
8
BLACK
6
CONTINUOUS
10
131.857
20
-163.842
11
131.857
21
-161.842
0
LINE
8
BLACK
6
CONTINUOUS
10
132.714
20
-163.842
11
132.714
21
-162.794
0
LINE
8
BLACK
6
CONTINUOUS
10
132.714
20
-162.794
11
132.619
21
-162.604
0
LINE
8
BLACK
6
CONTINUOUS
10
132.619
20
-162.604
11
132.429
21
-162.508
0
LINE
8
BLACK
6
CONTINUOUS
10
132.429
20
-162.508
11
132.143
21
-162.508
0
LINE
8
BLACK
6
CONTINUOUS
10
132.143
20
-162.508
11
131.953
21
-162.604
0
LINE
8
BLACK
6
CONTINUOUS
10
131.953
20
-162.604
11
131.857
21
-162.699
0
LINE
8
BLACK
6
CONTINUOUS
10
133.953
20
-163.842
11
133.762
21
-163.747
0
LINE
8
BLACK
6
CONTINUOUS
10
133.762
20
-163.747
11
133.667
21
-163.651
0
LINE
8
BLACK
6
CONTINUOUS
10
133.667
20
-163.651
11
133.572
21
-163.461
0
LINE
8
BLACK
6
CONTINUOUS
10
133.572
20
-163.461
11
133.572
21
-162.889
0
LINE
8
BLACK
6
CONTINUOUS
10
133.572
20
-162.889
11
133.667
21
-162.699
0
LINE
8
BLACK
6
CONTINUOUS
10
133.667
20
-162.699
11
133.762
21
-162.604
0
LINE
8
BLACK
6
CONTINUOUS
10
133.762
20
-162.604
11
133.953
21
-162.508
0
LINE
8
BLACK
6
CONTINUOUS
10
133.953
20
-162.508
11
134.238
21
-162.508
0
LINE
8
BLACK
6
CONTINUOUS
10
134.238
20
-162.508
11
134.429
21
-162.604
0
LINE
8
BLACK
6
CONTINUOUS
10
134.429
20
-162.604
11
134.524
21
-162.699
0
LINE
8
BLACK
6
CONTINUOUS
10
134.524
20
-162.699
11
134.619
21
-162.889
0
LINE
8
BLACK
6
CONTINUOUS
10
134.619
20
-162.889
11
134.619
21
-163.461
0
LINE
8
BLACK
6
CONTINUOUS
10
134.619
20
-163.461
11
134.524
21
-163.651
0
LINE
8
BLACK
6
CONTINUOUS
10
134.524
20
-163.651
11
134.429
21
-163.747
0
LINE
8
BLACK
6
CONTINUOUS
10
134.429
20
-163.747
11
134.238
21
-163.842
0
LINE
8
BLACK
6
CONTINUOUS
10
134.238
20
-163.842
11
133.953
21
-163.842
0
LINE
8
BLACK
6
CONTINUOUS
10
135.762
20
-163.842
11
135.572
21
-163.747
0
LINE
8
BLACK
6
CONTINUOUS
10
135.572
20
-163.747
11
135.476
21
-163.556
0
LINE
8
BLACK
6
CONTINUOUS
10
135.476
20
-163.556
11
135.476
21
-161.842
0
LINE
8
BLACK
6
CONTINUOUS
10
137.286
20
-163.747
11
137.095
21
-163.842
0
LINE
8
BLACK
6
CONTINUOUS
10
137.095
20
-163.842
11
136.714
21
-163.842
0
LINE
8
BLACK
6
CONTINUOUS
10
136.714
20
-163.842
11
136.524
21
-163.747
0
LINE
8
BLACK
6
CONTINUOUS
10
136.524
20
-163.747
11
136.429
21
-163.556
0
LINE
8
BLACK
6
CONTINUOUS
10
136.429
20
-163.556
11
136.429
21
-162.794
0
LINE
8
BLACK
6
CONTINUOUS
10
136.429
20
-162.794
11
136.524
21
-162.604
0
LINE
8
BLACK
6
CONTINUOUS
10
136.524
20
-162.604
11
136.714
21
-162.508
0
LINE
8
BLACK
6
CONTINUOUS
10
136.714
20
-162.508
11
137.095
21
-162.508
0
LINE
8
BLACK
6
CONTINUOUS
10
137.095
20
-162.508
11
137.286
21
-162.604
0
LINE
8
BLACK
6
CONTINUOUS
10
137.286
20
-162.604
11
137.381
21
-162.794
0
LINE
8
BLACK
6
CONTINUOUS
10
137.381
20
-162.794
11
137.381
21
-162.985
0
LINE
8
BLACK
6
CONTINUOUS
10
137.381
20
-162.985
11
136.429
21
-163.175
0
LINE
8
BLACK
6
CONTINUOUS
10
138.143
20
-163.747
11
138.333
21
-163.842
0
LINE
8
BLACK
6
CONTINUOUS
10
138.333
20
-163.842
11
138.714
21
-163.842
0
LINE
8
BLACK
6
CONTINUOUS
10
138.714
20
-163.842
11
138.905
21
-163.747
0
LINE
8
BLACK
6
CONTINUOUS
10
138.905
20
-163.747
11
139
21
-163.556
0
LINE
8
BLACK
6
CONTINUOUS
10
139
20
-163.556
11
139
21
-163.461
0
LINE
8
BLACK
6
CONTINUOUS
10
139
20
-163.461
11
138.905
21
-163.27
0
LINE
8
BLACK
6
CONTINUOUS
10
138.905
20
-163.27
11
138.714
21
-163.175
0
LINE
8
BLACK
6
CONTINUOUS
10
138.714
20
-163.175
11
138.429
21
-163.175
0
LINE
8
BLACK
6
CONTINUOUS
10
138.429
20
-163.175
11
138.238
21
-163.08
0
LINE
8
BLACK
6
CONTINUOUS
10
138.238
20
-163.08
11
138.143
21
-162.889
0
LINE
8
BLACK
6
CONTINUOUS
10
138.143
20
-162.889
11
138.143
21
-162.794
0
LINE
8
BLACK
6
CONTINUOUS
10
138.143
20
-162.794
11
138.238
21
-162.604
0
LINE
8
BLACK
6
CONTINUOUS
10
138.238
20
-162.604
11
138.429
21
-162.508
0
LINE
8
BLACK
6
CONTINUOUS
10
138.429
20
-162.508
11
138.714
21
-162.508
0
LINE
8
BLACK
6
CONTINUOUS
10
138.714
20
-162.508
11
138.905
21
-162.604
0
LINE
8
BLACK
6
CONTINUOUS
10
139.667
20
-164.604
11
139.762
21
-164.508
0
LINE
8
BLACK
6
CONTINUOUS
10
139.762
20
-164.508
11
139.953
21
-164.223
0
LINE
8
BLACK
6
CONTINUOUS
10
139.953
20
-164.223
11
140.048
21
-164.032
0
LINE
8
BLACK
6
CONTINUOUS
10
140.048
20
-164.032
11
140.143
21
-163.747
0
LINE
8
BLACK
6
CONTINUOUS
10
140.143
20
-163.747
11
140.238
21
-163.27
0
LINE
8
BLACK
6
CONTINUOUS
10
140.238
20
-163.27
11
140.238
21
-162.889
0
LINE
8
BLACK
6
CONTINUOUS
10
140.238
20
-162.889
11
140.143
21
-162.413
0
LINE
8
BLACK
6
CONTINUOUS
10
140.143
20
-162.413
11
140.048
21
-162.127
0
LINE
8
BLACK
6
CONTINUOUS
10
140.048
20
-162.127
11
139.953
21
-161.937
0
LINE
8
BLACK
6
CONTINUOUS
10
139.953
20
-161.937
11
139.762
21
-161.651
0
LINE
8
BLACK
6
CONTINUOUS
10
139.762
20
-161.651
11
139.667
21
-161.556
0
LINE
8
BLACK
6
CONTINUOUS
10
89.8966
20
-165.931
11
89.8966
21
-165.223
0
LINE
8
BLACK
6
CONTINUOUS
10
89.8966
20
-165.223
11
89.1894
21
-165.223
0
LINE
8
BLACK
6
CONTINUOUS
10
89.1894
20
-165.223
11
89.1894
21
-165.931
0
LINE
8
BLACK
6
CONTINUOUS
10
89.1894
20
-165.931
11
89.8966
21
-165.931
0
LINE
8
BLACK
6
CONTINUOUS
10
93.6668
20
-166.482
11
92.524
21
-166.482
0
LINE
8
BLACK
6
CONTINUOUS
10
93.0954
20
-166.482
11
93.0954
21
-164.482
0
LINE
8
BLACK
6
CONTINUOUS
10
93.0954
20
-164.482
11
92.9049
21
-164.767
0
LINE
8
BLACK
6
CONTINUOUS
10
92.9049
20
-164.767
11
92.7144
21
-164.958
0
LINE
8
BLACK
6
CONTINUOUS
10
92.7144
20
-164.958
11
92.524
21
-165.053
0
LINE
8
BLACK
6
CONTINUOUS
10
94.524
20
-166.291
11
94.6192
21
-166.387
0
LINE
8
BLACK
6
CONTINUOUS
10
94.6192
20
-166.387
11
94.524
21
-166.482
0
LINE
8
BLACK
6
CONTINUOUS
10
94.524
20
-166.482
11
94.4287
21
-166.387
0
LINE
8
BLACK
6
CONTINUOUS
10
94.4287
20
-166.387
11
94.524
21
-166.291
0
LINE
8
BLACK
6
CONTINUOUS
10
94.524
20
-166.291
11
94.524
21
-166.482
0
LINE
8
BLACK
6
CONTINUOUS
10
95.8573
20
-164.482
11
96.0478
21
-164.482
0
LINE
8
BLACK
6
CONTINUOUS
10
96.0478
20
-164.482
11
96.2382
21
-164.577
0
LINE
8
BLACK
6
CONTINUOUS
10
96.2382
20
-164.577
11
96.3335
21
-164.672
0
LINE
8
BLACK
6
CONTINUOUS
10
96.3335
20
-164.672
11
96.4287
21
-164.863
0
LINE
8
BLACK
6
CONTINUOUS
10
96.4287
20
-164.863
11
96.524
21
-165.244
0
LINE
8
BLACK
6
CONTINUOUS
10
96.524
20
-165.244
11
96.524
21
-165.72
0
LINE
8
BLACK
6
CONTINUOUS
10
96.524
20
-165.72
11
96.4287
21
-166.101
0
LINE
8
BLACK
6
CONTINUOUS
10
96.4287
20
-166.101
11
96.3335
21
-166.291
0
LINE
8
BLACK
6
CONTINUOUS
10
96.3335
20
-166.291
11
96.2382
21
-166.387
0
LINE
8
BLACK
6
CONTINUOUS
10
96.2382
20
-166.387
11
96.0478
21
-166.482
0
LINE
8
BLACK
6
CONTINUOUS
10
96.0478
20
-166.482
11
95.8573
21
-166.482
0
LINE
8
BLACK
6
CONTINUOUS
10
95.8573
20
-166.482
11
95.6668
21
-166.387
0
LINE
8
BLACK
6
CONTINUOUS
10
95.6668
20
-166.387
11
95.5716
21
-166.291
0
LINE
8
BLACK
6
CONTINUOUS
10
95.5716
20
-166.291
11
95.4763
21
-166.101
0
LINE
8
BLACK
6
CONTINUOUS
10
95.4763
20
-166.101
11
95.3811
21
-165.72
0
LINE
8
BLACK
6
CONTINUOUS
10
95.3811
20
-165.72
11
95.3811
21
-165.244
0
LINE
8
BLACK
6
CONTINUOUS
10
95.3811
20
-165.244
11
95.4763
21
-164.863
0
LINE
8
BLACK
6
CONTINUOUS
10
95.4763
20
-164.863
11
95.5716
21
-164.672
0
LINE
8
BLACK
6
CONTINUOUS
10
95.5716
20
-164.672
11
95.6668
21
-164.577
0
LINE
8
BLACK
6
CONTINUOUS
10
95.6668
20
-164.577
11
95.8573
21
-164.482
0
LINE
8
BLACK
6
CONTINUOUS
10
97.762
20
-164.482
11
97.9525
21
-164.482
0
LINE
8
BLACK
6
CONTINUOUS
10
97.9525
20
-164.482
11
98.143
21
-164.577
0
LINE
8
BLACK
6
CONTINUOUS
10
98.143
20
-164.577
11
98.2382
21
-164.672
0
LINE
8
BLACK
6
CONTINUOUS
10
98.2382
20
-164.672
11
98.3335
21
-164.863
0
LINE
8
BLACK
6
CONTINUOUS
10
98.3335
20
-164.863
11
98.4287
21
-165.244
0
LINE
8
BLACK
6
CONTINUOUS
10
98.4287
20
-165.244
11
98.4287
21
-165.72
0
LINE
8
BLACK
6
CONTINUOUS
10
98.4287
20
-165.72
11
98.3335
21
-166.101
0
LINE
8
BLACK
6
CONTINUOUS
10
98.3335
20
-166.101
11
98.2382
21
-166.291
0
LINE
8
BLACK
6
CONTINUOUS
10
98.2382
20
-166.291
11
98.143
21
-166.387
0
LINE
8
BLACK
6
CONTINUOUS
10
98.143
20
-166.387
11
97.9525
21
-166.482
0
LINE
8
BLACK
6
CONTINUOUS
10
97.9525
20
-166.482
11
97.762
21
-166.482
0
LINE
8
BLACK
6
CONTINUOUS
10
97.762
20
-166.482
11
97.5716
21
-166.387
0
LINE
8
BLACK
6
CONTINUOUS
10
97.5716
20
-166.387
11
97.4763
21
-166.291
0
LINE
8
BLACK
6
CONTINUOUS
10
97.4763
20
-166.291
11
97.3811
21
-166.101
0
LINE
8
BLACK
6
CONTINUOUS
10
97.3811
20
-166.101
11
97.2859
21
-165.72
0
LINE
8
BLACK
6
CONTINUOUS
10
97.2859
20
-165.72
11
97.2859
21
-165.244
0
LINE
8
BLACK
6
CONTINUOUS
10
97.2859
20
-165.244
11
97.3811
21
-164.863
0
LINE
8
BLACK
6
CONTINUOUS
10
97.3811
20
-164.863
11
97.4763
21
-164.672
0
LINE
8
BLACK
6
CONTINUOUS
10
97.4763
20
-164.672
11
97.5716
21
-164.577
0
LINE
8
BLACK
6
CONTINUOUS
10
97.5716
20
-164.577
11
97.762
21
-164.482
0
LINE
8
BLACK
6
CONTINUOUS
10
99.6668
20
-164.482
11
99.8573
21
-164.482
0
LINE
8
BLACK
6
CONTINUOUS
10
99.8573
20
-164.482
11
100.048
21
-164.577
0
LINE
8
BLACK
6
CONTINUOUS
10
100.048
20
-164.577
11
100.143
21
-164.672
0
LINE
8
BLACK
6
CONTINUOUS
10
100.143
20
-164.672
11
100.238
21
-164.863
0
LINE
8
BLACK
6
CONTINUOUS
10
100.238
20
-164.863
11
100.333
21
-165.244
0
LINE
8
BLACK
6
CONTINUOUS
10
100.333
20
-165.244
11
100.333
21
-165.72
0
LINE
8
BLACK
6
CONTINUOUS
10
100.333
20
-165.72
11
100.238
21
-166.101
0
LINE
8
BLACK
6
CONTINUOUS
10
100.238
20
-166.101
11
100.143
21
-166.291
0
LINE
8
BLACK
6
CONTINUOUS
10
100.143
20
-166.291
11
100.048
21
-166.387
0
LINE
8
BLACK
6
CONTINUOUS
10
100.048
20
-166.387
11
99.8573
21
-166.482
0
LINE
8
BLACK
6
CONTINUOUS
10
99.8573
20
-166.482
11
99.6668
21
-166.482
0
LINE
8
BLACK
6
CONTINUOUS
10
99.6668
20
-166.482
11
99.4763
21
-166.387
0
LINE
8
BLACK
6
CONTINUOUS
10
99.4763
20
-166.387
11
99.3811
21
-166.291
0
LINE
8
BLACK
6
CONTINUOUS
10
99.3811
20
-166.291
11
99.2859
21
-166.101
0
LINE
8
BLACK
6
CONTINUOUS
10
99.2859
20
-166.101
11
99.1906
21
-165.72
0
LINE
8
BLACK
6
CONTINUOUS
10
99.1906
20
-165.72
11
99.1906
21
-165.244
0
LINE
8
BLACK
6
CONTINUOUS
10
99.1906
20
-165.244
11
99.2859
21
-164.863
0
LINE
8
BLACK
6
CONTINUOUS
10
99.2859
20
-164.863
11
99.3811
21
-164.672
0
LINE
8
BLACK
6
CONTINUOUS
10
99.3811
20
-164.672
11
99.4763
21
-164.577
0
LINE
8
BLACK
6
CONTINUOUS
10
99.4763
20
-164.577
11
99.6668
21
-164.482
0
LINE
8
BLACK
6
CONTINUOUS
10
101.191
20
-166.482
11
101.191
21
-165.148
0
LINE
8
BLACK
6
CONTINUOUS
10
101.191
20
-165.339
11
101.286
21
-165.244
0
LINE
8
BLACK
6
CONTINUOUS
10
101.286
20
-165.244
11
101.476
21
-165.148
0
LINE
8
BLACK
6
CONTINUOUS
10
101.476
20
-165.148
11
101.762
21
-165.148
0
LINE
8
BLACK
6
CONTINUOUS
10
101.762
20
-165.148
11
101.953
21
-165.244
0
LINE
8
BLACK
6
CONTINUOUS
10
101.953
20
-165.244
11
102.048
21
-165.434
0
LINE
8
BLACK
6
CONTINUOUS
10
102.048
20
-165.434
11
102.048
21
-166.482
0
LINE
8
BLACK
6
CONTINUOUS
10
102.048
20
-165.434
11
102.143
21
-165.244
0
LINE
8
BLACK
6
CONTINUOUS
10
102.143
20
-165.244
11
102.333
21
-165.148
0
LINE
8
BLACK
6
CONTINUOUS
10
102.333
20
-165.148
11
102.619
21
-165.148
0
LINE
8
BLACK
6
CONTINUOUS
10
102.619
20
-165.148
11
102.81
21
-165.244
0
LINE
8
BLACK
6
CONTINUOUS
10
102.81
20
-165.244
11
102.905
21
-165.434
0
LINE
8
BLACK
6
CONTINUOUS
10
102.905
20
-165.434
11
102.905
21
-166.482
0
LINE
8
BLACK
6
CONTINUOUS
10
103.857
20
-166.482
11
103.857
21
-165.148
0
LINE
8
BLACK
6
CONTINUOUS
10
103.857
20
-165.339
11
103.953
21
-165.244
0
LINE
8
BLACK
6
CONTINUOUS
10
103.953
20
-165.244
11
104.143
21
-165.148
0
LINE
8
BLACK
6
CONTINUOUS
10
104.143
20
-165.148
11
104.429
21
-165.148
0
LINE
8
BLACK
6
CONTINUOUS
10
104.429
20
-165.148
11
104.619
21
-165.244
0
LINE
8
BLACK
6
CONTINUOUS
10
104.619
20
-165.244
11
104.714
21
-165.434
0
LINE
8
BLACK
6
CONTINUOUS
10
104.714
20
-165.434
11
104.714
21
-166.482
0
LINE
8
BLACK
6
CONTINUOUS
10
104.714
20
-165.434
11
104.81
21
-165.244
0
LINE
8
BLACK
6
CONTINUOUS
10
104.81
20
-165.244
11
105
21
-165.148
0
LINE
8
BLACK
6
CONTINUOUS
10
105
20
-165.148
11
105.286
21
-165.148
0
LINE
8
BLACK
6
CONTINUOUS
10
105.286
20
-165.148
11
105.476
21
-165.244
0
LINE
8
BLACK
6
CONTINUOUS
10
105.476
20
-165.244
11
105.572
21
-165.434
0
LINE
8
BLACK
6
CONTINUOUS
10
105.572
20
-165.434
11
105.572
21
-166.482
0
LINE
8
BLACK
6
CONTINUOUS
10
109.476
20
-164.387
11
107.762
21
-166.958
0
LINE
8
BLACK
6
CONTINUOUS
10
112.048
20
-164.482
11
112.238
21
-164.482
0
LINE
8
BLACK
6
CONTINUOUS
10
112.238
20
-164.482
11
112.429
21
-164.577
0
LINE
8
BLACK
6
CONTINUOUS
10
112.429
20
-164.577
11
112.524
21
-164.672
0
LINE
8
BLACK
6
CONTINUOUS
10
112.524
20
-164.672
11
112.619
21
-164.863
0
LINE
8
BLACK
6
CONTINUOUS
10
112.619
20
-164.863
11
112.714
21
-165.244
0
LINE
8
BLACK
6
CONTINUOUS
10
112.714
20
-165.244
11
112.714
21
-165.72
0
LINE
8
BLACK
6
CONTINUOUS
10
112.714
20
-165.72
11
112.619
21
-166.101
0
LINE
8
BLACK
6
CONTINUOUS
10
112.619
20
-166.101
11
112.524
21
-166.291
0
LINE
8
BLACK
6
CONTINUOUS
10
112.524
20
-166.291
11
112.429
21
-166.387
0
LINE
8
BLACK
6
CONTINUOUS
10
112.429
20
-166.387
11
112.238
21
-166.482
0
LINE
8
BLACK
6
CONTINUOUS
10
112.238
20
-166.482
11
112.048
21
-166.482
0
LINE
8
BLACK
6
CONTINUOUS
10
112.048
20
-166.482
11
111.857
21
-166.387
0
LINE
8
BLACK
6
CONTINUOUS
10
111.857
20
-166.387
11
111.762
21
-166.291
0
LINE
8
BLACK
6
CONTINUOUS
10
111.762
20
-166.291
11
111.667
21
-166.101
0
LINE
8
BLACK
6
CONTINUOUS
10
111.667
20
-166.101
11
111.572
21
-165.72
0
LINE
8
BLACK
6
CONTINUOUS
10
111.572
20
-165.72
11
111.572
21
-165.244
0
LINE
8
BLACK
6
CONTINUOUS
10
111.572
20
-165.244
11
111.667
21
-164.863
0
LINE
8
BLACK
6
CONTINUOUS
10
111.667
20
-164.863
11
111.762
21
-164.672
0
LINE
8
BLACK
6
CONTINUOUS
10
111.762
20
-164.672
11
111.857
21
-164.577
0
LINE
8
BLACK
6
CONTINUOUS
10
111.857
20
-164.577
11
112.048
21
-164.482
0
LINE
8
BLACK
6
CONTINUOUS
10
113.572
20
-166.291
11
113.667
21
-166.387
0
LINE
8
BLACK
6
CONTINUOUS
10
113.667
20
-166.387
11
113.572
21
-166.482
0
LINE
8
BLACK
6
CONTINUOUS
10
113.572
20
-166.482
11
113.476
21
-166.387
0
LINE
8
BLACK
6
CONTINUOUS
10
113.476
20
-166.387
11
113.572
21
-166.291
0
LINE
8
BLACK
6
CONTINUOUS
10
113.572
20
-166.291
11
113.572
21
-166.482
0
LINE
8
BLACK
6
CONTINUOUS
10
114.905
20
-164.482
11
115.095
21
-164.482
0
LINE
8
BLACK
6
CONTINUOUS
10
115.095
20
-164.482
11
115.286
21
-164.577
0
LINE
8
BLACK
6
CONTINUOUS
10
115.286
20
-164.577
11
115.381
21
-164.672
0
LINE
8
BLACK
6
CONTINUOUS
10
115.381
20
-164.672
11
115.476
21
-164.863
0
LINE
8
BLACK
6
CONTINUOUS
10
115.476
20
-164.863
11
115.572
21
-165.244
0
LINE
8
BLACK
6
CONTINUOUS
10
115.572
20
-165.244
11
115.572
21
-165.72
0
LINE
8
BLACK
6
CONTINUOUS
10
115.572
20
-165.72
11
115.476
21
-166.101
0
LINE
8
BLACK
6
CONTINUOUS
10
115.476
20
-166.101
11
115.381
21
-166.291
0
LINE
8
BLACK
6
CONTINUOUS
10
115.381
20
-166.291
11
115.286
21
-166.387
0
LINE
8
BLACK
6
CONTINUOUS
10
115.286
20
-166.387
11
115.095
21
-166.482
0
LINE
8
BLACK
6
CONTINUOUS
10
115.095
20
-166.482
11
114.905
21
-166.482
0
LINE
8
BLACK
6
CONTINUOUS
10
114.905
20
-166.482
11
114.714
21
-166.387
0
LINE
8
BLACK
6
CONTINUOUS
10
114.714
20
-166.387
11
114.619
21
-166.291
0
LINE
8
BLACK
6
CONTINUOUS
10
114.619
20
-166.291
11
114.524
21
-166.101
0
LINE
8
BLACK
6
CONTINUOUS
10
114.524
20
-166.101
11
114.429
21
-165.72
0
LINE
8
BLACK
6
CONTINUOUS
10
114.429
20
-165.72
11
114.429
21
-165.244
0
LINE
8
BLACK
6
CONTINUOUS
10
114.429
20
-165.244
11
114.524
21
-164.863
0
LINE
8
BLACK
6
CONTINUOUS
10
114.524
20
-164.863
11
114.619
21
-164.672
0
LINE
8
BLACK
6
CONTINUOUS
10
114.619
20
-164.672
11
114.714
21
-164.577
0
LINE
8
BLACK
6
CONTINUOUS
10
114.714
20
-164.577
11
114.905
21
-164.482
0
LINE
8
BLACK
6
CONTINUOUS
10
116.238
20
-164.482
11
117.476
21
-164.482
0
LINE
8
BLACK
6
CONTINUOUS
10
117.476
20
-164.482
11
116.81
21
-165.244
0
LINE
8
BLACK
6
CONTINUOUS
10
116.81
20
-165.244
11
117.095
21
-165.244
0
LINE
8
BLACK
6
CONTINUOUS
10
117.095
20
-165.244
11
117.286
21
-165.339
0
LINE
8
BLACK
6
CONTINUOUS
10
117.286
20
-165.339
11
117.381
21
-165.434
0
LINE
8
BLACK
6
CONTINUOUS
10
117.381
20
-165.434
11
117.476
21
-165.625
0
LINE
8
BLACK
6
CONTINUOUS
10
117.476
20
-165.625
11
117.476
21
-166.101
0
LINE
8
BLACK
6
CONTINUOUS
10
117.476
20
-166.101
11
117.381
21
-166.291
0
LINE
8
BLACK
6
CONTINUOUS
10
117.381
20
-166.291
11
117.286
21
-166.387
0
LINE
8
BLACK
6
CONTINUOUS
10
117.286
20
-166.387
11
117.095
21
-166.482
0
LINE
8
BLACK
6
CONTINUOUS
10
117.095
20
-166.482
11
116.524
21
-166.482
0
LINE
8
BLACK
6
CONTINUOUS
10
116.524
20
-166.482
11
116.333
21
-166.387
0
LINE
8
BLACK
6
CONTINUOUS
10
116.333
20
-166.387
11
116.238
21
-166.291
0
LINE
8
BLACK
6
CONTINUOUS
10
118.429
20
-166.482
11
118.81
21
-166.482
0
LINE
8
BLACK
6
CONTINUOUS
10
118.81
20
-166.482
11
119
21
-166.387
0
LINE
8
BLACK
6
CONTINUOUS
10
119
20
-166.387
11
119.095
21
-166.291
0
LINE
8
BLACK
6
CONTINUOUS
10
119.095
20
-166.291
11
119.286
21
-166.006
0
LINE
8
BLACK
6
CONTINUOUS
10
119.286
20
-166.006
11
119.381
21
-165.625
0
LINE
8
BLACK
6
CONTINUOUS
10
119.381
20
-165.625
11
119.381
21
-164.863
0
LINE
8
BLACK
6
CONTINUOUS
10
119.381
20
-164.863
11
119.286
21
-164.672
0
LINE
8
BLACK
6
CONTINUOUS
10
119.286
20
-164.672
11
119.191
21
-164.577
0
LINE
8
BLACK
6
CONTINUOUS
10
119.191
20
-164.577
11
119
21
-164.482
0
LINE
8
BLACK
6
CONTINUOUS
10
119
20
-164.482
11
118.619
21
-164.482
0
LINE
8
BLACK
6
CONTINUOUS
10
118.619
20
-164.482
11
118.429
21
-164.577
0
LINE
8
BLACK
6
CONTINUOUS
10
118.429
20
-164.577
11
118.333
21
-164.672
0
LINE
8
BLACK
6
CONTINUOUS
10
118.333
20
-164.672
11
118.238
21
-164.863
0
LINE
8
BLACK
6
CONTINUOUS
10
118.238
20
-164.863
11
118.238
21
-165.339
0
LINE
8
BLACK
6
CONTINUOUS
10
118.238
20
-165.339
11
118.333
21
-165.529
0
LINE
8
BLACK
6
CONTINUOUS
10
118.333
20
-165.529
11
118.429
21
-165.625
0
LINE
8
BLACK
6
CONTINUOUS
10
118.429
20
-165.625
11
118.619
21
-165.72
0
LINE
8
BLACK
6
CONTINUOUS
10
118.619
20
-165.72
11
119
21
-165.72
0
LINE
8
BLACK
6
CONTINUOUS
10
119
20
-165.72
11
119.191
21
-165.625
0
LINE
8
BLACK
6
CONTINUOUS
10
119.191
20
-165.625
11
119.286
21
-165.529
0
LINE
8
BLACK
6
CONTINUOUS
10
119.286
20
-165.529
11
119.381
21
-165.339
0
LINE
8
BLACK
6
CONTINUOUS
10
121.095
20
-165.148
11
121.095
21
-166.482
0
LINE
8
BLACK
6
CONTINUOUS
10
120.619
20
-164.387
11
120.143
21
-165.815
0
LINE
8
BLACK
6
CONTINUOUS
10
120.143
20
-165.815
11
121.381
21
-165.815
0
LINE
8
BLACK
6
CONTINUOUS
10
122.048
20
-164.482
11
122.048
21
-164.863
0
LINE
8
BLACK
6
CONTINUOUS
10
122.81
20
-164.482
11
122.81
21
-164.863
0
LINE
8
BLACK
6
CONTINUOUS
10
125.762
20
-167.244
11
125.667
21
-167.148
0
LINE
8
BLACK
6
CONTINUOUS
10
125.667
20
-167.148
11
125.476
21
-166.863
0
LINE
8
BLACK
6
CONTINUOUS
10
125.476
20
-166.863
11
125.381
21
-166.672
0
LINE
8
BLACK
6
CONTINUOUS
10
125.381
20
-166.672
11
125.286
21
-166.387
0
LINE
8
BLACK
6
CONTINUOUS
10
125.286
20
-166.387
11
125.191
21
-165.91
0
LINE
8
BLACK
6
CONTINUOUS
10
125.191
20
-165.91
11
125.191
21
-165.529
0
LINE
8
BLACK
6
CONTINUOUS
10
125.191
20
-165.529
11
125.286
21
-165.053
0
LINE
8
BLACK
6
CONTINUOUS
10
125.286
20
-165.053
11
125.381
21
-164.767
0
LINE
8
BLACK
6
CONTINUOUS
10
125.381
20
-164.767
11
125.476
21
-164.577
0
LINE
8
BLACK
6
CONTINUOUS
10
125.476
20
-164.577
11
125.667
21
-164.291
0
LINE
8
BLACK
6
CONTINUOUS
10
125.667
20
-164.291
11
125.762
21
-164.196
0
LINE
8
BLACK
6
CONTINUOUS
10
126.429
20
-164.672
11
126.524
21
-164.577
0
LINE
8
BLACK
6
CONTINUOUS
10
126.524
20
-164.577
11
126.714
21
-164.482
0
LINE
8
BLACK
6
CONTINUOUS
10
126.714
20
-164.482
11
127.191
21
-164.482
0
LINE
8
BLACK
6
CONTINUOUS
10
127.191
20
-164.482
11
127.381
21
-164.577
0
LINE
8
BLACK
6
CONTINUOUS
10
127.381
20
-164.577
11
127.476
21
-164.672
0
LINE
8
BLACK
6
CONTINUOUS
10
127.476
20
-164.672
11
127.572
21
-164.863
0
LINE
8
BLACK
6
CONTINUOUS
10
127.572
20
-164.863
11
127.572
21
-165.053
0
LINE
8
BLACK
6
CONTINUOUS
10
127.572
20
-165.053
11
127.476
21
-165.339
0
LINE
8
BLACK
6
CONTINUOUS
10
127.476
20
-165.339
11
126.333
21
-166.482
0
LINE
8
BLACK
6
CONTINUOUS
10
126.333
20
-166.482
11
127.572
21
-166.482
0
LINE
8
BLACK
6
CONTINUOUS
10
129.286
20
-165.148
11
129.286
21
-166.482
0
LINE
8
BLACK
6
CONTINUOUS
10
128.81
20
-164.387
11
128.333
21
-165.815
0
LINE
8
BLACK
6
CONTINUOUS
10
128.333
20
-165.815
11
129.572
21
-165.815
0
LINE
8
BLACK
6
CONTINUOUS
10
131.857
20
-166.482
11
131.857
21
-164.482
0
LINE
8
BLACK
6
CONTINUOUS
10
132.714
20
-166.482
11
132.714
21
-165.434
0
LINE
8
BLACK
6
CONTINUOUS
10
132.714
20
-165.434
11
132.619
21
-165.244
0
LINE
8
BLACK
6
CONTINUOUS
10
132.619
20
-165.244
11
132.429
21
-165.148
0
LINE
8
BLACK
6
CONTINUOUS
10
132.429
20
-165.148
11
132.143
21
-165.148
0
LINE
8
BLACK
6
CONTINUOUS
10
132.143
20
-165.148
11
131.953
21
-165.244
0
LINE
8
BLACK
6
CONTINUOUS
10
131.953
20
-165.244
11
131.857
21
-165.339
0
LINE
8
BLACK
6
CONTINUOUS
10
133.953
20
-166.482
11
133.762
21
-166.387
0
LINE
8
BLACK
6
CONTINUOUS
10
133.762
20
-166.387
11
133.667
21
-166.291
0
LINE
8
BLACK
6
CONTINUOUS
10
133.667
20
-166.291
11
133.572
21
-166.101
0
LINE
8
BLACK
6
CONTINUOUS
10
133.572
20
-166.101
11
133.572
21
-165.529
0
LINE
8
BLACK
6
CONTINUOUS
10
133.572
20
-165.529
11
133.667
21
-165.339
0
LINE
8
BLACK
6
CONTINUOUS
10
133.667
20
-165.339
11
133.762
21
-165.244
0
LINE
8
BLACK
6
CONTINUOUS
10
133.762
20
-165.244
11
133.953
21
-165.148
0
LINE
8
BLACK
6
CONTINUOUS
10
133.953
20
-165.148
11
134.238
21
-165.148
0
LINE
8
BLACK
6
CONTINUOUS
10
134.238
20
-165.148
11
134.429
21
-165.244
0
LINE
8
BLACK
6
CONTINUOUS
10
134.429
20
-165.244
11
134.524
21
-165.339
0
LINE
8
BLACK
6
CONTINUOUS
10
134.524
20
-165.339
11
134.619
21
-165.529
0
LINE
8
BLACK
6
CONTINUOUS
10
134.619
20
-165.529
11
134.619
21
-166.101
0
LINE
8
BLACK
6
CONTINUOUS
10
134.619
20
-166.101
11
134.524
21
-166.291
0
LINE
8
BLACK
6
CONTINUOUS
10
134.524
20
-166.291
11
134.429
21
-166.387
0
LINE
8
BLACK
6
CONTINUOUS
10
134.429
20
-166.387
11
134.238
21
-166.482
0
LINE
8
BLACK
6
CONTINUOUS
10
134.238
20
-166.482
11
133.953
21
-166.482
0
LINE
8
BLACK
6
CONTINUOUS
10
135.762
20
-166.482
11
135.572
21
-166.387
0
LINE
8
BLACK
6
CONTINUOUS
10
135.572
20
-166.387
11
135.476
21
-166.196
0
LINE
8
BLACK
6
CONTINUOUS
10
135.476
20
-166.196
11
135.476
21
-164.482
0
LINE
8
BLACK
6
CONTINUOUS
10
137.286
20
-166.387
11
137.095
21
-166.482
0
LINE
8
BLACK
6
CONTINUOUS
10
137.095
20
-166.482
11
136.714
21
-166.482
0
LINE
8
BLACK
6
CONTINUOUS
10
136.714
20
-166.482
11
136.524
21
-166.387
0
LINE
8
BLACK
6
CONTINUOUS
10
136.524
20
-166.387
11
136.429
21
-166.196
0
LINE
8
BLACK
6
CONTINUOUS
10
136.429
20
-166.196
11
136.429
21
-165.434
0
LINE
8
BLACK
6
CONTINUOUS
10
136.429
20
-165.434
11
136.524
21
-165.244
0
LINE
8
BLACK
6
CONTINUOUS
10
136.524
20
-165.244
11
136.714
21
-165.148
0
LINE
8
BLACK
6
CONTINUOUS
10
136.714
20
-165.148
11
137.095
21
-165.148
0
LINE
8
BLACK
6
CONTINUOUS
10
137.095
20
-165.148
11
137.286
21
-165.244
0
LINE
8
BLACK
6
CONTINUOUS
10
137.286
20
-165.244
11
137.381
21
-165.434
0
LINE
8
BLACK
6
CONTINUOUS
10
137.381
20
-165.434
11
137.381
21
-165.625
0
LINE
8
BLACK
6
CONTINUOUS
10
137.381
20
-165.625
11
136.429
21
-165.815
0
LINE
8
BLACK
6
CONTINUOUS
10
138.143
20
-166.387
11
138.333
21
-166.482
0
LINE
8
BLACK
6
CONTINUOUS
10
138.333
20
-166.482
11
138.714
21
-166.482
0
LINE
8
BLACK
6
CONTINUOUS
10
138.714
20
-166.482
11
138.905
21
-166.387
0
LINE
8
BLACK
6
CONTINUOUS
10
138.905
20
-166.387
11
139
21
-166.196
0
LINE
8
BLACK
6
CONTINUOUS
10
139
20
-166.196
11
139
21
-166.101
0
LINE
8
BLACK
6
CONTINUOUS
10
139
20
-166.101
11
138.905
21
-165.91
0
LINE
8
BLACK
6
CONTINUOUS
10
138.905
20
-165.91
11
138.714
21
-165.815
0
LINE
8
BLACK
6
CONTINUOUS
10
138.714
20
-165.815
11
138.429
21
-165.815
0
LINE
8
BLACK
6
CONTINUOUS
10
138.429
20
-165.815
11
138.238
21
-165.72
0
LINE
8
BLACK
6
CONTINUOUS
10
138.238
20
-165.72
11
138.143
21
-165.529
0
LINE
8
BLACK
6
CONTINUOUS
10
138.143
20
-165.529
11
138.143
21
-165.434
0
LINE
8
BLACK
6
CONTINUOUS
10
138.143
20
-165.434
11
138.238
21
-165.244
0
LINE
8
BLACK
6
CONTINUOUS
10
138.238
20
-165.244
11
138.429
21
-165.148
0
LINE
8
BLACK
6
CONTINUOUS
10
138.429
20
-165.148
11
138.714
21
-165.148
0
LINE
8
BLACK
6
CONTINUOUS
10
138.714
20
-165.148
11
138.905
21
-165.244
0
LINE
8
BLACK
6
CONTINUOUS
10
139.667
20
-167.244
11
139.762
21
-167.148
0
LINE
8
BLACK
6
CONTINUOUS
10
139.762
20
-167.148
11
139.953
21
-166.863
0
LINE
8
BLACK
6
CONTINUOUS
10
139.953
20
-166.863
11
140.048
21
-166.672
0
LINE
8
BLACK
6
CONTINUOUS
10
140.048
20
-166.672
11
140.143
21
-166.387
0
LINE
8
BLACK
6
CONTINUOUS
10
140.143
20
-166.387
11
140.238
21
-165.91
0
LINE
8
BLACK
6
CONTINUOUS
10
140.238
20
-165.91
11
140.238
21
-165.529
0
LINE
8
BLACK
6
CONTINUOUS
10
140.238
20
-165.529
11
140.143
21
-165.053
0
LINE
8
BLACK
6
CONTINUOUS
10
140.143
20
-165.053
11
140.048
21
-164.767
0
LINE
8
BLACK
6
CONTINUOUS
10
140.048
20
-164.767
11
139.953
21
-164.577
0
LINE
8
BLACK
6
CONTINUOUS
10
139.953
20
-164.577
11
139.762
21
-164.291
0
LINE
8
BLACK
6
CONTINUOUS
10
139.762
20
-164.291
11
139.667
21
-164.196
  0
ENDSEC
  0
EOF
