M48
; DRILL file {KiCad (6.0.7)} date Fri Feb  3 15:20:49 2023
; FORMAT={-:-/ absolute / inch / decimal}
; #@! TF.CreationDate,2023-02-03T15:20:49+01:00
; #@! TF.GenerationSoftware,Kicad,Pcbnew,(6.0.7)
; #@! TF.FileFunction,Plated,1,2,PTH
FMAT,2
INCH
; #@! TA.AperFunction,Plated,PTH,ViaDrill
T1C0.0118
; #@! TA.AperFunction,Plated,PTH,ComponentDrill
T2C0.0295
; #@! TA.AperFunction,Plated,PTH,ComponentDrill
T3C0.0315
; #@! TA.AperFunction,Plated,PTH,ComponentDrill
T4C0.0394
%
G90
G05
T1
X4.4094Y-3.9764
X4.4488Y-3.8386
X4.4587Y-2.9898
X4.4665Y-3.7764
X4.4976Y-3.6665
X4.539Y-3.498
X4.5429Y-3.5752
X4.57Y-3.22
X4.572Y-3.339
X4.6Y-3.25
X4.61Y-2.73
X4.628Y-2.948
X4.6425Y-3.1713
X4.676Y-3.0059
X4.7161Y-2.8547
X4.7272Y-2.913
T2
X3.9623Y-5.6428
X3.9623Y-5.6928
X3.9623Y-5.7428
X4.5Y-2.3958
X4.55Y-2.4458
X4.6Y-2.3958
X4.8Y-3.2
X4.85Y-3.25
X4.9Y-3.2
T3
X3.64Y-2.36
X3.69Y-5.07
X3.69Y-5.47
X3.7Y-2.82
X3.7024Y-2.66
X3.84Y-3.3024
X3.84Y-3.5976
X3.86Y-5.07
X3.86Y-5.47
X3.9953Y-2.82
X3.9976Y-2.66
X4.0Y-2.49
X4.04Y-2.36
X4.4Y-2.49
X4.55Y-2.6
X4.71Y-3.62
X4.71Y-4.02
X4.7124Y-3.46
X4.8453Y-2.6
X5.0076Y-3.46
T4
X3.69Y-3.0506
X3.69Y-3.1506
X3.69Y-3.2506
X4.0Y-3.15
X4.0Y-3.25
X4.0Y-3.35
X4.0Y-3.45
X4.0Y-3.55
X4.0Y-3.65
X4.0Y-3.75
X4.0Y-3.85
X4.0Y-3.95
X4.0Y-4.05
X4.0Y-4.15
X4.0Y-4.25
X4.0Y-4.35
X4.0Y-4.45
X4.0Y-4.55
X4.0Y-4.65
X4.0Y-4.75
X4.0Y-4.85
X4.0Y-4.95
X4.0Y-5.05
X4.0Y-5.15
T0
M30
