G04 #@! TF.GenerationSoftware,KiCad,Pcbnew,(6.0.7)*
G04 #@! TF.CreationDate,2022-11-05T23:49:30+01:00*
G04 #@! TF.ProjectId,vogelhuisje_camera_board,766f6765-6c68-4756-9973-6a655f63616d,rev?*
G04 #@! TF.SameCoordinates,Original*
G04 #@! TF.FileFunction,Soldermask,Top*
G04 #@! TF.FilePolarity,Negative*
%FSLAX46Y46*%
G04 Gerber Fmt 4.6, Leading zero omitted, Abs format (unit mm)*
G04 Created by KiCad (PCBNEW (6.0.7)) date 2022-11-05 23:49:30*
%MOMM*%
%LPD*%
G01*
G04 APERTURE LIST*
G04 Aperture macros list*
%AMRoundRect*
0 Rectangle with rounded corners*
0 $1 Rounding radius*
0 $2 $3 $4 $5 $6 $7 $8 $9 X,Y pos of 4 corners*
0 Add a 4 corners polygon primitive as box body*
4,1,4,$2,$3,$4,$5,$6,$7,$8,$9,$2,$3,0*
0 Add four circle primitives for the rounded corners*
1,1,$1+$1,$2,$3*
1,1,$1+$1,$4,$5*
1,1,$1+$1,$6,$7*
1,1,$1+$1,$8,$9*
0 Add four rect primitives between the rounded corners*
20,1,$1+$1,$2,$3,$4,$5,0*
20,1,$1+$1,$4,$5,$6,$7,0*
20,1,$1+$1,$6,$7,$8,$9,0*
20,1,$1+$1,$8,$9,$2,$3,0*%
G04 Aperture macros list end*
%ADD10C,1.600000*%
%ADD11O,1.600000X1.600000*%
%ADD12R,1.300000X1.300000*%
%ADD13C,1.300000*%
%ADD14R,1.700000X1.700000*%
%ADD15O,1.700000X1.700000*%
%ADD16RoundRect,0.625000X0.675000X0.625000X-0.675000X0.625000X-0.675000X-0.625000X0.675000X-0.625000X0*%
%ADD17R,1.500000X1.050000*%
%ADD18O,1.500000X1.050000*%
%ADD19R,1.800000X2.200000*%
%ADD20R,0.300000X1.300000*%
G04 APERTURE END LIST*
D10*
X117867500Y-114420000D03*
D11*
X117867500Y-121920000D03*
D10*
X104140000Y-67310000D03*
D11*
X104140000Y-59810000D03*
D10*
X92710000Y-58480000D03*
D11*
X92710000Y-65980000D03*
D10*
X119380000Y-67250000D03*
D11*
X119380000Y-59750000D03*
D10*
X93980000Y-81340000D03*
D11*
X93980000Y-88840000D03*
D10*
X114300000Y-58480000D03*
D11*
X114300000Y-65980000D03*
D10*
X109220000Y-59750000D03*
D11*
X109220000Y-67250000D03*
D12*
X127000000Y-119380000D03*
D13*
X125730000Y-120650000D03*
X124460000Y-119380000D03*
D12*
X95250000Y-74930000D03*
D13*
X93980000Y-76200000D03*
X92710000Y-74930000D03*
D14*
X93980000Y-93980000D03*
D15*
X93980000Y-96520000D03*
X93980000Y-99060000D03*
D14*
X101500000Y-127850000D03*
D15*
X101500000Y-125310000D03*
X101500000Y-122770000D03*
X101500000Y-120230000D03*
X101500000Y-117690000D03*
X101500000Y-115150000D03*
X101500000Y-112610000D03*
X101500000Y-110070000D03*
X101500000Y-107530000D03*
X101500000Y-104990000D03*
X101500000Y-102450000D03*
X101500000Y-99910000D03*
X101500000Y-97370000D03*
X101500000Y-94830000D03*
X101500000Y-92290000D03*
X101500000Y-89750000D03*
X101500000Y-87210000D03*
X101500000Y-84670000D03*
X101500000Y-82130000D03*
X101500000Y-79590000D03*
D16*
X123000000Y-147900000D03*
X123000000Y-143900000D03*
D17*
X101600000Y-147320000D03*
D18*
X101600000Y-146050000D03*
X101600000Y-144780000D03*
D10*
X101000000Y-141080000D03*
D11*
X101000000Y-130920000D03*
D10*
X104000000Y-130920000D03*
D11*
X104000000Y-141080000D03*
D16*
X107200000Y-136000000D03*
X107200000Y-132000000D03*
D19*
X122650000Y-74300000D03*
X107350000Y-74300000D03*
D20*
X120750000Y-71050000D03*
X120250000Y-71050000D03*
X119750000Y-71050000D03*
X119250000Y-71050000D03*
X118750000Y-71050000D03*
X118250000Y-71050000D03*
X117750000Y-71050000D03*
X117250000Y-71050000D03*
X116750000Y-71050000D03*
X116250000Y-71050000D03*
X115750000Y-71050000D03*
X115250000Y-71050000D03*
X114750000Y-71050000D03*
X114250000Y-71050000D03*
X113750000Y-71050000D03*
X113250000Y-71050000D03*
X112750000Y-71050000D03*
X112250000Y-71050000D03*
X111750000Y-71050000D03*
X111250000Y-71050000D03*
X110750000Y-71050000D03*
X110250000Y-71050000D03*
X109750000Y-71050000D03*
X109250000Y-71050000D03*
D10*
X98000000Y-130920000D03*
D11*
X98000000Y-141080000D03*
D16*
X123000000Y-136000000D03*
X123000000Y-132000000D03*
X107000000Y-147900000D03*
X107000000Y-143900000D03*
M02*
