G04 #@! TF.GenerationSoftware,KiCad,Pcbnew,(6.0.7)*
G04 #@! TF.CreationDate,2022-11-05T23:49:30+01:00*
G04 #@! TF.ProjectId,vogelhuisje_camera_board,766f6765-6c68-4756-9973-6a655f63616d,rev?*
G04 #@! TF.SameCoordinates,Original*
G04 #@! TF.FileFunction,Copper,L2,Bot*
G04 #@! TF.FilePolarity,Positive*
%FSLAX46Y46*%
G04 Gerber Fmt 4.6, Leading zero omitted, Abs format (unit mm)*
G04 Created by KiCad (PCBNEW (6.0.7)) date 2022-11-05 23:49:30*
%MOMM*%
%LPD*%
G01*
G04 APERTURE LIST*
G04 #@! TA.AperFunction,ComponentPad*
%ADD10C,1.600000*%
G04 #@! TD*
G04 #@! TA.AperFunction,ComponentPad*
%ADD11O,1.600000X1.600000*%
G04 #@! TD*
G04 #@! TA.AperFunction,ComponentPad*
%ADD12R,1.300000X1.300000*%
G04 #@! TD*
G04 #@! TA.AperFunction,ComponentPad*
%ADD13C,1.300000*%
G04 #@! TD*
G04 #@! TA.AperFunction,ComponentPad*
%ADD14R,1.700000X1.700000*%
G04 #@! TD*
G04 #@! TA.AperFunction,ComponentPad*
%ADD15O,1.700000X1.700000*%
G04 #@! TD*
G04 #@! TA.AperFunction,ComponentPad*
%ADD16R,1.500000X1.050000*%
G04 #@! TD*
G04 #@! TA.AperFunction,ComponentPad*
%ADD17O,1.500000X1.050000*%
G04 #@! TD*
G04 #@! TA.AperFunction,ViaPad*
%ADD18C,0.600000*%
G04 #@! TD*
G04 #@! TA.AperFunction,ViaPad*
%ADD19C,0.900000*%
G04 #@! TD*
G04 #@! TA.AperFunction,Conductor*
%ADD20C,0.127000*%
G04 #@! TD*
G04 #@! TA.AperFunction,Conductor*
%ADD21C,0.200000*%
G04 #@! TD*
G04 #@! TA.AperFunction,Conductor*
%ADD22C,0.600000*%
G04 #@! TD*
G04 #@! TA.AperFunction,Conductor*
%ADD23C,0.150000*%
G04 #@! TD*
G04 APERTURE END LIST*
D10*
X117867500Y-114420000D03*
D11*
X117867500Y-121920000D03*
D10*
X104140000Y-67310000D03*
D11*
X104140000Y-59810000D03*
D10*
X92710000Y-58480000D03*
D11*
X92710000Y-65980000D03*
D10*
X119380000Y-67250000D03*
D11*
X119380000Y-59750000D03*
D10*
X93980000Y-81340000D03*
D11*
X93980000Y-88840000D03*
D10*
X114300000Y-58480000D03*
D11*
X114300000Y-65980000D03*
D10*
X109220000Y-59750000D03*
D11*
X109220000Y-67250000D03*
D12*
X127000000Y-119380000D03*
D13*
X125730000Y-120650000D03*
X124460000Y-119380000D03*
D12*
X95250000Y-74930000D03*
D13*
X93980000Y-76200000D03*
X92710000Y-74930000D03*
D14*
X93980000Y-93980000D03*
D15*
X93980000Y-96520000D03*
X93980000Y-99060000D03*
D14*
X101500000Y-127850000D03*
D15*
X101500000Y-125310000D03*
X101500000Y-122770000D03*
X101500000Y-120230000D03*
X101500000Y-117690000D03*
X101500000Y-115150000D03*
X101500000Y-112610000D03*
X101500000Y-110070000D03*
X101500000Y-107530000D03*
X101500000Y-104990000D03*
X101500000Y-102450000D03*
X101500000Y-99910000D03*
X101500000Y-97370000D03*
X101500000Y-94830000D03*
X101500000Y-92290000D03*
X101500000Y-89750000D03*
X101500000Y-87210000D03*
X101500000Y-84670000D03*
X101500000Y-82130000D03*
X101500000Y-79590000D03*
D16*
X101600000Y-147320000D03*
D17*
X101600000Y-146050000D03*
X101600000Y-144780000D03*
D10*
X101000000Y-141080000D03*
D11*
X101000000Y-130920000D03*
D10*
X104000000Y-130920000D03*
D11*
X104000000Y-141080000D03*
D10*
X98000000Y-130920000D03*
D11*
X98000000Y-141080000D03*
D18*
X125730000Y-67310000D03*
X119380000Y-69850000D03*
X115750000Y-68890000D03*
X99060000Y-76200000D03*
D19*
X104930000Y-110560000D03*
D18*
X98490000Y-70120000D03*
D19*
X105240000Y-118040000D03*
D18*
X113250000Y-75940000D03*
X108680000Y-69380000D03*
X118340000Y-69460000D03*
X116130000Y-72800000D03*
X112000000Y-101000000D03*
X113000000Y-97500000D03*
X113450000Y-95920000D03*
X114240000Y-93130000D03*
X115390000Y-90810000D03*
X115290000Y-88850000D03*
X116130000Y-84810000D03*
X117920000Y-80550000D03*
X118770000Y-76350000D03*
X120070000Y-73990000D03*
X119790000Y-72510000D03*
X117550000Y-74880000D03*
D20*
X124460000Y-67310000D02*
X121920000Y-67310000D01*
X125730000Y-67310000D02*
X124460000Y-67310000D01*
X121920000Y-67310000D02*
X119380000Y-69850000D01*
X127000000Y-121383943D02*
X127000000Y-119380000D01*
X126463943Y-121920000D02*
X127000000Y-121383943D01*
X117867500Y-121920000D02*
X126463943Y-121920000D01*
X106580000Y-119380000D02*
X105240000Y-118040000D01*
X124460000Y-119380000D02*
X106580000Y-119380000D01*
X97790000Y-144290000D02*
X101000000Y-141080000D01*
X97790000Y-146050000D02*
X97790000Y-144290000D01*
X99060000Y-147320000D02*
X97790000Y-146050000D01*
X101600000Y-147320000D02*
X99060000Y-147320000D01*
X91440000Y-96520000D02*
X93980000Y-99060000D01*
X91440000Y-91380000D02*
X91440000Y-96520000D01*
X93980000Y-88840000D02*
X91440000Y-91380000D01*
X96520000Y-86300000D02*
X93980000Y-88840000D01*
X96520000Y-78740000D02*
X96520000Y-86300000D01*
X95250000Y-77470000D02*
X96520000Y-78740000D01*
X95250000Y-74930000D02*
X95250000Y-77470000D01*
X95250000Y-68520000D02*
X95250000Y-63500000D01*
X95250000Y-63500000D02*
X98940000Y-59810000D01*
X98940000Y-59810000D02*
X104140000Y-59810000D01*
X95250000Y-68520000D02*
X92710000Y-65980000D01*
X95250000Y-74930000D02*
X95250000Y-68520000D01*
X115600000Y-68740000D02*
X115750000Y-68890000D01*
X99870000Y-68740000D02*
X115600000Y-68740000D01*
X98490000Y-70120000D02*
X99870000Y-68740000D01*
X103860000Y-76200000D02*
X105580000Y-74480000D01*
X99060000Y-76200000D02*
X103860000Y-76200000D01*
D21*
X105240000Y-110870000D02*
X104930000Y-110560000D01*
X105240000Y-118040000D02*
X105240000Y-110870000D01*
D20*
X107060000Y-82130000D02*
X101500000Y-82130000D01*
X113250000Y-75940000D02*
X107060000Y-82130000D01*
X118260000Y-69380000D02*
X108680000Y-69380000D01*
X118340000Y-69460000D02*
X118260000Y-69380000D01*
X116130000Y-72800000D02*
X114450000Y-74480000D01*
X114450000Y-74480000D02*
X105580000Y-74480000D01*
D22*
X104000000Y-127000000D02*
X102310000Y-125310000D01*
X102310000Y-125310000D02*
X101500000Y-125310000D01*
X104000000Y-130920000D02*
X104000000Y-127000000D01*
D23*
X98000000Y-124000000D02*
X98000000Y-130920000D01*
X101500000Y-122770000D02*
X99230000Y-122770000D01*
X99230000Y-122770000D02*
X98000000Y-124000000D01*
D20*
X112000000Y-102110000D02*
X101500000Y-112610000D01*
X112000000Y-101000000D02*
X112000000Y-102110000D01*
X111000000Y-101000000D02*
X101930000Y-110070000D01*
X111000000Y-99500000D02*
X111000000Y-101000000D01*
X113000000Y-97500000D02*
X111000000Y-99500000D01*
X101930000Y-110070000D02*
X101500000Y-110070000D01*
X101840000Y-107530000D02*
X101500000Y-107530000D01*
X113450000Y-95920000D02*
X101840000Y-107530000D01*
X114210000Y-93130000D02*
X102350000Y-104990000D01*
X102350000Y-104990000D02*
X101500000Y-104990000D01*
X114240000Y-93130000D02*
X114210000Y-93130000D01*
D23*
X103750000Y-102450000D02*
X101500000Y-102450000D01*
X115390000Y-90810000D02*
X103750000Y-102450000D01*
X115290000Y-88850000D02*
X104230000Y-99910000D01*
X104230000Y-99910000D02*
X101500000Y-99910000D01*
X103570000Y-97370000D02*
X101500000Y-97370000D01*
X116130000Y-84810000D02*
X103570000Y-97370000D01*
X117920000Y-80550000D02*
X115780000Y-80550000D01*
X115780000Y-80550000D02*
X101500000Y-94830000D01*
X118770000Y-76350000D02*
X102830000Y-92290000D01*
X102830000Y-92290000D02*
X101500000Y-92290000D01*
X104310000Y-89750000D02*
X101500000Y-89750000D01*
X120070000Y-73990000D02*
X104310000Y-89750000D01*
D21*
X119790000Y-73110000D02*
X118380000Y-74520000D01*
X118380000Y-74520000D02*
X118380000Y-74990000D01*
X118380000Y-74990000D02*
X106160000Y-87210000D01*
X119790000Y-72510000D02*
X119790000Y-73110000D01*
X106160000Y-87210000D02*
X101500000Y-87210000D01*
D23*
X107760000Y-84670000D02*
X101500000Y-84670000D01*
X117550000Y-74880000D02*
X107760000Y-84670000D01*
G04 #@! TA.AperFunction,Conductor*
G36*
X129471621Y-55910502D02*
G01*
X129518114Y-55964158D01*
X129529500Y-56016500D01*
X129529500Y-150993500D01*
X129509498Y-151061621D01*
X129455842Y-151108114D01*
X129403500Y-151119500D01*
X90306500Y-151119500D01*
X90238379Y-151099498D01*
X90191886Y-151045842D01*
X90180500Y-150993500D01*
X90180500Y-147889669D01*
X100342001Y-147889669D01*
X100342371Y-147896490D01*
X100347895Y-147947352D01*
X100351521Y-147962604D01*
X100396676Y-148083054D01*
X100405214Y-148098649D01*
X100481715Y-148200724D01*
X100494276Y-148213285D01*
X100596351Y-148289786D01*
X100611946Y-148298324D01*
X100732394Y-148343478D01*
X100747649Y-148347105D01*
X100798514Y-148352631D01*
X100805328Y-148353000D01*
X101327885Y-148353000D01*
X101343124Y-148348525D01*
X101344329Y-148347135D01*
X101346000Y-148339452D01*
X101346000Y-148334884D01*
X101854000Y-148334884D01*
X101858475Y-148350123D01*
X101859865Y-148351328D01*
X101867548Y-148352999D01*
X102394669Y-148352999D01*
X102401490Y-148352629D01*
X102452352Y-148347105D01*
X102467604Y-148343479D01*
X102588054Y-148298324D01*
X102603649Y-148289786D01*
X102705724Y-148213285D01*
X102718285Y-148200724D01*
X102794786Y-148098649D01*
X102803324Y-148083054D01*
X102848478Y-147962606D01*
X102852105Y-147947351D01*
X102857631Y-147896486D01*
X102858000Y-147889672D01*
X102858000Y-147592115D01*
X102853525Y-147576876D01*
X102852135Y-147575671D01*
X102844452Y-147574000D01*
X101872115Y-147574000D01*
X101856876Y-147578475D01*
X101855671Y-147579865D01*
X101854000Y-147587548D01*
X101854000Y-148334884D01*
X101346000Y-148334884D01*
X101346000Y-147592115D01*
X101341525Y-147576876D01*
X101340135Y-147575671D01*
X101332452Y-147574000D01*
X100360116Y-147574000D01*
X100344877Y-147578475D01*
X100343672Y-147579865D01*
X100342001Y-147587548D01*
X100342001Y-147889669D01*
X90180500Y-147889669D01*
X90180500Y-147047885D01*
X100342000Y-147047885D01*
X100346475Y-147063124D01*
X100347865Y-147064329D01*
X100355548Y-147066000D01*
X102839884Y-147066000D01*
X102855123Y-147061525D01*
X102856328Y-147060135D01*
X102857999Y-147052452D01*
X102857999Y-146750331D01*
X102857629Y-146743510D01*
X102852105Y-146692648D01*
X102848479Y-146677396D01*
X102803324Y-146556946D01*
X102794786Y-146541351D01*
X102718285Y-146439276D01*
X102705724Y-146426715D01*
X102603649Y-146350214D01*
X102588050Y-146341674D01*
X102543369Y-146324923D01*
X102486605Y-146282281D01*
X102461906Y-146215719D01*
X102463832Y-146183333D01*
X102479903Y-146099083D01*
X102479903Y-146099080D01*
X102481388Y-146091296D01*
X102471037Y-145926762D01*
X102420092Y-145769971D01*
X102331756Y-145630775D01*
X102211578Y-145517921D01*
X102204886Y-145514242D01*
X102161612Y-145458119D01*
X102155538Y-145387383D01*
X102188672Y-145324592D01*
X102204966Y-145310473D01*
X102268807Y-145264089D01*
X102275217Y-145259432D01*
X102380303Y-145132406D01*
X102450497Y-144983236D01*
X102481388Y-144821296D01*
X102471037Y-144656762D01*
X102420092Y-144499971D01*
X102331756Y-144360775D01*
X102211578Y-144247921D01*
X102067110Y-144168499D01*
X101907430Y-144127500D01*
X101333948Y-144127500D01*
X101286699Y-144133469D01*
X101219305Y-144141982D01*
X101219302Y-144141983D01*
X101211440Y-144142976D01*
X101058157Y-144203665D01*
X101051746Y-144208323D01*
X101051744Y-144208324D01*
X100989778Y-144253346D01*
X100924783Y-144300568D01*
X100819697Y-144427594D01*
X100749503Y-144576764D01*
X100718612Y-144738704D01*
X100728963Y-144903238D01*
X100779908Y-145060029D01*
X100868244Y-145199225D01*
X100988422Y-145312079D01*
X100995114Y-145315758D01*
X101038388Y-145371881D01*
X101044462Y-145442617D01*
X101011328Y-145505408D01*
X100995033Y-145519527D01*
X100924783Y-145570568D01*
X100819697Y-145697594D01*
X100749503Y-145846764D01*
X100718612Y-146008704D01*
X100728963Y-146173238D01*
X100731412Y-146180775D01*
X100732185Y-146184827D01*
X100725302Y-146255489D01*
X100681308Y-146311212D01*
X100652646Y-146326418D01*
X100611948Y-146341675D01*
X100596351Y-146350214D01*
X100494276Y-146426715D01*
X100481715Y-146439276D01*
X100405214Y-146541351D01*
X100396676Y-146556946D01*
X100351522Y-146677394D01*
X100347895Y-146692649D01*
X100342369Y-146743514D01*
X100342000Y-146750328D01*
X100342000Y-147047885D01*
X90180500Y-147047885D01*
X90180500Y-142166062D01*
X100278493Y-142166062D01*
X100287789Y-142178077D01*
X100338994Y-142213931D01*
X100348489Y-142219414D01*
X100545947Y-142311490D01*
X100556239Y-142315236D01*
X100766688Y-142371625D01*
X100777481Y-142373528D01*
X100994525Y-142392517D01*
X101005475Y-142392517D01*
X101222519Y-142373528D01*
X101233312Y-142371625D01*
X101443761Y-142315236D01*
X101454053Y-142311490D01*
X101651511Y-142219414D01*
X101661006Y-142213931D01*
X101713048Y-142177491D01*
X101721424Y-142167012D01*
X101714356Y-142153566D01*
X101012812Y-141452022D01*
X100998868Y-141444408D01*
X100997035Y-141444539D01*
X100990420Y-141448790D01*
X100284923Y-142154287D01*
X100278493Y-142166062D01*
X90180500Y-142166062D01*
X90180500Y-141080000D01*
X97067391Y-141080000D01*
X97087771Y-141273900D01*
X97148019Y-141459326D01*
X97245503Y-141628174D01*
X97249921Y-141633081D01*
X97249922Y-141633082D01*
X97347098Y-141741006D01*
X97375963Y-141773064D01*
X97533695Y-141887663D01*
X97539723Y-141890347D01*
X97539725Y-141890348D01*
X97705777Y-141964279D01*
X97711808Y-141966964D01*
X97807162Y-141987232D01*
X97896059Y-142006128D01*
X97896063Y-142006128D01*
X97902516Y-142007500D01*
X98097484Y-142007500D01*
X98103937Y-142006128D01*
X98103941Y-142006128D01*
X98192838Y-141987232D01*
X98288192Y-141966964D01*
X98294223Y-141964279D01*
X98460275Y-141890348D01*
X98460277Y-141890347D01*
X98466305Y-141887663D01*
X98624037Y-141773064D01*
X98652903Y-141741006D01*
X98750078Y-141633082D01*
X98750079Y-141633081D01*
X98754497Y-141628174D01*
X98851981Y-141459326D01*
X98912229Y-141273900D01*
X98932034Y-141085475D01*
X99687483Y-141085475D01*
X99706472Y-141302519D01*
X99708375Y-141313312D01*
X99764764Y-141523761D01*
X99768510Y-141534053D01*
X99860586Y-141731511D01*
X99866069Y-141741006D01*
X99902509Y-141793048D01*
X99912988Y-141801424D01*
X99926434Y-141794356D01*
X100627978Y-141092812D01*
X100634356Y-141081132D01*
X101364408Y-141081132D01*
X101364539Y-141082965D01*
X101368790Y-141089580D01*
X102074287Y-141795077D01*
X102086062Y-141801507D01*
X102098077Y-141792211D01*
X102133931Y-141741006D01*
X102139414Y-141731511D01*
X102231490Y-141534053D01*
X102235236Y-141523761D01*
X102291625Y-141313312D01*
X102293528Y-141302519D01*
X102312517Y-141085475D01*
X102312517Y-141080000D01*
X103067391Y-141080000D01*
X103087771Y-141273900D01*
X103148019Y-141459326D01*
X103245503Y-141628174D01*
X103249921Y-141633081D01*
X103249922Y-141633082D01*
X103347098Y-141741006D01*
X103375963Y-141773064D01*
X103533695Y-141887663D01*
X103539723Y-141890347D01*
X103539725Y-141890348D01*
X103705777Y-141964279D01*
X103711808Y-141966964D01*
X103807162Y-141987232D01*
X103896059Y-142006128D01*
X103896063Y-142006128D01*
X103902516Y-142007500D01*
X104097484Y-142007500D01*
X104103937Y-142006128D01*
X104103941Y-142006128D01*
X104192838Y-141987232D01*
X104288192Y-141966964D01*
X104294223Y-141964279D01*
X104460275Y-141890348D01*
X104460277Y-141890347D01*
X104466305Y-141887663D01*
X104624037Y-141773064D01*
X104652903Y-141741006D01*
X104750078Y-141633082D01*
X104750079Y-141633081D01*
X104754497Y-141628174D01*
X104851981Y-141459326D01*
X104912229Y-141273900D01*
X104932609Y-141080000D01*
X104912229Y-140886100D01*
X104851981Y-140700674D01*
X104754497Y-140531826D01*
X104661452Y-140428489D01*
X104628452Y-140391839D01*
X104628450Y-140391838D01*
X104624037Y-140386936D01*
X104466305Y-140272337D01*
X104460277Y-140269653D01*
X104460275Y-140269652D01*
X104294223Y-140195721D01*
X104294222Y-140195721D01*
X104288192Y-140193036D01*
X104192838Y-140172768D01*
X104103941Y-140153872D01*
X104103937Y-140153872D01*
X104097484Y-140152500D01*
X103902516Y-140152500D01*
X103896063Y-140153872D01*
X103896059Y-140153872D01*
X103807162Y-140172768D01*
X103711808Y-140193036D01*
X103705779Y-140195720D01*
X103705777Y-140195721D01*
X103539726Y-140269652D01*
X103539724Y-140269653D01*
X103533696Y-140272337D01*
X103375963Y-140386936D01*
X103371550Y-140391838D01*
X103371548Y-140391839D01*
X103338548Y-140428489D01*
X103245503Y-140531826D01*
X103148019Y-140700674D01*
X103087771Y-140886100D01*
X103067391Y-141080000D01*
X102312517Y-141080000D01*
X102312517Y-141074525D01*
X102293528Y-140857481D01*
X102291625Y-140846688D01*
X102235236Y-140636239D01*
X102231490Y-140625947D01*
X102139414Y-140428489D01*
X102133931Y-140418994D01*
X102097491Y-140366952D01*
X102087012Y-140358576D01*
X102073566Y-140365644D01*
X101372022Y-141067188D01*
X101364408Y-141081132D01*
X100634356Y-141081132D01*
X100635592Y-141078868D01*
X100635461Y-141077035D01*
X100631210Y-141070420D01*
X99925713Y-140364923D01*
X99913938Y-140358493D01*
X99901923Y-140367789D01*
X99866069Y-140418994D01*
X99860586Y-140428489D01*
X99768510Y-140625947D01*
X99764764Y-140636239D01*
X99708375Y-140846688D01*
X99706472Y-140857481D01*
X99687483Y-141074525D01*
X99687483Y-141085475D01*
X98932034Y-141085475D01*
X98932609Y-141080000D01*
X98912229Y-140886100D01*
X98851981Y-140700674D01*
X98754497Y-140531826D01*
X98661452Y-140428489D01*
X98628452Y-140391839D01*
X98628450Y-140391838D01*
X98624037Y-140386936D01*
X98466305Y-140272337D01*
X98460277Y-140269653D01*
X98460275Y-140269652D01*
X98294223Y-140195721D01*
X98294222Y-140195721D01*
X98288192Y-140193036D01*
X98192838Y-140172768D01*
X98103941Y-140153872D01*
X98103937Y-140153872D01*
X98097484Y-140152500D01*
X97902516Y-140152500D01*
X97896063Y-140153872D01*
X97896059Y-140153872D01*
X97807162Y-140172768D01*
X97711808Y-140193036D01*
X97705779Y-140195720D01*
X97705777Y-140195721D01*
X97539726Y-140269652D01*
X97539724Y-140269653D01*
X97533696Y-140272337D01*
X97375963Y-140386936D01*
X97371550Y-140391838D01*
X97371548Y-140391839D01*
X97338548Y-140428489D01*
X97245503Y-140531826D01*
X97148019Y-140700674D01*
X97087771Y-140886100D01*
X97067391Y-141080000D01*
X90180500Y-141080000D01*
X90180500Y-139992988D01*
X100278576Y-139992988D01*
X100285644Y-140006434D01*
X100987188Y-140707978D01*
X101001132Y-140715592D01*
X101002965Y-140715461D01*
X101009580Y-140711210D01*
X101715077Y-140005713D01*
X101721507Y-139993938D01*
X101712211Y-139981923D01*
X101661006Y-139946069D01*
X101651511Y-139940586D01*
X101454053Y-139848510D01*
X101443761Y-139844764D01*
X101233312Y-139788375D01*
X101222519Y-139786472D01*
X101005475Y-139767483D01*
X100994525Y-139767483D01*
X100777481Y-139786472D01*
X100766688Y-139788375D01*
X100556239Y-139844764D01*
X100545947Y-139848510D01*
X100348489Y-139940586D01*
X100338994Y-139946069D01*
X100286952Y-139982509D01*
X100278576Y-139992988D01*
X90180500Y-139992988D01*
X90180500Y-130920000D01*
X97067391Y-130920000D01*
X97087771Y-131113900D01*
X97148019Y-131299326D01*
X97245503Y-131468174D01*
X97375963Y-131613064D01*
X97533695Y-131727663D01*
X97539723Y-131730347D01*
X97539725Y-131730348D01*
X97705777Y-131804279D01*
X97711808Y-131806964D01*
X97807162Y-131827232D01*
X97896059Y-131846128D01*
X97896063Y-131846128D01*
X97902516Y-131847500D01*
X98097484Y-131847500D01*
X98103937Y-131846128D01*
X98103941Y-131846128D01*
X98192838Y-131827232D01*
X98288192Y-131806964D01*
X98294223Y-131804279D01*
X98460275Y-131730348D01*
X98460277Y-131730347D01*
X98466305Y-131727663D01*
X98624037Y-131613064D01*
X98754497Y-131468174D01*
X98851981Y-131299326D01*
X98912229Y-131113900D01*
X98932609Y-130920000D01*
X100067391Y-130920000D01*
X100087771Y-131113900D01*
X100148019Y-131299326D01*
X100245503Y-131468174D01*
X100375963Y-131613064D01*
X100533695Y-131727663D01*
X100539723Y-131730347D01*
X100539725Y-131730348D01*
X100705777Y-131804279D01*
X100711808Y-131806964D01*
X100807162Y-131827232D01*
X100896059Y-131846128D01*
X100896063Y-131846128D01*
X100902516Y-131847500D01*
X101097484Y-131847500D01*
X101103937Y-131846128D01*
X101103941Y-131846128D01*
X101192838Y-131827232D01*
X101288192Y-131806964D01*
X101294223Y-131804279D01*
X101460275Y-131730348D01*
X101460277Y-131730347D01*
X101466305Y-131727663D01*
X101624037Y-131613064D01*
X101754497Y-131468174D01*
X101851981Y-131299326D01*
X101912229Y-131113900D01*
X101932609Y-130920000D01*
X101912229Y-130726100D01*
X101851981Y-130540674D01*
X101754497Y-130371826D01*
X101624037Y-130226936D01*
X101479440Y-130121880D01*
X101471647Y-130116218D01*
X101471646Y-130116217D01*
X101466305Y-130112337D01*
X101460277Y-130109653D01*
X101460275Y-130109652D01*
X101294223Y-130035721D01*
X101294222Y-130035721D01*
X101288192Y-130033036D01*
X101192838Y-130012768D01*
X101103941Y-129993872D01*
X101103937Y-129993872D01*
X101097484Y-129992500D01*
X100902516Y-129992500D01*
X100896063Y-129993872D01*
X100896059Y-129993872D01*
X100807162Y-130012768D01*
X100711808Y-130033036D01*
X100705779Y-130035720D01*
X100705777Y-130035721D01*
X100539726Y-130109652D01*
X100539724Y-130109653D01*
X100533696Y-130112337D01*
X100375963Y-130226936D01*
X100245503Y-130371826D01*
X100148019Y-130540674D01*
X100087771Y-130726100D01*
X100067391Y-130920000D01*
X98932609Y-130920000D01*
X98912229Y-130726100D01*
X98851981Y-130540674D01*
X98754497Y-130371826D01*
X98624037Y-130226936D01*
X98479440Y-130121880D01*
X98471647Y-130116218D01*
X98471646Y-130116217D01*
X98466305Y-130112337D01*
X98460277Y-130109653D01*
X98460275Y-130109652D01*
X98294223Y-130035721D01*
X98294222Y-130035721D01*
X98288192Y-130033036D01*
X98287696Y-130032931D01*
X98230958Y-129994133D01*
X98203321Y-129928736D01*
X98202500Y-129914374D01*
X98202500Y-128712558D01*
X100522500Y-128712558D01*
X100529898Y-128749748D01*
X100558078Y-128791922D01*
X100600252Y-128820102D01*
X100612422Y-128822523D01*
X100631377Y-128826294D01*
X100631382Y-128826294D01*
X100637442Y-128827500D01*
X102362558Y-128827500D01*
X102368618Y-128826294D01*
X102368623Y-128826294D01*
X102387578Y-128822523D01*
X102399748Y-128820102D01*
X102441922Y-128791922D01*
X102470102Y-128749748D01*
X102477500Y-128712558D01*
X102477500Y-126987442D01*
X102470102Y-126950252D01*
X102441922Y-126908078D01*
X102399748Y-126879898D01*
X102385180Y-126877000D01*
X102368623Y-126873706D01*
X102368618Y-126873706D01*
X102362558Y-126872500D01*
X100637442Y-126872500D01*
X100631382Y-126873706D01*
X100631377Y-126873706D01*
X100614820Y-126877000D01*
X100600252Y-126879898D01*
X100558078Y-126908078D01*
X100529898Y-126950252D01*
X100522500Y-126987442D01*
X100522500Y-128712558D01*
X98202500Y-128712558D01*
X98202500Y-125296286D01*
X100517866Y-125296286D01*
X100533907Y-125487311D01*
X100586746Y-125671583D01*
X100674370Y-125842082D01*
X100678193Y-125846906D01*
X100678196Y-125846910D01*
X100765330Y-125956844D01*
X100793443Y-125992314D01*
X100939428Y-126116557D01*
X101106765Y-126210079D01*
X101289081Y-126269317D01*
X101479430Y-126292015D01*
X101485565Y-126291543D01*
X101485567Y-126291543D01*
X101664420Y-126277781D01*
X101664424Y-126277780D01*
X101670562Y-126277308D01*
X101855199Y-126225756D01*
X102026305Y-126139324D01*
X102051600Y-126119562D01*
X102172509Y-126025097D01*
X102177365Y-126021303D01*
X102199660Y-125995474D01*
X102259314Y-125956978D01*
X102330310Y-125956844D01*
X102384135Y-125988712D01*
X103535595Y-127140171D01*
X103569620Y-127202483D01*
X103572500Y-127229266D01*
X103572500Y-130019944D01*
X103552498Y-130088065D01*
X103520562Y-130121879D01*
X103375963Y-130226936D01*
X103245503Y-130371826D01*
X103148019Y-130540674D01*
X103087771Y-130726100D01*
X103067391Y-130920000D01*
X103087771Y-131113900D01*
X103148019Y-131299326D01*
X103245503Y-131468174D01*
X103375963Y-131613064D01*
X103533695Y-131727663D01*
X103539723Y-131730347D01*
X103539725Y-131730348D01*
X103705777Y-131804279D01*
X103711808Y-131806964D01*
X103807162Y-131827232D01*
X103896059Y-131846128D01*
X103896063Y-131846128D01*
X103902516Y-131847500D01*
X104097484Y-131847500D01*
X104103937Y-131846128D01*
X104103941Y-131846128D01*
X104192838Y-131827232D01*
X104288192Y-131806964D01*
X104294223Y-131804279D01*
X104460275Y-131730348D01*
X104460277Y-131730347D01*
X104466305Y-131727663D01*
X104624037Y-131613064D01*
X104754497Y-131468174D01*
X104851981Y-131299326D01*
X104912229Y-131113900D01*
X104932609Y-130920000D01*
X104912229Y-130726100D01*
X104851981Y-130540674D01*
X104754497Y-130371826D01*
X104624037Y-130226936D01*
X104479440Y-130121880D01*
X104479439Y-130121879D01*
X104436085Y-130065657D01*
X104427500Y-130019943D01*
X104427500Y-127032854D01*
X104428373Y-127018044D01*
X104431009Y-126995773D01*
X104432116Y-126986421D01*
X104422129Y-126931739D01*
X104421479Y-126927833D01*
X104414617Y-126882192D01*
X104413217Y-126872878D01*
X104410251Y-126866701D01*
X104409020Y-126859961D01*
X104383399Y-126810640D01*
X104381631Y-126807100D01*
X104361648Y-126765485D01*
X104361647Y-126765484D01*
X104357571Y-126756995D01*
X104352918Y-126751961D01*
X104349761Y-126745884D01*
X104345673Y-126741096D01*
X104310427Y-126705850D01*
X104306997Y-126702284D01*
X104276702Y-126669510D01*
X104276699Y-126669508D01*
X104270311Y-126662597D01*
X104264210Y-126659054D01*
X104258651Y-126654074D01*
X103451487Y-125846910D01*
X102635522Y-125030946D01*
X102625667Y-125019857D01*
X102611781Y-125002243D01*
X102605950Y-124994846D01*
X102598203Y-124989491D01*
X102598201Y-124989490D01*
X102560222Y-124963242D01*
X102557043Y-124960971D01*
X102512300Y-124927923D01*
X102505834Y-124925652D01*
X102500198Y-124921757D01*
X102482012Y-124916005D01*
X102447209Y-124904998D01*
X102443461Y-124903748D01*
X102439819Y-124902469D01*
X102425525Y-124897450D01*
X102367880Y-124856010D01*
X102356023Y-124837727D01*
X102318120Y-124766442D01*
X102196962Y-124617887D01*
X102133081Y-124565040D01*
X102054006Y-124499623D01*
X102054002Y-124499621D01*
X102049256Y-124495694D01*
X101880629Y-124404518D01*
X101789067Y-124376175D01*
X101703392Y-124349654D01*
X101703389Y-124349653D01*
X101697505Y-124347832D01*
X101691380Y-124347188D01*
X101691379Y-124347188D01*
X101512985Y-124328438D01*
X101512984Y-124328438D01*
X101506857Y-124327794D01*
X101426779Y-124335082D01*
X101322087Y-124344609D01*
X101322084Y-124344610D01*
X101315948Y-124345168D01*
X101310042Y-124346906D01*
X101310038Y-124346907D01*
X101174622Y-124386762D01*
X101132050Y-124399292D01*
X101126590Y-124402146D01*
X101126591Y-124402146D01*
X100967627Y-124485250D01*
X100967623Y-124485253D01*
X100962167Y-124488105D01*
X100957367Y-124491965D01*
X100957366Y-124491965D01*
X100952728Y-124495694D01*
X100812770Y-124608223D01*
X100689549Y-124755072D01*
X100686585Y-124760464D01*
X100686582Y-124760468D01*
X100683298Y-124766442D01*
X100597198Y-124923058D01*
X100539234Y-125105783D01*
X100517866Y-125296286D01*
X98202500Y-125296286D01*
X98202500Y-124136068D01*
X98222502Y-124067947D01*
X98239405Y-124046973D01*
X99276973Y-123009405D01*
X99339285Y-122975379D01*
X99366068Y-122972500D01*
X100446182Y-122972500D01*
X100514303Y-122992502D01*
X100560796Y-123046158D01*
X100567301Y-123063770D01*
X100586746Y-123131583D01*
X100589561Y-123137060D01*
X100589562Y-123137063D01*
X100622677Y-123201498D01*
X100674370Y-123302082D01*
X100678193Y-123306906D01*
X100678196Y-123306910D01*
X100785904Y-123442802D01*
X100793443Y-123452314D01*
X100939428Y-123576557D01*
X101106765Y-123670079D01*
X101289081Y-123729317D01*
X101479430Y-123752015D01*
X101485565Y-123751543D01*
X101485567Y-123751543D01*
X101664420Y-123737781D01*
X101664424Y-123737780D01*
X101670562Y-123737308D01*
X101855199Y-123685756D01*
X102026305Y-123599324D01*
X102051600Y-123579562D01*
X102172509Y-123485097D01*
X102177365Y-123481303D01*
X102302624Y-123336189D01*
X102397312Y-123169509D01*
X102457821Y-122987612D01*
X102481847Y-122797425D01*
X102482230Y-122770000D01*
X102463524Y-122579217D01*
X102408117Y-122395701D01*
X102318120Y-122226442D01*
X102285562Y-122186522D01*
X116584773Y-122186522D01*
X116632264Y-122363761D01*
X116636010Y-122374053D01*
X116728086Y-122571511D01*
X116733569Y-122581007D01*
X116858528Y-122759467D01*
X116865584Y-122767875D01*
X117019625Y-122921916D01*
X117028033Y-122928972D01*
X117206493Y-123053931D01*
X117215989Y-123059414D01*
X117413447Y-123151490D01*
X117423739Y-123155236D01*
X117596003Y-123201394D01*
X117610099Y-123201058D01*
X117613500Y-123193116D01*
X117613500Y-123187967D01*
X118121500Y-123187967D01*
X118125473Y-123201498D01*
X118134022Y-123202727D01*
X118311261Y-123155236D01*
X118321553Y-123151490D01*
X118519011Y-123059414D01*
X118528507Y-123053931D01*
X118706967Y-122928972D01*
X118715375Y-122921916D01*
X118869416Y-122767875D01*
X118876472Y-122759467D01*
X119001431Y-122581007D01*
X119006914Y-122571511D01*
X119098990Y-122374053D01*
X119102736Y-122363761D01*
X119148894Y-122191497D01*
X119148558Y-122177401D01*
X119140616Y-122174000D01*
X118139615Y-122174000D01*
X118124376Y-122178475D01*
X118123171Y-122179865D01*
X118121500Y-122187548D01*
X118121500Y-123187967D01*
X117613500Y-123187967D01*
X117613500Y-122192115D01*
X117609025Y-122176876D01*
X117607635Y-122175671D01*
X117599952Y-122174000D01*
X116599533Y-122174000D01*
X116586002Y-122177973D01*
X116584773Y-122186522D01*
X102285562Y-122186522D01*
X102196962Y-122077887D01*
X102133081Y-122025040D01*
X102054006Y-121959623D01*
X102054002Y-121959621D01*
X102049256Y-121955694D01*
X101880629Y-121864518D01*
X101789067Y-121836175D01*
X101703392Y-121809654D01*
X101703389Y-121809653D01*
X101697505Y-121807832D01*
X101691380Y-121807188D01*
X101691379Y-121807188D01*
X101512985Y-121788438D01*
X101512984Y-121788438D01*
X101506857Y-121787794D01*
X101426779Y-121795082D01*
X101322087Y-121804609D01*
X101322084Y-121804610D01*
X101315948Y-121805168D01*
X101310042Y-121806906D01*
X101310038Y-121806907D01*
X101174622Y-121846762D01*
X101132050Y-121859292D01*
X101126590Y-121862146D01*
X101126591Y-121862146D01*
X100967627Y-121945250D01*
X100967623Y-121945253D01*
X100962167Y-121948105D01*
X100957367Y-121951965D01*
X100957366Y-121951965D01*
X100952728Y-121955694D01*
X100812770Y-122068223D01*
X100689549Y-122215072D01*
X100686585Y-122220464D01*
X100686582Y-122220468D01*
X100611110Y-122357752D01*
X100597198Y-122383058D01*
X100595337Y-122388925D01*
X100595336Y-122388927D01*
X100566573Y-122479599D01*
X100526909Y-122538483D01*
X100461707Y-122566575D01*
X100446471Y-122567500D01*
X99266788Y-122567500D01*
X99264110Y-122567348D01*
X99253514Y-122563627D01*
X99239415Y-122565196D01*
X99239414Y-122565196D01*
X99234141Y-122565783D01*
X99225658Y-122566727D01*
X99216693Y-122567224D01*
X99214243Y-122567500D01*
X99207169Y-122567500D01*
X99200271Y-122569074D01*
X99197267Y-122569412D01*
X99189060Y-122570800D01*
X99161692Y-122573846D01*
X99151570Y-122580183D01*
X99139926Y-122582839D01*
X99128830Y-122591681D01*
X99118395Y-122599996D01*
X99111347Y-122604987D01*
X99109127Y-122606755D01*
X99103082Y-122610539D01*
X99098035Y-122615586D01*
X99095954Y-122617243D01*
X99089366Y-122623128D01*
X99067672Y-122640415D01*
X99062727Y-122650666D01*
X99060802Y-122652819D01*
X97882822Y-123830800D01*
X97880822Y-123832585D01*
X97870699Y-123837446D01*
X97853187Y-123859344D01*
X97847211Y-123866021D01*
X97845674Y-123867948D01*
X97840667Y-123872955D01*
X97836902Y-123878945D01*
X97835012Y-123881315D01*
X97830192Y-123888097D01*
X97821861Y-123898514D01*
X97821859Y-123898517D01*
X97812997Y-123909599D01*
X97810321Y-123921237D01*
X97803965Y-123931349D01*
X97802371Y-123945451D01*
X97800871Y-123958713D01*
X97799419Y-123967208D01*
X97799097Y-123970042D01*
X97797500Y-123976989D01*
X97797500Y-123984117D01*
X97797199Y-123986769D01*
X97796702Y-123995591D01*
X97793586Y-124023153D01*
X97797339Y-124033900D01*
X97797500Y-124036779D01*
X97797500Y-129914374D01*
X97777498Y-129982495D01*
X97723842Y-130028988D01*
X97715413Y-130032270D01*
X97711808Y-130033036D01*
X97705779Y-130035720D01*
X97705777Y-130035721D01*
X97539726Y-130109652D01*
X97539724Y-130109653D01*
X97533696Y-130112337D01*
X97375963Y-130226936D01*
X97245503Y-130371826D01*
X97148019Y-130540674D01*
X97087771Y-130726100D01*
X97067391Y-130920000D01*
X90180500Y-130920000D01*
X90180500Y-121648503D01*
X116586106Y-121648503D01*
X116586442Y-121662599D01*
X116594384Y-121666000D01*
X117595385Y-121666000D01*
X117610624Y-121661525D01*
X117611829Y-121660135D01*
X117613500Y-121652452D01*
X117613500Y-121647885D01*
X118121500Y-121647885D01*
X118125975Y-121663124D01*
X118127365Y-121664329D01*
X118135048Y-121666000D01*
X119135467Y-121666000D01*
X119148998Y-121662027D01*
X119150227Y-121653478D01*
X119102736Y-121476239D01*
X119098990Y-121465947D01*
X119006914Y-121268489D01*
X119001431Y-121258993D01*
X118876472Y-121080533D01*
X118869416Y-121072125D01*
X118715375Y-120918084D01*
X118706967Y-120911028D01*
X118528507Y-120786069D01*
X118519011Y-120780586D01*
X118321553Y-120688510D01*
X118311261Y-120684764D01*
X118138997Y-120638606D01*
X118124901Y-120638942D01*
X118121500Y-120646884D01*
X118121500Y-121647885D01*
X117613500Y-121647885D01*
X117613500Y-120652033D01*
X117609527Y-120638502D01*
X117600978Y-120637273D01*
X117423739Y-120684764D01*
X117413447Y-120688510D01*
X117215989Y-120780586D01*
X117206493Y-120786069D01*
X117028033Y-120911028D01*
X117019625Y-120918084D01*
X116865584Y-121072125D01*
X116858528Y-121080533D01*
X116733569Y-121258993D01*
X116728086Y-121268489D01*
X116636010Y-121465947D01*
X116632264Y-121476239D01*
X116586106Y-121648503D01*
X90180500Y-121648503D01*
X90180500Y-120216286D01*
X100517866Y-120216286D01*
X100533907Y-120407311D01*
X100535606Y-120413236D01*
X100569700Y-120532135D01*
X100586746Y-120591583D01*
X100589561Y-120597060D01*
X100589562Y-120597063D01*
X100627995Y-120671846D01*
X100674370Y-120762082D01*
X100678193Y-120766906D01*
X100678196Y-120766910D01*
X100719768Y-120819360D01*
X100793443Y-120912314D01*
X100798137Y-120916308D01*
X100798137Y-120916309D01*
X100897716Y-121001057D01*
X100939428Y-121036557D01*
X101106765Y-121130079D01*
X101289081Y-121189317D01*
X101479430Y-121212015D01*
X101485565Y-121211543D01*
X101485567Y-121211543D01*
X101664420Y-121197781D01*
X101664424Y-121197780D01*
X101670562Y-121197308D01*
X101855199Y-121145756D01*
X102026305Y-121059324D01*
X102051600Y-121039562D01*
X102172509Y-120945097D01*
X102177365Y-120941303D01*
X102266872Y-120837608D01*
X102298595Y-120800857D01*
X102298596Y-120800855D01*
X102302624Y-120796189D01*
X102397312Y-120629509D01*
X102457821Y-120447612D01*
X102481847Y-120257425D01*
X102482230Y-120230000D01*
X102463524Y-120039217D01*
X102408117Y-119855701D01*
X102384387Y-119811071D01*
X102321014Y-119691884D01*
X102321012Y-119691881D01*
X102318120Y-119686442D01*
X102275350Y-119634000D01*
X102200856Y-119542661D01*
X102200854Y-119542659D01*
X102196962Y-119537887D01*
X102133081Y-119485040D01*
X102054006Y-119419623D01*
X102054002Y-119419621D01*
X102049256Y-119415694D01*
X101880629Y-119324518D01*
X101789067Y-119296175D01*
X101703392Y-119269654D01*
X101703389Y-119269653D01*
X101697505Y-119267832D01*
X101691380Y-119267188D01*
X101691379Y-119267188D01*
X101512985Y-119248438D01*
X101512984Y-119248438D01*
X101506857Y-119247794D01*
X101426779Y-119255082D01*
X101322087Y-119264609D01*
X101322084Y-119264610D01*
X101315948Y-119265168D01*
X101310042Y-119266906D01*
X101310038Y-119266907D01*
X101174622Y-119306762D01*
X101132050Y-119319292D01*
X101126590Y-119322146D01*
X101126591Y-119322146D01*
X100967627Y-119405250D01*
X100967623Y-119405253D01*
X100962167Y-119408105D01*
X100957367Y-119411965D01*
X100957366Y-119411965D01*
X100952728Y-119415694D01*
X100812770Y-119528223D01*
X100808812Y-119532940D01*
X100808810Y-119532942D01*
X100768348Y-119581163D01*
X100689549Y-119675072D01*
X100686585Y-119680464D01*
X100686582Y-119680468D01*
X100671343Y-119708188D01*
X100597198Y-119843058D01*
X100595337Y-119848925D01*
X100595336Y-119848927D01*
X100564300Y-119946766D01*
X100539234Y-120025783D01*
X100517866Y-120216286D01*
X90180500Y-120216286D01*
X90180500Y-117676286D01*
X100517866Y-117676286D01*
X100533907Y-117867311D01*
X100535606Y-117873236D01*
X100583425Y-118040000D01*
X100586746Y-118051583D01*
X100589561Y-118057060D01*
X100589562Y-118057063D01*
X100662195Y-118198392D01*
X100674370Y-118222082D01*
X100678193Y-118226906D01*
X100678196Y-118226910D01*
X100728993Y-118290999D01*
X100793443Y-118372314D01*
X100798137Y-118376308D01*
X100798137Y-118376309D01*
X100879231Y-118445325D01*
X100939428Y-118496557D01*
X101106765Y-118590079D01*
X101289081Y-118649317D01*
X101479430Y-118672015D01*
X101485565Y-118671543D01*
X101485567Y-118671543D01*
X101664420Y-118657781D01*
X101664424Y-118657780D01*
X101670562Y-118657308D01*
X101855199Y-118605756D01*
X102026305Y-118519324D01*
X102051600Y-118499562D01*
X102172509Y-118405097D01*
X102177365Y-118401303D01*
X102206558Y-118367483D01*
X102298595Y-118260857D01*
X102298596Y-118260855D01*
X102302624Y-118256189D01*
X102397312Y-118089509D01*
X102457821Y-117907612D01*
X102481847Y-117717425D01*
X102482230Y-117690000D01*
X102463524Y-117499217D01*
X102408117Y-117315701D01*
X102318120Y-117146442D01*
X102196962Y-116997887D01*
X102133081Y-116945040D01*
X102054006Y-116879623D01*
X102054002Y-116879621D01*
X102049256Y-116875694D01*
X101880629Y-116784518D01*
X101789067Y-116756175D01*
X101703392Y-116729654D01*
X101703389Y-116729653D01*
X101697505Y-116727832D01*
X101691380Y-116727188D01*
X101691379Y-116727188D01*
X101512985Y-116708438D01*
X101512984Y-116708438D01*
X101506857Y-116707794D01*
X101426779Y-116715082D01*
X101322087Y-116724609D01*
X101322084Y-116724610D01*
X101315948Y-116725168D01*
X101310042Y-116726906D01*
X101310038Y-116726907D01*
X101174622Y-116766762D01*
X101132050Y-116779292D01*
X101126590Y-116782146D01*
X101126591Y-116782146D01*
X100967627Y-116865250D01*
X100967623Y-116865253D01*
X100962167Y-116868105D01*
X100957367Y-116871965D01*
X100957366Y-116871965D01*
X100952728Y-116875694D01*
X100812770Y-116988223D01*
X100689549Y-117135072D01*
X100686585Y-117140464D01*
X100686582Y-117140468D01*
X100611110Y-117277752D01*
X100597198Y-117303058D01*
X100539234Y-117485783D01*
X100517866Y-117676286D01*
X90180500Y-117676286D01*
X90180500Y-115136286D01*
X100517866Y-115136286D01*
X100518382Y-115142430D01*
X100532314Y-115308336D01*
X100533907Y-115327311D01*
X100535606Y-115333236D01*
X100543709Y-115361493D01*
X100586746Y-115511583D01*
X100674370Y-115682082D01*
X100678193Y-115686906D01*
X100678196Y-115686910D01*
X100785904Y-115822802D01*
X100793443Y-115832314D01*
X100939428Y-115956557D01*
X101106765Y-116050079D01*
X101289081Y-116109317D01*
X101479430Y-116132015D01*
X101485565Y-116131543D01*
X101485567Y-116131543D01*
X101664420Y-116117781D01*
X101664424Y-116117780D01*
X101670562Y-116117308D01*
X101855199Y-116065756D01*
X102026305Y-115979324D01*
X102051600Y-115959562D01*
X102172509Y-115865097D01*
X102177365Y-115861303D01*
X102302624Y-115716189D01*
X102397312Y-115549509D01*
X102457821Y-115367612D01*
X102481847Y-115177425D01*
X102482230Y-115150000D01*
X102463524Y-114959217D01*
X102408117Y-114775701D01*
X102398526Y-114757663D01*
X102321014Y-114611884D01*
X102321012Y-114611881D01*
X102318120Y-114606442D01*
X102196962Y-114457887D01*
X102133081Y-114405040D01*
X102054006Y-114339623D01*
X102054002Y-114339621D01*
X102049256Y-114335694D01*
X101880629Y-114244518D01*
X101789067Y-114216175D01*
X101703392Y-114189654D01*
X101703389Y-114189653D01*
X101697505Y-114187832D01*
X101691380Y-114187188D01*
X101691379Y-114187188D01*
X101512985Y-114168438D01*
X101512984Y-114168438D01*
X101506857Y-114167794D01*
X101426779Y-114175082D01*
X101322087Y-114184609D01*
X101322084Y-114184610D01*
X101315948Y-114185168D01*
X101310042Y-114186906D01*
X101310038Y-114186907D01*
X101198207Y-114219821D01*
X101132050Y-114239292D01*
X101126590Y-114242146D01*
X101126591Y-114242146D01*
X100967627Y-114325250D01*
X100967623Y-114325253D01*
X100962167Y-114328105D01*
X100957367Y-114331965D01*
X100957366Y-114331965D01*
X100952728Y-114335694D01*
X100812770Y-114448223D01*
X100689549Y-114595072D01*
X100686585Y-114600464D01*
X100686582Y-114600468D01*
X100679198Y-114613900D01*
X100597198Y-114763058D01*
X100595337Y-114768925D01*
X100595336Y-114768927D01*
X100541096Y-114939913D01*
X100539234Y-114945783D01*
X100517866Y-115136286D01*
X90180500Y-115136286D01*
X90180500Y-112596286D01*
X100517866Y-112596286D01*
X100533907Y-112787311D01*
X100535606Y-112793236D01*
X100543709Y-112821493D01*
X100586746Y-112971583D01*
X100674370Y-113142082D01*
X100678193Y-113146906D01*
X100678196Y-113146910D01*
X100785904Y-113282802D01*
X100793443Y-113292314D01*
X100939428Y-113416557D01*
X101106765Y-113510079D01*
X101289081Y-113569317D01*
X101479430Y-113592015D01*
X101485565Y-113591543D01*
X101485567Y-113591543D01*
X101664420Y-113577781D01*
X101664424Y-113577780D01*
X101670562Y-113577308D01*
X101855199Y-113525756D01*
X102026305Y-113439324D01*
X102051600Y-113419562D01*
X102172509Y-113325097D01*
X102177365Y-113321303D01*
X102302624Y-113176189D01*
X102397312Y-113009509D01*
X102457821Y-112827612D01*
X102481847Y-112637425D01*
X102482230Y-112610000D01*
X102463524Y-112419217D01*
X102408117Y-112235701D01*
X102360347Y-112145859D01*
X102346028Y-112076322D01*
X102371576Y-112010081D01*
X102382504Y-111997611D01*
X104199815Y-110180300D01*
X104262127Y-110146274D01*
X104332942Y-110151339D01*
X104389778Y-110193886D01*
X104414589Y-110260406D01*
X104405319Y-110317613D01*
X104367365Y-110409242D01*
X104347517Y-110560000D01*
X104367365Y-110710758D01*
X104425555Y-110851241D01*
X104518122Y-110971878D01*
X104524672Y-110976904D01*
X104524673Y-110976905D01*
X104578440Y-111018162D01*
X104638758Y-111064445D01*
X104779242Y-111122635D01*
X104902947Y-111138921D01*
X104967873Y-111167643D01*
X105006965Y-111226909D01*
X105012500Y-111263843D01*
X105012500Y-117427253D01*
X104992498Y-117495374D01*
X104951584Y-117534385D01*
X104948759Y-117535555D01*
X104828122Y-117628122D01*
X104735555Y-117748759D01*
X104677365Y-117889242D01*
X104657517Y-118040000D01*
X104677365Y-118190758D01*
X104735555Y-118331241D01*
X104828122Y-118451878D01*
X104948758Y-118544445D01*
X105089242Y-118602635D01*
X105240000Y-118622483D01*
X105390758Y-118602635D01*
X105400903Y-118598433D01*
X105413216Y-118593333D01*
X105483806Y-118585743D01*
X105550530Y-118620645D01*
X106421243Y-119491357D01*
X106421989Y-119492193D01*
X106426678Y-119501958D01*
X106437758Y-119510819D01*
X106437759Y-119510820D01*
X106447020Y-119518226D01*
X106452739Y-119523344D01*
X106455166Y-119525280D01*
X106460169Y-119530283D01*
X106466156Y-119534046D01*
X106469028Y-119536337D01*
X106474757Y-119540409D01*
X106483648Y-119547519D01*
X106483651Y-119547520D01*
X106494733Y-119556383D01*
X106505710Y-119558907D01*
X106515248Y-119564902D01*
X106529347Y-119566496D01*
X106529348Y-119566496D01*
X106540647Y-119567773D01*
X106547877Y-119569009D01*
X106551356Y-119569404D01*
X106558297Y-119571000D01*
X106565423Y-119571000D01*
X106568701Y-119571372D01*
X106576245Y-119571797D01*
X106601838Y-119574690D01*
X106612201Y-119571071D01*
X106613476Y-119571000D01*
X123613227Y-119571000D01*
X123681348Y-119591002D01*
X123727841Y-119644658D01*
X123732785Y-119657228D01*
X123749737Y-119708188D01*
X123793124Y-119779828D01*
X123834972Y-119848927D01*
X123840097Y-119857390D01*
X123961267Y-119982865D01*
X123967159Y-119986720D01*
X123967163Y-119986724D01*
X124101328Y-120074519D01*
X124107224Y-120078377D01*
X124113828Y-120080833D01*
X124113830Y-120080834D01*
X124188969Y-120108778D01*
X124270715Y-120139179D01*
X124443614Y-120162248D01*
X124450625Y-120161610D01*
X124450629Y-120161610D01*
X124610306Y-120147078D01*
X124617327Y-120146439D01*
X124624029Y-120144261D01*
X124624031Y-120144261D01*
X124776522Y-120094714D01*
X124776525Y-120094713D01*
X124783221Y-120092537D01*
X124933050Y-120003221D01*
X124933066Y-120003247D01*
X124996714Y-119979024D01*
X125066187Y-119993653D01*
X125116722Y-120043520D01*
X125132275Y-120112792D01*
X125112450Y-120172895D01*
X125029177Y-120302109D01*
X125026768Y-120308729D01*
X125026766Y-120308732D01*
X124993122Y-120401169D01*
X124969518Y-120466020D01*
X124947656Y-120639076D01*
X124964678Y-120812674D01*
X124966902Y-120819359D01*
X124966902Y-120819360D01*
X124992010Y-120894836D01*
X125019737Y-120978188D01*
X125023384Y-120984210D01*
X125023385Y-120984212D01*
X125068875Y-121059324D01*
X125110097Y-121127390D01*
X125231267Y-121252865D01*
X125237159Y-121256720D01*
X125237163Y-121256724D01*
X125371328Y-121344519D01*
X125377224Y-121348377D01*
X125383828Y-121350833D01*
X125383830Y-121350834D01*
X125458970Y-121378778D01*
X125540715Y-121409179D01*
X125713614Y-121432248D01*
X125720625Y-121431610D01*
X125720629Y-121431610D01*
X125880306Y-121417078D01*
X125887327Y-121416439D01*
X125894029Y-121414261D01*
X125894031Y-121414261D01*
X126046522Y-121364714D01*
X126046525Y-121364713D01*
X126053221Y-121362537D01*
X126203050Y-121273221D01*
X126329368Y-121152930D01*
X126334135Y-121145756D01*
X126421998Y-121013511D01*
X126425897Y-121007643D01*
X126449656Y-120945097D01*
X126485339Y-120851163D01*
X126485340Y-120851158D01*
X126487839Y-120844580D01*
X126488819Y-120837608D01*
X126511564Y-120675769D01*
X126511564Y-120675764D01*
X126512115Y-120671846D01*
X126512249Y-120662242D01*
X126533200Y-120594407D01*
X126587499Y-120548667D01*
X126638237Y-120538000D01*
X126727885Y-120538000D01*
X126743124Y-120533525D01*
X126744329Y-120532135D01*
X126746000Y-120524452D01*
X126746000Y-120519884D01*
X127254000Y-120519884D01*
X127258475Y-120535123D01*
X127259865Y-120536328D01*
X127267548Y-120537999D01*
X127694669Y-120537999D01*
X127701490Y-120537629D01*
X127752352Y-120532105D01*
X127767604Y-120528479D01*
X127888054Y-120483324D01*
X127903649Y-120474786D01*
X128005724Y-120398285D01*
X128018285Y-120385724D01*
X128094786Y-120283649D01*
X128103324Y-120268054D01*
X128148478Y-120147606D01*
X128152105Y-120132351D01*
X128157631Y-120081486D01*
X128158000Y-120074672D01*
X128158000Y-119652115D01*
X128153525Y-119636876D01*
X128152135Y-119635671D01*
X128144452Y-119634000D01*
X127272115Y-119634000D01*
X127256876Y-119638475D01*
X127255671Y-119639865D01*
X127254000Y-119647548D01*
X127254000Y-120519884D01*
X126746000Y-120519884D01*
X126746000Y-119652115D01*
X126741525Y-119636876D01*
X126740135Y-119635671D01*
X126732452Y-119634000D01*
X125860116Y-119634000D01*
X125844877Y-119638475D01*
X125843672Y-119639865D01*
X125842001Y-119647548D01*
X125842001Y-119742950D01*
X125821999Y-119811071D01*
X125768343Y-119857564D01*
X125729172Y-119868260D01*
X125568987Y-119885096D01*
X125568985Y-119885097D01*
X125561987Y-119885832D01*
X125396862Y-119942045D01*
X125248294Y-120033445D01*
X125246722Y-120030890D01*
X125193145Y-120052132D01*
X125123477Y-120038463D01*
X125072258Y-119989299D01*
X125055750Y-119920248D01*
X125076639Y-119856935D01*
X125077459Y-119855701D01*
X125155897Y-119737643D01*
X125169626Y-119701501D01*
X125215339Y-119581163D01*
X125215340Y-119581158D01*
X125217839Y-119574580D01*
X125219532Y-119562536D01*
X125241564Y-119405769D01*
X125241564Y-119405764D01*
X125242115Y-119401846D01*
X125242420Y-119380000D01*
X125227653Y-119248353D01*
X125223761Y-119213653D01*
X125223761Y-119213652D01*
X125222976Y-119206656D01*
X125209863Y-119168998D01*
X125188581Y-119107885D01*
X125842000Y-119107885D01*
X125846475Y-119123124D01*
X125847865Y-119124329D01*
X125855548Y-119126000D01*
X126727885Y-119126000D01*
X126743124Y-119121525D01*
X126744329Y-119120135D01*
X126746000Y-119112452D01*
X126746000Y-119107885D01*
X127254000Y-119107885D01*
X127258475Y-119123124D01*
X127259865Y-119124329D01*
X127267548Y-119126000D01*
X128139884Y-119126000D01*
X128155123Y-119121525D01*
X128156328Y-119120135D01*
X128157999Y-119112452D01*
X128157999Y-118685331D01*
X128157629Y-118678510D01*
X128152105Y-118627648D01*
X128148479Y-118612396D01*
X128103324Y-118491946D01*
X128094786Y-118476351D01*
X128018285Y-118374276D01*
X128005724Y-118361715D01*
X127903649Y-118285214D01*
X127888054Y-118276676D01*
X127767606Y-118231522D01*
X127752351Y-118227895D01*
X127701486Y-118222369D01*
X127694672Y-118222000D01*
X127272115Y-118222000D01*
X127256876Y-118226475D01*
X127255671Y-118227865D01*
X127254000Y-118235548D01*
X127254000Y-119107885D01*
X126746000Y-119107885D01*
X126746000Y-118240116D01*
X126741525Y-118224877D01*
X126740135Y-118223672D01*
X126732452Y-118222001D01*
X126305331Y-118222001D01*
X126298510Y-118222371D01*
X126247648Y-118227895D01*
X126232396Y-118231521D01*
X126111946Y-118276676D01*
X126096351Y-118285214D01*
X125994276Y-118361715D01*
X125981715Y-118374276D01*
X125905214Y-118476351D01*
X125896676Y-118491946D01*
X125851522Y-118612394D01*
X125847895Y-118627649D01*
X125842369Y-118678514D01*
X125842000Y-118685328D01*
X125842000Y-119107885D01*
X125188581Y-119107885D01*
X125167927Y-119048574D01*
X125167926Y-119048572D01*
X125165612Y-119041927D01*
X125073177Y-118894002D01*
X124950267Y-118770230D01*
X124883686Y-118727977D01*
X124808933Y-118680537D01*
X124808930Y-118680535D01*
X124802990Y-118676766D01*
X124789648Y-118672015D01*
X124645300Y-118620614D01*
X124645298Y-118620613D01*
X124638666Y-118618252D01*
X124631680Y-118617419D01*
X124631676Y-118617418D01*
X124481186Y-118599474D01*
X124465462Y-118597599D01*
X124458459Y-118598335D01*
X124458458Y-118598335D01*
X124298987Y-118615096D01*
X124298985Y-118615097D01*
X124291987Y-118615832D01*
X124126862Y-118672045D01*
X124116347Y-118678514D01*
X123984301Y-118759749D01*
X123984298Y-118759751D01*
X123978294Y-118763445D01*
X123973259Y-118768376D01*
X123973256Y-118768378D01*
X123858700Y-118880560D01*
X123853668Y-118885488D01*
X123759177Y-119032109D01*
X123756768Y-119038729D01*
X123756766Y-119038732D01*
X123732248Y-119106095D01*
X123690153Y-119163266D01*
X123623832Y-119188604D01*
X123613847Y-119189000D01*
X106711305Y-119189000D01*
X106643184Y-119168998D01*
X106622210Y-119152095D01*
X105820646Y-118350531D01*
X105786620Y-118288219D01*
X105793332Y-118213219D01*
X105799473Y-118198392D01*
X105799474Y-118198389D01*
X105802635Y-118190758D01*
X105822483Y-118040000D01*
X105802635Y-117889242D01*
X105744445Y-117748759D01*
X105651878Y-117628122D01*
X105531242Y-117535555D01*
X105528730Y-117534514D01*
X105481508Y-117484991D01*
X105467500Y-117427252D01*
X105467500Y-114420000D01*
X116934891Y-114420000D01*
X116955271Y-114613900D01*
X117015519Y-114799326D01*
X117113003Y-114968174D01*
X117243463Y-115113064D01*
X117248802Y-115116943D01*
X117327197Y-115173900D01*
X117401195Y-115227663D01*
X117407223Y-115230347D01*
X117407225Y-115230348D01*
X117573277Y-115304279D01*
X117579308Y-115306964D01*
X117646138Y-115321169D01*
X117763559Y-115346128D01*
X117763563Y-115346128D01*
X117770016Y-115347500D01*
X117964984Y-115347500D01*
X117971437Y-115346128D01*
X117971441Y-115346128D01*
X118088862Y-115321169D01*
X118155692Y-115306964D01*
X118161723Y-115304279D01*
X118327775Y-115230348D01*
X118327777Y-115230347D01*
X118333805Y-115227663D01*
X118407804Y-115173900D01*
X118486198Y-115116943D01*
X118491537Y-115113064D01*
X118621997Y-114968174D01*
X118719481Y-114799326D01*
X118779729Y-114613900D01*
X118800109Y-114420000D01*
X118779729Y-114226100D01*
X118719481Y-114040674D01*
X118621997Y-113871826D01*
X118491537Y-113726936D01*
X118333805Y-113612337D01*
X118327777Y-113609653D01*
X118327775Y-113609652D01*
X118161723Y-113535721D01*
X118161722Y-113535721D01*
X118155692Y-113533036D01*
X118047687Y-113510079D01*
X117971441Y-113493872D01*
X117971437Y-113493872D01*
X117964984Y-113492500D01*
X117770016Y-113492500D01*
X117763563Y-113493872D01*
X117763559Y-113493872D01*
X117687313Y-113510079D01*
X117579308Y-113533036D01*
X117573279Y-113535720D01*
X117573277Y-113535721D01*
X117407226Y-113609652D01*
X117407224Y-113609653D01*
X117401196Y-113612337D01*
X117243463Y-113726936D01*
X117113003Y-113871826D01*
X117015519Y-114040674D01*
X116955271Y-114226100D01*
X116934891Y-114420000D01*
X105467500Y-114420000D01*
X105467500Y-110879236D01*
X105467673Y-110872643D01*
X105469025Y-110846842D01*
X105469718Y-110833616D01*
X105465708Y-110823168D01*
X105473564Y-110756801D01*
X105489474Y-110718392D01*
X105489476Y-110718384D01*
X105492635Y-110710758D01*
X105512483Y-110560000D01*
X105492635Y-110409242D01*
X105434445Y-110268759D01*
X105341878Y-110148122D01*
X105221242Y-110055555D01*
X105080758Y-109997365D01*
X104930000Y-109977517D01*
X104779242Y-109997365D01*
X104771610Y-110000526D01*
X104771611Y-110000526D01*
X104687613Y-110035319D01*
X104617023Y-110042908D01*
X104553536Y-110011129D01*
X104517309Y-109950071D01*
X104519843Y-109879119D01*
X104550300Y-109829815D01*
X112111358Y-102268757D01*
X112112195Y-102268010D01*
X112121958Y-102263322D01*
X112138222Y-102242985D01*
X112143340Y-102237266D01*
X112145274Y-102234841D01*
X112150283Y-102229832D01*
X112154052Y-102223835D01*
X112156341Y-102220965D01*
X112160413Y-102215236D01*
X112176383Y-102195267D01*
X112178907Y-102184290D01*
X112184902Y-102174752D01*
X112187773Y-102149353D01*
X112189009Y-102142123D01*
X112189404Y-102138644D01*
X112191000Y-102131703D01*
X112191000Y-102124577D01*
X112191372Y-102121299D01*
X112191797Y-102113755D01*
X112193096Y-102102260D01*
X112194690Y-102088162D01*
X112191071Y-102077799D01*
X112191000Y-102076524D01*
X112191000Y-101454909D01*
X112211002Y-101386788D01*
X112251070Y-101347535D01*
X112275881Y-101332301D01*
X112358058Y-101241513D01*
X112411451Y-101131311D01*
X112413383Y-101119831D01*
X112430960Y-101015348D01*
X112431767Y-101010552D01*
X112431896Y-101000000D01*
X112420566Y-100920885D01*
X112415809Y-100887667D01*
X112415808Y-100887664D01*
X112414536Y-100878781D01*
X112410565Y-100870046D01*
X112367568Y-100775481D01*
X112363852Y-100767307D01*
X112339740Y-100739324D01*
X112289776Y-100681337D01*
X112289774Y-100681335D01*
X112283918Y-100674539D01*
X112181160Y-100607935D01*
X112063838Y-100572848D01*
X112054862Y-100572793D01*
X112054861Y-100572793D01*
X112004483Y-100572485D01*
X111941385Y-100572100D01*
X111823644Y-100605751D01*
X111816057Y-100610538D01*
X111816055Y-100610539D01*
X111792982Y-100625097D01*
X111720080Y-100671095D01*
X111639018Y-100762879D01*
X111586976Y-100873726D01*
X111585595Y-100882595D01*
X111570715Y-100978162D01*
X111568136Y-100994724D01*
X111569300Y-101003626D01*
X111569300Y-101003629D01*
X111582588Y-101105239D01*
X111584014Y-101116145D01*
X111633333Y-101228230D01*
X111712127Y-101321968D01*
X111719604Y-101326945D01*
X111752819Y-101349055D01*
X111798442Y-101403452D01*
X111809000Y-101453942D01*
X111809000Y-101978696D01*
X111788998Y-102046817D01*
X111772095Y-102067791D01*
X102112378Y-111727507D01*
X102050066Y-111761533D01*
X101979251Y-111756468D01*
X101963369Y-111749255D01*
X101880629Y-111704518D01*
X101858129Y-111697553D01*
X101703392Y-111649654D01*
X101703389Y-111649653D01*
X101697505Y-111647832D01*
X101691380Y-111647188D01*
X101691379Y-111647188D01*
X101512985Y-111628438D01*
X101512984Y-111628438D01*
X101506857Y-111627794D01*
X101426779Y-111635082D01*
X101322087Y-111644609D01*
X101322084Y-111644610D01*
X101315948Y-111645168D01*
X101310042Y-111646906D01*
X101310038Y-111646907D01*
X101174622Y-111686762D01*
X101132050Y-111699292D01*
X101126590Y-111702146D01*
X101126591Y-111702146D01*
X100967627Y-111785250D01*
X100967623Y-111785253D01*
X100962167Y-111788105D01*
X100957367Y-111791965D01*
X100957366Y-111791965D01*
X100923076Y-111819535D01*
X100812770Y-111908223D01*
X100808812Y-111912940D01*
X100808810Y-111912942D01*
X100728701Y-112008413D01*
X100689549Y-112055072D01*
X100686585Y-112060464D01*
X100686582Y-112060468D01*
X100639638Y-112145859D01*
X100597198Y-112223058D01*
X100539234Y-112405783D01*
X100517866Y-112596286D01*
X90180500Y-112596286D01*
X90180500Y-110056286D01*
X100517866Y-110056286D01*
X100533907Y-110247311D01*
X100535606Y-110253236D01*
X100578152Y-110401611D01*
X100586746Y-110431583D01*
X100674370Y-110602082D01*
X100678193Y-110606906D01*
X100678196Y-110606910D01*
X100754015Y-110702569D01*
X100793443Y-110752314D01*
X100798137Y-110756308D01*
X100798137Y-110756309D01*
X100888973Y-110833616D01*
X100939428Y-110876557D01*
X101106765Y-110970079D01*
X101289081Y-111029317D01*
X101479430Y-111052015D01*
X101485565Y-111051543D01*
X101485567Y-111051543D01*
X101664420Y-111037781D01*
X101664424Y-111037780D01*
X101670562Y-111037308D01*
X101855199Y-110985756D01*
X102026305Y-110899324D01*
X102051600Y-110879562D01*
X102172509Y-110785097D01*
X102177365Y-110781303D01*
X102206558Y-110747483D01*
X102298595Y-110640857D01*
X102298596Y-110640855D01*
X102302624Y-110636189D01*
X102397312Y-110469509D01*
X102457821Y-110287612D01*
X102481847Y-110097425D01*
X102482230Y-110070000D01*
X102463524Y-109879217D01*
X102464617Y-109879110D01*
X102470468Y-109814389D01*
X102498582Y-109771533D01*
X111111358Y-101158757D01*
X111112195Y-101158010D01*
X111121958Y-101153322D01*
X111138222Y-101132985D01*
X111143345Y-101127261D01*
X111145280Y-101124835D01*
X111150284Y-101119831D01*
X111154048Y-101113842D01*
X111156339Y-101110970D01*
X111160412Y-101105239D01*
X111167519Y-101096352D01*
X111167520Y-101096349D01*
X111176383Y-101085267D01*
X111178907Y-101074290D01*
X111184902Y-101064752D01*
X111187776Y-101039333D01*
X111189009Y-101032118D01*
X111189403Y-101028648D01*
X111191000Y-101021703D01*
X111191000Y-101014579D01*
X111191373Y-101011293D01*
X111191798Y-101003752D01*
X111193097Y-100992263D01*
X111193097Y-100992262D01*
X111194691Y-100978162D01*
X111191071Y-100967797D01*
X111191000Y-100966523D01*
X111191000Y-99631305D01*
X111211002Y-99563184D01*
X111227905Y-99542210D01*
X112811442Y-97958672D01*
X112873754Y-97924647D01*
X112920684Y-97923388D01*
X112922378Y-97923662D01*
X112930948Y-97926340D01*
X112939921Y-97926504D01*
X112939924Y-97926505D01*
X112993167Y-97927480D01*
X113053383Y-97928584D01*
X113171527Y-97896375D01*
X113275881Y-97832301D01*
X113358058Y-97741513D01*
X113411451Y-97631311D01*
X113414003Y-97616145D01*
X113430960Y-97515348D01*
X113431767Y-97510552D01*
X113431896Y-97500000D01*
X113422933Y-97437413D01*
X113415809Y-97387667D01*
X113415808Y-97387664D01*
X113414536Y-97378781D01*
X113363852Y-97267307D01*
X113311293Y-97206309D01*
X113289776Y-97181337D01*
X113289774Y-97181335D01*
X113283918Y-97174539D01*
X113181160Y-97107935D01*
X113063838Y-97072848D01*
X113054862Y-97072793D01*
X113054861Y-97072793D01*
X113004483Y-97072485D01*
X112941385Y-97072100D01*
X112932755Y-97074566D01*
X112932751Y-97074567D01*
X112886209Y-97087869D01*
X112815215Y-97087357D01*
X112755767Y-97048543D01*
X112726741Y-96983751D01*
X112737352Y-96913551D01*
X112762490Y-96877625D01*
X113261442Y-96378673D01*
X113323754Y-96344647D01*
X113370680Y-96343388D01*
X113372381Y-96343663D01*
X113380948Y-96346340D01*
X113389921Y-96346504D01*
X113389924Y-96346505D01*
X113443167Y-96347480D01*
X113503383Y-96348584D01*
X113621527Y-96316375D01*
X113725881Y-96252301D01*
X113808058Y-96161513D01*
X113861451Y-96051311D01*
X113864003Y-96036145D01*
X113880960Y-95935348D01*
X113881767Y-95930552D01*
X113881896Y-95920000D01*
X113869388Y-95832661D01*
X113865809Y-95807667D01*
X113865808Y-95807664D01*
X113864536Y-95798781D01*
X113860565Y-95790046D01*
X113820879Y-95702763D01*
X113813852Y-95687307D01*
X113789740Y-95659324D01*
X113739776Y-95601337D01*
X113739774Y-95601335D01*
X113733918Y-95594539D01*
X113631160Y-95527935D01*
X113513838Y-95492848D01*
X113504862Y-95492793D01*
X113504861Y-95492793D01*
X113454483Y-95492485D01*
X113391385Y-95492100D01*
X113273644Y-95525751D01*
X113266057Y-95530538D01*
X113266055Y-95530539D01*
X113242982Y-95545097D01*
X113170080Y-95591095D01*
X113089018Y-95682879D01*
X113036976Y-95793726D01*
X113035595Y-95802595D01*
X113030914Y-95832661D01*
X113018136Y-95914724D01*
X113019300Y-95923626D01*
X113019300Y-95923629D01*
X113029404Y-96000890D01*
X113018404Y-96071029D01*
X112993563Y-96106323D01*
X102313625Y-106786260D01*
X102251313Y-106820286D01*
X102180498Y-106815221D01*
X102144215Y-106794250D01*
X102084542Y-106744885D01*
X102049256Y-106715694D01*
X101880629Y-106624518D01*
X101789067Y-106596175D01*
X101703392Y-106569654D01*
X101703389Y-106569653D01*
X101697505Y-106567832D01*
X101691380Y-106567188D01*
X101691379Y-106567188D01*
X101512985Y-106548438D01*
X101512984Y-106548438D01*
X101506857Y-106547794D01*
X101426779Y-106555082D01*
X101322087Y-106564609D01*
X101322084Y-106564610D01*
X101315948Y-106565168D01*
X101310042Y-106566906D01*
X101310038Y-106566907D01*
X101174622Y-106606762D01*
X101132050Y-106619292D01*
X101126590Y-106622146D01*
X101126591Y-106622146D01*
X100967627Y-106705250D01*
X100967623Y-106705253D01*
X100962167Y-106708105D01*
X100957367Y-106711965D01*
X100957366Y-106711965D01*
X100952728Y-106715694D01*
X100812770Y-106828223D01*
X100808812Y-106832940D01*
X100808810Y-106832942D01*
X100728701Y-106928413D01*
X100689549Y-106975072D01*
X100686585Y-106980464D01*
X100686582Y-106980468D01*
X100611110Y-107117752D01*
X100597198Y-107143058D01*
X100595337Y-107148925D01*
X100595336Y-107148927D01*
X100551697Y-107286496D01*
X100539234Y-107325783D01*
X100517866Y-107516286D01*
X100533907Y-107707311D01*
X100535606Y-107713236D01*
X100543709Y-107741493D01*
X100586746Y-107891583D01*
X100674370Y-108062082D01*
X100678193Y-108066906D01*
X100678196Y-108066910D01*
X100785904Y-108202802D01*
X100793443Y-108212314D01*
X100939428Y-108336557D01*
X101106765Y-108430079D01*
X101289081Y-108489317D01*
X101479430Y-108512015D01*
X101485565Y-108511543D01*
X101485567Y-108511543D01*
X101664420Y-108497781D01*
X101664424Y-108497780D01*
X101670562Y-108497308D01*
X101855199Y-108445756D01*
X102026305Y-108359324D01*
X102051600Y-108339562D01*
X102172509Y-108245097D01*
X102177365Y-108241303D01*
X102302624Y-108096189D01*
X102397312Y-107929509D01*
X102457821Y-107747612D01*
X102481847Y-107557425D01*
X102482230Y-107530000D01*
X102463524Y-107339217D01*
X102447606Y-107286493D01*
X102447065Y-107215501D01*
X102479133Y-107160982D01*
X112373107Y-97267008D01*
X112435419Y-97232982D01*
X112506234Y-97238047D01*
X112563070Y-97280594D01*
X112587881Y-97347114D01*
X112586702Y-97375485D01*
X112580227Y-97417073D01*
X112570775Y-97477778D01*
X112568136Y-97494724D01*
X112569300Y-97503626D01*
X112569300Y-97503629D01*
X112575013Y-97547311D01*
X112578402Y-97573224D01*
X112579404Y-97580889D01*
X112568404Y-97651028D01*
X112543563Y-97686322D01*
X110888642Y-99341243D01*
X110887805Y-99341990D01*
X110878042Y-99346678D01*
X110869181Y-99357758D01*
X110869180Y-99357759D01*
X110861778Y-99367015D01*
X110856655Y-99372739D01*
X110854720Y-99375165D01*
X110849716Y-99380169D01*
X110845952Y-99386158D01*
X110843661Y-99389030D01*
X110839588Y-99394761D01*
X110832481Y-99403648D01*
X110832480Y-99403651D01*
X110823617Y-99414733D01*
X110821093Y-99425710D01*
X110815098Y-99435248D01*
X110812224Y-99460667D01*
X110810991Y-99467882D01*
X110810597Y-99471352D01*
X110809000Y-99478297D01*
X110809000Y-99485421D01*
X110808627Y-99488707D01*
X110808202Y-99496248D01*
X110805309Y-99521838D01*
X110808929Y-99532203D01*
X110809000Y-99533477D01*
X110809000Y-100868695D01*
X110788998Y-100936816D01*
X110772095Y-100957790D01*
X102362878Y-109367007D01*
X102300566Y-109401033D01*
X102229751Y-109395968D01*
X102193472Y-109375000D01*
X102049256Y-109255694D01*
X101880629Y-109164518D01*
X101789067Y-109136175D01*
X101703392Y-109109654D01*
X101703389Y-109109653D01*
X101697505Y-109107832D01*
X101691380Y-109107188D01*
X101691379Y-109107188D01*
X101512985Y-109088438D01*
X101512984Y-109088438D01*
X101506857Y-109087794D01*
X101426779Y-109095082D01*
X101322087Y-109104609D01*
X101322084Y-109104610D01*
X101315948Y-109105168D01*
X101310042Y-109106906D01*
X101310038Y-109106907D01*
X101174622Y-109146762D01*
X101132050Y-109159292D01*
X101126590Y-109162146D01*
X101126591Y-109162146D01*
X100967627Y-109245250D01*
X100967623Y-109245253D01*
X100962167Y-109248105D01*
X100957367Y-109251965D01*
X100957366Y-109251965D01*
X100952728Y-109255694D01*
X100812770Y-109368223D01*
X100808812Y-109372940D01*
X100808810Y-109372942D01*
X100728701Y-109468413D01*
X100689549Y-109515072D01*
X100686585Y-109520464D01*
X100686582Y-109520468D01*
X100611110Y-109657752D01*
X100597198Y-109683058D01*
X100539234Y-109865783D01*
X100517866Y-110056286D01*
X90180500Y-110056286D01*
X90180500Y-104976286D01*
X100517866Y-104976286D01*
X100518382Y-104982430D01*
X100531842Y-105142715D01*
X100533907Y-105167311D01*
X100535606Y-105173236D01*
X100543711Y-105201500D01*
X100586746Y-105351583D01*
X100674370Y-105522082D01*
X100678193Y-105526906D01*
X100678196Y-105526910D01*
X100785904Y-105662802D01*
X100793443Y-105672314D01*
X100939428Y-105796557D01*
X101106765Y-105890079D01*
X101289081Y-105949317D01*
X101479430Y-105972015D01*
X101485565Y-105971543D01*
X101485567Y-105971543D01*
X101664420Y-105957781D01*
X101664424Y-105957780D01*
X101670562Y-105957308D01*
X101855199Y-105905756D01*
X102026305Y-105819324D01*
X102051600Y-105799562D01*
X102172509Y-105705097D01*
X102177365Y-105701303D01*
X102302624Y-105556189D01*
X102397312Y-105389509D01*
X102457821Y-105207612D01*
X102459942Y-105190821D01*
X102486479Y-105127998D01*
X102492011Y-105121069D01*
X102503109Y-105112225D01*
X102507878Y-105102338D01*
X102508731Y-105101384D01*
X114027763Y-93582352D01*
X114090075Y-93548326D01*
X114154432Y-93551180D01*
X114170948Y-93556340D01*
X114293383Y-93558584D01*
X114311434Y-93553663D01*
X114402863Y-93528737D01*
X114411527Y-93526375D01*
X114515881Y-93462301D01*
X114598058Y-93371513D01*
X114651451Y-93261311D01*
X114663115Y-93191983D01*
X114670960Y-93145348D01*
X114671767Y-93140552D01*
X114671896Y-93130000D01*
X114664890Y-93081080D01*
X114655809Y-93017667D01*
X114655808Y-93017664D01*
X114654536Y-93008781D01*
X114649016Y-92996639D01*
X114607568Y-92905481D01*
X114603852Y-92897307D01*
X114572445Y-92860857D01*
X114529776Y-92811337D01*
X114529774Y-92811335D01*
X114523918Y-92804539D01*
X114421160Y-92737935D01*
X114303838Y-92702848D01*
X114294862Y-92702793D01*
X114294861Y-92702793D01*
X114244483Y-92702485D01*
X114181385Y-92702100D01*
X114141376Y-92713535D01*
X114092974Y-92727368D01*
X114021979Y-92726856D01*
X113962531Y-92688042D01*
X113933505Y-92623250D01*
X113944116Y-92553051D01*
X113969254Y-92517124D01*
X115215439Y-91270939D01*
X115277751Y-91236913D01*
X115319226Y-91235802D01*
X115320948Y-91236340D01*
X115443383Y-91238584D01*
X115561527Y-91206375D01*
X115665881Y-91142301D01*
X115748058Y-91051513D01*
X115801451Y-90941311D01*
X115804003Y-90926145D01*
X115820960Y-90825348D01*
X115821767Y-90820552D01*
X115821896Y-90810000D01*
X115808689Y-90717781D01*
X115805809Y-90697667D01*
X115805808Y-90697664D01*
X115804536Y-90688781D01*
X115753852Y-90577307D01*
X115673918Y-90484539D01*
X115571160Y-90417935D01*
X115453838Y-90382848D01*
X115444862Y-90382793D01*
X115444861Y-90382793D01*
X115394483Y-90382485D01*
X115331385Y-90382100D01*
X115213644Y-90415751D01*
X115206057Y-90420538D01*
X115206055Y-90420539D01*
X115152300Y-90454456D01*
X115110080Y-90481095D01*
X115029018Y-90572879D01*
X114976976Y-90683726D01*
X114975595Y-90692595D01*
X114969531Y-90731543D01*
X114958136Y-90804724D01*
X114959300Y-90813626D01*
X114959300Y-90813629D01*
X114967523Y-90876507D01*
X114956523Y-90946646D01*
X114931682Y-90981940D01*
X103703027Y-102210595D01*
X103640715Y-102244621D01*
X103613932Y-102247500D01*
X102553562Y-102247500D01*
X102485441Y-102227498D01*
X102438948Y-102173842D01*
X102432940Y-102157918D01*
X102419606Y-102113755D01*
X102408117Y-102075701D01*
X102384288Y-102030886D01*
X102321014Y-101911884D01*
X102321012Y-101911881D01*
X102318120Y-101906442D01*
X102196962Y-101757887D01*
X102133081Y-101705040D01*
X102054006Y-101639623D01*
X102054002Y-101639621D01*
X102049256Y-101635694D01*
X101880629Y-101544518D01*
X101789067Y-101516175D01*
X101703392Y-101489654D01*
X101703389Y-101489653D01*
X101697505Y-101487832D01*
X101691380Y-101487188D01*
X101691379Y-101487188D01*
X101512985Y-101468438D01*
X101512984Y-101468438D01*
X101506857Y-101467794D01*
X101426779Y-101475082D01*
X101322087Y-101484609D01*
X101322084Y-101484610D01*
X101315948Y-101485168D01*
X101310042Y-101486906D01*
X101310038Y-101486907D01*
X101174622Y-101526762D01*
X101132050Y-101539292D01*
X101126590Y-101542146D01*
X101126591Y-101542146D01*
X100967627Y-101625250D01*
X100967623Y-101625253D01*
X100962167Y-101628105D01*
X100957367Y-101631965D01*
X100957366Y-101631965D01*
X100952728Y-101635694D01*
X100812770Y-101748223D01*
X100689549Y-101895072D01*
X100686585Y-101900464D01*
X100686582Y-101900468D01*
X100643576Y-101978696D01*
X100597198Y-102063058D01*
X100595337Y-102068925D01*
X100595336Y-102068927D01*
X100566239Y-102160652D01*
X100539234Y-102245783D01*
X100517866Y-102436286D01*
X100518382Y-102442430D01*
X100531723Y-102601297D01*
X100533907Y-102627311D01*
X100586746Y-102811583D01*
X100674370Y-102982082D01*
X100678193Y-102986906D01*
X100678196Y-102986910D01*
X100785904Y-103122802D01*
X100793443Y-103132314D01*
X100939428Y-103256557D01*
X101106765Y-103350079D01*
X101289081Y-103409317D01*
X101479430Y-103432015D01*
X101485565Y-103431543D01*
X101485567Y-103431543D01*
X101664420Y-103417781D01*
X101664424Y-103417780D01*
X101670562Y-103417308D01*
X101855199Y-103365756D01*
X102026305Y-103279324D01*
X102051600Y-103259562D01*
X102172509Y-103165097D01*
X102177365Y-103161303D01*
X102302624Y-103016189D01*
X102397312Y-102849509D01*
X102434164Y-102738728D01*
X102474645Y-102680404D01*
X102540233Y-102653224D01*
X102553722Y-102652500D01*
X103713213Y-102652500D01*
X103715891Y-102652652D01*
X103726487Y-102656373D01*
X103740586Y-102654804D01*
X103740587Y-102654804D01*
X103754341Y-102653273D01*
X103763306Y-102652776D01*
X103765757Y-102652500D01*
X103772831Y-102652500D01*
X103779729Y-102650926D01*
X103782733Y-102650588D01*
X103790940Y-102649200D01*
X103818308Y-102646154D01*
X103828429Y-102639817D01*
X103840074Y-102637161D01*
X103861611Y-102619999D01*
X103868650Y-102615015D01*
X103870877Y-102613242D01*
X103876918Y-102609460D01*
X103881959Y-102604419D01*
X103884044Y-102602759D01*
X103890629Y-102596876D01*
X103901229Y-102588429D01*
X103912328Y-102579585D01*
X103917273Y-102569333D01*
X103919199Y-102567179D01*
X113623179Y-92863199D01*
X113685491Y-92829173D01*
X113756306Y-92834238D01*
X113813142Y-92876785D01*
X113837953Y-92943305D01*
X113832768Y-92989134D01*
X113830791Y-92995600D01*
X113826976Y-93003726D01*
X113825595Y-93012595D01*
X113809568Y-93115528D01*
X113808136Y-93124724D01*
X113809300Y-93133626D01*
X113809300Y-93133629D01*
X113815934Y-93184360D01*
X113804933Y-93254499D01*
X113780093Y-93289792D01*
X102544514Y-104525371D01*
X102482202Y-104559397D01*
X102411387Y-104554332D01*
X102354551Y-104511785D01*
X102344168Y-104495431D01*
X102318120Y-104446442D01*
X102196962Y-104297887D01*
X102133081Y-104245040D01*
X102054006Y-104179623D01*
X102054002Y-104179621D01*
X102049256Y-104175694D01*
X101880629Y-104084518D01*
X101789067Y-104056175D01*
X101703392Y-104029654D01*
X101703389Y-104029653D01*
X101697505Y-104027832D01*
X101691380Y-104027188D01*
X101691379Y-104027188D01*
X101512985Y-104008438D01*
X101512984Y-104008438D01*
X101506857Y-104007794D01*
X101426779Y-104015082D01*
X101322087Y-104024609D01*
X101322084Y-104024610D01*
X101315948Y-104025168D01*
X101310042Y-104026906D01*
X101310038Y-104026907D01*
X101174622Y-104066762D01*
X101132050Y-104079292D01*
X101126590Y-104082146D01*
X101126591Y-104082146D01*
X100967627Y-104165250D01*
X100967623Y-104165253D01*
X100962167Y-104168105D01*
X100957367Y-104171965D01*
X100957366Y-104171965D01*
X100952728Y-104175694D01*
X100812770Y-104288223D01*
X100689549Y-104435072D01*
X100686585Y-104440464D01*
X100686582Y-104440468D01*
X100639907Y-104525371D01*
X100597198Y-104603058D01*
X100539234Y-104785783D01*
X100517866Y-104976286D01*
X90180500Y-104976286D01*
X90180500Y-99327966D01*
X92648257Y-99327966D01*
X92678565Y-99462446D01*
X92681645Y-99472275D01*
X92761770Y-99669603D01*
X92766413Y-99678794D01*
X92877694Y-99860388D01*
X92883777Y-99868699D01*
X93023213Y-100029667D01*
X93030580Y-100036883D01*
X93194434Y-100172916D01*
X93202881Y-100178831D01*
X93386756Y-100286279D01*
X93396042Y-100290729D01*
X93595001Y-100366703D01*
X93604899Y-100369579D01*
X93708250Y-100390606D01*
X93722299Y-100389410D01*
X93726000Y-100379065D01*
X93726000Y-100378517D01*
X94234000Y-100378517D01*
X94238064Y-100392359D01*
X94251478Y-100394393D01*
X94258184Y-100393534D01*
X94268262Y-100391392D01*
X94472255Y-100330191D01*
X94481842Y-100326433D01*
X94673095Y-100232739D01*
X94681945Y-100227464D01*
X94855328Y-100103792D01*
X94863200Y-100097139D01*
X95014052Y-99946812D01*
X95020730Y-99938965D01*
X95051398Y-99896286D01*
X100517866Y-99896286D01*
X100518382Y-99902430D01*
X100531723Y-100061297D01*
X100533907Y-100087311D01*
X100535606Y-100093236D01*
X100575608Y-100232739D01*
X100586746Y-100271583D01*
X100589561Y-100277060D01*
X100589562Y-100277063D01*
X100637109Y-100369579D01*
X100674370Y-100442082D01*
X100678193Y-100446906D01*
X100678196Y-100446910D01*
X100777465Y-100572155D01*
X100793443Y-100592314D01*
X100798137Y-100596308D01*
X100798137Y-100596309D01*
X100898045Y-100681337D01*
X100939428Y-100716557D01*
X101106765Y-100810079D01*
X101289081Y-100869317D01*
X101479430Y-100892015D01*
X101485565Y-100891543D01*
X101485567Y-100891543D01*
X101664420Y-100877781D01*
X101664424Y-100877780D01*
X101670562Y-100877308D01*
X101855199Y-100825756D01*
X102026305Y-100739324D01*
X102051600Y-100719562D01*
X102172509Y-100625097D01*
X102177365Y-100621303D01*
X102216969Y-100575421D01*
X102298595Y-100480857D01*
X102298596Y-100480855D01*
X102302624Y-100476189D01*
X102397312Y-100309509D01*
X102434164Y-100198728D01*
X102474645Y-100140404D01*
X102540233Y-100113224D01*
X102553722Y-100112500D01*
X104193213Y-100112500D01*
X104195891Y-100112652D01*
X104206487Y-100116373D01*
X104220586Y-100114804D01*
X104220587Y-100114804D01*
X104234341Y-100113273D01*
X104243306Y-100112776D01*
X104245757Y-100112500D01*
X104252831Y-100112500D01*
X104259729Y-100110926D01*
X104262733Y-100110588D01*
X104270940Y-100109200D01*
X104298308Y-100106154D01*
X104308429Y-100099817D01*
X104320074Y-100097161D01*
X104341611Y-100079999D01*
X104348650Y-100075015D01*
X104350877Y-100073242D01*
X104356918Y-100069460D01*
X104361959Y-100064419D01*
X104364044Y-100062759D01*
X104370629Y-100056876D01*
X104381229Y-100048429D01*
X104392328Y-100039585D01*
X104397273Y-100029333D01*
X104399199Y-100027179D01*
X115115439Y-89310939D01*
X115177751Y-89276913D01*
X115219226Y-89275802D01*
X115220948Y-89276340D01*
X115343383Y-89278584D01*
X115461527Y-89246375D01*
X115545082Y-89195072D01*
X115558233Y-89186997D01*
X115565881Y-89182301D01*
X115648058Y-89091513D01*
X115701451Y-88981311D01*
X115704003Y-88966145D01*
X115720960Y-88865348D01*
X115721767Y-88860552D01*
X115721896Y-88850000D01*
X115712531Y-88784609D01*
X115705809Y-88737667D01*
X115705808Y-88737664D01*
X115704536Y-88728781D01*
X115653852Y-88617307D01*
X115616087Y-88573478D01*
X115579776Y-88531337D01*
X115579774Y-88531335D01*
X115573918Y-88524539D01*
X115471160Y-88457935D01*
X115353838Y-88422848D01*
X115344862Y-88422793D01*
X115344861Y-88422793D01*
X115294483Y-88422485D01*
X115231385Y-88422100D01*
X115113644Y-88455751D01*
X115010080Y-88521095D01*
X114929018Y-88612879D01*
X114876976Y-88723726D01*
X114875595Y-88732595D01*
X114866711Y-88789654D01*
X114858136Y-88844724D01*
X114859300Y-88853626D01*
X114859300Y-88853629D01*
X114867523Y-88916507D01*
X114856523Y-88986646D01*
X114831682Y-89021940D01*
X104183027Y-99670595D01*
X104120715Y-99704621D01*
X104093932Y-99707500D01*
X102553562Y-99707500D01*
X102485441Y-99687498D01*
X102438948Y-99633842D01*
X102432940Y-99617918D01*
X102417345Y-99566267D01*
X102408117Y-99535701D01*
X102393248Y-99507737D01*
X102321014Y-99371884D01*
X102321012Y-99371881D01*
X102318120Y-99366442D01*
X102196962Y-99217887D01*
X102133081Y-99165040D01*
X102054006Y-99099623D01*
X102054002Y-99099621D01*
X102049256Y-99095694D01*
X101880629Y-99004518D01*
X101789067Y-98976175D01*
X101703392Y-98949654D01*
X101703389Y-98949653D01*
X101697505Y-98947832D01*
X101691380Y-98947188D01*
X101691379Y-98947188D01*
X101512985Y-98928438D01*
X101512984Y-98928438D01*
X101506857Y-98927794D01*
X101426779Y-98935082D01*
X101322087Y-98944609D01*
X101322084Y-98944610D01*
X101315948Y-98945168D01*
X101310042Y-98946906D01*
X101310038Y-98946907D01*
X101174622Y-98986762D01*
X101132050Y-98999292D01*
X101126590Y-99002146D01*
X101126591Y-99002146D01*
X100967627Y-99085250D01*
X100967623Y-99085253D01*
X100962167Y-99088105D01*
X100957367Y-99091965D01*
X100957366Y-99091965D01*
X100952728Y-99095694D01*
X100812770Y-99208223D01*
X100689549Y-99355072D01*
X100686585Y-99360464D01*
X100686582Y-99360468D01*
X100616083Y-99488707D01*
X100597198Y-99523058D01*
X100595337Y-99528925D01*
X100595336Y-99528927D01*
X100562860Y-99631305D01*
X100539234Y-99705783D01*
X100517866Y-99896286D01*
X95051398Y-99896286D01*
X95145003Y-99766020D01*
X95150313Y-99757183D01*
X95244670Y-99566267D01*
X95248469Y-99556672D01*
X95310377Y-99352910D01*
X95312555Y-99342837D01*
X95313986Y-99331962D01*
X95311775Y-99317778D01*
X95298617Y-99314000D01*
X94252115Y-99314000D01*
X94236876Y-99318475D01*
X94235671Y-99319865D01*
X94234000Y-99327548D01*
X94234000Y-100378517D01*
X93726000Y-100378517D01*
X93726000Y-99332115D01*
X93721525Y-99316876D01*
X93720135Y-99315671D01*
X93712452Y-99314000D01*
X92663225Y-99314000D01*
X92649694Y-99317973D01*
X92648257Y-99327966D01*
X90180500Y-99327966D01*
X90180500Y-98794183D01*
X92644389Y-98794183D01*
X92645912Y-98802607D01*
X92658292Y-98806000D01*
X95298344Y-98806000D01*
X95311875Y-98802027D01*
X95313180Y-98792947D01*
X95271214Y-98625875D01*
X95267894Y-98616124D01*
X95182972Y-98420814D01*
X95178105Y-98411739D01*
X95062426Y-98232926D01*
X95056136Y-98224757D01*
X94912806Y-98067240D01*
X94905273Y-98060215D01*
X94738139Y-97928222D01*
X94729552Y-97922517D01*
X94543117Y-97819599D01*
X94533705Y-97815369D01*
X94332959Y-97744280D01*
X94322989Y-97741646D01*
X94205383Y-97720698D01*
X94141826Y-97689060D01*
X94105463Y-97628083D01*
X94107839Y-97557126D01*
X94148200Y-97498718D01*
X94193595Y-97475293D01*
X94228177Y-97465637D01*
X94335199Y-97435756D01*
X94492523Y-97356286D01*
X100517866Y-97356286D01*
X100519479Y-97375489D01*
X100531723Y-97521297D01*
X100533907Y-97547311D01*
X100535606Y-97553236D01*
X100583625Y-97720698D01*
X100586746Y-97731583D01*
X100589561Y-97737060D01*
X100589562Y-97737063D01*
X100671437Y-97896375D01*
X100674370Y-97902082D01*
X100678193Y-97906906D01*
X100678196Y-97906910D01*
X100785904Y-98042802D01*
X100793443Y-98052314D01*
X100939428Y-98176557D01*
X101106765Y-98270079D01*
X101289081Y-98329317D01*
X101479430Y-98352015D01*
X101485565Y-98351543D01*
X101485567Y-98351543D01*
X101664420Y-98337781D01*
X101664424Y-98337780D01*
X101670562Y-98337308D01*
X101855199Y-98285756D01*
X102026305Y-98199324D01*
X102051600Y-98179562D01*
X102172509Y-98085097D01*
X102177365Y-98081303D01*
X102206558Y-98047483D01*
X102298595Y-97940857D01*
X102298596Y-97940855D01*
X102302624Y-97936189D01*
X102397312Y-97769509D01*
X102434164Y-97658728D01*
X102474645Y-97600404D01*
X102540233Y-97573224D01*
X102553722Y-97572500D01*
X103533213Y-97572500D01*
X103535891Y-97572652D01*
X103546487Y-97576373D01*
X103560586Y-97574804D01*
X103560587Y-97574804D01*
X103574341Y-97573273D01*
X103583306Y-97572776D01*
X103585757Y-97572500D01*
X103592831Y-97572500D01*
X103599729Y-97570926D01*
X103602733Y-97570588D01*
X103610940Y-97569200D01*
X103638308Y-97566154D01*
X103648429Y-97559817D01*
X103660074Y-97557161D01*
X103681611Y-97539999D01*
X103688650Y-97535015D01*
X103690877Y-97533242D01*
X103696918Y-97529460D01*
X103701959Y-97524419D01*
X103704044Y-97522759D01*
X103710629Y-97516876D01*
X103732328Y-97499585D01*
X103737273Y-97489333D01*
X103739199Y-97487179D01*
X115955439Y-85270939D01*
X116017751Y-85236913D01*
X116059226Y-85235802D01*
X116060948Y-85236340D01*
X116183383Y-85238584D01*
X116301527Y-85206375D01*
X116405881Y-85142301D01*
X116488058Y-85051513D01*
X116541451Y-84941311D01*
X116544003Y-84926145D01*
X116560960Y-84825348D01*
X116561767Y-84820552D01*
X116561896Y-84810000D01*
X116544536Y-84688781D01*
X116493852Y-84577307D01*
X116413918Y-84484539D01*
X116311160Y-84417935D01*
X116193838Y-84382848D01*
X116184862Y-84382793D01*
X116184861Y-84382793D01*
X116134483Y-84382485D01*
X116071385Y-84382100D01*
X115953644Y-84415751D01*
X115946057Y-84420538D01*
X115946055Y-84420539D01*
X115903328Y-84447498D01*
X115850080Y-84481095D01*
X115769018Y-84572879D01*
X115716976Y-84683726D01*
X115698136Y-84804724D01*
X115699300Y-84813626D01*
X115699300Y-84813629D01*
X115707523Y-84876507D01*
X115696523Y-84946646D01*
X115671682Y-84981940D01*
X103523027Y-97130595D01*
X103460715Y-97164621D01*
X103433932Y-97167500D01*
X102553562Y-97167500D01*
X102485441Y-97147498D01*
X102438948Y-97093842D01*
X102432940Y-97077918D01*
X102409898Y-97001601D01*
X102408117Y-96995701D01*
X102398526Y-96977663D01*
X102321014Y-96831884D01*
X102321012Y-96831881D01*
X102318120Y-96826442D01*
X102250445Y-96743464D01*
X102200856Y-96682661D01*
X102200854Y-96682659D01*
X102196962Y-96677887D01*
X102133081Y-96625040D01*
X102054006Y-96559623D01*
X102054002Y-96559621D01*
X102049256Y-96555694D01*
X101880629Y-96464518D01*
X101789067Y-96436175D01*
X101703392Y-96409654D01*
X101703389Y-96409653D01*
X101697505Y-96407832D01*
X101691380Y-96407188D01*
X101691379Y-96407188D01*
X101512985Y-96388438D01*
X101512984Y-96388438D01*
X101506857Y-96387794D01*
X101426779Y-96395082D01*
X101322087Y-96404609D01*
X101322084Y-96404610D01*
X101315948Y-96405168D01*
X101310042Y-96406906D01*
X101310038Y-96406907D01*
X101174622Y-96446762D01*
X101132050Y-96459292D01*
X101126590Y-96462146D01*
X101126591Y-96462146D01*
X100967627Y-96545250D01*
X100967623Y-96545253D01*
X100962167Y-96548105D01*
X100957367Y-96551965D01*
X100957366Y-96551965D01*
X100952728Y-96555694D01*
X100812770Y-96668223D01*
X100808812Y-96672940D01*
X100808810Y-96672942D01*
X100759680Y-96731493D01*
X100689549Y-96815072D01*
X100686585Y-96820464D01*
X100686582Y-96820468D01*
X100635410Y-96913551D01*
X100597198Y-96983058D01*
X100595337Y-96988925D01*
X100595336Y-96988927D01*
X100556036Y-97112817D01*
X100539234Y-97165783D01*
X100517866Y-97356286D01*
X94492523Y-97356286D01*
X94506305Y-97349324D01*
X94531600Y-97329562D01*
X94652509Y-97235097D01*
X94657365Y-97231303D01*
X94686558Y-97197483D01*
X94778595Y-97090857D01*
X94778596Y-97090855D01*
X94782624Y-97086189D01*
X94877312Y-96919509D01*
X94937821Y-96737612D01*
X94961847Y-96547425D01*
X94962230Y-96520000D01*
X94943524Y-96329217D01*
X94888117Y-96145701D01*
X94848413Y-96071029D01*
X94801014Y-95981884D01*
X94801012Y-95981881D01*
X94798120Y-95976442D01*
X94747784Y-95914724D01*
X94680856Y-95832661D01*
X94680854Y-95832659D01*
X94676962Y-95827887D01*
X94561034Y-95731983D01*
X94534006Y-95709623D01*
X94534002Y-95709621D01*
X94529256Y-95705694D01*
X94360629Y-95614518D01*
X94269067Y-95586175D01*
X94183392Y-95559654D01*
X94183389Y-95559653D01*
X94177505Y-95557832D01*
X94171380Y-95557188D01*
X94171379Y-95557188D01*
X93992985Y-95538438D01*
X93992984Y-95538438D01*
X93986857Y-95537794D01*
X93906779Y-95545082D01*
X93802087Y-95554609D01*
X93802084Y-95554610D01*
X93795948Y-95555168D01*
X93790042Y-95556906D01*
X93790038Y-95556907D01*
X93654622Y-95596762D01*
X93612050Y-95609292D01*
X93606590Y-95612146D01*
X93606591Y-95612146D01*
X93447627Y-95695250D01*
X93447623Y-95695253D01*
X93442167Y-95698105D01*
X93437367Y-95701965D01*
X93437366Y-95701965D01*
X93432728Y-95705694D01*
X93292770Y-95818223D01*
X93288812Y-95822940D01*
X93288810Y-95822942D01*
X93211796Y-95914724D01*
X93169549Y-95965072D01*
X93166585Y-95970464D01*
X93166582Y-95970468D01*
X93122139Y-96051311D01*
X93077198Y-96133058D01*
X93075337Y-96138925D01*
X93075336Y-96138927D01*
X93066061Y-96168167D01*
X93019234Y-96315783D01*
X92997866Y-96506286D01*
X92998382Y-96512430D01*
X93011861Y-96672942D01*
X93013907Y-96697311D01*
X93015606Y-96703236D01*
X93050935Y-96826442D01*
X93066746Y-96881583D01*
X93069561Y-96887060D01*
X93069562Y-96887063D01*
X93119253Y-96983751D01*
X93154370Y-97052082D01*
X93158193Y-97056906D01*
X93158196Y-97056910D01*
X93202508Y-97112817D01*
X93273443Y-97202314D01*
X93278137Y-97206308D01*
X93278137Y-97206309D01*
X93365422Y-97280594D01*
X93419428Y-97326557D01*
X93586765Y-97420079D01*
X93764346Y-97477778D01*
X93822951Y-97517851D01*
X93850588Y-97583248D01*
X93838481Y-97653205D01*
X93790475Y-97705511D01*
X93744469Y-97722161D01*
X93669319Y-97733661D01*
X93659293Y-97736050D01*
X93456868Y-97802212D01*
X93447359Y-97806209D01*
X93258463Y-97904542D01*
X93249738Y-97910036D01*
X93079433Y-98037905D01*
X93071726Y-98044748D01*
X92924590Y-98198717D01*
X92918104Y-98206727D01*
X92798098Y-98382649D01*
X92793000Y-98391623D01*
X92703338Y-98584783D01*
X92699775Y-98594470D01*
X92644389Y-98794183D01*
X90180500Y-98794183D01*
X90180500Y-94842558D01*
X93002500Y-94842558D01*
X93009898Y-94879748D01*
X93038078Y-94921922D01*
X93080252Y-94950102D01*
X93092422Y-94952523D01*
X93111377Y-94956294D01*
X93111382Y-94956294D01*
X93117442Y-94957500D01*
X94842558Y-94957500D01*
X94848618Y-94956294D01*
X94848623Y-94956294D01*
X94867578Y-94952523D01*
X94879748Y-94950102D01*
X94921922Y-94921922D01*
X94950102Y-94879748D01*
X94957500Y-94842558D01*
X94957500Y-94816286D01*
X100517866Y-94816286D01*
X100533907Y-95007311D01*
X100535606Y-95013236D01*
X100543709Y-95041493D01*
X100586746Y-95191583D01*
X100674370Y-95362082D01*
X100678193Y-95366906D01*
X100678196Y-95366910D01*
X100777465Y-95492155D01*
X100793443Y-95512314D01*
X100798137Y-95516308D01*
X100798137Y-95516309D01*
X100898045Y-95601337D01*
X100939428Y-95636557D01*
X101106765Y-95730079D01*
X101289081Y-95789317D01*
X101479430Y-95812015D01*
X101485565Y-95811543D01*
X101485567Y-95811543D01*
X101664420Y-95797781D01*
X101664424Y-95797780D01*
X101670562Y-95797308D01*
X101855199Y-95745756D01*
X102026305Y-95659324D01*
X102051600Y-95639562D01*
X102172509Y-95545097D01*
X102177365Y-95541303D01*
X102216969Y-95495421D01*
X102298595Y-95400857D01*
X102298596Y-95400855D01*
X102302624Y-95396189D01*
X102397312Y-95229509D01*
X102457821Y-95047612D01*
X102481847Y-94857425D01*
X102482230Y-94830000D01*
X102463524Y-94639217D01*
X102408117Y-94455701D01*
X102365993Y-94376477D01*
X102351673Y-94306940D01*
X102377221Y-94240699D01*
X102388149Y-94228229D01*
X115826973Y-80789405D01*
X115889285Y-80755379D01*
X115916068Y-80752500D01*
X117473017Y-80752500D01*
X117541138Y-80772502D01*
X117569468Y-80797425D01*
X117632127Y-80871968D01*
X117734064Y-80939823D01*
X117850948Y-80976340D01*
X117973383Y-80978584D01*
X117991434Y-80973663D01*
X118082863Y-80948737D01*
X118091527Y-80946375D01*
X118195881Y-80882301D01*
X118278058Y-80791513D01*
X118331451Y-80681311D01*
X118351767Y-80560552D01*
X118351896Y-80550000D01*
X118334536Y-80428781D01*
X118326713Y-80411574D01*
X118299752Y-80352277D01*
X118283852Y-80317307D01*
X118203918Y-80224539D01*
X118101160Y-80157935D01*
X117983838Y-80122848D01*
X117974862Y-80122793D01*
X117974861Y-80122793D01*
X117924483Y-80122485D01*
X117861385Y-80122100D01*
X117743644Y-80155751D01*
X117640080Y-80221095D01*
X117634137Y-80227824D01*
X117566058Y-80304908D01*
X117505972Y-80342726D01*
X117471617Y-80347500D01*
X115816788Y-80347500D01*
X115814110Y-80347348D01*
X115803514Y-80343627D01*
X115789415Y-80345196D01*
X115789414Y-80345196D01*
X115781313Y-80346098D01*
X115775658Y-80346727D01*
X115766693Y-80347224D01*
X115764243Y-80347500D01*
X115757169Y-80347500D01*
X115750271Y-80349074D01*
X115747267Y-80349412D01*
X115739060Y-80350800D01*
X115711692Y-80353846D01*
X115701570Y-80360183D01*
X115689926Y-80362839D01*
X115678830Y-80371681D01*
X115668395Y-80379996D01*
X115661347Y-80384987D01*
X115659127Y-80386755D01*
X115653082Y-80390539D01*
X115648035Y-80395586D01*
X115645954Y-80397243D01*
X115639366Y-80403128D01*
X115617672Y-80420415D01*
X115612727Y-80430666D01*
X115610802Y-80432819D01*
X108841192Y-87202430D01*
X102101823Y-93941799D01*
X102039511Y-93975825D01*
X101968696Y-93970760D01*
X101952800Y-93963540D01*
X101912590Y-93941799D01*
X101880629Y-93924518D01*
X101858129Y-93917553D01*
X101703392Y-93869654D01*
X101703389Y-93869653D01*
X101697505Y-93867832D01*
X101691380Y-93867188D01*
X101691379Y-93867188D01*
X101512985Y-93848438D01*
X101512984Y-93848438D01*
X101506857Y-93847794D01*
X101426779Y-93855082D01*
X101322087Y-93864609D01*
X101322084Y-93864610D01*
X101315948Y-93865168D01*
X101310042Y-93866906D01*
X101310038Y-93866907D01*
X101174622Y-93906762D01*
X101132050Y-93919292D01*
X101126590Y-93922146D01*
X101126591Y-93922146D01*
X100967627Y-94005250D01*
X100967623Y-94005253D01*
X100962167Y-94008105D01*
X100812770Y-94128223D01*
X100689549Y-94275072D01*
X100686585Y-94280464D01*
X100686582Y-94280468D01*
X100679057Y-94294156D01*
X100597198Y-94443058D01*
X100539234Y-94625783D01*
X100517866Y-94816286D01*
X94957500Y-94816286D01*
X94957500Y-93117442D01*
X94953346Y-93096557D01*
X94952523Y-93092422D01*
X94950102Y-93080252D01*
X94921922Y-93038078D01*
X94879748Y-93009898D01*
X94867578Y-93007477D01*
X94848623Y-93003706D01*
X94848618Y-93003706D01*
X94842558Y-93002500D01*
X93117442Y-93002500D01*
X93111382Y-93003706D01*
X93111377Y-93003706D01*
X93092422Y-93007477D01*
X93080252Y-93009898D01*
X93038078Y-93038078D01*
X93009898Y-93080252D01*
X93007477Y-93092422D01*
X93006655Y-93096557D01*
X93002500Y-93117442D01*
X93002500Y-94842558D01*
X90180500Y-94842558D01*
X90180500Y-92276286D01*
X100517866Y-92276286D01*
X100518382Y-92282430D01*
X100531723Y-92441297D01*
X100533907Y-92467311D01*
X100535606Y-92473236D01*
X100578622Y-92623250D01*
X100586746Y-92651583D01*
X100589561Y-92657060D01*
X100589562Y-92657063D01*
X100662846Y-92799659D01*
X100674370Y-92822082D01*
X100678193Y-92826906D01*
X100678196Y-92826910D01*
X100770451Y-92943305D01*
X100793443Y-92972314D01*
X100798137Y-92976308D01*
X100798137Y-92976309D01*
X100920270Y-93080252D01*
X100939428Y-93096557D01*
X101106765Y-93190079D01*
X101289081Y-93249317D01*
X101479430Y-93272015D01*
X101485565Y-93271543D01*
X101485567Y-93271543D01*
X101664420Y-93257781D01*
X101664424Y-93257780D01*
X101670562Y-93257308D01*
X101855199Y-93205756D01*
X102026305Y-93119324D01*
X102051600Y-93099562D01*
X102172509Y-93005097D01*
X102177365Y-93001303D01*
X102227428Y-92943305D01*
X102298595Y-92860857D01*
X102298596Y-92860855D01*
X102302624Y-92856189D01*
X102397312Y-92689509D01*
X102434164Y-92578728D01*
X102474645Y-92520404D01*
X102540233Y-92493224D01*
X102553722Y-92492500D01*
X102793213Y-92492500D01*
X102795891Y-92492652D01*
X102806487Y-92496373D01*
X102820586Y-92494804D01*
X102820587Y-92494804D01*
X102834341Y-92493273D01*
X102843306Y-92492776D01*
X102845757Y-92492500D01*
X102852831Y-92492500D01*
X102859729Y-92490926D01*
X102862733Y-92490588D01*
X102870940Y-92489200D01*
X102898308Y-92486154D01*
X102908429Y-92479817D01*
X102920074Y-92477161D01*
X102941611Y-92459999D01*
X102948650Y-92455015D01*
X102950877Y-92453242D01*
X102956918Y-92449460D01*
X102961959Y-92444419D01*
X102964044Y-92442759D01*
X102970629Y-92436876D01*
X102981229Y-92428429D01*
X102992328Y-92419585D01*
X102997273Y-92409333D01*
X102999199Y-92407179D01*
X118595439Y-76810939D01*
X118657751Y-76776913D01*
X118699226Y-76775802D01*
X118700948Y-76776340D01*
X118823383Y-76778584D01*
X118941527Y-76746375D01*
X119045881Y-76682301D01*
X119128058Y-76591513D01*
X119181451Y-76481311D01*
X119184003Y-76466145D01*
X119196508Y-76391810D01*
X119201767Y-76360552D01*
X119201896Y-76350000D01*
X119184536Y-76228781D01*
X119133852Y-76117307D01*
X119107159Y-76086328D01*
X119059776Y-76031337D01*
X119059774Y-76031335D01*
X119053918Y-76024539D01*
X118951160Y-75957935D01*
X118833838Y-75922848D01*
X118824862Y-75922793D01*
X118824861Y-75922793D01*
X118727597Y-75922199D01*
X118659600Y-75901781D01*
X118613436Y-75847842D01*
X118603761Y-75777508D01*
X118633648Y-75713108D01*
X118639272Y-75707106D01*
X119895439Y-74450939D01*
X119957751Y-74416913D01*
X119999226Y-74415802D01*
X120000948Y-74416340D01*
X120123383Y-74418584D01*
X120241527Y-74386375D01*
X120345881Y-74322301D01*
X120357243Y-74309749D01*
X120422035Y-74238167D01*
X120428058Y-74231513D01*
X120481451Y-74121311D01*
X120484003Y-74106145D01*
X120500960Y-74005348D01*
X120501767Y-74000552D01*
X120501896Y-73990000D01*
X120484536Y-73868781D01*
X120433852Y-73757307D01*
X120353918Y-73664539D01*
X120251160Y-73597935D01*
X120133838Y-73562848D01*
X120124862Y-73562793D01*
X120124861Y-73562793D01*
X120074483Y-73562485D01*
X120011385Y-73562100D01*
X119986480Y-73569218D01*
X119915485Y-73568706D01*
X119856038Y-73529892D01*
X119827011Y-73465100D01*
X119837622Y-73394901D01*
X119862760Y-73358974D01*
X119944321Y-73277413D01*
X119949105Y-73272872D01*
X119978163Y-73246708D01*
X119986514Y-73227951D01*
X119995949Y-73210573D01*
X119999922Y-73204456D01*
X119999923Y-73204454D01*
X120007134Y-73193350D01*
X120009205Y-73180271D01*
X120011047Y-73175474D01*
X120012114Y-73170454D01*
X120017500Y-73158357D01*
X120017500Y-73137818D01*
X120019051Y-73118107D01*
X120020192Y-73110904D01*
X120022263Y-73097828D01*
X120018836Y-73085039D01*
X120018143Y-73071811D01*
X120018596Y-73071787D01*
X120017500Y-73063463D01*
X120017500Y-72939970D01*
X120037502Y-72871849D01*
X120061009Y-72845292D01*
X120065881Y-72842301D01*
X120108946Y-72794724D01*
X120142035Y-72758167D01*
X120148058Y-72751513D01*
X120201451Y-72641311D01*
X120204003Y-72626145D01*
X120220960Y-72525348D01*
X120221767Y-72520552D01*
X120221896Y-72510000D01*
X120214890Y-72461080D01*
X120205809Y-72397667D01*
X120205808Y-72397664D01*
X120204536Y-72388781D01*
X120153852Y-72277307D01*
X120073918Y-72184539D01*
X119971160Y-72117935D01*
X119853838Y-72082848D01*
X119844862Y-72082793D01*
X119844861Y-72082793D01*
X119794483Y-72082485D01*
X119731385Y-72082100D01*
X119613644Y-72115751D01*
X119510080Y-72181095D01*
X119429018Y-72272879D01*
X119402997Y-72328303D01*
X119382409Y-72372155D01*
X119376976Y-72383726D01*
X119375595Y-72392595D01*
X119363596Y-72469659D01*
X119358136Y-72504724D01*
X119359300Y-72513626D01*
X119359300Y-72513629D01*
X119372850Y-72617246D01*
X119374014Y-72626145D01*
X119423333Y-72738230D01*
X119502127Y-72831968D01*
X119509605Y-72836946D01*
X119516292Y-72842925D01*
X119514679Y-72844729D01*
X119551938Y-72889147D01*
X119562500Y-72939645D01*
X119562500Y-72963577D01*
X119542498Y-73031698D01*
X119525595Y-73052672D01*
X118225679Y-74352587D01*
X118220895Y-74357128D01*
X118191837Y-74383292D01*
X118186451Y-74395390D01*
X118186450Y-74395391D01*
X118183486Y-74402049D01*
X118174051Y-74419427D01*
X118170078Y-74425544D01*
X118170077Y-74425546D01*
X118162866Y-74436650D01*
X118160795Y-74449729D01*
X118158953Y-74454526D01*
X118157886Y-74459546D01*
X118152500Y-74471643D01*
X118152500Y-74492182D01*
X118150949Y-74511891D01*
X118147737Y-74532172D01*
X118151164Y-74544961D01*
X118151857Y-74558189D01*
X118151404Y-74558213D01*
X118152500Y-74566537D01*
X118152500Y-74591946D01*
X118132498Y-74660067D01*
X118078842Y-74706560D01*
X118008568Y-74716664D01*
X117943988Y-74687170D01*
X117920351Y-74659831D01*
X117917567Y-74655478D01*
X117913852Y-74647307D01*
X117904429Y-74636371D01*
X117839776Y-74561337D01*
X117839774Y-74561335D01*
X117833918Y-74554539D01*
X117731160Y-74487935D01*
X117613838Y-74452848D01*
X117604862Y-74452793D01*
X117604861Y-74452793D01*
X117554483Y-74452485D01*
X117491385Y-74452100D01*
X117373644Y-74485751D01*
X117270080Y-74551095D01*
X117264137Y-74557824D01*
X117206841Y-74622699D01*
X117189018Y-74642879D01*
X117175435Y-74671810D01*
X117143702Y-74739401D01*
X117136976Y-74753726D01*
X117118136Y-74874724D01*
X117119300Y-74883626D01*
X117119300Y-74883629D01*
X117127523Y-74946506D01*
X117116523Y-75016645D01*
X117091682Y-75051939D01*
X107713027Y-84430595D01*
X107650715Y-84464621D01*
X107623932Y-84467500D01*
X102553562Y-84467500D01*
X102485441Y-84447498D01*
X102438948Y-84393842D01*
X102432940Y-84377918D01*
X102409898Y-84301601D01*
X102408117Y-84295701D01*
X102318120Y-84126442D01*
X102196962Y-83977887D01*
X102133081Y-83925040D01*
X102054006Y-83859623D01*
X102054002Y-83859621D01*
X102049256Y-83855694D01*
X101880629Y-83764518D01*
X101789067Y-83736175D01*
X101703392Y-83709654D01*
X101703389Y-83709653D01*
X101697505Y-83707832D01*
X101691380Y-83707188D01*
X101691379Y-83707188D01*
X101512985Y-83688438D01*
X101512984Y-83688438D01*
X101506857Y-83687794D01*
X101426779Y-83695082D01*
X101322087Y-83704609D01*
X101322084Y-83704610D01*
X101315948Y-83705168D01*
X101310042Y-83706906D01*
X101310038Y-83706907D01*
X101174622Y-83746762D01*
X101132050Y-83759292D01*
X101126590Y-83762146D01*
X101126591Y-83762146D01*
X100967627Y-83845250D01*
X100967623Y-83845253D01*
X100962167Y-83848105D01*
X100957367Y-83851965D01*
X100957366Y-83851965D01*
X100952728Y-83855694D01*
X100812770Y-83968223D01*
X100689549Y-84115072D01*
X100686585Y-84120464D01*
X100686582Y-84120468D01*
X100611110Y-84257752D01*
X100597198Y-84283058D01*
X100595337Y-84288925D01*
X100595336Y-84288927D01*
X100564997Y-84384567D01*
X100539234Y-84465783D01*
X100517866Y-84656286D01*
X100518382Y-84662430D01*
X100532063Y-84825348D01*
X100533907Y-84847311D01*
X100535606Y-84853236D01*
X100558324Y-84932462D01*
X100586746Y-85031583D01*
X100589561Y-85037060D01*
X100589562Y-85037063D01*
X100603229Y-85063656D01*
X100674370Y-85202082D01*
X100678193Y-85206906D01*
X100678196Y-85206910D01*
X100785904Y-85342802D01*
X100793443Y-85352314D01*
X100939428Y-85476557D01*
X101106765Y-85570079D01*
X101289081Y-85629317D01*
X101479430Y-85652015D01*
X101485565Y-85651543D01*
X101485567Y-85651543D01*
X101664420Y-85637781D01*
X101664424Y-85637780D01*
X101670562Y-85637308D01*
X101855199Y-85585756D01*
X102026305Y-85499324D01*
X102051600Y-85479562D01*
X102172509Y-85385097D01*
X102177365Y-85381303D01*
X102302624Y-85236189D01*
X102397312Y-85069509D01*
X102411899Y-85025659D01*
X102434164Y-84958728D01*
X102474645Y-84900404D01*
X102540233Y-84873224D01*
X102553722Y-84872500D01*
X107723213Y-84872500D01*
X107725891Y-84872652D01*
X107736487Y-84876373D01*
X107750586Y-84874804D01*
X107750587Y-84874804D01*
X107764341Y-84873273D01*
X107773306Y-84872776D01*
X107775757Y-84872500D01*
X107782831Y-84872500D01*
X107789729Y-84870926D01*
X107792733Y-84870588D01*
X107800940Y-84869200D01*
X107828308Y-84866154D01*
X107838429Y-84859817D01*
X107850074Y-84857161D01*
X107853817Y-84854178D01*
X107854771Y-84856917D01*
X107901888Y-84843685D01*
X107969768Y-84864490D01*
X108015624Y-84918691D01*
X108024897Y-84989079D01*
X107994643Y-85053307D01*
X107989495Y-85058771D01*
X106102671Y-86945595D01*
X106040359Y-86979621D01*
X106013576Y-86982500D01*
X102546014Y-86982500D01*
X102477893Y-86962498D01*
X102431400Y-86908842D01*
X102425392Y-86892918D01*
X102409898Y-86841601D01*
X102408117Y-86835701D01*
X102318120Y-86666442D01*
X102196962Y-86517887D01*
X102133081Y-86465040D01*
X102054006Y-86399623D01*
X102054002Y-86399621D01*
X102049256Y-86395694D01*
X101880629Y-86304518D01*
X101789067Y-86276175D01*
X101703392Y-86249654D01*
X101703389Y-86249653D01*
X101697505Y-86247832D01*
X101691380Y-86247188D01*
X101691379Y-86247188D01*
X101512985Y-86228438D01*
X101512984Y-86228438D01*
X101506857Y-86227794D01*
X101426779Y-86235082D01*
X101322087Y-86244609D01*
X101322084Y-86244610D01*
X101315948Y-86245168D01*
X101310042Y-86246906D01*
X101310038Y-86246907D01*
X101174622Y-86286762D01*
X101132050Y-86299292D01*
X101126590Y-86302146D01*
X101126591Y-86302146D01*
X100967627Y-86385250D01*
X100967623Y-86385253D01*
X100962167Y-86388105D01*
X100957367Y-86391965D01*
X100957366Y-86391965D01*
X100952728Y-86395694D01*
X100812770Y-86508223D01*
X100689549Y-86655072D01*
X100686585Y-86660464D01*
X100686582Y-86660468D01*
X100611110Y-86797752D01*
X100597198Y-86823058D01*
X100595337Y-86828925D01*
X100595336Y-86828927D01*
X100558327Y-86945595D01*
X100539234Y-87005783D01*
X100517866Y-87196286D01*
X100518382Y-87202430D01*
X100530748Y-87349688D01*
X100533907Y-87387311D01*
X100535606Y-87393236D01*
X100582643Y-87557273D01*
X100586746Y-87571583D01*
X100589561Y-87577060D01*
X100589562Y-87577063D01*
X100606237Y-87609509D01*
X100674370Y-87742082D01*
X100678193Y-87746906D01*
X100678196Y-87746910D01*
X100785904Y-87882802D01*
X100793443Y-87892314D01*
X100798137Y-87896308D01*
X100798137Y-87896309D01*
X100910721Y-87992125D01*
X100939428Y-88016557D01*
X101106765Y-88110079D01*
X101289081Y-88169317D01*
X101479430Y-88192015D01*
X101485565Y-88191543D01*
X101485567Y-88191543D01*
X101664420Y-88177781D01*
X101664424Y-88177780D01*
X101670562Y-88177308D01*
X101855199Y-88125756D01*
X102026305Y-88039324D01*
X102051600Y-88019562D01*
X102172509Y-87925097D01*
X102177365Y-87921303D01*
X102249198Y-87838084D01*
X102298595Y-87780857D01*
X102298596Y-87780855D01*
X102302624Y-87776189D01*
X102397312Y-87609509D01*
X102411899Y-87565659D01*
X102425848Y-87523728D01*
X102466330Y-87465403D01*
X102531918Y-87438224D01*
X102545406Y-87437500D01*
X106031932Y-87437500D01*
X106100053Y-87457502D01*
X106146546Y-87511158D01*
X106156650Y-87581432D01*
X106127156Y-87646012D01*
X106121027Y-87652595D01*
X104263027Y-89510595D01*
X104200715Y-89544621D01*
X104173932Y-89547500D01*
X102553562Y-89547500D01*
X102485441Y-89527498D01*
X102438948Y-89473842D01*
X102432940Y-89457918D01*
X102409898Y-89381601D01*
X102408117Y-89375701D01*
X102364704Y-89294053D01*
X102321014Y-89211884D01*
X102321012Y-89211881D01*
X102318120Y-89206442D01*
X102240685Y-89111497D01*
X102200856Y-89062661D01*
X102200854Y-89062659D01*
X102196962Y-89057887D01*
X102133081Y-89005040D01*
X102054006Y-88939623D01*
X102054002Y-88939621D01*
X102049256Y-88935694D01*
X101899754Y-88854859D01*
X101886048Y-88847448D01*
X101880629Y-88844518D01*
X101789067Y-88816175D01*
X101703392Y-88789654D01*
X101703389Y-88789653D01*
X101697505Y-88787832D01*
X101691380Y-88787188D01*
X101691379Y-88787188D01*
X101512985Y-88768438D01*
X101512984Y-88768438D01*
X101506857Y-88767794D01*
X101426779Y-88775082D01*
X101322087Y-88784609D01*
X101322084Y-88784610D01*
X101315948Y-88785168D01*
X101310042Y-88786906D01*
X101310038Y-88786907D01*
X101174622Y-88826762D01*
X101132050Y-88839292D01*
X101126590Y-88842146D01*
X101126591Y-88842146D01*
X100967627Y-88925250D01*
X100967623Y-88925253D01*
X100962167Y-88928105D01*
X100957367Y-88931965D01*
X100957366Y-88931965D01*
X100952728Y-88935694D01*
X100812770Y-89048223D01*
X100808812Y-89052940D01*
X100808810Y-89052942D01*
X100769437Y-89099865D01*
X100689549Y-89195072D01*
X100686585Y-89200464D01*
X100686582Y-89200468D01*
X100643638Y-89278584D01*
X100597198Y-89363058D01*
X100595337Y-89368925D01*
X100595336Y-89368927D01*
X100562055Y-89473842D01*
X100539234Y-89545783D01*
X100517866Y-89736286D01*
X100518382Y-89742430D01*
X100531723Y-89901297D01*
X100533907Y-89927311D01*
X100535606Y-89933236D01*
X100576324Y-90075236D01*
X100586746Y-90111583D01*
X100589561Y-90117060D01*
X100589562Y-90117063D01*
X100592473Y-90122727D01*
X100674370Y-90282082D01*
X100678193Y-90286906D01*
X100678196Y-90286910D01*
X100755599Y-90384567D01*
X100793443Y-90432314D01*
X100939428Y-90556557D01*
X101106765Y-90650079D01*
X101289081Y-90709317D01*
X101479430Y-90732015D01*
X101485565Y-90731543D01*
X101485567Y-90731543D01*
X101664420Y-90717781D01*
X101664424Y-90717780D01*
X101670562Y-90717308D01*
X101855199Y-90665756D01*
X102026305Y-90579324D01*
X102034555Y-90572879D01*
X102172509Y-90465097D01*
X102177365Y-90461303D01*
X102214799Y-90417935D01*
X102298595Y-90320857D01*
X102298596Y-90320855D01*
X102302624Y-90316189D01*
X102397312Y-90149509D01*
X102422019Y-90075236D01*
X102434164Y-90038728D01*
X102474645Y-89980404D01*
X102540233Y-89953224D01*
X102553722Y-89952500D01*
X104273213Y-89952500D01*
X104275891Y-89952652D01*
X104286487Y-89956373D01*
X104300586Y-89954804D01*
X104300587Y-89954804D01*
X104314341Y-89953273D01*
X104323306Y-89952776D01*
X104325757Y-89952500D01*
X104332831Y-89952500D01*
X104339729Y-89950926D01*
X104342733Y-89950588D01*
X104350940Y-89949200D01*
X104378308Y-89946154D01*
X104388429Y-89939817D01*
X104400074Y-89937161D01*
X104421611Y-89919999D01*
X104428650Y-89915015D01*
X104430877Y-89913242D01*
X104436918Y-89909460D01*
X104441959Y-89904419D01*
X104444044Y-89902759D01*
X104450629Y-89896876D01*
X104461229Y-89888429D01*
X104472328Y-89879585D01*
X104477273Y-89869333D01*
X104479199Y-89867179D01*
X118127198Y-76219180D01*
X118189510Y-76185154D01*
X118260325Y-76190219D01*
X118317161Y-76232766D01*
X118341972Y-76299286D01*
X118340793Y-76327659D01*
X118338136Y-76344724D01*
X118339300Y-76353626D01*
X118339300Y-76353629D01*
X118347523Y-76416507D01*
X118336523Y-76486646D01*
X118311682Y-76521940D01*
X102783027Y-92050595D01*
X102720715Y-92084621D01*
X102693932Y-92087500D01*
X102553562Y-92087500D01*
X102485441Y-92067498D01*
X102438948Y-92013842D01*
X102432940Y-91997918D01*
X102409898Y-91921601D01*
X102408117Y-91915701D01*
X102318120Y-91746442D01*
X102196962Y-91597887D01*
X102133081Y-91545040D01*
X102054006Y-91479623D01*
X102054002Y-91479621D01*
X102049256Y-91475694D01*
X101880629Y-91384518D01*
X101789067Y-91356175D01*
X101703392Y-91329654D01*
X101703389Y-91329653D01*
X101697505Y-91327832D01*
X101691380Y-91327188D01*
X101691379Y-91327188D01*
X101512985Y-91308438D01*
X101512984Y-91308438D01*
X101506857Y-91307794D01*
X101426779Y-91315082D01*
X101322087Y-91324609D01*
X101322084Y-91324610D01*
X101315948Y-91325168D01*
X101310042Y-91326906D01*
X101310038Y-91326907D01*
X101174622Y-91366762D01*
X101132050Y-91379292D01*
X101126590Y-91382146D01*
X101126591Y-91382146D01*
X100967627Y-91465250D01*
X100967623Y-91465253D01*
X100962167Y-91468105D01*
X100957367Y-91471965D01*
X100957366Y-91471965D01*
X100952728Y-91475694D01*
X100812770Y-91588223D01*
X100689549Y-91735072D01*
X100686585Y-91740464D01*
X100686582Y-91740468D01*
X100611110Y-91877752D01*
X100597198Y-91903058D01*
X100595337Y-91908925D01*
X100595336Y-91908927D01*
X100562055Y-92013842D01*
X100539234Y-92085783D01*
X100517866Y-92276286D01*
X90180500Y-92276286D01*
X90180500Y-89106522D01*
X92697273Y-89106522D01*
X92744764Y-89283761D01*
X92748510Y-89294053D01*
X92840586Y-89491511D01*
X92846069Y-89501007D01*
X92971028Y-89679467D01*
X92978084Y-89687875D01*
X93132125Y-89841916D01*
X93140533Y-89848972D01*
X93318993Y-89973931D01*
X93328489Y-89979414D01*
X93525947Y-90071490D01*
X93536239Y-90075236D01*
X93708503Y-90121394D01*
X93722599Y-90121058D01*
X93726000Y-90113116D01*
X93726000Y-90107967D01*
X94234000Y-90107967D01*
X94237973Y-90121498D01*
X94246522Y-90122727D01*
X94423761Y-90075236D01*
X94434053Y-90071490D01*
X94631511Y-89979414D01*
X94641007Y-89973931D01*
X94819467Y-89848972D01*
X94827875Y-89841916D01*
X94981916Y-89687875D01*
X94988972Y-89679467D01*
X95113931Y-89501007D01*
X95119414Y-89491511D01*
X95211490Y-89294053D01*
X95215236Y-89283761D01*
X95261394Y-89111497D01*
X95261058Y-89097401D01*
X95253116Y-89094000D01*
X94252115Y-89094000D01*
X94236876Y-89098475D01*
X94235671Y-89099865D01*
X94234000Y-89107548D01*
X94234000Y-90107967D01*
X93726000Y-90107967D01*
X93726000Y-89112115D01*
X93721525Y-89096876D01*
X93720135Y-89095671D01*
X93712452Y-89094000D01*
X92712033Y-89094000D01*
X92698502Y-89097973D01*
X92697273Y-89106522D01*
X90180500Y-89106522D01*
X90180500Y-88568503D01*
X92698606Y-88568503D01*
X92698942Y-88582599D01*
X92706884Y-88586000D01*
X93707885Y-88586000D01*
X93723124Y-88581525D01*
X93724329Y-88580135D01*
X93726000Y-88572452D01*
X93726000Y-88567885D01*
X94234000Y-88567885D01*
X94238475Y-88583124D01*
X94239865Y-88584329D01*
X94247548Y-88586000D01*
X95247967Y-88586000D01*
X95261498Y-88582027D01*
X95262727Y-88573478D01*
X95215236Y-88396239D01*
X95211490Y-88385947D01*
X95119414Y-88188489D01*
X95113931Y-88178993D01*
X94988972Y-88000533D01*
X94981916Y-87992125D01*
X94827875Y-87838084D01*
X94819467Y-87831028D01*
X94641007Y-87706069D01*
X94631511Y-87700586D01*
X94434053Y-87608510D01*
X94423761Y-87604764D01*
X94251497Y-87558606D01*
X94237401Y-87558942D01*
X94234000Y-87566884D01*
X94234000Y-88567885D01*
X93726000Y-88567885D01*
X93726000Y-87572033D01*
X93722027Y-87558502D01*
X93713478Y-87557273D01*
X93536239Y-87604764D01*
X93525947Y-87608510D01*
X93328489Y-87700586D01*
X93318993Y-87706069D01*
X93140533Y-87831028D01*
X93132125Y-87838084D01*
X92978084Y-87992125D01*
X92971028Y-88000533D01*
X92846069Y-88178993D01*
X92840586Y-88188489D01*
X92748510Y-88385947D01*
X92744764Y-88396239D01*
X92698606Y-88568503D01*
X90180500Y-88568503D01*
X90180500Y-81340000D01*
X93047391Y-81340000D01*
X93067771Y-81533900D01*
X93069811Y-81540178D01*
X93069811Y-81540179D01*
X93081148Y-81575072D01*
X93128019Y-81719326D01*
X93131322Y-81725048D01*
X93131323Y-81725049D01*
X93145109Y-81748927D01*
X93225503Y-81888174D01*
X93229921Y-81893081D01*
X93229922Y-81893082D01*
X93238038Y-81902095D01*
X93355963Y-82033064D01*
X93513695Y-82147663D01*
X93519723Y-82150347D01*
X93519725Y-82150348D01*
X93685777Y-82224279D01*
X93691808Y-82226964D01*
X93787162Y-82247232D01*
X93876059Y-82266128D01*
X93876063Y-82266128D01*
X93882516Y-82267500D01*
X94077484Y-82267500D01*
X94083937Y-82266128D01*
X94083941Y-82266128D01*
X94172838Y-82247232D01*
X94268192Y-82226964D01*
X94274223Y-82224279D01*
X94440275Y-82150348D01*
X94440277Y-82150347D01*
X94446305Y-82147663D01*
X94489492Y-82116286D01*
X100517866Y-82116286D01*
X100518382Y-82122430D01*
X100532149Y-82286371D01*
X100533907Y-82307311D01*
X100586746Y-82491583D01*
X100674370Y-82662082D01*
X100678193Y-82666906D01*
X100678196Y-82666910D01*
X100785904Y-82802802D01*
X100793443Y-82812314D01*
X100939428Y-82936557D01*
X101106765Y-83030079D01*
X101289081Y-83089317D01*
X101479430Y-83112015D01*
X101485565Y-83111543D01*
X101485567Y-83111543D01*
X101664420Y-83097781D01*
X101664424Y-83097780D01*
X101670562Y-83097308D01*
X101855199Y-83045756D01*
X102026305Y-82959324D01*
X102051600Y-82939562D01*
X102172509Y-82845097D01*
X102177365Y-82841303D01*
X102302624Y-82696189D01*
X102397312Y-82529509D01*
X102437990Y-82407226D01*
X102478470Y-82348904D01*
X102544058Y-82321724D01*
X102557547Y-82321000D01*
X107026491Y-82321000D01*
X107027603Y-82321063D01*
X107037822Y-82324652D01*
X107051923Y-82323083D01*
X107051925Y-82323083D01*
X107063693Y-82321773D01*
X107071381Y-82321347D01*
X107074462Y-82321000D01*
X107081533Y-82321000D01*
X107088430Y-82319427D01*
X107092079Y-82319016D01*
X107099014Y-82317842D01*
X107105588Y-82317111D01*
X107110332Y-82316583D01*
X107124429Y-82315014D01*
X107133975Y-82309038D01*
X107144959Y-82306532D01*
X107164953Y-82290599D01*
X107170926Y-82286371D01*
X107173671Y-82284186D01*
X107179711Y-82280404D01*
X107184754Y-82275361D01*
X107187340Y-82273302D01*
X107192955Y-82268285D01*
X107213109Y-82252225D01*
X107217878Y-82242338D01*
X107218731Y-82241384D01*
X113061442Y-76398673D01*
X113123754Y-76364647D01*
X113170680Y-76363388D01*
X113172381Y-76363663D01*
X113180948Y-76366340D01*
X113189921Y-76366504D01*
X113189924Y-76366505D01*
X113243167Y-76367480D01*
X113303383Y-76368584D01*
X113421527Y-76336375D01*
X113525881Y-76272301D01*
X113571551Y-76221846D01*
X113602035Y-76188167D01*
X113608058Y-76181513D01*
X113661451Y-76071311D01*
X113664003Y-76056145D01*
X113679693Y-75962879D01*
X113681767Y-75950552D01*
X113681896Y-75940000D01*
X113670715Y-75861927D01*
X113665809Y-75827667D01*
X113665808Y-75827664D01*
X113664536Y-75818781D01*
X113657491Y-75803285D01*
X113643627Y-75772793D01*
X113613852Y-75707307D01*
X113590521Y-75680229D01*
X113539776Y-75621337D01*
X113539774Y-75621335D01*
X113533918Y-75614539D01*
X113431160Y-75547935D01*
X113313838Y-75512848D01*
X113304862Y-75512793D01*
X113304861Y-75512793D01*
X113254483Y-75512485D01*
X113191385Y-75512100D01*
X113073644Y-75545751D01*
X113066057Y-75550538D01*
X113066055Y-75550539D01*
X113060131Y-75554277D01*
X112970080Y-75611095D01*
X112964137Y-75617824D01*
X112901118Y-75689179D01*
X112889018Y-75702879D01*
X112836976Y-75813726D01*
X112835595Y-75822595D01*
X112819585Y-75925421D01*
X112818136Y-75934724D01*
X112819300Y-75943626D01*
X112819300Y-75943629D01*
X112822397Y-75967307D01*
X112827902Y-76009401D01*
X112829404Y-76020889D01*
X112818404Y-76091028D01*
X112793563Y-76126322D01*
X107017790Y-81902095D01*
X106955478Y-81936121D01*
X106928695Y-81939000D01*
X102557034Y-81939000D01*
X102488913Y-81918998D01*
X102442420Y-81865342D01*
X102436412Y-81849418D01*
X102409898Y-81761601D01*
X102408117Y-81755701D01*
X102318120Y-81586442D01*
X102196962Y-81437887D01*
X102078637Y-81340000D01*
X102054006Y-81319623D01*
X102054002Y-81319621D01*
X102049256Y-81315694D01*
X101880629Y-81224518D01*
X101789067Y-81196175D01*
X101703392Y-81169654D01*
X101703389Y-81169653D01*
X101697505Y-81167832D01*
X101691380Y-81167188D01*
X101691379Y-81167188D01*
X101512985Y-81148438D01*
X101512984Y-81148438D01*
X101506857Y-81147794D01*
X101426779Y-81155082D01*
X101322087Y-81164609D01*
X101322084Y-81164610D01*
X101315948Y-81165168D01*
X101310042Y-81166906D01*
X101310038Y-81166907D01*
X101174622Y-81206762D01*
X101132050Y-81219292D01*
X101126590Y-81222146D01*
X101126591Y-81222146D01*
X100967627Y-81305250D01*
X100967623Y-81305253D01*
X100962167Y-81308105D01*
X100957367Y-81311965D01*
X100957366Y-81311965D01*
X100952728Y-81315694D01*
X100812770Y-81428223D01*
X100689549Y-81575072D01*
X100686585Y-81580464D01*
X100686582Y-81580468D01*
X100613700Y-81713041D01*
X100597198Y-81743058D01*
X100539234Y-81925783D01*
X100517866Y-82116286D01*
X94489492Y-82116286D01*
X94604037Y-82033064D01*
X94721963Y-81902095D01*
X94730078Y-81893082D01*
X94730079Y-81893081D01*
X94734497Y-81888174D01*
X94814891Y-81748927D01*
X94828677Y-81725049D01*
X94828678Y-81725048D01*
X94831981Y-81719326D01*
X94878852Y-81575072D01*
X94890189Y-81540179D01*
X94890189Y-81540178D01*
X94892229Y-81533900D01*
X94912609Y-81340000D01*
X94894513Y-81167832D01*
X94892919Y-81152664D01*
X94892919Y-81152663D01*
X94892229Y-81146100D01*
X94831981Y-80960674D01*
X94817071Y-80934848D01*
X94737800Y-80797547D01*
X94734497Y-80791826D01*
X94730078Y-80786918D01*
X94608452Y-80651839D01*
X94608450Y-80651838D01*
X94604037Y-80646936D01*
X94500917Y-80572015D01*
X94451647Y-80536218D01*
X94451646Y-80536217D01*
X94446305Y-80532337D01*
X94440277Y-80529653D01*
X94440275Y-80529652D01*
X94274223Y-80455721D01*
X94274222Y-80455721D01*
X94268192Y-80453036D01*
X94154081Y-80428781D01*
X94083941Y-80413872D01*
X94083937Y-80413872D01*
X94077484Y-80412500D01*
X93882516Y-80412500D01*
X93876063Y-80413872D01*
X93876059Y-80413872D01*
X93805919Y-80428781D01*
X93691808Y-80453036D01*
X93685779Y-80455720D01*
X93685777Y-80455721D01*
X93519726Y-80529652D01*
X93519724Y-80529653D01*
X93513696Y-80532337D01*
X93508355Y-80536217D01*
X93508354Y-80536218D01*
X93361302Y-80643057D01*
X93355963Y-80646936D01*
X93351550Y-80651838D01*
X93351548Y-80651839D01*
X93229922Y-80786918D01*
X93225503Y-80791826D01*
X93222200Y-80797547D01*
X93142930Y-80934848D01*
X93128019Y-80960674D01*
X93067771Y-81146100D01*
X93067081Y-81152663D01*
X93067081Y-81152664D01*
X93065487Y-81167832D01*
X93047391Y-81340000D01*
X90180500Y-81340000D01*
X90180500Y-79576286D01*
X100517866Y-79576286D01*
X100533907Y-79767311D01*
X100535606Y-79773236D01*
X100543709Y-79801493D01*
X100586746Y-79951583D01*
X100674370Y-80122082D01*
X100678193Y-80126906D01*
X100678196Y-80126910D01*
X100751709Y-80219659D01*
X100793443Y-80272314D01*
X100798137Y-80276308D01*
X100798137Y-80276309D01*
X100925211Y-80384457D01*
X100939428Y-80396557D01*
X101106765Y-80490079D01*
X101289081Y-80549317D01*
X101479430Y-80572015D01*
X101485565Y-80571543D01*
X101485567Y-80571543D01*
X101664420Y-80557781D01*
X101664424Y-80557780D01*
X101670562Y-80557308D01*
X101855199Y-80505756D01*
X102026305Y-80419324D01*
X102033284Y-80413872D01*
X102172509Y-80305097D01*
X102177365Y-80301303D01*
X102237758Y-80231337D01*
X102298595Y-80160857D01*
X102298596Y-80160855D01*
X102302624Y-80156189D01*
X102397312Y-79989509D01*
X102457821Y-79807612D01*
X102481847Y-79617425D01*
X102482230Y-79590000D01*
X102463524Y-79399217D01*
X102408117Y-79215701D01*
X102318120Y-79046442D01*
X102196962Y-78897887D01*
X102133081Y-78845040D01*
X102054006Y-78779623D01*
X102054002Y-78779621D01*
X102049256Y-78775694D01*
X101880629Y-78684518D01*
X101789067Y-78656175D01*
X101703392Y-78629654D01*
X101703389Y-78629653D01*
X101697505Y-78627832D01*
X101691380Y-78627188D01*
X101691379Y-78627188D01*
X101512985Y-78608438D01*
X101512984Y-78608438D01*
X101506857Y-78607794D01*
X101426779Y-78615082D01*
X101322087Y-78624609D01*
X101322084Y-78624610D01*
X101315948Y-78625168D01*
X101310042Y-78626906D01*
X101310038Y-78626907D01*
X101174622Y-78666762D01*
X101132050Y-78679292D01*
X101126590Y-78682146D01*
X101126591Y-78682146D01*
X100967627Y-78765250D01*
X100967623Y-78765253D01*
X100962167Y-78768105D01*
X100957367Y-78771965D01*
X100957366Y-78771965D01*
X100952728Y-78775694D01*
X100812770Y-78888223D01*
X100689549Y-79035072D01*
X100686585Y-79040464D01*
X100686582Y-79040468D01*
X100611110Y-79177752D01*
X100597198Y-79203058D01*
X100539234Y-79385783D01*
X100517866Y-79576286D01*
X90180500Y-79576286D01*
X90180500Y-74919076D01*
X91927656Y-74919076D01*
X91944678Y-75092674D01*
X91946902Y-75099359D01*
X91946902Y-75099360D01*
X91965437Y-75155078D01*
X91999737Y-75258188D01*
X92003384Y-75264210D01*
X92003385Y-75264212D01*
X92020790Y-75292950D01*
X92090097Y-75407390D01*
X92211267Y-75532865D01*
X92217159Y-75536720D01*
X92217163Y-75536724D01*
X92351328Y-75624519D01*
X92357224Y-75628377D01*
X92363828Y-75630833D01*
X92363830Y-75630834D01*
X92438970Y-75658778D01*
X92520715Y-75689179D01*
X92693614Y-75712248D01*
X92700625Y-75711610D01*
X92700629Y-75711610D01*
X92860306Y-75697078D01*
X92867327Y-75696439D01*
X92874029Y-75694261D01*
X92874031Y-75694261D01*
X93026522Y-75644714D01*
X93026525Y-75644713D01*
X93033221Y-75642537D01*
X93183050Y-75553221D01*
X93183066Y-75553247D01*
X93246714Y-75529024D01*
X93316187Y-75543653D01*
X93366722Y-75593520D01*
X93382275Y-75662792D01*
X93362450Y-75722895D01*
X93298198Y-75822595D01*
X93279177Y-75852109D01*
X93276768Y-75858729D01*
X93276766Y-75858732D01*
X93237248Y-75967307D01*
X93219518Y-76016020D01*
X93197656Y-76189076D01*
X93214678Y-76362674D01*
X93216902Y-76369359D01*
X93216902Y-76369360D01*
X93240904Y-76441513D01*
X93269737Y-76528188D01*
X93273384Y-76534210D01*
X93273385Y-76534212D01*
X93329109Y-76626222D01*
X93360097Y-76677390D01*
X93481267Y-76802865D01*
X93487159Y-76806720D01*
X93487163Y-76806724D01*
X93621328Y-76894519D01*
X93627224Y-76898377D01*
X93633828Y-76900833D01*
X93633830Y-76900834D01*
X93708970Y-76928778D01*
X93790715Y-76959179D01*
X93963614Y-76982248D01*
X93970625Y-76981610D01*
X93970629Y-76981610D01*
X94130306Y-76967078D01*
X94137327Y-76966439D01*
X94144029Y-76964261D01*
X94144031Y-76964261D01*
X94296522Y-76914714D01*
X94296525Y-76914713D01*
X94303221Y-76912537D01*
X94453050Y-76823221D01*
X94579368Y-76702930D01*
X94592973Y-76682454D01*
X94653394Y-76591513D01*
X94675897Y-76557643D01*
X94689449Y-76521968D01*
X94735339Y-76401163D01*
X94735340Y-76401158D01*
X94737839Y-76394580D01*
X94738963Y-76386583D01*
X94761564Y-76225769D01*
X94761564Y-76225764D01*
X94762115Y-76221846D01*
X94762249Y-76212242D01*
X94767659Y-76194724D01*
X98628136Y-76194724D01*
X98629300Y-76203626D01*
X98629300Y-76203629D01*
X98641809Y-76299286D01*
X98644014Y-76316145D01*
X98693333Y-76428230D01*
X98772127Y-76521968D01*
X98874064Y-76589823D01*
X98990948Y-76626340D01*
X99113383Y-76628584D01*
X99131434Y-76623663D01*
X99222863Y-76598737D01*
X99231527Y-76596375D01*
X99335881Y-76532301D01*
X99345234Y-76521968D01*
X99412033Y-76448170D01*
X99412035Y-76448167D01*
X99418058Y-76441513D01*
X99418604Y-76442007D01*
X99467811Y-76401250D01*
X99517590Y-76391000D01*
X103826491Y-76391000D01*
X103827603Y-76391063D01*
X103837822Y-76394652D01*
X103851923Y-76393083D01*
X103851925Y-76393083D01*
X103863693Y-76391773D01*
X103871381Y-76391347D01*
X103874462Y-76391000D01*
X103881533Y-76391000D01*
X103888430Y-76389427D01*
X103892079Y-76389016D01*
X103899014Y-76387842D01*
X103905588Y-76387111D01*
X103910332Y-76386583D01*
X103924429Y-76385014D01*
X103933975Y-76379038D01*
X103944959Y-76376532D01*
X103961454Y-76363388D01*
X103964952Y-76360600D01*
X103970928Y-76356369D01*
X103973669Y-76354187D01*
X103979711Y-76350404D01*
X103984752Y-76345362D01*
X103987341Y-76343301D01*
X103992962Y-76338279D01*
X104013109Y-76322225D01*
X104017878Y-76312338D01*
X104018731Y-76311384D01*
X104818015Y-75512100D01*
X105622209Y-74707905D01*
X105684521Y-74673880D01*
X105711304Y-74671000D01*
X114416491Y-74671000D01*
X114417603Y-74671063D01*
X114427822Y-74674652D01*
X114441923Y-74673083D01*
X114441925Y-74673083D01*
X114453693Y-74671773D01*
X114461381Y-74671347D01*
X114464462Y-74671000D01*
X114471533Y-74671000D01*
X114478430Y-74669427D01*
X114482079Y-74669016D01*
X114489014Y-74667842D01*
X114495588Y-74667111D01*
X114500332Y-74666583D01*
X114514429Y-74665014D01*
X114523975Y-74659038D01*
X114534959Y-74656532D01*
X114546536Y-74647307D01*
X114554952Y-74640600D01*
X114560926Y-74636371D01*
X114563671Y-74634186D01*
X114569711Y-74630404D01*
X114574754Y-74625361D01*
X114577340Y-74623302D01*
X114582955Y-74618285D01*
X114603109Y-74602225D01*
X114607878Y-74592338D01*
X114608731Y-74591384D01*
X115941442Y-73258673D01*
X116003754Y-73224647D01*
X116050680Y-73223388D01*
X116052381Y-73223663D01*
X116060948Y-73226340D01*
X116069921Y-73226504D01*
X116069924Y-73226505D01*
X116123167Y-73227480D01*
X116183383Y-73228584D01*
X116301527Y-73196375D01*
X116405881Y-73132301D01*
X116488058Y-73041513D01*
X116541451Y-72931311D01*
X116544003Y-72916145D01*
X116560960Y-72815348D01*
X116561767Y-72810552D01*
X116561896Y-72800000D01*
X116544536Y-72678781D01*
X116493852Y-72567307D01*
X116444473Y-72510000D01*
X116419776Y-72481337D01*
X116419774Y-72481335D01*
X116413918Y-72474539D01*
X116311160Y-72407935D01*
X116193838Y-72372848D01*
X116184862Y-72372793D01*
X116184861Y-72372793D01*
X116134483Y-72372485D01*
X116071385Y-72372100D01*
X115953644Y-72405751D01*
X115850080Y-72471095D01*
X115844137Y-72477824D01*
X115810694Y-72515691D01*
X115769018Y-72562879D01*
X115716976Y-72673726D01*
X115698136Y-72794724D01*
X115699300Y-72803626D01*
X115699300Y-72803629D01*
X115704439Y-72842925D01*
X115708222Y-72871849D01*
X115709404Y-72880889D01*
X115698404Y-72951028D01*
X115673563Y-72986322D01*
X114407790Y-74252095D01*
X114345478Y-74286121D01*
X114318695Y-74289000D01*
X105613508Y-74289000D01*
X105612396Y-74288937D01*
X105602177Y-74285348D01*
X105588077Y-74286917D01*
X105588075Y-74286917D01*
X105576307Y-74288227D01*
X105568617Y-74288654D01*
X105565544Y-74289000D01*
X105558467Y-74289000D01*
X105551570Y-74290573D01*
X105547921Y-74290984D01*
X105540981Y-74292158D01*
X105515571Y-74294986D01*
X105506025Y-74300962D01*
X105495041Y-74303468D01*
X105483947Y-74312309D01*
X105483946Y-74312309D01*
X105475048Y-74319400D01*
X105469074Y-74323629D01*
X105466329Y-74325814D01*
X105460289Y-74329596D01*
X105455246Y-74334639D01*
X105452660Y-74336698D01*
X105447045Y-74341715D01*
X105426891Y-74357775D01*
X105422122Y-74367662D01*
X105421269Y-74368616D01*
X103817790Y-75972095D01*
X103755478Y-76006121D01*
X103728695Y-76009000D01*
X99517531Y-76009000D01*
X99449410Y-75988998D01*
X99422078Y-75965248D01*
X99349776Y-75881337D01*
X99349774Y-75881335D01*
X99343918Y-75874539D01*
X99241160Y-75807935D01*
X99123838Y-75772848D01*
X99114862Y-75772793D01*
X99114861Y-75772793D01*
X99064483Y-75772485D01*
X99001385Y-75772100D01*
X98883644Y-75805751D01*
X98876057Y-75810538D01*
X98876055Y-75810539D01*
X98856948Y-75822595D01*
X98780080Y-75871095D01*
X98774137Y-75877824D01*
X98731720Y-75925852D01*
X98699018Y-75962879D01*
X98646976Y-76073726D01*
X98645595Y-76082595D01*
X98635971Y-76144407D01*
X98628136Y-76194724D01*
X94767659Y-76194724D01*
X94783200Y-76144407D01*
X94837499Y-76098667D01*
X94888237Y-76088000D01*
X94977885Y-76088000D01*
X94993124Y-76083525D01*
X94994329Y-76082135D01*
X94996000Y-76074452D01*
X94996000Y-76069884D01*
X95504000Y-76069884D01*
X95508475Y-76085123D01*
X95509865Y-76086328D01*
X95517548Y-76087999D01*
X95944669Y-76087999D01*
X95951490Y-76087629D01*
X96002352Y-76082105D01*
X96017604Y-76078479D01*
X96138054Y-76033324D01*
X96153649Y-76024786D01*
X96255724Y-75948285D01*
X96268285Y-75935724D01*
X96344786Y-75833649D01*
X96353324Y-75818054D01*
X96398478Y-75697606D01*
X96402105Y-75682351D01*
X96407631Y-75631486D01*
X96408000Y-75624672D01*
X96408000Y-75202115D01*
X96403525Y-75186876D01*
X96402135Y-75185671D01*
X96394452Y-75184000D01*
X95522115Y-75184000D01*
X95506876Y-75188475D01*
X95505671Y-75189865D01*
X95504000Y-75197548D01*
X95504000Y-76069884D01*
X94996000Y-76069884D01*
X94996000Y-75202115D01*
X94991525Y-75186876D01*
X94990135Y-75185671D01*
X94982452Y-75184000D01*
X94110116Y-75184000D01*
X94094877Y-75188475D01*
X94093672Y-75189865D01*
X94092001Y-75197548D01*
X94092001Y-75292950D01*
X94071999Y-75361071D01*
X94018343Y-75407564D01*
X93979172Y-75418260D01*
X93818987Y-75435096D01*
X93818985Y-75435097D01*
X93811987Y-75435832D01*
X93646862Y-75492045D01*
X93498294Y-75583445D01*
X93496722Y-75580890D01*
X93443145Y-75602132D01*
X93373477Y-75588463D01*
X93322258Y-75539299D01*
X93305750Y-75470248D01*
X93326639Y-75406935D01*
X93405897Y-75287643D01*
X93408399Y-75281057D01*
X93465339Y-75131163D01*
X93465340Y-75131158D01*
X93467839Y-75124580D01*
X93468819Y-75117608D01*
X93491564Y-74955769D01*
X93491564Y-74955764D01*
X93492115Y-74951846D01*
X93492420Y-74930000D01*
X93472976Y-74756656D01*
X93469273Y-74746020D01*
X93438581Y-74657885D01*
X94092000Y-74657885D01*
X94096475Y-74673124D01*
X94097865Y-74674329D01*
X94105548Y-74676000D01*
X94977885Y-74676000D01*
X94993124Y-74671525D01*
X94994329Y-74670135D01*
X94996000Y-74662452D01*
X94996000Y-74657885D01*
X95504000Y-74657885D01*
X95508475Y-74673124D01*
X95509865Y-74674329D01*
X95517548Y-74676000D01*
X96389884Y-74676000D01*
X96405123Y-74671525D01*
X96406328Y-74670135D01*
X96407999Y-74662452D01*
X96407999Y-74235331D01*
X96407629Y-74228510D01*
X96402105Y-74177648D01*
X96398479Y-74162396D01*
X96353324Y-74041946D01*
X96344786Y-74026351D01*
X96268285Y-73924276D01*
X96255724Y-73911715D01*
X96153649Y-73835214D01*
X96138054Y-73826676D01*
X96017606Y-73781522D01*
X96002351Y-73777895D01*
X95951486Y-73772369D01*
X95944672Y-73772000D01*
X95522115Y-73772000D01*
X95506876Y-73776475D01*
X95505671Y-73777865D01*
X95504000Y-73785548D01*
X95504000Y-74657885D01*
X94996000Y-74657885D01*
X94996000Y-73790116D01*
X94991525Y-73774877D01*
X94990135Y-73773672D01*
X94982452Y-73772001D01*
X94555331Y-73772001D01*
X94548510Y-73772371D01*
X94497648Y-73777895D01*
X94482396Y-73781521D01*
X94361946Y-73826676D01*
X94346351Y-73835214D01*
X94244276Y-73911715D01*
X94231715Y-73924276D01*
X94155214Y-74026351D01*
X94146676Y-74041946D01*
X94101522Y-74162394D01*
X94097895Y-74177649D01*
X94092369Y-74228514D01*
X94092000Y-74235328D01*
X94092000Y-74657885D01*
X93438581Y-74657885D01*
X93417927Y-74598574D01*
X93417926Y-74598572D01*
X93415612Y-74591927D01*
X93323177Y-74444002D01*
X93295591Y-74416222D01*
X93261286Y-74381677D01*
X93200267Y-74320230D01*
X93133686Y-74277977D01*
X93058933Y-74230537D01*
X93058930Y-74230535D01*
X93052990Y-74226766D01*
X93039732Y-74222045D01*
X92895300Y-74170614D01*
X92895298Y-74170613D01*
X92888666Y-74168252D01*
X92881680Y-74167419D01*
X92881676Y-74167418D01*
X92758558Y-74152738D01*
X92715462Y-74147599D01*
X92708459Y-74148335D01*
X92708458Y-74148335D01*
X92548987Y-74165096D01*
X92548985Y-74165097D01*
X92541987Y-74165832D01*
X92376862Y-74222045D01*
X92366347Y-74228514D01*
X92234301Y-74309749D01*
X92234298Y-74309751D01*
X92228294Y-74313445D01*
X92223259Y-74318376D01*
X92223256Y-74318378D01*
X92120069Y-74419427D01*
X92103668Y-74435488D01*
X92009177Y-74582109D01*
X92006768Y-74588729D01*
X92006766Y-74588732D01*
X91975494Y-74674652D01*
X91949518Y-74746020D01*
X91927656Y-74919076D01*
X90180500Y-74919076D01*
X90180500Y-70114724D01*
X98058136Y-70114724D01*
X98059300Y-70123626D01*
X98059300Y-70123629D01*
X98066973Y-70182301D01*
X98074014Y-70236145D01*
X98123333Y-70348230D01*
X98202127Y-70441968D01*
X98304064Y-70509823D01*
X98420948Y-70546340D01*
X98543383Y-70548584D01*
X98561434Y-70543663D01*
X98652863Y-70518737D01*
X98661527Y-70516375D01*
X98765881Y-70452301D01*
X98848058Y-70361513D01*
X98901451Y-70251311D01*
X98904003Y-70236145D01*
X98920960Y-70135348D01*
X98921767Y-70130552D01*
X98921896Y-70120000D01*
X98910564Y-70040875D01*
X98920706Y-69970609D01*
X98946196Y-69933919D01*
X99912210Y-68967905D01*
X99974522Y-68933879D01*
X100001305Y-68931000D01*
X108226759Y-68931000D01*
X108294880Y-68951002D01*
X108341373Y-69004658D01*
X108351477Y-69074932D01*
X108327397Y-69127010D01*
X108329889Y-69128647D01*
X108324960Y-69136151D01*
X108319018Y-69142879D01*
X108297364Y-69189000D01*
X108279380Y-69227307D01*
X108266976Y-69253726D01*
X108265595Y-69262595D01*
X108253733Y-69338781D01*
X108248136Y-69374724D01*
X108249300Y-69383626D01*
X108249300Y-69383629D01*
X108260667Y-69470552D01*
X108264014Y-69496145D01*
X108277953Y-69527824D01*
X108301993Y-69582457D01*
X108313333Y-69608230D01*
X108392127Y-69701968D01*
X108494064Y-69769823D01*
X108610948Y-69806340D01*
X108733383Y-69808584D01*
X108751434Y-69803663D01*
X108842863Y-69778737D01*
X108851527Y-69776375D01*
X108955881Y-69712301D01*
X108971339Y-69695223D01*
X109032033Y-69628170D01*
X109032035Y-69628167D01*
X109038058Y-69621513D01*
X109038604Y-69622007D01*
X109087811Y-69581250D01*
X109137590Y-69571000D01*
X117839534Y-69571000D01*
X117907655Y-69591002D01*
X117954863Y-69646254D01*
X117973333Y-69688230D01*
X118052127Y-69781968D01*
X118154064Y-69849823D01*
X118270948Y-69886340D01*
X118393383Y-69888584D01*
X118411434Y-69883663D01*
X118502863Y-69858737D01*
X118511527Y-69856375D01*
X118530502Y-69844724D01*
X118948136Y-69844724D01*
X118949300Y-69853626D01*
X118949300Y-69853629D01*
X118953871Y-69888584D01*
X118964014Y-69966145D01*
X119013333Y-70078230D01*
X119092127Y-70171968D01*
X119194064Y-70239823D01*
X119310948Y-70276340D01*
X119433383Y-70278584D01*
X119451434Y-70273663D01*
X119503802Y-70259386D01*
X119551527Y-70246375D01*
X119655881Y-70182301D01*
X119738058Y-70091513D01*
X119791451Y-69981311D01*
X119793252Y-69970609D01*
X119807401Y-69886504D01*
X119811767Y-69860552D01*
X119811896Y-69850000D01*
X119800564Y-69770875D01*
X119810706Y-69700609D01*
X119836196Y-69663919D01*
X121962210Y-67537905D01*
X122024522Y-67503879D01*
X122051305Y-67501000D01*
X125273350Y-67501000D01*
X125341471Y-67521002D01*
X125369801Y-67545925D01*
X125434623Y-67623041D01*
X125442127Y-67631968D01*
X125449604Y-67636945D01*
X125528295Y-67689326D01*
X125544064Y-67699823D01*
X125660948Y-67736340D01*
X125783383Y-67738584D01*
X125801434Y-67733663D01*
X125892863Y-67708737D01*
X125901527Y-67706375D01*
X126005881Y-67642301D01*
X126017626Y-67629326D01*
X126082035Y-67558167D01*
X126088058Y-67551513D01*
X126141451Y-67441311D01*
X126161767Y-67320552D01*
X126161896Y-67310000D01*
X126154887Y-67261058D01*
X126145809Y-67197667D01*
X126145808Y-67197664D01*
X126144536Y-67188781D01*
X126093852Y-67077307D01*
X126013918Y-66984539D01*
X125911160Y-66917935D01*
X125793838Y-66882848D01*
X125784862Y-66882793D01*
X125784861Y-66882793D01*
X125734483Y-66882485D01*
X125671385Y-66882100D01*
X125553644Y-66915751D01*
X125546057Y-66920538D01*
X125546055Y-66920539D01*
X125529992Y-66930674D01*
X125450080Y-66981095D01*
X125369018Y-67072879D01*
X125367032Y-67071125D01*
X125323456Y-67108130D01*
X125272259Y-67119000D01*
X121953508Y-67119000D01*
X121952396Y-67118937D01*
X121942177Y-67115348D01*
X121928077Y-67116917D01*
X121928075Y-67116917D01*
X121916307Y-67118227D01*
X121908617Y-67118654D01*
X121905544Y-67119000D01*
X121898467Y-67119000D01*
X121891570Y-67120573D01*
X121887921Y-67120984D01*
X121880981Y-67122158D01*
X121855571Y-67124986D01*
X121846025Y-67130962D01*
X121835041Y-67133468D01*
X121823945Y-67142310D01*
X121823943Y-67142311D01*
X121815038Y-67149407D01*
X121809079Y-67153626D01*
X121806330Y-67155815D01*
X121800289Y-67159597D01*
X121795246Y-67164640D01*
X121792655Y-67166703D01*
X121787050Y-67171711D01*
X121766891Y-67187775D01*
X121762122Y-67197663D01*
X121761263Y-67198623D01*
X119568708Y-69391177D01*
X119506396Y-69425203D01*
X119460987Y-69426698D01*
X119452439Y-69425420D01*
X119443838Y-69422848D01*
X119434862Y-69422793D01*
X119434861Y-69422793D01*
X119384483Y-69422485D01*
X119321385Y-69422100D01*
X119203644Y-69455751D01*
X119196057Y-69460538D01*
X119196055Y-69460539D01*
X119153727Y-69487246D01*
X119100080Y-69521095D01*
X119019018Y-69612879D01*
X118980413Y-69695105D01*
X118980358Y-69695223D01*
X118974506Y-69701834D01*
X118972852Y-69708860D01*
X118970791Y-69715600D01*
X118966976Y-69723726D01*
X118965595Y-69732593D01*
X118965595Y-69732594D01*
X118954113Y-69806340D01*
X118948136Y-69844724D01*
X118530502Y-69844724D01*
X118615881Y-69792301D01*
X118628159Y-69778737D01*
X118692035Y-69708167D01*
X118698058Y-69701513D01*
X118736579Y-69622007D01*
X118738967Y-69617079D01*
X118744467Y-69611016D01*
X118746268Y-69603364D01*
X118747536Y-69599392D01*
X118751451Y-69591311D01*
X118754003Y-69576145D01*
X118770960Y-69475348D01*
X118771767Y-69470552D01*
X118771896Y-69460000D01*
X118760959Y-69383629D01*
X118755809Y-69347667D01*
X118755808Y-69347664D01*
X118754536Y-69338781D01*
X118703852Y-69227307D01*
X118634145Y-69146408D01*
X118629776Y-69141337D01*
X118629774Y-69141335D01*
X118623918Y-69134539D01*
X118521160Y-69067935D01*
X118403838Y-69032848D01*
X118394862Y-69032793D01*
X118394861Y-69032793D01*
X118344483Y-69032485D01*
X118281385Y-69032100D01*
X118163644Y-69065751D01*
X118156057Y-69070538D01*
X118156055Y-69070539D01*
X118102300Y-69104456D01*
X118060080Y-69131095D01*
X118051035Y-69141337D01*
X118046556Y-69146408D01*
X117986470Y-69184226D01*
X117952115Y-69189000D01*
X116279072Y-69189000D01*
X116210951Y-69168998D01*
X116164458Y-69115342D01*
X116154354Y-69045068D01*
X116158336Y-69027740D01*
X116161451Y-69021311D01*
X116164003Y-69006145D01*
X116176160Y-68933879D01*
X116181767Y-68900552D01*
X116181896Y-68890000D01*
X116164536Y-68768781D01*
X116113852Y-68657307D01*
X116062148Y-68597301D01*
X116039776Y-68571337D01*
X116039774Y-68571335D01*
X116033918Y-68564539D01*
X115931160Y-68497935D01*
X115813838Y-68462848D01*
X115804862Y-68462793D01*
X115804861Y-68462793D01*
X115754483Y-68462485D01*
X115691385Y-68462100D01*
X115573644Y-68495751D01*
X115520055Y-68529563D01*
X115452822Y-68549000D01*
X99903517Y-68549000D01*
X99902399Y-68548937D01*
X99892178Y-68545347D01*
X99878077Y-68546916D01*
X99878075Y-68546916D01*
X99866298Y-68548227D01*
X99858628Y-68548652D01*
X99855538Y-68549000D01*
X99848467Y-68549000D01*
X99841569Y-68550573D01*
X99837914Y-68550985D01*
X99830992Y-68552156D01*
X99805571Y-68554985D01*
X99796023Y-68560963D01*
X99785041Y-68563468D01*
X99773945Y-68572310D01*
X99765050Y-68579398D01*
X99759058Y-68583641D01*
X99756326Y-68585816D01*
X99750289Y-68589596D01*
X99745249Y-68594636D01*
X99742663Y-68596695D01*
X99737045Y-68601715D01*
X99716891Y-68617775D01*
X99712122Y-68627662D01*
X99711269Y-68628616D01*
X98678708Y-69661177D01*
X98616396Y-69695203D01*
X98570987Y-69696698D01*
X98562439Y-69695420D01*
X98553838Y-69692848D01*
X98544862Y-69692793D01*
X98544861Y-69692793D01*
X98494483Y-69692485D01*
X98431385Y-69692100D01*
X98313644Y-69725751D01*
X98210080Y-69791095D01*
X98129018Y-69882879D01*
X98076976Y-69993726D01*
X98075595Y-70002595D01*
X98062748Y-70085105D01*
X98058136Y-70114724D01*
X90180500Y-70114724D01*
X90180500Y-67310000D01*
X103207391Y-67310000D01*
X103208081Y-67316565D01*
X103221193Y-67441311D01*
X103227771Y-67503900D01*
X103229811Y-67510178D01*
X103229811Y-67510179D01*
X103241426Y-67545925D01*
X103288019Y-67689326D01*
X103385503Y-67858174D01*
X103389921Y-67863081D01*
X103389922Y-67863082D01*
X103461939Y-67943064D01*
X103515963Y-68003064D01*
X103673695Y-68117663D01*
X103679723Y-68120347D01*
X103679725Y-68120348D01*
X103808091Y-68177500D01*
X103851808Y-68196964D01*
X103947162Y-68217232D01*
X104036059Y-68236128D01*
X104036063Y-68236128D01*
X104042516Y-68237500D01*
X104237484Y-68237500D01*
X104243937Y-68236128D01*
X104243941Y-68236128D01*
X104332838Y-68217232D01*
X104428192Y-68196964D01*
X104471909Y-68177500D01*
X104600275Y-68120348D01*
X104600277Y-68120347D01*
X104606305Y-68117663D01*
X104764037Y-68003064D01*
X104818062Y-67943064D01*
X104890078Y-67863082D01*
X104890079Y-67863081D01*
X104894497Y-67858174D01*
X104991981Y-67689326D01*
X105038574Y-67545925D01*
X105050189Y-67510179D01*
X105050189Y-67510178D01*
X105052229Y-67503900D01*
X105058808Y-67441311D01*
X105071919Y-67316565D01*
X105072609Y-67310000D01*
X105066303Y-67250000D01*
X108287391Y-67250000D01*
X108288081Y-67256565D01*
X108295311Y-67325348D01*
X108307771Y-67443900D01*
X108368019Y-67629326D01*
X108465503Y-67798174D01*
X108469921Y-67803081D01*
X108469922Y-67803082D01*
X108523947Y-67863082D01*
X108595963Y-67943064D01*
X108601302Y-67946943D01*
X108671798Y-67998161D01*
X108753695Y-68057663D01*
X108759723Y-68060347D01*
X108759725Y-68060348D01*
X108925777Y-68134279D01*
X108931808Y-68136964D01*
X109027162Y-68157232D01*
X109116059Y-68176128D01*
X109116063Y-68176128D01*
X109122516Y-68177500D01*
X109317484Y-68177500D01*
X109323937Y-68176128D01*
X109323941Y-68176128D01*
X109412838Y-68157232D01*
X109508192Y-68136964D01*
X109514223Y-68134279D01*
X109680275Y-68060348D01*
X109680277Y-68060347D01*
X109686305Y-68057663D01*
X109768203Y-67998161D01*
X109838698Y-67946943D01*
X109844037Y-67943064D01*
X109916054Y-67863082D01*
X109970078Y-67803082D01*
X109970079Y-67803081D01*
X109974497Y-67798174D01*
X110071981Y-67629326D01*
X110132229Y-67443900D01*
X110144690Y-67325348D01*
X110151919Y-67256565D01*
X110152609Y-67250000D01*
X118447391Y-67250000D01*
X118448081Y-67256565D01*
X118455311Y-67325348D01*
X118467771Y-67443900D01*
X118528019Y-67629326D01*
X118625503Y-67798174D01*
X118629921Y-67803081D01*
X118629922Y-67803082D01*
X118683947Y-67863082D01*
X118755963Y-67943064D01*
X118761302Y-67946943D01*
X118831798Y-67998161D01*
X118913695Y-68057663D01*
X118919723Y-68060347D01*
X118919725Y-68060348D01*
X119085777Y-68134279D01*
X119091808Y-68136964D01*
X119187162Y-68157232D01*
X119276059Y-68176128D01*
X119276063Y-68176128D01*
X119282516Y-68177500D01*
X119477484Y-68177500D01*
X119483937Y-68176128D01*
X119483941Y-68176128D01*
X119572838Y-68157232D01*
X119668192Y-68136964D01*
X119674223Y-68134279D01*
X119840275Y-68060348D01*
X119840277Y-68060347D01*
X119846305Y-68057663D01*
X119928203Y-67998161D01*
X119998698Y-67946943D01*
X120004037Y-67943064D01*
X120076054Y-67863082D01*
X120130078Y-67803082D01*
X120130079Y-67803081D01*
X120134497Y-67798174D01*
X120231981Y-67629326D01*
X120292229Y-67443900D01*
X120304690Y-67325348D01*
X120311919Y-67256565D01*
X120312609Y-67250000D01*
X120292229Y-67056100D01*
X120231981Y-66870674D01*
X120134497Y-66701826D01*
X120112092Y-66676943D01*
X120008452Y-66561839D01*
X120008450Y-66561838D01*
X120004037Y-66556936D01*
X119846305Y-66442337D01*
X119840277Y-66439653D01*
X119840275Y-66439652D01*
X119674223Y-66365721D01*
X119674222Y-66365721D01*
X119668192Y-66363036D01*
X119572838Y-66342768D01*
X119483941Y-66323872D01*
X119483937Y-66323872D01*
X119477484Y-66322500D01*
X119282516Y-66322500D01*
X119276063Y-66323872D01*
X119276059Y-66323872D01*
X119187162Y-66342768D01*
X119091808Y-66363036D01*
X119085779Y-66365720D01*
X119085777Y-66365721D01*
X118919726Y-66439652D01*
X118919724Y-66439653D01*
X118913696Y-66442337D01*
X118908355Y-66446217D01*
X118908354Y-66446218D01*
X118825771Y-66506218D01*
X118755963Y-66556936D01*
X118751550Y-66561838D01*
X118751548Y-66561839D01*
X118647908Y-66676943D01*
X118625503Y-66701826D01*
X118528019Y-66870674D01*
X118467771Y-67056100D01*
X118447391Y-67250000D01*
X110152609Y-67250000D01*
X110132229Y-67056100D01*
X110071981Y-66870674D01*
X109974497Y-66701826D01*
X109952092Y-66676943D01*
X109848452Y-66561839D01*
X109848450Y-66561838D01*
X109844037Y-66556936D01*
X109686305Y-66442337D01*
X109680277Y-66439653D01*
X109680275Y-66439652D01*
X109514223Y-66365721D01*
X109514222Y-66365721D01*
X109508192Y-66363036D01*
X109412838Y-66342768D01*
X109323941Y-66323872D01*
X109323937Y-66323872D01*
X109317484Y-66322500D01*
X109122516Y-66322500D01*
X109116063Y-66323872D01*
X109116059Y-66323872D01*
X109027162Y-66342768D01*
X108931808Y-66363036D01*
X108925779Y-66365720D01*
X108925777Y-66365721D01*
X108759726Y-66439652D01*
X108759724Y-66439653D01*
X108753696Y-66442337D01*
X108748355Y-66446217D01*
X108748354Y-66446218D01*
X108665771Y-66506218D01*
X108595963Y-66556936D01*
X108591550Y-66561838D01*
X108591548Y-66561839D01*
X108487908Y-66676943D01*
X108465503Y-66701826D01*
X108368019Y-66870674D01*
X108307771Y-67056100D01*
X108287391Y-67250000D01*
X105066303Y-67250000D01*
X105059801Y-67188138D01*
X105052919Y-67122664D01*
X105052919Y-67122663D01*
X105052229Y-67116100D01*
X105049640Y-67108130D01*
X104994023Y-66936959D01*
X104991981Y-66930674D01*
X104977810Y-66906128D01*
X104897800Y-66767547D01*
X104894497Y-66761826D01*
X104840473Y-66701826D01*
X104768452Y-66621839D01*
X104768450Y-66621838D01*
X104764037Y-66616936D01*
X104751099Y-66607536D01*
X104611647Y-66506218D01*
X104611646Y-66506217D01*
X104606305Y-66502337D01*
X104600277Y-66499653D01*
X104600275Y-66499652D01*
X104434223Y-66425721D01*
X104434222Y-66425721D01*
X104428192Y-66423036D01*
X104332838Y-66402768D01*
X104243941Y-66383872D01*
X104243937Y-66383872D01*
X104237484Y-66382500D01*
X104042516Y-66382500D01*
X104036063Y-66383872D01*
X104036059Y-66383872D01*
X103947162Y-66402768D01*
X103851808Y-66423036D01*
X103845779Y-66425720D01*
X103845777Y-66425721D01*
X103679726Y-66499652D01*
X103679724Y-66499653D01*
X103673696Y-66502337D01*
X103668355Y-66506217D01*
X103668354Y-66506218D01*
X103638134Y-66528174D01*
X103515963Y-66616936D01*
X103511550Y-66621838D01*
X103511548Y-66621839D01*
X103439527Y-66701826D01*
X103385503Y-66761826D01*
X103382200Y-66767547D01*
X103302191Y-66906128D01*
X103288019Y-66930674D01*
X103285977Y-66936959D01*
X103230361Y-67108130D01*
X103227771Y-67116100D01*
X103227081Y-67122663D01*
X103227081Y-67122664D01*
X103220199Y-67188138D01*
X103207391Y-67310000D01*
X90180500Y-67310000D01*
X90180500Y-66246522D01*
X91427273Y-66246522D01*
X91474764Y-66423761D01*
X91478510Y-66434053D01*
X91570586Y-66631511D01*
X91576069Y-66641007D01*
X91701028Y-66819467D01*
X91708084Y-66827875D01*
X91862125Y-66981916D01*
X91870533Y-66988972D01*
X92048993Y-67113931D01*
X92058489Y-67119414D01*
X92255947Y-67211490D01*
X92266239Y-67215236D01*
X92438503Y-67261394D01*
X92452599Y-67261058D01*
X92456000Y-67253116D01*
X92456000Y-67247967D01*
X92964000Y-67247967D01*
X92967973Y-67261498D01*
X92976522Y-67262727D01*
X93153761Y-67215236D01*
X93164053Y-67211490D01*
X93361511Y-67119414D01*
X93371007Y-67113931D01*
X93549467Y-66988972D01*
X93557875Y-66981916D01*
X93711916Y-66827875D01*
X93718972Y-66819467D01*
X93843931Y-66641007D01*
X93849414Y-66631511D01*
X93941490Y-66434053D01*
X93945236Y-66423761D01*
X93991394Y-66251497D01*
X93991058Y-66237401D01*
X93983116Y-66234000D01*
X92982115Y-66234000D01*
X92966876Y-66238475D01*
X92965671Y-66239865D01*
X92964000Y-66247548D01*
X92964000Y-67247967D01*
X92456000Y-67247967D01*
X92456000Y-66252115D01*
X92451525Y-66236876D01*
X92450135Y-66235671D01*
X92442452Y-66234000D01*
X91442033Y-66234000D01*
X91428502Y-66237973D01*
X91427273Y-66246522D01*
X90180500Y-66246522D01*
X90180500Y-65980000D01*
X113367391Y-65980000D01*
X113387771Y-66173900D01*
X113389811Y-66180178D01*
X113389811Y-66180179D01*
X113408589Y-66237973D01*
X113448019Y-66359326D01*
X113451322Y-66365048D01*
X113451323Y-66365049D01*
X113484010Y-66421664D01*
X113545503Y-66528174D01*
X113549921Y-66533081D01*
X113549922Y-66533082D01*
X113647099Y-66641007D01*
X113675963Y-66673064D01*
X113681302Y-66676943D01*
X113806008Y-66767547D01*
X113833695Y-66787663D01*
X113839723Y-66790347D01*
X113839725Y-66790348D01*
X114005777Y-66864279D01*
X114011808Y-66866964D01*
X114086537Y-66882848D01*
X114196059Y-66906128D01*
X114196063Y-66906128D01*
X114202516Y-66907500D01*
X114397484Y-66907500D01*
X114403937Y-66906128D01*
X114403941Y-66906128D01*
X114513463Y-66882848D01*
X114588192Y-66866964D01*
X114594223Y-66864279D01*
X114760275Y-66790348D01*
X114760277Y-66790347D01*
X114766305Y-66787663D01*
X114793993Y-66767547D01*
X114918698Y-66676943D01*
X114924037Y-66673064D01*
X114952902Y-66641007D01*
X115050078Y-66533082D01*
X115050079Y-66533081D01*
X115054497Y-66528174D01*
X115115990Y-66421664D01*
X115148677Y-66365049D01*
X115148678Y-66365048D01*
X115151981Y-66359326D01*
X115191411Y-66237973D01*
X115210189Y-66180179D01*
X115210189Y-66180178D01*
X115212229Y-66173900D01*
X115232609Y-65980000D01*
X115212229Y-65786100D01*
X115191597Y-65722599D01*
X115154023Y-65606959D01*
X115151981Y-65600674D01*
X115054497Y-65431826D01*
X114961452Y-65328489D01*
X114928452Y-65291839D01*
X114928450Y-65291838D01*
X114924037Y-65286936D01*
X114766305Y-65172337D01*
X114760277Y-65169653D01*
X114760275Y-65169652D01*
X114594223Y-65095721D01*
X114594222Y-65095721D01*
X114588192Y-65093036D01*
X114492838Y-65072768D01*
X114403941Y-65053872D01*
X114403937Y-65053872D01*
X114397484Y-65052500D01*
X114202516Y-65052500D01*
X114196063Y-65053872D01*
X114196059Y-65053872D01*
X114107162Y-65072768D01*
X114011808Y-65093036D01*
X114005779Y-65095720D01*
X114005777Y-65095721D01*
X113839726Y-65169652D01*
X113839724Y-65169653D01*
X113833696Y-65172337D01*
X113675963Y-65286936D01*
X113671550Y-65291838D01*
X113671548Y-65291839D01*
X113638548Y-65328489D01*
X113545503Y-65431826D01*
X113448019Y-65600674D01*
X113445977Y-65606959D01*
X113408404Y-65722599D01*
X113387771Y-65786100D01*
X113367391Y-65980000D01*
X90180500Y-65980000D01*
X90180500Y-65708503D01*
X91428606Y-65708503D01*
X91428942Y-65722599D01*
X91436884Y-65726000D01*
X92437885Y-65726000D01*
X92453124Y-65721525D01*
X92454329Y-65720135D01*
X92456000Y-65712452D01*
X92456000Y-65707885D01*
X92964000Y-65707885D01*
X92968475Y-65723124D01*
X92969865Y-65724329D01*
X92977548Y-65726000D01*
X93977967Y-65726000D01*
X93991498Y-65722027D01*
X93992727Y-65713478D01*
X93945236Y-65536239D01*
X93941490Y-65525947D01*
X93849414Y-65328489D01*
X93843931Y-65318993D01*
X93718972Y-65140533D01*
X93711916Y-65132125D01*
X93557875Y-64978084D01*
X93549467Y-64971028D01*
X93371007Y-64846069D01*
X93361511Y-64840586D01*
X93164053Y-64748510D01*
X93153761Y-64744764D01*
X92981497Y-64698606D01*
X92967401Y-64698942D01*
X92964000Y-64706884D01*
X92964000Y-65707885D01*
X92456000Y-65707885D01*
X92456000Y-64712033D01*
X92452027Y-64698502D01*
X92443478Y-64697273D01*
X92266239Y-64744764D01*
X92255947Y-64748510D01*
X92058489Y-64840586D01*
X92048993Y-64846069D01*
X91870533Y-64971028D01*
X91862125Y-64978084D01*
X91708084Y-65132125D01*
X91701028Y-65140533D01*
X91576069Y-65318993D01*
X91570586Y-65328489D01*
X91478510Y-65525947D01*
X91474764Y-65536239D01*
X91428606Y-65708503D01*
X90180500Y-65708503D01*
X90180500Y-60076522D01*
X102857273Y-60076522D01*
X102904764Y-60253761D01*
X102908510Y-60264053D01*
X103000586Y-60461511D01*
X103006069Y-60471007D01*
X103131028Y-60649467D01*
X103138084Y-60657875D01*
X103292125Y-60811916D01*
X103300533Y-60818972D01*
X103478993Y-60943931D01*
X103488489Y-60949414D01*
X103685947Y-61041490D01*
X103696239Y-61045236D01*
X103868503Y-61091394D01*
X103882599Y-61091058D01*
X103886000Y-61083116D01*
X103886000Y-61077967D01*
X104394000Y-61077967D01*
X104397973Y-61091498D01*
X104406522Y-61092727D01*
X104583761Y-61045236D01*
X104594053Y-61041490D01*
X104791511Y-60949414D01*
X104801007Y-60943931D01*
X104955060Y-60836062D01*
X108498493Y-60836062D01*
X108507789Y-60848077D01*
X108558994Y-60883931D01*
X108568489Y-60889414D01*
X108765947Y-60981490D01*
X108776239Y-60985236D01*
X108986688Y-61041625D01*
X108997481Y-61043528D01*
X109214525Y-61062517D01*
X109225475Y-61062517D01*
X109442519Y-61043528D01*
X109453312Y-61041625D01*
X109663761Y-60985236D01*
X109674053Y-60981490D01*
X109871511Y-60889414D01*
X109881006Y-60883931D01*
X109933048Y-60847491D01*
X109941424Y-60837012D01*
X109934356Y-60823566D01*
X109232812Y-60122022D01*
X109218868Y-60114408D01*
X109217035Y-60114539D01*
X109210420Y-60118790D01*
X108504923Y-60824287D01*
X108498493Y-60836062D01*
X104955060Y-60836062D01*
X104979467Y-60818972D01*
X104987875Y-60811916D01*
X105141916Y-60657875D01*
X105148972Y-60649467D01*
X105273931Y-60471007D01*
X105279414Y-60461511D01*
X105371490Y-60264053D01*
X105375236Y-60253761D01*
X105421394Y-60081497D01*
X105421058Y-60067401D01*
X105413116Y-60064000D01*
X104412115Y-60064000D01*
X104396876Y-60068475D01*
X104395671Y-60069865D01*
X104394000Y-60077548D01*
X104394000Y-61077967D01*
X103886000Y-61077967D01*
X103886000Y-60082115D01*
X103881525Y-60066876D01*
X103880135Y-60065671D01*
X103872452Y-60064000D01*
X102872033Y-60064000D01*
X102858502Y-60067973D01*
X102857273Y-60076522D01*
X90180500Y-60076522D01*
X90180500Y-59755475D01*
X107907483Y-59755475D01*
X107926472Y-59972519D01*
X107928375Y-59983312D01*
X107984764Y-60193761D01*
X107988510Y-60204053D01*
X108080586Y-60401511D01*
X108086069Y-60411006D01*
X108122509Y-60463048D01*
X108132988Y-60471424D01*
X108146434Y-60464356D01*
X108847978Y-59762812D01*
X108854356Y-59751132D01*
X109584408Y-59751132D01*
X109584539Y-59752965D01*
X109588790Y-59759580D01*
X110294287Y-60465077D01*
X110306062Y-60471507D01*
X110318077Y-60462211D01*
X110353931Y-60411006D01*
X110359414Y-60401511D01*
X110451490Y-60204053D01*
X110455236Y-60193761D01*
X110502727Y-60016522D01*
X118097273Y-60016522D01*
X118144764Y-60193761D01*
X118148510Y-60204053D01*
X118240586Y-60401511D01*
X118246069Y-60411007D01*
X118371028Y-60589467D01*
X118378084Y-60597875D01*
X118532125Y-60751916D01*
X118540533Y-60758972D01*
X118718993Y-60883931D01*
X118728489Y-60889414D01*
X118925947Y-60981490D01*
X118936239Y-60985236D01*
X119108503Y-61031394D01*
X119122599Y-61031058D01*
X119126000Y-61023116D01*
X119126000Y-61017967D01*
X119634000Y-61017967D01*
X119637973Y-61031498D01*
X119646522Y-61032727D01*
X119823761Y-60985236D01*
X119834053Y-60981490D01*
X120031511Y-60889414D01*
X120041007Y-60883931D01*
X120219467Y-60758972D01*
X120227875Y-60751916D01*
X120381916Y-60597875D01*
X120388972Y-60589467D01*
X120513931Y-60411007D01*
X120519414Y-60401511D01*
X120611490Y-60204053D01*
X120615236Y-60193761D01*
X120661394Y-60021497D01*
X120661058Y-60007401D01*
X120653116Y-60004000D01*
X119652115Y-60004000D01*
X119636876Y-60008475D01*
X119635671Y-60009865D01*
X119634000Y-60017548D01*
X119634000Y-61017967D01*
X119126000Y-61017967D01*
X119126000Y-60022115D01*
X119121525Y-60006876D01*
X119120135Y-60005671D01*
X119112452Y-60004000D01*
X118112033Y-60004000D01*
X118098502Y-60007973D01*
X118097273Y-60016522D01*
X110502727Y-60016522D01*
X110511625Y-59983312D01*
X110513528Y-59972519D01*
X110532517Y-59755475D01*
X110532517Y-59744525D01*
X110516903Y-59566062D01*
X113578493Y-59566062D01*
X113587789Y-59578077D01*
X113638994Y-59613931D01*
X113648489Y-59619414D01*
X113845947Y-59711490D01*
X113856239Y-59715236D01*
X114066688Y-59771625D01*
X114077481Y-59773528D01*
X114294525Y-59792517D01*
X114305475Y-59792517D01*
X114522519Y-59773528D01*
X114533312Y-59771625D01*
X114743761Y-59715236D01*
X114754053Y-59711490D01*
X114951511Y-59619414D01*
X114961006Y-59613931D01*
X115013048Y-59577491D01*
X115021424Y-59567012D01*
X115014356Y-59553566D01*
X114939293Y-59478503D01*
X118098606Y-59478503D01*
X118098942Y-59492599D01*
X118106884Y-59496000D01*
X119107885Y-59496000D01*
X119123124Y-59491525D01*
X119124329Y-59490135D01*
X119126000Y-59482452D01*
X119126000Y-59477885D01*
X119634000Y-59477885D01*
X119638475Y-59493124D01*
X119639865Y-59494329D01*
X119647548Y-59496000D01*
X120647967Y-59496000D01*
X120661498Y-59492027D01*
X120662727Y-59483478D01*
X120615236Y-59306239D01*
X120611490Y-59295947D01*
X120519414Y-59098489D01*
X120513931Y-59088993D01*
X120388972Y-58910533D01*
X120381916Y-58902125D01*
X120227875Y-58748084D01*
X120219467Y-58741028D01*
X120041007Y-58616069D01*
X120031511Y-58610586D01*
X119834053Y-58518510D01*
X119823761Y-58514764D01*
X119651497Y-58468606D01*
X119637401Y-58468942D01*
X119634000Y-58476884D01*
X119634000Y-59477885D01*
X119126000Y-59477885D01*
X119126000Y-58482033D01*
X119122027Y-58468502D01*
X119113478Y-58467273D01*
X118936239Y-58514764D01*
X118925947Y-58518510D01*
X118728489Y-58610586D01*
X118718993Y-58616069D01*
X118540533Y-58741028D01*
X118532125Y-58748084D01*
X118378084Y-58902125D01*
X118371028Y-58910533D01*
X118246069Y-59088993D01*
X118240586Y-59098489D01*
X118148510Y-59295947D01*
X118144764Y-59306239D01*
X118098606Y-59478503D01*
X114939293Y-59478503D01*
X114312812Y-58852022D01*
X114298868Y-58844408D01*
X114297035Y-58844539D01*
X114290420Y-58848790D01*
X113584923Y-59554287D01*
X113578493Y-59566062D01*
X110516903Y-59566062D01*
X110513528Y-59527481D01*
X110511625Y-59516688D01*
X110455236Y-59306239D01*
X110451490Y-59295947D01*
X110359414Y-59098489D01*
X110353931Y-59088994D01*
X110317491Y-59036952D01*
X110307012Y-59028576D01*
X110293566Y-59035644D01*
X109592022Y-59737188D01*
X109584408Y-59751132D01*
X108854356Y-59751132D01*
X108855592Y-59748868D01*
X108855461Y-59747035D01*
X108851210Y-59740420D01*
X108145713Y-59034923D01*
X108133938Y-59028493D01*
X108121923Y-59037789D01*
X108086069Y-59088994D01*
X108080586Y-59098489D01*
X107988510Y-59295947D01*
X107984764Y-59306239D01*
X107928375Y-59516688D01*
X107926472Y-59527481D01*
X107907483Y-59744525D01*
X107907483Y-59755475D01*
X90180500Y-59755475D01*
X90180500Y-59538503D01*
X102858606Y-59538503D01*
X102858942Y-59552599D01*
X102866884Y-59556000D01*
X103867885Y-59556000D01*
X103883124Y-59551525D01*
X103884329Y-59550135D01*
X103886000Y-59542452D01*
X103886000Y-59537885D01*
X104394000Y-59537885D01*
X104398475Y-59553124D01*
X104399865Y-59554329D01*
X104407548Y-59556000D01*
X105407967Y-59556000D01*
X105421498Y-59552027D01*
X105422727Y-59543478D01*
X105375236Y-59366239D01*
X105371490Y-59355947D01*
X105279414Y-59158489D01*
X105273931Y-59148993D01*
X105148972Y-58970533D01*
X105141916Y-58962125D01*
X104987875Y-58808084D01*
X104979467Y-58801028D01*
X104801007Y-58676069D01*
X104791511Y-58670586D01*
X104775217Y-58662988D01*
X108498576Y-58662988D01*
X108505644Y-58676434D01*
X109207188Y-59377978D01*
X109221132Y-59385592D01*
X109222965Y-59385461D01*
X109229580Y-59381210D01*
X109935077Y-58675713D01*
X109941507Y-58663938D01*
X109932211Y-58651923D01*
X109881006Y-58616069D01*
X109871511Y-58610586D01*
X109674053Y-58518510D01*
X109663761Y-58514764D01*
X109554452Y-58485475D01*
X112987483Y-58485475D01*
X113006472Y-58702519D01*
X113008375Y-58713312D01*
X113064764Y-58923761D01*
X113068510Y-58934053D01*
X113160586Y-59131511D01*
X113166069Y-59141006D01*
X113202509Y-59193048D01*
X113212988Y-59201424D01*
X113226434Y-59194356D01*
X113927978Y-58492812D01*
X113934356Y-58481132D01*
X114664408Y-58481132D01*
X114664539Y-58482965D01*
X114668790Y-58489580D01*
X115374287Y-59195077D01*
X115386062Y-59201507D01*
X115398077Y-59192211D01*
X115433931Y-59141006D01*
X115439414Y-59131511D01*
X115531490Y-58934053D01*
X115535236Y-58923761D01*
X115591625Y-58713312D01*
X115593528Y-58702519D01*
X115612517Y-58485475D01*
X115612517Y-58474525D01*
X115593528Y-58257481D01*
X115591625Y-58246688D01*
X115535236Y-58036239D01*
X115531490Y-58025947D01*
X115439414Y-57828489D01*
X115433931Y-57818994D01*
X115397491Y-57766952D01*
X115387012Y-57758576D01*
X115373566Y-57765644D01*
X114672022Y-58467188D01*
X114664408Y-58481132D01*
X113934356Y-58481132D01*
X113935592Y-58478868D01*
X113935461Y-58477035D01*
X113931210Y-58470420D01*
X113225713Y-57764923D01*
X113213938Y-57758493D01*
X113201923Y-57767789D01*
X113166069Y-57818994D01*
X113160586Y-57828489D01*
X113068510Y-58025947D01*
X113064764Y-58036239D01*
X113008375Y-58246688D01*
X113006472Y-58257481D01*
X112987483Y-58474525D01*
X112987483Y-58485475D01*
X109554452Y-58485475D01*
X109453312Y-58458375D01*
X109442519Y-58456472D01*
X109225475Y-58437483D01*
X109214525Y-58437483D01*
X108997481Y-58456472D01*
X108986688Y-58458375D01*
X108776239Y-58514764D01*
X108765947Y-58518510D01*
X108568489Y-58610586D01*
X108558994Y-58616069D01*
X108506952Y-58652509D01*
X108498576Y-58662988D01*
X104775217Y-58662988D01*
X104594053Y-58578510D01*
X104583761Y-58574764D01*
X104411497Y-58528606D01*
X104397401Y-58528942D01*
X104394000Y-58536884D01*
X104394000Y-59537885D01*
X103886000Y-59537885D01*
X103886000Y-58542033D01*
X103882027Y-58528502D01*
X103873478Y-58527273D01*
X103696239Y-58574764D01*
X103685947Y-58578510D01*
X103488489Y-58670586D01*
X103478993Y-58676069D01*
X103300533Y-58801028D01*
X103292125Y-58808084D01*
X103138084Y-58962125D01*
X103131028Y-58970533D01*
X103006069Y-59148993D01*
X103000586Y-59158489D01*
X102908510Y-59355947D01*
X102904764Y-59366239D01*
X102858606Y-59538503D01*
X90180500Y-59538503D01*
X90180500Y-58480000D01*
X91777391Y-58480000D01*
X91797771Y-58673900D01*
X91858019Y-58859326D01*
X91955503Y-59028174D01*
X91959921Y-59033081D01*
X91959922Y-59033082D01*
X92072840Y-59158489D01*
X92085963Y-59173064D01*
X92243695Y-59287663D01*
X92249723Y-59290347D01*
X92249725Y-59290348D01*
X92262301Y-59295947D01*
X92421808Y-59366964D01*
X92517162Y-59387232D01*
X92606059Y-59406128D01*
X92606063Y-59406128D01*
X92612516Y-59407500D01*
X92807484Y-59407500D01*
X92813937Y-59406128D01*
X92813941Y-59406128D01*
X92902838Y-59387232D01*
X92998192Y-59366964D01*
X93157699Y-59295947D01*
X93170275Y-59290348D01*
X93170277Y-59290347D01*
X93176305Y-59287663D01*
X93334037Y-59173064D01*
X93347161Y-59158489D01*
X93460078Y-59033082D01*
X93460079Y-59033081D01*
X93464497Y-59028174D01*
X93561981Y-58859326D01*
X93622229Y-58673900D01*
X93642609Y-58480000D01*
X93641411Y-58468606D01*
X93622919Y-58292664D01*
X93622919Y-58292663D01*
X93622229Y-58286100D01*
X93561981Y-58100674D01*
X93464497Y-57931826D01*
X93371452Y-57828489D01*
X93338452Y-57791839D01*
X93338450Y-57791838D01*
X93334037Y-57786936D01*
X93176305Y-57672337D01*
X93170277Y-57669653D01*
X93170275Y-57669652D01*
X93004223Y-57595721D01*
X93004222Y-57595721D01*
X92998192Y-57593036D01*
X92902838Y-57572768D01*
X92813941Y-57553872D01*
X92813937Y-57553872D01*
X92807484Y-57552500D01*
X92612516Y-57552500D01*
X92606063Y-57553872D01*
X92606059Y-57553872D01*
X92517162Y-57572768D01*
X92421808Y-57593036D01*
X92415779Y-57595720D01*
X92415777Y-57595721D01*
X92249726Y-57669652D01*
X92249724Y-57669653D01*
X92243696Y-57672337D01*
X92085963Y-57786936D01*
X92081550Y-57791838D01*
X92081548Y-57791839D01*
X92048548Y-57828489D01*
X91955503Y-57931826D01*
X91858019Y-58100674D01*
X91797771Y-58286100D01*
X91797081Y-58292663D01*
X91797081Y-58292664D01*
X91778589Y-58468606D01*
X91777391Y-58480000D01*
X90180500Y-58480000D01*
X90180500Y-57392988D01*
X113578576Y-57392988D01*
X113585644Y-57406434D01*
X114287188Y-58107978D01*
X114301132Y-58115592D01*
X114302965Y-58115461D01*
X114309580Y-58111210D01*
X115015077Y-57405713D01*
X115021507Y-57393938D01*
X115012211Y-57381923D01*
X114961006Y-57346069D01*
X114951511Y-57340586D01*
X114754053Y-57248510D01*
X114743761Y-57244764D01*
X114533312Y-57188375D01*
X114522519Y-57186472D01*
X114305475Y-57167483D01*
X114294525Y-57167483D01*
X114077481Y-57186472D01*
X114066688Y-57188375D01*
X113856239Y-57244764D01*
X113845947Y-57248510D01*
X113648489Y-57340586D01*
X113638994Y-57346069D01*
X113586952Y-57382509D01*
X113578576Y-57392988D01*
X90180500Y-57392988D01*
X90180500Y-56016500D01*
X90200502Y-55948379D01*
X90254158Y-55901886D01*
X90306500Y-55890500D01*
X129403500Y-55890500D01*
X129471621Y-55910502D01*
G37*
G04 #@! TD.AperFunction*
M02*
