M48
; DRILL file {KiCad (6.0.7)} date Sat Nov  5 23:49:41 2022
; FORMAT={-:-/ absolute / inch / decimal}
; #@! TF.CreationDate,2022-11-05T23:49:41+01:00
; #@! TF.GenerationSoftware,Kicad,Pcbnew,(6.0.7)
; #@! TF.FileFunction,Plated,1,2,PTH
FMAT,2
INCH
; #@! TA.AperFunction,Plated,PTH,ViaDrill
T1C0.0118
; #@! TA.AperFunction,Plated,PTH,ViaDrill
T2C0.0157
; #@! TA.AperFunction,Plated,PTH,ComponentDrill
T3C0.0295
; #@! TA.AperFunction,Plated,PTH,ComponentDrill
T4C0.0315
; #@! TA.AperFunction,Plated,PTH,ComponentDrill
T5C0.0394
%
G90
G05
T1
X3.8776Y-2.7606
X3.9Y-3.0
X4.2787Y-2.7315
X4.4094Y-3.9764
X4.4488Y-3.8386
X4.4587Y-2.9898
X4.4665Y-3.7764
X4.4976Y-3.6665
X4.539Y-3.498
X4.5429Y-3.5752
X4.5571Y-2.7122
X4.572Y-2.8661
X4.572Y-3.339
X4.628Y-2.948
X4.6425Y-3.1713
X4.6591Y-2.7346
X4.676Y-3.0059
X4.7Y-2.75
X4.7161Y-2.8547
X4.7272Y-2.913
X4.95Y-2.65
T2
X4.1311Y-4.3528
X4.1433Y-4.6472
T3
X3.65Y-2.95
X3.7Y-3.0
X3.75Y-2.95
X4.0Y-5.7
X4.0Y-5.75
X4.0Y-5.8
X4.9Y-4.7
X4.95Y-4.75
X5.0Y-4.7
T4
X3.65Y-2.3024
X3.65Y-2.5976
X3.7Y-3.2024
X3.7Y-3.4976
X3.8583Y-5.1543
X3.8583Y-5.5543
X3.9764Y-5.1543
X3.9764Y-5.5543
X4.0945Y-5.1543
X4.0945Y-5.5543
X4.1Y-2.3547
X4.1Y-2.65
X4.3Y-2.3524
X4.3Y-2.6476
X4.5Y-2.3024
X4.5Y-2.5976
X4.6405Y-4.5047
X4.6405Y-4.8
X4.7Y-2.3524
X4.7Y-2.6476
T5
X3.7Y-3.7
X3.7Y-3.8
X3.7Y-3.9
X3.9961Y-3.1335
X3.9961Y-3.2335
X3.9961Y-3.3335
X3.9961Y-3.4335
X3.9961Y-3.5335
X3.9961Y-3.6335
X3.9961Y-3.7335
X3.9961Y-3.8335
X3.9961Y-3.9335
X3.9961Y-4.0335
X3.9961Y-4.1335
X3.9961Y-4.2335
X3.9961Y-4.3335
X3.9961Y-4.4335
X3.9961Y-4.5335
X3.9961Y-4.6335
X3.9961Y-4.7335
X3.9961Y-4.8335
X3.9961Y-4.9335
X3.9961Y-5.0335
T0
M30
