M48
; DRILL file {KiCad (6.0.6)} date ma 04 jul 2022 23:45:56 CEST
; FORMAT={-:-/ absolute / metric / decimal}
; #@! TF.CreationDate,2022-07-04T23:45:56+02:00
; #@! TF.GenerationSoftware,Kicad,Pcbnew,(6.0.6)
; #@! TF.FileFunction,Plated,1,2,PTH
FMAT,2
METRIC
; #@! TA.AperFunction,Plated,PTH,ViaDrill
T1C0.300
; #@! TA.AperFunction,Plated,PTH,ViaDrill
T2C0.400
; #@! TA.AperFunction,Plated,PTH,ComponentDrill
T3C0.750
; #@! TA.AperFunction,Plated,PTH,ComponentDrill
T4C0.800
; #@! TA.AperFunction,Plated,PTH,ComponentDrill
T5C1.000
%
G90
G05
T1
X98.49Y-70.12
X105.58Y-74.48
X108.68Y-69.38
X112.0Y-101.0
X113.0Y-97.5
X113.25Y-75.94
X113.45Y-95.92
X114.24Y-93.13
X114.27Y-68.74
X115.29Y-88.85
X115.39Y-90.81
X116.13Y-72.8
X116.13Y-84.81
X117.55Y-74.88
X117.92Y-80.55
X118.34Y-69.46
X118.77Y-76.35
X119.79Y-72.51
X120.07Y-73.99
T2
X101.0Y-138.0
X101.0Y-147.0
X104.93Y-110.56
X105.24Y-118.04
X106.99Y-71.25
T3
X103.0Y-144.46
X103.0Y-145.73
X103.0Y-147.0
T4
X98.0Y-130.92
X98.0Y-141.08
X101.0Y-130.92
X101.0Y-141.08
X104.0Y-130.92
X104.0Y-141.08
T5
X101.5Y-82.13
X101.5Y-84.67
X101.5Y-87.21
X101.5Y-89.75
X101.5Y-92.29
X101.5Y-94.83
X101.5Y-97.37
X101.5Y-99.91
X101.5Y-102.45
X101.5Y-104.99
X101.5Y-107.53
X101.5Y-110.07
X101.5Y-112.61
X101.5Y-115.15
X101.5Y-117.69
X101.5Y-120.23
X101.5Y-122.77
X101.5Y-125.31
X101.5Y-127.85
T0
M30
