G04 #@! TF.GenerationSoftware,KiCad,Pcbnew,(6.0.7)*
G04 #@! TF.CreationDate,2022-11-05T23:49:30+01:00*
G04 #@! TF.ProjectId,vogelhuisje_camera_board,766f6765-6c68-4756-9973-6a655f63616d,rev?*
G04 #@! TF.SameCoordinates,Original*
G04 #@! TF.FileFunction,Copper,L1,Top*
G04 #@! TF.FilePolarity,Positive*
%FSLAX46Y46*%
G04 Gerber Fmt 4.6, Leading zero omitted, Abs format (unit mm)*
G04 Created by KiCad (PCBNEW (6.0.7)) date 2022-11-05 23:49:30*
%MOMM*%
%LPD*%
G01*
G04 APERTURE LIST*
G04 Aperture macros list*
%AMRoundRect*
0 Rectangle with rounded corners*
0 $1 Rounding radius*
0 $2 $3 $4 $5 $6 $7 $8 $9 X,Y pos of 4 corners*
0 Add a 4 corners polygon primitive as box body*
4,1,4,$2,$3,$4,$5,$6,$7,$8,$9,$2,$3,0*
0 Add four circle primitives for the rounded corners*
1,1,$1+$1,$2,$3*
1,1,$1+$1,$4,$5*
1,1,$1+$1,$6,$7*
1,1,$1+$1,$8,$9*
0 Add four rect primitives between the rounded corners*
20,1,$1+$1,$2,$3,$4,$5,0*
20,1,$1+$1,$4,$5,$6,$7,0*
20,1,$1+$1,$6,$7,$8,$9,0*
20,1,$1+$1,$8,$9,$2,$3,0*%
G04 Aperture macros list end*
G04 #@! TA.AperFunction,ComponentPad*
%ADD10C,1.600000*%
G04 #@! TD*
G04 #@! TA.AperFunction,ComponentPad*
%ADD11O,1.600000X1.600000*%
G04 #@! TD*
G04 #@! TA.AperFunction,ComponentPad*
%ADD12R,1.300000X1.300000*%
G04 #@! TD*
G04 #@! TA.AperFunction,ComponentPad*
%ADD13C,1.300000*%
G04 #@! TD*
G04 #@! TA.AperFunction,ComponentPad*
%ADD14R,1.700000X1.700000*%
G04 #@! TD*
G04 #@! TA.AperFunction,ComponentPad*
%ADD15O,1.700000X1.700000*%
G04 #@! TD*
G04 #@! TA.AperFunction,SMDPad,CuDef*
%ADD16RoundRect,0.625000X0.675000X0.625000X-0.675000X0.625000X-0.675000X-0.625000X0.675000X-0.625000X0*%
G04 #@! TD*
G04 #@! TA.AperFunction,ComponentPad*
%ADD17R,1.500000X1.050000*%
G04 #@! TD*
G04 #@! TA.AperFunction,ComponentPad*
%ADD18O,1.500000X1.050000*%
G04 #@! TD*
G04 #@! TA.AperFunction,SMDPad,CuDef*
%ADD19R,1.800000X2.200000*%
G04 #@! TD*
G04 #@! TA.AperFunction,SMDPad,CuDef*
%ADD20R,0.300000X1.300000*%
G04 #@! TD*
G04 #@! TA.AperFunction,ViaPad*
%ADD21C,0.600000*%
G04 #@! TD*
G04 #@! TA.AperFunction,ViaPad*
%ADD22C,0.900000*%
G04 #@! TD*
G04 #@! TA.AperFunction,Conductor*
%ADD23C,0.127000*%
G04 #@! TD*
G04 #@! TA.AperFunction,Conductor*
%ADD24C,0.600000*%
G04 #@! TD*
G04 #@! TA.AperFunction,Conductor*
%ADD25C,0.200000*%
G04 #@! TD*
G04 #@! TA.AperFunction,Conductor*
%ADD26C,0.150000*%
G04 #@! TD*
G04 APERTURE END LIST*
D10*
X117867500Y-114420000D03*
D11*
X117867500Y-121920000D03*
D10*
X104140000Y-67310000D03*
D11*
X104140000Y-59810000D03*
D10*
X92710000Y-58480000D03*
D11*
X92710000Y-65980000D03*
D10*
X119380000Y-67250000D03*
D11*
X119380000Y-59750000D03*
D10*
X93980000Y-81340000D03*
D11*
X93980000Y-88840000D03*
D10*
X114300000Y-58480000D03*
D11*
X114300000Y-65980000D03*
D10*
X109220000Y-59750000D03*
D11*
X109220000Y-67250000D03*
D12*
X127000000Y-119380000D03*
D13*
X125730000Y-120650000D03*
X124460000Y-119380000D03*
D12*
X95250000Y-74930000D03*
D13*
X93980000Y-76200000D03*
X92710000Y-74930000D03*
D14*
X93980000Y-93980000D03*
D15*
X93980000Y-96520000D03*
X93980000Y-99060000D03*
D14*
X101500000Y-127850000D03*
D15*
X101500000Y-125310000D03*
X101500000Y-122770000D03*
X101500000Y-120230000D03*
X101500000Y-117690000D03*
X101500000Y-115150000D03*
X101500000Y-112610000D03*
X101500000Y-110070000D03*
X101500000Y-107530000D03*
X101500000Y-104990000D03*
X101500000Y-102450000D03*
X101500000Y-99910000D03*
X101500000Y-97370000D03*
X101500000Y-94830000D03*
X101500000Y-92290000D03*
X101500000Y-89750000D03*
X101500000Y-87210000D03*
X101500000Y-84670000D03*
X101500000Y-82130000D03*
X101500000Y-79590000D03*
D16*
X123000000Y-147900000D03*
X123000000Y-143900000D03*
D17*
X101600000Y-147320000D03*
D18*
X101600000Y-146050000D03*
X101600000Y-144780000D03*
D10*
X101000000Y-141080000D03*
D11*
X101000000Y-130920000D03*
D10*
X104000000Y-130920000D03*
D11*
X104000000Y-141080000D03*
D16*
X107200000Y-136000000D03*
X107200000Y-132000000D03*
D19*
X122650000Y-74300000D03*
X107350000Y-74300000D03*
D20*
X120750000Y-71050000D03*
X120250000Y-71050000D03*
X119750000Y-71050000D03*
X119250000Y-71050000D03*
X118750000Y-71050000D03*
X118250000Y-71050000D03*
X117750000Y-71050000D03*
X117250000Y-71050000D03*
X116750000Y-71050000D03*
X116250000Y-71050000D03*
X115750000Y-71050000D03*
X115250000Y-71050000D03*
X114750000Y-71050000D03*
X114250000Y-71050000D03*
X113750000Y-71050000D03*
X113250000Y-71050000D03*
X112750000Y-71050000D03*
X112250000Y-71050000D03*
X111750000Y-71050000D03*
X111250000Y-71050000D03*
X110750000Y-71050000D03*
X110250000Y-71050000D03*
X109750000Y-71050000D03*
X109250000Y-71050000D03*
D10*
X98000000Y-130920000D03*
D11*
X98000000Y-141080000D03*
D16*
X123000000Y-136000000D03*
X123000000Y-132000000D03*
X107000000Y-147900000D03*
X107000000Y-143900000D03*
D21*
X125730000Y-67310000D03*
X119380000Y-69850000D03*
X115750000Y-68890000D03*
X99060000Y-76200000D03*
D22*
X104930000Y-110560000D03*
D21*
X98490000Y-70120000D03*
D22*
X105240000Y-118040000D03*
D21*
X113250000Y-75940000D03*
X108680000Y-69380000D03*
X118340000Y-69460000D03*
X116130000Y-72800000D03*
X112000000Y-101000000D03*
X113000000Y-97500000D03*
X113450000Y-95920000D03*
X114240000Y-93130000D03*
X115390000Y-90810000D03*
X115290000Y-88850000D03*
X116130000Y-84810000D03*
X117920000Y-80550000D03*
X118770000Y-76350000D03*
X120070000Y-73990000D03*
X119790000Y-72510000D03*
X117550000Y-74880000D03*
D23*
X119250000Y-70360000D02*
X118400000Y-69510000D01*
X118730000Y-69850000D02*
X118340000Y-69460000D01*
X119380000Y-69850000D02*
X118730000Y-69850000D01*
X127000000Y-68580000D02*
X125730000Y-67310000D01*
X127000000Y-69850000D02*
X127000000Y-68580000D01*
X127000000Y-106680000D02*
X127000000Y-69850000D01*
X125730000Y-107950000D02*
X127000000Y-106680000D01*
X125730000Y-120650000D02*
X125730000Y-107950000D01*
X125730000Y-106557500D02*
X117867500Y-114420000D01*
X124460000Y-68580000D02*
X125730000Y-69850000D01*
X125730000Y-69850000D02*
X125730000Y-106557500D01*
X118039000Y-68580000D02*
X124460000Y-68580000D01*
X116130000Y-70489000D02*
X118039000Y-68580000D01*
X116130000Y-72800000D02*
X116130000Y-70489000D01*
X97790000Y-83300000D02*
X101500000Y-79590000D01*
X97790000Y-92710000D02*
X97790000Y-83300000D01*
X93980000Y-96520000D02*
X97790000Y-92710000D01*
X102409145Y-76660855D02*
X96520000Y-82550000D01*
X102409145Y-76660855D02*
X104930000Y-79181710D01*
X96520000Y-90170000D02*
X93980000Y-92710000D01*
X98522500Y-72774210D02*
X102409145Y-76660855D01*
X96520000Y-82550000D02*
X96520000Y-90170000D01*
X93980000Y-92710000D02*
X93980000Y-93980000D01*
D24*
X105150000Y-146050000D02*
X101600000Y-146050000D01*
X107000000Y-147900000D02*
X105150000Y-146050000D01*
D23*
X101600000Y-144680000D02*
X101600000Y-144780000D01*
X98000000Y-141080000D02*
X101600000Y-144680000D01*
X94040000Y-58480000D02*
X92710000Y-58480000D01*
X101600000Y-67310000D02*
X97790000Y-63500000D01*
X97790000Y-63500000D02*
X97790000Y-62230000D01*
X104140000Y-67310000D02*
X101600000Y-67310000D01*
X97790000Y-62230000D02*
X94040000Y-58480000D01*
X106210000Y-69380000D02*
X104140000Y-67310000D01*
X108680000Y-69380000D02*
X106210000Y-69380000D01*
X109220000Y-59750000D02*
X104200000Y-59750000D01*
X104200000Y-59750000D02*
X104140000Y-59810000D01*
X113030000Y-59750000D02*
X114300000Y-58480000D01*
X109220000Y-59750000D02*
X113030000Y-59750000D01*
X115570000Y-59750000D02*
X114300000Y-58480000D01*
X119380000Y-59750000D02*
X115570000Y-59750000D01*
X110822500Y-67250000D02*
X109220000Y-67250000D01*
X112750000Y-69177500D02*
X110822500Y-67250000D01*
X114300000Y-65980000D02*
X116347500Y-65980000D01*
X116347500Y-65980000D02*
X117617500Y-67250000D01*
X117617500Y-67250000D02*
X119380000Y-67250000D01*
X115750000Y-69117500D02*
X117617500Y-67250000D01*
X93980000Y-76200000D02*
X99060000Y-76200000D01*
X93980000Y-76200000D02*
X93980000Y-81340000D01*
X95982500Y-71657500D02*
X98522500Y-71657500D01*
X92710000Y-74930000D02*
X95982500Y-71657500D01*
X98522500Y-71657500D02*
X98522500Y-72774210D01*
X98522500Y-70152500D02*
X98522500Y-71657500D01*
X104930000Y-79181710D02*
X104930000Y-81330000D01*
X98490000Y-70120000D02*
X98522500Y-70152500D01*
D25*
X104930000Y-110560000D02*
X104930000Y-81330000D01*
X101890000Y-127850000D02*
X103870000Y-125870000D01*
X105240000Y-124500000D02*
X105240000Y-118040000D01*
X103870000Y-125870000D02*
X105240000Y-124500000D01*
D23*
X115750000Y-69117500D02*
X115750000Y-71050000D01*
D25*
X101500000Y-127850000D02*
X101890000Y-127850000D01*
D23*
X112750000Y-69177500D02*
X112750000Y-71050000D01*
X112750000Y-75440000D02*
X113250000Y-75940000D01*
X112750000Y-71050000D02*
X112750000Y-75440000D01*
X119250000Y-71050000D02*
X119250000Y-70360000D01*
X118400000Y-69510000D02*
X118350000Y-69460000D01*
X118350000Y-69460000D02*
X118340000Y-69460000D01*
X116250000Y-72680000D02*
X116130000Y-72800000D01*
X116250000Y-71050000D02*
X116250000Y-72680000D01*
X111750000Y-99250000D02*
X113000000Y-100500000D01*
X113000000Y-108730000D02*
X101500000Y-120230000D01*
X111750000Y-71050000D02*
X111750000Y-99250000D01*
X113000000Y-100500000D02*
X113000000Y-108730000D01*
X110750000Y-71050000D02*
X110750000Y-108440000D01*
X110750000Y-108440000D02*
X101500000Y-117690000D01*
X110250000Y-71050000D02*
X110250000Y-106400000D01*
X110250000Y-106400000D02*
X101500000Y-115150000D01*
X111250000Y-71050000D02*
X111250000Y-100250000D01*
X111250000Y-100250000D02*
X112000000Y-101000000D01*
X112250000Y-71050000D02*
X112250000Y-96750000D01*
X112250000Y-96750000D02*
X113000000Y-97500000D01*
X113850000Y-92560000D02*
X113610000Y-92800000D01*
X113850000Y-75310000D02*
X113850000Y-78430000D01*
X113610000Y-92800000D02*
X113450000Y-92960000D01*
X113850000Y-78430000D02*
X113850000Y-91710000D01*
X113650000Y-75110000D02*
X113850000Y-75310000D01*
X113850000Y-91710000D02*
X113850000Y-92560000D01*
X113250000Y-74710000D02*
X113650000Y-75110000D01*
X113250000Y-71050000D02*
X113250000Y-74710000D01*
X113450000Y-92960000D02*
X113450000Y-95920000D01*
X114240000Y-93100000D02*
X114240000Y-93130000D01*
X114250000Y-93090000D02*
X114240000Y-93100000D01*
X114250000Y-71050000D02*
X114250000Y-93090000D01*
D26*
X116660000Y-89000000D02*
X116660000Y-89540000D01*
X115250000Y-71050000D02*
X115250000Y-87590000D01*
X115250000Y-87590000D02*
X116660000Y-89000000D01*
X116660000Y-89540000D02*
X115390000Y-90810000D01*
X114750000Y-71050000D02*
X114750000Y-88310000D01*
X114750000Y-88310000D02*
X115290000Y-88850000D01*
X116750000Y-84190000D02*
X116130000Y-84810000D01*
X116750000Y-71050000D02*
X116750000Y-84190000D01*
X117750000Y-71050000D02*
X117750000Y-73890000D01*
X118250000Y-75580000D02*
X117920000Y-75910000D01*
X117920000Y-75910000D02*
X117920000Y-80550000D01*
X118300000Y-75530000D02*
X118250000Y-75580000D01*
X118300000Y-74440000D02*
X118300000Y-75530000D01*
X117750000Y-73890000D02*
X118300000Y-74440000D01*
X119120000Y-76000000D02*
X118770000Y-76350000D01*
X118250000Y-72990000D02*
X119120000Y-73860000D01*
X118250000Y-71050000D02*
X118250000Y-72990000D01*
X119120000Y-73860000D02*
X119120000Y-76000000D01*
X118750000Y-72640000D02*
X119600000Y-73490000D01*
X120070000Y-73960000D02*
X120070000Y-73990000D01*
X118750000Y-71050000D02*
X118750000Y-72640000D01*
X119600000Y-73490000D02*
X120070000Y-73960000D01*
D25*
X119750000Y-71050000D02*
X119750000Y-72470000D01*
X119750000Y-72470000D02*
X119790000Y-72510000D01*
D26*
X117250000Y-71050000D02*
X117250000Y-74580000D01*
D23*
X99000000Y-87170000D02*
X101500000Y-84670000D01*
D26*
X117250000Y-74580000D02*
X117550000Y-74880000D01*
D23*
X99000000Y-129000000D02*
X99000000Y-87170000D01*
X100920000Y-130920000D02*
X99000000Y-129000000D01*
X101000000Y-130920000D02*
X100920000Y-130920000D01*
D24*
X107000000Y-147900000D02*
X109100000Y-147900000D01*
X109100000Y-147900000D02*
X123000000Y-147900000D01*
X123000000Y-132000000D02*
X107200000Y-132000000D01*
X107000000Y-132000000D02*
X104000000Y-135000000D01*
X107200000Y-132000000D02*
X107000000Y-132000000D01*
X104000000Y-135000000D02*
X104000000Y-141080000D01*
X123000000Y-143900000D02*
X123000000Y-136000000D01*
X107000000Y-136200000D02*
X107200000Y-136000000D01*
X107200000Y-136000000D02*
X123000000Y-136000000D01*
X107000000Y-143900000D02*
X107000000Y-136200000D01*
G04 #@! TA.AperFunction,Conductor*
G36*
X129471621Y-55910502D02*
G01*
X129518114Y-55964158D01*
X129529500Y-56016500D01*
X129529500Y-150993500D01*
X129509498Y-151061621D01*
X129455842Y-151108114D01*
X129403500Y-151119500D01*
X90306500Y-151119500D01*
X90238379Y-151099498D01*
X90191886Y-151045842D01*
X90180500Y-150993500D01*
X90180500Y-147889669D01*
X100342001Y-147889669D01*
X100342371Y-147896490D01*
X100347895Y-147947352D01*
X100351521Y-147962604D01*
X100396676Y-148083054D01*
X100405214Y-148098649D01*
X100481715Y-148200724D01*
X100494276Y-148213285D01*
X100596351Y-148289786D01*
X100611946Y-148298324D01*
X100732394Y-148343478D01*
X100747649Y-148347105D01*
X100798514Y-148352631D01*
X100805328Y-148353000D01*
X101327885Y-148353000D01*
X101343124Y-148348525D01*
X101344329Y-148347135D01*
X101346000Y-148339452D01*
X101346000Y-148334884D01*
X101854000Y-148334884D01*
X101858475Y-148350123D01*
X101859865Y-148351328D01*
X101867548Y-148352999D01*
X102394669Y-148352999D01*
X102401490Y-148352629D01*
X102452352Y-148347105D01*
X102467604Y-148343479D01*
X102588054Y-148298324D01*
X102603649Y-148289786D01*
X102705724Y-148213285D01*
X102718285Y-148200724D01*
X102794786Y-148098649D01*
X102803324Y-148083054D01*
X102848478Y-147962606D01*
X102852105Y-147947351D01*
X102857631Y-147896486D01*
X102858000Y-147889672D01*
X102858000Y-147592115D01*
X102853525Y-147576876D01*
X102852135Y-147575671D01*
X102844452Y-147574000D01*
X101872115Y-147574000D01*
X101856876Y-147578475D01*
X101855671Y-147579865D01*
X101854000Y-147587548D01*
X101854000Y-148334884D01*
X101346000Y-148334884D01*
X101346000Y-147592115D01*
X101341525Y-147576876D01*
X101340135Y-147575671D01*
X101332452Y-147574000D01*
X100360116Y-147574000D01*
X100344877Y-147578475D01*
X100343672Y-147579865D01*
X100342001Y-147587548D01*
X100342001Y-147889669D01*
X90180500Y-147889669D01*
X90180500Y-141080000D01*
X97067391Y-141080000D01*
X97087771Y-141273900D01*
X97148019Y-141459326D01*
X97245503Y-141628174D01*
X97249921Y-141633081D01*
X97249922Y-141633082D01*
X97347098Y-141741006D01*
X97375963Y-141773064D01*
X97533695Y-141887663D01*
X97539723Y-141890347D01*
X97539725Y-141890348D01*
X97705777Y-141964279D01*
X97711808Y-141966964D01*
X97807162Y-141987232D01*
X97896059Y-142006128D01*
X97896063Y-142006128D01*
X97902516Y-142007500D01*
X98097484Y-142007500D01*
X98103937Y-142006128D01*
X98103941Y-142006128D01*
X98192838Y-141987232D01*
X98288192Y-141966964D01*
X98436492Y-141900937D01*
X98506857Y-141891503D01*
X98571154Y-141921609D01*
X98576834Y-141926949D01*
X100855334Y-144205449D01*
X100889360Y-144267761D01*
X100884295Y-144338576D01*
X100863324Y-144374859D01*
X100819697Y-144427594D01*
X100749503Y-144576764D01*
X100718612Y-144738704D01*
X100728963Y-144903238D01*
X100731412Y-144910774D01*
X100731412Y-144910776D01*
X100756949Y-144989368D01*
X100779908Y-145060029D01*
X100868244Y-145199225D01*
X100988422Y-145312079D01*
X100995114Y-145315758D01*
X101038388Y-145371881D01*
X101044462Y-145442617D01*
X101011328Y-145505408D01*
X100995033Y-145519527D01*
X100924783Y-145570568D01*
X100819697Y-145697594D01*
X100749503Y-145846764D01*
X100718612Y-146008704D01*
X100728963Y-146173238D01*
X100731412Y-146180775D01*
X100732185Y-146184827D01*
X100725302Y-146255489D01*
X100681308Y-146311212D01*
X100652646Y-146326418D01*
X100611948Y-146341675D01*
X100596351Y-146350214D01*
X100494276Y-146426715D01*
X100481715Y-146439276D01*
X100405214Y-146541351D01*
X100396676Y-146556946D01*
X100351522Y-146677394D01*
X100347895Y-146692649D01*
X100342369Y-146743514D01*
X100342000Y-146750328D01*
X100342000Y-147047885D01*
X100346475Y-147063124D01*
X100347865Y-147064329D01*
X100355548Y-147066000D01*
X102839884Y-147066000D01*
X102855123Y-147061525D01*
X102856328Y-147060135D01*
X102857999Y-147052452D01*
X102857999Y-146750331D01*
X102857629Y-146743510D01*
X102852105Y-146692648D01*
X102848478Y-146677393D01*
X102837358Y-146647729D01*
X102832175Y-146576921D01*
X102866097Y-146514553D01*
X102928352Y-146480424D01*
X102955340Y-146477500D01*
X104920733Y-146477500D01*
X104988854Y-146497502D01*
X105009828Y-146514405D01*
X105543893Y-147048470D01*
X105577919Y-147110782D01*
X105580142Y-147150407D01*
X105572500Y-147224998D01*
X105572500Y-148575002D01*
X105583388Y-148679931D01*
X105638920Y-148846383D01*
X105731256Y-148995596D01*
X105855441Y-149119565D01*
X106004815Y-149211640D01*
X106171364Y-149266882D01*
X106178200Y-149267582D01*
X106178203Y-149267583D01*
X106229992Y-149272889D01*
X106274998Y-149277500D01*
X107725002Y-149277500D01*
X107728248Y-149277163D01*
X107728251Y-149277163D01*
X107823072Y-149267324D01*
X107823074Y-149267323D01*
X107829931Y-149266612D01*
X107996383Y-149211080D01*
X108145596Y-149118744D01*
X108269565Y-148994559D01*
X108361640Y-148845185D01*
X108416882Y-148678636D01*
X108427500Y-148575002D01*
X108427500Y-148453500D01*
X108447502Y-148385379D01*
X108501158Y-148338886D01*
X108553500Y-148327500D01*
X121446500Y-148327500D01*
X121514621Y-148347502D01*
X121561114Y-148401158D01*
X121572500Y-148453500D01*
X121572500Y-148575002D01*
X121583388Y-148679931D01*
X121638920Y-148846383D01*
X121731256Y-148995596D01*
X121855441Y-149119565D01*
X122004815Y-149211640D01*
X122171364Y-149266882D01*
X122178200Y-149267582D01*
X122178203Y-149267583D01*
X122229992Y-149272889D01*
X122274998Y-149277500D01*
X123725002Y-149277500D01*
X123728248Y-149277163D01*
X123728251Y-149277163D01*
X123823072Y-149267324D01*
X123823074Y-149267323D01*
X123829931Y-149266612D01*
X123996383Y-149211080D01*
X124145596Y-149118744D01*
X124269565Y-148994559D01*
X124361640Y-148845185D01*
X124416882Y-148678636D01*
X124427500Y-148575002D01*
X124427500Y-147224998D01*
X124416612Y-147120069D01*
X124361080Y-146953617D01*
X124268744Y-146804404D01*
X124144559Y-146680435D01*
X124138328Y-146676594D01*
X124001415Y-146592200D01*
X124001414Y-146592199D01*
X123995185Y-146588360D01*
X123828636Y-146533118D01*
X123821800Y-146532418D01*
X123821797Y-146532417D01*
X123768972Y-146527005D01*
X123725002Y-146522500D01*
X122274998Y-146522500D01*
X122271752Y-146522837D01*
X122271749Y-146522837D01*
X122176928Y-146532676D01*
X122176926Y-146532677D01*
X122170069Y-146533388D01*
X122003617Y-146588920D01*
X121854404Y-146681256D01*
X121730435Y-146805441D01*
X121638360Y-146954815D01*
X121583118Y-147121364D01*
X121572500Y-147224998D01*
X121572500Y-147346500D01*
X121552498Y-147414621D01*
X121498842Y-147461114D01*
X121446500Y-147472500D01*
X108553500Y-147472500D01*
X108485379Y-147452498D01*
X108438886Y-147398842D01*
X108427500Y-147346500D01*
X108427500Y-147224998D01*
X108416612Y-147120069D01*
X108361080Y-146953617D01*
X108268744Y-146804404D01*
X108144559Y-146680435D01*
X108138328Y-146676594D01*
X108001415Y-146592200D01*
X108001414Y-146592199D01*
X107995185Y-146588360D01*
X107828636Y-146533118D01*
X107821800Y-146532418D01*
X107821797Y-146532417D01*
X107768972Y-146527005D01*
X107725002Y-146522500D01*
X106279268Y-146522500D01*
X106211147Y-146502498D01*
X106190173Y-146485596D01*
X105475518Y-145770942D01*
X105465663Y-145759851D01*
X105451784Y-145742245D01*
X105451780Y-145742241D01*
X105445950Y-145734846D01*
X105438203Y-145729491D01*
X105438201Y-145729490D01*
X105400222Y-145703242D01*
X105397043Y-145700971D01*
X105352300Y-145667923D01*
X105345834Y-145665652D01*
X105340198Y-145661757D01*
X105322012Y-145656005D01*
X105287209Y-145644998D01*
X105283457Y-145643746D01*
X105239898Y-145628450D01*
X105239897Y-145628450D01*
X105231010Y-145625329D01*
X105224163Y-145625060D01*
X105217631Y-145622994D01*
X105211355Y-145622500D01*
X105161503Y-145622500D01*
X105156555Y-145622403D01*
X105154538Y-145622324D01*
X105102559Y-145620281D01*
X105095737Y-145622090D01*
X105088285Y-145622500D01*
X102372831Y-145622500D01*
X102304710Y-145602498D01*
X102286579Y-145588350D01*
X102217360Y-145523350D01*
X102217357Y-145523348D01*
X102211578Y-145517921D01*
X102204886Y-145514242D01*
X102161612Y-145458119D01*
X102155538Y-145387383D01*
X102188672Y-145324592D01*
X102204966Y-145310473D01*
X102250800Y-145277172D01*
X102275217Y-145259432D01*
X102380303Y-145132406D01*
X102450497Y-144983236D01*
X102477928Y-144839435D01*
X102479903Y-144829082D01*
X102479903Y-144829080D01*
X102481388Y-144821296D01*
X102471037Y-144656762D01*
X102445044Y-144576764D01*
X102444471Y-144575002D01*
X105572500Y-144575002D01*
X105572837Y-144578248D01*
X105572837Y-144578251D01*
X105581805Y-144664673D01*
X105583388Y-144679931D01*
X105638920Y-144846383D01*
X105731256Y-144995596D01*
X105855441Y-145119565D01*
X106004815Y-145211640D01*
X106171364Y-145266882D01*
X106178200Y-145267582D01*
X106178203Y-145267583D01*
X106229992Y-145272889D01*
X106274998Y-145277500D01*
X107725002Y-145277500D01*
X107728248Y-145277163D01*
X107728251Y-145277163D01*
X107823072Y-145267324D01*
X107823074Y-145267323D01*
X107829931Y-145266612D01*
X107996383Y-145211080D01*
X108145596Y-145118744D01*
X108269565Y-144994559D01*
X108281345Y-144975449D01*
X108357800Y-144851415D01*
X108357801Y-144851414D01*
X108361640Y-144845185D01*
X108416882Y-144678636D01*
X108419896Y-144649224D01*
X108422889Y-144620008D01*
X108427500Y-144575002D01*
X108427500Y-143224998D01*
X108416612Y-143120069D01*
X108361080Y-142953617D01*
X108268744Y-142804404D01*
X108144559Y-142680435D01*
X107995185Y-142588360D01*
X107828636Y-142533118D01*
X107821800Y-142532418D01*
X107821797Y-142532417D01*
X107770008Y-142527111D01*
X107725002Y-142522500D01*
X107553500Y-142522500D01*
X107485379Y-142502498D01*
X107438886Y-142448842D01*
X107427500Y-142396500D01*
X107427500Y-137503500D01*
X107447502Y-137435379D01*
X107501158Y-137388886D01*
X107553500Y-137377500D01*
X107925002Y-137377500D01*
X107928248Y-137377163D01*
X107928251Y-137377163D01*
X108023072Y-137367324D01*
X108023074Y-137367323D01*
X108029931Y-137366612D01*
X108196383Y-137311080D01*
X108345596Y-137218744D01*
X108469565Y-137094559D01*
X108561640Y-136945185D01*
X108616882Y-136778636D01*
X108627500Y-136675002D01*
X108627500Y-136553500D01*
X108647502Y-136485379D01*
X108701158Y-136438886D01*
X108753500Y-136427500D01*
X121446500Y-136427500D01*
X121514621Y-136447502D01*
X121561114Y-136501158D01*
X121572500Y-136553500D01*
X121572500Y-136675002D01*
X121583388Y-136779931D01*
X121638920Y-136946383D01*
X121731256Y-137095596D01*
X121855441Y-137219565D01*
X122004815Y-137311640D01*
X122171364Y-137366882D01*
X122178200Y-137367582D01*
X122178203Y-137367583D01*
X122229992Y-137372889D01*
X122274998Y-137377500D01*
X122446500Y-137377500D01*
X122514621Y-137397502D01*
X122561114Y-137451158D01*
X122572500Y-137503500D01*
X122572500Y-142396500D01*
X122552498Y-142464621D01*
X122498842Y-142511114D01*
X122446500Y-142522500D01*
X122274998Y-142522500D01*
X122271752Y-142522837D01*
X122271749Y-142522837D01*
X122176928Y-142532676D01*
X122176926Y-142532677D01*
X122170069Y-142533388D01*
X122003617Y-142588920D01*
X121854404Y-142681256D01*
X121730435Y-142805441D01*
X121638360Y-142954815D01*
X121583118Y-143121364D01*
X121572500Y-143224998D01*
X121572500Y-144575002D01*
X121572837Y-144578248D01*
X121572837Y-144578251D01*
X121581805Y-144664673D01*
X121583388Y-144679931D01*
X121638920Y-144846383D01*
X121731256Y-144995596D01*
X121855441Y-145119565D01*
X122004815Y-145211640D01*
X122171364Y-145266882D01*
X122178200Y-145267582D01*
X122178203Y-145267583D01*
X122229992Y-145272889D01*
X122274998Y-145277500D01*
X123725002Y-145277500D01*
X123728248Y-145277163D01*
X123728251Y-145277163D01*
X123823072Y-145267324D01*
X123823074Y-145267323D01*
X123829931Y-145266612D01*
X123996383Y-145211080D01*
X124145596Y-145118744D01*
X124269565Y-144994559D01*
X124281345Y-144975449D01*
X124357800Y-144851415D01*
X124357801Y-144851414D01*
X124361640Y-144845185D01*
X124416882Y-144678636D01*
X124419896Y-144649224D01*
X124422889Y-144620008D01*
X124427500Y-144575002D01*
X124427500Y-143224998D01*
X124416612Y-143120069D01*
X124361080Y-142953617D01*
X124268744Y-142804404D01*
X124144559Y-142680435D01*
X123995185Y-142588360D01*
X123828636Y-142533118D01*
X123821800Y-142532418D01*
X123821797Y-142532417D01*
X123770008Y-142527111D01*
X123725002Y-142522500D01*
X123553500Y-142522500D01*
X123485379Y-142502498D01*
X123438886Y-142448842D01*
X123427500Y-142396500D01*
X123427500Y-137503500D01*
X123447502Y-137435379D01*
X123501158Y-137388886D01*
X123553500Y-137377500D01*
X123725002Y-137377500D01*
X123728248Y-137377163D01*
X123728251Y-137377163D01*
X123823072Y-137367324D01*
X123823074Y-137367323D01*
X123829931Y-137366612D01*
X123996383Y-137311080D01*
X124145596Y-137218744D01*
X124269565Y-137094559D01*
X124361640Y-136945185D01*
X124416882Y-136778636D01*
X124427500Y-136675002D01*
X124427500Y-135324998D01*
X124427163Y-135321749D01*
X124417324Y-135226928D01*
X124417323Y-135226926D01*
X124416612Y-135220069D01*
X124361080Y-135053617D01*
X124268744Y-134904404D01*
X124227059Y-134862791D01*
X124149739Y-134785606D01*
X124144559Y-134780435D01*
X124094824Y-134749778D01*
X124001415Y-134692200D01*
X124001414Y-134692199D01*
X123995185Y-134688360D01*
X123828636Y-134633118D01*
X123821800Y-134632418D01*
X123821797Y-134632417D01*
X123770008Y-134627111D01*
X123725002Y-134622500D01*
X122274998Y-134622500D01*
X122271752Y-134622837D01*
X122271749Y-134622837D01*
X122176928Y-134632676D01*
X122176926Y-134632677D01*
X122170069Y-134633388D01*
X122003617Y-134688920D01*
X121854404Y-134781256D01*
X121730435Y-134905441D01*
X121726595Y-134911671D01*
X121726594Y-134911672D01*
X121708434Y-134941134D01*
X121638360Y-135054815D01*
X121583118Y-135221364D01*
X121572500Y-135324998D01*
X121572500Y-135446500D01*
X121552498Y-135514621D01*
X121498842Y-135561114D01*
X121446500Y-135572500D01*
X108753500Y-135572500D01*
X108685379Y-135552498D01*
X108638886Y-135498842D01*
X108627500Y-135446500D01*
X108627500Y-135324998D01*
X108627163Y-135321749D01*
X108617324Y-135226928D01*
X108617323Y-135226926D01*
X108616612Y-135220069D01*
X108561080Y-135053617D01*
X108468744Y-134904404D01*
X108427059Y-134862791D01*
X108349739Y-134785606D01*
X108344559Y-134780435D01*
X108294824Y-134749778D01*
X108201415Y-134692200D01*
X108201414Y-134692199D01*
X108195185Y-134688360D01*
X108028636Y-134633118D01*
X108021800Y-134632418D01*
X108021797Y-134632417D01*
X107970008Y-134627111D01*
X107925002Y-134622500D01*
X106474998Y-134622500D01*
X106471752Y-134622837D01*
X106471749Y-134622837D01*
X106376928Y-134632676D01*
X106376926Y-134632677D01*
X106370069Y-134633388D01*
X106203617Y-134688920D01*
X106054404Y-134781256D01*
X105930435Y-134905441D01*
X105926595Y-134911671D01*
X105926594Y-134911672D01*
X105908434Y-134941134D01*
X105838360Y-135054815D01*
X105783118Y-135221364D01*
X105772500Y-135324998D01*
X105772500Y-136675002D01*
X105783388Y-136779931D01*
X105838920Y-136946383D01*
X105931256Y-137095596D01*
X106055441Y-137219565D01*
X106204815Y-137311640D01*
X106371364Y-137366882D01*
X106378200Y-137367582D01*
X106378203Y-137367583D01*
X106459342Y-137375896D01*
X106525070Y-137402737D01*
X106565852Y-137460852D01*
X106572500Y-137501240D01*
X106572500Y-142396500D01*
X106552498Y-142464621D01*
X106498842Y-142511114D01*
X106446500Y-142522500D01*
X106274998Y-142522500D01*
X106271752Y-142522837D01*
X106271749Y-142522837D01*
X106176928Y-142532676D01*
X106176926Y-142532677D01*
X106170069Y-142533388D01*
X106003617Y-142588920D01*
X105854404Y-142681256D01*
X105730435Y-142805441D01*
X105638360Y-142954815D01*
X105583118Y-143121364D01*
X105572500Y-143224998D01*
X105572500Y-144575002D01*
X102444471Y-144575002D01*
X102422543Y-144507513D01*
X102422542Y-144507510D01*
X102420092Y-144499971D01*
X102331756Y-144360775D01*
X102211578Y-144247921D01*
X102067110Y-144168499D01*
X101907430Y-144127500D01*
X101369805Y-144127500D01*
X101301684Y-144107498D01*
X101280710Y-144090595D01*
X99356177Y-142166062D01*
X100278493Y-142166062D01*
X100287789Y-142178077D01*
X100338994Y-142213931D01*
X100348489Y-142219414D01*
X100545947Y-142311490D01*
X100556239Y-142315236D01*
X100766688Y-142371625D01*
X100777481Y-142373528D01*
X100994525Y-142392517D01*
X101005475Y-142392517D01*
X101222519Y-142373528D01*
X101233312Y-142371625D01*
X101443761Y-142315236D01*
X101454053Y-142311490D01*
X101651511Y-142219414D01*
X101661006Y-142213931D01*
X101713048Y-142177491D01*
X101721424Y-142167012D01*
X101714356Y-142153566D01*
X101012812Y-141452022D01*
X100998868Y-141444408D01*
X100997035Y-141444539D01*
X100990420Y-141448790D01*
X100284923Y-142154287D01*
X100278493Y-142166062D01*
X99356177Y-142166062D01*
X98846211Y-141656096D01*
X98812185Y-141593784D01*
X98817250Y-141522969D01*
X98826184Y-141504008D01*
X98851981Y-141459326D01*
X98912229Y-141273900D01*
X98932034Y-141085475D01*
X99687483Y-141085475D01*
X99706472Y-141302519D01*
X99708375Y-141313312D01*
X99764764Y-141523761D01*
X99768510Y-141534053D01*
X99860586Y-141731511D01*
X99866069Y-141741006D01*
X99902509Y-141793048D01*
X99912988Y-141801424D01*
X99926434Y-141794356D01*
X100627978Y-141092812D01*
X100634356Y-141081132D01*
X101364408Y-141081132D01*
X101364539Y-141082965D01*
X101368790Y-141089580D01*
X102074287Y-141795077D01*
X102086062Y-141801507D01*
X102098077Y-141792211D01*
X102133931Y-141741006D01*
X102139414Y-141731511D01*
X102231490Y-141534053D01*
X102235236Y-141523761D01*
X102291625Y-141313312D01*
X102293528Y-141302519D01*
X102312517Y-141085475D01*
X102312517Y-141080000D01*
X103067391Y-141080000D01*
X103087771Y-141273900D01*
X103148019Y-141459326D01*
X103245503Y-141628174D01*
X103249921Y-141633081D01*
X103249922Y-141633082D01*
X103347098Y-141741006D01*
X103375963Y-141773064D01*
X103533695Y-141887663D01*
X103539723Y-141890347D01*
X103539725Y-141890348D01*
X103705777Y-141964279D01*
X103711808Y-141966964D01*
X103807162Y-141987232D01*
X103896059Y-142006128D01*
X103896063Y-142006128D01*
X103902516Y-142007500D01*
X104097484Y-142007500D01*
X104103937Y-142006128D01*
X104103941Y-142006128D01*
X104192838Y-141987232D01*
X104288192Y-141966964D01*
X104294223Y-141964279D01*
X104460275Y-141890348D01*
X104460277Y-141890347D01*
X104466305Y-141887663D01*
X104624037Y-141773064D01*
X104652903Y-141741006D01*
X104750078Y-141633082D01*
X104750079Y-141633081D01*
X104754497Y-141628174D01*
X104851981Y-141459326D01*
X104912229Y-141273900D01*
X104932609Y-141080000D01*
X104912229Y-140886100D01*
X104851981Y-140700674D01*
X104754497Y-140531826D01*
X104661452Y-140428489D01*
X104628452Y-140391839D01*
X104628450Y-140391838D01*
X104624037Y-140386936D01*
X104479440Y-140281880D01*
X104479439Y-140281879D01*
X104436085Y-140225657D01*
X104427500Y-140179943D01*
X104427500Y-135229267D01*
X104447502Y-135161146D01*
X104464405Y-135140172D01*
X106216015Y-133388562D01*
X106278327Y-133354536D01*
X106344775Y-133358063D01*
X106371364Y-133366882D01*
X106378200Y-133367582D01*
X106378203Y-133367583D01*
X106429992Y-133372889D01*
X106474998Y-133377500D01*
X107925002Y-133377500D01*
X107928248Y-133377163D01*
X107928251Y-133377163D01*
X108023072Y-133367324D01*
X108023074Y-133367323D01*
X108029931Y-133366612D01*
X108196383Y-133311080D01*
X108345596Y-133218744D01*
X108469565Y-133094559D01*
X108561640Y-132945185D01*
X108616882Y-132778636D01*
X108627500Y-132675002D01*
X108627500Y-132553500D01*
X108647502Y-132485379D01*
X108701158Y-132438886D01*
X108753500Y-132427500D01*
X121446500Y-132427500D01*
X121514621Y-132447502D01*
X121561114Y-132501158D01*
X121572500Y-132553500D01*
X121572500Y-132675002D01*
X121583388Y-132779931D01*
X121638920Y-132946383D01*
X121731256Y-133095596D01*
X121855441Y-133219565D01*
X122004815Y-133311640D01*
X122171364Y-133366882D01*
X122178200Y-133367582D01*
X122178203Y-133367583D01*
X122229992Y-133372889D01*
X122274998Y-133377500D01*
X123725002Y-133377500D01*
X123728248Y-133377163D01*
X123728251Y-133377163D01*
X123823072Y-133367324D01*
X123823074Y-133367323D01*
X123829931Y-133366612D01*
X123996383Y-133311080D01*
X124145596Y-133218744D01*
X124269565Y-133094559D01*
X124361640Y-132945185D01*
X124416882Y-132778636D01*
X124427500Y-132675002D01*
X124427500Y-131324998D01*
X124416612Y-131220069D01*
X124361080Y-131053617D01*
X124268744Y-130904404D01*
X124144559Y-130780435D01*
X124056411Y-130726100D01*
X124001415Y-130692200D01*
X124001414Y-130692199D01*
X123995185Y-130688360D01*
X123828636Y-130633118D01*
X123821800Y-130632418D01*
X123821797Y-130632417D01*
X123770008Y-130627111D01*
X123725002Y-130622500D01*
X122274998Y-130622500D01*
X122271752Y-130622837D01*
X122271749Y-130622837D01*
X122176928Y-130632676D01*
X122176926Y-130632677D01*
X122170069Y-130633388D01*
X122003617Y-130688920D01*
X121854404Y-130781256D01*
X121730435Y-130905441D01*
X121638360Y-131054815D01*
X121583118Y-131221364D01*
X121572500Y-131324998D01*
X121572500Y-131446500D01*
X121552498Y-131514621D01*
X121498842Y-131561114D01*
X121446500Y-131572500D01*
X108753500Y-131572500D01*
X108685379Y-131552498D01*
X108638886Y-131498842D01*
X108627500Y-131446500D01*
X108627500Y-131324998D01*
X108616612Y-131220069D01*
X108561080Y-131053617D01*
X108468744Y-130904404D01*
X108344559Y-130780435D01*
X108256411Y-130726100D01*
X108201415Y-130692200D01*
X108201414Y-130692199D01*
X108195185Y-130688360D01*
X108028636Y-130633118D01*
X108021800Y-130632418D01*
X108021797Y-130632417D01*
X107970008Y-130627111D01*
X107925002Y-130622500D01*
X106474998Y-130622500D01*
X106471752Y-130622837D01*
X106471749Y-130622837D01*
X106376928Y-130632676D01*
X106376926Y-130632677D01*
X106370069Y-130633388D01*
X106203617Y-130688920D01*
X106054404Y-130781256D01*
X105930435Y-130905441D01*
X105838360Y-131054815D01*
X105783118Y-131221364D01*
X105772500Y-131324998D01*
X105772500Y-132570734D01*
X105752498Y-132638855D01*
X105735595Y-132659829D01*
X103720947Y-134674477D01*
X103709858Y-134684332D01*
X103684846Y-134704050D01*
X103679491Y-134711797D01*
X103679490Y-134711799D01*
X103653242Y-134749778D01*
X103650971Y-134752957D01*
X103617923Y-134797700D01*
X103615652Y-134804166D01*
X103611757Y-134809802D01*
X103608918Y-134818779D01*
X103594998Y-134862791D01*
X103593746Y-134866543D01*
X103581906Y-134900261D01*
X103575329Y-134918990D01*
X103575060Y-134925837D01*
X103572994Y-134932369D01*
X103572500Y-134938645D01*
X103572500Y-134988497D01*
X103572403Y-134993445D01*
X103570281Y-135047441D01*
X103572090Y-135054263D01*
X103572500Y-135061715D01*
X103572500Y-140179944D01*
X103552498Y-140248065D01*
X103520562Y-140281879D01*
X103375963Y-140386936D01*
X103371550Y-140391838D01*
X103371548Y-140391839D01*
X103338548Y-140428489D01*
X103245503Y-140531826D01*
X103148019Y-140700674D01*
X103087771Y-140886100D01*
X103067391Y-141080000D01*
X102312517Y-141080000D01*
X102312517Y-141074525D01*
X102293528Y-140857481D01*
X102291625Y-140846688D01*
X102235236Y-140636239D01*
X102231490Y-140625947D01*
X102139414Y-140428489D01*
X102133931Y-140418994D01*
X102097491Y-140366952D01*
X102087012Y-140358576D01*
X102073566Y-140365644D01*
X101372022Y-141067188D01*
X101364408Y-141081132D01*
X100634356Y-141081132D01*
X100635592Y-141078868D01*
X100635461Y-141077035D01*
X100631210Y-141070420D01*
X99925713Y-140364923D01*
X99913938Y-140358493D01*
X99901923Y-140367789D01*
X99866069Y-140418994D01*
X99860586Y-140428489D01*
X99768510Y-140625947D01*
X99764764Y-140636239D01*
X99708375Y-140846688D01*
X99706472Y-140857481D01*
X99687483Y-141074525D01*
X99687483Y-141085475D01*
X98932034Y-141085475D01*
X98932609Y-141080000D01*
X98912229Y-140886100D01*
X98851981Y-140700674D01*
X98754497Y-140531826D01*
X98661452Y-140428489D01*
X98628452Y-140391839D01*
X98628450Y-140391838D01*
X98624037Y-140386936D01*
X98479440Y-140281880D01*
X98471647Y-140276218D01*
X98471646Y-140276217D01*
X98466305Y-140272337D01*
X98460277Y-140269653D01*
X98460275Y-140269652D01*
X98294223Y-140195721D01*
X98294222Y-140195721D01*
X98288192Y-140193036D01*
X98192838Y-140172768D01*
X98103941Y-140153872D01*
X98103937Y-140153872D01*
X98097484Y-140152500D01*
X97902516Y-140152500D01*
X97896063Y-140153872D01*
X97896059Y-140153872D01*
X97807162Y-140172768D01*
X97711808Y-140193036D01*
X97705779Y-140195720D01*
X97705777Y-140195721D01*
X97539726Y-140269652D01*
X97539724Y-140269653D01*
X97533696Y-140272337D01*
X97375963Y-140386936D01*
X97371550Y-140391838D01*
X97371548Y-140391839D01*
X97338548Y-140428489D01*
X97245503Y-140531826D01*
X97148019Y-140700674D01*
X97087771Y-140886100D01*
X97067391Y-141080000D01*
X90180500Y-141080000D01*
X90180500Y-139992988D01*
X100278576Y-139992988D01*
X100285644Y-140006434D01*
X100987188Y-140707978D01*
X101001132Y-140715592D01*
X101002965Y-140715461D01*
X101009580Y-140711210D01*
X101715077Y-140005713D01*
X101721507Y-139993938D01*
X101712211Y-139981923D01*
X101661006Y-139946069D01*
X101651511Y-139940586D01*
X101454053Y-139848510D01*
X101443761Y-139844764D01*
X101233312Y-139788375D01*
X101222519Y-139786472D01*
X101005475Y-139767483D01*
X100994525Y-139767483D01*
X100777481Y-139786472D01*
X100766688Y-139788375D01*
X100556239Y-139844764D01*
X100545947Y-139848510D01*
X100348489Y-139940586D01*
X100338994Y-139946069D01*
X100286952Y-139982509D01*
X100278576Y-139992988D01*
X90180500Y-139992988D01*
X90180500Y-130920000D01*
X97067391Y-130920000D01*
X97087771Y-131113900D01*
X97148019Y-131299326D01*
X97151322Y-131305048D01*
X97151323Y-131305049D01*
X97164726Y-131328264D01*
X97245503Y-131468174D01*
X97249921Y-131473081D01*
X97249922Y-131473082D01*
X97273117Y-131498842D01*
X97375963Y-131613064D01*
X97533695Y-131727663D01*
X97539723Y-131730347D01*
X97539725Y-131730348D01*
X97705777Y-131804279D01*
X97711808Y-131806964D01*
X97807162Y-131827232D01*
X97896059Y-131846128D01*
X97896063Y-131846128D01*
X97902516Y-131847500D01*
X98097484Y-131847500D01*
X98103937Y-131846128D01*
X98103941Y-131846128D01*
X98192838Y-131827232D01*
X98288192Y-131806964D01*
X98294223Y-131804279D01*
X98460275Y-131730348D01*
X98460277Y-131730347D01*
X98466305Y-131727663D01*
X98624037Y-131613064D01*
X98726884Y-131498842D01*
X98750078Y-131473082D01*
X98750079Y-131473081D01*
X98754497Y-131468174D01*
X98835274Y-131328264D01*
X98848677Y-131305049D01*
X98848678Y-131305048D01*
X98851981Y-131299326D01*
X98912229Y-131113900D01*
X98932609Y-130920000D01*
X98912229Y-130726100D01*
X98901402Y-130692776D01*
X98854023Y-130546959D01*
X98854021Y-130546954D01*
X98851981Y-130540674D01*
X98754497Y-130371826D01*
X98624037Y-130226936D01*
X98611099Y-130217536D01*
X98471647Y-130116218D01*
X98471646Y-130116217D01*
X98466305Y-130112337D01*
X98460277Y-130109653D01*
X98460275Y-130109652D01*
X98294223Y-130035721D01*
X98294222Y-130035721D01*
X98288192Y-130033036D01*
X98192838Y-130012768D01*
X98103941Y-129993872D01*
X98103937Y-129993872D01*
X98097484Y-129992500D01*
X97902516Y-129992500D01*
X97896063Y-129993872D01*
X97896059Y-129993872D01*
X97807162Y-130012768D01*
X97711808Y-130033036D01*
X97705779Y-130035720D01*
X97705777Y-130035721D01*
X97539726Y-130109652D01*
X97539724Y-130109653D01*
X97533696Y-130112337D01*
X97375963Y-130226936D01*
X97245503Y-130371826D01*
X97148019Y-130540674D01*
X97145979Y-130546954D01*
X97145977Y-130546959D01*
X97098599Y-130692776D01*
X97087771Y-130726100D01*
X97067391Y-130920000D01*
X90180500Y-130920000D01*
X90180500Y-99327966D01*
X92648257Y-99327966D01*
X92678565Y-99462446D01*
X92681645Y-99472275D01*
X92761770Y-99669603D01*
X92766413Y-99678794D01*
X92877694Y-99860388D01*
X92883777Y-99868699D01*
X93023213Y-100029667D01*
X93030580Y-100036883D01*
X93194434Y-100172916D01*
X93202881Y-100178831D01*
X93386756Y-100286279D01*
X93396042Y-100290729D01*
X93595001Y-100366703D01*
X93604899Y-100369579D01*
X93708250Y-100390606D01*
X93722299Y-100389410D01*
X93726000Y-100379065D01*
X93726000Y-100378517D01*
X94234000Y-100378517D01*
X94238064Y-100392359D01*
X94251478Y-100394393D01*
X94258184Y-100393534D01*
X94268262Y-100391392D01*
X94472255Y-100330191D01*
X94481842Y-100326433D01*
X94673095Y-100232739D01*
X94681945Y-100227464D01*
X94855328Y-100103792D01*
X94863200Y-100097139D01*
X95014052Y-99946812D01*
X95020730Y-99938965D01*
X95145003Y-99766020D01*
X95150313Y-99757183D01*
X95244670Y-99566267D01*
X95248469Y-99556672D01*
X95310377Y-99352910D01*
X95312555Y-99342837D01*
X95313986Y-99331962D01*
X95311775Y-99317778D01*
X95298617Y-99314000D01*
X94252115Y-99314000D01*
X94236876Y-99318475D01*
X94235671Y-99319865D01*
X94234000Y-99327548D01*
X94234000Y-100378517D01*
X93726000Y-100378517D01*
X93726000Y-99332115D01*
X93721525Y-99316876D01*
X93720135Y-99315671D01*
X93712452Y-99314000D01*
X92663225Y-99314000D01*
X92649694Y-99317973D01*
X92648257Y-99327966D01*
X90180500Y-99327966D01*
X90180500Y-98794183D01*
X92644389Y-98794183D01*
X92645912Y-98802607D01*
X92658292Y-98806000D01*
X95298344Y-98806000D01*
X95311875Y-98802027D01*
X95313180Y-98792947D01*
X95271214Y-98625875D01*
X95267894Y-98616124D01*
X95182972Y-98420814D01*
X95178105Y-98411739D01*
X95062426Y-98232926D01*
X95056136Y-98224757D01*
X94912806Y-98067240D01*
X94905273Y-98060215D01*
X94738139Y-97928222D01*
X94729552Y-97922517D01*
X94543117Y-97819599D01*
X94533705Y-97815369D01*
X94332959Y-97744280D01*
X94322989Y-97741646D01*
X94205383Y-97720698D01*
X94141826Y-97689060D01*
X94105463Y-97628083D01*
X94107839Y-97557126D01*
X94148200Y-97498718D01*
X94193595Y-97475293D01*
X94228177Y-97465637D01*
X94335199Y-97435756D01*
X94506305Y-97349324D01*
X94531600Y-97329562D01*
X94652509Y-97235097D01*
X94657365Y-97231303D01*
X94697031Y-97185350D01*
X94778595Y-97090857D01*
X94778596Y-97090855D01*
X94782624Y-97086189D01*
X94877312Y-96919509D01*
X94937821Y-96737612D01*
X94961847Y-96547425D01*
X94962230Y-96520000D01*
X94943524Y-96329217D01*
X94888117Y-96145701D01*
X94840347Y-96055859D01*
X94826028Y-95986322D01*
X94851576Y-95920081D01*
X94862504Y-95907611D01*
X97901358Y-92868757D01*
X97902195Y-92868010D01*
X97911958Y-92863322D01*
X97923269Y-92849179D01*
X97928222Y-92842985D01*
X97933345Y-92837261D01*
X97935280Y-92834835D01*
X97940284Y-92829831D01*
X97944048Y-92823842D01*
X97946339Y-92820970D01*
X97950412Y-92815239D01*
X97957519Y-92806352D01*
X97957520Y-92806349D01*
X97966383Y-92795267D01*
X97968907Y-92784290D01*
X97974902Y-92774752D01*
X97977776Y-92749328D01*
X97979008Y-92742123D01*
X97979402Y-92738653D01*
X97981000Y-92731703D01*
X97981000Y-92724573D01*
X97981373Y-92721287D01*
X97981797Y-92713761D01*
X97983097Y-92702260D01*
X97984691Y-92688161D01*
X97981072Y-92677797D01*
X97981000Y-92676517D01*
X97981000Y-87191838D01*
X98805309Y-87191838D01*
X98808929Y-87202203D01*
X98809000Y-87203477D01*
X98809000Y-128966491D01*
X98808937Y-128967603D01*
X98805348Y-128977822D01*
X98806917Y-128991923D01*
X98806917Y-128991925D01*
X98808227Y-129003693D01*
X98808653Y-129011381D01*
X98809000Y-129014462D01*
X98809000Y-129021533D01*
X98810573Y-129028430D01*
X98810984Y-129032079D01*
X98812158Y-129039014D01*
X98814986Y-129064429D01*
X98820962Y-129073975D01*
X98823468Y-129084959D01*
X98832309Y-129096053D01*
X98832309Y-129096054D01*
X98839400Y-129104952D01*
X98843629Y-129110926D01*
X98845814Y-129113671D01*
X98849596Y-129119711D01*
X98854639Y-129124754D01*
X98856698Y-129127340D01*
X98861715Y-129132955D01*
X98877775Y-129153109D01*
X98887662Y-129157878D01*
X98888616Y-129158731D01*
X100125059Y-130395173D01*
X100159084Y-130457485D01*
X100154020Y-130528300D01*
X100151250Y-130535077D01*
X100148019Y-130540674D01*
X100145980Y-130546950D01*
X100145978Y-130546954D01*
X100089811Y-130719821D01*
X100087771Y-130726100D01*
X100067391Y-130920000D01*
X100087771Y-131113900D01*
X100148019Y-131299326D01*
X100151322Y-131305048D01*
X100151323Y-131305049D01*
X100164726Y-131328264D01*
X100245503Y-131468174D01*
X100249921Y-131473081D01*
X100249922Y-131473082D01*
X100273117Y-131498842D01*
X100375963Y-131613064D01*
X100533695Y-131727663D01*
X100539723Y-131730347D01*
X100539725Y-131730348D01*
X100705777Y-131804279D01*
X100711808Y-131806964D01*
X100807162Y-131827232D01*
X100896059Y-131846128D01*
X100896063Y-131846128D01*
X100902516Y-131847500D01*
X101097484Y-131847500D01*
X101103937Y-131846128D01*
X101103941Y-131846128D01*
X101192838Y-131827232D01*
X101288192Y-131806964D01*
X101294223Y-131804279D01*
X101460275Y-131730348D01*
X101460277Y-131730347D01*
X101466305Y-131727663D01*
X101624037Y-131613064D01*
X101726884Y-131498842D01*
X101750078Y-131473082D01*
X101750079Y-131473081D01*
X101754497Y-131468174D01*
X101835274Y-131328264D01*
X101848677Y-131305049D01*
X101848678Y-131305048D01*
X101851981Y-131299326D01*
X101912229Y-131113900D01*
X101932609Y-130920000D01*
X103067391Y-130920000D01*
X103087771Y-131113900D01*
X103148019Y-131299326D01*
X103151322Y-131305048D01*
X103151323Y-131305049D01*
X103164726Y-131328264D01*
X103245503Y-131468174D01*
X103249921Y-131473081D01*
X103249922Y-131473082D01*
X103273117Y-131498842D01*
X103375963Y-131613064D01*
X103533695Y-131727663D01*
X103539723Y-131730347D01*
X103539725Y-131730348D01*
X103705777Y-131804279D01*
X103711808Y-131806964D01*
X103807162Y-131827232D01*
X103896059Y-131846128D01*
X103896063Y-131846128D01*
X103902516Y-131847500D01*
X104097484Y-131847500D01*
X104103937Y-131846128D01*
X104103941Y-131846128D01*
X104192838Y-131827232D01*
X104288192Y-131806964D01*
X104294223Y-131804279D01*
X104460275Y-131730348D01*
X104460277Y-131730347D01*
X104466305Y-131727663D01*
X104624037Y-131613064D01*
X104726884Y-131498842D01*
X104750078Y-131473082D01*
X104750079Y-131473081D01*
X104754497Y-131468174D01*
X104835274Y-131328264D01*
X104848677Y-131305049D01*
X104848678Y-131305048D01*
X104851981Y-131299326D01*
X104912229Y-131113900D01*
X104932609Y-130920000D01*
X104912229Y-130726100D01*
X104901402Y-130692776D01*
X104854023Y-130546959D01*
X104854021Y-130546954D01*
X104851981Y-130540674D01*
X104754497Y-130371826D01*
X104624037Y-130226936D01*
X104611099Y-130217536D01*
X104471647Y-130116218D01*
X104471646Y-130116217D01*
X104466305Y-130112337D01*
X104460277Y-130109653D01*
X104460275Y-130109652D01*
X104294223Y-130035721D01*
X104294222Y-130035721D01*
X104288192Y-130033036D01*
X104192838Y-130012768D01*
X104103941Y-129993872D01*
X104103937Y-129993872D01*
X104097484Y-129992500D01*
X103902516Y-129992500D01*
X103896063Y-129993872D01*
X103896059Y-129993872D01*
X103807162Y-130012768D01*
X103711808Y-130033036D01*
X103705779Y-130035720D01*
X103705777Y-130035721D01*
X103539726Y-130109652D01*
X103539724Y-130109653D01*
X103533696Y-130112337D01*
X103375963Y-130226936D01*
X103245503Y-130371826D01*
X103148019Y-130540674D01*
X103145979Y-130546954D01*
X103145977Y-130546959D01*
X103098599Y-130692776D01*
X103087771Y-130726100D01*
X103067391Y-130920000D01*
X101932609Y-130920000D01*
X101912229Y-130726100D01*
X101901402Y-130692776D01*
X101854023Y-130546959D01*
X101854021Y-130546954D01*
X101851981Y-130540674D01*
X101754497Y-130371826D01*
X101624037Y-130226936D01*
X101611099Y-130217536D01*
X101471647Y-130116218D01*
X101471646Y-130116217D01*
X101466305Y-130112337D01*
X101460277Y-130109653D01*
X101460275Y-130109652D01*
X101294223Y-130035721D01*
X101294222Y-130035721D01*
X101288192Y-130033036D01*
X101192838Y-130012768D01*
X101103941Y-129993872D01*
X101103937Y-129993872D01*
X101097484Y-129992500D01*
X100902516Y-129992500D01*
X100896063Y-129993872D01*
X100896059Y-129993872D01*
X100807162Y-130012768D01*
X100711808Y-130033036D01*
X100705779Y-130035720D01*
X100705777Y-130035721D01*
X100539724Y-130109653D01*
X100533696Y-130112337D01*
X100528357Y-130116216D01*
X100522636Y-130119519D01*
X100521177Y-130116992D01*
X100466350Y-130136583D01*
X100397191Y-130120536D01*
X100370002Y-130099887D01*
X99227905Y-128957790D01*
X99193879Y-128895478D01*
X99191000Y-128868695D01*
X99191000Y-128712558D01*
X100522500Y-128712558D01*
X100529898Y-128749748D01*
X100558078Y-128791922D01*
X100600252Y-128820102D01*
X100612422Y-128822523D01*
X100631377Y-128826294D01*
X100631382Y-128826294D01*
X100637442Y-128827500D01*
X102362558Y-128827500D01*
X102368618Y-128826294D01*
X102368623Y-128826294D01*
X102387578Y-128822523D01*
X102399748Y-128820102D01*
X102441922Y-128791922D01*
X102470102Y-128749748D01*
X102477500Y-128712558D01*
X102477500Y-127636423D01*
X102497502Y-127568302D01*
X102514405Y-127547328D01*
X105394311Y-124667422D01*
X105399095Y-124662881D01*
X105418323Y-124645568D01*
X105428163Y-124636708D01*
X105436518Y-124617944D01*
X105445950Y-124600571D01*
X105449922Y-124594455D01*
X105449922Y-124594454D01*
X105457134Y-124583349D01*
X105459205Y-124570271D01*
X105461047Y-124565474D01*
X105462114Y-124560454D01*
X105467500Y-124548357D01*
X105467500Y-124527825D01*
X105469051Y-124508113D01*
X105470193Y-124500905D01*
X105470193Y-124500904D01*
X105472264Y-124487828D01*
X105468837Y-124475039D01*
X105468144Y-124461812D01*
X105468596Y-124461788D01*
X105467500Y-124453460D01*
X105467500Y-122186522D01*
X116584773Y-122186522D01*
X116632264Y-122363761D01*
X116636010Y-122374053D01*
X116728086Y-122571511D01*
X116733569Y-122581007D01*
X116858528Y-122759467D01*
X116865584Y-122767875D01*
X117019625Y-122921916D01*
X117028033Y-122928972D01*
X117206493Y-123053931D01*
X117215989Y-123059414D01*
X117413447Y-123151490D01*
X117423739Y-123155236D01*
X117596003Y-123201394D01*
X117610099Y-123201058D01*
X117613500Y-123193116D01*
X117613500Y-123187967D01*
X118121500Y-123187967D01*
X118125473Y-123201498D01*
X118134022Y-123202727D01*
X118311261Y-123155236D01*
X118321553Y-123151490D01*
X118519011Y-123059414D01*
X118528507Y-123053931D01*
X118706967Y-122928972D01*
X118715375Y-122921916D01*
X118869416Y-122767875D01*
X118876472Y-122759467D01*
X119001431Y-122581007D01*
X119006914Y-122571511D01*
X119098990Y-122374053D01*
X119102736Y-122363761D01*
X119148894Y-122191497D01*
X119148558Y-122177401D01*
X119140616Y-122174000D01*
X118139615Y-122174000D01*
X118124376Y-122178475D01*
X118123171Y-122179865D01*
X118121500Y-122187548D01*
X118121500Y-123187967D01*
X117613500Y-123187967D01*
X117613500Y-122192115D01*
X117609025Y-122176876D01*
X117607635Y-122175671D01*
X117599952Y-122174000D01*
X116599533Y-122174000D01*
X116586002Y-122177973D01*
X116584773Y-122186522D01*
X105467500Y-122186522D01*
X105467500Y-121648503D01*
X116586106Y-121648503D01*
X116586442Y-121662599D01*
X116594384Y-121666000D01*
X117595385Y-121666000D01*
X117610624Y-121661525D01*
X117611829Y-121660135D01*
X117613500Y-121652452D01*
X117613500Y-121647885D01*
X118121500Y-121647885D01*
X118125975Y-121663124D01*
X118127365Y-121664329D01*
X118135048Y-121666000D01*
X119135467Y-121666000D01*
X119148998Y-121662027D01*
X119150227Y-121653478D01*
X119102736Y-121476239D01*
X119098990Y-121465947D01*
X119006914Y-121268489D01*
X119001431Y-121258993D01*
X118876472Y-121080533D01*
X118869416Y-121072125D01*
X118715375Y-120918084D01*
X118706967Y-120911028D01*
X118528507Y-120786069D01*
X118519011Y-120780586D01*
X118321553Y-120688510D01*
X118311261Y-120684764D01*
X118138997Y-120638606D01*
X118124901Y-120638942D01*
X118121500Y-120646884D01*
X118121500Y-121647885D01*
X117613500Y-121647885D01*
X117613500Y-120652033D01*
X117609527Y-120638502D01*
X117600978Y-120637273D01*
X117423739Y-120684764D01*
X117413447Y-120688510D01*
X117215989Y-120780586D01*
X117206493Y-120786069D01*
X117028033Y-120911028D01*
X117019625Y-120918084D01*
X116865584Y-121072125D01*
X116858528Y-121080533D01*
X116733569Y-121258993D01*
X116728086Y-121268489D01*
X116636010Y-121465947D01*
X116632264Y-121476239D01*
X116586106Y-121648503D01*
X105467500Y-121648503D01*
X105467500Y-119369076D01*
X123677656Y-119369076D01*
X123694678Y-119542674D01*
X123696902Y-119549359D01*
X123696902Y-119549360D01*
X123719606Y-119617611D01*
X123749737Y-119708188D01*
X123753384Y-119714210D01*
X123753385Y-119714212D01*
X123835781Y-119850263D01*
X123840097Y-119857390D01*
X123961267Y-119982865D01*
X123967159Y-119986720D01*
X123967163Y-119986724D01*
X124101328Y-120074519D01*
X124107224Y-120078377D01*
X124113828Y-120080833D01*
X124113830Y-120080834D01*
X124188969Y-120108778D01*
X124270715Y-120139179D01*
X124443614Y-120162248D01*
X124450625Y-120161610D01*
X124450629Y-120161610D01*
X124610306Y-120147078D01*
X124617327Y-120146439D01*
X124624029Y-120144261D01*
X124624031Y-120144261D01*
X124776522Y-120094714D01*
X124776525Y-120094713D01*
X124783221Y-120092537D01*
X124933050Y-120003221D01*
X124933066Y-120003247D01*
X124996714Y-119979024D01*
X125066187Y-119993653D01*
X125116722Y-120043520D01*
X125132275Y-120112792D01*
X125112450Y-120172895D01*
X125029177Y-120302109D01*
X125026768Y-120308729D01*
X125026766Y-120308732D01*
X124993122Y-120401169D01*
X124969518Y-120466020D01*
X124947656Y-120639076D01*
X124964678Y-120812674D01*
X124966902Y-120819359D01*
X124966902Y-120819360D01*
X124992010Y-120894836D01*
X125019737Y-120978188D01*
X125023384Y-120984210D01*
X125023385Y-120984212D01*
X125068875Y-121059324D01*
X125110097Y-121127390D01*
X125231267Y-121252865D01*
X125237159Y-121256720D01*
X125237163Y-121256724D01*
X125371328Y-121344519D01*
X125377224Y-121348377D01*
X125383828Y-121350833D01*
X125383830Y-121350834D01*
X125458970Y-121378778D01*
X125540715Y-121409179D01*
X125713614Y-121432248D01*
X125720625Y-121431610D01*
X125720629Y-121431610D01*
X125880306Y-121417078D01*
X125887327Y-121416439D01*
X125894029Y-121414261D01*
X125894031Y-121414261D01*
X126046522Y-121364714D01*
X126046525Y-121364713D01*
X126053221Y-121362537D01*
X126203050Y-121273221D01*
X126329368Y-121152930D01*
X126334135Y-121145756D01*
X126421998Y-121013511D01*
X126425897Y-121007643D01*
X126449656Y-120945097D01*
X126485339Y-120851163D01*
X126485340Y-120851158D01*
X126487839Y-120844580D01*
X126488819Y-120837608D01*
X126511564Y-120675769D01*
X126511564Y-120675764D01*
X126512115Y-120671846D01*
X126512249Y-120662242D01*
X126533200Y-120594407D01*
X126587499Y-120548667D01*
X126638237Y-120538000D01*
X126727885Y-120538000D01*
X126743124Y-120533525D01*
X126744329Y-120532135D01*
X126746000Y-120524452D01*
X126746000Y-120519884D01*
X127254000Y-120519884D01*
X127258475Y-120535123D01*
X127259865Y-120536328D01*
X127267548Y-120537999D01*
X127694669Y-120537999D01*
X127701490Y-120537629D01*
X127752352Y-120532105D01*
X127767604Y-120528479D01*
X127888054Y-120483324D01*
X127903649Y-120474786D01*
X128005724Y-120398285D01*
X128018285Y-120385724D01*
X128094786Y-120283649D01*
X128103324Y-120268054D01*
X128148478Y-120147606D01*
X128152105Y-120132351D01*
X128157631Y-120081486D01*
X128158000Y-120074672D01*
X128158000Y-119652115D01*
X128153525Y-119636876D01*
X128152135Y-119635671D01*
X128144452Y-119634000D01*
X127272115Y-119634000D01*
X127256876Y-119638475D01*
X127255671Y-119639865D01*
X127254000Y-119647548D01*
X127254000Y-120519884D01*
X126746000Y-120519884D01*
X126746000Y-119107885D01*
X127254000Y-119107885D01*
X127258475Y-119123124D01*
X127259865Y-119124329D01*
X127267548Y-119126000D01*
X128139884Y-119126000D01*
X128155123Y-119121525D01*
X128156328Y-119120135D01*
X128157999Y-119112452D01*
X128157999Y-118685331D01*
X128157629Y-118678510D01*
X128152105Y-118627648D01*
X128148479Y-118612396D01*
X128103324Y-118491946D01*
X128094786Y-118476351D01*
X128018285Y-118374276D01*
X128005724Y-118361715D01*
X127903649Y-118285214D01*
X127888054Y-118276676D01*
X127767606Y-118231522D01*
X127752351Y-118227895D01*
X127701486Y-118222369D01*
X127694672Y-118222000D01*
X127272115Y-118222000D01*
X127256876Y-118226475D01*
X127255671Y-118227865D01*
X127254000Y-118235548D01*
X127254000Y-119107885D01*
X126746000Y-119107885D01*
X126746000Y-118240116D01*
X126741525Y-118224877D01*
X126740135Y-118223672D01*
X126732452Y-118222001D01*
X126305331Y-118222001D01*
X126298510Y-118222371D01*
X126247648Y-118227895D01*
X126232396Y-118231521D01*
X126111942Y-118276678D01*
X126107512Y-118279103D01*
X126038155Y-118294274D01*
X125971607Y-118269540D01*
X125928995Y-118212753D01*
X125921000Y-118168585D01*
X125921000Y-108081305D01*
X125941002Y-108013184D01*
X125957905Y-107992210D01*
X127111353Y-106838761D01*
X127112194Y-106838011D01*
X127121958Y-106833322D01*
X127138226Y-106812980D01*
X127143344Y-106807261D01*
X127145280Y-106804834D01*
X127150283Y-106799831D01*
X127154046Y-106793844D01*
X127156337Y-106790972D01*
X127160409Y-106785243D01*
X127167519Y-106776352D01*
X127167520Y-106776349D01*
X127176383Y-106765267D01*
X127178907Y-106754290D01*
X127184902Y-106744752D01*
X127187773Y-106719353D01*
X127189009Y-106712123D01*
X127189404Y-106708644D01*
X127191000Y-106701703D01*
X127191000Y-106694577D01*
X127191372Y-106691299D01*
X127191797Y-106683755D01*
X127193096Y-106672260D01*
X127194690Y-106658162D01*
X127191071Y-106647799D01*
X127191000Y-106646524D01*
X127191000Y-68613509D01*
X127191063Y-68612397D01*
X127194652Y-68602178D01*
X127191773Y-68576307D01*
X127191347Y-68568619D01*
X127191000Y-68565538D01*
X127191000Y-68558467D01*
X127189427Y-68551570D01*
X127189016Y-68547921D01*
X127187842Y-68540983D01*
X127186583Y-68529668D01*
X127185014Y-68515571D01*
X127179038Y-68506025D01*
X127176532Y-68495041D01*
X127160599Y-68475047D01*
X127156371Y-68469074D01*
X127154186Y-68466329D01*
X127150404Y-68460289D01*
X127145361Y-68455246D01*
X127143302Y-68452660D01*
X127138285Y-68447045D01*
X127122225Y-68426891D01*
X127112338Y-68422122D01*
X127111384Y-68421269D01*
X126185944Y-67495829D01*
X126151918Y-67433517D01*
X126150785Y-67385830D01*
X126160960Y-67325348D01*
X126161767Y-67320552D01*
X126161896Y-67310000D01*
X126154887Y-67261058D01*
X126145809Y-67197667D01*
X126145808Y-67197664D01*
X126144536Y-67188781D01*
X126093852Y-67077307D01*
X126053557Y-67030542D01*
X126019776Y-66991337D01*
X126019774Y-66991335D01*
X126013918Y-66984539D01*
X125911160Y-66917935D01*
X125793838Y-66882848D01*
X125784862Y-66882793D01*
X125784861Y-66882793D01*
X125734483Y-66882485D01*
X125671385Y-66882100D01*
X125553644Y-66915751D01*
X125546057Y-66920538D01*
X125546055Y-66920539D01*
X125529992Y-66930674D01*
X125450080Y-66981095D01*
X125444137Y-66987824D01*
X125379137Y-67061422D01*
X125369018Y-67072879D01*
X125316976Y-67183726D01*
X125315595Y-67192595D01*
X125299801Y-67294032D01*
X125298136Y-67304724D01*
X125299300Y-67313626D01*
X125299300Y-67313629D01*
X125308742Y-67385830D01*
X125314014Y-67426145D01*
X125363333Y-67538230D01*
X125442127Y-67631968D01*
X125449604Y-67636945D01*
X125528295Y-67689326D01*
X125544064Y-67699823D01*
X125660948Y-67736340D01*
X125783383Y-67738584D01*
X125795421Y-67735302D01*
X125798891Y-67735370D01*
X125800950Y-67735113D01*
X125800987Y-67735410D01*
X125866402Y-67736683D01*
X125917655Y-67767770D01*
X126772095Y-68622209D01*
X126806120Y-68684522D01*
X126809000Y-68711305D01*
X126809000Y-106548695D01*
X126788998Y-106616816D01*
X126772095Y-106637790D01*
X125618642Y-107791243D01*
X125617805Y-107791990D01*
X125608042Y-107796678D01*
X125599181Y-107807758D01*
X125599180Y-107807759D01*
X125591778Y-107817015D01*
X125586655Y-107822739D01*
X125584720Y-107825165D01*
X125579716Y-107830169D01*
X125575952Y-107836158D01*
X125573661Y-107839030D01*
X125569588Y-107844761D01*
X125562481Y-107853648D01*
X125562480Y-107853651D01*
X125553617Y-107864733D01*
X125551093Y-107875710D01*
X125545098Y-107885248D01*
X125542224Y-107910667D01*
X125540991Y-107917882D01*
X125540597Y-107921352D01*
X125539000Y-107928297D01*
X125539000Y-107935421D01*
X125538627Y-107938707D01*
X125538202Y-107946248D01*
X125535309Y-107971838D01*
X125538929Y-107982203D01*
X125539000Y-107983477D01*
X125539000Y-119803450D01*
X125518998Y-119871571D01*
X125465342Y-119918064D01*
X125453605Y-119922728D01*
X125403529Y-119939775D01*
X125403526Y-119939776D01*
X125396862Y-119942045D01*
X125390864Y-119945735D01*
X125390862Y-119945736D01*
X125295706Y-120004277D01*
X125248294Y-120033445D01*
X125246722Y-120030890D01*
X125193145Y-120052132D01*
X125123477Y-120038463D01*
X125072258Y-119989299D01*
X125055750Y-119920248D01*
X125076639Y-119856935D01*
X125077459Y-119855701D01*
X125155897Y-119737643D01*
X125169625Y-119701505D01*
X125215339Y-119581163D01*
X125215340Y-119581158D01*
X125217839Y-119574580D01*
X125218819Y-119567608D01*
X125241564Y-119405769D01*
X125241564Y-119405764D01*
X125242115Y-119401846D01*
X125242420Y-119380000D01*
X125227653Y-119248353D01*
X125223761Y-119213653D01*
X125223761Y-119213652D01*
X125222976Y-119206656D01*
X125219273Y-119196020D01*
X125167927Y-119048574D01*
X125167926Y-119048572D01*
X125165612Y-119041927D01*
X125073177Y-118894002D01*
X124950267Y-118770230D01*
X124883686Y-118727977D01*
X124808933Y-118680537D01*
X124808930Y-118680535D01*
X124802990Y-118676766D01*
X124789648Y-118672015D01*
X124645300Y-118620614D01*
X124645298Y-118620613D01*
X124638666Y-118618252D01*
X124631680Y-118617419D01*
X124631676Y-118617418D01*
X124508558Y-118602738D01*
X124465462Y-118597599D01*
X124458459Y-118598335D01*
X124458458Y-118598335D01*
X124298987Y-118615096D01*
X124298985Y-118615097D01*
X124291987Y-118615832D01*
X124126862Y-118672045D01*
X124113059Y-118680537D01*
X123984301Y-118759749D01*
X123984298Y-118759751D01*
X123978294Y-118763445D01*
X123973259Y-118768376D01*
X123973256Y-118768378D01*
X123858700Y-118880560D01*
X123853668Y-118885488D01*
X123759177Y-119032109D01*
X123756768Y-119038729D01*
X123756766Y-119038732D01*
X123725003Y-119126000D01*
X123699518Y-119196020D01*
X123677656Y-119369076D01*
X105467500Y-119369076D01*
X105467500Y-118652748D01*
X105487502Y-118584627D01*
X105528417Y-118545615D01*
X105531242Y-118544445D01*
X105560360Y-118522102D01*
X105645327Y-118456905D01*
X105645328Y-118456904D01*
X105651878Y-118451878D01*
X105744445Y-118331241D01*
X105802635Y-118190758D01*
X105822483Y-118040000D01*
X105802635Y-117889242D01*
X105744445Y-117748759D01*
X105651878Y-117628122D01*
X105531242Y-117535555D01*
X105390758Y-117477365D01*
X105240000Y-117457517D01*
X105089242Y-117477365D01*
X104948759Y-117535555D01*
X104828122Y-117628122D01*
X104735555Y-117748759D01*
X104677365Y-117889242D01*
X104657517Y-118040000D01*
X104677365Y-118190758D01*
X104735555Y-118331241D01*
X104828122Y-118451878D01*
X104834672Y-118456904D01*
X104834673Y-118456905D01*
X104919640Y-118522102D01*
X104948758Y-118544445D01*
X104951270Y-118545486D01*
X104998492Y-118595009D01*
X105012500Y-118652748D01*
X105012500Y-124353576D01*
X104992498Y-124421697D01*
X104975595Y-124442671D01*
X103692227Y-125726039D01*
X103692225Y-125726042D01*
X102555447Y-126862820D01*
X102493135Y-126896846D01*
X102418133Y-126890133D01*
X102410063Y-126886790D01*
X102399748Y-126879898D01*
X102380057Y-126875981D01*
X102368623Y-126873706D01*
X102368618Y-126873706D01*
X102362558Y-126872500D01*
X100637442Y-126872500D01*
X100631382Y-126873706D01*
X100631377Y-126873706D01*
X100612422Y-126877477D01*
X100600252Y-126879898D01*
X100558078Y-126908078D01*
X100529898Y-126950252D01*
X100522500Y-126987442D01*
X100522500Y-128712558D01*
X99191000Y-128712558D01*
X99191000Y-125296286D01*
X100517866Y-125296286D01*
X100533907Y-125487311D01*
X100535606Y-125493236D01*
X100543709Y-125521493D01*
X100586746Y-125671583D01*
X100674370Y-125842082D01*
X100678193Y-125846906D01*
X100678196Y-125846910D01*
X100785904Y-125982802D01*
X100793443Y-125992314D01*
X100939428Y-126116557D01*
X101106765Y-126210079D01*
X101289081Y-126269317D01*
X101479430Y-126292015D01*
X101485565Y-126291543D01*
X101485567Y-126291543D01*
X101664420Y-126277781D01*
X101664424Y-126277780D01*
X101670562Y-126277308D01*
X101855199Y-126225756D01*
X102026305Y-126139324D01*
X102051600Y-126119562D01*
X102172509Y-126025097D01*
X102177365Y-126021303D01*
X102302624Y-125876189D01*
X102397312Y-125709509D01*
X102457821Y-125527612D01*
X102481847Y-125337425D01*
X102482230Y-125310000D01*
X102463524Y-125119217D01*
X102408117Y-124935701D01*
X102318120Y-124766442D01*
X102212312Y-124636708D01*
X102200856Y-124622661D01*
X102200854Y-124622659D01*
X102196962Y-124617887D01*
X102112915Y-124548357D01*
X102054006Y-124499623D01*
X102054002Y-124499621D01*
X102049256Y-124495694D01*
X101880629Y-124404518D01*
X101789067Y-124376175D01*
X101703392Y-124349654D01*
X101703389Y-124349653D01*
X101697505Y-124347832D01*
X101691380Y-124347188D01*
X101691379Y-124347188D01*
X101512985Y-124328438D01*
X101512984Y-124328438D01*
X101506857Y-124327794D01*
X101426779Y-124335082D01*
X101322087Y-124344609D01*
X101322084Y-124344610D01*
X101315948Y-124345168D01*
X101310042Y-124346906D01*
X101310038Y-124346907D01*
X101174622Y-124386762D01*
X101132050Y-124399292D01*
X101116449Y-124407448D01*
X100967627Y-124485250D01*
X100967623Y-124485253D01*
X100962167Y-124488105D01*
X100957367Y-124491965D01*
X100957366Y-124491965D01*
X100952728Y-124495694D01*
X100812770Y-124608223D01*
X100808812Y-124612940D01*
X100808810Y-124612942D01*
X100788868Y-124636708D01*
X100689549Y-124755072D01*
X100686585Y-124760464D01*
X100686582Y-124760468D01*
X100611110Y-124897752D01*
X100597198Y-124923058D01*
X100539234Y-125105783D01*
X100517866Y-125296286D01*
X99191000Y-125296286D01*
X99191000Y-122756286D01*
X100517866Y-122756286D01*
X100533907Y-122947311D01*
X100535606Y-122953236D01*
X100543709Y-122981493D01*
X100586746Y-123131583D01*
X100589561Y-123137060D01*
X100589562Y-123137063D01*
X100622677Y-123201498D01*
X100674370Y-123302082D01*
X100678193Y-123306906D01*
X100678196Y-123306910D01*
X100785904Y-123442802D01*
X100793443Y-123452314D01*
X100939428Y-123576557D01*
X101106765Y-123670079D01*
X101289081Y-123729317D01*
X101479430Y-123752015D01*
X101485565Y-123751543D01*
X101485567Y-123751543D01*
X101664420Y-123737781D01*
X101664424Y-123737780D01*
X101670562Y-123737308D01*
X101855199Y-123685756D01*
X102026305Y-123599324D01*
X102051600Y-123579562D01*
X102172509Y-123485097D01*
X102177365Y-123481303D01*
X102302624Y-123336189D01*
X102397312Y-123169509D01*
X102457821Y-122987612D01*
X102481847Y-122797425D01*
X102482230Y-122770000D01*
X102463524Y-122579217D01*
X102408117Y-122395701D01*
X102318120Y-122226442D01*
X102196962Y-122077887D01*
X102133081Y-122025040D01*
X102054006Y-121959623D01*
X102054002Y-121959621D01*
X102049256Y-121955694D01*
X101880629Y-121864518D01*
X101789067Y-121836175D01*
X101703392Y-121809654D01*
X101703389Y-121809653D01*
X101697505Y-121807832D01*
X101691380Y-121807188D01*
X101691379Y-121807188D01*
X101512985Y-121788438D01*
X101512984Y-121788438D01*
X101506857Y-121787794D01*
X101426779Y-121795082D01*
X101322087Y-121804609D01*
X101322084Y-121804610D01*
X101315948Y-121805168D01*
X101310042Y-121806906D01*
X101310038Y-121806907D01*
X101174622Y-121846762D01*
X101132050Y-121859292D01*
X101126590Y-121862146D01*
X101126591Y-121862146D01*
X100967627Y-121945250D01*
X100967623Y-121945253D01*
X100962167Y-121948105D01*
X100957367Y-121951965D01*
X100957366Y-121951965D01*
X100952728Y-121955694D01*
X100812770Y-122068223D01*
X100689549Y-122215072D01*
X100686585Y-122220464D01*
X100686582Y-122220468D01*
X100611110Y-122357752D01*
X100597198Y-122383058D01*
X100539234Y-122565783D01*
X100517866Y-122756286D01*
X99191000Y-122756286D01*
X99191000Y-112596286D01*
X100517866Y-112596286D01*
X100533907Y-112787311D01*
X100535606Y-112793236D01*
X100543709Y-112821493D01*
X100586746Y-112971583D01*
X100674370Y-113142082D01*
X100678193Y-113146906D01*
X100678196Y-113146910D01*
X100785904Y-113282802D01*
X100793443Y-113292314D01*
X100939428Y-113416557D01*
X101106765Y-113510079D01*
X101289081Y-113569317D01*
X101479430Y-113592015D01*
X101485565Y-113591543D01*
X101485567Y-113591543D01*
X101664420Y-113577781D01*
X101664424Y-113577780D01*
X101670562Y-113577308D01*
X101855199Y-113525756D01*
X102026305Y-113439324D01*
X102051600Y-113419562D01*
X102172509Y-113325097D01*
X102177365Y-113321303D01*
X102302624Y-113176189D01*
X102397312Y-113009509D01*
X102457821Y-112827612D01*
X102481847Y-112637425D01*
X102482230Y-112610000D01*
X102463524Y-112419217D01*
X102408117Y-112235701D01*
X102318120Y-112066442D01*
X102196962Y-111917887D01*
X102133081Y-111865040D01*
X102054006Y-111799623D01*
X102054002Y-111799621D01*
X102049256Y-111795694D01*
X101880629Y-111704518D01*
X101789067Y-111676175D01*
X101703392Y-111649654D01*
X101703389Y-111649653D01*
X101697505Y-111647832D01*
X101691380Y-111647188D01*
X101691379Y-111647188D01*
X101512985Y-111628438D01*
X101512984Y-111628438D01*
X101506857Y-111627794D01*
X101426779Y-111635082D01*
X101322087Y-111644609D01*
X101322084Y-111644610D01*
X101315948Y-111645168D01*
X101310042Y-111646906D01*
X101310038Y-111646907D01*
X101174622Y-111686762D01*
X101132050Y-111699292D01*
X101126590Y-111702146D01*
X101126591Y-111702146D01*
X100967627Y-111785250D01*
X100967623Y-111785253D01*
X100962167Y-111788105D01*
X100957367Y-111791965D01*
X100957366Y-111791965D01*
X100952728Y-111795694D01*
X100812770Y-111908223D01*
X100689549Y-112055072D01*
X100686585Y-112060464D01*
X100686582Y-112060468D01*
X100611110Y-112197752D01*
X100597198Y-112223058D01*
X100539234Y-112405783D01*
X100517866Y-112596286D01*
X99191000Y-112596286D01*
X99191000Y-110056286D01*
X100517866Y-110056286D01*
X100533907Y-110247311D01*
X100535606Y-110253236D01*
X100578152Y-110401611D01*
X100586746Y-110431583D01*
X100589561Y-110437060D01*
X100589562Y-110437063D01*
X100656951Y-110568188D01*
X100674370Y-110602082D01*
X100678193Y-110606906D01*
X100678196Y-110606910D01*
X100742001Y-110687411D01*
X100793443Y-110752314D01*
X100939428Y-110876557D01*
X101106765Y-110970079D01*
X101289081Y-111029317D01*
X101479430Y-111052015D01*
X101485565Y-111051543D01*
X101485567Y-111051543D01*
X101664420Y-111037781D01*
X101664424Y-111037780D01*
X101670562Y-111037308D01*
X101855199Y-110985756D01*
X102026305Y-110899324D01*
X102051600Y-110879562D01*
X102172509Y-110785097D01*
X102177365Y-110781303D01*
X102238258Y-110710758D01*
X102298595Y-110640857D01*
X102298596Y-110640855D01*
X102302624Y-110636189D01*
X102397312Y-110469509D01*
X102457821Y-110287612D01*
X102481847Y-110097425D01*
X102482230Y-110070000D01*
X102463524Y-109879217D01*
X102408117Y-109695701D01*
X102318120Y-109526442D01*
X102196962Y-109377887D01*
X102133081Y-109325040D01*
X102054006Y-109259623D01*
X102054002Y-109259621D01*
X102049256Y-109255694D01*
X101880629Y-109164518D01*
X101789067Y-109136175D01*
X101703392Y-109109654D01*
X101703389Y-109109653D01*
X101697505Y-109107832D01*
X101691380Y-109107188D01*
X101691379Y-109107188D01*
X101512985Y-109088438D01*
X101512984Y-109088438D01*
X101506857Y-109087794D01*
X101426779Y-109095082D01*
X101322087Y-109104609D01*
X101322084Y-109104610D01*
X101315948Y-109105168D01*
X101310042Y-109106906D01*
X101310038Y-109106907D01*
X101174622Y-109146762D01*
X101132050Y-109159292D01*
X101126590Y-109162146D01*
X101126591Y-109162146D01*
X100967627Y-109245250D01*
X100967623Y-109245253D01*
X100962167Y-109248105D01*
X100957367Y-109251965D01*
X100957366Y-109251965D01*
X100952728Y-109255694D01*
X100812770Y-109368223D01*
X100689549Y-109515072D01*
X100686585Y-109520464D01*
X100686582Y-109520468D01*
X100611110Y-109657752D01*
X100597198Y-109683058D01*
X100539234Y-109865783D01*
X100517866Y-110056286D01*
X99191000Y-110056286D01*
X99191000Y-107516286D01*
X100517866Y-107516286D01*
X100533907Y-107707311D01*
X100535606Y-107713236D01*
X100582195Y-107875710D01*
X100586746Y-107891583D01*
X100589561Y-107897060D01*
X100589562Y-107897063D01*
X100603229Y-107923656D01*
X100674370Y-108062082D01*
X100678193Y-108066906D01*
X100678196Y-108066910D01*
X100785904Y-108202802D01*
X100793443Y-108212314D01*
X100939428Y-108336557D01*
X101106765Y-108430079D01*
X101289081Y-108489317D01*
X101479430Y-108512015D01*
X101485565Y-108511543D01*
X101485567Y-108511543D01*
X101664420Y-108497781D01*
X101664424Y-108497780D01*
X101670562Y-108497308D01*
X101855199Y-108445756D01*
X102026305Y-108359324D01*
X102051600Y-108339562D01*
X102172509Y-108245097D01*
X102177365Y-108241303D01*
X102302624Y-108096189D01*
X102397312Y-107929509D01*
X102457821Y-107747612D01*
X102481847Y-107557425D01*
X102482230Y-107530000D01*
X102463524Y-107339217D01*
X102408117Y-107155701D01*
X102318120Y-106986442D01*
X102196962Y-106837887D01*
X102122579Y-106776352D01*
X102054006Y-106719623D01*
X102054002Y-106719621D01*
X102049256Y-106715694D01*
X101880629Y-106624518D01*
X101767901Y-106589623D01*
X101703392Y-106569654D01*
X101703389Y-106569653D01*
X101697505Y-106567832D01*
X101691380Y-106567188D01*
X101691379Y-106567188D01*
X101512985Y-106548438D01*
X101512984Y-106548438D01*
X101506857Y-106547794D01*
X101426779Y-106555082D01*
X101322087Y-106564609D01*
X101322084Y-106564610D01*
X101315948Y-106565168D01*
X101310042Y-106566906D01*
X101310038Y-106566907D01*
X101208291Y-106596853D01*
X101132050Y-106619292D01*
X101126590Y-106622146D01*
X101126591Y-106622146D01*
X100967627Y-106705250D01*
X100967623Y-106705253D01*
X100962167Y-106708105D01*
X100957367Y-106711965D01*
X100957366Y-106711965D01*
X100952728Y-106715694D01*
X100812770Y-106828223D01*
X100808812Y-106832940D01*
X100808810Y-106832942D01*
X100800655Y-106842661D01*
X100689549Y-106975072D01*
X100686585Y-106980464D01*
X100686582Y-106980468D01*
X100611110Y-107117752D01*
X100597198Y-107143058D01*
X100539234Y-107325783D01*
X100517866Y-107516286D01*
X99191000Y-107516286D01*
X99191000Y-104976286D01*
X100517866Y-104976286D01*
X100533907Y-105167311D01*
X100535606Y-105173236D01*
X100543709Y-105201493D01*
X100586746Y-105351583D01*
X100674370Y-105522082D01*
X100678193Y-105526906D01*
X100678196Y-105526910D01*
X100785904Y-105662802D01*
X100793443Y-105672314D01*
X100939428Y-105796557D01*
X101106765Y-105890079D01*
X101289081Y-105949317D01*
X101479430Y-105972015D01*
X101485565Y-105971543D01*
X101485567Y-105971543D01*
X101664420Y-105957781D01*
X101664424Y-105957780D01*
X101670562Y-105957308D01*
X101855199Y-105905756D01*
X102026305Y-105819324D01*
X102051600Y-105799562D01*
X102172509Y-105705097D01*
X102177365Y-105701303D01*
X102302624Y-105556189D01*
X102397312Y-105389509D01*
X102457821Y-105207612D01*
X102481847Y-105017425D01*
X102482230Y-104990000D01*
X102463524Y-104799217D01*
X102408117Y-104615701D01*
X102318120Y-104446442D01*
X102196962Y-104297887D01*
X102133081Y-104245040D01*
X102054006Y-104179623D01*
X102054002Y-104179621D01*
X102049256Y-104175694D01*
X101880629Y-104084518D01*
X101789067Y-104056175D01*
X101703392Y-104029654D01*
X101703389Y-104029653D01*
X101697505Y-104027832D01*
X101691380Y-104027188D01*
X101691379Y-104027188D01*
X101512985Y-104008438D01*
X101512984Y-104008438D01*
X101506857Y-104007794D01*
X101426779Y-104015082D01*
X101322087Y-104024609D01*
X101322084Y-104024610D01*
X101315948Y-104025168D01*
X101310042Y-104026906D01*
X101310038Y-104026907D01*
X101174622Y-104066762D01*
X101132050Y-104079292D01*
X101126590Y-104082146D01*
X101126591Y-104082146D01*
X100967627Y-104165250D01*
X100967623Y-104165253D01*
X100962167Y-104168105D01*
X100957367Y-104171965D01*
X100957366Y-104171965D01*
X100952728Y-104175694D01*
X100812770Y-104288223D01*
X100689549Y-104435072D01*
X100686585Y-104440464D01*
X100686582Y-104440468D01*
X100611110Y-104577752D01*
X100597198Y-104603058D01*
X100539234Y-104785783D01*
X100517866Y-104976286D01*
X99191000Y-104976286D01*
X99191000Y-102436286D01*
X100517866Y-102436286D01*
X100533907Y-102627311D01*
X100535606Y-102633236D01*
X100543709Y-102661493D01*
X100586746Y-102811583D01*
X100674370Y-102982082D01*
X100678193Y-102986906D01*
X100678196Y-102986910D01*
X100785904Y-103122802D01*
X100793443Y-103132314D01*
X100939428Y-103256557D01*
X101106765Y-103350079D01*
X101289081Y-103409317D01*
X101479430Y-103432015D01*
X101485565Y-103431543D01*
X101485567Y-103431543D01*
X101664420Y-103417781D01*
X101664424Y-103417780D01*
X101670562Y-103417308D01*
X101855199Y-103365756D01*
X102026305Y-103279324D01*
X102051600Y-103259562D01*
X102172509Y-103165097D01*
X102177365Y-103161303D01*
X102302624Y-103016189D01*
X102397312Y-102849509D01*
X102457821Y-102667612D01*
X102481847Y-102477425D01*
X102482230Y-102450000D01*
X102463524Y-102259217D01*
X102408117Y-102075701D01*
X102318120Y-101906442D01*
X102196962Y-101757887D01*
X102133081Y-101705040D01*
X102054006Y-101639623D01*
X102054002Y-101639621D01*
X102049256Y-101635694D01*
X101880629Y-101544518D01*
X101789067Y-101516175D01*
X101703392Y-101489654D01*
X101703389Y-101489653D01*
X101697505Y-101487832D01*
X101691380Y-101487188D01*
X101691379Y-101487188D01*
X101512985Y-101468438D01*
X101512984Y-101468438D01*
X101506857Y-101467794D01*
X101426779Y-101475082D01*
X101322087Y-101484609D01*
X101322084Y-101484610D01*
X101315948Y-101485168D01*
X101310042Y-101486906D01*
X101310038Y-101486907D01*
X101174622Y-101526762D01*
X101132050Y-101539292D01*
X101126590Y-101542146D01*
X101126591Y-101542146D01*
X100967627Y-101625250D01*
X100967623Y-101625253D01*
X100962167Y-101628105D01*
X100957367Y-101631965D01*
X100957366Y-101631965D01*
X100952728Y-101635694D01*
X100812770Y-101748223D01*
X100689549Y-101895072D01*
X100686585Y-101900464D01*
X100686582Y-101900468D01*
X100611110Y-102037752D01*
X100597198Y-102063058D01*
X100539234Y-102245783D01*
X100517866Y-102436286D01*
X99191000Y-102436286D01*
X99191000Y-99896286D01*
X100517866Y-99896286D01*
X100533907Y-100087311D01*
X100535606Y-100093236D01*
X100575608Y-100232739D01*
X100586746Y-100271583D01*
X100589561Y-100277060D01*
X100589562Y-100277063D01*
X100664866Y-100423590D01*
X100674370Y-100442082D01*
X100678193Y-100446906D01*
X100678196Y-100446910D01*
X100777465Y-100572155D01*
X100793443Y-100592314D01*
X100798137Y-100596308D01*
X100798137Y-100596309D01*
X100898045Y-100681337D01*
X100939428Y-100716557D01*
X101106765Y-100810079D01*
X101289081Y-100869317D01*
X101479430Y-100892015D01*
X101485565Y-100891543D01*
X101485567Y-100891543D01*
X101664420Y-100877781D01*
X101664424Y-100877780D01*
X101670562Y-100877308D01*
X101855199Y-100825756D01*
X102026305Y-100739324D01*
X102051600Y-100719562D01*
X102172509Y-100625097D01*
X102177365Y-100621303D01*
X102216969Y-100575421D01*
X102298595Y-100480857D01*
X102298596Y-100480855D01*
X102302624Y-100476189D01*
X102397312Y-100309509D01*
X102457821Y-100127612D01*
X102481847Y-99937425D01*
X102482230Y-99910000D01*
X102463524Y-99719217D01*
X102408117Y-99535701D01*
X102374393Y-99472275D01*
X102321014Y-99371884D01*
X102321012Y-99371881D01*
X102318120Y-99366442D01*
X102275350Y-99314000D01*
X102200856Y-99222661D01*
X102200854Y-99222659D01*
X102196962Y-99217887D01*
X102109435Y-99145478D01*
X102054006Y-99099623D01*
X102054002Y-99099621D01*
X102049256Y-99095694D01*
X101880629Y-99004518D01*
X101789067Y-98976175D01*
X101703392Y-98949654D01*
X101703389Y-98949653D01*
X101697505Y-98947832D01*
X101691380Y-98947188D01*
X101691379Y-98947188D01*
X101512985Y-98928438D01*
X101512984Y-98928438D01*
X101506857Y-98927794D01*
X101426779Y-98935082D01*
X101322087Y-98944609D01*
X101322084Y-98944610D01*
X101315948Y-98945168D01*
X101310042Y-98946906D01*
X101310038Y-98946907D01*
X101174622Y-98986762D01*
X101132050Y-98999292D01*
X101126590Y-99002146D01*
X101126591Y-99002146D01*
X100967627Y-99085250D01*
X100967623Y-99085253D01*
X100962167Y-99088105D01*
X100957367Y-99091965D01*
X100957366Y-99091965D01*
X100952728Y-99095694D01*
X100812770Y-99208223D01*
X100808812Y-99212940D01*
X100808810Y-99212942D01*
X100750938Y-99281911D01*
X100689549Y-99355072D01*
X100686585Y-99360464D01*
X100686582Y-99360468D01*
X100638910Y-99447184D01*
X100597198Y-99523058D01*
X100539234Y-99705783D01*
X100517866Y-99896286D01*
X99191000Y-99896286D01*
X99191000Y-97356286D01*
X100517866Y-97356286D01*
X100519555Y-97376394D01*
X100524679Y-97437413D01*
X100533907Y-97547311D01*
X100535606Y-97553236D01*
X100583625Y-97720698D01*
X100586746Y-97731583D01*
X100589561Y-97737060D01*
X100589562Y-97737063D01*
X100671437Y-97896375D01*
X100674370Y-97902082D01*
X100678193Y-97906906D01*
X100678196Y-97906910D01*
X100785904Y-98042802D01*
X100793443Y-98052314D01*
X100939428Y-98176557D01*
X101106765Y-98270079D01*
X101289081Y-98329317D01*
X101479430Y-98352015D01*
X101485565Y-98351543D01*
X101485567Y-98351543D01*
X101664420Y-98337781D01*
X101664424Y-98337780D01*
X101670562Y-98337308D01*
X101855199Y-98285756D01*
X102026305Y-98199324D01*
X102051600Y-98179562D01*
X102172509Y-98085097D01*
X102177365Y-98081303D01*
X102206558Y-98047483D01*
X102298595Y-97940857D01*
X102298596Y-97940855D01*
X102302624Y-97936189D01*
X102397312Y-97769509D01*
X102457821Y-97587612D01*
X102481847Y-97397425D01*
X102482230Y-97370000D01*
X102463524Y-97179217D01*
X102408117Y-96995701D01*
X102398526Y-96977663D01*
X102321014Y-96831884D01*
X102321012Y-96831881D01*
X102318120Y-96826442D01*
X102281802Y-96781911D01*
X102200856Y-96682661D01*
X102200854Y-96682659D01*
X102196962Y-96677887D01*
X102125411Y-96618695D01*
X102054006Y-96559623D01*
X102054002Y-96559621D01*
X102049256Y-96555694D01*
X101880629Y-96464518D01*
X101789067Y-96436175D01*
X101703392Y-96409654D01*
X101703389Y-96409653D01*
X101697505Y-96407832D01*
X101691380Y-96407188D01*
X101691379Y-96407188D01*
X101512985Y-96388438D01*
X101512984Y-96388438D01*
X101506857Y-96387794D01*
X101426779Y-96395082D01*
X101322087Y-96404609D01*
X101322084Y-96404610D01*
X101315948Y-96405168D01*
X101310042Y-96406906D01*
X101310038Y-96406907D01*
X101174622Y-96446762D01*
X101132050Y-96459292D01*
X101126590Y-96462146D01*
X101126591Y-96462146D01*
X100967627Y-96545250D01*
X100967623Y-96545253D01*
X100962167Y-96548105D01*
X100957367Y-96551965D01*
X100957366Y-96551965D01*
X100952728Y-96555694D01*
X100812770Y-96668223D01*
X100808812Y-96672940D01*
X100808810Y-96672942D01*
X100779569Y-96707790D01*
X100689549Y-96815072D01*
X100686585Y-96820464D01*
X100686582Y-96820468D01*
X100648034Y-96890588D01*
X100597198Y-96983058D01*
X100595337Y-96988925D01*
X100595336Y-96988927D01*
X100556036Y-97112817D01*
X100539234Y-97165783D01*
X100517866Y-97356286D01*
X99191000Y-97356286D01*
X99191000Y-94816286D01*
X100517866Y-94816286D01*
X100533907Y-95007311D01*
X100535606Y-95013236D01*
X100543709Y-95041493D01*
X100586746Y-95191583D01*
X100674370Y-95362082D01*
X100678193Y-95366906D01*
X100678196Y-95366910D01*
X100756344Y-95465507D01*
X100793443Y-95512314D01*
X100798137Y-95516308D01*
X100798137Y-95516309D01*
X100916973Y-95617446D01*
X100939428Y-95636557D01*
X101106765Y-95730079D01*
X101289081Y-95789317D01*
X101479430Y-95812015D01*
X101485565Y-95811543D01*
X101485567Y-95811543D01*
X101664420Y-95797781D01*
X101664424Y-95797780D01*
X101670562Y-95797308D01*
X101855199Y-95745756D01*
X102026305Y-95659324D01*
X102051600Y-95639562D01*
X102172509Y-95545097D01*
X102177365Y-95541303D01*
X102181391Y-95536639D01*
X102298595Y-95400857D01*
X102298596Y-95400855D01*
X102302624Y-95396189D01*
X102397312Y-95229509D01*
X102457821Y-95047612D01*
X102481847Y-94857425D01*
X102482230Y-94830000D01*
X102463524Y-94639217D01*
X102408117Y-94455701D01*
X102318120Y-94286442D01*
X102196962Y-94137887D01*
X102133081Y-94085040D01*
X102054006Y-94019623D01*
X102054002Y-94019621D01*
X102049256Y-94015694D01*
X101880629Y-93924518D01*
X101789067Y-93896175D01*
X101703392Y-93869654D01*
X101703389Y-93869653D01*
X101697505Y-93867832D01*
X101691380Y-93867188D01*
X101691379Y-93867188D01*
X101512985Y-93848438D01*
X101512984Y-93848438D01*
X101506857Y-93847794D01*
X101426779Y-93855082D01*
X101322087Y-93864609D01*
X101322084Y-93864610D01*
X101315948Y-93865168D01*
X101310042Y-93866906D01*
X101310038Y-93866907D01*
X101174622Y-93906762D01*
X101132050Y-93919292D01*
X101126590Y-93922146D01*
X101126591Y-93922146D01*
X100967627Y-94005250D01*
X100967623Y-94005253D01*
X100962167Y-94008105D01*
X100957367Y-94011965D01*
X100957366Y-94011965D01*
X100952728Y-94015694D01*
X100812770Y-94128223D01*
X100689549Y-94275072D01*
X100686585Y-94280464D01*
X100686582Y-94280468D01*
X100611110Y-94417752D01*
X100597198Y-94443058D01*
X100539234Y-94625783D01*
X100517866Y-94816286D01*
X99191000Y-94816286D01*
X99191000Y-92276286D01*
X100517866Y-92276286D01*
X100533907Y-92467311D01*
X100535606Y-92473236D01*
X100582195Y-92635710D01*
X100586746Y-92651583D01*
X100589561Y-92657060D01*
X100589562Y-92657063D01*
X100665354Y-92804539D01*
X100674370Y-92822082D01*
X100678193Y-92826906D01*
X100678196Y-92826910D01*
X100743535Y-92909346D01*
X100793443Y-92972314D01*
X100798137Y-92976308D01*
X100798137Y-92976309D01*
X100920270Y-93080252D01*
X100939428Y-93096557D01*
X101106765Y-93190079D01*
X101289081Y-93249317D01*
X101479430Y-93272015D01*
X101485565Y-93271543D01*
X101485567Y-93271543D01*
X101664420Y-93257781D01*
X101664424Y-93257780D01*
X101670562Y-93257308D01*
X101855199Y-93205756D01*
X102026305Y-93119324D01*
X102051600Y-93099562D01*
X102172509Y-93005097D01*
X102177365Y-93001303D01*
X102202388Y-92972314D01*
X102298595Y-92860857D01*
X102298596Y-92860855D01*
X102302624Y-92856189D01*
X102397312Y-92689509D01*
X102457821Y-92507612D01*
X102481847Y-92317425D01*
X102482230Y-92290000D01*
X102463524Y-92099217D01*
X102408117Y-91915701D01*
X102318120Y-91746442D01*
X102196962Y-91597887D01*
X102133081Y-91545040D01*
X102054006Y-91479623D01*
X102054002Y-91479621D01*
X102049256Y-91475694D01*
X101880629Y-91384518D01*
X101789067Y-91356175D01*
X101703392Y-91329654D01*
X101703389Y-91329653D01*
X101697505Y-91327832D01*
X101691380Y-91327188D01*
X101691379Y-91327188D01*
X101512985Y-91308438D01*
X101512984Y-91308438D01*
X101506857Y-91307794D01*
X101426779Y-91315082D01*
X101322087Y-91324609D01*
X101322084Y-91324610D01*
X101315948Y-91325168D01*
X101310042Y-91326906D01*
X101310038Y-91326907D01*
X101174622Y-91366762D01*
X101132050Y-91379292D01*
X101126590Y-91382146D01*
X101126591Y-91382146D01*
X100967627Y-91465250D01*
X100967623Y-91465253D01*
X100962167Y-91468105D01*
X100957367Y-91471965D01*
X100957366Y-91471965D01*
X100952728Y-91475694D01*
X100812770Y-91588223D01*
X100689549Y-91735072D01*
X100686585Y-91740464D01*
X100686582Y-91740468D01*
X100611110Y-91877752D01*
X100597198Y-91903058D01*
X100539234Y-92085783D01*
X100517866Y-92276286D01*
X99191000Y-92276286D01*
X99191000Y-89736286D01*
X100517866Y-89736286D01*
X100533907Y-89927311D01*
X100535606Y-89933236D01*
X100576324Y-90075236D01*
X100586746Y-90111583D01*
X100589561Y-90117060D01*
X100589562Y-90117063D01*
X100671555Y-90276605D01*
X100674370Y-90282082D01*
X100678193Y-90286906D01*
X100678196Y-90286910D01*
X100754427Y-90383088D01*
X100793443Y-90432314D01*
X100939428Y-90556557D01*
X101106765Y-90650079D01*
X101289081Y-90709317D01*
X101479430Y-90732015D01*
X101485565Y-90731543D01*
X101485567Y-90731543D01*
X101664420Y-90717781D01*
X101664424Y-90717780D01*
X101670562Y-90717308D01*
X101855199Y-90665756D01*
X102026305Y-90579324D01*
X102034555Y-90572879D01*
X102172509Y-90465097D01*
X102177365Y-90461303D01*
X102212552Y-90420539D01*
X102298595Y-90320857D01*
X102298596Y-90320855D01*
X102302624Y-90316189D01*
X102397312Y-90149509D01*
X102457821Y-89967612D01*
X102481847Y-89777425D01*
X102482230Y-89750000D01*
X102463524Y-89559217D01*
X102408117Y-89375701D01*
X102364704Y-89294053D01*
X102321014Y-89211884D01*
X102321012Y-89211881D01*
X102318120Y-89206442D01*
X102238881Y-89109285D01*
X102200856Y-89062661D01*
X102200854Y-89062659D01*
X102196962Y-89057887D01*
X102121741Y-88995659D01*
X102054006Y-88939623D01*
X102054002Y-88939621D01*
X102049256Y-88935694D01*
X101899754Y-88854859D01*
X101886048Y-88847448D01*
X101880629Y-88844518D01*
X101789067Y-88816175D01*
X101703392Y-88789654D01*
X101703389Y-88789653D01*
X101697505Y-88787832D01*
X101691380Y-88787188D01*
X101691379Y-88787188D01*
X101512985Y-88768438D01*
X101512984Y-88768438D01*
X101506857Y-88767794D01*
X101426779Y-88775082D01*
X101322087Y-88784609D01*
X101322084Y-88784610D01*
X101315948Y-88785168D01*
X101310042Y-88786906D01*
X101310038Y-88786907D01*
X101174622Y-88826762D01*
X101132050Y-88839292D01*
X101126590Y-88842146D01*
X101126591Y-88842146D01*
X100967627Y-88925250D01*
X100967623Y-88925253D01*
X100962167Y-88928105D01*
X100957367Y-88931965D01*
X100957366Y-88931965D01*
X100952728Y-88935694D01*
X100812770Y-89048223D01*
X100808812Y-89052940D01*
X100808810Y-89052942D01*
X100769437Y-89099865D01*
X100689549Y-89195072D01*
X100686585Y-89200464D01*
X100686582Y-89200468D01*
X100643638Y-89278584D01*
X100597198Y-89363058D01*
X100595337Y-89368925D01*
X100595336Y-89368927D01*
X100551968Y-89505639D01*
X100539234Y-89545783D01*
X100517866Y-89736286D01*
X99191000Y-89736286D01*
X99191000Y-87301305D01*
X99211002Y-87233184D01*
X99227905Y-87212210D01*
X99243829Y-87196286D01*
X100517866Y-87196286D01*
X100533907Y-87387311D01*
X100535606Y-87393236D01*
X100582643Y-87557273D01*
X100586746Y-87571583D01*
X100589561Y-87577060D01*
X100589562Y-87577063D01*
X100665633Y-87725081D01*
X100674370Y-87742082D01*
X100678193Y-87746906D01*
X100678196Y-87746910D01*
X100785904Y-87882802D01*
X100793443Y-87892314D01*
X100798137Y-87896308D01*
X100798137Y-87896309D01*
X100910721Y-87992125D01*
X100939428Y-88016557D01*
X101106765Y-88110079D01*
X101289081Y-88169317D01*
X101479430Y-88192015D01*
X101485565Y-88191543D01*
X101485567Y-88191543D01*
X101664420Y-88177781D01*
X101664424Y-88177780D01*
X101670562Y-88177308D01*
X101855199Y-88125756D01*
X102026305Y-88039324D01*
X102051600Y-88019562D01*
X102172509Y-87925097D01*
X102177365Y-87921303D01*
X102249198Y-87838084D01*
X102298595Y-87780857D01*
X102298596Y-87780855D01*
X102302624Y-87776189D01*
X102397312Y-87609509D01*
X102457821Y-87427612D01*
X102481847Y-87237425D01*
X102482230Y-87210000D01*
X102463524Y-87019217D01*
X102408117Y-86835701D01*
X102318120Y-86666442D01*
X102196962Y-86517887D01*
X102133081Y-86465040D01*
X102054006Y-86399623D01*
X102054002Y-86399621D01*
X102049256Y-86395694D01*
X101880629Y-86304518D01*
X101789067Y-86276175D01*
X101703392Y-86249654D01*
X101703389Y-86249653D01*
X101697505Y-86247832D01*
X101691380Y-86247188D01*
X101691379Y-86247188D01*
X101512985Y-86228438D01*
X101512984Y-86228438D01*
X101506857Y-86227794D01*
X101426779Y-86235082D01*
X101322087Y-86244609D01*
X101322084Y-86244610D01*
X101315948Y-86245168D01*
X101310042Y-86246906D01*
X101310038Y-86246907D01*
X101174622Y-86286762D01*
X101132050Y-86299292D01*
X101126590Y-86302146D01*
X101126591Y-86302146D01*
X100967627Y-86385250D01*
X100967623Y-86385253D01*
X100962167Y-86388105D01*
X100957367Y-86391965D01*
X100957366Y-86391965D01*
X100952728Y-86395694D01*
X100812770Y-86508223D01*
X100689549Y-86655072D01*
X100686585Y-86660464D01*
X100686582Y-86660468D01*
X100611110Y-86797752D01*
X100597198Y-86823058D01*
X100539234Y-87005783D01*
X100517866Y-87196286D01*
X99243829Y-87196286D01*
X100887524Y-85552591D01*
X100949836Y-85518565D01*
X101020651Y-85523630D01*
X101038089Y-85531698D01*
X101101382Y-85567071D01*
X101101386Y-85567073D01*
X101106765Y-85570079D01*
X101289081Y-85629317D01*
X101479430Y-85652015D01*
X101485565Y-85651543D01*
X101485567Y-85651543D01*
X101664420Y-85637781D01*
X101664424Y-85637780D01*
X101670562Y-85637308D01*
X101855199Y-85585756D01*
X102026305Y-85499324D01*
X102177365Y-85381303D01*
X102262624Y-85282530D01*
X102298595Y-85240857D01*
X102298596Y-85240855D01*
X102302624Y-85236189D01*
X102397312Y-85069509D01*
X102457821Y-84887612D01*
X102481847Y-84697425D01*
X102482230Y-84670000D01*
X102463524Y-84479217D01*
X102408117Y-84295701D01*
X102364150Y-84213011D01*
X102321014Y-84131884D01*
X102321012Y-84131881D01*
X102318120Y-84126442D01*
X102196962Y-83977887D01*
X102133081Y-83925040D01*
X102054006Y-83859623D01*
X102054002Y-83859621D01*
X102049256Y-83855694D01*
X101880629Y-83764518D01*
X101789067Y-83736175D01*
X101703392Y-83709654D01*
X101703389Y-83709653D01*
X101697505Y-83707832D01*
X101691380Y-83707188D01*
X101691379Y-83707188D01*
X101512985Y-83688438D01*
X101512984Y-83688438D01*
X101506857Y-83687794D01*
X101426779Y-83695082D01*
X101322087Y-83704609D01*
X101322084Y-83704610D01*
X101315948Y-83705168D01*
X101310042Y-83706906D01*
X101310038Y-83706907D01*
X101174622Y-83746762D01*
X101132050Y-83759292D01*
X101126590Y-83762146D01*
X101126591Y-83762146D01*
X100967627Y-83845250D01*
X100967623Y-83845253D01*
X100962167Y-83848105D01*
X100957367Y-83851965D01*
X100957366Y-83851965D01*
X100952728Y-83855694D01*
X100812770Y-83968223D01*
X100689549Y-84115072D01*
X100686585Y-84120464D01*
X100686582Y-84120468D01*
X100630344Y-84222765D01*
X100597198Y-84283058D01*
X100595337Y-84288925D01*
X100595336Y-84288927D01*
X100565466Y-84383088D01*
X100539234Y-84465783D01*
X100517866Y-84656286D01*
X100518382Y-84662430D01*
X100532063Y-84825348D01*
X100533907Y-84847311D01*
X100535606Y-84853236D01*
X100558324Y-84932462D01*
X100586746Y-85031583D01*
X100589561Y-85037060D01*
X100589562Y-85037063D01*
X100640327Y-85135841D01*
X100653674Y-85205572D01*
X100627204Y-85271449D01*
X100617355Y-85282530D01*
X98888642Y-87011243D01*
X98887805Y-87011990D01*
X98878042Y-87016678D01*
X98869181Y-87027758D01*
X98869180Y-87027759D01*
X98861778Y-87037015D01*
X98856655Y-87042739D01*
X98854720Y-87045165D01*
X98849716Y-87050169D01*
X98845952Y-87056158D01*
X98843661Y-87059030D01*
X98839588Y-87064761D01*
X98832481Y-87073648D01*
X98832480Y-87073651D01*
X98823617Y-87084733D01*
X98821093Y-87095710D01*
X98815098Y-87105248D01*
X98812224Y-87130667D01*
X98810991Y-87137882D01*
X98810597Y-87141352D01*
X98809000Y-87148297D01*
X98809000Y-87155421D01*
X98808627Y-87158707D01*
X98808202Y-87166248D01*
X98805309Y-87191838D01*
X97981000Y-87191838D01*
X97981000Y-83431305D01*
X98001002Y-83363184D01*
X98017905Y-83342210D01*
X99243829Y-82116286D01*
X100517866Y-82116286D01*
X100518382Y-82122430D01*
X100526935Y-82224279D01*
X100533907Y-82307311D01*
X100535606Y-82313236D01*
X100582195Y-82475710D01*
X100586746Y-82491583D01*
X100589561Y-82497060D01*
X100589562Y-82497063D01*
X100603229Y-82523656D01*
X100674370Y-82662082D01*
X100678193Y-82666906D01*
X100678196Y-82666910D01*
X100785904Y-82802802D01*
X100793443Y-82812314D01*
X100939428Y-82936557D01*
X101106765Y-83030079D01*
X101289081Y-83089317D01*
X101479430Y-83112015D01*
X101485565Y-83111543D01*
X101485567Y-83111543D01*
X101664420Y-83097781D01*
X101664424Y-83097780D01*
X101670562Y-83097308D01*
X101855199Y-83045756D01*
X102026305Y-82959324D01*
X102051600Y-82939562D01*
X102172509Y-82845097D01*
X102177365Y-82841303D01*
X102302624Y-82696189D01*
X102397312Y-82529509D01*
X102457821Y-82347612D01*
X102481847Y-82157425D01*
X102482230Y-82130000D01*
X102463524Y-81939217D01*
X102408117Y-81755701D01*
X102318120Y-81586442D01*
X102196962Y-81437887D01*
X102078637Y-81340000D01*
X102054006Y-81319623D01*
X102054002Y-81319621D01*
X102049256Y-81315694D01*
X101880629Y-81224518D01*
X101789067Y-81196175D01*
X101703392Y-81169654D01*
X101703389Y-81169653D01*
X101697505Y-81167832D01*
X101691380Y-81167188D01*
X101691379Y-81167188D01*
X101512985Y-81148438D01*
X101512984Y-81148438D01*
X101506857Y-81147794D01*
X101426779Y-81155082D01*
X101322087Y-81164609D01*
X101322084Y-81164610D01*
X101315948Y-81165168D01*
X101310042Y-81166906D01*
X101310038Y-81166907D01*
X101198740Y-81199664D01*
X101132050Y-81219292D01*
X101126590Y-81222146D01*
X101126591Y-81222146D01*
X100967627Y-81305250D01*
X100967623Y-81305253D01*
X100962167Y-81308105D01*
X100957367Y-81311965D01*
X100957366Y-81311965D01*
X100952728Y-81315694D01*
X100812770Y-81428223D01*
X100689549Y-81575072D01*
X100686585Y-81580464D01*
X100686582Y-81580468D01*
X100613700Y-81713041D01*
X100597198Y-81743058D01*
X100539234Y-81925783D01*
X100517866Y-82116286D01*
X99243829Y-82116286D01*
X99440202Y-81919913D01*
X100887524Y-80472590D01*
X100949836Y-80438564D01*
X101020651Y-80443629D01*
X101038081Y-80451693D01*
X101106765Y-80490079D01*
X101289081Y-80549317D01*
X101479430Y-80572015D01*
X101485565Y-80571543D01*
X101485567Y-80571543D01*
X101664420Y-80557781D01*
X101664424Y-80557780D01*
X101670562Y-80557308D01*
X101855199Y-80505756D01*
X102026305Y-80419324D01*
X102052629Y-80398758D01*
X102172509Y-80305097D01*
X102177365Y-80301303D01*
X102237758Y-80231337D01*
X102298595Y-80160857D01*
X102298596Y-80160855D01*
X102302624Y-80156189D01*
X102397312Y-79989509D01*
X102457821Y-79807612D01*
X102481847Y-79617425D01*
X102482230Y-79590000D01*
X102463524Y-79399217D01*
X102408117Y-79215701D01*
X102363284Y-79131382D01*
X102321014Y-79051884D01*
X102321012Y-79051881D01*
X102318120Y-79046442D01*
X102196962Y-78897887D01*
X102133081Y-78845040D01*
X102054006Y-78779623D01*
X102054002Y-78779621D01*
X102049256Y-78775694D01*
X101880629Y-78684518D01*
X101789067Y-78656175D01*
X101703392Y-78629654D01*
X101703389Y-78629653D01*
X101697505Y-78627832D01*
X101691380Y-78627188D01*
X101691379Y-78627188D01*
X101512985Y-78608438D01*
X101512984Y-78608438D01*
X101506857Y-78607794D01*
X101426779Y-78615082D01*
X101322087Y-78624609D01*
X101322084Y-78624610D01*
X101315948Y-78625168D01*
X101310042Y-78626906D01*
X101310038Y-78626907D01*
X101174622Y-78666762D01*
X101132050Y-78679292D01*
X101126590Y-78682146D01*
X101126591Y-78682146D01*
X100967627Y-78765250D01*
X100967623Y-78765253D01*
X100962167Y-78768105D01*
X100957367Y-78771965D01*
X100957366Y-78771965D01*
X100952728Y-78775694D01*
X100812770Y-78888223D01*
X100689549Y-79035072D01*
X100686585Y-79040464D01*
X100686582Y-79040468D01*
X100636602Y-79131382D01*
X100597198Y-79203058D01*
X100595337Y-79208925D01*
X100595336Y-79208927D01*
X100593187Y-79215701D01*
X100539234Y-79385783D01*
X100517866Y-79576286D01*
X100533907Y-79767311D01*
X100535606Y-79773236D01*
X100543709Y-79801493D01*
X100586746Y-79951583D01*
X100589561Y-79957060D01*
X100589562Y-79957063D01*
X100640327Y-80055841D01*
X100653674Y-80125572D01*
X100627204Y-80191449D01*
X100617355Y-80202530D01*
X97678642Y-83141243D01*
X97677805Y-83141990D01*
X97668042Y-83146678D01*
X97659181Y-83157758D01*
X97659180Y-83157759D01*
X97651778Y-83167015D01*
X97646655Y-83172739D01*
X97644720Y-83175165D01*
X97639716Y-83180169D01*
X97635952Y-83186158D01*
X97633661Y-83189030D01*
X97629588Y-83194761D01*
X97622481Y-83203648D01*
X97622480Y-83203651D01*
X97613617Y-83214733D01*
X97611093Y-83225710D01*
X97605098Y-83235248D01*
X97602224Y-83260667D01*
X97600991Y-83267882D01*
X97600597Y-83271352D01*
X97599000Y-83278297D01*
X97599000Y-83285421D01*
X97598627Y-83288707D01*
X97598202Y-83296248D01*
X97595309Y-83321838D01*
X97598929Y-83332203D01*
X97599000Y-83333477D01*
X97599000Y-92578695D01*
X97578998Y-92646816D01*
X97562095Y-92667790D01*
X94592378Y-95637507D01*
X94530066Y-95671533D01*
X94459251Y-95666468D01*
X94443369Y-95659255D01*
X94360629Y-95614518D01*
X94223498Y-95572069D01*
X94183392Y-95559654D01*
X94183389Y-95559653D01*
X94177505Y-95557832D01*
X94171380Y-95557188D01*
X94171379Y-95557188D01*
X93992985Y-95538438D01*
X93992984Y-95538438D01*
X93986857Y-95537794D01*
X93906779Y-95545082D01*
X93802087Y-95554609D01*
X93802084Y-95554610D01*
X93795948Y-95555168D01*
X93790042Y-95556906D01*
X93790038Y-95556907D01*
X93654622Y-95596762D01*
X93612050Y-95609292D01*
X93606590Y-95612146D01*
X93606591Y-95612146D01*
X93447627Y-95695250D01*
X93447623Y-95695253D01*
X93442167Y-95698105D01*
X93437367Y-95701965D01*
X93437366Y-95701965D01*
X93406138Y-95727073D01*
X93292770Y-95818223D01*
X93288812Y-95822940D01*
X93288810Y-95822942D01*
X93211796Y-95914724D01*
X93169549Y-95965072D01*
X93166585Y-95970464D01*
X93166582Y-95970468D01*
X93125960Y-96044360D01*
X93077198Y-96133058D01*
X93075337Y-96138925D01*
X93075336Y-96138927D01*
X93041483Y-96245646D01*
X93019234Y-96315783D01*
X92997866Y-96506286D01*
X92998382Y-96512430D01*
X93011861Y-96672942D01*
X93013907Y-96697311D01*
X93015606Y-96703236D01*
X93063342Y-96869711D01*
X93066746Y-96881583D01*
X93069561Y-96887060D01*
X93069562Y-96887063D01*
X93151555Y-97046605D01*
X93154370Y-97052082D01*
X93158193Y-97056906D01*
X93158196Y-97056910D01*
X93251429Y-97174539D01*
X93273443Y-97202314D01*
X93278137Y-97206308D01*
X93278137Y-97206309D01*
X93349810Y-97267307D01*
X93419428Y-97326557D01*
X93586765Y-97420079D01*
X93764346Y-97477778D01*
X93822951Y-97517851D01*
X93850588Y-97583248D01*
X93838481Y-97653205D01*
X93790475Y-97705511D01*
X93744469Y-97722161D01*
X93669319Y-97733661D01*
X93659293Y-97736050D01*
X93456868Y-97802212D01*
X93447359Y-97806209D01*
X93258463Y-97904542D01*
X93249738Y-97910036D01*
X93079433Y-98037905D01*
X93071726Y-98044748D01*
X92924590Y-98198717D01*
X92918104Y-98206727D01*
X92798098Y-98382649D01*
X92793000Y-98391623D01*
X92703338Y-98584783D01*
X92699775Y-98594470D01*
X92644389Y-98794183D01*
X90180500Y-98794183D01*
X90180500Y-89106522D01*
X92697273Y-89106522D01*
X92744764Y-89283761D01*
X92748510Y-89294053D01*
X92840586Y-89491511D01*
X92846069Y-89501007D01*
X92971028Y-89679467D01*
X92978084Y-89687875D01*
X93132125Y-89841916D01*
X93140533Y-89848972D01*
X93318993Y-89973931D01*
X93328489Y-89979414D01*
X93525947Y-90071490D01*
X93536239Y-90075236D01*
X93708503Y-90121394D01*
X93722599Y-90121058D01*
X93726000Y-90113116D01*
X93726000Y-90107967D01*
X94234000Y-90107967D01*
X94237973Y-90121498D01*
X94246522Y-90122727D01*
X94423761Y-90075236D01*
X94434053Y-90071490D01*
X94631511Y-89979414D01*
X94641007Y-89973931D01*
X94819467Y-89848972D01*
X94827875Y-89841916D01*
X94981916Y-89687875D01*
X94988972Y-89679467D01*
X95113931Y-89501007D01*
X95119414Y-89491511D01*
X95211490Y-89294053D01*
X95215236Y-89283761D01*
X95261394Y-89111497D01*
X95261058Y-89097401D01*
X95253116Y-89094000D01*
X94252115Y-89094000D01*
X94236876Y-89098475D01*
X94235671Y-89099865D01*
X94234000Y-89107548D01*
X94234000Y-90107967D01*
X93726000Y-90107967D01*
X93726000Y-89112115D01*
X93721525Y-89096876D01*
X93720135Y-89095671D01*
X93712452Y-89094000D01*
X92712033Y-89094000D01*
X92698502Y-89097973D01*
X92697273Y-89106522D01*
X90180500Y-89106522D01*
X90180500Y-88568503D01*
X92698606Y-88568503D01*
X92698942Y-88582599D01*
X92706884Y-88586000D01*
X93707885Y-88586000D01*
X93723124Y-88581525D01*
X93724329Y-88580135D01*
X93726000Y-88572452D01*
X93726000Y-88567885D01*
X94234000Y-88567885D01*
X94238475Y-88583124D01*
X94239865Y-88584329D01*
X94247548Y-88586000D01*
X95247967Y-88586000D01*
X95261498Y-88582027D01*
X95262727Y-88573478D01*
X95215236Y-88396239D01*
X95211490Y-88385947D01*
X95119414Y-88188489D01*
X95113931Y-88178993D01*
X94988972Y-88000533D01*
X94981916Y-87992125D01*
X94827875Y-87838084D01*
X94819467Y-87831028D01*
X94641007Y-87706069D01*
X94631511Y-87700586D01*
X94434053Y-87608510D01*
X94423761Y-87604764D01*
X94251497Y-87558606D01*
X94237401Y-87558942D01*
X94234000Y-87566884D01*
X94234000Y-88567885D01*
X93726000Y-88567885D01*
X93726000Y-87572033D01*
X93722027Y-87558502D01*
X93713478Y-87557273D01*
X93536239Y-87604764D01*
X93525947Y-87608510D01*
X93328489Y-87700586D01*
X93318993Y-87706069D01*
X93140533Y-87831028D01*
X93132125Y-87838084D01*
X92978084Y-87992125D01*
X92971028Y-88000533D01*
X92846069Y-88178993D01*
X92840586Y-88188489D01*
X92748510Y-88385947D01*
X92744764Y-88396239D01*
X92698606Y-88568503D01*
X90180500Y-88568503D01*
X90180500Y-74919076D01*
X91927656Y-74919076D01*
X91944678Y-75092674D01*
X91946902Y-75099359D01*
X91946902Y-75099360D01*
X91964422Y-75152028D01*
X91999737Y-75258188D01*
X92003384Y-75264210D01*
X92003385Y-75264212D01*
X92081947Y-75393932D01*
X92090097Y-75407390D01*
X92211267Y-75532865D01*
X92217159Y-75536720D01*
X92217163Y-75536724D01*
X92336077Y-75614539D01*
X92357224Y-75628377D01*
X92363828Y-75630833D01*
X92363830Y-75630834D01*
X92411830Y-75648685D01*
X92520715Y-75689179D01*
X92693614Y-75712248D01*
X92700625Y-75711610D01*
X92700629Y-75711610D01*
X92860306Y-75697078D01*
X92867327Y-75696439D01*
X92874029Y-75694261D01*
X92874031Y-75694261D01*
X93026522Y-75644714D01*
X93026525Y-75644713D01*
X93033221Y-75642537D01*
X93183050Y-75553221D01*
X93183066Y-75553247D01*
X93246714Y-75529024D01*
X93316187Y-75543653D01*
X93366722Y-75593520D01*
X93382275Y-75662792D01*
X93362450Y-75722895D01*
X93279177Y-75852109D01*
X93276768Y-75858729D01*
X93276766Y-75858732D01*
X93227577Y-75993878D01*
X93219518Y-76016020D01*
X93197656Y-76189076D01*
X93214678Y-76362674D01*
X93216902Y-76369359D01*
X93216902Y-76369360D01*
X93238218Y-76433438D01*
X93269737Y-76528188D01*
X93273384Y-76534210D01*
X93273385Y-76534212D01*
X93333863Y-76634072D01*
X93360097Y-76677390D01*
X93481267Y-76802865D01*
X93487159Y-76806720D01*
X93487163Y-76806724D01*
X93571664Y-76862019D01*
X93627224Y-76898377D01*
X93633828Y-76900833D01*
X93633836Y-76900837D01*
X93706920Y-76928017D01*
X93763797Y-76970509D01*
X93788670Y-77037006D01*
X93789000Y-77046114D01*
X93789000Y-80330637D01*
X93768998Y-80398758D01*
X93715342Y-80445251D01*
X93701938Y-80450469D01*
X93698256Y-80451665D01*
X93691808Y-80453036D01*
X93685785Y-80455718D01*
X93685784Y-80455718D01*
X93519726Y-80529652D01*
X93519724Y-80529653D01*
X93513696Y-80532337D01*
X93508355Y-80536217D01*
X93508354Y-80536218D01*
X93361302Y-80643057D01*
X93355963Y-80646936D01*
X93351550Y-80651838D01*
X93351548Y-80651839D01*
X93229922Y-80786918D01*
X93225503Y-80791826D01*
X93222200Y-80797547D01*
X93142930Y-80934848D01*
X93128019Y-80960674D01*
X93067771Y-81146100D01*
X93067081Y-81152663D01*
X93067081Y-81152664D01*
X93060261Y-81217553D01*
X93047391Y-81340000D01*
X93067771Y-81533900D01*
X93069811Y-81540178D01*
X93069811Y-81540179D01*
X93081148Y-81575072D01*
X93128019Y-81719326D01*
X93131322Y-81725048D01*
X93131323Y-81725049D01*
X93145109Y-81748927D01*
X93225503Y-81888174D01*
X93229921Y-81893081D01*
X93229922Y-81893082D01*
X93276985Y-81945350D01*
X93355963Y-82033064D01*
X93513695Y-82147663D01*
X93519723Y-82150347D01*
X93519725Y-82150348D01*
X93685777Y-82224279D01*
X93691808Y-82226964D01*
X93787162Y-82247232D01*
X93876059Y-82266128D01*
X93876063Y-82266128D01*
X93882516Y-82267500D01*
X94077484Y-82267500D01*
X94083937Y-82266128D01*
X94083941Y-82266128D01*
X94172838Y-82247232D01*
X94268192Y-82226964D01*
X94274223Y-82224279D01*
X94440275Y-82150348D01*
X94440277Y-82150347D01*
X94446305Y-82147663D01*
X94604037Y-82033064D01*
X94683016Y-81945350D01*
X94730078Y-81893082D01*
X94730079Y-81893081D01*
X94734497Y-81888174D01*
X94814891Y-81748927D01*
X94828677Y-81725049D01*
X94828678Y-81725048D01*
X94831981Y-81719326D01*
X94878852Y-81575072D01*
X94890189Y-81540179D01*
X94890189Y-81540178D01*
X94892229Y-81533900D01*
X94912609Y-81340000D01*
X94899739Y-81217553D01*
X94892919Y-81152664D01*
X94892919Y-81152663D01*
X94892229Y-81146100D01*
X94831981Y-80960674D01*
X94817071Y-80934848D01*
X94737800Y-80797547D01*
X94734497Y-80791826D01*
X94730078Y-80786918D01*
X94608452Y-80651839D01*
X94608450Y-80651838D01*
X94604037Y-80646936D01*
X94500917Y-80572015D01*
X94451647Y-80536218D01*
X94451646Y-80536217D01*
X94446305Y-80532337D01*
X94440277Y-80529653D01*
X94440275Y-80529652D01*
X94274216Y-80455718D01*
X94268192Y-80453036D01*
X94261744Y-80451665D01*
X94258062Y-80450469D01*
X94199457Y-80410395D01*
X94171821Y-80344998D01*
X94171000Y-80330637D01*
X94171000Y-77047042D01*
X94191002Y-76978921D01*
X94244658Y-76932428D01*
X94258065Y-76927209D01*
X94296520Y-76914715D01*
X94296526Y-76914712D01*
X94303221Y-76912537D01*
X94453050Y-76823221D01*
X94533746Y-76746375D01*
X94574268Y-76707787D01*
X94574269Y-76707785D01*
X94579368Y-76702930D01*
X94592973Y-76682454D01*
X94653394Y-76591513D01*
X94675897Y-76557643D01*
X94700984Y-76491602D01*
X94708333Y-76472256D01*
X94751222Y-76415678D01*
X94817891Y-76391269D01*
X94826121Y-76391000D01*
X98603350Y-76391000D01*
X98671471Y-76411002D01*
X98699801Y-76435925D01*
X98743953Y-76488451D01*
X98772127Y-76521968D01*
X98874064Y-76589823D01*
X98990948Y-76626340D01*
X99113383Y-76628584D01*
X99131434Y-76623663D01*
X99222863Y-76598737D01*
X99231527Y-76596375D01*
X99335881Y-76532301D01*
X99418058Y-76441513D01*
X99471451Y-76331311D01*
X99478433Y-76289813D01*
X99490960Y-76215348D01*
X99491767Y-76210552D01*
X99491896Y-76200000D01*
X99480251Y-76118685D01*
X99475809Y-76087667D01*
X99475808Y-76087664D01*
X99474536Y-76078781D01*
X99463519Y-76054549D01*
X99449179Y-76023011D01*
X99423852Y-75967307D01*
X99382273Y-75919052D01*
X99349776Y-75881337D01*
X99349774Y-75881335D01*
X99343918Y-75874539D01*
X99241160Y-75807935D01*
X99123838Y-75772848D01*
X99114862Y-75772793D01*
X99114861Y-75772793D01*
X99064483Y-75772485D01*
X99001385Y-75772100D01*
X98883644Y-75805751D01*
X98876057Y-75810538D01*
X98876055Y-75810539D01*
X98861696Y-75819599D01*
X98780080Y-75871095D01*
X98699018Y-75962879D01*
X98697032Y-75961125D01*
X98653456Y-75998130D01*
X98602259Y-76009000D01*
X96461415Y-76009000D01*
X96393294Y-75988998D01*
X96346801Y-75935342D01*
X96336697Y-75865068D01*
X96350897Y-75822488D01*
X96353322Y-75818058D01*
X96398478Y-75697606D01*
X96402105Y-75682351D01*
X96407631Y-75631486D01*
X96408000Y-75624672D01*
X96408000Y-75202115D01*
X96403525Y-75186876D01*
X96402135Y-75185671D01*
X96394452Y-75184000D01*
X94110116Y-75184000D01*
X94094877Y-75188475D01*
X94093672Y-75189865D01*
X94092001Y-75197548D01*
X94092001Y-75292950D01*
X94071999Y-75361071D01*
X94018343Y-75407564D01*
X93979172Y-75418260D01*
X93818987Y-75435096D01*
X93818985Y-75435097D01*
X93811987Y-75435832D01*
X93646862Y-75492045D01*
X93498294Y-75583445D01*
X93496722Y-75580890D01*
X93443145Y-75602132D01*
X93373477Y-75588463D01*
X93322258Y-75539299D01*
X93305750Y-75470248D01*
X93326639Y-75406935D01*
X93405897Y-75287643D01*
X93409523Y-75278098D01*
X93465339Y-75131163D01*
X93465340Y-75131158D01*
X93467839Y-75124580D01*
X93470209Y-75107718D01*
X93491564Y-74955769D01*
X93491564Y-74955764D01*
X93492115Y-74951846D01*
X93492420Y-74930000D01*
X93480097Y-74820140D01*
X93473761Y-74763653D01*
X93473761Y-74763652D01*
X93472976Y-74756656D01*
X93470661Y-74750009D01*
X93470659Y-74749999D01*
X93416442Y-74594309D01*
X93412928Y-74523399D01*
X93446338Y-74463777D01*
X93902480Y-74007635D01*
X93964792Y-73973609D01*
X94035607Y-73978674D01*
X94092443Y-74021221D01*
X94117254Y-74087741D01*
X94109557Y-74140959D01*
X94101522Y-74162391D01*
X94097895Y-74177649D01*
X94092369Y-74228514D01*
X94092000Y-74235328D01*
X94092000Y-74657885D01*
X94096475Y-74673124D01*
X94097865Y-74674329D01*
X94105548Y-74676000D01*
X94977885Y-74676000D01*
X94993124Y-74671525D01*
X94994329Y-74670135D01*
X94996000Y-74662452D01*
X94996000Y-74657885D01*
X95504000Y-74657885D01*
X95508475Y-74673124D01*
X95509865Y-74674329D01*
X95517548Y-74676000D01*
X96389884Y-74676000D01*
X96405123Y-74671525D01*
X96406328Y-74670135D01*
X96407999Y-74662452D01*
X96407999Y-74235331D01*
X96407629Y-74228510D01*
X96402105Y-74177648D01*
X96398479Y-74162396D01*
X96353324Y-74041946D01*
X96344786Y-74026351D01*
X96268285Y-73924276D01*
X96255724Y-73911715D01*
X96153649Y-73835214D01*
X96138054Y-73826676D01*
X96017606Y-73781522D01*
X96002351Y-73777895D01*
X95951486Y-73772369D01*
X95944672Y-73772000D01*
X95522115Y-73772000D01*
X95506876Y-73776475D01*
X95505671Y-73777865D01*
X95504000Y-73785548D01*
X95504000Y-74657885D01*
X94996000Y-74657885D01*
X94996000Y-73790116D01*
X94991525Y-73774877D01*
X94990135Y-73773672D01*
X94982452Y-73772001D01*
X94555331Y-73772001D01*
X94548510Y-73772371D01*
X94497648Y-73777895D01*
X94482394Y-73781522D01*
X94460959Y-73789557D01*
X94390152Y-73794740D01*
X94327783Y-73760819D01*
X94293654Y-73698564D01*
X94298601Y-73627740D01*
X94327635Y-73582480D01*
X96024710Y-71885405D01*
X96087022Y-71851379D01*
X96113805Y-71848500D01*
X98205500Y-71848500D01*
X98273621Y-71868502D01*
X98320114Y-71922158D01*
X98331500Y-71974500D01*
X98331500Y-72740701D01*
X98331437Y-72741813D01*
X98327848Y-72752032D01*
X98329417Y-72766133D01*
X98329417Y-72766135D01*
X98330727Y-72777903D01*
X98331153Y-72785591D01*
X98331500Y-72788672D01*
X98331500Y-72795743D01*
X98333073Y-72802640D01*
X98333484Y-72806289D01*
X98334658Y-72813224D01*
X98337486Y-72838639D01*
X98343462Y-72848185D01*
X98345968Y-72859169D01*
X98354809Y-72870263D01*
X98354809Y-72870264D01*
X98361900Y-72879162D01*
X98366129Y-72885136D01*
X98368314Y-72887881D01*
X98372096Y-72893921D01*
X98377139Y-72898964D01*
X98379198Y-72901550D01*
X98384215Y-72907165D01*
X98400275Y-72927319D01*
X98410162Y-72932088D01*
X98411116Y-72932941D01*
X102049935Y-76571760D01*
X102083961Y-76634072D01*
X102078896Y-76704887D01*
X102049935Y-76749950D01*
X96408642Y-82391243D01*
X96407805Y-82391990D01*
X96398042Y-82396678D01*
X96389181Y-82407758D01*
X96389180Y-82407759D01*
X96381778Y-82417015D01*
X96376655Y-82422739D01*
X96374720Y-82425165D01*
X96369716Y-82430169D01*
X96365952Y-82436158D01*
X96363661Y-82439030D01*
X96359588Y-82444761D01*
X96352481Y-82453648D01*
X96352480Y-82453651D01*
X96343617Y-82464733D01*
X96341093Y-82475710D01*
X96335098Y-82485248D01*
X96332224Y-82510667D01*
X96330991Y-82517882D01*
X96330597Y-82521352D01*
X96329000Y-82528297D01*
X96329000Y-82535421D01*
X96328627Y-82538707D01*
X96328202Y-82546248D01*
X96325309Y-82571838D01*
X96328929Y-82582203D01*
X96329000Y-82583477D01*
X96329000Y-90038696D01*
X96308998Y-90106817D01*
X96292095Y-90127791D01*
X95042332Y-91377553D01*
X93868642Y-92551243D01*
X93867805Y-92551990D01*
X93858042Y-92556678D01*
X93849181Y-92567758D01*
X93849180Y-92567759D01*
X93841778Y-92577015D01*
X93836655Y-92582739D01*
X93834720Y-92585165D01*
X93829716Y-92590169D01*
X93825952Y-92596158D01*
X93823661Y-92599030D01*
X93819588Y-92604761D01*
X93812481Y-92613648D01*
X93812480Y-92613651D01*
X93803617Y-92624733D01*
X93801093Y-92635710D01*
X93795098Y-92645248D01*
X93792224Y-92670667D01*
X93790991Y-92677882D01*
X93790597Y-92681352D01*
X93789000Y-92688297D01*
X93789000Y-92695421D01*
X93788627Y-92698707D01*
X93788202Y-92706248D01*
X93785309Y-92731838D01*
X93788929Y-92742203D01*
X93789000Y-92743477D01*
X93789000Y-92876500D01*
X93768998Y-92944621D01*
X93715342Y-92991114D01*
X93663000Y-93002500D01*
X93117442Y-93002500D01*
X93111382Y-93003706D01*
X93111377Y-93003706D01*
X93092422Y-93007477D01*
X93080252Y-93009898D01*
X93038078Y-93038078D01*
X93009898Y-93080252D01*
X93007477Y-93092422D01*
X93006655Y-93096557D01*
X93002500Y-93117442D01*
X93002500Y-94842558D01*
X93009898Y-94879748D01*
X93038078Y-94921922D01*
X93080252Y-94950102D01*
X93092422Y-94952523D01*
X93111377Y-94956294D01*
X93111382Y-94956294D01*
X93117442Y-94957500D01*
X94842558Y-94957500D01*
X94848618Y-94956294D01*
X94848623Y-94956294D01*
X94867578Y-94952523D01*
X94879748Y-94950102D01*
X94921922Y-94921922D01*
X94950102Y-94879748D01*
X94957500Y-94842558D01*
X94957500Y-93117442D01*
X94953346Y-93096557D01*
X94952523Y-93092422D01*
X94950102Y-93080252D01*
X94921922Y-93038078D01*
X94879748Y-93009898D01*
X94867578Y-93007477D01*
X94848623Y-93003706D01*
X94848618Y-93003706D01*
X94842558Y-93002500D01*
X94297000Y-93002500D01*
X94228879Y-92982498D01*
X94182386Y-92928842D01*
X94171000Y-92876500D01*
X94171000Y-92841305D01*
X94191002Y-92773184D01*
X94207905Y-92752210D01*
X96631358Y-90328757D01*
X96632195Y-90328010D01*
X96641958Y-90323322D01*
X96658222Y-90302985D01*
X96663340Y-90297266D01*
X96665274Y-90294841D01*
X96670283Y-90289832D01*
X96674052Y-90283835D01*
X96676341Y-90280965D01*
X96680413Y-90275236D01*
X96687520Y-90266349D01*
X96696383Y-90255267D01*
X96698907Y-90244290D01*
X96704902Y-90234752D01*
X96707773Y-90209353D01*
X96709009Y-90202123D01*
X96709404Y-90198644D01*
X96711000Y-90191703D01*
X96711000Y-90184577D01*
X96711372Y-90181299D01*
X96711797Y-90173755D01*
X96713096Y-90162261D01*
X96714690Y-90148162D01*
X96711071Y-90137800D01*
X96711000Y-90136526D01*
X96711000Y-82681305D01*
X96731002Y-82613184D01*
X96747905Y-82592210D01*
X102320050Y-77020065D01*
X102382362Y-76986039D01*
X102453177Y-76991104D01*
X102498240Y-77020065D01*
X104702095Y-79223919D01*
X104736120Y-79286231D01*
X104739000Y-79313014D01*
X104739000Y-81172882D01*
X104728106Y-81224132D01*
X104702500Y-81281643D01*
X104702500Y-109947253D01*
X104682498Y-110015374D01*
X104641584Y-110054385D01*
X104638759Y-110055555D01*
X104518122Y-110148122D01*
X104425555Y-110268759D01*
X104367365Y-110409242D01*
X104347517Y-110560000D01*
X104367365Y-110710758D01*
X104425555Y-110851241D01*
X104518122Y-110971878D01*
X104524672Y-110976904D01*
X104524673Y-110976905D01*
X104578440Y-111018162D01*
X104638758Y-111064445D01*
X104779242Y-111122635D01*
X104921812Y-111141405D01*
X104930000Y-111142483D01*
X104935497Y-111141759D01*
X105002411Y-111161407D01*
X105048904Y-111215063D01*
X105059008Y-111285337D01*
X105029514Y-111349917D01*
X105023385Y-111356500D01*
X102112378Y-114267507D01*
X102050066Y-114301533D01*
X101979251Y-114296468D01*
X101963369Y-114289255D01*
X101880629Y-114244518D01*
X101821130Y-114226100D01*
X101703392Y-114189654D01*
X101703389Y-114189653D01*
X101697505Y-114187832D01*
X101691380Y-114187188D01*
X101691379Y-114187188D01*
X101512985Y-114168438D01*
X101512984Y-114168438D01*
X101506857Y-114167794D01*
X101426779Y-114175082D01*
X101322087Y-114184609D01*
X101322084Y-114184610D01*
X101315948Y-114185168D01*
X101310042Y-114186906D01*
X101310038Y-114186907D01*
X101198207Y-114219821D01*
X101132050Y-114239292D01*
X101126590Y-114242146D01*
X101126591Y-114242146D01*
X100967627Y-114325250D01*
X100967623Y-114325253D01*
X100962167Y-114328105D01*
X100957367Y-114331965D01*
X100957366Y-114331965D01*
X100923076Y-114359535D01*
X100812770Y-114448223D01*
X100808812Y-114452940D01*
X100808810Y-114452942D01*
X100728701Y-114548413D01*
X100689549Y-114595072D01*
X100686585Y-114600464D01*
X100686582Y-114600468D01*
X100675746Y-114620179D01*
X100597198Y-114763058D01*
X100595337Y-114768925D01*
X100595336Y-114768927D01*
X100541096Y-114939913D01*
X100539234Y-114945783D01*
X100517866Y-115136286D01*
X100518382Y-115142430D01*
X100532314Y-115308336D01*
X100533907Y-115327311D01*
X100535606Y-115333236D01*
X100543709Y-115361493D01*
X100586746Y-115511583D01*
X100674370Y-115682082D01*
X100678193Y-115686906D01*
X100678196Y-115686910D01*
X100785904Y-115822802D01*
X100793443Y-115832314D01*
X100939428Y-115956557D01*
X101106765Y-116050079D01*
X101289081Y-116109317D01*
X101479430Y-116132015D01*
X101485565Y-116131543D01*
X101485567Y-116131543D01*
X101664420Y-116117781D01*
X101664424Y-116117780D01*
X101670562Y-116117308D01*
X101855199Y-116065756D01*
X102026305Y-115979324D01*
X102051600Y-115959562D01*
X102172509Y-115865097D01*
X102177365Y-115861303D01*
X102302624Y-115716189D01*
X102397312Y-115549509D01*
X102457821Y-115367612D01*
X102481847Y-115177425D01*
X102482230Y-115150000D01*
X102463524Y-114959217D01*
X102408117Y-114775701D01*
X102360347Y-114685859D01*
X102346028Y-114616322D01*
X102371576Y-114550081D01*
X102382504Y-114537611D01*
X110343905Y-106576210D01*
X110406217Y-106542184D01*
X110477032Y-106547249D01*
X110533868Y-106589796D01*
X110558679Y-106656316D01*
X110559000Y-106665305D01*
X110559000Y-108308696D01*
X110538998Y-108376817D01*
X110522095Y-108397791D01*
X102112379Y-116807507D01*
X102050067Y-116841533D01*
X101979252Y-116836468D01*
X101963355Y-116829248D01*
X101923146Y-116807507D01*
X101880629Y-116784518D01*
X101789067Y-116756175D01*
X101703392Y-116729654D01*
X101703389Y-116729653D01*
X101697505Y-116727832D01*
X101691380Y-116727188D01*
X101691379Y-116727188D01*
X101512985Y-116708438D01*
X101512984Y-116708438D01*
X101506857Y-116707794D01*
X101426779Y-116715082D01*
X101322087Y-116724609D01*
X101322084Y-116724610D01*
X101315948Y-116725168D01*
X101310042Y-116726906D01*
X101310038Y-116726907D01*
X101174622Y-116766762D01*
X101132050Y-116779292D01*
X101126590Y-116782146D01*
X101126591Y-116782146D01*
X100967627Y-116865250D01*
X100967623Y-116865253D01*
X100962167Y-116868105D01*
X100812770Y-116988223D01*
X100808812Y-116992940D01*
X100808810Y-116992942D01*
X100728701Y-117088413D01*
X100689549Y-117135072D01*
X100686585Y-117140464D01*
X100686582Y-117140468D01*
X100639638Y-117225859D01*
X100597198Y-117303058D01*
X100595337Y-117308925D01*
X100595336Y-117308927D01*
X100542246Y-117476287D01*
X100539234Y-117485783D01*
X100517866Y-117676286D01*
X100533907Y-117867311D01*
X100535606Y-117873236D01*
X100583425Y-118040000D01*
X100586746Y-118051583D01*
X100589561Y-118057060D01*
X100589562Y-118057063D01*
X100671555Y-118216605D01*
X100674370Y-118222082D01*
X100678193Y-118226906D01*
X100678196Y-118226910D01*
X100724408Y-118285214D01*
X100793443Y-118372314D01*
X100798137Y-118376308D01*
X100798137Y-118376309D01*
X100879231Y-118445325D01*
X100939428Y-118496557D01*
X101106765Y-118590079D01*
X101289081Y-118649317D01*
X101479430Y-118672015D01*
X101485565Y-118671543D01*
X101485567Y-118671543D01*
X101664420Y-118657781D01*
X101664424Y-118657780D01*
X101670562Y-118657308D01*
X101855199Y-118605756D01*
X102026305Y-118519324D01*
X102051600Y-118499562D01*
X102172509Y-118405097D01*
X102177365Y-118401303D01*
X102206558Y-118367483D01*
X102298595Y-118260857D01*
X102298596Y-118260855D01*
X102302624Y-118256189D01*
X102397312Y-118089509D01*
X102457821Y-117907612D01*
X102481847Y-117717425D01*
X102482230Y-117690000D01*
X102463524Y-117499217D01*
X102408117Y-117315701D01*
X102360347Y-117225859D01*
X102346028Y-117156322D01*
X102371576Y-117090081D01*
X102382504Y-117077611D01*
X110861358Y-108598757D01*
X110862195Y-108598010D01*
X110871958Y-108593322D01*
X110888222Y-108572985D01*
X110893340Y-108567266D01*
X110895274Y-108564841D01*
X110900283Y-108559832D01*
X110904052Y-108553835D01*
X110906341Y-108550965D01*
X110910413Y-108545236D01*
X110917520Y-108536349D01*
X110926383Y-108525267D01*
X110928907Y-108514290D01*
X110934902Y-108504752D01*
X110937773Y-108479353D01*
X110939009Y-108472123D01*
X110939404Y-108468644D01*
X110941000Y-108461703D01*
X110941000Y-108454577D01*
X110941372Y-108451299D01*
X110941797Y-108443755D01*
X110943096Y-108432261D01*
X110944690Y-108418162D01*
X110941071Y-108407800D01*
X110941000Y-108406526D01*
X110941000Y-100515306D01*
X110961002Y-100447185D01*
X111014658Y-100400692D01*
X111084932Y-100390588D01*
X111149512Y-100420082D01*
X111156095Y-100426210D01*
X111361191Y-100631305D01*
X111543967Y-100814081D01*
X111577992Y-100876394D01*
X111579372Y-100922562D01*
X111568136Y-100994724D01*
X111569300Y-101003626D01*
X111569300Y-101003629D01*
X111582850Y-101107246D01*
X111584014Y-101116145D01*
X111633333Y-101228230D01*
X111712127Y-101321968D01*
X111814064Y-101389823D01*
X111930948Y-101426340D01*
X112053383Y-101428584D01*
X112071434Y-101423663D01*
X112162863Y-101398737D01*
X112171527Y-101396375D01*
X112275881Y-101332301D01*
X112358058Y-101241513D01*
X112411451Y-101131311D01*
X112414003Y-101116145D01*
X112430960Y-101015348D01*
X112431767Y-101010552D01*
X112431896Y-101000000D01*
X112420806Y-100922562D01*
X112415809Y-100887667D01*
X112415808Y-100887664D01*
X112414536Y-100878781D01*
X112410565Y-100870046D01*
X112367568Y-100775481D01*
X112363852Y-100767307D01*
X112339740Y-100739324D01*
X112289776Y-100681337D01*
X112289774Y-100681335D01*
X112283918Y-100674539D01*
X112181160Y-100607935D01*
X112063838Y-100572848D01*
X112054862Y-100572793D01*
X112054861Y-100572793D01*
X112004483Y-100572485D01*
X111941385Y-100572100D01*
X111932753Y-100574567D01*
X111923862Y-100575785D01*
X111923574Y-100573682D01*
X111864555Y-100573256D01*
X111811829Y-100541714D01*
X111477905Y-100207790D01*
X111443879Y-100145478D01*
X111441000Y-100118695D01*
X111441000Y-99515305D01*
X111461002Y-99447184D01*
X111514658Y-99400691D01*
X111584932Y-99390587D01*
X111649512Y-99420081D01*
X111656095Y-99426210D01*
X112772095Y-100542210D01*
X112806121Y-100604522D01*
X112809000Y-100631305D01*
X112809000Y-108598695D01*
X112788998Y-108666816D01*
X112772095Y-108687790D01*
X102112378Y-119347507D01*
X102050066Y-119381533D01*
X101979251Y-119376468D01*
X101963369Y-119369255D01*
X101880629Y-119324518D01*
X101858129Y-119317553D01*
X101703392Y-119269654D01*
X101703389Y-119269653D01*
X101697505Y-119267832D01*
X101691380Y-119267188D01*
X101691379Y-119267188D01*
X101512985Y-119248438D01*
X101512984Y-119248438D01*
X101506857Y-119247794D01*
X101426779Y-119255082D01*
X101322087Y-119264609D01*
X101322084Y-119264610D01*
X101315948Y-119265168D01*
X101310042Y-119266906D01*
X101310038Y-119266907D01*
X101174622Y-119306762D01*
X101132050Y-119319292D01*
X101126590Y-119322146D01*
X101126591Y-119322146D01*
X100967627Y-119405250D01*
X100967623Y-119405253D01*
X100962167Y-119408105D01*
X100957367Y-119411965D01*
X100957366Y-119411965D01*
X100923076Y-119439535D01*
X100812770Y-119528223D01*
X100808812Y-119532940D01*
X100808810Y-119532942D01*
X100728701Y-119628413D01*
X100689549Y-119675072D01*
X100686585Y-119680464D01*
X100686582Y-119680468D01*
X100658771Y-119731057D01*
X100597198Y-119843058D01*
X100595337Y-119848925D01*
X100595336Y-119848927D01*
X100572712Y-119920248D01*
X100539234Y-120025783D01*
X100517866Y-120216286D01*
X100533907Y-120407311D01*
X100535606Y-120413236D01*
X100569700Y-120532135D01*
X100586746Y-120591583D01*
X100589561Y-120597060D01*
X100589562Y-120597063D01*
X100627995Y-120671846D01*
X100674370Y-120762082D01*
X100678193Y-120766906D01*
X100678196Y-120766910D01*
X100719768Y-120819360D01*
X100793443Y-120912314D01*
X100798137Y-120916308D01*
X100798137Y-120916309D01*
X100897716Y-121001057D01*
X100939428Y-121036557D01*
X101106765Y-121130079D01*
X101289081Y-121189317D01*
X101479430Y-121212015D01*
X101485565Y-121211543D01*
X101485567Y-121211543D01*
X101664420Y-121197781D01*
X101664424Y-121197780D01*
X101670562Y-121197308D01*
X101855199Y-121145756D01*
X102026305Y-121059324D01*
X102051600Y-121039562D01*
X102172509Y-120945097D01*
X102177365Y-120941303D01*
X102266872Y-120837608D01*
X102298595Y-120800857D01*
X102298596Y-120800855D01*
X102302624Y-120796189D01*
X102397312Y-120629509D01*
X102457821Y-120447612D01*
X102481847Y-120257425D01*
X102482230Y-120230000D01*
X102463524Y-120039217D01*
X102408117Y-119855701D01*
X102360347Y-119765859D01*
X102346028Y-119696322D01*
X102371576Y-119630081D01*
X102382504Y-119617611D01*
X113111358Y-108888757D01*
X113112195Y-108888010D01*
X113121958Y-108883322D01*
X113138222Y-108862985D01*
X113143345Y-108857261D01*
X113145280Y-108854835D01*
X113150284Y-108849831D01*
X113154048Y-108843842D01*
X113156339Y-108840970D01*
X113160412Y-108835239D01*
X113167519Y-108826352D01*
X113167520Y-108826349D01*
X113176383Y-108815267D01*
X113178907Y-108804290D01*
X113184902Y-108794752D01*
X113187776Y-108769333D01*
X113189009Y-108762118D01*
X113189403Y-108758648D01*
X113191000Y-108751703D01*
X113191000Y-108744579D01*
X113191373Y-108741293D01*
X113191798Y-108733752D01*
X113193097Y-108722263D01*
X113193097Y-108722262D01*
X113194691Y-108708162D01*
X113191071Y-108697797D01*
X113191000Y-108696523D01*
X113191000Y-100533510D01*
X113191063Y-100532397D01*
X113194652Y-100522178D01*
X113191773Y-100496304D01*
X113191346Y-100488607D01*
X113191000Y-100485535D01*
X113191000Y-100478467D01*
X113189428Y-100471576D01*
X113189017Y-100467926D01*
X113187843Y-100460985D01*
X113186584Y-100449673D01*
X113185015Y-100435571D01*
X113179037Y-100426023D01*
X113176532Y-100415041D01*
X113160602Y-100395050D01*
X113156359Y-100389058D01*
X113154184Y-100386326D01*
X113150404Y-100380289D01*
X113145364Y-100375249D01*
X113143305Y-100372663D01*
X113138285Y-100367045D01*
X113122225Y-100346891D01*
X113112338Y-100342122D01*
X113111384Y-100341269D01*
X111977905Y-99207790D01*
X111943879Y-99145478D01*
X111941000Y-99118695D01*
X111941000Y-97015306D01*
X111961002Y-96947185D01*
X112014658Y-96900692D01*
X112084932Y-96890588D01*
X112149512Y-96920082D01*
X112156095Y-96926210D01*
X112543967Y-97314081D01*
X112577992Y-97376394D01*
X112579372Y-97422562D01*
X112570775Y-97477778D01*
X112568136Y-97494724D01*
X112569300Y-97503626D01*
X112569300Y-97503629D01*
X112581048Y-97593464D01*
X112584014Y-97616145D01*
X112633333Y-97728230D01*
X112712127Y-97821968D01*
X112814064Y-97889823D01*
X112930948Y-97926340D01*
X113053383Y-97928584D01*
X113071434Y-97923663D01*
X113162863Y-97898737D01*
X113171527Y-97896375D01*
X113275881Y-97832301D01*
X113358058Y-97741513D01*
X113411451Y-97631311D01*
X113414003Y-97616145D01*
X113430960Y-97515348D01*
X113431767Y-97510552D01*
X113431896Y-97500000D01*
X113422933Y-97437413D01*
X113415809Y-97387667D01*
X113415808Y-97387664D01*
X113414536Y-97378781D01*
X113363852Y-97267307D01*
X113311293Y-97206309D01*
X113289776Y-97181337D01*
X113289774Y-97181335D01*
X113283918Y-97174539D01*
X113181160Y-97107935D01*
X113063838Y-97072848D01*
X113054862Y-97072793D01*
X113054861Y-97072793D01*
X113004483Y-97072485D01*
X112941385Y-97072100D01*
X112932753Y-97074567D01*
X112923862Y-97075785D01*
X112923574Y-97073682D01*
X112864555Y-97073256D01*
X112811829Y-97041714D01*
X112477905Y-96707790D01*
X112443879Y-96645478D01*
X112441000Y-96618695D01*
X112441000Y-75705305D01*
X112461002Y-75637184D01*
X112514658Y-75590691D01*
X112584932Y-75580587D01*
X112649512Y-75610081D01*
X112656095Y-75616210D01*
X112793967Y-75754082D01*
X112827993Y-75816394D01*
X112829372Y-75862562D01*
X112820102Y-75922100D01*
X112818136Y-75934724D01*
X112819300Y-75943626D01*
X112819300Y-75943629D01*
X112830960Y-76032792D01*
X112834014Y-76056145D01*
X112883333Y-76168230D01*
X112962127Y-76261968D01*
X113064064Y-76329823D01*
X113146779Y-76355665D01*
X113169214Y-76362674D01*
X113180948Y-76366340D01*
X113303383Y-76368584D01*
X113321434Y-76363663D01*
X113371550Y-76350000D01*
X113421527Y-76336375D01*
X113429182Y-76331675D01*
X113467072Y-76308411D01*
X113535589Y-76289813D01*
X113603284Y-76311210D01*
X113648665Y-76365810D01*
X113659000Y-76415786D01*
X113659000Y-92428695D01*
X113638998Y-92496816D01*
X113622095Y-92517790D01*
X113338642Y-92801243D01*
X113337805Y-92801990D01*
X113328042Y-92806678D01*
X113319181Y-92817758D01*
X113319180Y-92817759D01*
X113311778Y-92827015D01*
X113306655Y-92832739D01*
X113304720Y-92835165D01*
X113299716Y-92840169D01*
X113295952Y-92846158D01*
X113293661Y-92849030D01*
X113289588Y-92854761D01*
X113282481Y-92863648D01*
X113282480Y-92863651D01*
X113273617Y-92874733D01*
X113271093Y-92885710D01*
X113265098Y-92895248D01*
X113262224Y-92920667D01*
X113260991Y-92927882D01*
X113260597Y-92931352D01*
X113259000Y-92938297D01*
X113259000Y-92945421D01*
X113258627Y-92948707D01*
X113258202Y-92956248D01*
X113255309Y-92981838D01*
X113258929Y-92992203D01*
X113259000Y-92993477D01*
X113259000Y-95465507D01*
X113238998Y-95533628D01*
X113200234Y-95572069D01*
X113180857Y-95584295D01*
X113170080Y-95591095D01*
X113164137Y-95597824D01*
X113099039Y-95671533D01*
X113089018Y-95682879D01*
X113036976Y-95793726D01*
X113035595Y-95802595D01*
X113033763Y-95814364D01*
X113018136Y-95914724D01*
X113019300Y-95923626D01*
X113019300Y-95923629D01*
X113032850Y-96027246D01*
X113034014Y-96036145D01*
X113070195Y-96118372D01*
X113079240Y-96138927D01*
X113083333Y-96148230D01*
X113162127Y-96241968D01*
X113264064Y-96309823D01*
X113380948Y-96346340D01*
X113503383Y-96348584D01*
X113521434Y-96343663D01*
X113612863Y-96318737D01*
X113621527Y-96316375D01*
X113725881Y-96252301D01*
X113808058Y-96161513D01*
X113861451Y-96051311D01*
X113864003Y-96036145D01*
X113880960Y-95935348D01*
X113881767Y-95930552D01*
X113881896Y-95920000D01*
X113867996Y-95822942D01*
X113865809Y-95807667D01*
X113865808Y-95807664D01*
X113864536Y-95798781D01*
X113860565Y-95790046D01*
X113831932Y-95727073D01*
X113813852Y-95687307D01*
X113789675Y-95659248D01*
X113739776Y-95601337D01*
X113739774Y-95601335D01*
X113733918Y-95594539D01*
X113698469Y-95571562D01*
X113652184Y-95517727D01*
X113641000Y-95465829D01*
X113641000Y-93423429D01*
X113661002Y-93355308D01*
X113714658Y-93308815D01*
X113784932Y-93298711D01*
X113849512Y-93328205D01*
X113871399Y-93353834D01*
X113873333Y-93358230D01*
X113879109Y-93365102D01*
X113879110Y-93365103D01*
X113896669Y-93385992D01*
X113952127Y-93451968D01*
X114054064Y-93519823D01*
X114170948Y-93556340D01*
X114293383Y-93558584D01*
X114311434Y-93553663D01*
X114402863Y-93528737D01*
X114411527Y-93526375D01*
X114515881Y-93462301D01*
X114598058Y-93371513D01*
X114651451Y-93261311D01*
X114654003Y-93246145D01*
X114670960Y-93145348D01*
X114671767Y-93140552D01*
X114671896Y-93130000D01*
X114664890Y-93081080D01*
X114655809Y-93017667D01*
X114655808Y-93017664D01*
X114654536Y-93008781D01*
X114649016Y-92996639D01*
X114618190Y-92928842D01*
X114603852Y-92897307D01*
X114571053Y-92859242D01*
X114529776Y-92811337D01*
X114529774Y-92811335D01*
X114523918Y-92804539D01*
X114516390Y-92799660D01*
X114516387Y-92799657D01*
X114498467Y-92788042D01*
X114452184Y-92734206D01*
X114441000Y-92682310D01*
X114441000Y-88591568D01*
X114461002Y-88523447D01*
X114514658Y-88476954D01*
X114584932Y-88466850D01*
X114649512Y-88496344D01*
X114656095Y-88502473D01*
X114831776Y-88678154D01*
X114865802Y-88740466D01*
X114867181Y-88786633D01*
X114858136Y-88844724D01*
X114859300Y-88853626D01*
X114859300Y-88853629D01*
X114871353Y-88945795D01*
X114874014Y-88966145D01*
X114923333Y-89078230D01*
X115002127Y-89171968D01*
X115104064Y-89239823D01*
X115220948Y-89276340D01*
X115343383Y-89278584D01*
X115361434Y-89273663D01*
X115452863Y-89248737D01*
X115461527Y-89246375D01*
X115545082Y-89195072D01*
X115558233Y-89186997D01*
X115565881Y-89182301D01*
X115648058Y-89091513D01*
X115701451Y-88981311D01*
X115704003Y-88966145D01*
X115720960Y-88865348D01*
X115721767Y-88860552D01*
X115721896Y-88850000D01*
X115712531Y-88784609D01*
X115705809Y-88737667D01*
X115705808Y-88737664D01*
X115704536Y-88728781D01*
X115681518Y-88678154D01*
X115660493Y-88631913D01*
X115650507Y-88561622D01*
X115680107Y-88497091D01*
X115739897Y-88458807D01*
X115810894Y-88458925D01*
X115864289Y-88490667D01*
X116420595Y-89046973D01*
X116454621Y-89109285D01*
X116457500Y-89136068D01*
X116457500Y-89403932D01*
X116437498Y-89472053D01*
X116420595Y-89493027D01*
X115564560Y-90349062D01*
X115502248Y-90383088D01*
X115459362Y-90384500D01*
X115453838Y-90382848D01*
X115444867Y-90382793D01*
X115444866Y-90382793D01*
X115390034Y-90382458D01*
X115331385Y-90382100D01*
X115213644Y-90415751D01*
X115206057Y-90420538D01*
X115206055Y-90420539D01*
X115152300Y-90454456D01*
X115110080Y-90481095D01*
X115029018Y-90572879D01*
X114976976Y-90683726D01*
X114975595Y-90692595D01*
X114967420Y-90745101D01*
X114958136Y-90804724D01*
X114959300Y-90813626D01*
X114959300Y-90813629D01*
X114972850Y-90917246D01*
X114974014Y-90926145D01*
X115023333Y-91038230D01*
X115102127Y-91131968D01*
X115204064Y-91199823D01*
X115320948Y-91236340D01*
X115443383Y-91238584D01*
X115461434Y-91233663D01*
X115552863Y-91208737D01*
X115561527Y-91206375D01*
X115665881Y-91142301D01*
X115748058Y-91051513D01*
X115801451Y-90941311D01*
X115804003Y-90926145D01*
X115820960Y-90825348D01*
X115821767Y-90820552D01*
X115821896Y-90810000D01*
X115812601Y-90745099D01*
X115822745Y-90674833D01*
X115848234Y-90638144D01*
X116777176Y-89709202D01*
X116779177Y-89707416D01*
X116789301Y-89702554D01*
X116806813Y-89680656D01*
X116812789Y-89673979D01*
X116814326Y-89672052D01*
X116819333Y-89667045D01*
X116823098Y-89661055D01*
X116824988Y-89658685D01*
X116829808Y-89651903D01*
X116838139Y-89641486D01*
X116838141Y-89641483D01*
X116847003Y-89630401D01*
X116849679Y-89618763D01*
X116856035Y-89608651D01*
X116859129Y-89581287D01*
X116860581Y-89572792D01*
X116860903Y-89569958D01*
X116862500Y-89563011D01*
X116862500Y-89555883D01*
X116862801Y-89553231D01*
X116863298Y-89544409D01*
X116864820Y-89530948D01*
X116864820Y-89530947D01*
X116866414Y-89516847D01*
X116862661Y-89506100D01*
X116862500Y-89503221D01*
X116862500Y-89036784D01*
X116862652Y-89034108D01*
X116866373Y-89023513D01*
X116863273Y-88995658D01*
X116862776Y-88986694D01*
X116862500Y-88984243D01*
X116862500Y-88977169D01*
X116860926Y-88970271D01*
X116860588Y-88967267D01*
X116859199Y-88959056D01*
X116857723Y-88945795D01*
X116856154Y-88931692D01*
X116849817Y-88921571D01*
X116847161Y-88909926D01*
X116829999Y-88888389D01*
X116825015Y-88881350D01*
X116823242Y-88879123D01*
X116819460Y-88873082D01*
X116814419Y-88868041D01*
X116812759Y-88865956D01*
X116806876Y-88859371D01*
X116789585Y-88837672D01*
X116779333Y-88832727D01*
X116777179Y-88830801D01*
X115489405Y-87543027D01*
X115455379Y-87480715D01*
X115452500Y-87453932D01*
X115452500Y-84861592D01*
X115468998Y-84805403D01*
X115453582Y-84770576D01*
X115452500Y-84754100D01*
X115452500Y-72851592D01*
X115468998Y-72795403D01*
X115453582Y-72760576D01*
X115452500Y-72744100D01*
X115452500Y-71952619D01*
X115472502Y-71884498D01*
X115526158Y-71838005D01*
X115587442Y-71827794D01*
X115587442Y-71827500D01*
X115813000Y-71827500D01*
X115881121Y-71847502D01*
X115927614Y-71901158D01*
X115939000Y-71953500D01*
X115939000Y-72345507D01*
X115918998Y-72413628D01*
X115880234Y-72452069D01*
X115860857Y-72464295D01*
X115850080Y-72471095D01*
X115844137Y-72477824D01*
X115774986Y-72556122D01*
X115769018Y-72562879D01*
X115716976Y-72673726D01*
X115715595Y-72682595D01*
X115703000Y-72763485D01*
X115687179Y-72797085D01*
X115699396Y-72816094D01*
X115703436Y-72835254D01*
X115712846Y-72907211D01*
X115714014Y-72916145D01*
X115763333Y-73028230D01*
X115842127Y-73121968D01*
X115944064Y-73189823D01*
X116024481Y-73214947D01*
X116042547Y-73220591D01*
X116060948Y-73226340D01*
X116183383Y-73228584D01*
X116201434Y-73223663D01*
X116292863Y-73198737D01*
X116301527Y-73196375D01*
X116312198Y-73189823D01*
X116355572Y-73163192D01*
X116424089Y-73144594D01*
X116491784Y-73165991D01*
X116537165Y-73220591D01*
X116547500Y-73270567D01*
X116547500Y-84053932D01*
X116527498Y-84122053D01*
X116510595Y-84143027D01*
X116304560Y-84349062D01*
X116242248Y-84383088D01*
X116199362Y-84384500D01*
X116193838Y-84382848D01*
X116184867Y-84382793D01*
X116184866Y-84382793D01*
X116130034Y-84382458D01*
X116071385Y-84382100D01*
X115953644Y-84415751D01*
X115850080Y-84481095D01*
X115769018Y-84572879D01*
X115716976Y-84683726D01*
X115715595Y-84692595D01*
X115703000Y-84773485D01*
X115687179Y-84807085D01*
X115699396Y-84826094D01*
X115703436Y-84845254D01*
X115705573Y-84861592D01*
X115714014Y-84926145D01*
X115763333Y-85038230D01*
X115842127Y-85131968D01*
X115944064Y-85199823D01*
X116060948Y-85236340D01*
X116183383Y-85238584D01*
X116201434Y-85233663D01*
X116292863Y-85208737D01*
X116301527Y-85206375D01*
X116405881Y-85142301D01*
X116488058Y-85051513D01*
X116541451Y-84941311D01*
X116544003Y-84926145D01*
X116558298Y-84841169D01*
X116561767Y-84820552D01*
X116561896Y-84810000D01*
X116552601Y-84745099D01*
X116562745Y-84674833D01*
X116588234Y-84638144D01*
X116867176Y-84359202D01*
X116869177Y-84357416D01*
X116879301Y-84352554D01*
X116896813Y-84330656D01*
X116902789Y-84323979D01*
X116904325Y-84322053D01*
X116909333Y-84317045D01*
X116913101Y-84311048D01*
X116914992Y-84308678D01*
X116919804Y-84301908D01*
X116928140Y-84291485D01*
X116928142Y-84291481D01*
X116937003Y-84280401D01*
X116939680Y-84268761D01*
X116946034Y-84258651D01*
X116949127Y-84231295D01*
X116950585Y-84222765D01*
X116950904Y-84219950D01*
X116952500Y-84213011D01*
X116952500Y-84205892D01*
X116952799Y-84203257D01*
X116953298Y-84194400D01*
X116954819Y-84180949D01*
X116954819Y-84180948D01*
X116956413Y-84166847D01*
X116952660Y-84156102D01*
X116952500Y-84153230D01*
X116952500Y-75175839D01*
X116972502Y-75107718D01*
X117026158Y-75061225D01*
X117096432Y-75051121D01*
X117161012Y-75080615D01*
X117181992Y-75105182D01*
X117183333Y-75108230D01*
X117262127Y-75201968D01*
X117364064Y-75269823D01*
X117480948Y-75306340D01*
X117603383Y-75308584D01*
X117621434Y-75303663D01*
X117712863Y-75278737D01*
X117721527Y-75276375D01*
X117825881Y-75212301D01*
X117835234Y-75201968D01*
X117878085Y-75154627D01*
X117938628Y-75117545D01*
X118009608Y-75119083D01*
X118068489Y-75158751D01*
X118096577Y-75223956D01*
X118097500Y-75239182D01*
X118097500Y-75393932D01*
X118077498Y-75462053D01*
X118060595Y-75483027D01*
X117802824Y-75740798D01*
X117800823Y-75742584D01*
X117790699Y-75747446D01*
X117773187Y-75769344D01*
X117767211Y-75776021D01*
X117765674Y-75777948D01*
X117760667Y-75782955D01*
X117756902Y-75788945D01*
X117755012Y-75791315D01*
X117750192Y-75798097D01*
X117741861Y-75808514D01*
X117741859Y-75808517D01*
X117732997Y-75819599D01*
X117730321Y-75831237D01*
X117723965Y-75841349D01*
X117721567Y-75862562D01*
X117720871Y-75868713D01*
X117719419Y-75877208D01*
X117719097Y-75880042D01*
X117717500Y-75886989D01*
X117717500Y-75894117D01*
X117717199Y-75896769D01*
X117716702Y-75905591D01*
X117715512Y-75916121D01*
X117713586Y-75933153D01*
X117717339Y-75943900D01*
X117717500Y-75946779D01*
X117717500Y-80102763D01*
X117697498Y-80170884D01*
X117658736Y-80209324D01*
X117640080Y-80221095D01*
X117559018Y-80312879D01*
X117506976Y-80423726D01*
X117505595Y-80432595D01*
X117490065Y-80532337D01*
X117488136Y-80544724D01*
X117489300Y-80553626D01*
X117489300Y-80553629D01*
X117500995Y-80643057D01*
X117504014Y-80666145D01*
X117553333Y-80778230D01*
X117632127Y-80871968D01*
X117734064Y-80939823D01*
X117850948Y-80976340D01*
X117973383Y-80978584D01*
X117991434Y-80973663D01*
X118082863Y-80948737D01*
X118091527Y-80946375D01*
X118195881Y-80882301D01*
X118278058Y-80791513D01*
X118331451Y-80681311D01*
X118334003Y-80666145D01*
X118344943Y-80601114D01*
X118351767Y-80560552D01*
X118351896Y-80550000D01*
X118336895Y-80445251D01*
X118335809Y-80437667D01*
X118335808Y-80437664D01*
X118334536Y-80428781D01*
X118326177Y-80410395D01*
X118296442Y-80344998D01*
X118283852Y-80317307D01*
X118203918Y-80224539D01*
X118196390Y-80219659D01*
X118196388Y-80219658D01*
X118179970Y-80209017D01*
X118133685Y-80155181D01*
X118122500Y-80103283D01*
X118122500Y-76539197D01*
X118142502Y-76471076D01*
X118196158Y-76424583D01*
X118266432Y-76414479D01*
X118331012Y-76443973D01*
X118363829Y-76488451D01*
X118403333Y-76578230D01*
X118482127Y-76671968D01*
X118584064Y-76739823D01*
X118700948Y-76776340D01*
X118823383Y-76778584D01*
X118841434Y-76773663D01*
X118932863Y-76748737D01*
X118941527Y-76746375D01*
X119045881Y-76682301D01*
X119128058Y-76591513D01*
X119181451Y-76481311D01*
X119182975Y-76472256D01*
X119200960Y-76365348D01*
X119201767Y-76360552D01*
X119201896Y-76350000D01*
X119192601Y-76285099D01*
X119202745Y-76214833D01*
X119228234Y-76178144D01*
X119237176Y-76169202D01*
X119239177Y-76167416D01*
X119249301Y-76162554D01*
X119266813Y-76140656D01*
X119272789Y-76133979D01*
X119274326Y-76132052D01*
X119279333Y-76127045D01*
X119283098Y-76121055D01*
X119284988Y-76118685D01*
X119289808Y-76111903D01*
X119298139Y-76101486D01*
X119298141Y-76101483D01*
X119307003Y-76090401D01*
X119309679Y-76078763D01*
X119316035Y-76068651D01*
X119319129Y-76041287D01*
X119320581Y-76032792D01*
X119320903Y-76029958D01*
X119322500Y-76023011D01*
X119322500Y-76015883D01*
X119322801Y-76013231D01*
X119323298Y-76004409D01*
X119324820Y-75990948D01*
X119324820Y-75990947D01*
X119326414Y-75976847D01*
X119322661Y-75966100D01*
X119322500Y-75963221D01*
X119322500Y-75412558D01*
X121622500Y-75412558D01*
X121629898Y-75449748D01*
X121636791Y-75460065D01*
X121636792Y-75460066D01*
X121638120Y-75462053D01*
X121658078Y-75491922D01*
X121668394Y-75498815D01*
X121689396Y-75512848D01*
X121700252Y-75520102D01*
X121712422Y-75522523D01*
X121731377Y-75526294D01*
X121731382Y-75526294D01*
X121737442Y-75527500D01*
X123562558Y-75527500D01*
X123568618Y-75526294D01*
X123568623Y-75526294D01*
X123587578Y-75522523D01*
X123599748Y-75520102D01*
X123610605Y-75512848D01*
X123631606Y-75498815D01*
X123641922Y-75491922D01*
X123661880Y-75462053D01*
X123663208Y-75460066D01*
X123663209Y-75460065D01*
X123670102Y-75449748D01*
X123677500Y-75412558D01*
X123677500Y-73187442D01*
X123670102Y-73150252D01*
X123658108Y-73132301D01*
X123648815Y-73118394D01*
X123641922Y-73108078D01*
X123599748Y-73079898D01*
X123587578Y-73077477D01*
X123568623Y-73073706D01*
X123568618Y-73073706D01*
X123562558Y-73072500D01*
X121737442Y-73072500D01*
X121731382Y-73073706D01*
X121731377Y-73073706D01*
X121712422Y-73077477D01*
X121700252Y-73079898D01*
X121658078Y-73108078D01*
X121651185Y-73118394D01*
X121641893Y-73132301D01*
X121629898Y-73150252D01*
X121622500Y-73187442D01*
X121622500Y-75412558D01*
X119322500Y-75412558D01*
X119322500Y-73896788D01*
X119322652Y-73894110D01*
X119326373Y-73883514D01*
X119324734Y-73868781D01*
X119323273Y-73855660D01*
X119322776Y-73846693D01*
X119322500Y-73844243D01*
X119322500Y-73837169D01*
X119320926Y-73830269D01*
X119320588Y-73827269D01*
X119319200Y-73819065D01*
X119318431Y-73812155D01*
X119330780Y-73742243D01*
X119378966Y-73690103D01*
X119447692Y-73672292D01*
X119515138Y-73694464D01*
X119532754Y-73709132D01*
X119615818Y-73792196D01*
X119649844Y-73854508D01*
X119651223Y-73900675D01*
X119649504Y-73911715D01*
X119639867Y-73973609D01*
X119638136Y-73984724D01*
X119639300Y-73993626D01*
X119639300Y-73993629D01*
X119647764Y-74058350D01*
X119654014Y-74106145D01*
X119703333Y-74218230D01*
X119782127Y-74311968D01*
X119797650Y-74322301D01*
X119873182Y-74372579D01*
X119884064Y-74379823D01*
X120000948Y-74416340D01*
X120123383Y-74418584D01*
X120141434Y-74413663D01*
X120232863Y-74388737D01*
X120241527Y-74386375D01*
X120345881Y-74322301D01*
X120357243Y-74309749D01*
X120422035Y-74238167D01*
X120428058Y-74231513D01*
X120481451Y-74121311D01*
X120484003Y-74106145D01*
X120500960Y-74005348D01*
X120501767Y-74000552D01*
X120501896Y-73990000D01*
X120492420Y-73923829D01*
X120485809Y-73877667D01*
X120485808Y-73877664D01*
X120484536Y-73868781D01*
X120478479Y-73855458D01*
X120456047Y-73806122D01*
X120433852Y-73757307D01*
X120378024Y-73692515D01*
X120359776Y-73671337D01*
X120359774Y-73671335D01*
X120353918Y-73664539D01*
X120251160Y-73597935D01*
X120133838Y-73562848D01*
X120124862Y-73562793D01*
X120124861Y-73562793D01*
X120011385Y-73562100D01*
X120011406Y-73558623D01*
X119957753Y-73550547D01*
X119921754Y-73525376D01*
X119759470Y-73363092D01*
X119759461Y-73363082D01*
X119518363Y-73121984D01*
X119484339Y-73059673D01*
X119489403Y-72988858D01*
X119531950Y-72932022D01*
X119598470Y-72907211D01*
X119645032Y-72912623D01*
X119712377Y-72933663D01*
X119712382Y-72933664D01*
X119720948Y-72936340D01*
X119843383Y-72938584D01*
X119861434Y-72933663D01*
X119952863Y-72908737D01*
X119961527Y-72906375D01*
X120065881Y-72842301D01*
X120092198Y-72813227D01*
X120134823Y-72766135D01*
X120148058Y-72751513D01*
X120201451Y-72641311D01*
X120204003Y-72626145D01*
X120220960Y-72525348D01*
X120221767Y-72520552D01*
X120221896Y-72510000D01*
X120208290Y-72414991D01*
X120205809Y-72397667D01*
X120205808Y-72397664D01*
X120204536Y-72388781D01*
X120153852Y-72277307D01*
X120130546Y-72250259D01*
X120103176Y-72189884D01*
X120400000Y-72189884D01*
X120404475Y-72205123D01*
X120405865Y-72206328D01*
X120413548Y-72207999D01*
X120444669Y-72207999D01*
X120451490Y-72207629D01*
X120502352Y-72202105D01*
X120517604Y-72198479D01*
X120638054Y-72153324D01*
X120653649Y-72144786D01*
X120755724Y-72068285D01*
X120768285Y-72055724D01*
X120844786Y-71953649D01*
X120853324Y-71938054D01*
X120869900Y-71893838D01*
X120912542Y-71837074D01*
X120938447Y-71822350D01*
X120949748Y-71820102D01*
X120991922Y-71791922D01*
X121020102Y-71749748D01*
X121027500Y-71712558D01*
X121027500Y-70387442D01*
X121020102Y-70350252D01*
X120991922Y-70308078D01*
X120949748Y-70279898D01*
X120938922Y-70277744D01*
X120884381Y-70233790D01*
X120869900Y-70206162D01*
X120853324Y-70161946D01*
X120844786Y-70146351D01*
X120768285Y-70044276D01*
X120755724Y-70031715D01*
X120653649Y-69955214D01*
X120638054Y-69946676D01*
X120517606Y-69901522D01*
X120502351Y-69897895D01*
X120451486Y-69892369D01*
X120444672Y-69892000D01*
X120418115Y-69892000D01*
X120402876Y-69896475D01*
X120401671Y-69897865D01*
X120400000Y-69905548D01*
X120400000Y-72189884D01*
X120103176Y-72189884D01*
X120101233Y-72185597D01*
X120100000Y-72168012D01*
X120100000Y-69910116D01*
X120095525Y-69894877D01*
X120094135Y-69893672D01*
X120086452Y-69892001D01*
X120055331Y-69892001D01*
X120048510Y-69892371D01*
X119997648Y-69897895D01*
X119982394Y-69901521D01*
X119974323Y-69904547D01*
X119903516Y-69909729D01*
X119841148Y-69875806D01*
X119807020Y-69813550D01*
X119805369Y-69804426D01*
X119795809Y-69737667D01*
X119795808Y-69737664D01*
X119794536Y-69728781D01*
X119789197Y-69717037D01*
X119772361Y-69680010D01*
X119743852Y-69617307D01*
X119707131Y-69574690D01*
X119669776Y-69531337D01*
X119669774Y-69531335D01*
X119663918Y-69524539D01*
X119561160Y-69457935D01*
X119443838Y-69422848D01*
X119434862Y-69422793D01*
X119434861Y-69422793D01*
X119384483Y-69422485D01*
X119321385Y-69422100D01*
X119203644Y-69455751D01*
X119196057Y-69460538D01*
X119196055Y-69460539D01*
X119172581Y-69475350D01*
X119100080Y-69521095D01*
X119094137Y-69527824D01*
X119066685Y-69558907D01*
X119019018Y-69612879D01*
X119017032Y-69611125D01*
X118973456Y-69648130D01*
X118922259Y-69659000D01*
X118889032Y-69659000D01*
X118820911Y-69638998D01*
X118774418Y-69585342D01*
X118764778Y-69512097D01*
X118770960Y-69475350D01*
X118770960Y-69475348D01*
X118771767Y-69470552D01*
X118771896Y-69460000D01*
X118760439Y-69380000D01*
X118755809Y-69347667D01*
X118755808Y-69347664D01*
X118754536Y-69338781D01*
X118748545Y-69325603D01*
X118728729Y-69282022D01*
X118703852Y-69227307D01*
X118670845Y-69189000D01*
X118629776Y-69141337D01*
X118629774Y-69141335D01*
X118623918Y-69134539D01*
X118521160Y-69067935D01*
X118403838Y-69032848D01*
X118394862Y-69032793D01*
X118394861Y-69032793D01*
X118344483Y-69032485D01*
X118281385Y-69032100D01*
X118165559Y-69065204D01*
X118165557Y-69065204D01*
X118163644Y-69065751D01*
X118163565Y-69065475D01*
X118098690Y-69074288D01*
X118034341Y-69044294D01*
X117996423Y-68984271D01*
X117996975Y-68913277D01*
X118028496Y-68860619D01*
X118081210Y-68807905D01*
X118143522Y-68773879D01*
X118170305Y-68771000D01*
X124328695Y-68771000D01*
X124396816Y-68791002D01*
X124417790Y-68807905D01*
X125502095Y-69892209D01*
X125536120Y-69954521D01*
X125539000Y-69981304D01*
X125539000Y-106426195D01*
X125518998Y-106494316D01*
X125502095Y-106515290D01*
X118444334Y-113573051D01*
X118382022Y-113607077D01*
X118311207Y-113602012D01*
X118304003Y-113599068D01*
X118155692Y-113533036D01*
X118047687Y-113510079D01*
X117971441Y-113493872D01*
X117971437Y-113493872D01*
X117964984Y-113492500D01*
X117770016Y-113492500D01*
X117763563Y-113493872D01*
X117763559Y-113493872D01*
X117687313Y-113510079D01*
X117579308Y-113533036D01*
X117573279Y-113535720D01*
X117573277Y-113535721D01*
X117407226Y-113609652D01*
X117407224Y-113609653D01*
X117401196Y-113612337D01*
X117243463Y-113726936D01*
X117239050Y-113731838D01*
X117239048Y-113731839D01*
X117117422Y-113866918D01*
X117113003Y-113871826D01*
X117015519Y-114040674D01*
X116955271Y-114226100D01*
X116954581Y-114232663D01*
X116954581Y-114232664D01*
X116944850Y-114325250D01*
X116934891Y-114420000D01*
X116955271Y-114613900D01*
X117015519Y-114799326D01*
X117113003Y-114968174D01*
X117243463Y-115113064D01*
X117248802Y-115116943D01*
X117327197Y-115173900D01*
X117401195Y-115227663D01*
X117407223Y-115230347D01*
X117407225Y-115230348D01*
X117573277Y-115304279D01*
X117579308Y-115306964D01*
X117646138Y-115321169D01*
X117763559Y-115346128D01*
X117763563Y-115346128D01*
X117770016Y-115347500D01*
X117964984Y-115347500D01*
X117971437Y-115346128D01*
X117971441Y-115346128D01*
X118088862Y-115321169D01*
X118155692Y-115306964D01*
X118161723Y-115304279D01*
X118327775Y-115230348D01*
X118327777Y-115230347D01*
X118333805Y-115227663D01*
X118407804Y-115173900D01*
X118486198Y-115116943D01*
X118491537Y-115113064D01*
X118621997Y-114968174D01*
X118719481Y-114799326D01*
X118779729Y-114613900D01*
X118800109Y-114420000D01*
X118790150Y-114325250D01*
X118780419Y-114232664D01*
X118780419Y-114232663D01*
X118779729Y-114226100D01*
X118719481Y-114040674D01*
X118693687Y-113995998D01*
X118676949Y-113927006D01*
X118700168Y-113859913D01*
X118713711Y-113843904D01*
X125841353Y-106716261D01*
X125842194Y-106715511D01*
X125851958Y-106710822D01*
X125868226Y-106690480D01*
X125873344Y-106684761D01*
X125875280Y-106682334D01*
X125880283Y-106677331D01*
X125884046Y-106671344D01*
X125886337Y-106668472D01*
X125890409Y-106662743D01*
X125897519Y-106653852D01*
X125897520Y-106653849D01*
X125906383Y-106642767D01*
X125908907Y-106631790D01*
X125914902Y-106622252D01*
X125917773Y-106596853D01*
X125919009Y-106589623D01*
X125919404Y-106586144D01*
X125921000Y-106579203D01*
X125921000Y-106572077D01*
X125921372Y-106568799D01*
X125921797Y-106561255D01*
X125922154Y-106558093D01*
X125924690Y-106535662D01*
X125921071Y-106525299D01*
X125921000Y-106524024D01*
X125921000Y-69883509D01*
X125921063Y-69882397D01*
X125924652Y-69872178D01*
X125921773Y-69846307D01*
X125921347Y-69838619D01*
X125921000Y-69835538D01*
X125921000Y-69828467D01*
X125919427Y-69821570D01*
X125919016Y-69817921D01*
X125917842Y-69810983D01*
X125916583Y-69799668D01*
X125915014Y-69785571D01*
X125909038Y-69776025D01*
X125906532Y-69765041D01*
X125890599Y-69745047D01*
X125886371Y-69739074D01*
X125884186Y-69736329D01*
X125880404Y-69730289D01*
X125875361Y-69725246D01*
X125873302Y-69722660D01*
X125868285Y-69717045D01*
X125852225Y-69696891D01*
X125842338Y-69692122D01*
X125841384Y-69691269D01*
X124618757Y-68468642D01*
X124618010Y-68467805D01*
X124613322Y-68458042D01*
X124592985Y-68441778D01*
X124587261Y-68436655D01*
X124584835Y-68434720D01*
X124579831Y-68429716D01*
X124573842Y-68425952D01*
X124570970Y-68423661D01*
X124565239Y-68419588D01*
X124556352Y-68412481D01*
X124556349Y-68412480D01*
X124545267Y-68403617D01*
X124534290Y-68401093D01*
X124524752Y-68395098D01*
X124499333Y-68392224D01*
X124492118Y-68390991D01*
X124488648Y-68390597D01*
X124481703Y-68389000D01*
X124474579Y-68389000D01*
X124471293Y-68388627D01*
X124463752Y-68388202D01*
X124452263Y-68386903D01*
X124452262Y-68386903D01*
X124438162Y-68385309D01*
X124427797Y-68388929D01*
X124426523Y-68389000D01*
X119681268Y-68389000D01*
X119613147Y-68368998D01*
X119566654Y-68315342D01*
X119556550Y-68245068D01*
X119586044Y-68180488D01*
X119645770Y-68142104D01*
X119655071Y-68139753D01*
X119655844Y-68139589D01*
X119668192Y-68136964D01*
X119702918Y-68121503D01*
X119840275Y-68060348D01*
X119840277Y-68060347D01*
X119846305Y-68057663D01*
X119928203Y-67998161D01*
X119998698Y-67946943D01*
X120004037Y-67943064D01*
X120055332Y-67886096D01*
X120130078Y-67803082D01*
X120130079Y-67803081D01*
X120134497Y-67798174D01*
X120231981Y-67629326D01*
X120273676Y-67501000D01*
X120290189Y-67450179D01*
X120290189Y-67450178D01*
X120292229Y-67443900D01*
X120295031Y-67417246D01*
X120311919Y-67256565D01*
X120312609Y-67250000D01*
X120292229Y-67056100D01*
X120231981Y-66870674D01*
X120134497Y-66701826D01*
X120112092Y-66676943D01*
X120008452Y-66561839D01*
X120008450Y-66561838D01*
X120004037Y-66556936D01*
X119846305Y-66442337D01*
X119840277Y-66439653D01*
X119840275Y-66439652D01*
X119674223Y-66365721D01*
X119674222Y-66365721D01*
X119668192Y-66363036D01*
X119572838Y-66342768D01*
X119483941Y-66323872D01*
X119483937Y-66323872D01*
X119477484Y-66322500D01*
X119282516Y-66322500D01*
X119276063Y-66323872D01*
X119276059Y-66323872D01*
X119187162Y-66342768D01*
X119091808Y-66363036D01*
X119085779Y-66365720D01*
X119085777Y-66365721D01*
X118919726Y-66439652D01*
X118919724Y-66439653D01*
X118913696Y-66442337D01*
X118908355Y-66446217D01*
X118908354Y-66446218D01*
X118825771Y-66506218D01*
X118755963Y-66556936D01*
X118751550Y-66561838D01*
X118751548Y-66561839D01*
X118647908Y-66676943D01*
X118625503Y-66701826D01*
X118528019Y-66870674D01*
X118517931Y-66901721D01*
X118495117Y-66971936D01*
X118455044Y-67030542D01*
X118389647Y-67058179D01*
X118375284Y-67059000D01*
X117748805Y-67059000D01*
X117680684Y-67038998D01*
X117659710Y-67022095D01*
X116506257Y-65868642D01*
X116505510Y-65867805D01*
X116500822Y-65858042D01*
X116480485Y-65841778D01*
X116474761Y-65836655D01*
X116472335Y-65834720D01*
X116467331Y-65829716D01*
X116461342Y-65825952D01*
X116458470Y-65823661D01*
X116452739Y-65819588D01*
X116443852Y-65812481D01*
X116443849Y-65812480D01*
X116432767Y-65803617D01*
X116421790Y-65801093D01*
X116412252Y-65795098D01*
X116386833Y-65792224D01*
X116379618Y-65790991D01*
X116376148Y-65790597D01*
X116369203Y-65789000D01*
X116362079Y-65789000D01*
X116358793Y-65788627D01*
X116351252Y-65788202D01*
X116339763Y-65786903D01*
X116339762Y-65786903D01*
X116325662Y-65785309D01*
X116315297Y-65788929D01*
X116314023Y-65789000D01*
X115304716Y-65789000D01*
X115236595Y-65768998D01*
X115190102Y-65715342D01*
X115184883Y-65701936D01*
X115154023Y-65606959D01*
X115151981Y-65600674D01*
X115054497Y-65431826D01*
X114961452Y-65328489D01*
X114928452Y-65291839D01*
X114928450Y-65291838D01*
X114924037Y-65286936D01*
X114766305Y-65172337D01*
X114760277Y-65169653D01*
X114760275Y-65169652D01*
X114594223Y-65095721D01*
X114594222Y-65095721D01*
X114588192Y-65093036D01*
X114492838Y-65072768D01*
X114403941Y-65053872D01*
X114403937Y-65053872D01*
X114397484Y-65052500D01*
X114202516Y-65052500D01*
X114196063Y-65053872D01*
X114196059Y-65053872D01*
X114107162Y-65072768D01*
X114011808Y-65093036D01*
X114005779Y-65095720D01*
X114005777Y-65095721D01*
X113839726Y-65169652D01*
X113839724Y-65169653D01*
X113833696Y-65172337D01*
X113675963Y-65286936D01*
X113671550Y-65291838D01*
X113671548Y-65291839D01*
X113638548Y-65328489D01*
X113545503Y-65431826D01*
X113448019Y-65600674D01*
X113445977Y-65606959D01*
X113408404Y-65722599D01*
X113387771Y-65786100D01*
X113367391Y-65980000D01*
X113387771Y-66173900D01*
X113389811Y-66180178D01*
X113389811Y-66180179D01*
X113408589Y-66237973D01*
X113448019Y-66359326D01*
X113451322Y-66365048D01*
X113451323Y-66365049D01*
X113484010Y-66421664D01*
X113545503Y-66528174D01*
X113549921Y-66533081D01*
X113549922Y-66533082D01*
X113647099Y-66641007D01*
X113675963Y-66673064D01*
X113681302Y-66676943D01*
X113806008Y-66767547D01*
X113833695Y-66787663D01*
X113839723Y-66790347D01*
X113839725Y-66790348D01*
X114005777Y-66864279D01*
X114011808Y-66866964D01*
X114086537Y-66882848D01*
X114196059Y-66906128D01*
X114196063Y-66906128D01*
X114202516Y-66907500D01*
X114397484Y-66907500D01*
X114403937Y-66906128D01*
X114403941Y-66906128D01*
X114513463Y-66882848D01*
X114588192Y-66866964D01*
X114594223Y-66864279D01*
X114760275Y-66790348D01*
X114760277Y-66790347D01*
X114766305Y-66787663D01*
X114793993Y-66767547D01*
X114918698Y-66676943D01*
X114924037Y-66673064D01*
X114952902Y-66641007D01*
X115050078Y-66533082D01*
X115050079Y-66533081D01*
X115054497Y-66528174D01*
X115115990Y-66421664D01*
X115148677Y-66365049D01*
X115148678Y-66365048D01*
X115151981Y-66359326D01*
X115184883Y-66258064D01*
X115224956Y-66199458D01*
X115290353Y-66171821D01*
X115304716Y-66171000D01*
X116216195Y-66171000D01*
X116284316Y-66191002D01*
X116305290Y-66207905D01*
X117258290Y-67160905D01*
X117292316Y-67223217D01*
X117287251Y-67294032D01*
X117258290Y-67339095D01*
X116105351Y-68492034D01*
X116043039Y-68526060D01*
X115972224Y-68520995D01*
X115947727Y-68508673D01*
X115931160Y-68497935D01*
X115922563Y-68495364D01*
X115922561Y-68495363D01*
X115879194Y-68482394D01*
X115813838Y-68462848D01*
X115804862Y-68462793D01*
X115804861Y-68462793D01*
X115754483Y-68462485D01*
X115691385Y-68462100D01*
X115573644Y-68495751D01*
X115566057Y-68500538D01*
X115566055Y-68500539D01*
X115525607Y-68526060D01*
X115470080Y-68561095D01*
X115389018Y-68652879D01*
X115336976Y-68763726D01*
X115318136Y-68884724D01*
X115319300Y-68893626D01*
X115319300Y-68893629D01*
X115331973Y-68990539D01*
X115334014Y-69006145D01*
X115363232Y-69072548D01*
X115378019Y-69106152D01*
X115383333Y-69118230D01*
X115462127Y-69211968D01*
X115477650Y-69222301D01*
X115502819Y-69239055D01*
X115548442Y-69293452D01*
X115559000Y-69343942D01*
X115559000Y-70148513D01*
X115538998Y-70216634D01*
X115485342Y-70263127D01*
X115420652Y-70273906D01*
X115418620Y-70273706D01*
X115412558Y-70272500D01*
X115087442Y-70272500D01*
X115081382Y-70273706D01*
X115081377Y-70273706D01*
X115062422Y-70277477D01*
X115050252Y-70279898D01*
X115044467Y-70283764D01*
X114977631Y-70290950D01*
X114957398Y-70285009D01*
X114949748Y-70279898D01*
X114937578Y-70277477D01*
X114918623Y-70273706D01*
X114918618Y-70273706D01*
X114912558Y-70272500D01*
X114587442Y-70272500D01*
X114581382Y-70273706D01*
X114581377Y-70273706D01*
X114562422Y-70277477D01*
X114550252Y-70279898D01*
X114544467Y-70283764D01*
X114477631Y-70290950D01*
X114457397Y-70285009D01*
X114449748Y-70279898D01*
X114438921Y-70277744D01*
X114384380Y-70233789D01*
X114369900Y-70206162D01*
X114353324Y-70161946D01*
X114344786Y-70146351D01*
X114268285Y-70044276D01*
X114255724Y-70031715D01*
X114153649Y-69955214D01*
X114138054Y-69946676D01*
X114017606Y-69901522D01*
X114002351Y-69897895D01*
X113951486Y-69892369D01*
X113944672Y-69892000D01*
X113918115Y-69892000D01*
X113902876Y-69896475D01*
X113901671Y-69897865D01*
X113900000Y-69905548D01*
X113900000Y-72189884D01*
X113904475Y-72205123D01*
X113905865Y-72206328D01*
X113913548Y-72207999D01*
X113933000Y-72207999D01*
X114001121Y-72228001D01*
X114047614Y-72281657D01*
X114059000Y-72333999D01*
X114059000Y-74944695D01*
X114038998Y-75012816D01*
X113985342Y-75059309D01*
X113915068Y-75069413D01*
X113850488Y-75039919D01*
X113843905Y-75033790D01*
X113477904Y-74667789D01*
X113443879Y-74605477D01*
X113441000Y-74578694D01*
X113441000Y-72334000D01*
X113461002Y-72265879D01*
X113514658Y-72219386D01*
X113567000Y-72208000D01*
X113581885Y-72208000D01*
X113597124Y-72203525D01*
X113598329Y-72202135D01*
X113600000Y-72194452D01*
X113600000Y-69910116D01*
X113595525Y-69894877D01*
X113594135Y-69893672D01*
X113586452Y-69892001D01*
X113555331Y-69892001D01*
X113548510Y-69892371D01*
X113497648Y-69897895D01*
X113482396Y-69901521D01*
X113361946Y-69946676D01*
X113346351Y-69955214D01*
X113244276Y-70031715D01*
X113231715Y-70044276D01*
X113167826Y-70129523D01*
X113110967Y-70172038D01*
X113040148Y-70177064D01*
X112977855Y-70143004D01*
X112943865Y-70080673D01*
X112941000Y-70053958D01*
X112941000Y-69211017D01*
X112941063Y-69209899D01*
X112944653Y-69199678D01*
X112941773Y-69173799D01*
X112941347Y-69166119D01*
X112941000Y-69163037D01*
X112941000Y-69155967D01*
X112939428Y-69149074D01*
X112939018Y-69145433D01*
X112937844Y-69138491D01*
X112936584Y-69127173D01*
X112935015Y-69113072D01*
X112929037Y-69103524D01*
X112926532Y-69092541D01*
X112910599Y-69072547D01*
X112906371Y-69066574D01*
X112904186Y-69063829D01*
X112900404Y-69057789D01*
X112895361Y-69052746D01*
X112893302Y-69050160D01*
X112888285Y-69044545D01*
X112872225Y-69024391D01*
X112862338Y-69019622D01*
X112861384Y-69018769D01*
X110981257Y-67138642D01*
X110980510Y-67137805D01*
X110975822Y-67128042D01*
X110960890Y-67116100D01*
X110955485Y-67111778D01*
X110949761Y-67106655D01*
X110947335Y-67104720D01*
X110942331Y-67099716D01*
X110936342Y-67095952D01*
X110933470Y-67093661D01*
X110927739Y-67089588D01*
X110918852Y-67082481D01*
X110918849Y-67082480D01*
X110907767Y-67073617D01*
X110896790Y-67071093D01*
X110887252Y-67065098D01*
X110861833Y-67062224D01*
X110854618Y-67060991D01*
X110851148Y-67060597D01*
X110844203Y-67059000D01*
X110837079Y-67059000D01*
X110833793Y-67058627D01*
X110826252Y-67058202D01*
X110814763Y-67056903D01*
X110814762Y-67056903D01*
X110800662Y-67055309D01*
X110790297Y-67058929D01*
X110789023Y-67059000D01*
X110224716Y-67059000D01*
X110156595Y-67038998D01*
X110110102Y-66985342D01*
X110104883Y-66971936D01*
X110082069Y-66901721D01*
X110071981Y-66870674D01*
X109974497Y-66701826D01*
X109952092Y-66676943D01*
X109848452Y-66561839D01*
X109848450Y-66561838D01*
X109844037Y-66556936D01*
X109686305Y-66442337D01*
X109680277Y-66439653D01*
X109680275Y-66439652D01*
X109514223Y-66365721D01*
X109514222Y-66365721D01*
X109508192Y-66363036D01*
X109412838Y-66342768D01*
X109323941Y-66323872D01*
X109323937Y-66323872D01*
X109317484Y-66322500D01*
X109122516Y-66322500D01*
X109116063Y-66323872D01*
X109116059Y-66323872D01*
X109027162Y-66342768D01*
X108931808Y-66363036D01*
X108925779Y-66365720D01*
X108925777Y-66365721D01*
X108759726Y-66439652D01*
X108759724Y-66439653D01*
X108753696Y-66442337D01*
X108748355Y-66446217D01*
X108748354Y-66446218D01*
X108665771Y-66506218D01*
X108595963Y-66556936D01*
X108591550Y-66561838D01*
X108591548Y-66561839D01*
X108487908Y-66676943D01*
X108465503Y-66701826D01*
X108368019Y-66870674D01*
X108307771Y-67056100D01*
X108287391Y-67250000D01*
X108288081Y-67256565D01*
X108304970Y-67417246D01*
X108307771Y-67443900D01*
X108309811Y-67450178D01*
X108309811Y-67450179D01*
X108326324Y-67501000D01*
X108368019Y-67629326D01*
X108465503Y-67798174D01*
X108469921Y-67803081D01*
X108469922Y-67803082D01*
X108544669Y-67886096D01*
X108595963Y-67943064D01*
X108601302Y-67946943D01*
X108671798Y-67998161D01*
X108753695Y-68057663D01*
X108759723Y-68060347D01*
X108759725Y-68060348D01*
X108897082Y-68121503D01*
X108931808Y-68136964D01*
X109000708Y-68151609D01*
X109116059Y-68176128D01*
X109116063Y-68176128D01*
X109122516Y-68177500D01*
X109317484Y-68177500D01*
X109323937Y-68176128D01*
X109323941Y-68176128D01*
X109439292Y-68151609D01*
X109508192Y-68136964D01*
X109542918Y-68121503D01*
X109680275Y-68060348D01*
X109680277Y-68060347D01*
X109686305Y-68057663D01*
X109768203Y-67998161D01*
X109838698Y-67946943D01*
X109844037Y-67943064D01*
X109895332Y-67886096D01*
X109970078Y-67803082D01*
X109970079Y-67803081D01*
X109974497Y-67798174D01*
X110071981Y-67629326D01*
X110101580Y-67538230D01*
X110104883Y-67528064D01*
X110144956Y-67469458D01*
X110210353Y-67441821D01*
X110224716Y-67441000D01*
X110691195Y-67441000D01*
X110759316Y-67461002D01*
X110780290Y-67477905D01*
X112522095Y-69219710D01*
X112556121Y-69282022D01*
X112559000Y-69308805D01*
X112559000Y-70148513D01*
X112538998Y-70216634D01*
X112485342Y-70263127D01*
X112420652Y-70273906D01*
X112418620Y-70273706D01*
X112412558Y-70272500D01*
X112087442Y-70272500D01*
X112081382Y-70273706D01*
X112081377Y-70273706D01*
X112062422Y-70277477D01*
X112050252Y-70279898D01*
X112044467Y-70283764D01*
X111977631Y-70290950D01*
X111957398Y-70285009D01*
X111949748Y-70279898D01*
X111937578Y-70277477D01*
X111918623Y-70273706D01*
X111918618Y-70273706D01*
X111912558Y-70272500D01*
X111587442Y-70272500D01*
X111581382Y-70273706D01*
X111581377Y-70273706D01*
X111562422Y-70277477D01*
X111550252Y-70279898D01*
X111544467Y-70283764D01*
X111477631Y-70290950D01*
X111457398Y-70285009D01*
X111449748Y-70279898D01*
X111437578Y-70277477D01*
X111418623Y-70273706D01*
X111418618Y-70273706D01*
X111412558Y-70272500D01*
X111087442Y-70272500D01*
X111081382Y-70273706D01*
X111081377Y-70273706D01*
X111062422Y-70277477D01*
X111050252Y-70279898D01*
X111044467Y-70283764D01*
X110977631Y-70290950D01*
X110957398Y-70285009D01*
X110949748Y-70279898D01*
X110937578Y-70277477D01*
X110918623Y-70273706D01*
X110918618Y-70273706D01*
X110912558Y-70272500D01*
X110587442Y-70272500D01*
X110581382Y-70273706D01*
X110581377Y-70273706D01*
X110562422Y-70277477D01*
X110550252Y-70279898D01*
X110544467Y-70283764D01*
X110477631Y-70290950D01*
X110457398Y-70285009D01*
X110449748Y-70279898D01*
X110437578Y-70277477D01*
X110418623Y-70273706D01*
X110418618Y-70273706D01*
X110412558Y-70272500D01*
X110087442Y-70272500D01*
X110081382Y-70273706D01*
X110081377Y-70273706D01*
X110062422Y-70277477D01*
X110050252Y-70279898D01*
X110044467Y-70283764D01*
X109977631Y-70290950D01*
X109957398Y-70285009D01*
X109949748Y-70279898D01*
X109937578Y-70277477D01*
X109918623Y-70273706D01*
X109918618Y-70273706D01*
X109912558Y-70272500D01*
X109587442Y-70272500D01*
X109581382Y-70273706D01*
X109581377Y-70273706D01*
X109562422Y-70277477D01*
X109550252Y-70279898D01*
X109544467Y-70283764D01*
X109477631Y-70290950D01*
X109457398Y-70285009D01*
X109449748Y-70279898D01*
X109437578Y-70277477D01*
X109418623Y-70273706D01*
X109418618Y-70273706D01*
X109412558Y-70272500D01*
X109087442Y-70272500D01*
X109081382Y-70273706D01*
X109081377Y-70273706D01*
X109062422Y-70277477D01*
X109050252Y-70279898D01*
X109039935Y-70286791D01*
X109039934Y-70286792D01*
X109018394Y-70301185D01*
X109008078Y-70308078D01*
X108979898Y-70350252D01*
X108972500Y-70387442D01*
X108972500Y-71712558D01*
X108979898Y-71749748D01*
X109008078Y-71791922D01*
X109018394Y-71798815D01*
X109033712Y-71809050D01*
X109050252Y-71820102D01*
X109062422Y-71822523D01*
X109081377Y-71826294D01*
X109081382Y-71826294D01*
X109087442Y-71827500D01*
X109412558Y-71827500D01*
X109418618Y-71826294D01*
X109418623Y-71826294D01*
X109437578Y-71822523D01*
X109449748Y-71820102D01*
X109455533Y-71816236D01*
X109522369Y-71809050D01*
X109542602Y-71814991D01*
X109550252Y-71820102D01*
X109562422Y-71822523D01*
X109581377Y-71826294D01*
X109581382Y-71826294D01*
X109587442Y-71827500D01*
X109912558Y-71827500D01*
X109918620Y-71826294D01*
X109920652Y-71826094D01*
X109990405Y-71839323D01*
X110041932Y-71888165D01*
X110059000Y-71951487D01*
X110059000Y-106268695D01*
X110038998Y-106336816D01*
X110022095Y-106357790D01*
X105726500Y-110653385D01*
X105664188Y-110687411D01*
X105593373Y-110682346D01*
X105536537Y-110639799D01*
X105511726Y-110573279D01*
X105511515Y-110567356D01*
X105512483Y-110560000D01*
X105492635Y-110409242D01*
X105434445Y-110268759D01*
X105341878Y-110148122D01*
X105235522Y-110066512D01*
X105227796Y-110060584D01*
X105221242Y-110055555D01*
X105218730Y-110054514D01*
X105171508Y-110004991D01*
X105157500Y-109947252D01*
X105157500Y-81306091D01*
X105152304Y-81281643D01*
X105145227Y-81248353D01*
X105142474Y-81235400D01*
X105134690Y-81224687D01*
X105131893Y-81218404D01*
X105121000Y-81167155D01*
X105121000Y-79215218D01*
X105121063Y-79214106D01*
X105124652Y-79203887D01*
X105121773Y-79178017D01*
X105121346Y-79170327D01*
X105121000Y-79167254D01*
X105121000Y-79160177D01*
X105119427Y-79153280D01*
X105119016Y-79149631D01*
X105117841Y-79142686D01*
X105116583Y-79131382D01*
X105115014Y-79117281D01*
X105109038Y-79107735D01*
X105106532Y-79096751D01*
X105090599Y-79076757D01*
X105086371Y-79070784D01*
X105084186Y-79068039D01*
X105080404Y-79061999D01*
X105075361Y-79056956D01*
X105073302Y-79054370D01*
X105068285Y-79048755D01*
X105052225Y-79028601D01*
X105042338Y-79023832D01*
X105041384Y-79022979D01*
X102548716Y-76530311D01*
X102548662Y-76530211D01*
X102548639Y-76530234D01*
X102513542Y-76495076D01*
X102516951Y-76491673D01*
X102516889Y-76491602D01*
X102513448Y-76495043D01*
X101430963Y-75412558D01*
X106322500Y-75412558D01*
X106329898Y-75449748D01*
X106336791Y-75460065D01*
X106336792Y-75460066D01*
X106338120Y-75462053D01*
X106358078Y-75491922D01*
X106368394Y-75498815D01*
X106389396Y-75512848D01*
X106400252Y-75520102D01*
X106412422Y-75522523D01*
X106431377Y-75526294D01*
X106431382Y-75526294D01*
X106437442Y-75527500D01*
X108262558Y-75527500D01*
X108268618Y-75526294D01*
X108268623Y-75526294D01*
X108287578Y-75522523D01*
X108299748Y-75520102D01*
X108310605Y-75512848D01*
X108331606Y-75498815D01*
X108341922Y-75491922D01*
X108361880Y-75462053D01*
X108363208Y-75460066D01*
X108363209Y-75460065D01*
X108370102Y-75449748D01*
X108377500Y-75412558D01*
X108377500Y-73187442D01*
X108370102Y-73150252D01*
X108358108Y-73132301D01*
X108348815Y-73118394D01*
X108341922Y-73108078D01*
X108299748Y-73079898D01*
X108287578Y-73077477D01*
X108268623Y-73073706D01*
X108268618Y-73073706D01*
X108262558Y-73072500D01*
X106437442Y-73072500D01*
X106431382Y-73073706D01*
X106431377Y-73073706D01*
X106412422Y-73077477D01*
X106400252Y-73079898D01*
X106358078Y-73108078D01*
X106351185Y-73118394D01*
X106341893Y-73132301D01*
X106329898Y-73150252D01*
X106322500Y-73187442D01*
X106322500Y-75412558D01*
X101430963Y-75412558D01*
X98750405Y-72732000D01*
X98716379Y-72669688D01*
X98713500Y-72642905D01*
X98713500Y-71663399D01*
X98713543Y-71614096D01*
X98718345Y-71614100D01*
X98718352Y-71614006D01*
X98713500Y-71614006D01*
X98713500Y-70553291D01*
X98733502Y-70485170D01*
X98758686Y-70456719D01*
X98765881Y-70452301D01*
X98848058Y-70361513D01*
X98901451Y-70251311D01*
X98904003Y-70236145D01*
X98920960Y-70135348D01*
X98921767Y-70130552D01*
X98921896Y-70120000D01*
X98914890Y-70071080D01*
X98905809Y-70007667D01*
X98905808Y-70007664D01*
X98904536Y-69998781D01*
X98853852Y-69887307D01*
X98794210Y-69818089D01*
X98779776Y-69801337D01*
X98779774Y-69801335D01*
X98773918Y-69794539D01*
X98671160Y-69727935D01*
X98553838Y-69692848D01*
X98544862Y-69692793D01*
X98544861Y-69692793D01*
X98494483Y-69692485D01*
X98431385Y-69692100D01*
X98313644Y-69725751D01*
X98306057Y-69730538D01*
X98306055Y-69730539D01*
X98252300Y-69764456D01*
X98210080Y-69791095D01*
X98204137Y-69797824D01*
X98143862Y-69866072D01*
X98129018Y-69882879D01*
X98122635Y-69896475D01*
X98095383Y-69954521D01*
X98076976Y-69993726D01*
X98075595Y-70002595D01*
X98067598Y-70053958D01*
X98058136Y-70114724D01*
X98059300Y-70123626D01*
X98059300Y-70123629D01*
X98072794Y-70226816D01*
X98074014Y-70236145D01*
X98123333Y-70348230D01*
X98202127Y-70441968D01*
X98209604Y-70446945D01*
X98275319Y-70490689D01*
X98320942Y-70545086D01*
X98331500Y-70595576D01*
X98331500Y-71340500D01*
X98311498Y-71408621D01*
X98257842Y-71455114D01*
X98205500Y-71466500D01*
X96016010Y-71466500D01*
X96014897Y-71466437D01*
X96004678Y-71462848D01*
X95990577Y-71464417D01*
X95990576Y-71464417D01*
X95983713Y-71465181D01*
X95978804Y-71465727D01*
X95971107Y-71466154D01*
X95968035Y-71466500D01*
X95960967Y-71466500D01*
X95954076Y-71468072D01*
X95950426Y-71468483D01*
X95943485Y-71469657D01*
X95938051Y-71470262D01*
X95918071Y-71472485D01*
X95908523Y-71478463D01*
X95897541Y-71480968D01*
X95886445Y-71489810D01*
X95877550Y-71496898D01*
X95871558Y-71501141D01*
X95868826Y-71503316D01*
X95862789Y-71507096D01*
X95857749Y-71512136D01*
X95855163Y-71514195D01*
X95849545Y-71519215D01*
X95829391Y-71535275D01*
X95824622Y-71545162D01*
X95823769Y-71546116D01*
X93175777Y-74194108D01*
X93113465Y-74228134D01*
X93044415Y-74223712D01*
X92895300Y-74170614D01*
X92895298Y-74170613D01*
X92888666Y-74168252D01*
X92881680Y-74167419D01*
X92881676Y-74167418D01*
X92758558Y-74152738D01*
X92715462Y-74147599D01*
X92708459Y-74148335D01*
X92708458Y-74148335D01*
X92548987Y-74165096D01*
X92548985Y-74165097D01*
X92541987Y-74165832D01*
X92376862Y-74222045D01*
X92366347Y-74228514D01*
X92234301Y-74309749D01*
X92234298Y-74309751D01*
X92228294Y-74313445D01*
X92223259Y-74318376D01*
X92223256Y-74318378D01*
X92110581Y-74428718D01*
X92103668Y-74435488D01*
X92009177Y-74582109D01*
X92006768Y-74588729D01*
X92006766Y-74588732D01*
X91975003Y-74676000D01*
X91949518Y-74746020D01*
X91927656Y-74919076D01*
X90180500Y-74919076D01*
X90180500Y-66246522D01*
X91427273Y-66246522D01*
X91474764Y-66423761D01*
X91478510Y-66434053D01*
X91570586Y-66631511D01*
X91576069Y-66641007D01*
X91701028Y-66819467D01*
X91708084Y-66827875D01*
X91862125Y-66981916D01*
X91870533Y-66988972D01*
X92048993Y-67113931D01*
X92058489Y-67119414D01*
X92255947Y-67211490D01*
X92266239Y-67215236D01*
X92438503Y-67261394D01*
X92452599Y-67261058D01*
X92456000Y-67253116D01*
X92456000Y-67247967D01*
X92964000Y-67247967D01*
X92967973Y-67261498D01*
X92976522Y-67262727D01*
X93153761Y-67215236D01*
X93164053Y-67211490D01*
X93361511Y-67119414D01*
X93371007Y-67113931D01*
X93549467Y-66988972D01*
X93557875Y-66981916D01*
X93711916Y-66827875D01*
X93718972Y-66819467D01*
X93843931Y-66641007D01*
X93849414Y-66631511D01*
X93941490Y-66434053D01*
X93945236Y-66423761D01*
X93991394Y-66251497D01*
X93991058Y-66237401D01*
X93983116Y-66234000D01*
X92982115Y-66234000D01*
X92966876Y-66238475D01*
X92965671Y-66239865D01*
X92964000Y-66247548D01*
X92964000Y-67247967D01*
X92456000Y-67247967D01*
X92456000Y-66252115D01*
X92451525Y-66236876D01*
X92450135Y-66235671D01*
X92442452Y-66234000D01*
X91442033Y-66234000D01*
X91428502Y-66237973D01*
X91427273Y-66246522D01*
X90180500Y-66246522D01*
X90180500Y-65708503D01*
X91428606Y-65708503D01*
X91428942Y-65722599D01*
X91436884Y-65726000D01*
X92437885Y-65726000D01*
X92453124Y-65721525D01*
X92454329Y-65720135D01*
X92456000Y-65712452D01*
X92456000Y-65707885D01*
X92964000Y-65707885D01*
X92968475Y-65723124D01*
X92969865Y-65724329D01*
X92977548Y-65726000D01*
X93977967Y-65726000D01*
X93991498Y-65722027D01*
X93992727Y-65713478D01*
X93945236Y-65536239D01*
X93941490Y-65525947D01*
X93849414Y-65328489D01*
X93843931Y-65318993D01*
X93718972Y-65140533D01*
X93711916Y-65132125D01*
X93557875Y-64978084D01*
X93549467Y-64971028D01*
X93371007Y-64846069D01*
X93361511Y-64840586D01*
X93164053Y-64748510D01*
X93153761Y-64744764D01*
X92981497Y-64698606D01*
X92967401Y-64698942D01*
X92964000Y-64706884D01*
X92964000Y-65707885D01*
X92456000Y-65707885D01*
X92456000Y-64712033D01*
X92452027Y-64698502D01*
X92443478Y-64697273D01*
X92266239Y-64744764D01*
X92255947Y-64748510D01*
X92058489Y-64840586D01*
X92048993Y-64846069D01*
X91870533Y-64971028D01*
X91862125Y-64978084D01*
X91708084Y-65132125D01*
X91701028Y-65140533D01*
X91576069Y-65318993D01*
X91570586Y-65328489D01*
X91478510Y-65525947D01*
X91474764Y-65536239D01*
X91428606Y-65708503D01*
X90180500Y-65708503D01*
X90180500Y-58480000D01*
X91777391Y-58480000D01*
X91797771Y-58673900D01*
X91858019Y-58859326D01*
X91955503Y-59028174D01*
X91959921Y-59033081D01*
X91959922Y-59033082D01*
X92072840Y-59158489D01*
X92085963Y-59173064D01*
X92243695Y-59287663D01*
X92249723Y-59290347D01*
X92249725Y-59290348D01*
X92262301Y-59295947D01*
X92421808Y-59366964D01*
X92517162Y-59387232D01*
X92606059Y-59406128D01*
X92606063Y-59406128D01*
X92612516Y-59407500D01*
X92807484Y-59407500D01*
X92813937Y-59406128D01*
X92813941Y-59406128D01*
X92902838Y-59387232D01*
X92998192Y-59366964D01*
X93157699Y-59295947D01*
X93170275Y-59290348D01*
X93170277Y-59290347D01*
X93176305Y-59287663D01*
X93334037Y-59173064D01*
X93347161Y-59158489D01*
X93460078Y-59033082D01*
X93460079Y-59033081D01*
X93464497Y-59028174D01*
X93561981Y-58859326D01*
X93594883Y-58758064D01*
X93634956Y-58699458D01*
X93700353Y-58671821D01*
X93714716Y-58671000D01*
X93908695Y-58671000D01*
X93976816Y-58691002D01*
X93997790Y-58707905D01*
X97562095Y-62272210D01*
X97596121Y-62334522D01*
X97599000Y-62361305D01*
X97599000Y-63466491D01*
X97598937Y-63467603D01*
X97595348Y-63477822D01*
X97596917Y-63491923D01*
X97596917Y-63491925D01*
X97598227Y-63503693D01*
X97598653Y-63511381D01*
X97599000Y-63514462D01*
X97599000Y-63521533D01*
X97600573Y-63528430D01*
X97600984Y-63532079D01*
X97602158Y-63539014D01*
X97604986Y-63564429D01*
X97610962Y-63573975D01*
X97613468Y-63584959D01*
X97622309Y-63596053D01*
X97622309Y-63596054D01*
X97629400Y-63604952D01*
X97633629Y-63610926D01*
X97635814Y-63613671D01*
X97639596Y-63619711D01*
X97644639Y-63624754D01*
X97646698Y-63627340D01*
X97651715Y-63632955D01*
X97667775Y-63653109D01*
X97677662Y-63657878D01*
X97678616Y-63658731D01*
X101441243Y-67421358D01*
X101441990Y-67422195D01*
X101446678Y-67431958D01*
X101457758Y-67440819D01*
X101457759Y-67440820D01*
X101467015Y-67448222D01*
X101472739Y-67453345D01*
X101475165Y-67455280D01*
X101480169Y-67460284D01*
X101486158Y-67464048D01*
X101489030Y-67466339D01*
X101494761Y-67470412D01*
X101503648Y-67477519D01*
X101503651Y-67477520D01*
X101514733Y-67486383D01*
X101525710Y-67488907D01*
X101535248Y-67494902D01*
X101560672Y-67497776D01*
X101567877Y-67499008D01*
X101571347Y-67499402D01*
X101578297Y-67501000D01*
X101585427Y-67501000D01*
X101588713Y-67501373D01*
X101596239Y-67501797D01*
X101621839Y-67504691D01*
X101632203Y-67501072D01*
X101633483Y-67501000D01*
X103135284Y-67501000D01*
X103203405Y-67521002D01*
X103249898Y-67574658D01*
X103255117Y-67588064D01*
X103277931Y-67658279D01*
X103288019Y-67689326D01*
X103385503Y-67858174D01*
X103389921Y-67863081D01*
X103389922Y-67863082D01*
X103461939Y-67943064D01*
X103515963Y-68003064D01*
X103673695Y-68117663D01*
X103679723Y-68120347D01*
X103679725Y-68120348D01*
X103808091Y-68177500D01*
X103851808Y-68196964D01*
X103947162Y-68217232D01*
X104036059Y-68236128D01*
X104036063Y-68236128D01*
X104042516Y-68237500D01*
X104237484Y-68237500D01*
X104243937Y-68236128D01*
X104243941Y-68236128D01*
X104332838Y-68217232D01*
X104428192Y-68196964D01*
X104474991Y-68176128D01*
X104576491Y-68130937D01*
X104646858Y-68121503D01*
X104711155Y-68151609D01*
X104716835Y-68156949D01*
X106051239Y-69491353D01*
X106051989Y-69492194D01*
X106056678Y-69501958D01*
X106067758Y-69510819D01*
X106067759Y-69510820D01*
X106077020Y-69518226D01*
X106082739Y-69523344D01*
X106085166Y-69525280D01*
X106090169Y-69530283D01*
X106096156Y-69534046D01*
X106099028Y-69536337D01*
X106104757Y-69540409D01*
X106113648Y-69547519D01*
X106113651Y-69547520D01*
X106124733Y-69556383D01*
X106135710Y-69558907D01*
X106145248Y-69564902D01*
X106159347Y-69566496D01*
X106159348Y-69566496D01*
X106170647Y-69567773D01*
X106177877Y-69569009D01*
X106181356Y-69569404D01*
X106188297Y-69571000D01*
X106195423Y-69571000D01*
X106198701Y-69571372D01*
X106206245Y-69571797D01*
X106231838Y-69574690D01*
X106242201Y-69571071D01*
X106243476Y-69571000D01*
X108223350Y-69571000D01*
X108291471Y-69591002D01*
X108319801Y-69615925D01*
X108383832Y-69692100D01*
X108392127Y-69701968D01*
X108494064Y-69769823D01*
X108610948Y-69806340D01*
X108733383Y-69808584D01*
X108751434Y-69803663D01*
X108842863Y-69778737D01*
X108851527Y-69776375D01*
X108955881Y-69712301D01*
X108969830Y-69696891D01*
X109032035Y-69628167D01*
X109038058Y-69621513D01*
X109091451Y-69511311D01*
X109093016Y-69502013D01*
X109110960Y-69395348D01*
X109111767Y-69390552D01*
X109111896Y-69380000D01*
X109101700Y-69308805D01*
X109095809Y-69267667D01*
X109095808Y-69267664D01*
X109094536Y-69258781D01*
X109043852Y-69147307D01*
X108980935Y-69074288D01*
X108969776Y-69061337D01*
X108969774Y-69061335D01*
X108963918Y-69054539D01*
X108861160Y-68987935D01*
X108743838Y-68952848D01*
X108734862Y-68952793D01*
X108734861Y-68952793D01*
X108684483Y-68952485D01*
X108621385Y-68952100D01*
X108503644Y-68985751D01*
X108496057Y-68990538D01*
X108496055Y-68990539D01*
X108471321Y-69006145D01*
X108400080Y-69051095D01*
X108394137Y-69057824D01*
X108379596Y-69074288D01*
X108319018Y-69142879D01*
X108317032Y-69141125D01*
X108273456Y-69178130D01*
X108222259Y-69189000D01*
X106341305Y-69189000D01*
X106273184Y-69168998D01*
X106252210Y-69152095D01*
X104986211Y-67886096D01*
X104952185Y-67823784D01*
X104957250Y-67752969D01*
X104966184Y-67734008D01*
X104991981Y-67689326D01*
X105041075Y-67538230D01*
X105050189Y-67510179D01*
X105050189Y-67510178D01*
X105052229Y-67503900D01*
X105058808Y-67441311D01*
X105071919Y-67316565D01*
X105072609Y-67310000D01*
X105052229Y-67116100D01*
X105038020Y-67072367D01*
X104994023Y-66936959D01*
X104991981Y-66930674D01*
X104977810Y-66906128D01*
X104897800Y-66767547D01*
X104894497Y-66761826D01*
X104840473Y-66701826D01*
X104768452Y-66621839D01*
X104768450Y-66621838D01*
X104764037Y-66616936D01*
X104751099Y-66607536D01*
X104611647Y-66506218D01*
X104611646Y-66506217D01*
X104606305Y-66502337D01*
X104600277Y-66499653D01*
X104600275Y-66499652D01*
X104434223Y-66425721D01*
X104434222Y-66425721D01*
X104428192Y-66423036D01*
X104332838Y-66402768D01*
X104243941Y-66383872D01*
X104243937Y-66383872D01*
X104237484Y-66382500D01*
X104042516Y-66382500D01*
X104036063Y-66383872D01*
X104036059Y-66383872D01*
X103947162Y-66402768D01*
X103851808Y-66423036D01*
X103845779Y-66425720D01*
X103845777Y-66425721D01*
X103679726Y-66499652D01*
X103679724Y-66499653D01*
X103673696Y-66502337D01*
X103668355Y-66506217D01*
X103668354Y-66506218D01*
X103638134Y-66528174D01*
X103515963Y-66616936D01*
X103511550Y-66621838D01*
X103511548Y-66621839D01*
X103439527Y-66701826D01*
X103385503Y-66761826D01*
X103382200Y-66767547D01*
X103302191Y-66906128D01*
X103288019Y-66930674D01*
X103285977Y-66936959D01*
X103255117Y-67031936D01*
X103215044Y-67090542D01*
X103149647Y-67118179D01*
X103135284Y-67119000D01*
X101731305Y-67119000D01*
X101663184Y-67098998D01*
X101642210Y-67082095D01*
X98017905Y-63457790D01*
X97983879Y-63395478D01*
X97981000Y-63368695D01*
X97981000Y-62263510D01*
X97981063Y-62262397D01*
X97984652Y-62252178D01*
X97981773Y-62226304D01*
X97981346Y-62218607D01*
X97981000Y-62215535D01*
X97981000Y-62208467D01*
X97979428Y-62201576D01*
X97979017Y-62197926D01*
X97977843Y-62190985D01*
X97976584Y-62179673D01*
X97975015Y-62165571D01*
X97969037Y-62156023D01*
X97966532Y-62145041D01*
X97950602Y-62125050D01*
X97946359Y-62119058D01*
X97944184Y-62116326D01*
X97940404Y-62110289D01*
X97935364Y-62105249D01*
X97933305Y-62102663D01*
X97928285Y-62097045D01*
X97912225Y-62076891D01*
X97902338Y-62072122D01*
X97901384Y-62071269D01*
X95906637Y-60076522D01*
X102857273Y-60076522D01*
X102904764Y-60253761D01*
X102908510Y-60264053D01*
X103000586Y-60461511D01*
X103006069Y-60471007D01*
X103131028Y-60649467D01*
X103138084Y-60657875D01*
X103292125Y-60811916D01*
X103300533Y-60818972D01*
X103478993Y-60943931D01*
X103488489Y-60949414D01*
X103685947Y-61041490D01*
X103696239Y-61045236D01*
X103868503Y-61091394D01*
X103882599Y-61091058D01*
X103886000Y-61083116D01*
X103886000Y-61077967D01*
X104394000Y-61077967D01*
X104397973Y-61091498D01*
X104406522Y-61092727D01*
X104583761Y-61045236D01*
X104594053Y-61041490D01*
X104791511Y-60949414D01*
X104801007Y-60943931D01*
X104955060Y-60836062D01*
X108498493Y-60836062D01*
X108507789Y-60848077D01*
X108558994Y-60883931D01*
X108568489Y-60889414D01*
X108765947Y-60981490D01*
X108776239Y-60985236D01*
X108986688Y-61041625D01*
X108997481Y-61043528D01*
X109214525Y-61062517D01*
X109225475Y-61062517D01*
X109442519Y-61043528D01*
X109453312Y-61041625D01*
X109663761Y-60985236D01*
X109674053Y-60981490D01*
X109871511Y-60889414D01*
X109881006Y-60883931D01*
X109933048Y-60847491D01*
X109941424Y-60837012D01*
X109934356Y-60823566D01*
X109232812Y-60122022D01*
X109218868Y-60114408D01*
X109217035Y-60114539D01*
X109210420Y-60118790D01*
X108504923Y-60824287D01*
X108498493Y-60836062D01*
X104955060Y-60836062D01*
X104979467Y-60818972D01*
X104987875Y-60811916D01*
X105141916Y-60657875D01*
X105148972Y-60649467D01*
X105273931Y-60471007D01*
X105279414Y-60461511D01*
X105371490Y-60264053D01*
X105375236Y-60253761D01*
X105421394Y-60081497D01*
X105421058Y-60067401D01*
X105413116Y-60064000D01*
X104412115Y-60064000D01*
X104396876Y-60068475D01*
X104395671Y-60069865D01*
X104394000Y-60077548D01*
X104394000Y-61077967D01*
X103886000Y-61077967D01*
X103886000Y-60082115D01*
X103881525Y-60066876D01*
X103880135Y-60065671D01*
X103872452Y-60064000D01*
X102872033Y-60064000D01*
X102858502Y-60067973D01*
X102857273Y-60076522D01*
X95906637Y-60076522D01*
X95585590Y-59755475D01*
X107907483Y-59755475D01*
X107926472Y-59972519D01*
X107928375Y-59983312D01*
X107984764Y-60193761D01*
X107988510Y-60204053D01*
X108080586Y-60401511D01*
X108086069Y-60411006D01*
X108122509Y-60463048D01*
X108132988Y-60471424D01*
X108146434Y-60464356D01*
X108847978Y-59762812D01*
X108854356Y-59751132D01*
X109584408Y-59751132D01*
X109584539Y-59752965D01*
X109588790Y-59759580D01*
X110294287Y-60465077D01*
X110306062Y-60471507D01*
X110318077Y-60462211D01*
X110353931Y-60411006D01*
X110359414Y-60401511D01*
X110451490Y-60204053D01*
X110455236Y-60193761D01*
X110502727Y-60016522D01*
X118097273Y-60016522D01*
X118144764Y-60193761D01*
X118148510Y-60204053D01*
X118240586Y-60401511D01*
X118246069Y-60411007D01*
X118371028Y-60589467D01*
X118378084Y-60597875D01*
X118532125Y-60751916D01*
X118540533Y-60758972D01*
X118718993Y-60883931D01*
X118728489Y-60889414D01*
X118925947Y-60981490D01*
X118936239Y-60985236D01*
X119108503Y-61031394D01*
X119122599Y-61031058D01*
X119126000Y-61023116D01*
X119126000Y-61017967D01*
X119634000Y-61017967D01*
X119637973Y-61031498D01*
X119646522Y-61032727D01*
X119823761Y-60985236D01*
X119834053Y-60981490D01*
X120031511Y-60889414D01*
X120041007Y-60883931D01*
X120219467Y-60758972D01*
X120227875Y-60751916D01*
X120381916Y-60597875D01*
X120388972Y-60589467D01*
X120513931Y-60411007D01*
X120519414Y-60401511D01*
X120611490Y-60204053D01*
X120615236Y-60193761D01*
X120661394Y-60021497D01*
X120661058Y-60007401D01*
X120653116Y-60004000D01*
X119652115Y-60004000D01*
X119636876Y-60008475D01*
X119635671Y-60009865D01*
X119634000Y-60017548D01*
X119634000Y-61017967D01*
X119126000Y-61017967D01*
X119126000Y-60022115D01*
X119121525Y-60006876D01*
X119120135Y-60005671D01*
X119112452Y-60004000D01*
X118112033Y-60004000D01*
X118098502Y-60007973D01*
X118097273Y-60016522D01*
X110502727Y-60016522D01*
X110511625Y-59983312D01*
X110513528Y-59972519D01*
X110532517Y-59755475D01*
X110532517Y-59744525D01*
X110516903Y-59566062D01*
X113578493Y-59566062D01*
X113587789Y-59578077D01*
X113638994Y-59613931D01*
X113648489Y-59619414D01*
X113845947Y-59711490D01*
X113856239Y-59715236D01*
X114066688Y-59771625D01*
X114077481Y-59773528D01*
X114294525Y-59792517D01*
X114305475Y-59792517D01*
X114522519Y-59773528D01*
X114533312Y-59771625D01*
X114743761Y-59715236D01*
X114754053Y-59711490D01*
X114951511Y-59619414D01*
X114961006Y-59613931D01*
X115013048Y-59577491D01*
X115021424Y-59567012D01*
X115014356Y-59553566D01*
X114939293Y-59478503D01*
X118098606Y-59478503D01*
X118098942Y-59492599D01*
X118106884Y-59496000D01*
X119107885Y-59496000D01*
X119123124Y-59491525D01*
X119124329Y-59490135D01*
X119126000Y-59482452D01*
X119126000Y-59477885D01*
X119634000Y-59477885D01*
X119638475Y-59493124D01*
X119639865Y-59494329D01*
X119647548Y-59496000D01*
X120647967Y-59496000D01*
X120661498Y-59492027D01*
X120662727Y-59483478D01*
X120615236Y-59306239D01*
X120611490Y-59295947D01*
X120519414Y-59098489D01*
X120513931Y-59088993D01*
X120388972Y-58910533D01*
X120381916Y-58902125D01*
X120227875Y-58748084D01*
X120219467Y-58741028D01*
X120041007Y-58616069D01*
X120031511Y-58610586D01*
X119834053Y-58518510D01*
X119823761Y-58514764D01*
X119651497Y-58468606D01*
X119637401Y-58468942D01*
X119634000Y-58476884D01*
X119634000Y-59477885D01*
X119126000Y-59477885D01*
X119126000Y-58482033D01*
X119122027Y-58468502D01*
X119113478Y-58467273D01*
X118936239Y-58514764D01*
X118925947Y-58518510D01*
X118728489Y-58610586D01*
X118718993Y-58616069D01*
X118540533Y-58741028D01*
X118532125Y-58748084D01*
X118378084Y-58902125D01*
X118371028Y-58910533D01*
X118246069Y-59088993D01*
X118240586Y-59098489D01*
X118148510Y-59295947D01*
X118144764Y-59306239D01*
X118098606Y-59478503D01*
X114939293Y-59478503D01*
X114312812Y-58852022D01*
X114298868Y-58844408D01*
X114297035Y-58844539D01*
X114290420Y-58848790D01*
X113584923Y-59554287D01*
X113578493Y-59566062D01*
X110516903Y-59566062D01*
X110513528Y-59527481D01*
X110511625Y-59516688D01*
X110455236Y-59306239D01*
X110451490Y-59295947D01*
X110359414Y-59098489D01*
X110353931Y-59088994D01*
X110317491Y-59036952D01*
X110307012Y-59028576D01*
X110293566Y-59035644D01*
X109592022Y-59737188D01*
X109584408Y-59751132D01*
X108854356Y-59751132D01*
X108855592Y-59748868D01*
X108855461Y-59747035D01*
X108851210Y-59740420D01*
X108145713Y-59034923D01*
X108133938Y-59028493D01*
X108121923Y-59037789D01*
X108086069Y-59088994D01*
X108080586Y-59098489D01*
X107988510Y-59295947D01*
X107984764Y-59306239D01*
X107928375Y-59516688D01*
X107926472Y-59527481D01*
X107907483Y-59744525D01*
X107907483Y-59755475D01*
X95585590Y-59755475D01*
X95368618Y-59538503D01*
X102858606Y-59538503D01*
X102858942Y-59552599D01*
X102866884Y-59556000D01*
X103867885Y-59556000D01*
X103883124Y-59551525D01*
X103884329Y-59550135D01*
X103886000Y-59542452D01*
X103886000Y-59537885D01*
X104394000Y-59537885D01*
X104398475Y-59553124D01*
X104399865Y-59554329D01*
X104407548Y-59556000D01*
X105407967Y-59556000D01*
X105421498Y-59552027D01*
X105422727Y-59543478D01*
X105375236Y-59366239D01*
X105371490Y-59355947D01*
X105279414Y-59158489D01*
X105273931Y-59148993D01*
X105148972Y-58970533D01*
X105141916Y-58962125D01*
X104987875Y-58808084D01*
X104979467Y-58801028D01*
X104801007Y-58676069D01*
X104791511Y-58670586D01*
X104775217Y-58662988D01*
X108498576Y-58662988D01*
X108505644Y-58676434D01*
X109207188Y-59377978D01*
X109221132Y-59385592D01*
X109222965Y-59385461D01*
X109229580Y-59381210D01*
X109935077Y-58675713D01*
X109941507Y-58663938D01*
X109932211Y-58651923D01*
X109881006Y-58616069D01*
X109871511Y-58610586D01*
X109674053Y-58518510D01*
X109663761Y-58514764D01*
X109554452Y-58485475D01*
X112987483Y-58485475D01*
X113006472Y-58702519D01*
X113008375Y-58713312D01*
X113064764Y-58923761D01*
X113068510Y-58934053D01*
X113160586Y-59131511D01*
X113166069Y-59141006D01*
X113202509Y-59193048D01*
X113212988Y-59201424D01*
X113226434Y-59194356D01*
X113927978Y-58492812D01*
X113934356Y-58481132D01*
X114664408Y-58481132D01*
X114664539Y-58482965D01*
X114668790Y-58489580D01*
X115374287Y-59195077D01*
X115386062Y-59201507D01*
X115398077Y-59192211D01*
X115433931Y-59141006D01*
X115439414Y-59131511D01*
X115531490Y-58934053D01*
X115535236Y-58923761D01*
X115591625Y-58713312D01*
X115593528Y-58702519D01*
X115612517Y-58485475D01*
X115612517Y-58474525D01*
X115593528Y-58257481D01*
X115591625Y-58246688D01*
X115535236Y-58036239D01*
X115531490Y-58025947D01*
X115439414Y-57828489D01*
X115433931Y-57818994D01*
X115397491Y-57766952D01*
X115387012Y-57758576D01*
X115373566Y-57765644D01*
X114672022Y-58467188D01*
X114664408Y-58481132D01*
X113934356Y-58481132D01*
X113935592Y-58478868D01*
X113935461Y-58477035D01*
X113931210Y-58470420D01*
X113225713Y-57764923D01*
X113213938Y-57758493D01*
X113201923Y-57767789D01*
X113166069Y-57818994D01*
X113160586Y-57828489D01*
X113068510Y-58025947D01*
X113064764Y-58036239D01*
X113008375Y-58246688D01*
X113006472Y-58257481D01*
X112987483Y-58474525D01*
X112987483Y-58485475D01*
X109554452Y-58485475D01*
X109453312Y-58458375D01*
X109442519Y-58456472D01*
X109225475Y-58437483D01*
X109214525Y-58437483D01*
X108997481Y-58456472D01*
X108986688Y-58458375D01*
X108776239Y-58514764D01*
X108765947Y-58518510D01*
X108568489Y-58610586D01*
X108558994Y-58616069D01*
X108506952Y-58652509D01*
X108498576Y-58662988D01*
X104775217Y-58662988D01*
X104594053Y-58578510D01*
X104583761Y-58574764D01*
X104411497Y-58528606D01*
X104397401Y-58528942D01*
X104394000Y-58536884D01*
X104394000Y-59537885D01*
X103886000Y-59537885D01*
X103886000Y-58542033D01*
X103882027Y-58528502D01*
X103873478Y-58527273D01*
X103696239Y-58574764D01*
X103685947Y-58578510D01*
X103488489Y-58670586D01*
X103478993Y-58676069D01*
X103300533Y-58801028D01*
X103292125Y-58808084D01*
X103138084Y-58962125D01*
X103131028Y-58970533D01*
X103006069Y-59148993D01*
X103000586Y-59158489D01*
X102908510Y-59355947D01*
X102904764Y-59366239D01*
X102858606Y-59538503D01*
X95368618Y-59538503D01*
X94198757Y-58368642D01*
X94198010Y-58367805D01*
X94193322Y-58358042D01*
X94172985Y-58341778D01*
X94167261Y-58336655D01*
X94164835Y-58334720D01*
X94159831Y-58329716D01*
X94153842Y-58325952D01*
X94150970Y-58323661D01*
X94145239Y-58319588D01*
X94136352Y-58312481D01*
X94136349Y-58312480D01*
X94125267Y-58303617D01*
X94114290Y-58301093D01*
X94104752Y-58295098D01*
X94079333Y-58292224D01*
X94072118Y-58290991D01*
X94068648Y-58290597D01*
X94061703Y-58289000D01*
X94054579Y-58289000D01*
X94051293Y-58288627D01*
X94043752Y-58288202D01*
X94032263Y-58286903D01*
X94032262Y-58286903D01*
X94018162Y-58285309D01*
X94007797Y-58288929D01*
X94006523Y-58289000D01*
X93714716Y-58289000D01*
X93646595Y-58268998D01*
X93600102Y-58215342D01*
X93594883Y-58201936D01*
X93566828Y-58115592D01*
X93561981Y-58100674D01*
X93464497Y-57931826D01*
X93371452Y-57828489D01*
X93338452Y-57791839D01*
X93338450Y-57791838D01*
X93334037Y-57786936D01*
X93176305Y-57672337D01*
X93170277Y-57669653D01*
X93170275Y-57669652D01*
X93004223Y-57595721D01*
X93004222Y-57595721D01*
X92998192Y-57593036D01*
X92902838Y-57572768D01*
X92813941Y-57553872D01*
X92813937Y-57553872D01*
X92807484Y-57552500D01*
X92612516Y-57552500D01*
X92606063Y-57553872D01*
X92606059Y-57553872D01*
X92517162Y-57572768D01*
X92421808Y-57593036D01*
X92415779Y-57595720D01*
X92415777Y-57595721D01*
X92249726Y-57669652D01*
X92249724Y-57669653D01*
X92243696Y-57672337D01*
X92085963Y-57786936D01*
X92081550Y-57791838D01*
X92081548Y-57791839D01*
X92048548Y-57828489D01*
X91955503Y-57931826D01*
X91858019Y-58100674D01*
X91797771Y-58286100D01*
X91797081Y-58292663D01*
X91797081Y-58292664D01*
X91778589Y-58468606D01*
X91777391Y-58480000D01*
X90180500Y-58480000D01*
X90180500Y-57392988D01*
X113578576Y-57392988D01*
X113585644Y-57406434D01*
X114287188Y-58107978D01*
X114301132Y-58115592D01*
X114302965Y-58115461D01*
X114309580Y-58111210D01*
X115015077Y-57405713D01*
X115021507Y-57393938D01*
X115012211Y-57381923D01*
X114961006Y-57346069D01*
X114951511Y-57340586D01*
X114754053Y-57248510D01*
X114743761Y-57244764D01*
X114533312Y-57188375D01*
X114522519Y-57186472D01*
X114305475Y-57167483D01*
X114294525Y-57167483D01*
X114077481Y-57186472D01*
X114066688Y-57188375D01*
X113856239Y-57244764D01*
X113845947Y-57248510D01*
X113648489Y-57340586D01*
X113638994Y-57346069D01*
X113586952Y-57382509D01*
X113578576Y-57392988D01*
X90180500Y-57392988D01*
X90180500Y-56016500D01*
X90200502Y-55948379D01*
X90254158Y-55901886D01*
X90306500Y-55890500D01*
X129403500Y-55890500D01*
X129471621Y-55910502D01*
G37*
G04 #@! TD.AperFunction*
M02*
