%FSLAX45Y45*%
G04 Gerber Fmt 4.5, Leading zero omitted, Abs format (unit mm)*
G04 Created by KiCad (PCBNEW (6.0.6)) date 2022-07-04 23:45:55*
%MOMM*%
%LPD*%
G01*
G04 APERTURE LIST*
%TA.AperFunction,Profile*%
%ADD10C,0.254000*%
%TD*%
%ADD11C,0.200000*%
%ADD12C,0.220000*%
G04 APERTURE END LIST*
D10*
X9000000Y-6700000D02*
X13000000Y-6700000D01*
X13000000Y-6700000D02*
X13000000Y-15100000D01*
X13000000Y-15100000D02*
X9000000Y-15100000D01*
X9000000Y-15100000D02*
X9000000Y-6700000D01*
D11*
D12*
X9140000Y-7140000D02*
X9360000Y-7360000D01*
X9360000Y-7140000D02*
X9140000Y-7360000D01*
X9140000Y-14640000D02*
X9360000Y-14860000D01*
X9360000Y-14640000D02*
X9140000Y-14860000D01*
X12640000Y-7140000D02*
X12860000Y-7360000D01*
X12860000Y-7140000D02*
X12640000Y-7360000D01*
X12640000Y-14640000D02*
X12860000Y-14860000D01*
X12860000Y-14640000D02*
X12640000Y-14860000D01*
D11*
X9244919Y-15423176D02*
X9244919Y-15223176D01*
X9292538Y-15223176D01*
X9321110Y-15232700D01*
X9340157Y-15251748D01*
X9349681Y-15270795D01*
X9359205Y-15308890D01*
X9359205Y-15337462D01*
X9349681Y-15375557D01*
X9340157Y-15394605D01*
X9321110Y-15413652D01*
X9292538Y-15423176D01*
X9244919Y-15423176D01*
X9444919Y-15423176D02*
X9444919Y-15289843D01*
X9444919Y-15327938D02*
X9454443Y-15308890D01*
X9463967Y-15299367D01*
X9483014Y-15289843D01*
X9502062Y-15289843D01*
X9568729Y-15423176D02*
X9568729Y-15289843D01*
X9568729Y-15223176D02*
X9559205Y-15232700D01*
X9568729Y-15242224D01*
X9578252Y-15232700D01*
X9568729Y-15223176D01*
X9568729Y-15242224D01*
X9692538Y-15423176D02*
X9673490Y-15413652D01*
X9663967Y-15394605D01*
X9663967Y-15223176D01*
X9797300Y-15423176D02*
X9778252Y-15413652D01*
X9768729Y-15394605D01*
X9768729Y-15223176D01*
X10025871Y-15423176D02*
X10025871Y-15223176D01*
X10092538Y-15366033D01*
X10159205Y-15223176D01*
X10159205Y-15423176D01*
X10340157Y-15423176D02*
X10340157Y-15318414D01*
X10330633Y-15299367D01*
X10311586Y-15289843D01*
X10273490Y-15289843D01*
X10254443Y-15299367D01*
X10340157Y-15413652D02*
X10321110Y-15423176D01*
X10273490Y-15423176D01*
X10254443Y-15413652D01*
X10244919Y-15394605D01*
X10244919Y-15375557D01*
X10254443Y-15356509D01*
X10273490Y-15346986D01*
X10321110Y-15346986D01*
X10340157Y-15337462D01*
X10435395Y-15289843D02*
X10435395Y-15489843D01*
X10435395Y-15299367D02*
X10454443Y-15289843D01*
X10492538Y-15289843D01*
X10511586Y-15299367D01*
X10521110Y-15308890D01*
X10530633Y-15327938D01*
X10530633Y-15385081D01*
X10521110Y-15404128D01*
X10511586Y-15413652D01*
X10492538Y-15423176D01*
X10454443Y-15423176D01*
X10435395Y-15413652D01*
X10616348Y-15404128D02*
X10625871Y-15413652D01*
X10616348Y-15423176D01*
X10606824Y-15413652D01*
X10616348Y-15404128D01*
X10616348Y-15423176D01*
X10616348Y-15299367D02*
X10625871Y-15308890D01*
X10616348Y-15318414D01*
X10606824Y-15308890D01*
X10616348Y-15299367D01*
X10616348Y-15318414D01*
X8787300Y-15652700D02*
X8987300Y-15852700D01*
X8987300Y-15652700D02*
X8787300Y-15852700D01*
X9235395Y-15662224D02*
X9244919Y-15652700D01*
X9263967Y-15643176D01*
X9311586Y-15643176D01*
X9330633Y-15652700D01*
X9340157Y-15662224D01*
X9349681Y-15681271D01*
X9349681Y-15700319D01*
X9340157Y-15728890D01*
X9225871Y-15843176D01*
X9349681Y-15843176D01*
X9435395Y-15824128D02*
X9444919Y-15833652D01*
X9435395Y-15843176D01*
X9425871Y-15833652D01*
X9435395Y-15824128D01*
X9435395Y-15843176D01*
X9521110Y-15662224D02*
X9530633Y-15652700D01*
X9549681Y-15643176D01*
X9597300Y-15643176D01*
X9616348Y-15652700D01*
X9625871Y-15662224D01*
X9635395Y-15681271D01*
X9635395Y-15700319D01*
X9625871Y-15728890D01*
X9511586Y-15843176D01*
X9635395Y-15843176D01*
X9759205Y-15643176D02*
X9778252Y-15643176D01*
X9797300Y-15652700D01*
X9806824Y-15662224D01*
X9816348Y-15681271D01*
X9825871Y-15719367D01*
X9825871Y-15766986D01*
X9816348Y-15805081D01*
X9806824Y-15824128D01*
X9797300Y-15833652D01*
X9778252Y-15843176D01*
X9759205Y-15843176D01*
X9740157Y-15833652D01*
X9730633Y-15824128D01*
X9721110Y-15805081D01*
X9711586Y-15766986D01*
X9711586Y-15719367D01*
X9721110Y-15681271D01*
X9730633Y-15662224D01*
X9740157Y-15652700D01*
X9759205Y-15643176D01*
X9949681Y-15643176D02*
X9968729Y-15643176D01*
X9987776Y-15652700D01*
X9997300Y-15662224D01*
X10006824Y-15681271D01*
X10016348Y-15719367D01*
X10016348Y-15766986D01*
X10006824Y-15805081D01*
X9997300Y-15824128D01*
X9987776Y-15833652D01*
X9968729Y-15843176D01*
X9949681Y-15843176D01*
X9930633Y-15833652D01*
X9921110Y-15824128D01*
X9911586Y-15805081D01*
X9902062Y-15766986D01*
X9902062Y-15719367D01*
X9911586Y-15681271D01*
X9921110Y-15662224D01*
X9930633Y-15652700D01*
X9949681Y-15643176D01*
X10102062Y-15843176D02*
X10102062Y-15709843D01*
X10102062Y-15728890D02*
X10111586Y-15719367D01*
X10130633Y-15709843D01*
X10159205Y-15709843D01*
X10178252Y-15719367D01*
X10187776Y-15738414D01*
X10187776Y-15843176D01*
X10187776Y-15738414D02*
X10197300Y-15719367D01*
X10216348Y-15709843D01*
X10244919Y-15709843D01*
X10263967Y-15719367D01*
X10273490Y-15738414D01*
X10273490Y-15843176D01*
X10368729Y-15843176D02*
X10368729Y-15709843D01*
X10368729Y-15728890D02*
X10378252Y-15719367D01*
X10397300Y-15709843D01*
X10425871Y-15709843D01*
X10444919Y-15719367D01*
X10454443Y-15738414D01*
X10454443Y-15843176D01*
X10454443Y-15738414D02*
X10463967Y-15719367D01*
X10483014Y-15709843D01*
X10511586Y-15709843D01*
X10530633Y-15719367D01*
X10540157Y-15738414D01*
X10540157Y-15843176D01*
X10930633Y-15633652D02*
X10759205Y-15890795D01*
X11187776Y-15643176D02*
X11206824Y-15643176D01*
X11225871Y-15652700D01*
X11235395Y-15662224D01*
X11244919Y-15681271D01*
X11254443Y-15719367D01*
X11254443Y-15766986D01*
X11244919Y-15805081D01*
X11235395Y-15824128D01*
X11225871Y-15833652D01*
X11206824Y-15843176D01*
X11187776Y-15843176D01*
X11168729Y-15833652D01*
X11159205Y-15824128D01*
X11149681Y-15805081D01*
X11140157Y-15766986D01*
X11140157Y-15719367D01*
X11149681Y-15681271D01*
X11159205Y-15662224D01*
X11168729Y-15652700D01*
X11187776Y-15643176D01*
X11340157Y-15824128D02*
X11349681Y-15833652D01*
X11340157Y-15843176D01*
X11330633Y-15833652D01*
X11340157Y-15824128D01*
X11340157Y-15843176D01*
X11473490Y-15643176D02*
X11492538Y-15643176D01*
X11511586Y-15652700D01*
X11521109Y-15662224D01*
X11530633Y-15681271D01*
X11540157Y-15719367D01*
X11540157Y-15766986D01*
X11530633Y-15805081D01*
X11521109Y-15824128D01*
X11511586Y-15833652D01*
X11492538Y-15843176D01*
X11473490Y-15843176D01*
X11454443Y-15833652D01*
X11444919Y-15824128D01*
X11435395Y-15805081D01*
X11425871Y-15766986D01*
X11425871Y-15719367D01*
X11435395Y-15681271D01*
X11444919Y-15662224D01*
X11454443Y-15652700D01*
X11473490Y-15643176D01*
X11654443Y-15728890D02*
X11635395Y-15719367D01*
X11625871Y-15709843D01*
X11616348Y-15690795D01*
X11616348Y-15681271D01*
X11625871Y-15662224D01*
X11635395Y-15652700D01*
X11654443Y-15643176D01*
X11692538Y-15643176D01*
X11711586Y-15652700D01*
X11721109Y-15662224D01*
X11730633Y-15681271D01*
X11730633Y-15690795D01*
X11721109Y-15709843D01*
X11711586Y-15719367D01*
X11692538Y-15728890D01*
X11654443Y-15728890D01*
X11635395Y-15738414D01*
X11625871Y-15747938D01*
X11616348Y-15766986D01*
X11616348Y-15805081D01*
X11625871Y-15824128D01*
X11635395Y-15833652D01*
X11654443Y-15843176D01*
X11692538Y-15843176D01*
X11711586Y-15833652D01*
X11721109Y-15824128D01*
X11730633Y-15805081D01*
X11730633Y-15766986D01*
X11721109Y-15747938D01*
X11711586Y-15738414D01*
X11692538Y-15728890D01*
X11902062Y-15643176D02*
X11863967Y-15643176D01*
X11844919Y-15652700D01*
X11835395Y-15662224D01*
X11816348Y-15690795D01*
X11806824Y-15728890D01*
X11806824Y-15805081D01*
X11816348Y-15824128D01*
X11825871Y-15833652D01*
X11844919Y-15843176D01*
X11883014Y-15843176D01*
X11902062Y-15833652D01*
X11911586Y-15824128D01*
X11921109Y-15805081D01*
X11921109Y-15757462D01*
X11911586Y-15738414D01*
X11902062Y-15728890D01*
X11883014Y-15719367D01*
X11844919Y-15719367D01*
X11825871Y-15728890D01*
X11816348Y-15738414D01*
X11806824Y-15757462D01*
X12092538Y-15643176D02*
X12054443Y-15643176D01*
X12035395Y-15652700D01*
X12025871Y-15662224D01*
X12006824Y-15690795D01*
X11997300Y-15728890D01*
X11997300Y-15805081D01*
X12006824Y-15824128D01*
X12016348Y-15833652D01*
X12035395Y-15843176D01*
X12073490Y-15843176D01*
X12092538Y-15833652D01*
X12102062Y-15824128D01*
X12111586Y-15805081D01*
X12111586Y-15757462D01*
X12102062Y-15738414D01*
X12092538Y-15728890D01*
X12073490Y-15719367D01*
X12035395Y-15719367D01*
X12016348Y-15728890D01*
X12006824Y-15738414D01*
X11997300Y-15757462D01*
X12187776Y-15643176D02*
X12187776Y-15681271D01*
X12263967Y-15643176D02*
X12263967Y-15681271D01*
X12559205Y-15919367D02*
X12549681Y-15909843D01*
X12530633Y-15881271D01*
X12521109Y-15862224D01*
X12511586Y-15833652D01*
X12502062Y-15786033D01*
X12502062Y-15747938D01*
X12511586Y-15700319D01*
X12521109Y-15671748D01*
X12530633Y-15652700D01*
X12549681Y-15624128D01*
X12559205Y-15614605D01*
X12721109Y-15709843D02*
X12721109Y-15843176D01*
X12673490Y-15633652D02*
X12625871Y-15776509D01*
X12749681Y-15776509D01*
X12978252Y-15843176D02*
X12978252Y-15643176D01*
X13063967Y-15843176D02*
X13063967Y-15738414D01*
X13054443Y-15719367D01*
X13035395Y-15709843D01*
X13006824Y-15709843D01*
X12987776Y-15719367D01*
X12978252Y-15728890D01*
X13187776Y-15843176D02*
X13168728Y-15833652D01*
X13159205Y-15824128D01*
X13149681Y-15805081D01*
X13149681Y-15747938D01*
X13159205Y-15728890D01*
X13168728Y-15719367D01*
X13187776Y-15709843D01*
X13216348Y-15709843D01*
X13235395Y-15719367D01*
X13244919Y-15728890D01*
X13254443Y-15747938D01*
X13254443Y-15805081D01*
X13244919Y-15824128D01*
X13235395Y-15833652D01*
X13216348Y-15843176D01*
X13187776Y-15843176D01*
X13368728Y-15843176D02*
X13349681Y-15833652D01*
X13340157Y-15814605D01*
X13340157Y-15643176D01*
X13521109Y-15833652D02*
X13502062Y-15843176D01*
X13463967Y-15843176D01*
X13444919Y-15833652D01*
X13435395Y-15814605D01*
X13435395Y-15738414D01*
X13444919Y-15719367D01*
X13463967Y-15709843D01*
X13502062Y-15709843D01*
X13521109Y-15719367D01*
X13530633Y-15738414D01*
X13530633Y-15757462D01*
X13435395Y-15776509D01*
X13606824Y-15833652D02*
X13625871Y-15843176D01*
X13663967Y-15843176D01*
X13683014Y-15833652D01*
X13692538Y-15814605D01*
X13692538Y-15805081D01*
X13683014Y-15786033D01*
X13663967Y-15776509D01*
X13635395Y-15776509D01*
X13616348Y-15766986D01*
X13606824Y-15747938D01*
X13606824Y-15738414D01*
X13616348Y-15719367D01*
X13635395Y-15709843D01*
X13663967Y-15709843D01*
X13683014Y-15719367D01*
X13759205Y-15919367D02*
X13768728Y-15909843D01*
X13787776Y-15881271D01*
X13797300Y-15862224D01*
X13806824Y-15833652D01*
X13816348Y-15786033D01*
X13816348Y-15747938D01*
X13806824Y-15700319D01*
X13797300Y-15671748D01*
X13787776Y-15652700D01*
X13768728Y-15624128D01*
X13759205Y-15614605D01*
X14121109Y-15919367D02*
X14111586Y-15909843D01*
X14092538Y-15881271D01*
X14083014Y-15862224D01*
X14073490Y-15833652D01*
X14063967Y-15786033D01*
X14063967Y-15747938D01*
X14073490Y-15700319D01*
X14083014Y-15671748D01*
X14092538Y-15652700D01*
X14111586Y-15624128D01*
X14121109Y-15614605D01*
X14197300Y-15709843D02*
X14197300Y-15843176D01*
X14197300Y-15728890D02*
X14206824Y-15719367D01*
X14225871Y-15709843D01*
X14254443Y-15709843D01*
X14273490Y-15719367D01*
X14283014Y-15738414D01*
X14283014Y-15843176D01*
X14406824Y-15843176D02*
X14387776Y-15833652D01*
X14378252Y-15824128D01*
X14368728Y-15805081D01*
X14368728Y-15747938D01*
X14378252Y-15728890D01*
X14387776Y-15719367D01*
X14406824Y-15709843D01*
X14435395Y-15709843D01*
X14454443Y-15719367D01*
X14463967Y-15728890D01*
X14473490Y-15747938D01*
X14473490Y-15805081D01*
X14463967Y-15824128D01*
X14454443Y-15833652D01*
X14435395Y-15843176D01*
X14406824Y-15843176D01*
X14530633Y-15709843D02*
X14606824Y-15709843D01*
X14559205Y-15643176D02*
X14559205Y-15814605D01*
X14568728Y-15833652D01*
X14587776Y-15843176D01*
X14606824Y-15843176D01*
X14825871Y-15709843D02*
X14825871Y-15909843D01*
X14825871Y-15719367D02*
X14844919Y-15709843D01*
X14883014Y-15709843D01*
X14902062Y-15719367D01*
X14911586Y-15728890D01*
X14921109Y-15747938D01*
X14921109Y-15805081D01*
X14911586Y-15824128D01*
X14902062Y-15833652D01*
X14883014Y-15843176D01*
X14844919Y-15843176D01*
X14825871Y-15833652D01*
X15035395Y-15843176D02*
X15016348Y-15833652D01*
X15006824Y-15814605D01*
X15006824Y-15643176D01*
X15197300Y-15843176D02*
X15197300Y-15738414D01*
X15187776Y-15719367D01*
X15168728Y-15709843D01*
X15130633Y-15709843D01*
X15111586Y-15719367D01*
X15197300Y-15833652D02*
X15178252Y-15843176D01*
X15130633Y-15843176D01*
X15111586Y-15833652D01*
X15102062Y-15814605D01*
X15102062Y-15795557D01*
X15111586Y-15776509D01*
X15130633Y-15766986D01*
X15178252Y-15766986D01*
X15197300Y-15757462D01*
X15263967Y-15709843D02*
X15340157Y-15709843D01*
X15292538Y-15643176D02*
X15292538Y-15814605D01*
X15302062Y-15833652D01*
X15321109Y-15843176D01*
X15340157Y-15843176D01*
X15483014Y-15833652D02*
X15463967Y-15843176D01*
X15425871Y-15843176D01*
X15406824Y-15833652D01*
X15397300Y-15814605D01*
X15397300Y-15738414D01*
X15406824Y-15719367D01*
X15425871Y-15709843D01*
X15463967Y-15709843D01*
X15483014Y-15719367D01*
X15492538Y-15738414D01*
X15492538Y-15757462D01*
X15397300Y-15776509D01*
X15663967Y-15843176D02*
X15663967Y-15643176D01*
X15663967Y-15833652D02*
X15644919Y-15843176D01*
X15606824Y-15843176D01*
X15587776Y-15833652D01*
X15578252Y-15824128D01*
X15568728Y-15805081D01*
X15568728Y-15747938D01*
X15578252Y-15728890D01*
X15587776Y-15719367D01*
X15606824Y-15709843D01*
X15644919Y-15709843D01*
X15663967Y-15719367D01*
X15740157Y-15919367D02*
X15749681Y-15909843D01*
X15768728Y-15881271D01*
X15778252Y-15862224D01*
X15787776Y-15833652D01*
X15797300Y-15786033D01*
X15797300Y-15747938D01*
X15787776Y-15700319D01*
X15778252Y-15671748D01*
X15768728Y-15652700D01*
X15749681Y-15624128D01*
X15740157Y-15614605D01*
M02*
