M48
; DRILL file {KiCad (6.0.6)} date ma 04 jul 2022 23:32:57 CEST
; FORMAT={-:-/ absolute / metric / decimal}
; #@! TF.CreationDate,2022-07-04T23:32:57+02:00
; #@! TF.GenerationSoftware,Kicad,Pcbnew,(6.0.6)
; #@! TF.FileFunction,Plated,1,2,PTH
FMAT,2
METRIC
; #@! TA.AperFunction,Plated,PTH,ViaDrill
T1C0.300
; #@! TA.AperFunction,Plated,PTH,ViaDrill
T2C0.400
; #@! TA.AperFunction,Plated,PTH,ComponentDrill
T3C0.600
; #@! TA.AperFunction,Plated,PTH,ComponentDrill
T4C0.750
; #@! TA.AperFunction,Plated,PTH,ComponentDrill
T5C0.762
; #@! TA.AperFunction,Plated,PTH,ComponentDrill
T6C0.800
; #@! TA.AperFunction,Plated,PTH,ComponentDrill
T7C1.000
; #@! TA.AperFunction,Plated,PTH,ComponentDrill
T8C1.400
; #@! TA.AperFunction,Plated,PTH,ComponentDrill
T9C4.300
%
G90
G05
T1
X87.0Y-86.0
X110.0Y-133.0
X113.0Y-136.0
X120.0Y-154.0
X122.0Y-154.0
X128.0Y-117.2
X129.6Y-121.6
X135.0Y-145.0
X135.73Y-144.14
X136.0Y-143.0
X137.1Y-121.5
X140.0Y-125.1
X141.1Y-141.5
X141.6Y-126.4
X141.8Y-118.2
X142.9Y-118.1
X143.0Y-125.0
X144.4Y-121.1
X147.0Y-142.0
X147.9Y-131.0
T2
X82.55Y-87.63
X83.0Y-165.0
X83.82Y-91.44
X99.0Y-83.0
X99.06Y-78.74
X102.5Y-120.0
X132.5Y-122.5
T4
X106.68Y-92.71
X106.68Y-94.71
T5
X79.52Y-140.78
X82.06Y-140.78
X84.6Y-140.78
X87.14Y-140.78
X103.64Y-112.84
X103.64Y-140.78
X106.18Y-112.84
X106.18Y-140.78
X108.72Y-112.84
X108.72Y-140.78
X111.26Y-112.84
X111.26Y-140.78
X111.92Y-88.885
X111.92Y-99.085
X113.8Y-112.84
X113.8Y-140.78
X116.34Y-112.84
X116.34Y-140.78
X118.88Y-112.84
X118.88Y-140.78
X121.42Y-112.84
X121.42Y-140.78
X123.96Y-112.84
X123.96Y-140.78
X126.5Y-112.84
X126.5Y-140.78
X129.04Y-112.84
X129.04Y-140.78
X129.52Y-88.885
X129.52Y-99.085
X131.58Y-112.84
X131.58Y-140.78
X134.12Y-112.84
X134.12Y-140.78
X136.66Y-112.84
X136.66Y-140.78
X139.2Y-112.84
X139.2Y-140.78
T6
X80.0Y-155.19
X80.0Y-162.81
X85.09Y-105.41
X92.71Y-105.41
T7
X76.2Y-78.74
X76.2Y-81.28
X86.22Y-170.05
X87.925Y-147.595
X87.925Y-162.835
X88.76Y-170.05
X90.465Y-147.595
X90.465Y-162.835
X91.3Y-170.05
X93.005Y-147.595
X93.005Y-162.835
X93.84Y-170.05
X95.545Y-147.595
X95.545Y-162.835
X96.38Y-170.05
X98.085Y-147.595
X98.085Y-162.835
X98.92Y-170.05
X100.625Y-147.595
X100.625Y-162.835
X101.46Y-170.05
X103.165Y-147.595
X103.165Y-162.835
X104.0Y-170.05
X105.705Y-147.595
X105.705Y-162.835
X108.245Y-147.595
X108.245Y-162.835
X110.785Y-147.595
X110.785Y-162.835
X111.125Y-170.0
X113.325Y-147.595
X113.325Y-162.835
X113.665Y-170.0
X115.865Y-147.595
X115.865Y-162.835
X116.205Y-170.0
X118.405Y-147.595
X118.405Y-162.835
X118.745Y-170.0
X120.945Y-147.595
X120.945Y-162.835
X121.285Y-170.0
X123.485Y-147.595
X123.485Y-162.835
X123.825Y-170.0
X130.65Y-174.025
X130.775Y-170.025
X133.19Y-174.025
X133.315Y-170.025
X135.73Y-174.025
X135.855Y-170.025
X138.27Y-174.025
X138.395Y-170.025
X140.81Y-174.025
X140.935Y-170.025
X143.35Y-174.025
X143.475Y-170.025
X151.0Y-117.0
X151.0Y-119.54
X151.0Y-122.08
X151.0Y-124.62
X151.0Y-127.16
X151.0Y-129.7
X151.0Y-132.24
X151.0Y-134.78
X151.0Y-137.32
X151.0Y-139.86
X151.0Y-142.4
X151.0Y-144.94
X151.0Y-147.48
X151.0Y-150.02
X151.0Y-152.56
X151.0Y-155.1
X151.0Y-157.64
X151.0Y-160.18
X151.0Y-162.72
T8
X82.3Y-76.73
X95.0Y-76.73
T9
X70.0Y-74.0
X70.0Y-175.0
X150.0Y-75.0
X150.0Y-175.0
T3
X75.7Y-89.66G85X75.1Y-89.66
G05
X75.7Y-98.3G85X75.1Y-98.3
G05
X79.5Y-89.66G85X78.9Y-89.66
G05
X79.5Y-98.3G85X78.9Y-98.3
G05
T0
M30
