G04 #@! TF.GenerationSoftware,KiCad,Pcbnew,(6.0.7)*
G04 #@! TF.CreationDate,2022-11-05T21:45:33+01:00*
G04 #@! TF.ProjectId,vogelhuisje_kicad,766f6765-6c68-4756-9973-6a655f6b6963,rev?*
G04 #@! TF.SameCoordinates,Original*
G04 #@! TF.FileFunction,Soldermask,Top*
G04 #@! TF.FilePolarity,Negative*
%FSLAX46Y46*%
G04 Gerber Fmt 4.6, Leading zero omitted, Abs format (unit mm)*
G04 Created by KiCad (PCBNEW (6.0.7)) date 2022-11-05 21:45:33*
%MOMM*%
%LPD*%
G01*
G04 APERTURE LIST*
G04 Aperture macros list*
%AMRoundRect*
0 Rectangle with rounded corners*
0 $1 Rounding radius*
0 $2 $3 $4 $5 $6 $7 $8 $9 X,Y pos of 4 corners*
0 Add a 4 corners polygon primitive as box body*
4,1,4,$2,$3,$4,$5,$6,$7,$8,$9,$2,$3,0*
0 Add four circle primitives for the rounded corners*
1,1,$1+$1,$2,$3*
1,1,$1+$1,$4,$5*
1,1,$1+$1,$6,$7*
1,1,$1+$1,$8,$9*
0 Add four rect primitives between the rounded corners*
20,1,$1+$1,$2,$3,$4,$5,0*
20,1,$1+$1,$4,$5,$6,$7,0*
20,1,$1+$1,$6,$7,$8,$9,0*
20,1,$1+$1,$8,$9,$2,$3,0*%
G04 Aperture macros list end*
%ADD10R,4.000000X4.000000*%
%ADD11RoundRect,0.250000X-0.625000X0.350000X-0.625000X-0.350000X0.625000X-0.350000X0.625000X0.350000X0*%
%ADD12O,1.750000X1.200000*%
%ADD13R,1.700000X1.700000*%
%ADD14O,1.700000X1.700000*%
%ADD15R,2.200000X2.200000*%
%ADD16O,2.200000X2.200000*%
%ADD17C,3.000000*%
%ADD18C,1.600000*%
%ADD19O,1.600000X1.600000*%
%ADD20R,2.000000X1.905000*%
%ADD21O,2.000000X1.905000*%
%ADD22R,2.800000X2.800000*%
%ADD23O,2.800000X2.800000*%
%ADD24R,1.600000X1.600000*%
%ADD25C,1.524000*%
G04 APERTURE END LIST*
D10*
X127220000Y-54720000D03*
X127220000Y-70120000D03*
X151320000Y-54720000D03*
X151320000Y-59120000D03*
X151320000Y-65720000D03*
X151320000Y-70120000D03*
X75180000Y-54720000D03*
X75180000Y-70120000D03*
X99280000Y-54720000D03*
X99280000Y-59120000D03*
X99280000Y-65720000D03*
X99280000Y-70120000D03*
X75930000Y-86470000D03*
X75930000Y-101870000D03*
X100030000Y-86470000D03*
X100030000Y-90870000D03*
X100030000Y-97470000D03*
X100030000Y-101870000D03*
D11*
X139700000Y-86360000D03*
D12*
X139700000Y-88360000D03*
D11*
X139700000Y-76200000D03*
D12*
X139700000Y-78200000D03*
D13*
X76200000Y-81280000D03*
D14*
X76200000Y-78740000D03*
D15*
X85090000Y-82550000D03*
D16*
X81280000Y-82550000D03*
D17*
X111920000Y-88885000D03*
X111920000Y-99085000D03*
X129520000Y-88885000D03*
X129520000Y-99085000D03*
D18*
X85090000Y-105410000D03*
D19*
X92710000Y-105410000D03*
D11*
X139700000Y-96520000D03*
D12*
X139700000Y-98520000D03*
D20*
X114300000Y-76200000D03*
D21*
X114300000Y-78740000D03*
X114300000Y-81280000D03*
D13*
X143350000Y-174025000D03*
D14*
X140810000Y-174025000D03*
X138270000Y-174025000D03*
X135730000Y-174025000D03*
X133190000Y-174025000D03*
X130650000Y-174025000D03*
D18*
X80000000Y-162810000D03*
D19*
X80000000Y-155190000D03*
D22*
X95000000Y-76730000D03*
D23*
X82300000Y-76730000D03*
D13*
X104000000Y-170050000D03*
D14*
X101460000Y-170050000D03*
X98920000Y-170050000D03*
X96380000Y-170050000D03*
X93840000Y-170050000D03*
X91300000Y-170050000D03*
X88760000Y-170050000D03*
X86220000Y-170050000D03*
D24*
X87925000Y-162835000D03*
D19*
X90465000Y-162835000D03*
X93005000Y-162835000D03*
X95545000Y-162835000D03*
X98085000Y-162835000D03*
X100625000Y-162835000D03*
X103165000Y-162835000D03*
X105705000Y-162835000D03*
X108245000Y-162835000D03*
X110785000Y-162835000D03*
X113325000Y-162835000D03*
X115865000Y-162835000D03*
X118405000Y-162835000D03*
X120945000Y-162835000D03*
X123485000Y-162835000D03*
X123485000Y-147595000D03*
X120945000Y-147595000D03*
X118405000Y-147595000D03*
X115865000Y-147595000D03*
X113325000Y-147595000D03*
X110785000Y-147595000D03*
X108245000Y-147595000D03*
X105705000Y-147595000D03*
X103165000Y-147595000D03*
X100625000Y-147595000D03*
X98085000Y-147595000D03*
X95545000Y-147595000D03*
X93005000Y-147595000D03*
X90465000Y-147595000D03*
X87925000Y-147595000D03*
D13*
X151000000Y-117000000D03*
D14*
X151000000Y-119540000D03*
X151000000Y-122080000D03*
X151000000Y-124620000D03*
X151000000Y-127160000D03*
X151000000Y-129700000D03*
X151000000Y-132240000D03*
X151000000Y-134780000D03*
X151000000Y-137320000D03*
X151000000Y-139860000D03*
X151000000Y-142400000D03*
X151000000Y-144940000D03*
X151000000Y-147480000D03*
X151000000Y-150020000D03*
X151000000Y-152560000D03*
X151000000Y-155100000D03*
X151000000Y-157640000D03*
X151000000Y-160180000D03*
X151000000Y-162720000D03*
X151000000Y-165260000D03*
D13*
X143475000Y-170025000D03*
D14*
X140935000Y-170025000D03*
X138395000Y-170025000D03*
X135855000Y-170025000D03*
X133315000Y-170025000D03*
X130775000Y-170025000D03*
D13*
X111125000Y-170000000D03*
D14*
X113665000Y-170000000D03*
X116205000Y-170000000D03*
X118745000Y-170000000D03*
X121285000Y-170000000D03*
X123825000Y-170000000D03*
D25*
X139200000Y-112840000D03*
X136660000Y-112840000D03*
X134120000Y-112840000D03*
X131580000Y-112840000D03*
X129040000Y-112840000D03*
X126500000Y-112840000D03*
X123960000Y-112840000D03*
X121420000Y-112840000D03*
X118880000Y-112840000D03*
X116340000Y-112840000D03*
X113800000Y-112840000D03*
X111260000Y-112840000D03*
X108720000Y-112840000D03*
X106180000Y-112840000D03*
X103640000Y-112840000D03*
X139200000Y-140780000D03*
X136660000Y-140780000D03*
X134120000Y-140780000D03*
X131580000Y-140780000D03*
X129040000Y-140780000D03*
X126500000Y-140780000D03*
X123960000Y-140780000D03*
X121420000Y-140780000D03*
X118880000Y-140780000D03*
X116340000Y-140780000D03*
X113800000Y-140780000D03*
X111260000Y-140780000D03*
X108720000Y-140780000D03*
X106180000Y-140780000D03*
X103640000Y-140780000D03*
X87140000Y-140780000D03*
X84600000Y-140780000D03*
X82060000Y-140780000D03*
X79520000Y-140780000D03*
M02*
