%FSLAX45Y45*%
G04 Gerber Fmt 4.5, Leading zero omitted, Abs format (unit mm)*
G04 Created by KiCad (PCBNEW (6.0.6)) date 2022-07-04 23:32:56*
%MOMM*%
%LPD*%
G01*
G04 APERTURE LIST*
%TA.AperFunction,Profile*%
%ADD10C,0.038100*%
%TD*%
%ADD11C,0.200000*%
G04 APERTURE END LIST*
D10*
X6250000Y-6750000D02*
X15750000Y-6750000D01*
X15750000Y-6750000D02*
X15750000Y-18250000D01*
X15750000Y-18250000D02*
X6250000Y-18250000D01*
X6250000Y-18250000D02*
X6250000Y-6750000D01*
D11*
X6505714Y-18562381D02*
X6505714Y-18362381D01*
X6553333Y-18362381D01*
X6581904Y-18371905D01*
X6600952Y-18390953D01*
X6610476Y-18410000D01*
X6620000Y-18448095D01*
X6620000Y-18476667D01*
X6610476Y-18514762D01*
X6600952Y-18533810D01*
X6581904Y-18552857D01*
X6553333Y-18562381D01*
X6505714Y-18562381D01*
X6705714Y-18562381D02*
X6705714Y-18429048D01*
X6705714Y-18467143D02*
X6715238Y-18448095D01*
X6724762Y-18438572D01*
X6743809Y-18429048D01*
X6762857Y-18429048D01*
X6829523Y-18562381D02*
X6829523Y-18429048D01*
X6829523Y-18362381D02*
X6820000Y-18371905D01*
X6829523Y-18381429D01*
X6839047Y-18371905D01*
X6829523Y-18362381D01*
X6829523Y-18381429D01*
X6953333Y-18562381D02*
X6934285Y-18552857D01*
X6924762Y-18533810D01*
X6924762Y-18362381D01*
X7058095Y-18562381D02*
X7039047Y-18552857D01*
X7029523Y-18533810D01*
X7029523Y-18362381D01*
X7286666Y-18562381D02*
X7286666Y-18362381D01*
X7353333Y-18505238D01*
X7420000Y-18362381D01*
X7420000Y-18562381D01*
X7600952Y-18562381D02*
X7600952Y-18457619D01*
X7591428Y-18438572D01*
X7572381Y-18429048D01*
X7534285Y-18429048D01*
X7515238Y-18438572D01*
X7600952Y-18552857D02*
X7581904Y-18562381D01*
X7534285Y-18562381D01*
X7515238Y-18552857D01*
X7505714Y-18533810D01*
X7505714Y-18514762D01*
X7515238Y-18495715D01*
X7534285Y-18486191D01*
X7581904Y-18486191D01*
X7600952Y-18476667D01*
X7696190Y-18429048D02*
X7696190Y-18629048D01*
X7696190Y-18438572D02*
X7715238Y-18429048D01*
X7753333Y-18429048D01*
X7772381Y-18438572D01*
X7781904Y-18448095D01*
X7791428Y-18467143D01*
X7791428Y-18524286D01*
X7781904Y-18543334D01*
X7772381Y-18552857D01*
X7753333Y-18562381D01*
X7715238Y-18562381D01*
X7696190Y-18552857D01*
X7877143Y-18543334D02*
X7886666Y-18552857D01*
X7877143Y-18562381D01*
X7867619Y-18552857D01*
X7877143Y-18543334D01*
X7877143Y-18562381D01*
X7877143Y-18438572D02*
X7886666Y-18448095D01*
X7877143Y-18457619D01*
X7867619Y-18448095D01*
X7877143Y-18438572D01*
X7877143Y-18457619D01*
M02*
