%FSLAX45Y45*%
G04 Gerber Fmt 4.5, Leading zero omitted, Abs format (unit mm)*
G04 Created by KiCad (PCBNEW (6.0.6)) date 2022-07-04 23:32:56*
%MOMM*%
%LPD*%
G01*
G04 APERTURE LIST*
%TA.AperFunction,Profile*%
%ADD10C,0.038100*%
%TD*%
%ADD11C,0.200000*%
%ADD12C,0.030000*%
%ADD13C,0.040000*%
%ADD14C,0.060000*%
%ADD15C,0.075000*%
%ADD16C,0.076200*%
%ADD17C,0.080000*%
%ADD18C,0.100000*%
%ADD19C,0.140000*%
%ADD20C,0.430000*%
G04 APERTURE END LIST*
D10*
X6250000Y-6750000D02*
X15750000Y-6750000D01*
X15750000Y-6750000D02*
X15750000Y-18250000D01*
X15750000Y-18250000D02*
X6250000Y-18250000D01*
X6250000Y-18250000D02*
X6250000Y-6750000D01*
D11*
D12*
X8685000Y-8585000D02*
X8715000Y-8615000D01*
X8715000Y-8585000D02*
X8685000Y-8615000D01*
X10985000Y-13285000D02*
X11015000Y-13315000D01*
X11015000Y-13285000D02*
X10985000Y-13315000D01*
X11285000Y-13585000D02*
X11315000Y-13615000D01*
X11315000Y-13585000D02*
X11285000Y-13615000D01*
X11985000Y-15385000D02*
X12015000Y-15415000D01*
X12015000Y-15385000D02*
X11985000Y-15415000D01*
X12185000Y-15385000D02*
X12215000Y-15415000D01*
X12215000Y-15385000D02*
X12185000Y-15415000D01*
X12785000Y-11705000D02*
X12815000Y-11735000D01*
X12815000Y-11705000D02*
X12785000Y-11735000D01*
X12945000Y-12145000D02*
X12975000Y-12175000D01*
X12975000Y-12145000D02*
X12945000Y-12175000D01*
X13485000Y-14485000D02*
X13515000Y-14515000D01*
X13515000Y-14485000D02*
X13485000Y-14515000D01*
X13558000Y-14399000D02*
X13588000Y-14429000D01*
X13588000Y-14399000D02*
X13558000Y-14429000D01*
X13585000Y-14285000D02*
X13615000Y-14315000D01*
X13615000Y-14285000D02*
X13585000Y-14315000D01*
X13695000Y-12135000D02*
X13725000Y-12165000D01*
X13725000Y-12135000D02*
X13695000Y-12165000D01*
X13985000Y-12495000D02*
X14015000Y-12525000D01*
X14015000Y-12495000D02*
X13985000Y-12525000D01*
X14095000Y-14135000D02*
X14125000Y-14165000D01*
X14125000Y-14135000D02*
X14095000Y-14165000D01*
X14145000Y-12625000D02*
X14175000Y-12655000D01*
X14175000Y-12625000D02*
X14145000Y-12655000D01*
X14165000Y-11805000D02*
X14195000Y-11835000D01*
X14195000Y-11805000D02*
X14165000Y-11835000D01*
X14275000Y-11795000D02*
X14305000Y-11825000D01*
X14305000Y-11795000D02*
X14275000Y-11825000D01*
X14285000Y-12485000D02*
X14315000Y-12515000D01*
X14315000Y-12485000D02*
X14285000Y-12515000D01*
X14425000Y-12095000D02*
X14455000Y-12125000D01*
X14455000Y-12095000D02*
X14425000Y-12125000D01*
X14685000Y-14185000D02*
X14715000Y-14215000D01*
X14715000Y-14185000D02*
X14685000Y-14215000D01*
X14775000Y-13085000D02*
X14805000Y-13115000D01*
X14805000Y-13085000D02*
X14775000Y-13115000D01*
D13*
X8275000Y-8763000D02*
G75*
G03*
X8275000Y-8763000I-20000J0D01*
G01*
X8320000Y-16500000D02*
G75*
G03*
X8320000Y-16500000I-20000J0D01*
G01*
X8402000Y-9144000D02*
G75*
G03*
X8402000Y-9144000I-20000J0D01*
G01*
X9920000Y-8300000D02*
G75*
G03*
X9920000Y-8300000I-20000J0D01*
G01*
X9926000Y-7874000D02*
G75*
G03*
X9926000Y-7874000I-20000J0D01*
G01*
X10270000Y-12000000D02*
G75*
G03*
X10270000Y-12000000I-20000J0D01*
G01*
X13270000Y-12250000D02*
G75*
G03*
X13270000Y-12250000I-20000J0D01*
G01*
D14*
X7540000Y-8936000D02*
X7540000Y-8996000D01*
X7510000Y-8966000D02*
X7570000Y-8966000D01*
D11*
X7570000Y-8936000D02*
X7510000Y-8936000D01*
X7570000Y-8996000D02*
X7510000Y-8996000D01*
X7510000Y-8936000D02*
G75*
G03*
X7510000Y-8996000I0J-30000D01*
G01*
X7570000Y-8996000D02*
G75*
G03*
X7570000Y-8936000I0J30000D01*
G01*
D14*
X7540000Y-9800000D02*
X7540000Y-9860000D01*
X7510000Y-9830000D02*
X7570000Y-9830000D01*
D11*
X7570000Y-9800000D02*
X7510000Y-9800000D01*
X7570000Y-9860000D02*
X7510000Y-9860000D01*
X7510000Y-9800000D02*
G75*
G03*
X7510000Y-9860000I0J-30000D01*
G01*
X7570000Y-9860000D02*
G75*
G03*
X7570000Y-9800000I0J30000D01*
G01*
D14*
X7920000Y-8936000D02*
X7920000Y-8996000D01*
X7890000Y-8966000D02*
X7950000Y-8966000D01*
D11*
X7950000Y-8936000D02*
X7890000Y-8936000D01*
X7950000Y-8996000D02*
X7890000Y-8996000D01*
X7890000Y-8936000D02*
G75*
G03*
X7890000Y-8996000I0J-30000D01*
G01*
X7950000Y-8996000D02*
G75*
G03*
X7950000Y-8936000I0J30000D01*
G01*
D14*
X7920000Y-9800000D02*
X7920000Y-9860000D01*
X7890000Y-9830000D02*
X7950000Y-9830000D01*
D11*
X7950000Y-9800000D02*
X7890000Y-9800000D01*
X7950000Y-9860000D02*
X7890000Y-9860000D01*
X7890000Y-9800000D02*
G75*
G03*
X7890000Y-9860000I0J-30000D01*
G01*
X7950000Y-9860000D02*
G75*
G03*
X7950000Y-9800000I0J30000D01*
G01*
D15*
X10694517Y-9297517D02*
X10694517Y-9244483D01*
X10641483Y-9244483D01*
X10641483Y-9297517D01*
X10694517Y-9297517D01*
X10694517Y-9497517D02*
X10694517Y-9444483D01*
X10641483Y-9444483D01*
X10641483Y-9497517D01*
X10694517Y-9497517D01*
D16*
X7952000Y-14116100D02*
X7990100Y-14078000D01*
X7952000Y-14039900D01*
X7913900Y-14078000D01*
X7952000Y-14116100D01*
X8206000Y-14116100D02*
X8244100Y-14078000D01*
X8206000Y-14039900D01*
X8167900Y-14078000D01*
X8206000Y-14116100D01*
X8460000Y-14116100D02*
X8498100Y-14078000D01*
X8460000Y-14039900D01*
X8421900Y-14078000D01*
X8460000Y-14116100D01*
X8714000Y-14116100D02*
X8752100Y-14078000D01*
X8714000Y-14039900D01*
X8675900Y-14078000D01*
X8714000Y-14116100D01*
X10364000Y-11322100D02*
X10402100Y-11284000D01*
X10364000Y-11245900D01*
X10325900Y-11284000D01*
X10364000Y-11322100D01*
X10364000Y-14116100D02*
X10402100Y-14078000D01*
X10364000Y-14039900D01*
X10325900Y-14078000D01*
X10364000Y-14116100D01*
X10618000Y-11322100D02*
X10656100Y-11284000D01*
X10618000Y-11245900D01*
X10579900Y-11284000D01*
X10618000Y-11322100D01*
X10618000Y-14116100D02*
X10656100Y-14078000D01*
X10618000Y-14039900D01*
X10579900Y-14078000D01*
X10618000Y-14116100D01*
X10872000Y-11322100D02*
X10910100Y-11284000D01*
X10872000Y-11245900D01*
X10833900Y-11284000D01*
X10872000Y-11322100D01*
X10872000Y-14116100D02*
X10910100Y-14078000D01*
X10872000Y-14039900D01*
X10833900Y-14078000D01*
X10872000Y-14116100D01*
X11126000Y-11322100D02*
X11164100Y-11284000D01*
X11126000Y-11245900D01*
X11087900Y-11284000D01*
X11126000Y-11322100D01*
X11126000Y-14116100D02*
X11164100Y-14078000D01*
X11126000Y-14039900D01*
X11087900Y-14078000D01*
X11126000Y-14116100D01*
X11192000Y-8926600D02*
X11230100Y-8888500D01*
X11192000Y-8850400D01*
X11153900Y-8888500D01*
X11192000Y-8926600D01*
X11192000Y-9946600D02*
X11230100Y-9908500D01*
X11192000Y-9870400D01*
X11153900Y-9908500D01*
X11192000Y-9946600D01*
X11380000Y-11322100D02*
X11418100Y-11284000D01*
X11380000Y-11245900D01*
X11341900Y-11284000D01*
X11380000Y-11322100D01*
X11380000Y-14116100D02*
X11418100Y-14078000D01*
X11380000Y-14039900D01*
X11341900Y-14078000D01*
X11380000Y-14116100D01*
X11634000Y-11322100D02*
X11672100Y-11284000D01*
X11634000Y-11245900D01*
X11595900Y-11284000D01*
X11634000Y-11322100D01*
X11634000Y-14116100D02*
X11672100Y-14078000D01*
X11634000Y-14039900D01*
X11595900Y-14078000D01*
X11634000Y-14116100D01*
X11888000Y-11322100D02*
X11926100Y-11284000D01*
X11888000Y-11245900D01*
X11849900Y-11284000D01*
X11888000Y-11322100D01*
X11888000Y-14116100D02*
X11926100Y-14078000D01*
X11888000Y-14039900D01*
X11849900Y-14078000D01*
X11888000Y-14116100D01*
X12142000Y-11322100D02*
X12180100Y-11284000D01*
X12142000Y-11245900D01*
X12103900Y-11284000D01*
X12142000Y-11322100D01*
X12142000Y-14116100D02*
X12180100Y-14078000D01*
X12142000Y-14039900D01*
X12103900Y-14078000D01*
X12142000Y-14116100D01*
X12396000Y-11322100D02*
X12434100Y-11284000D01*
X12396000Y-11245900D01*
X12357900Y-11284000D01*
X12396000Y-11322100D01*
X12396000Y-14116100D02*
X12434100Y-14078000D01*
X12396000Y-14039900D01*
X12357900Y-14078000D01*
X12396000Y-14116100D01*
X12650000Y-11322100D02*
X12688100Y-11284000D01*
X12650000Y-11245900D01*
X12611900Y-11284000D01*
X12650000Y-11322100D01*
X12650000Y-14116100D02*
X12688100Y-14078000D01*
X12650000Y-14039900D01*
X12611900Y-14078000D01*
X12650000Y-14116100D01*
X12904000Y-11322100D02*
X12942100Y-11284000D01*
X12904000Y-11245900D01*
X12865900Y-11284000D01*
X12904000Y-11322100D01*
X12904000Y-14116100D02*
X12942100Y-14078000D01*
X12904000Y-14039900D01*
X12865900Y-14078000D01*
X12904000Y-14116100D01*
X12952000Y-8926600D02*
X12990100Y-8888500D01*
X12952000Y-8850400D01*
X12913900Y-8888500D01*
X12952000Y-8926600D01*
X12952000Y-9946600D02*
X12990100Y-9908500D01*
X12952000Y-9870400D01*
X12913900Y-9908500D01*
X12952000Y-9946600D01*
X13158000Y-11322100D02*
X13196100Y-11284000D01*
X13158000Y-11245900D01*
X13119900Y-11284000D01*
X13158000Y-11322100D01*
X13158000Y-14116100D02*
X13196100Y-14078000D01*
X13158000Y-14039900D01*
X13119900Y-14078000D01*
X13158000Y-14116100D01*
X13412000Y-11322100D02*
X13450100Y-11284000D01*
X13412000Y-11245900D01*
X13373900Y-11284000D01*
X13412000Y-11322100D01*
X13412000Y-14116100D02*
X13450100Y-14078000D01*
X13412000Y-14039900D01*
X13373900Y-14078000D01*
X13412000Y-14116100D01*
X13666000Y-11322100D02*
X13704100Y-11284000D01*
X13666000Y-11245900D01*
X13627900Y-11284000D01*
X13666000Y-11322100D01*
X13666000Y-14116100D02*
X13704100Y-14078000D01*
X13666000Y-14039900D01*
X13627900Y-14078000D01*
X13666000Y-14116100D01*
X13920000Y-11322100D02*
X13958100Y-11284000D01*
X13920000Y-11245900D01*
X13881900Y-11284000D01*
X13920000Y-11322100D01*
X13920000Y-14116100D02*
X13958100Y-14078000D01*
X13920000Y-14039900D01*
X13881900Y-14078000D01*
X13920000Y-14116100D01*
D17*
X7960000Y-15479000D02*
X8040000Y-15559000D01*
X8040000Y-15479000D02*
X7960000Y-15559000D01*
X8040000Y-15519000D02*
G75*
G03*
X8040000Y-15519000I-40000J0D01*
G01*
X7960000Y-16241000D02*
X8040000Y-16321000D01*
X8040000Y-16241000D02*
X7960000Y-16321000D01*
X8040000Y-16281000D02*
G75*
G03*
X8040000Y-16281000I-40000J0D01*
G01*
X8469000Y-10501000D02*
X8549000Y-10581000D01*
X8549000Y-10501000D02*
X8469000Y-10581000D01*
X8549000Y-10541000D02*
G75*
G03*
X8549000Y-10541000I-40000J0D01*
G01*
X9231000Y-10501000D02*
X9311000Y-10581000D01*
X9311000Y-10501000D02*
X9231000Y-10581000D01*
X9311000Y-10541000D02*
G75*
G03*
X9311000Y-10541000I-40000J0D01*
G01*
D18*
X7570000Y-7824000D02*
X7670000Y-7924000D01*
X7670000Y-7824000D02*
X7570000Y-7924000D01*
X7620000Y-7824000D02*
X7620000Y-7924000D01*
X7570000Y-7874000D02*
X7670000Y-7874000D01*
X7570000Y-8078000D02*
X7670000Y-8178000D01*
X7670000Y-8078000D02*
X7570000Y-8178000D01*
X7620000Y-8078000D02*
X7620000Y-8178000D01*
X7570000Y-8128000D02*
X7670000Y-8128000D01*
X8572000Y-16955000D02*
X8672000Y-17055000D01*
X8672000Y-16955000D02*
X8572000Y-17055000D01*
X8622000Y-16955000D02*
X8622000Y-17055000D01*
X8572000Y-17005000D02*
X8672000Y-17005000D01*
X8742500Y-14709500D02*
X8842500Y-14809500D01*
X8842500Y-14709500D02*
X8742500Y-14809500D01*
X8792500Y-14709500D02*
X8792500Y-14809500D01*
X8742500Y-14759500D02*
X8842500Y-14759500D01*
X8742500Y-16233500D02*
X8842500Y-16333500D01*
X8842500Y-16233500D02*
X8742500Y-16333500D01*
X8792500Y-16233500D02*
X8792500Y-16333500D01*
X8742500Y-16283500D02*
X8842500Y-16283500D01*
X8826000Y-16955000D02*
X8926000Y-17055000D01*
X8926000Y-16955000D02*
X8826000Y-17055000D01*
X8876000Y-16955000D02*
X8876000Y-17055000D01*
X8826000Y-17005000D02*
X8926000Y-17005000D01*
X8996500Y-14709500D02*
X9096500Y-14809500D01*
X9096500Y-14709500D02*
X8996500Y-14809500D01*
X9046500Y-14709500D02*
X9046500Y-14809500D01*
X8996500Y-14759500D02*
X9096500Y-14759500D01*
X8996500Y-16233500D02*
X9096500Y-16333500D01*
X9096500Y-16233500D02*
X8996500Y-16333500D01*
X9046500Y-16233500D02*
X9046500Y-16333500D01*
X8996500Y-16283500D02*
X9096500Y-16283500D01*
X9080000Y-16955000D02*
X9180000Y-17055000D01*
X9180000Y-16955000D02*
X9080000Y-17055000D01*
X9130000Y-16955000D02*
X9130000Y-17055000D01*
X9080000Y-17005000D02*
X9180000Y-17005000D01*
X9250500Y-14709500D02*
X9350500Y-14809500D01*
X9350500Y-14709500D02*
X9250500Y-14809500D01*
X9300500Y-14709500D02*
X9300500Y-14809500D01*
X9250500Y-14759500D02*
X9350500Y-14759500D01*
X9250500Y-16233500D02*
X9350500Y-16333500D01*
X9350500Y-16233500D02*
X9250500Y-16333500D01*
X9300500Y-16233500D02*
X9300500Y-16333500D01*
X9250500Y-16283500D02*
X9350500Y-16283500D01*
X9334000Y-16955000D02*
X9434000Y-17055000D01*
X9434000Y-16955000D02*
X9334000Y-17055000D01*
X9384000Y-16955000D02*
X9384000Y-17055000D01*
X9334000Y-17005000D02*
X9434000Y-17005000D01*
X9504500Y-14709500D02*
X9604500Y-14809500D01*
X9604500Y-14709500D02*
X9504500Y-14809500D01*
X9554500Y-14709500D02*
X9554500Y-14809500D01*
X9504500Y-14759500D02*
X9604500Y-14759500D01*
X9504500Y-16233500D02*
X9604500Y-16333500D01*
X9604500Y-16233500D02*
X9504500Y-16333500D01*
X9554500Y-16233500D02*
X9554500Y-16333500D01*
X9504500Y-16283500D02*
X9604500Y-16283500D01*
X9588000Y-16955000D02*
X9688000Y-17055000D01*
X9688000Y-16955000D02*
X9588000Y-17055000D01*
X9638000Y-16955000D02*
X9638000Y-17055000D01*
X9588000Y-17005000D02*
X9688000Y-17005000D01*
X9758500Y-14709500D02*
X9858500Y-14809500D01*
X9858500Y-14709500D02*
X9758500Y-14809500D01*
X9808500Y-14709500D02*
X9808500Y-14809500D01*
X9758500Y-14759500D02*
X9858500Y-14759500D01*
X9758500Y-16233500D02*
X9858500Y-16333500D01*
X9858500Y-16233500D02*
X9758500Y-16333500D01*
X9808500Y-16233500D02*
X9808500Y-16333500D01*
X9758500Y-16283500D02*
X9858500Y-16283500D01*
X9842000Y-16955000D02*
X9942000Y-17055000D01*
X9942000Y-16955000D02*
X9842000Y-17055000D01*
X9892000Y-16955000D02*
X9892000Y-17055000D01*
X9842000Y-17005000D02*
X9942000Y-17005000D01*
X10012500Y-14709500D02*
X10112500Y-14809500D01*
X10112500Y-14709500D02*
X10012500Y-14809500D01*
X10062500Y-14709500D02*
X10062500Y-14809500D01*
X10012500Y-14759500D02*
X10112500Y-14759500D01*
X10012500Y-16233500D02*
X10112500Y-16333500D01*
X10112500Y-16233500D02*
X10012500Y-16333500D01*
X10062500Y-16233500D02*
X10062500Y-16333500D01*
X10012500Y-16283500D02*
X10112500Y-16283500D01*
X10096000Y-16955000D02*
X10196000Y-17055000D01*
X10196000Y-16955000D02*
X10096000Y-17055000D01*
X10146000Y-16955000D02*
X10146000Y-17055000D01*
X10096000Y-17005000D02*
X10196000Y-17005000D01*
X10266500Y-14709500D02*
X10366500Y-14809500D01*
X10366500Y-14709500D02*
X10266500Y-14809500D01*
X10316500Y-14709500D02*
X10316500Y-14809500D01*
X10266500Y-14759500D02*
X10366500Y-14759500D01*
X10266500Y-16233500D02*
X10366500Y-16333500D01*
X10366500Y-16233500D02*
X10266500Y-16333500D01*
X10316500Y-16233500D02*
X10316500Y-16333500D01*
X10266500Y-16283500D02*
X10366500Y-16283500D01*
X10350000Y-16955000D02*
X10450000Y-17055000D01*
X10450000Y-16955000D02*
X10350000Y-17055000D01*
X10400000Y-16955000D02*
X10400000Y-17055000D01*
X10350000Y-17005000D02*
X10450000Y-17005000D01*
X10520500Y-14709500D02*
X10620500Y-14809500D01*
X10620500Y-14709500D02*
X10520500Y-14809500D01*
X10570500Y-14709500D02*
X10570500Y-14809500D01*
X10520500Y-14759500D02*
X10620500Y-14759500D01*
X10520500Y-16233500D02*
X10620500Y-16333500D01*
X10620500Y-16233500D02*
X10520500Y-16333500D01*
X10570500Y-16233500D02*
X10570500Y-16333500D01*
X10520500Y-16283500D02*
X10620500Y-16283500D01*
X10774500Y-14709500D02*
X10874500Y-14809500D01*
X10874500Y-14709500D02*
X10774500Y-14809500D01*
X10824500Y-14709500D02*
X10824500Y-14809500D01*
X10774500Y-14759500D02*
X10874500Y-14759500D01*
X10774500Y-16233500D02*
X10874500Y-16333500D01*
X10874500Y-16233500D02*
X10774500Y-16333500D01*
X10824500Y-16233500D02*
X10824500Y-16333500D01*
X10774500Y-16283500D02*
X10874500Y-16283500D01*
X11028500Y-14709500D02*
X11128500Y-14809500D01*
X11128500Y-14709500D02*
X11028500Y-14809500D01*
X11078500Y-14709500D02*
X11078500Y-14809500D01*
X11028500Y-14759500D02*
X11128500Y-14759500D01*
X11028500Y-16233500D02*
X11128500Y-16333500D01*
X11128500Y-16233500D02*
X11028500Y-16333500D01*
X11078500Y-16233500D02*
X11078500Y-16333500D01*
X11028500Y-16283500D02*
X11128500Y-16283500D01*
X11062500Y-16950000D02*
X11162500Y-17050000D01*
X11162500Y-16950000D02*
X11062500Y-17050000D01*
X11112500Y-16950000D02*
X11112500Y-17050000D01*
X11062500Y-17000000D02*
X11162500Y-17000000D01*
X11282500Y-14709500D02*
X11382500Y-14809500D01*
X11382500Y-14709500D02*
X11282500Y-14809500D01*
X11332500Y-14709500D02*
X11332500Y-14809500D01*
X11282500Y-14759500D02*
X11382500Y-14759500D01*
X11282500Y-16233500D02*
X11382500Y-16333500D01*
X11382500Y-16233500D02*
X11282500Y-16333500D01*
X11332500Y-16233500D02*
X11332500Y-16333500D01*
X11282500Y-16283500D02*
X11382500Y-16283500D01*
X11316500Y-16950000D02*
X11416500Y-17050000D01*
X11416500Y-16950000D02*
X11316500Y-17050000D01*
X11366500Y-16950000D02*
X11366500Y-17050000D01*
X11316500Y-17000000D02*
X11416500Y-17000000D01*
X11536500Y-14709500D02*
X11636500Y-14809500D01*
X11636500Y-14709500D02*
X11536500Y-14809500D01*
X11586500Y-14709500D02*
X11586500Y-14809500D01*
X11536500Y-14759500D02*
X11636500Y-14759500D01*
X11536500Y-16233500D02*
X11636500Y-16333500D01*
X11636500Y-16233500D02*
X11536500Y-16333500D01*
X11586500Y-16233500D02*
X11586500Y-16333500D01*
X11536500Y-16283500D02*
X11636500Y-16283500D01*
X11570500Y-16950000D02*
X11670500Y-17050000D01*
X11670500Y-16950000D02*
X11570500Y-17050000D01*
X11620500Y-16950000D02*
X11620500Y-17050000D01*
X11570500Y-17000000D02*
X11670500Y-17000000D01*
X11790500Y-14709500D02*
X11890500Y-14809500D01*
X11890500Y-14709500D02*
X11790500Y-14809500D01*
X11840500Y-14709500D02*
X11840500Y-14809500D01*
X11790500Y-14759500D02*
X11890500Y-14759500D01*
X11790500Y-16233500D02*
X11890500Y-16333500D01*
X11890500Y-16233500D02*
X11790500Y-16333500D01*
X11840500Y-16233500D02*
X11840500Y-16333500D01*
X11790500Y-16283500D02*
X11890500Y-16283500D01*
X11824500Y-16950000D02*
X11924500Y-17050000D01*
X11924500Y-16950000D02*
X11824500Y-17050000D01*
X11874500Y-16950000D02*
X11874500Y-17050000D01*
X11824500Y-17000000D02*
X11924500Y-17000000D01*
X12044500Y-14709500D02*
X12144500Y-14809500D01*
X12144500Y-14709500D02*
X12044500Y-14809500D01*
X12094500Y-14709500D02*
X12094500Y-14809500D01*
X12044500Y-14759500D02*
X12144500Y-14759500D01*
X12044500Y-16233500D02*
X12144500Y-16333500D01*
X12144500Y-16233500D02*
X12044500Y-16333500D01*
X12094500Y-16233500D02*
X12094500Y-16333500D01*
X12044500Y-16283500D02*
X12144500Y-16283500D01*
X12078500Y-16950000D02*
X12178500Y-17050000D01*
X12178500Y-16950000D02*
X12078500Y-17050000D01*
X12128500Y-16950000D02*
X12128500Y-17050000D01*
X12078500Y-17000000D02*
X12178500Y-17000000D01*
X12298500Y-14709500D02*
X12398500Y-14809500D01*
X12398500Y-14709500D02*
X12298500Y-14809500D01*
X12348500Y-14709500D02*
X12348500Y-14809500D01*
X12298500Y-14759500D02*
X12398500Y-14759500D01*
X12298500Y-16233500D02*
X12398500Y-16333500D01*
X12398500Y-16233500D02*
X12298500Y-16333500D01*
X12348500Y-16233500D02*
X12348500Y-16333500D01*
X12298500Y-16283500D02*
X12398500Y-16283500D01*
X12332500Y-16950000D02*
X12432500Y-17050000D01*
X12432500Y-16950000D02*
X12332500Y-17050000D01*
X12382500Y-16950000D02*
X12382500Y-17050000D01*
X12332500Y-17000000D02*
X12432500Y-17000000D01*
X13015000Y-17352500D02*
X13115000Y-17452500D01*
X13115000Y-17352500D02*
X13015000Y-17452500D01*
X13065000Y-17352500D02*
X13065000Y-17452500D01*
X13015000Y-17402500D02*
X13115000Y-17402500D01*
X13027500Y-16952500D02*
X13127500Y-17052500D01*
X13127500Y-16952500D02*
X13027500Y-17052500D01*
X13077500Y-16952500D02*
X13077500Y-17052500D01*
X13027500Y-17002500D02*
X13127500Y-17002500D01*
X13269000Y-17352500D02*
X13369000Y-17452500D01*
X13369000Y-17352500D02*
X13269000Y-17452500D01*
X13319000Y-17352500D02*
X13319000Y-17452500D01*
X13269000Y-17402500D02*
X13369000Y-17402500D01*
X13281500Y-16952500D02*
X13381500Y-17052500D01*
X13381500Y-16952500D02*
X13281500Y-17052500D01*
X13331500Y-16952500D02*
X13331500Y-17052500D01*
X13281500Y-17002500D02*
X13381500Y-17002500D01*
X13523000Y-17352500D02*
X13623000Y-17452500D01*
X13623000Y-17352500D02*
X13523000Y-17452500D01*
X13573000Y-17352500D02*
X13573000Y-17452500D01*
X13523000Y-17402500D02*
X13623000Y-17402500D01*
X13535500Y-16952500D02*
X13635500Y-17052500D01*
X13635500Y-16952500D02*
X13535500Y-17052500D01*
X13585500Y-16952500D02*
X13585500Y-17052500D01*
X13535500Y-17002500D02*
X13635500Y-17002500D01*
X13777000Y-17352500D02*
X13877000Y-17452500D01*
X13877000Y-17352500D02*
X13777000Y-17452500D01*
X13827000Y-17352500D02*
X13827000Y-17452500D01*
X13777000Y-17402500D02*
X13877000Y-17402500D01*
X13789500Y-16952500D02*
X13889500Y-17052500D01*
X13889500Y-16952500D02*
X13789500Y-17052500D01*
X13839500Y-16952500D02*
X13839500Y-17052500D01*
X13789500Y-17002500D02*
X13889500Y-17002500D01*
X14031000Y-17352500D02*
X14131000Y-17452500D01*
X14131000Y-17352500D02*
X14031000Y-17452500D01*
X14081000Y-17352500D02*
X14081000Y-17452500D01*
X14031000Y-17402500D02*
X14131000Y-17402500D01*
X14043500Y-16952500D02*
X14143500Y-17052500D01*
X14143500Y-16952500D02*
X14043500Y-17052500D01*
X14093500Y-16952500D02*
X14093500Y-17052500D01*
X14043500Y-17002500D02*
X14143500Y-17002500D01*
X14285000Y-17352500D02*
X14385000Y-17452500D01*
X14385000Y-17352500D02*
X14285000Y-17452500D01*
X14335000Y-17352500D02*
X14335000Y-17452500D01*
X14285000Y-17402500D02*
X14385000Y-17402500D01*
X14297500Y-16952500D02*
X14397500Y-17052500D01*
X14397500Y-16952500D02*
X14297500Y-17052500D01*
X14347500Y-16952500D02*
X14347500Y-17052500D01*
X14297500Y-17002500D02*
X14397500Y-17002500D01*
X15050000Y-11650000D02*
X15150000Y-11750000D01*
X15150000Y-11650000D02*
X15050000Y-11750000D01*
X15100000Y-11650000D02*
X15100000Y-11750000D01*
X15050000Y-11700000D02*
X15150000Y-11700000D01*
X15050000Y-11904000D02*
X15150000Y-12004000D01*
X15150000Y-11904000D02*
X15050000Y-12004000D01*
X15100000Y-11904000D02*
X15100000Y-12004000D01*
X15050000Y-11954000D02*
X15150000Y-11954000D01*
X15050000Y-12158000D02*
X15150000Y-12258000D01*
X15150000Y-12158000D02*
X15050000Y-12258000D01*
X15100000Y-12158000D02*
X15100000Y-12258000D01*
X15050000Y-12208000D02*
X15150000Y-12208000D01*
X15050000Y-12412000D02*
X15150000Y-12512000D01*
X15150000Y-12412000D02*
X15050000Y-12512000D01*
X15100000Y-12412000D02*
X15100000Y-12512000D01*
X15050000Y-12462000D02*
X15150000Y-12462000D01*
X15050000Y-12666000D02*
X15150000Y-12766000D01*
X15150000Y-12666000D02*
X15050000Y-12766000D01*
X15100000Y-12666000D02*
X15100000Y-12766000D01*
X15050000Y-12716000D02*
X15150000Y-12716000D01*
X15050000Y-12920000D02*
X15150000Y-13020000D01*
X15150000Y-12920000D02*
X15050000Y-13020000D01*
X15100000Y-12920000D02*
X15100000Y-13020000D01*
X15050000Y-12970000D02*
X15150000Y-12970000D01*
X15050000Y-13174000D02*
X15150000Y-13274000D01*
X15150000Y-13174000D02*
X15050000Y-13274000D01*
X15100000Y-13174000D02*
X15100000Y-13274000D01*
X15050000Y-13224000D02*
X15150000Y-13224000D01*
X15050000Y-13428000D02*
X15150000Y-13528000D01*
X15150000Y-13428000D02*
X15050000Y-13528000D01*
X15100000Y-13428000D02*
X15100000Y-13528000D01*
X15050000Y-13478000D02*
X15150000Y-13478000D01*
X15050000Y-13682000D02*
X15150000Y-13782000D01*
X15150000Y-13682000D02*
X15050000Y-13782000D01*
X15100000Y-13682000D02*
X15100000Y-13782000D01*
X15050000Y-13732000D02*
X15150000Y-13732000D01*
X15050000Y-13936000D02*
X15150000Y-14036000D01*
X15150000Y-13936000D02*
X15050000Y-14036000D01*
X15100000Y-13936000D02*
X15100000Y-14036000D01*
X15050000Y-13986000D02*
X15150000Y-13986000D01*
X15050000Y-14190000D02*
X15150000Y-14290000D01*
X15150000Y-14190000D02*
X15050000Y-14290000D01*
X15100000Y-14190000D02*
X15100000Y-14290000D01*
X15050000Y-14240000D02*
X15150000Y-14240000D01*
X15050000Y-14444000D02*
X15150000Y-14544000D01*
X15150000Y-14444000D02*
X15050000Y-14544000D01*
X15100000Y-14444000D02*
X15100000Y-14544000D01*
X15050000Y-14494000D02*
X15150000Y-14494000D01*
X15050000Y-14698000D02*
X15150000Y-14798000D01*
X15150000Y-14698000D02*
X15050000Y-14798000D01*
X15100000Y-14698000D02*
X15100000Y-14798000D01*
X15050000Y-14748000D02*
X15150000Y-14748000D01*
X15050000Y-14952000D02*
X15150000Y-15052000D01*
X15150000Y-14952000D02*
X15050000Y-15052000D01*
X15100000Y-14952000D02*
X15100000Y-15052000D01*
X15050000Y-15002000D02*
X15150000Y-15002000D01*
X15050000Y-15206000D02*
X15150000Y-15306000D01*
X15150000Y-15206000D02*
X15050000Y-15306000D01*
X15100000Y-15206000D02*
X15100000Y-15306000D01*
X15050000Y-15256000D02*
X15150000Y-15256000D01*
X15050000Y-15460000D02*
X15150000Y-15560000D01*
X15150000Y-15460000D02*
X15050000Y-15560000D01*
X15100000Y-15460000D02*
X15100000Y-15560000D01*
X15050000Y-15510000D02*
X15150000Y-15510000D01*
X15050000Y-15714000D02*
X15150000Y-15814000D01*
X15150000Y-15714000D02*
X15050000Y-15814000D01*
X15100000Y-15714000D02*
X15100000Y-15814000D01*
X15050000Y-15764000D02*
X15150000Y-15764000D01*
X15050000Y-15968000D02*
X15150000Y-16068000D01*
X15150000Y-15968000D02*
X15050000Y-16068000D01*
X15100000Y-15968000D02*
X15100000Y-16068000D01*
X15050000Y-16018000D02*
X15150000Y-16018000D01*
X15050000Y-16222000D02*
X15150000Y-16322000D01*
X15150000Y-16222000D02*
X15050000Y-16322000D01*
X15100000Y-16222000D02*
X15100000Y-16322000D01*
X15050000Y-16272000D02*
X15150000Y-16272000D01*
D19*
X8160000Y-7603000D02*
X8300000Y-7743000D01*
X8300000Y-7603000D02*
X8160000Y-7743000D01*
X8279498Y-7722498D02*
X8279498Y-7623502D01*
X8180502Y-7623502D01*
X8180502Y-7722498D01*
X8279498Y-7722498D01*
X9430000Y-7603000D02*
X9570000Y-7743000D01*
X9570000Y-7603000D02*
X9430000Y-7743000D01*
X9549498Y-7722498D02*
X9549498Y-7623502D01*
X9450502Y-7623502D01*
X9450502Y-7722498D01*
X9549498Y-7722498D01*
D20*
X6785000Y-7185000D02*
X7215000Y-7615000D01*
X7215000Y-7185000D02*
X6785000Y-7615000D01*
X7000000Y-7615000D02*
X7215000Y-7400000D01*
X7000000Y-7185000D01*
X6785000Y-7400000D01*
X7000000Y-7615000D01*
X6785000Y-17285000D02*
X7215000Y-17715000D01*
X7215000Y-17285000D02*
X6785000Y-17715000D01*
X7000000Y-17715000D02*
X7215000Y-17500000D01*
X7000000Y-17285000D01*
X6785000Y-17500000D01*
X7000000Y-17715000D01*
X14785000Y-7285000D02*
X15215000Y-7715000D01*
X15215000Y-7285000D02*
X14785000Y-7715000D01*
X15000000Y-7715000D02*
X15215000Y-7500000D01*
X15000000Y-7285000D01*
X14785000Y-7500000D01*
X15000000Y-7715000D01*
X14785000Y-17285000D02*
X15215000Y-17715000D01*
X15215000Y-17285000D02*
X14785000Y-17715000D01*
X15000000Y-17715000D02*
X15215000Y-17500000D01*
X15000000Y-17285000D01*
X14785000Y-17500000D01*
X15000000Y-17715000D01*
D11*
X6505714Y-18562381D02*
X6505714Y-18362381D01*
X6553333Y-18362381D01*
X6581904Y-18371905D01*
X6600952Y-18390953D01*
X6610476Y-18410000D01*
X6620000Y-18448095D01*
X6620000Y-18476667D01*
X6610476Y-18514762D01*
X6600952Y-18533810D01*
X6581904Y-18552857D01*
X6553333Y-18562381D01*
X6505714Y-18562381D01*
X6705714Y-18562381D02*
X6705714Y-18429048D01*
X6705714Y-18467143D02*
X6715238Y-18448095D01*
X6724762Y-18438572D01*
X6743809Y-18429048D01*
X6762857Y-18429048D01*
X6829523Y-18562381D02*
X6829523Y-18429048D01*
X6829523Y-18362381D02*
X6820000Y-18371905D01*
X6829523Y-18381429D01*
X6839047Y-18371905D01*
X6829523Y-18362381D01*
X6829523Y-18381429D01*
X6953333Y-18562381D02*
X6934285Y-18552857D01*
X6924762Y-18533810D01*
X6924762Y-18362381D01*
X7058095Y-18562381D02*
X7039047Y-18552857D01*
X7029523Y-18533810D01*
X7029523Y-18362381D01*
X7286666Y-18562381D02*
X7286666Y-18362381D01*
X7353333Y-18505238D01*
X7420000Y-18362381D01*
X7420000Y-18562381D01*
X7600952Y-18562381D02*
X7600952Y-18457619D01*
X7591428Y-18438572D01*
X7572381Y-18429048D01*
X7534285Y-18429048D01*
X7515238Y-18438572D01*
X7600952Y-18552857D02*
X7581904Y-18562381D01*
X7534285Y-18562381D01*
X7515238Y-18552857D01*
X7505714Y-18533810D01*
X7505714Y-18514762D01*
X7515238Y-18495715D01*
X7534285Y-18486191D01*
X7581904Y-18486191D01*
X7600952Y-18476667D01*
X7696190Y-18429048D02*
X7696190Y-18629048D01*
X7696190Y-18438572D02*
X7715238Y-18429048D01*
X7753333Y-18429048D01*
X7772381Y-18438572D01*
X7781904Y-18448095D01*
X7791428Y-18467143D01*
X7791428Y-18524286D01*
X7781904Y-18543334D01*
X7772381Y-18552857D01*
X7753333Y-18562381D01*
X7715238Y-18562381D01*
X7696190Y-18552857D01*
X7877143Y-18543334D02*
X7886666Y-18552857D01*
X7877143Y-18562381D01*
X7867619Y-18552857D01*
X7877143Y-18543334D01*
X7877143Y-18562381D01*
X7877143Y-18438572D02*
X7886666Y-18448095D01*
X7877143Y-18457619D01*
X7867619Y-18448095D01*
X7877143Y-18438572D01*
X7877143Y-18457619D01*
D12*
X6218095Y-18876905D02*
X6248095Y-18906905D01*
X6248095Y-18876905D02*
X6218095Y-18906905D01*
D11*
X6543809Y-18782381D02*
X6562857Y-18782381D01*
X6581904Y-18791905D01*
X6591428Y-18801429D01*
X6600952Y-18820476D01*
X6610476Y-18858572D01*
X6610476Y-18906191D01*
X6600952Y-18944286D01*
X6591428Y-18963334D01*
X6581904Y-18972857D01*
X6562857Y-18982381D01*
X6543809Y-18982381D01*
X6524762Y-18972857D01*
X6515238Y-18963334D01*
X6505714Y-18944286D01*
X6496190Y-18906191D01*
X6496190Y-18858572D01*
X6505714Y-18820476D01*
X6515238Y-18801429D01*
X6524762Y-18791905D01*
X6543809Y-18782381D01*
X6696190Y-18963334D02*
X6705714Y-18972857D01*
X6696190Y-18982381D01*
X6686666Y-18972857D01*
X6696190Y-18963334D01*
X6696190Y-18982381D01*
X6772381Y-18782381D02*
X6896190Y-18782381D01*
X6829523Y-18858572D01*
X6858095Y-18858572D01*
X6877143Y-18868095D01*
X6886666Y-18877619D01*
X6896190Y-18896667D01*
X6896190Y-18944286D01*
X6886666Y-18963334D01*
X6877143Y-18972857D01*
X6858095Y-18982381D01*
X6800952Y-18982381D01*
X6781904Y-18972857D01*
X6772381Y-18963334D01*
X7020000Y-18782381D02*
X7039047Y-18782381D01*
X7058095Y-18791905D01*
X7067619Y-18801429D01*
X7077143Y-18820476D01*
X7086666Y-18858572D01*
X7086666Y-18906191D01*
X7077143Y-18944286D01*
X7067619Y-18963334D01*
X7058095Y-18972857D01*
X7039047Y-18982381D01*
X7020000Y-18982381D01*
X7000952Y-18972857D01*
X6991428Y-18963334D01*
X6981904Y-18944286D01*
X6972381Y-18906191D01*
X6972381Y-18858572D01*
X6981904Y-18820476D01*
X6991428Y-18801429D01*
X7000952Y-18791905D01*
X7020000Y-18782381D01*
X7210476Y-18782381D02*
X7229523Y-18782381D01*
X7248571Y-18791905D01*
X7258095Y-18801429D01*
X7267619Y-18820476D01*
X7277143Y-18858572D01*
X7277143Y-18906191D01*
X7267619Y-18944286D01*
X7258095Y-18963334D01*
X7248571Y-18972857D01*
X7229523Y-18982381D01*
X7210476Y-18982381D01*
X7191428Y-18972857D01*
X7181904Y-18963334D01*
X7172381Y-18944286D01*
X7162857Y-18906191D01*
X7162857Y-18858572D01*
X7172381Y-18820476D01*
X7181904Y-18801429D01*
X7191428Y-18791905D01*
X7210476Y-18782381D01*
X7362857Y-18982381D02*
X7362857Y-18849048D01*
X7362857Y-18868095D02*
X7372381Y-18858572D01*
X7391428Y-18849048D01*
X7420000Y-18849048D01*
X7439047Y-18858572D01*
X7448571Y-18877619D01*
X7448571Y-18982381D01*
X7448571Y-18877619D02*
X7458095Y-18858572D01*
X7477143Y-18849048D01*
X7505714Y-18849048D01*
X7524762Y-18858572D01*
X7534285Y-18877619D01*
X7534285Y-18982381D01*
X7629523Y-18982381D02*
X7629523Y-18849048D01*
X7629523Y-18868095D02*
X7639047Y-18858572D01*
X7658095Y-18849048D01*
X7686666Y-18849048D01*
X7705714Y-18858572D01*
X7715238Y-18877619D01*
X7715238Y-18982381D01*
X7715238Y-18877619D02*
X7724762Y-18858572D01*
X7743809Y-18849048D01*
X7772381Y-18849048D01*
X7791428Y-18858572D01*
X7800952Y-18877619D01*
X7800952Y-18982381D01*
X8191428Y-18772857D02*
X8020000Y-19030000D01*
X8448571Y-18782381D02*
X8467619Y-18782381D01*
X8486666Y-18791905D01*
X8496190Y-18801429D01*
X8505714Y-18820476D01*
X8515238Y-18858572D01*
X8515238Y-18906191D01*
X8505714Y-18944286D01*
X8496190Y-18963334D01*
X8486666Y-18972857D01*
X8467619Y-18982381D01*
X8448571Y-18982381D01*
X8429524Y-18972857D01*
X8420000Y-18963334D01*
X8410476Y-18944286D01*
X8400952Y-18906191D01*
X8400952Y-18858572D01*
X8410476Y-18820476D01*
X8420000Y-18801429D01*
X8429524Y-18791905D01*
X8448571Y-18782381D01*
X8600952Y-18963334D02*
X8610476Y-18972857D01*
X8600952Y-18982381D01*
X8591428Y-18972857D01*
X8600952Y-18963334D01*
X8600952Y-18982381D01*
X8734285Y-18782381D02*
X8753333Y-18782381D01*
X8772381Y-18791905D01*
X8781905Y-18801429D01*
X8791428Y-18820476D01*
X8800952Y-18858572D01*
X8800952Y-18906191D01*
X8791428Y-18944286D01*
X8781905Y-18963334D01*
X8772381Y-18972857D01*
X8753333Y-18982381D01*
X8734285Y-18982381D01*
X8715238Y-18972857D01*
X8705714Y-18963334D01*
X8696190Y-18944286D01*
X8686666Y-18906191D01*
X8686666Y-18858572D01*
X8696190Y-18820476D01*
X8705714Y-18801429D01*
X8715238Y-18791905D01*
X8734285Y-18782381D01*
X8991428Y-18982381D02*
X8877143Y-18982381D01*
X8934285Y-18982381D02*
X8934285Y-18782381D01*
X8915238Y-18810953D01*
X8896190Y-18830000D01*
X8877143Y-18839524D01*
X9181905Y-18982381D02*
X9067619Y-18982381D01*
X9124762Y-18982381D02*
X9124762Y-18782381D01*
X9105714Y-18810953D01*
X9086666Y-18830000D01*
X9067619Y-18839524D01*
X9296190Y-18868095D02*
X9277143Y-18858572D01*
X9267619Y-18849048D01*
X9258095Y-18830000D01*
X9258095Y-18820476D01*
X9267619Y-18801429D01*
X9277143Y-18791905D01*
X9296190Y-18782381D01*
X9334285Y-18782381D01*
X9353333Y-18791905D01*
X9362857Y-18801429D01*
X9372381Y-18820476D01*
X9372381Y-18830000D01*
X9362857Y-18849048D01*
X9353333Y-18858572D01*
X9334285Y-18868095D01*
X9296190Y-18868095D01*
X9277143Y-18877619D01*
X9267619Y-18887143D01*
X9258095Y-18906191D01*
X9258095Y-18944286D01*
X9267619Y-18963334D01*
X9277143Y-18972857D01*
X9296190Y-18982381D01*
X9334285Y-18982381D01*
X9353333Y-18972857D01*
X9362857Y-18963334D01*
X9372381Y-18944286D01*
X9372381Y-18906191D01*
X9362857Y-18887143D01*
X9353333Y-18877619D01*
X9334285Y-18868095D01*
X9448571Y-18782381D02*
X9448571Y-18820476D01*
X9524762Y-18782381D02*
X9524762Y-18820476D01*
X9820000Y-19058572D02*
X9810476Y-19049048D01*
X9791428Y-19020476D01*
X9781905Y-19001429D01*
X9772381Y-18972857D01*
X9762857Y-18925238D01*
X9762857Y-18887143D01*
X9772381Y-18839524D01*
X9781905Y-18810953D01*
X9791428Y-18791905D01*
X9810476Y-18763334D01*
X9820000Y-18753810D01*
X9886666Y-18801429D02*
X9896190Y-18791905D01*
X9915238Y-18782381D01*
X9962857Y-18782381D01*
X9981905Y-18791905D01*
X9991428Y-18801429D01*
X10000952Y-18820476D01*
X10000952Y-18839524D01*
X9991428Y-18868095D01*
X9877143Y-18982381D01*
X10000952Y-18982381D01*
X10124762Y-18782381D02*
X10143809Y-18782381D01*
X10162857Y-18791905D01*
X10172381Y-18801429D01*
X10181905Y-18820476D01*
X10191428Y-18858572D01*
X10191428Y-18906191D01*
X10181905Y-18944286D01*
X10172381Y-18963334D01*
X10162857Y-18972857D01*
X10143809Y-18982381D01*
X10124762Y-18982381D01*
X10105714Y-18972857D01*
X10096190Y-18963334D01*
X10086666Y-18944286D01*
X10077143Y-18906191D01*
X10077143Y-18858572D01*
X10086666Y-18820476D01*
X10096190Y-18801429D01*
X10105714Y-18791905D01*
X10124762Y-18782381D01*
X10429524Y-18982381D02*
X10429524Y-18782381D01*
X10515238Y-18982381D02*
X10515238Y-18877619D01*
X10505714Y-18858572D01*
X10486666Y-18849048D01*
X10458095Y-18849048D01*
X10439047Y-18858572D01*
X10429524Y-18868095D01*
X10639047Y-18982381D02*
X10620000Y-18972857D01*
X10610476Y-18963334D01*
X10600952Y-18944286D01*
X10600952Y-18887143D01*
X10610476Y-18868095D01*
X10620000Y-18858572D01*
X10639047Y-18849048D01*
X10667619Y-18849048D01*
X10686666Y-18858572D01*
X10696190Y-18868095D01*
X10705714Y-18887143D01*
X10705714Y-18944286D01*
X10696190Y-18963334D01*
X10686666Y-18972857D01*
X10667619Y-18982381D01*
X10639047Y-18982381D01*
X10820000Y-18982381D02*
X10800952Y-18972857D01*
X10791428Y-18953810D01*
X10791428Y-18782381D01*
X10972381Y-18972857D02*
X10953333Y-18982381D01*
X10915238Y-18982381D01*
X10896190Y-18972857D01*
X10886666Y-18953810D01*
X10886666Y-18877619D01*
X10896190Y-18858572D01*
X10915238Y-18849048D01*
X10953333Y-18849048D01*
X10972381Y-18858572D01*
X10981905Y-18877619D01*
X10981905Y-18896667D01*
X10886666Y-18915715D01*
X11058095Y-18972857D02*
X11077143Y-18982381D01*
X11115238Y-18982381D01*
X11134285Y-18972857D01*
X11143809Y-18953810D01*
X11143809Y-18944286D01*
X11134285Y-18925238D01*
X11115238Y-18915715D01*
X11086666Y-18915715D01*
X11067619Y-18906191D01*
X11058095Y-18887143D01*
X11058095Y-18877619D01*
X11067619Y-18858572D01*
X11086666Y-18849048D01*
X11115238Y-18849048D01*
X11134285Y-18858572D01*
X11210476Y-19058572D02*
X11220000Y-19049048D01*
X11239047Y-19020476D01*
X11248571Y-19001429D01*
X11258095Y-18972857D01*
X11267619Y-18925238D01*
X11267619Y-18887143D01*
X11258095Y-18839524D01*
X11248571Y-18810953D01*
X11239047Y-18791905D01*
X11220000Y-18763334D01*
X11210476Y-18753810D01*
D13*
X6248095Y-19155905D02*
G75*
G03*
X6248095Y-19155905I-20000J0D01*
G01*
D11*
X6543809Y-19046381D02*
X6562857Y-19046381D01*
X6581904Y-19055905D01*
X6591428Y-19065429D01*
X6600952Y-19084476D01*
X6610476Y-19122572D01*
X6610476Y-19170191D01*
X6600952Y-19208286D01*
X6591428Y-19227334D01*
X6581904Y-19236857D01*
X6562857Y-19246381D01*
X6543809Y-19246381D01*
X6524762Y-19236857D01*
X6515238Y-19227334D01*
X6505714Y-19208286D01*
X6496190Y-19170191D01*
X6496190Y-19122572D01*
X6505714Y-19084476D01*
X6515238Y-19065429D01*
X6524762Y-19055905D01*
X6543809Y-19046381D01*
X6696190Y-19227334D02*
X6705714Y-19236857D01*
X6696190Y-19246381D01*
X6686666Y-19236857D01*
X6696190Y-19227334D01*
X6696190Y-19246381D01*
X6877143Y-19113048D02*
X6877143Y-19246381D01*
X6829523Y-19036857D02*
X6781904Y-19179715D01*
X6905714Y-19179715D01*
X7020000Y-19046381D02*
X7039047Y-19046381D01*
X7058095Y-19055905D01*
X7067619Y-19065429D01*
X7077143Y-19084476D01*
X7086666Y-19122572D01*
X7086666Y-19170191D01*
X7077143Y-19208286D01*
X7067619Y-19227334D01*
X7058095Y-19236857D01*
X7039047Y-19246381D01*
X7020000Y-19246381D01*
X7000952Y-19236857D01*
X6991428Y-19227334D01*
X6981904Y-19208286D01*
X6972381Y-19170191D01*
X6972381Y-19122572D01*
X6981904Y-19084476D01*
X6991428Y-19065429D01*
X7000952Y-19055905D01*
X7020000Y-19046381D01*
X7210476Y-19046381D02*
X7229523Y-19046381D01*
X7248571Y-19055905D01*
X7258095Y-19065429D01*
X7267619Y-19084476D01*
X7277143Y-19122572D01*
X7277143Y-19170191D01*
X7267619Y-19208286D01*
X7258095Y-19227334D01*
X7248571Y-19236857D01*
X7229523Y-19246381D01*
X7210476Y-19246381D01*
X7191428Y-19236857D01*
X7181904Y-19227334D01*
X7172381Y-19208286D01*
X7162857Y-19170191D01*
X7162857Y-19122572D01*
X7172381Y-19084476D01*
X7181904Y-19065429D01*
X7191428Y-19055905D01*
X7210476Y-19046381D01*
X7362857Y-19246381D02*
X7362857Y-19113048D01*
X7362857Y-19132095D02*
X7372381Y-19122572D01*
X7391428Y-19113048D01*
X7420000Y-19113048D01*
X7439047Y-19122572D01*
X7448571Y-19141619D01*
X7448571Y-19246381D01*
X7448571Y-19141619D02*
X7458095Y-19122572D01*
X7477143Y-19113048D01*
X7505714Y-19113048D01*
X7524762Y-19122572D01*
X7534285Y-19141619D01*
X7534285Y-19246381D01*
X7629523Y-19246381D02*
X7629523Y-19113048D01*
X7629523Y-19132095D02*
X7639047Y-19122572D01*
X7658095Y-19113048D01*
X7686666Y-19113048D01*
X7705714Y-19122572D01*
X7715238Y-19141619D01*
X7715238Y-19246381D01*
X7715238Y-19141619D02*
X7724762Y-19122572D01*
X7743809Y-19113048D01*
X7772381Y-19113048D01*
X7791428Y-19122572D01*
X7800952Y-19141619D01*
X7800952Y-19246381D01*
X8191428Y-19036857D02*
X8020000Y-19294000D01*
X8448571Y-19046381D02*
X8467619Y-19046381D01*
X8486666Y-19055905D01*
X8496190Y-19065429D01*
X8505714Y-19084476D01*
X8515238Y-19122572D01*
X8515238Y-19170191D01*
X8505714Y-19208286D01*
X8496190Y-19227334D01*
X8486666Y-19236857D01*
X8467619Y-19246381D01*
X8448571Y-19246381D01*
X8429524Y-19236857D01*
X8420000Y-19227334D01*
X8410476Y-19208286D01*
X8400952Y-19170191D01*
X8400952Y-19122572D01*
X8410476Y-19084476D01*
X8420000Y-19065429D01*
X8429524Y-19055905D01*
X8448571Y-19046381D01*
X8600952Y-19227334D02*
X8610476Y-19236857D01*
X8600952Y-19246381D01*
X8591428Y-19236857D01*
X8600952Y-19227334D01*
X8600952Y-19246381D01*
X8734285Y-19046381D02*
X8753333Y-19046381D01*
X8772381Y-19055905D01*
X8781905Y-19065429D01*
X8791428Y-19084476D01*
X8800952Y-19122572D01*
X8800952Y-19170191D01*
X8791428Y-19208286D01*
X8781905Y-19227334D01*
X8772381Y-19236857D01*
X8753333Y-19246381D01*
X8734285Y-19246381D01*
X8715238Y-19236857D01*
X8705714Y-19227334D01*
X8696190Y-19208286D01*
X8686666Y-19170191D01*
X8686666Y-19122572D01*
X8696190Y-19084476D01*
X8705714Y-19065429D01*
X8715238Y-19055905D01*
X8734285Y-19046381D01*
X8991428Y-19246381D02*
X8877143Y-19246381D01*
X8934285Y-19246381D02*
X8934285Y-19046381D01*
X8915238Y-19074953D01*
X8896190Y-19094000D01*
X8877143Y-19103524D01*
X9172381Y-19046381D02*
X9077143Y-19046381D01*
X9067619Y-19141619D01*
X9077143Y-19132095D01*
X9096190Y-19122572D01*
X9143809Y-19122572D01*
X9162857Y-19132095D01*
X9172381Y-19141619D01*
X9181905Y-19160667D01*
X9181905Y-19208286D01*
X9172381Y-19227334D01*
X9162857Y-19236857D01*
X9143809Y-19246381D01*
X9096190Y-19246381D01*
X9077143Y-19236857D01*
X9067619Y-19227334D01*
X9248571Y-19046381D02*
X9381905Y-19046381D01*
X9296190Y-19246381D01*
X9448571Y-19046381D02*
X9448571Y-19084476D01*
X9524762Y-19046381D02*
X9524762Y-19084476D01*
X9820000Y-19322572D02*
X9810476Y-19313048D01*
X9791428Y-19284476D01*
X9781905Y-19265429D01*
X9772381Y-19236857D01*
X9762857Y-19189238D01*
X9762857Y-19151143D01*
X9772381Y-19103524D01*
X9781905Y-19074953D01*
X9791428Y-19055905D01*
X9810476Y-19027334D01*
X9820000Y-19017810D01*
X9877143Y-19046381D02*
X10010476Y-19046381D01*
X9924762Y-19246381D01*
X10239047Y-19246381D02*
X10239047Y-19046381D01*
X10324762Y-19246381D02*
X10324762Y-19141619D01*
X10315238Y-19122572D01*
X10296190Y-19113048D01*
X10267619Y-19113048D01*
X10248571Y-19122572D01*
X10239047Y-19132095D01*
X10448571Y-19246381D02*
X10429524Y-19236857D01*
X10420000Y-19227334D01*
X10410476Y-19208286D01*
X10410476Y-19151143D01*
X10420000Y-19132095D01*
X10429524Y-19122572D01*
X10448571Y-19113048D01*
X10477143Y-19113048D01*
X10496190Y-19122572D01*
X10505714Y-19132095D01*
X10515238Y-19151143D01*
X10515238Y-19208286D01*
X10505714Y-19227334D01*
X10496190Y-19236857D01*
X10477143Y-19246381D01*
X10448571Y-19246381D01*
X10629524Y-19246381D02*
X10610476Y-19236857D01*
X10600952Y-19217810D01*
X10600952Y-19046381D01*
X10781905Y-19236857D02*
X10762857Y-19246381D01*
X10724762Y-19246381D01*
X10705714Y-19236857D01*
X10696190Y-19217810D01*
X10696190Y-19141619D01*
X10705714Y-19122572D01*
X10724762Y-19113048D01*
X10762857Y-19113048D01*
X10781905Y-19122572D01*
X10791428Y-19141619D01*
X10791428Y-19160667D01*
X10696190Y-19179715D01*
X10867619Y-19236857D02*
X10886666Y-19246381D01*
X10924762Y-19246381D01*
X10943809Y-19236857D01*
X10953333Y-19217810D01*
X10953333Y-19208286D01*
X10943809Y-19189238D01*
X10924762Y-19179715D01*
X10896190Y-19179715D01*
X10877143Y-19170191D01*
X10867619Y-19151143D01*
X10867619Y-19141619D01*
X10877143Y-19122572D01*
X10896190Y-19113048D01*
X10924762Y-19113048D01*
X10943809Y-19122572D01*
X11020000Y-19322572D02*
X11029524Y-19313048D01*
X11048571Y-19284476D01*
X11058095Y-19265429D01*
X11067619Y-19236857D01*
X11077143Y-19189238D01*
X11077143Y-19151143D01*
X11067619Y-19103524D01*
X11058095Y-19074953D01*
X11048571Y-19055905D01*
X11029524Y-19027334D01*
X11020000Y-19017810D01*
D14*
X6218095Y-19389905D02*
X6218095Y-19449905D01*
X6188095Y-19419905D02*
X6248095Y-19419905D01*
D11*
X6543809Y-19310381D02*
X6562857Y-19310381D01*
X6581904Y-19319905D01*
X6591428Y-19329429D01*
X6600952Y-19348476D01*
X6610476Y-19386572D01*
X6610476Y-19434191D01*
X6600952Y-19472286D01*
X6591428Y-19491334D01*
X6581904Y-19500857D01*
X6562857Y-19510381D01*
X6543809Y-19510381D01*
X6524762Y-19500857D01*
X6515238Y-19491334D01*
X6505714Y-19472286D01*
X6496190Y-19434191D01*
X6496190Y-19386572D01*
X6505714Y-19348476D01*
X6515238Y-19329429D01*
X6524762Y-19319905D01*
X6543809Y-19310381D01*
X6696190Y-19491334D02*
X6705714Y-19500857D01*
X6696190Y-19510381D01*
X6686666Y-19500857D01*
X6696190Y-19491334D01*
X6696190Y-19510381D01*
X6877143Y-19310381D02*
X6839047Y-19310381D01*
X6820000Y-19319905D01*
X6810476Y-19329429D01*
X6791428Y-19358000D01*
X6781904Y-19396095D01*
X6781904Y-19472286D01*
X6791428Y-19491334D01*
X6800952Y-19500857D01*
X6820000Y-19510381D01*
X6858095Y-19510381D01*
X6877143Y-19500857D01*
X6886666Y-19491334D01*
X6896190Y-19472286D01*
X6896190Y-19424667D01*
X6886666Y-19405619D01*
X6877143Y-19396095D01*
X6858095Y-19386572D01*
X6820000Y-19386572D01*
X6800952Y-19396095D01*
X6791428Y-19405619D01*
X6781904Y-19424667D01*
X7020000Y-19310381D02*
X7039047Y-19310381D01*
X7058095Y-19319905D01*
X7067619Y-19329429D01*
X7077143Y-19348476D01*
X7086666Y-19386572D01*
X7086666Y-19434191D01*
X7077143Y-19472286D01*
X7067619Y-19491334D01*
X7058095Y-19500857D01*
X7039047Y-19510381D01*
X7020000Y-19510381D01*
X7000952Y-19500857D01*
X6991428Y-19491334D01*
X6981904Y-19472286D01*
X6972381Y-19434191D01*
X6972381Y-19386572D01*
X6981904Y-19348476D01*
X6991428Y-19329429D01*
X7000952Y-19319905D01*
X7020000Y-19310381D01*
X7210476Y-19310381D02*
X7229523Y-19310381D01*
X7248571Y-19319905D01*
X7258095Y-19329429D01*
X7267619Y-19348476D01*
X7277143Y-19386572D01*
X7277143Y-19434191D01*
X7267619Y-19472286D01*
X7258095Y-19491334D01*
X7248571Y-19500857D01*
X7229523Y-19510381D01*
X7210476Y-19510381D01*
X7191428Y-19500857D01*
X7181904Y-19491334D01*
X7172381Y-19472286D01*
X7162857Y-19434191D01*
X7162857Y-19386572D01*
X7172381Y-19348476D01*
X7181904Y-19329429D01*
X7191428Y-19319905D01*
X7210476Y-19310381D01*
X7362857Y-19510381D02*
X7362857Y-19377048D01*
X7362857Y-19396095D02*
X7372381Y-19386572D01*
X7391428Y-19377048D01*
X7420000Y-19377048D01*
X7439047Y-19386572D01*
X7448571Y-19405619D01*
X7448571Y-19510381D01*
X7448571Y-19405619D02*
X7458095Y-19386572D01*
X7477143Y-19377048D01*
X7505714Y-19377048D01*
X7524762Y-19386572D01*
X7534285Y-19405619D01*
X7534285Y-19510381D01*
X7629523Y-19510381D02*
X7629523Y-19377048D01*
X7629523Y-19396095D02*
X7639047Y-19386572D01*
X7658095Y-19377048D01*
X7686666Y-19377048D01*
X7705714Y-19386572D01*
X7715238Y-19405619D01*
X7715238Y-19510381D01*
X7715238Y-19405619D02*
X7724762Y-19386572D01*
X7743809Y-19377048D01*
X7772381Y-19377048D01*
X7791428Y-19386572D01*
X7800952Y-19405619D01*
X7800952Y-19510381D01*
X8191428Y-19300857D02*
X8020000Y-19558000D01*
X8448571Y-19310381D02*
X8467619Y-19310381D01*
X8486666Y-19319905D01*
X8496190Y-19329429D01*
X8505714Y-19348476D01*
X8515238Y-19386572D01*
X8515238Y-19434191D01*
X8505714Y-19472286D01*
X8496190Y-19491334D01*
X8486666Y-19500857D01*
X8467619Y-19510381D01*
X8448571Y-19510381D01*
X8429524Y-19500857D01*
X8420000Y-19491334D01*
X8410476Y-19472286D01*
X8400952Y-19434191D01*
X8400952Y-19386572D01*
X8410476Y-19348476D01*
X8420000Y-19329429D01*
X8429524Y-19319905D01*
X8448571Y-19310381D01*
X8600952Y-19491334D02*
X8610476Y-19500857D01*
X8600952Y-19510381D01*
X8591428Y-19500857D01*
X8600952Y-19491334D01*
X8600952Y-19510381D01*
X8734285Y-19310381D02*
X8753333Y-19310381D01*
X8772381Y-19319905D01*
X8781905Y-19329429D01*
X8791428Y-19348476D01*
X8800952Y-19386572D01*
X8800952Y-19434191D01*
X8791428Y-19472286D01*
X8781905Y-19491334D01*
X8772381Y-19500857D01*
X8753333Y-19510381D01*
X8734285Y-19510381D01*
X8715238Y-19500857D01*
X8705714Y-19491334D01*
X8696190Y-19472286D01*
X8686666Y-19434191D01*
X8686666Y-19386572D01*
X8696190Y-19348476D01*
X8705714Y-19329429D01*
X8715238Y-19319905D01*
X8734285Y-19310381D01*
X8877143Y-19329429D02*
X8886666Y-19319905D01*
X8905714Y-19310381D01*
X8953333Y-19310381D01*
X8972381Y-19319905D01*
X8981905Y-19329429D01*
X8991428Y-19348476D01*
X8991428Y-19367524D01*
X8981905Y-19396095D01*
X8867619Y-19510381D01*
X8991428Y-19510381D01*
X9058095Y-19310381D02*
X9181905Y-19310381D01*
X9115238Y-19386572D01*
X9143809Y-19386572D01*
X9162857Y-19396095D01*
X9172381Y-19405619D01*
X9181905Y-19424667D01*
X9181905Y-19472286D01*
X9172381Y-19491334D01*
X9162857Y-19500857D01*
X9143809Y-19510381D01*
X9086666Y-19510381D01*
X9067619Y-19500857D01*
X9058095Y-19491334D01*
X9353333Y-19310381D02*
X9315238Y-19310381D01*
X9296190Y-19319905D01*
X9286666Y-19329429D01*
X9267619Y-19358000D01*
X9258095Y-19396095D01*
X9258095Y-19472286D01*
X9267619Y-19491334D01*
X9277143Y-19500857D01*
X9296190Y-19510381D01*
X9334285Y-19510381D01*
X9353333Y-19500857D01*
X9362857Y-19491334D01*
X9372381Y-19472286D01*
X9372381Y-19424667D01*
X9362857Y-19405619D01*
X9353333Y-19396095D01*
X9334285Y-19386572D01*
X9296190Y-19386572D01*
X9277143Y-19396095D01*
X9267619Y-19405619D01*
X9258095Y-19424667D01*
X9448571Y-19310381D02*
X9448571Y-19348476D01*
X9524762Y-19310381D02*
X9524762Y-19348476D01*
X9820000Y-19586572D02*
X9810476Y-19577048D01*
X9791428Y-19548476D01*
X9781905Y-19529429D01*
X9772381Y-19500857D01*
X9762857Y-19453238D01*
X9762857Y-19415143D01*
X9772381Y-19367524D01*
X9781905Y-19338953D01*
X9791428Y-19319905D01*
X9810476Y-19291334D01*
X9820000Y-19281810D01*
X9934285Y-19310381D02*
X9953333Y-19310381D01*
X9972381Y-19319905D01*
X9981905Y-19329429D01*
X9991428Y-19348476D01*
X10000952Y-19386572D01*
X10000952Y-19434191D01*
X9991428Y-19472286D01*
X9981905Y-19491334D01*
X9972381Y-19500857D01*
X9953333Y-19510381D01*
X9934285Y-19510381D01*
X9915238Y-19500857D01*
X9905714Y-19491334D01*
X9896190Y-19472286D01*
X9886666Y-19434191D01*
X9886666Y-19386572D01*
X9896190Y-19348476D01*
X9905714Y-19329429D01*
X9915238Y-19319905D01*
X9934285Y-19310381D01*
X10239047Y-19510381D02*
X10239047Y-19310381D01*
X10324762Y-19510381D02*
X10324762Y-19405619D01*
X10315238Y-19386572D01*
X10296190Y-19377048D01*
X10267619Y-19377048D01*
X10248571Y-19386572D01*
X10239047Y-19396095D01*
X10448571Y-19510381D02*
X10429524Y-19500857D01*
X10420000Y-19491334D01*
X10410476Y-19472286D01*
X10410476Y-19415143D01*
X10420000Y-19396095D01*
X10429524Y-19386572D01*
X10448571Y-19377048D01*
X10477143Y-19377048D01*
X10496190Y-19386572D01*
X10505714Y-19396095D01*
X10515238Y-19415143D01*
X10515238Y-19472286D01*
X10505714Y-19491334D01*
X10496190Y-19500857D01*
X10477143Y-19510381D01*
X10448571Y-19510381D01*
X10629524Y-19510381D02*
X10610476Y-19500857D01*
X10600952Y-19481810D01*
X10600952Y-19310381D01*
X10781905Y-19500857D02*
X10762857Y-19510381D01*
X10724762Y-19510381D01*
X10705714Y-19500857D01*
X10696190Y-19481810D01*
X10696190Y-19405619D01*
X10705714Y-19386572D01*
X10724762Y-19377048D01*
X10762857Y-19377048D01*
X10781905Y-19386572D01*
X10791428Y-19405619D01*
X10791428Y-19424667D01*
X10696190Y-19443715D01*
X10867619Y-19500857D02*
X10886666Y-19510381D01*
X10924762Y-19510381D01*
X10943809Y-19500857D01*
X10953333Y-19481810D01*
X10953333Y-19472286D01*
X10943809Y-19453238D01*
X10924762Y-19443715D01*
X10896190Y-19443715D01*
X10877143Y-19434191D01*
X10867619Y-19415143D01*
X10867619Y-19405619D01*
X10877143Y-19386572D01*
X10896190Y-19377048D01*
X10924762Y-19377048D01*
X10943809Y-19386572D01*
X11191428Y-19434191D02*
X11343809Y-19434191D01*
X11267619Y-19510381D02*
X11267619Y-19358000D01*
X11677143Y-19377048D02*
X11677143Y-19510381D01*
X11629523Y-19300857D02*
X11581904Y-19443715D01*
X11705714Y-19443715D01*
X11924762Y-19500857D02*
X11943809Y-19510381D01*
X11981904Y-19510381D01*
X12000952Y-19500857D01*
X12010476Y-19481810D01*
X12010476Y-19472286D01*
X12000952Y-19453238D01*
X11981904Y-19443715D01*
X11953333Y-19443715D01*
X11934285Y-19434191D01*
X11924762Y-19415143D01*
X11924762Y-19405619D01*
X11934285Y-19386572D01*
X11953333Y-19377048D01*
X11981904Y-19377048D01*
X12000952Y-19386572D01*
X12124762Y-19510381D02*
X12105714Y-19500857D01*
X12096190Y-19481810D01*
X12096190Y-19310381D01*
X12229523Y-19510381D02*
X12210476Y-19500857D01*
X12200952Y-19491334D01*
X12191428Y-19472286D01*
X12191428Y-19415143D01*
X12200952Y-19396095D01*
X12210476Y-19386572D01*
X12229523Y-19377048D01*
X12258095Y-19377048D01*
X12277143Y-19386572D01*
X12286666Y-19396095D01*
X12296190Y-19415143D01*
X12296190Y-19472286D01*
X12286666Y-19491334D01*
X12277143Y-19500857D01*
X12258095Y-19510381D01*
X12229523Y-19510381D01*
X12353333Y-19377048D02*
X12429523Y-19377048D01*
X12381904Y-19310381D02*
X12381904Y-19481810D01*
X12391428Y-19500857D01*
X12410476Y-19510381D01*
X12429523Y-19510381D01*
X12486666Y-19500857D02*
X12505714Y-19510381D01*
X12543809Y-19510381D01*
X12562857Y-19500857D01*
X12572381Y-19481810D01*
X12572381Y-19472286D01*
X12562857Y-19453238D01*
X12543809Y-19443715D01*
X12515238Y-19443715D01*
X12496190Y-19434191D01*
X12486666Y-19415143D01*
X12486666Y-19405619D01*
X12496190Y-19386572D01*
X12515238Y-19377048D01*
X12543809Y-19377048D01*
X12562857Y-19386572D01*
X12639047Y-19586572D02*
X12648571Y-19577048D01*
X12667619Y-19548476D01*
X12677143Y-19529429D01*
X12686666Y-19500857D01*
X12696190Y-19453238D01*
X12696190Y-19415143D01*
X12686666Y-19367524D01*
X12677143Y-19338953D01*
X12667619Y-19319905D01*
X12648571Y-19291334D01*
X12639047Y-19281810D01*
D15*
X6237112Y-19710422D02*
X6237112Y-19657388D01*
X6184078Y-19657388D01*
X6184078Y-19710422D01*
X6237112Y-19710422D01*
D11*
X6543809Y-19574381D02*
X6562857Y-19574381D01*
X6581904Y-19583905D01*
X6591428Y-19593429D01*
X6600952Y-19612476D01*
X6610476Y-19650572D01*
X6610476Y-19698191D01*
X6600952Y-19736286D01*
X6591428Y-19755334D01*
X6581904Y-19764857D01*
X6562857Y-19774381D01*
X6543809Y-19774381D01*
X6524762Y-19764857D01*
X6515238Y-19755334D01*
X6505714Y-19736286D01*
X6496190Y-19698191D01*
X6496190Y-19650572D01*
X6505714Y-19612476D01*
X6515238Y-19593429D01*
X6524762Y-19583905D01*
X6543809Y-19574381D01*
X6696190Y-19755334D02*
X6705714Y-19764857D01*
X6696190Y-19774381D01*
X6686666Y-19764857D01*
X6696190Y-19755334D01*
X6696190Y-19774381D01*
X6772381Y-19574381D02*
X6905714Y-19574381D01*
X6820000Y-19774381D01*
X7077143Y-19574381D02*
X6981904Y-19574381D01*
X6972381Y-19669619D01*
X6981904Y-19660095D01*
X7000952Y-19650572D01*
X7048571Y-19650572D01*
X7067619Y-19660095D01*
X7077143Y-19669619D01*
X7086666Y-19688667D01*
X7086666Y-19736286D01*
X7077143Y-19755334D01*
X7067619Y-19764857D01*
X7048571Y-19774381D01*
X7000952Y-19774381D01*
X6981904Y-19764857D01*
X6972381Y-19755334D01*
X7210476Y-19574381D02*
X7229523Y-19574381D01*
X7248571Y-19583905D01*
X7258095Y-19593429D01*
X7267619Y-19612476D01*
X7277143Y-19650572D01*
X7277143Y-19698191D01*
X7267619Y-19736286D01*
X7258095Y-19755334D01*
X7248571Y-19764857D01*
X7229523Y-19774381D01*
X7210476Y-19774381D01*
X7191428Y-19764857D01*
X7181904Y-19755334D01*
X7172381Y-19736286D01*
X7162857Y-19698191D01*
X7162857Y-19650572D01*
X7172381Y-19612476D01*
X7181904Y-19593429D01*
X7191428Y-19583905D01*
X7210476Y-19574381D01*
X7362857Y-19774381D02*
X7362857Y-19641048D01*
X7362857Y-19660095D02*
X7372381Y-19650572D01*
X7391428Y-19641048D01*
X7420000Y-19641048D01*
X7439047Y-19650572D01*
X7448571Y-19669619D01*
X7448571Y-19774381D01*
X7448571Y-19669619D02*
X7458095Y-19650572D01*
X7477143Y-19641048D01*
X7505714Y-19641048D01*
X7524762Y-19650572D01*
X7534285Y-19669619D01*
X7534285Y-19774381D01*
X7629523Y-19774381D02*
X7629523Y-19641048D01*
X7629523Y-19660095D02*
X7639047Y-19650572D01*
X7658095Y-19641048D01*
X7686666Y-19641048D01*
X7705714Y-19650572D01*
X7715238Y-19669619D01*
X7715238Y-19774381D01*
X7715238Y-19669619D02*
X7724762Y-19650572D01*
X7743809Y-19641048D01*
X7772381Y-19641048D01*
X7791428Y-19650572D01*
X7800952Y-19669619D01*
X7800952Y-19774381D01*
X8191428Y-19564857D02*
X8020000Y-19822000D01*
X8448571Y-19574381D02*
X8467619Y-19574381D01*
X8486666Y-19583905D01*
X8496190Y-19593429D01*
X8505714Y-19612476D01*
X8515238Y-19650572D01*
X8515238Y-19698191D01*
X8505714Y-19736286D01*
X8496190Y-19755334D01*
X8486666Y-19764857D01*
X8467619Y-19774381D01*
X8448571Y-19774381D01*
X8429524Y-19764857D01*
X8420000Y-19755334D01*
X8410476Y-19736286D01*
X8400952Y-19698191D01*
X8400952Y-19650572D01*
X8410476Y-19612476D01*
X8420000Y-19593429D01*
X8429524Y-19583905D01*
X8448571Y-19574381D01*
X8600952Y-19755334D02*
X8610476Y-19764857D01*
X8600952Y-19774381D01*
X8591428Y-19764857D01*
X8600952Y-19755334D01*
X8600952Y-19774381D01*
X8734285Y-19574381D02*
X8753333Y-19574381D01*
X8772381Y-19583905D01*
X8781905Y-19593429D01*
X8791428Y-19612476D01*
X8800952Y-19650572D01*
X8800952Y-19698191D01*
X8791428Y-19736286D01*
X8781905Y-19755334D01*
X8772381Y-19764857D01*
X8753333Y-19774381D01*
X8734285Y-19774381D01*
X8715238Y-19764857D01*
X8705714Y-19755334D01*
X8696190Y-19736286D01*
X8686666Y-19698191D01*
X8686666Y-19650572D01*
X8696190Y-19612476D01*
X8705714Y-19593429D01*
X8715238Y-19583905D01*
X8734285Y-19574381D01*
X8877143Y-19593429D02*
X8886666Y-19583905D01*
X8905714Y-19574381D01*
X8953333Y-19574381D01*
X8972381Y-19583905D01*
X8981905Y-19593429D01*
X8991428Y-19612476D01*
X8991428Y-19631524D01*
X8981905Y-19660095D01*
X8867619Y-19774381D01*
X8991428Y-19774381D01*
X9086666Y-19774381D02*
X9124762Y-19774381D01*
X9143809Y-19764857D01*
X9153333Y-19755334D01*
X9172381Y-19726762D01*
X9181905Y-19688667D01*
X9181905Y-19612476D01*
X9172381Y-19593429D01*
X9162857Y-19583905D01*
X9143809Y-19574381D01*
X9105714Y-19574381D01*
X9086666Y-19583905D01*
X9077143Y-19593429D01*
X9067619Y-19612476D01*
X9067619Y-19660095D01*
X9077143Y-19679143D01*
X9086666Y-19688667D01*
X9105714Y-19698191D01*
X9143809Y-19698191D01*
X9162857Y-19688667D01*
X9172381Y-19679143D01*
X9181905Y-19660095D01*
X9362857Y-19574381D02*
X9267619Y-19574381D01*
X9258095Y-19669619D01*
X9267619Y-19660095D01*
X9286666Y-19650572D01*
X9334285Y-19650572D01*
X9353333Y-19660095D01*
X9362857Y-19669619D01*
X9372381Y-19688667D01*
X9372381Y-19736286D01*
X9362857Y-19755334D01*
X9353333Y-19764857D01*
X9334285Y-19774381D01*
X9286666Y-19774381D01*
X9267619Y-19764857D01*
X9258095Y-19755334D01*
X9448571Y-19574381D02*
X9448571Y-19612476D01*
X9524762Y-19574381D02*
X9524762Y-19612476D01*
X9820000Y-19850572D02*
X9810476Y-19841048D01*
X9791428Y-19812476D01*
X9781905Y-19793429D01*
X9772381Y-19764857D01*
X9762857Y-19717238D01*
X9762857Y-19679143D01*
X9772381Y-19631524D01*
X9781905Y-19602953D01*
X9791428Y-19583905D01*
X9810476Y-19555334D01*
X9820000Y-19545810D01*
X9886666Y-19593429D02*
X9896190Y-19583905D01*
X9915238Y-19574381D01*
X9962857Y-19574381D01*
X9981905Y-19583905D01*
X9991428Y-19593429D01*
X10000952Y-19612476D01*
X10000952Y-19631524D01*
X9991428Y-19660095D01*
X9877143Y-19774381D01*
X10000952Y-19774381D01*
X10239047Y-19774381D02*
X10239047Y-19574381D01*
X10324762Y-19774381D02*
X10324762Y-19669619D01*
X10315238Y-19650572D01*
X10296190Y-19641048D01*
X10267619Y-19641048D01*
X10248571Y-19650572D01*
X10239047Y-19660095D01*
X10448571Y-19774381D02*
X10429524Y-19764857D01*
X10420000Y-19755334D01*
X10410476Y-19736286D01*
X10410476Y-19679143D01*
X10420000Y-19660095D01*
X10429524Y-19650572D01*
X10448571Y-19641048D01*
X10477143Y-19641048D01*
X10496190Y-19650572D01*
X10505714Y-19660095D01*
X10515238Y-19679143D01*
X10515238Y-19736286D01*
X10505714Y-19755334D01*
X10496190Y-19764857D01*
X10477143Y-19774381D01*
X10448571Y-19774381D01*
X10629524Y-19774381D02*
X10610476Y-19764857D01*
X10600952Y-19745810D01*
X10600952Y-19574381D01*
X10781905Y-19764857D02*
X10762857Y-19774381D01*
X10724762Y-19774381D01*
X10705714Y-19764857D01*
X10696190Y-19745810D01*
X10696190Y-19669619D01*
X10705714Y-19650572D01*
X10724762Y-19641048D01*
X10762857Y-19641048D01*
X10781905Y-19650572D01*
X10791428Y-19669619D01*
X10791428Y-19688667D01*
X10696190Y-19707715D01*
X10867619Y-19764857D02*
X10886666Y-19774381D01*
X10924762Y-19774381D01*
X10943809Y-19764857D01*
X10953333Y-19745810D01*
X10953333Y-19736286D01*
X10943809Y-19717238D01*
X10924762Y-19707715D01*
X10896190Y-19707715D01*
X10877143Y-19698191D01*
X10867619Y-19679143D01*
X10867619Y-19669619D01*
X10877143Y-19650572D01*
X10896190Y-19641048D01*
X10924762Y-19641048D01*
X10943809Y-19650572D01*
X11020000Y-19850572D02*
X11029524Y-19841048D01*
X11048571Y-19812476D01*
X11058095Y-19793429D01*
X11067619Y-19764857D01*
X11077143Y-19717238D01*
X11077143Y-19679143D01*
X11067619Y-19631524D01*
X11058095Y-19602953D01*
X11048571Y-19583905D01*
X11029524Y-19555334D01*
X11020000Y-19545810D01*
D16*
X6209995Y-19986005D02*
X6248095Y-19947905D01*
X6209995Y-19909805D01*
X6171895Y-19947905D01*
X6209995Y-19986005D01*
D11*
X6543809Y-19838381D02*
X6562857Y-19838381D01*
X6581904Y-19847905D01*
X6591428Y-19857429D01*
X6600952Y-19876476D01*
X6610476Y-19914572D01*
X6610476Y-19962191D01*
X6600952Y-20000286D01*
X6591428Y-20019334D01*
X6581904Y-20028857D01*
X6562857Y-20038381D01*
X6543809Y-20038381D01*
X6524762Y-20028857D01*
X6515238Y-20019334D01*
X6505714Y-20000286D01*
X6496190Y-19962191D01*
X6496190Y-19914572D01*
X6505714Y-19876476D01*
X6515238Y-19857429D01*
X6524762Y-19847905D01*
X6543809Y-19838381D01*
X6696190Y-20019334D02*
X6705714Y-20028857D01*
X6696190Y-20038381D01*
X6686666Y-20028857D01*
X6696190Y-20019334D01*
X6696190Y-20038381D01*
X6772381Y-19838381D02*
X6905714Y-19838381D01*
X6820000Y-20038381D01*
X7067619Y-19838381D02*
X7029523Y-19838381D01*
X7010476Y-19847905D01*
X7000952Y-19857429D01*
X6981904Y-19886000D01*
X6972381Y-19924095D01*
X6972381Y-20000286D01*
X6981904Y-20019334D01*
X6991428Y-20028857D01*
X7010476Y-20038381D01*
X7048571Y-20038381D01*
X7067619Y-20028857D01*
X7077143Y-20019334D01*
X7086666Y-20000286D01*
X7086666Y-19952667D01*
X7077143Y-19933619D01*
X7067619Y-19924095D01*
X7048571Y-19914572D01*
X7010476Y-19914572D01*
X6991428Y-19924095D01*
X6981904Y-19933619D01*
X6972381Y-19952667D01*
X7162857Y-19857429D02*
X7172381Y-19847905D01*
X7191428Y-19838381D01*
X7239047Y-19838381D01*
X7258095Y-19847905D01*
X7267619Y-19857429D01*
X7277143Y-19876476D01*
X7277143Y-19895524D01*
X7267619Y-19924095D01*
X7153333Y-20038381D01*
X7277143Y-20038381D01*
X7362857Y-20038381D02*
X7362857Y-19905048D01*
X7362857Y-19924095D02*
X7372381Y-19914572D01*
X7391428Y-19905048D01*
X7420000Y-19905048D01*
X7439047Y-19914572D01*
X7448571Y-19933619D01*
X7448571Y-20038381D01*
X7448571Y-19933619D02*
X7458095Y-19914572D01*
X7477143Y-19905048D01*
X7505714Y-19905048D01*
X7524762Y-19914572D01*
X7534285Y-19933619D01*
X7534285Y-20038381D01*
X7629523Y-20038381D02*
X7629523Y-19905048D01*
X7629523Y-19924095D02*
X7639047Y-19914572D01*
X7658095Y-19905048D01*
X7686666Y-19905048D01*
X7705714Y-19914572D01*
X7715238Y-19933619D01*
X7715238Y-20038381D01*
X7715238Y-19933619D02*
X7724762Y-19914572D01*
X7743809Y-19905048D01*
X7772381Y-19905048D01*
X7791428Y-19914572D01*
X7800952Y-19933619D01*
X7800952Y-20038381D01*
X8191428Y-19828857D02*
X8020000Y-20086000D01*
X8448571Y-19838381D02*
X8467619Y-19838381D01*
X8486666Y-19847905D01*
X8496190Y-19857429D01*
X8505714Y-19876476D01*
X8515238Y-19914572D01*
X8515238Y-19962191D01*
X8505714Y-20000286D01*
X8496190Y-20019334D01*
X8486666Y-20028857D01*
X8467619Y-20038381D01*
X8448571Y-20038381D01*
X8429524Y-20028857D01*
X8420000Y-20019334D01*
X8410476Y-20000286D01*
X8400952Y-19962191D01*
X8400952Y-19914572D01*
X8410476Y-19876476D01*
X8420000Y-19857429D01*
X8429524Y-19847905D01*
X8448571Y-19838381D01*
X8600952Y-20019334D02*
X8610476Y-20028857D01*
X8600952Y-20038381D01*
X8591428Y-20028857D01*
X8600952Y-20019334D01*
X8600952Y-20038381D01*
X8734285Y-19838381D02*
X8753333Y-19838381D01*
X8772381Y-19847905D01*
X8781905Y-19857429D01*
X8791428Y-19876476D01*
X8800952Y-19914572D01*
X8800952Y-19962191D01*
X8791428Y-20000286D01*
X8781905Y-20019334D01*
X8772381Y-20028857D01*
X8753333Y-20038381D01*
X8734285Y-20038381D01*
X8715238Y-20028857D01*
X8705714Y-20019334D01*
X8696190Y-20000286D01*
X8686666Y-19962191D01*
X8686666Y-19914572D01*
X8696190Y-19876476D01*
X8705714Y-19857429D01*
X8715238Y-19847905D01*
X8734285Y-19838381D01*
X8867619Y-19838381D02*
X8991428Y-19838381D01*
X8924762Y-19914572D01*
X8953333Y-19914572D01*
X8972381Y-19924095D01*
X8981905Y-19933619D01*
X8991428Y-19952667D01*
X8991428Y-20000286D01*
X8981905Y-20019334D01*
X8972381Y-20028857D01*
X8953333Y-20038381D01*
X8896190Y-20038381D01*
X8877143Y-20028857D01*
X8867619Y-20019334D01*
X9115238Y-19838381D02*
X9134285Y-19838381D01*
X9153333Y-19847905D01*
X9162857Y-19857429D01*
X9172381Y-19876476D01*
X9181905Y-19914572D01*
X9181905Y-19962191D01*
X9172381Y-20000286D01*
X9162857Y-20019334D01*
X9153333Y-20028857D01*
X9134285Y-20038381D01*
X9115238Y-20038381D01*
X9096190Y-20028857D01*
X9086666Y-20019334D01*
X9077143Y-20000286D01*
X9067619Y-19962191D01*
X9067619Y-19914572D01*
X9077143Y-19876476D01*
X9086666Y-19857429D01*
X9096190Y-19847905D01*
X9115238Y-19838381D01*
X9305714Y-19838381D02*
X9324762Y-19838381D01*
X9343809Y-19847905D01*
X9353333Y-19857429D01*
X9362857Y-19876476D01*
X9372381Y-19914572D01*
X9372381Y-19962191D01*
X9362857Y-20000286D01*
X9353333Y-20019334D01*
X9343809Y-20028857D01*
X9324762Y-20038381D01*
X9305714Y-20038381D01*
X9286666Y-20028857D01*
X9277143Y-20019334D01*
X9267619Y-20000286D01*
X9258095Y-19962191D01*
X9258095Y-19914572D01*
X9267619Y-19876476D01*
X9277143Y-19857429D01*
X9286666Y-19847905D01*
X9305714Y-19838381D01*
X9448571Y-19838381D02*
X9448571Y-19876476D01*
X9524762Y-19838381D02*
X9524762Y-19876476D01*
X9820000Y-20114572D02*
X9810476Y-20105048D01*
X9791428Y-20076476D01*
X9781905Y-20057429D01*
X9772381Y-20028857D01*
X9762857Y-19981238D01*
X9762857Y-19943143D01*
X9772381Y-19895524D01*
X9781905Y-19866953D01*
X9791428Y-19847905D01*
X9810476Y-19819334D01*
X9820000Y-19809810D01*
X9877143Y-19838381D02*
X10000952Y-19838381D01*
X9934285Y-19914572D01*
X9962857Y-19914572D01*
X9981905Y-19924095D01*
X9991428Y-19933619D01*
X10000952Y-19952667D01*
X10000952Y-20000286D01*
X9991428Y-20019334D01*
X9981905Y-20028857D01*
X9962857Y-20038381D01*
X9905714Y-20038381D01*
X9886666Y-20028857D01*
X9877143Y-20019334D01*
X10115238Y-19924095D02*
X10096190Y-19914572D01*
X10086666Y-19905048D01*
X10077143Y-19886000D01*
X10077143Y-19876476D01*
X10086666Y-19857429D01*
X10096190Y-19847905D01*
X10115238Y-19838381D01*
X10153333Y-19838381D01*
X10172381Y-19847905D01*
X10181905Y-19857429D01*
X10191428Y-19876476D01*
X10191428Y-19886000D01*
X10181905Y-19905048D01*
X10172381Y-19914572D01*
X10153333Y-19924095D01*
X10115238Y-19924095D01*
X10096190Y-19933619D01*
X10086666Y-19943143D01*
X10077143Y-19962191D01*
X10077143Y-20000286D01*
X10086666Y-20019334D01*
X10096190Y-20028857D01*
X10115238Y-20038381D01*
X10153333Y-20038381D01*
X10172381Y-20028857D01*
X10181905Y-20019334D01*
X10191428Y-20000286D01*
X10191428Y-19962191D01*
X10181905Y-19943143D01*
X10172381Y-19933619D01*
X10153333Y-19924095D01*
X10429524Y-20038381D02*
X10429524Y-19838381D01*
X10515238Y-20038381D02*
X10515238Y-19933619D01*
X10505714Y-19914572D01*
X10486666Y-19905048D01*
X10458095Y-19905048D01*
X10439047Y-19914572D01*
X10429524Y-19924095D01*
X10639047Y-20038381D02*
X10620000Y-20028857D01*
X10610476Y-20019334D01*
X10600952Y-20000286D01*
X10600952Y-19943143D01*
X10610476Y-19924095D01*
X10620000Y-19914572D01*
X10639047Y-19905048D01*
X10667619Y-19905048D01*
X10686666Y-19914572D01*
X10696190Y-19924095D01*
X10705714Y-19943143D01*
X10705714Y-20000286D01*
X10696190Y-20019334D01*
X10686666Y-20028857D01*
X10667619Y-20038381D01*
X10639047Y-20038381D01*
X10820000Y-20038381D02*
X10800952Y-20028857D01*
X10791428Y-20009810D01*
X10791428Y-19838381D01*
X10972381Y-20028857D02*
X10953333Y-20038381D01*
X10915238Y-20038381D01*
X10896190Y-20028857D01*
X10886666Y-20009810D01*
X10886666Y-19933619D01*
X10896190Y-19914572D01*
X10915238Y-19905048D01*
X10953333Y-19905048D01*
X10972381Y-19914572D01*
X10981905Y-19933619D01*
X10981905Y-19952667D01*
X10886666Y-19971715D01*
X11058095Y-20028857D02*
X11077143Y-20038381D01*
X11115238Y-20038381D01*
X11134285Y-20028857D01*
X11143809Y-20009810D01*
X11143809Y-20000286D01*
X11134285Y-19981238D01*
X11115238Y-19971715D01*
X11086666Y-19971715D01*
X11067619Y-19962191D01*
X11058095Y-19943143D01*
X11058095Y-19933619D01*
X11067619Y-19914572D01*
X11086666Y-19905048D01*
X11115238Y-19905048D01*
X11134285Y-19914572D01*
X11210476Y-20114572D02*
X11220000Y-20105048D01*
X11239047Y-20076476D01*
X11248571Y-20057429D01*
X11258095Y-20028857D01*
X11267619Y-19981238D01*
X11267619Y-19943143D01*
X11258095Y-19895524D01*
X11248571Y-19866953D01*
X11239047Y-19847905D01*
X11220000Y-19819334D01*
X11210476Y-19809810D01*
D17*
X6168095Y-20171905D02*
X6248095Y-20251905D01*
X6248095Y-20171905D02*
X6168095Y-20251905D01*
X6248095Y-20211905D02*
G75*
G03*
X6248095Y-20211905I-40000J0D01*
G01*
D11*
X6543809Y-20102381D02*
X6562857Y-20102381D01*
X6581904Y-20111905D01*
X6591428Y-20121429D01*
X6600952Y-20140476D01*
X6610476Y-20178572D01*
X6610476Y-20226191D01*
X6600952Y-20264286D01*
X6591428Y-20283334D01*
X6581904Y-20292857D01*
X6562857Y-20302381D01*
X6543809Y-20302381D01*
X6524762Y-20292857D01*
X6515238Y-20283334D01*
X6505714Y-20264286D01*
X6496190Y-20226191D01*
X6496190Y-20178572D01*
X6505714Y-20140476D01*
X6515238Y-20121429D01*
X6524762Y-20111905D01*
X6543809Y-20102381D01*
X6696190Y-20283334D02*
X6705714Y-20292857D01*
X6696190Y-20302381D01*
X6686666Y-20292857D01*
X6696190Y-20283334D01*
X6696190Y-20302381D01*
X6820000Y-20188095D02*
X6800952Y-20178572D01*
X6791428Y-20169048D01*
X6781904Y-20150000D01*
X6781904Y-20140476D01*
X6791428Y-20121429D01*
X6800952Y-20111905D01*
X6820000Y-20102381D01*
X6858095Y-20102381D01*
X6877143Y-20111905D01*
X6886666Y-20121429D01*
X6896190Y-20140476D01*
X6896190Y-20150000D01*
X6886666Y-20169048D01*
X6877143Y-20178572D01*
X6858095Y-20188095D01*
X6820000Y-20188095D01*
X6800952Y-20197619D01*
X6791428Y-20207143D01*
X6781904Y-20226191D01*
X6781904Y-20264286D01*
X6791428Y-20283334D01*
X6800952Y-20292857D01*
X6820000Y-20302381D01*
X6858095Y-20302381D01*
X6877143Y-20292857D01*
X6886666Y-20283334D01*
X6896190Y-20264286D01*
X6896190Y-20226191D01*
X6886666Y-20207143D01*
X6877143Y-20197619D01*
X6858095Y-20188095D01*
X7020000Y-20102381D02*
X7039047Y-20102381D01*
X7058095Y-20111905D01*
X7067619Y-20121429D01*
X7077143Y-20140476D01*
X7086666Y-20178572D01*
X7086666Y-20226191D01*
X7077143Y-20264286D01*
X7067619Y-20283334D01*
X7058095Y-20292857D01*
X7039047Y-20302381D01*
X7020000Y-20302381D01*
X7000952Y-20292857D01*
X6991428Y-20283334D01*
X6981904Y-20264286D01*
X6972381Y-20226191D01*
X6972381Y-20178572D01*
X6981904Y-20140476D01*
X6991428Y-20121429D01*
X7000952Y-20111905D01*
X7020000Y-20102381D01*
X7210476Y-20102381D02*
X7229523Y-20102381D01*
X7248571Y-20111905D01*
X7258095Y-20121429D01*
X7267619Y-20140476D01*
X7277143Y-20178572D01*
X7277143Y-20226191D01*
X7267619Y-20264286D01*
X7258095Y-20283334D01*
X7248571Y-20292857D01*
X7229523Y-20302381D01*
X7210476Y-20302381D01*
X7191428Y-20292857D01*
X7181904Y-20283334D01*
X7172381Y-20264286D01*
X7162857Y-20226191D01*
X7162857Y-20178572D01*
X7172381Y-20140476D01*
X7181904Y-20121429D01*
X7191428Y-20111905D01*
X7210476Y-20102381D01*
X7362857Y-20302381D02*
X7362857Y-20169048D01*
X7362857Y-20188095D02*
X7372381Y-20178572D01*
X7391428Y-20169048D01*
X7420000Y-20169048D01*
X7439047Y-20178572D01*
X7448571Y-20197619D01*
X7448571Y-20302381D01*
X7448571Y-20197619D02*
X7458095Y-20178572D01*
X7477143Y-20169048D01*
X7505714Y-20169048D01*
X7524762Y-20178572D01*
X7534285Y-20197619D01*
X7534285Y-20302381D01*
X7629523Y-20302381D02*
X7629523Y-20169048D01*
X7629523Y-20188095D02*
X7639047Y-20178572D01*
X7658095Y-20169048D01*
X7686666Y-20169048D01*
X7705714Y-20178572D01*
X7715238Y-20197619D01*
X7715238Y-20302381D01*
X7715238Y-20197619D02*
X7724762Y-20178572D01*
X7743809Y-20169048D01*
X7772381Y-20169048D01*
X7791428Y-20178572D01*
X7800952Y-20197619D01*
X7800952Y-20302381D01*
X8191428Y-20092857D02*
X8020000Y-20350000D01*
X8448571Y-20102381D02*
X8467619Y-20102381D01*
X8486666Y-20111905D01*
X8496190Y-20121429D01*
X8505714Y-20140476D01*
X8515238Y-20178572D01*
X8515238Y-20226191D01*
X8505714Y-20264286D01*
X8496190Y-20283334D01*
X8486666Y-20292857D01*
X8467619Y-20302381D01*
X8448571Y-20302381D01*
X8429524Y-20292857D01*
X8420000Y-20283334D01*
X8410476Y-20264286D01*
X8400952Y-20226191D01*
X8400952Y-20178572D01*
X8410476Y-20140476D01*
X8420000Y-20121429D01*
X8429524Y-20111905D01*
X8448571Y-20102381D01*
X8600952Y-20283334D02*
X8610476Y-20292857D01*
X8600952Y-20302381D01*
X8591428Y-20292857D01*
X8600952Y-20283334D01*
X8600952Y-20302381D01*
X8734285Y-20102381D02*
X8753333Y-20102381D01*
X8772381Y-20111905D01*
X8781905Y-20121429D01*
X8791428Y-20140476D01*
X8800952Y-20178572D01*
X8800952Y-20226191D01*
X8791428Y-20264286D01*
X8781905Y-20283334D01*
X8772381Y-20292857D01*
X8753333Y-20302381D01*
X8734285Y-20302381D01*
X8715238Y-20292857D01*
X8705714Y-20283334D01*
X8696190Y-20264286D01*
X8686666Y-20226191D01*
X8686666Y-20178572D01*
X8696190Y-20140476D01*
X8705714Y-20121429D01*
X8715238Y-20111905D01*
X8734285Y-20102381D01*
X8867619Y-20102381D02*
X8991428Y-20102381D01*
X8924762Y-20178572D01*
X8953333Y-20178572D01*
X8972381Y-20188095D01*
X8981905Y-20197619D01*
X8991428Y-20216667D01*
X8991428Y-20264286D01*
X8981905Y-20283334D01*
X8972381Y-20292857D01*
X8953333Y-20302381D01*
X8896190Y-20302381D01*
X8877143Y-20292857D01*
X8867619Y-20283334D01*
X9181905Y-20302381D02*
X9067619Y-20302381D01*
X9124762Y-20302381D02*
X9124762Y-20102381D01*
X9105714Y-20130953D01*
X9086666Y-20150000D01*
X9067619Y-20159524D01*
X9362857Y-20102381D02*
X9267619Y-20102381D01*
X9258095Y-20197619D01*
X9267619Y-20188095D01*
X9286666Y-20178572D01*
X9334285Y-20178572D01*
X9353333Y-20188095D01*
X9362857Y-20197619D01*
X9372381Y-20216667D01*
X9372381Y-20264286D01*
X9362857Y-20283334D01*
X9353333Y-20292857D01*
X9334285Y-20302381D01*
X9286666Y-20302381D01*
X9267619Y-20292857D01*
X9258095Y-20283334D01*
X9448571Y-20102381D02*
X9448571Y-20140476D01*
X9524762Y-20102381D02*
X9524762Y-20140476D01*
X9820000Y-20378572D02*
X9810476Y-20369048D01*
X9791428Y-20340476D01*
X9781905Y-20321429D01*
X9772381Y-20292857D01*
X9762857Y-20245238D01*
X9762857Y-20207143D01*
X9772381Y-20159524D01*
X9781905Y-20130953D01*
X9791428Y-20111905D01*
X9810476Y-20083334D01*
X9820000Y-20073810D01*
X9981905Y-20169048D02*
X9981905Y-20302381D01*
X9934285Y-20092857D02*
X9886666Y-20235715D01*
X10010476Y-20235715D01*
X10239047Y-20302381D02*
X10239047Y-20102381D01*
X10324762Y-20302381D02*
X10324762Y-20197619D01*
X10315238Y-20178572D01*
X10296190Y-20169048D01*
X10267619Y-20169048D01*
X10248571Y-20178572D01*
X10239047Y-20188095D01*
X10448571Y-20302381D02*
X10429524Y-20292857D01*
X10420000Y-20283334D01*
X10410476Y-20264286D01*
X10410476Y-20207143D01*
X10420000Y-20188095D01*
X10429524Y-20178572D01*
X10448571Y-20169048D01*
X10477143Y-20169048D01*
X10496190Y-20178572D01*
X10505714Y-20188095D01*
X10515238Y-20207143D01*
X10515238Y-20264286D01*
X10505714Y-20283334D01*
X10496190Y-20292857D01*
X10477143Y-20302381D01*
X10448571Y-20302381D01*
X10629524Y-20302381D02*
X10610476Y-20292857D01*
X10600952Y-20273810D01*
X10600952Y-20102381D01*
X10781905Y-20292857D02*
X10762857Y-20302381D01*
X10724762Y-20302381D01*
X10705714Y-20292857D01*
X10696190Y-20273810D01*
X10696190Y-20197619D01*
X10705714Y-20178572D01*
X10724762Y-20169048D01*
X10762857Y-20169048D01*
X10781905Y-20178572D01*
X10791428Y-20197619D01*
X10791428Y-20216667D01*
X10696190Y-20235715D01*
X10867619Y-20292857D02*
X10886666Y-20302381D01*
X10924762Y-20302381D01*
X10943809Y-20292857D01*
X10953333Y-20273810D01*
X10953333Y-20264286D01*
X10943809Y-20245238D01*
X10924762Y-20235715D01*
X10896190Y-20235715D01*
X10877143Y-20226191D01*
X10867619Y-20207143D01*
X10867619Y-20197619D01*
X10877143Y-20178572D01*
X10896190Y-20169048D01*
X10924762Y-20169048D01*
X10943809Y-20178572D01*
X11020000Y-20378572D02*
X11029524Y-20369048D01*
X11048571Y-20340476D01*
X11058095Y-20321429D01*
X11067619Y-20292857D01*
X11077143Y-20245238D01*
X11077143Y-20207143D01*
X11067619Y-20159524D01*
X11058095Y-20130953D01*
X11048571Y-20111905D01*
X11029524Y-20083334D01*
X11020000Y-20073810D01*
D18*
X6148095Y-20425905D02*
X6248095Y-20525905D01*
X6248095Y-20425905D02*
X6148095Y-20525905D01*
X6198095Y-20425905D02*
X6198095Y-20525905D01*
X6148095Y-20475905D02*
X6248095Y-20475905D01*
D11*
X6610476Y-20566381D02*
X6496190Y-20566381D01*
X6553333Y-20566381D02*
X6553333Y-20366381D01*
X6534285Y-20394953D01*
X6515238Y-20414000D01*
X6496190Y-20423524D01*
X6696190Y-20547334D02*
X6705714Y-20556857D01*
X6696190Y-20566381D01*
X6686666Y-20556857D01*
X6696190Y-20547334D01*
X6696190Y-20566381D01*
X6829523Y-20366381D02*
X6848571Y-20366381D01*
X6867619Y-20375905D01*
X6877143Y-20385429D01*
X6886666Y-20404476D01*
X6896190Y-20442572D01*
X6896190Y-20490191D01*
X6886666Y-20528286D01*
X6877143Y-20547334D01*
X6867619Y-20556857D01*
X6848571Y-20566381D01*
X6829523Y-20566381D01*
X6810476Y-20556857D01*
X6800952Y-20547334D01*
X6791428Y-20528286D01*
X6781904Y-20490191D01*
X6781904Y-20442572D01*
X6791428Y-20404476D01*
X6800952Y-20385429D01*
X6810476Y-20375905D01*
X6829523Y-20366381D01*
X7020000Y-20366381D02*
X7039047Y-20366381D01*
X7058095Y-20375905D01*
X7067619Y-20385429D01*
X7077143Y-20404476D01*
X7086666Y-20442572D01*
X7086666Y-20490191D01*
X7077143Y-20528286D01*
X7067619Y-20547334D01*
X7058095Y-20556857D01*
X7039047Y-20566381D01*
X7020000Y-20566381D01*
X7000952Y-20556857D01*
X6991428Y-20547334D01*
X6981904Y-20528286D01*
X6972381Y-20490191D01*
X6972381Y-20442572D01*
X6981904Y-20404476D01*
X6991428Y-20385429D01*
X7000952Y-20375905D01*
X7020000Y-20366381D01*
X7210476Y-20366381D02*
X7229523Y-20366381D01*
X7248571Y-20375905D01*
X7258095Y-20385429D01*
X7267619Y-20404476D01*
X7277143Y-20442572D01*
X7277143Y-20490191D01*
X7267619Y-20528286D01*
X7258095Y-20547334D01*
X7248571Y-20556857D01*
X7229523Y-20566381D01*
X7210476Y-20566381D01*
X7191428Y-20556857D01*
X7181904Y-20547334D01*
X7172381Y-20528286D01*
X7162857Y-20490191D01*
X7162857Y-20442572D01*
X7172381Y-20404476D01*
X7181904Y-20385429D01*
X7191428Y-20375905D01*
X7210476Y-20366381D01*
X7362857Y-20566381D02*
X7362857Y-20433048D01*
X7362857Y-20452095D02*
X7372381Y-20442572D01*
X7391428Y-20433048D01*
X7420000Y-20433048D01*
X7439047Y-20442572D01*
X7448571Y-20461619D01*
X7448571Y-20566381D01*
X7448571Y-20461619D02*
X7458095Y-20442572D01*
X7477143Y-20433048D01*
X7505714Y-20433048D01*
X7524762Y-20442572D01*
X7534285Y-20461619D01*
X7534285Y-20566381D01*
X7629523Y-20566381D02*
X7629523Y-20433048D01*
X7629523Y-20452095D02*
X7639047Y-20442572D01*
X7658095Y-20433048D01*
X7686666Y-20433048D01*
X7705714Y-20442572D01*
X7715238Y-20461619D01*
X7715238Y-20566381D01*
X7715238Y-20461619D02*
X7724762Y-20442572D01*
X7743809Y-20433048D01*
X7772381Y-20433048D01*
X7791428Y-20442572D01*
X7800952Y-20461619D01*
X7800952Y-20566381D01*
X8191428Y-20356857D02*
X8020000Y-20614000D01*
X8448571Y-20366381D02*
X8467619Y-20366381D01*
X8486666Y-20375905D01*
X8496190Y-20385429D01*
X8505714Y-20404476D01*
X8515238Y-20442572D01*
X8515238Y-20490191D01*
X8505714Y-20528286D01*
X8496190Y-20547334D01*
X8486666Y-20556857D01*
X8467619Y-20566381D01*
X8448571Y-20566381D01*
X8429524Y-20556857D01*
X8420000Y-20547334D01*
X8410476Y-20528286D01*
X8400952Y-20490191D01*
X8400952Y-20442572D01*
X8410476Y-20404476D01*
X8420000Y-20385429D01*
X8429524Y-20375905D01*
X8448571Y-20366381D01*
X8600952Y-20547334D02*
X8610476Y-20556857D01*
X8600952Y-20566381D01*
X8591428Y-20556857D01*
X8600952Y-20547334D01*
X8600952Y-20566381D01*
X8734285Y-20366381D02*
X8753333Y-20366381D01*
X8772381Y-20375905D01*
X8781905Y-20385429D01*
X8791428Y-20404476D01*
X8800952Y-20442572D01*
X8800952Y-20490191D01*
X8791428Y-20528286D01*
X8781905Y-20547334D01*
X8772381Y-20556857D01*
X8753333Y-20566381D01*
X8734285Y-20566381D01*
X8715238Y-20556857D01*
X8705714Y-20547334D01*
X8696190Y-20528286D01*
X8686666Y-20490191D01*
X8686666Y-20442572D01*
X8696190Y-20404476D01*
X8705714Y-20385429D01*
X8715238Y-20375905D01*
X8734285Y-20366381D01*
X8867619Y-20366381D02*
X8991428Y-20366381D01*
X8924762Y-20442572D01*
X8953333Y-20442572D01*
X8972381Y-20452095D01*
X8981905Y-20461619D01*
X8991428Y-20480667D01*
X8991428Y-20528286D01*
X8981905Y-20547334D01*
X8972381Y-20556857D01*
X8953333Y-20566381D01*
X8896190Y-20566381D01*
X8877143Y-20556857D01*
X8867619Y-20547334D01*
X9086666Y-20566381D02*
X9124762Y-20566381D01*
X9143809Y-20556857D01*
X9153333Y-20547334D01*
X9172381Y-20518762D01*
X9181905Y-20480667D01*
X9181905Y-20404476D01*
X9172381Y-20385429D01*
X9162857Y-20375905D01*
X9143809Y-20366381D01*
X9105714Y-20366381D01*
X9086666Y-20375905D01*
X9077143Y-20385429D01*
X9067619Y-20404476D01*
X9067619Y-20452095D01*
X9077143Y-20471143D01*
X9086666Y-20480667D01*
X9105714Y-20490191D01*
X9143809Y-20490191D01*
X9162857Y-20480667D01*
X9172381Y-20471143D01*
X9181905Y-20452095D01*
X9353333Y-20433048D02*
X9353333Y-20566381D01*
X9305714Y-20356857D02*
X9258095Y-20499715D01*
X9381905Y-20499715D01*
X9448571Y-20366381D02*
X9448571Y-20404476D01*
X9524762Y-20366381D02*
X9524762Y-20404476D01*
X9820000Y-20642572D02*
X9810476Y-20633048D01*
X9791428Y-20604476D01*
X9781905Y-20585429D01*
X9772381Y-20556857D01*
X9762857Y-20509238D01*
X9762857Y-20471143D01*
X9772381Y-20423524D01*
X9781905Y-20394953D01*
X9791428Y-20375905D01*
X9810476Y-20347334D01*
X9820000Y-20337810D01*
X9877143Y-20366381D02*
X10010476Y-20366381D01*
X9924762Y-20566381D01*
X10067619Y-20366381D02*
X10200952Y-20366381D01*
X10115238Y-20566381D01*
X10429524Y-20566381D02*
X10429524Y-20366381D01*
X10515238Y-20566381D02*
X10515238Y-20461619D01*
X10505714Y-20442572D01*
X10486666Y-20433048D01*
X10458095Y-20433048D01*
X10439047Y-20442572D01*
X10429524Y-20452095D01*
X10639047Y-20566381D02*
X10620000Y-20556857D01*
X10610476Y-20547334D01*
X10600952Y-20528286D01*
X10600952Y-20471143D01*
X10610476Y-20452095D01*
X10620000Y-20442572D01*
X10639047Y-20433048D01*
X10667619Y-20433048D01*
X10686666Y-20442572D01*
X10696190Y-20452095D01*
X10705714Y-20471143D01*
X10705714Y-20528286D01*
X10696190Y-20547334D01*
X10686666Y-20556857D01*
X10667619Y-20566381D01*
X10639047Y-20566381D01*
X10820000Y-20566381D02*
X10800952Y-20556857D01*
X10791428Y-20537810D01*
X10791428Y-20366381D01*
X10972381Y-20556857D02*
X10953333Y-20566381D01*
X10915238Y-20566381D01*
X10896190Y-20556857D01*
X10886666Y-20537810D01*
X10886666Y-20461619D01*
X10896190Y-20442572D01*
X10915238Y-20433048D01*
X10953333Y-20433048D01*
X10972381Y-20442572D01*
X10981905Y-20461619D01*
X10981905Y-20480667D01*
X10886666Y-20499715D01*
X11058095Y-20556857D02*
X11077143Y-20566381D01*
X11115238Y-20566381D01*
X11134285Y-20556857D01*
X11143809Y-20537810D01*
X11143809Y-20528286D01*
X11134285Y-20509238D01*
X11115238Y-20499715D01*
X11086666Y-20499715D01*
X11067619Y-20490191D01*
X11058095Y-20471143D01*
X11058095Y-20461619D01*
X11067619Y-20442572D01*
X11086666Y-20433048D01*
X11115238Y-20433048D01*
X11134285Y-20442572D01*
X11210476Y-20642572D02*
X11220000Y-20633048D01*
X11239047Y-20604476D01*
X11248571Y-20585429D01*
X11258095Y-20556857D01*
X11267619Y-20509238D01*
X11267619Y-20471143D01*
X11258095Y-20423524D01*
X11248571Y-20394953D01*
X11239047Y-20375905D01*
X11220000Y-20347334D01*
X11210476Y-20337810D01*
D19*
X6108095Y-20669905D02*
X6248095Y-20809905D01*
X6248095Y-20669905D02*
X6108095Y-20809905D01*
X6227593Y-20789403D02*
X6227593Y-20690407D01*
X6128597Y-20690407D01*
X6128597Y-20789403D01*
X6227593Y-20789403D01*
D11*
X6610476Y-20830381D02*
X6496190Y-20830381D01*
X6553333Y-20830381D02*
X6553333Y-20630381D01*
X6534285Y-20658953D01*
X6515238Y-20678000D01*
X6496190Y-20687524D01*
X6696190Y-20811334D02*
X6705714Y-20820857D01*
X6696190Y-20830381D01*
X6686666Y-20820857D01*
X6696190Y-20811334D01*
X6696190Y-20830381D01*
X6877143Y-20697048D02*
X6877143Y-20830381D01*
X6829523Y-20620857D02*
X6781904Y-20763715D01*
X6905714Y-20763715D01*
X7020000Y-20630381D02*
X7039047Y-20630381D01*
X7058095Y-20639905D01*
X7067619Y-20649429D01*
X7077143Y-20668476D01*
X7086666Y-20706572D01*
X7086666Y-20754191D01*
X7077143Y-20792286D01*
X7067619Y-20811334D01*
X7058095Y-20820857D01*
X7039047Y-20830381D01*
X7020000Y-20830381D01*
X7000952Y-20820857D01*
X6991428Y-20811334D01*
X6981904Y-20792286D01*
X6972381Y-20754191D01*
X6972381Y-20706572D01*
X6981904Y-20668476D01*
X6991428Y-20649429D01*
X7000952Y-20639905D01*
X7020000Y-20630381D01*
X7210476Y-20630381D02*
X7229523Y-20630381D01*
X7248571Y-20639905D01*
X7258095Y-20649429D01*
X7267619Y-20668476D01*
X7277143Y-20706572D01*
X7277143Y-20754191D01*
X7267619Y-20792286D01*
X7258095Y-20811334D01*
X7248571Y-20820857D01*
X7229523Y-20830381D01*
X7210476Y-20830381D01*
X7191428Y-20820857D01*
X7181904Y-20811334D01*
X7172381Y-20792286D01*
X7162857Y-20754191D01*
X7162857Y-20706572D01*
X7172381Y-20668476D01*
X7181904Y-20649429D01*
X7191428Y-20639905D01*
X7210476Y-20630381D01*
X7362857Y-20830381D02*
X7362857Y-20697048D01*
X7362857Y-20716095D02*
X7372381Y-20706572D01*
X7391428Y-20697048D01*
X7420000Y-20697048D01*
X7439047Y-20706572D01*
X7448571Y-20725619D01*
X7448571Y-20830381D01*
X7448571Y-20725619D02*
X7458095Y-20706572D01*
X7477143Y-20697048D01*
X7505714Y-20697048D01*
X7524762Y-20706572D01*
X7534285Y-20725619D01*
X7534285Y-20830381D01*
X7629523Y-20830381D02*
X7629523Y-20697048D01*
X7629523Y-20716095D02*
X7639047Y-20706572D01*
X7658095Y-20697048D01*
X7686666Y-20697048D01*
X7705714Y-20706572D01*
X7715238Y-20725619D01*
X7715238Y-20830381D01*
X7715238Y-20725619D02*
X7724762Y-20706572D01*
X7743809Y-20697048D01*
X7772381Y-20697048D01*
X7791428Y-20706572D01*
X7800952Y-20725619D01*
X7800952Y-20830381D01*
X8191428Y-20620857D02*
X8020000Y-20878000D01*
X8448571Y-20630381D02*
X8467619Y-20630381D01*
X8486666Y-20639905D01*
X8496190Y-20649429D01*
X8505714Y-20668476D01*
X8515238Y-20706572D01*
X8515238Y-20754191D01*
X8505714Y-20792286D01*
X8496190Y-20811334D01*
X8486666Y-20820857D01*
X8467619Y-20830381D01*
X8448571Y-20830381D01*
X8429524Y-20820857D01*
X8420000Y-20811334D01*
X8410476Y-20792286D01*
X8400952Y-20754191D01*
X8400952Y-20706572D01*
X8410476Y-20668476D01*
X8420000Y-20649429D01*
X8429524Y-20639905D01*
X8448571Y-20630381D01*
X8600952Y-20811334D02*
X8610476Y-20820857D01*
X8600952Y-20830381D01*
X8591428Y-20820857D01*
X8600952Y-20811334D01*
X8600952Y-20830381D01*
X8734285Y-20630381D02*
X8753333Y-20630381D01*
X8772381Y-20639905D01*
X8781905Y-20649429D01*
X8791428Y-20668476D01*
X8800952Y-20706572D01*
X8800952Y-20754191D01*
X8791428Y-20792286D01*
X8781905Y-20811334D01*
X8772381Y-20820857D01*
X8753333Y-20830381D01*
X8734285Y-20830381D01*
X8715238Y-20820857D01*
X8705714Y-20811334D01*
X8696190Y-20792286D01*
X8686666Y-20754191D01*
X8686666Y-20706572D01*
X8696190Y-20668476D01*
X8705714Y-20649429D01*
X8715238Y-20639905D01*
X8734285Y-20630381D01*
X8981905Y-20630381D02*
X8886666Y-20630381D01*
X8877143Y-20725619D01*
X8886666Y-20716095D01*
X8905714Y-20706572D01*
X8953333Y-20706572D01*
X8972381Y-20716095D01*
X8981905Y-20725619D01*
X8991428Y-20744667D01*
X8991428Y-20792286D01*
X8981905Y-20811334D01*
X8972381Y-20820857D01*
X8953333Y-20830381D01*
X8905714Y-20830381D01*
X8886666Y-20820857D01*
X8877143Y-20811334D01*
X9172381Y-20630381D02*
X9077143Y-20630381D01*
X9067619Y-20725619D01*
X9077143Y-20716095D01*
X9096190Y-20706572D01*
X9143809Y-20706572D01*
X9162857Y-20716095D01*
X9172381Y-20725619D01*
X9181905Y-20744667D01*
X9181905Y-20792286D01*
X9172381Y-20811334D01*
X9162857Y-20820857D01*
X9143809Y-20830381D01*
X9096190Y-20830381D01*
X9077143Y-20820857D01*
X9067619Y-20811334D01*
X9372381Y-20830381D02*
X9258095Y-20830381D01*
X9315238Y-20830381D02*
X9315238Y-20630381D01*
X9296190Y-20658953D01*
X9277143Y-20678000D01*
X9258095Y-20687524D01*
X9448571Y-20630381D02*
X9448571Y-20668476D01*
X9524762Y-20630381D02*
X9524762Y-20668476D01*
X9820000Y-20906572D02*
X9810476Y-20897048D01*
X9791428Y-20868476D01*
X9781905Y-20849429D01*
X9772381Y-20820857D01*
X9762857Y-20773238D01*
X9762857Y-20735143D01*
X9772381Y-20687524D01*
X9781905Y-20658953D01*
X9791428Y-20639905D01*
X9810476Y-20611334D01*
X9820000Y-20601810D01*
X9886666Y-20649429D02*
X9896190Y-20639905D01*
X9915238Y-20630381D01*
X9962857Y-20630381D01*
X9981905Y-20639905D01*
X9991428Y-20649429D01*
X10000952Y-20668476D01*
X10000952Y-20687524D01*
X9991428Y-20716095D01*
X9877143Y-20830381D01*
X10000952Y-20830381D01*
X10239047Y-20830381D02*
X10239047Y-20630381D01*
X10324762Y-20830381D02*
X10324762Y-20725619D01*
X10315238Y-20706572D01*
X10296190Y-20697048D01*
X10267619Y-20697048D01*
X10248571Y-20706572D01*
X10239047Y-20716095D01*
X10448571Y-20830381D02*
X10429524Y-20820857D01*
X10420000Y-20811334D01*
X10410476Y-20792286D01*
X10410476Y-20735143D01*
X10420000Y-20716095D01*
X10429524Y-20706572D01*
X10448571Y-20697048D01*
X10477143Y-20697048D01*
X10496190Y-20706572D01*
X10505714Y-20716095D01*
X10515238Y-20735143D01*
X10515238Y-20792286D01*
X10505714Y-20811334D01*
X10496190Y-20820857D01*
X10477143Y-20830381D01*
X10448571Y-20830381D01*
X10629524Y-20830381D02*
X10610476Y-20820857D01*
X10600952Y-20801810D01*
X10600952Y-20630381D01*
X10781905Y-20820857D02*
X10762857Y-20830381D01*
X10724762Y-20830381D01*
X10705714Y-20820857D01*
X10696190Y-20801810D01*
X10696190Y-20725619D01*
X10705714Y-20706572D01*
X10724762Y-20697048D01*
X10762857Y-20697048D01*
X10781905Y-20706572D01*
X10791428Y-20725619D01*
X10791428Y-20744667D01*
X10696190Y-20763715D01*
X10867619Y-20820857D02*
X10886666Y-20830381D01*
X10924762Y-20830381D01*
X10943809Y-20820857D01*
X10953333Y-20801810D01*
X10953333Y-20792286D01*
X10943809Y-20773238D01*
X10924762Y-20763715D01*
X10896190Y-20763715D01*
X10877143Y-20754191D01*
X10867619Y-20735143D01*
X10867619Y-20725619D01*
X10877143Y-20706572D01*
X10896190Y-20697048D01*
X10924762Y-20697048D01*
X10943809Y-20706572D01*
X11020000Y-20906572D02*
X11029524Y-20897048D01*
X11048571Y-20868476D01*
X11058095Y-20849429D01*
X11067619Y-20820857D01*
X11077143Y-20773238D01*
X11077143Y-20735143D01*
X11067619Y-20687524D01*
X11058095Y-20658953D01*
X11048571Y-20639905D01*
X11029524Y-20611334D01*
X11020000Y-20601810D01*
X6048095Y-20903905D02*
X6248095Y-21103905D01*
X6248095Y-20903905D02*
X6048095Y-21103905D01*
X6148095Y-21103905D02*
X6248095Y-21003905D01*
X6148095Y-20903905D01*
X6048095Y-21003905D01*
X6148095Y-21103905D01*
X6591428Y-20961048D02*
X6591428Y-21094381D01*
X6543809Y-20884857D02*
X6496190Y-21027715D01*
X6620000Y-21027715D01*
X6696190Y-21075334D02*
X6705714Y-21084857D01*
X6696190Y-21094381D01*
X6686666Y-21084857D01*
X6696190Y-21075334D01*
X6696190Y-21094381D01*
X6772381Y-20894381D02*
X6896190Y-20894381D01*
X6829523Y-20970572D01*
X6858095Y-20970572D01*
X6877143Y-20980095D01*
X6886666Y-20989619D01*
X6896190Y-21008667D01*
X6896190Y-21056286D01*
X6886666Y-21075334D01*
X6877143Y-21084857D01*
X6858095Y-21094381D01*
X6800952Y-21094381D01*
X6781904Y-21084857D01*
X6772381Y-21075334D01*
X7020000Y-20894381D02*
X7039047Y-20894381D01*
X7058095Y-20903905D01*
X7067619Y-20913429D01*
X7077143Y-20932476D01*
X7086666Y-20970572D01*
X7086666Y-21018191D01*
X7077143Y-21056286D01*
X7067619Y-21075334D01*
X7058095Y-21084857D01*
X7039047Y-21094381D01*
X7020000Y-21094381D01*
X7000952Y-21084857D01*
X6991428Y-21075334D01*
X6981904Y-21056286D01*
X6972381Y-21018191D01*
X6972381Y-20970572D01*
X6981904Y-20932476D01*
X6991428Y-20913429D01*
X7000952Y-20903905D01*
X7020000Y-20894381D01*
X7210476Y-20894381D02*
X7229523Y-20894381D01*
X7248571Y-20903905D01*
X7258095Y-20913429D01*
X7267619Y-20932476D01*
X7277143Y-20970572D01*
X7277143Y-21018191D01*
X7267619Y-21056286D01*
X7258095Y-21075334D01*
X7248571Y-21084857D01*
X7229523Y-21094381D01*
X7210476Y-21094381D01*
X7191428Y-21084857D01*
X7181904Y-21075334D01*
X7172381Y-21056286D01*
X7162857Y-21018191D01*
X7162857Y-20970572D01*
X7172381Y-20932476D01*
X7181904Y-20913429D01*
X7191428Y-20903905D01*
X7210476Y-20894381D01*
X7362857Y-21094381D02*
X7362857Y-20961048D01*
X7362857Y-20980095D02*
X7372381Y-20970572D01*
X7391428Y-20961048D01*
X7420000Y-20961048D01*
X7439047Y-20970572D01*
X7448571Y-20989619D01*
X7448571Y-21094381D01*
X7448571Y-20989619D02*
X7458095Y-20970572D01*
X7477143Y-20961048D01*
X7505714Y-20961048D01*
X7524762Y-20970572D01*
X7534285Y-20989619D01*
X7534285Y-21094381D01*
X7629523Y-21094381D02*
X7629523Y-20961048D01*
X7629523Y-20980095D02*
X7639047Y-20970572D01*
X7658095Y-20961048D01*
X7686666Y-20961048D01*
X7705714Y-20970572D01*
X7715238Y-20989619D01*
X7715238Y-21094381D01*
X7715238Y-20989619D02*
X7724762Y-20970572D01*
X7743809Y-20961048D01*
X7772381Y-20961048D01*
X7791428Y-20970572D01*
X7800952Y-20989619D01*
X7800952Y-21094381D01*
X8191428Y-20884857D02*
X8020000Y-21142000D01*
X8448571Y-20894381D02*
X8467619Y-20894381D01*
X8486666Y-20903905D01*
X8496190Y-20913429D01*
X8505714Y-20932476D01*
X8515238Y-20970572D01*
X8515238Y-21018191D01*
X8505714Y-21056286D01*
X8496190Y-21075334D01*
X8486666Y-21084857D01*
X8467619Y-21094381D01*
X8448571Y-21094381D01*
X8429524Y-21084857D01*
X8420000Y-21075334D01*
X8410476Y-21056286D01*
X8400952Y-21018191D01*
X8400952Y-20970572D01*
X8410476Y-20932476D01*
X8420000Y-20913429D01*
X8429524Y-20903905D01*
X8448571Y-20894381D01*
X8600952Y-21075334D02*
X8610476Y-21084857D01*
X8600952Y-21094381D01*
X8591428Y-21084857D01*
X8600952Y-21075334D01*
X8600952Y-21094381D01*
X8800952Y-21094381D02*
X8686666Y-21094381D01*
X8743809Y-21094381D02*
X8743809Y-20894381D01*
X8724762Y-20922953D01*
X8705714Y-20942000D01*
X8686666Y-20951524D01*
X8972381Y-20894381D02*
X8934285Y-20894381D01*
X8915238Y-20903905D01*
X8905714Y-20913429D01*
X8886666Y-20942000D01*
X8877143Y-20980095D01*
X8877143Y-21056286D01*
X8886666Y-21075334D01*
X8896190Y-21084857D01*
X8915238Y-21094381D01*
X8953333Y-21094381D01*
X8972381Y-21084857D01*
X8981905Y-21075334D01*
X8991428Y-21056286D01*
X8991428Y-21008667D01*
X8981905Y-20989619D01*
X8972381Y-20980095D01*
X8953333Y-20970572D01*
X8915238Y-20970572D01*
X8896190Y-20980095D01*
X8886666Y-20989619D01*
X8877143Y-21008667D01*
X9086666Y-21094381D02*
X9124762Y-21094381D01*
X9143809Y-21084857D01*
X9153333Y-21075334D01*
X9172381Y-21046762D01*
X9181905Y-21008667D01*
X9181905Y-20932476D01*
X9172381Y-20913429D01*
X9162857Y-20903905D01*
X9143809Y-20894381D01*
X9105714Y-20894381D01*
X9086666Y-20903905D01*
X9077143Y-20913429D01*
X9067619Y-20932476D01*
X9067619Y-20980095D01*
X9077143Y-20999143D01*
X9086666Y-21008667D01*
X9105714Y-21018191D01*
X9143809Y-21018191D01*
X9162857Y-21008667D01*
X9172381Y-20999143D01*
X9181905Y-20980095D01*
X9248571Y-20894381D02*
X9372381Y-20894381D01*
X9305714Y-20970572D01*
X9334285Y-20970572D01*
X9353333Y-20980095D01*
X9362857Y-20989619D01*
X9372381Y-21008667D01*
X9372381Y-21056286D01*
X9362857Y-21075334D01*
X9353333Y-21084857D01*
X9334285Y-21094381D01*
X9277143Y-21094381D01*
X9258095Y-21084857D01*
X9248571Y-21075334D01*
X9448571Y-20894381D02*
X9448571Y-20932476D01*
X9524762Y-20894381D02*
X9524762Y-20932476D01*
X9820000Y-21170572D02*
X9810476Y-21161048D01*
X9791428Y-21132476D01*
X9781905Y-21113429D01*
X9772381Y-21084857D01*
X9762857Y-21037238D01*
X9762857Y-20999143D01*
X9772381Y-20951524D01*
X9781905Y-20922953D01*
X9791428Y-20903905D01*
X9810476Y-20875334D01*
X9820000Y-20865810D01*
X9981905Y-20961048D02*
X9981905Y-21094381D01*
X9934285Y-20884857D02*
X9886666Y-21027715D01*
X10010476Y-21027715D01*
X10239047Y-21094381D02*
X10239047Y-20894381D01*
X10324762Y-21094381D02*
X10324762Y-20989619D01*
X10315238Y-20970572D01*
X10296190Y-20961048D01*
X10267619Y-20961048D01*
X10248571Y-20970572D01*
X10239047Y-20980095D01*
X10448571Y-21094381D02*
X10429524Y-21084857D01*
X10420000Y-21075334D01*
X10410476Y-21056286D01*
X10410476Y-20999143D01*
X10420000Y-20980095D01*
X10429524Y-20970572D01*
X10448571Y-20961048D01*
X10477143Y-20961048D01*
X10496190Y-20970572D01*
X10505714Y-20980095D01*
X10515238Y-20999143D01*
X10515238Y-21056286D01*
X10505714Y-21075334D01*
X10496190Y-21084857D01*
X10477143Y-21094381D01*
X10448571Y-21094381D01*
X10629524Y-21094381D02*
X10610476Y-21084857D01*
X10600952Y-21065810D01*
X10600952Y-20894381D01*
X10781905Y-21084857D02*
X10762857Y-21094381D01*
X10724762Y-21094381D01*
X10705714Y-21084857D01*
X10696190Y-21065810D01*
X10696190Y-20989619D01*
X10705714Y-20970572D01*
X10724762Y-20961048D01*
X10762857Y-20961048D01*
X10781905Y-20970572D01*
X10791428Y-20989619D01*
X10791428Y-21008667D01*
X10696190Y-21027715D01*
X10867619Y-21084857D02*
X10886666Y-21094381D01*
X10924762Y-21094381D01*
X10943809Y-21084857D01*
X10953333Y-21065810D01*
X10953333Y-21056286D01*
X10943809Y-21037238D01*
X10924762Y-21027715D01*
X10896190Y-21027715D01*
X10877143Y-21018191D01*
X10867619Y-20999143D01*
X10867619Y-20989619D01*
X10877143Y-20970572D01*
X10896190Y-20961048D01*
X10924762Y-20961048D01*
X10943809Y-20970572D01*
X11020000Y-21170572D02*
X11029524Y-21161048D01*
X11048571Y-21132476D01*
X11058095Y-21113429D01*
X11067619Y-21084857D01*
X11077143Y-21037238D01*
X11077143Y-20999143D01*
X11067619Y-20951524D01*
X11058095Y-20922953D01*
X11048571Y-20903905D01*
X11029524Y-20875334D01*
X11020000Y-20865810D01*
M02*
