G04 #@! TF.GenerationSoftware,KiCad,Pcbnew,5.1.5+dfsg1-2build2*
G04 #@! TF.CreationDate,2022-04-23T15:18:04+02:00*
G04 #@! TF.ProjectId,vogelhuisje_kicad,766f6765-6c68-4756-9973-6a655f6b6963,rev?*
G04 #@! TF.SameCoordinates,Original*
G04 #@! TF.FileFunction,Soldermask,Top*
G04 #@! TF.FilePolarity,Negative*
%FSLAX46Y46*%
G04 Gerber Fmt 4.6, Leading zero omitted, Abs format (unit mm)*
G04 Created by KiCad (PCBNEW 5.1.5+dfsg1-2build2) date 2022-04-23 15:18:04*
%MOMM*%
%LPD*%
G04 APERTURE LIST*
%ADD10C,0.100000*%
G04 APERTURE END LIST*
D10*
G36*
X92958228Y-104591703D02*
G01*
X93113100Y-104655853D01*
X93252481Y-104748985D01*
X93371015Y-104867519D01*
X93464147Y-105006900D01*
X93528297Y-105161772D01*
X93561000Y-105326184D01*
X93561000Y-105493816D01*
X93528297Y-105658228D01*
X93464147Y-105813100D01*
X93371015Y-105952481D01*
X93252481Y-106071015D01*
X93113100Y-106164147D01*
X92958228Y-106228297D01*
X92793816Y-106261000D01*
X92626184Y-106261000D01*
X92461772Y-106228297D01*
X92306900Y-106164147D01*
X92167519Y-106071015D01*
X92048985Y-105952481D01*
X91955853Y-105813100D01*
X91891703Y-105658228D01*
X91859000Y-105493816D01*
X91859000Y-105326184D01*
X91891703Y-105161772D01*
X91955853Y-105006900D01*
X92048985Y-104867519D01*
X92167519Y-104748985D01*
X92306900Y-104655853D01*
X92461772Y-104591703D01*
X92626184Y-104559000D01*
X92793816Y-104559000D01*
X92958228Y-104591703D01*
G37*
G36*
X85338228Y-104591703D02*
G01*
X85493100Y-104655853D01*
X85632481Y-104748985D01*
X85751015Y-104867519D01*
X85844147Y-105006900D01*
X85908297Y-105161772D01*
X85941000Y-105326184D01*
X85941000Y-105493816D01*
X85908297Y-105658228D01*
X85844147Y-105813100D01*
X85751015Y-105952481D01*
X85632481Y-106071015D01*
X85493100Y-106164147D01*
X85338228Y-106228297D01*
X85173816Y-106261000D01*
X85006184Y-106261000D01*
X84841772Y-106228297D01*
X84686900Y-106164147D01*
X84547519Y-106071015D01*
X84428985Y-105952481D01*
X84335853Y-105813100D01*
X84271703Y-105658228D01*
X84239000Y-105493816D01*
X84239000Y-105326184D01*
X84271703Y-105161772D01*
X84335853Y-105006900D01*
X84428985Y-104867519D01*
X84547519Y-104748985D01*
X84686900Y-104655853D01*
X84841772Y-104591703D01*
X85006184Y-104559000D01*
X85173816Y-104559000D01*
X85338228Y-104591703D01*
G37*
G36*
X102081000Y-103921000D02*
G01*
X97979000Y-103921000D01*
X97979000Y-99819000D01*
X102081000Y-99819000D01*
X102081000Y-103921000D01*
G37*
G36*
X77981000Y-103921000D02*
G01*
X73879000Y-103921000D01*
X73879000Y-99819000D01*
X77981000Y-99819000D01*
X77981000Y-103921000D01*
G37*
G36*
X112222585Y-97563802D02*
G01*
X112372410Y-97593604D01*
X112654674Y-97710521D01*
X112908705Y-97880259D01*
X113124741Y-98096295D01*
X113294479Y-98350326D01*
X113411396Y-98632590D01*
X113411396Y-98632591D01*
X113453255Y-98843027D01*
X113471000Y-98932240D01*
X113471000Y-99237760D01*
X113411396Y-99537410D01*
X113294479Y-99819674D01*
X113124741Y-100073705D01*
X112908705Y-100289741D01*
X112654674Y-100459479D01*
X112372410Y-100576396D01*
X112222585Y-100606198D01*
X112072761Y-100636000D01*
X111767239Y-100636000D01*
X111617415Y-100606198D01*
X111467590Y-100576396D01*
X111185326Y-100459479D01*
X110931295Y-100289741D01*
X110715259Y-100073705D01*
X110545521Y-99819674D01*
X110428604Y-99537410D01*
X110369000Y-99237760D01*
X110369000Y-98932240D01*
X110386746Y-98843027D01*
X110428604Y-98632591D01*
X110428604Y-98632590D01*
X110545521Y-98350326D01*
X110715259Y-98096295D01*
X110931295Y-97880259D01*
X111185326Y-97710521D01*
X111467590Y-97593604D01*
X111617415Y-97563802D01*
X111767239Y-97534000D01*
X112072761Y-97534000D01*
X112222585Y-97563802D01*
G37*
G36*
X129822585Y-97563802D02*
G01*
X129972410Y-97593604D01*
X130254674Y-97710521D01*
X130508705Y-97880259D01*
X130724741Y-98096295D01*
X130894479Y-98350326D01*
X131011396Y-98632590D01*
X131011396Y-98632591D01*
X131053255Y-98843027D01*
X131071000Y-98932240D01*
X131071000Y-99237760D01*
X131011396Y-99537410D01*
X130894479Y-99819674D01*
X130724741Y-100073705D01*
X130508705Y-100289741D01*
X130254674Y-100459479D01*
X129972410Y-100576396D01*
X129822585Y-100606198D01*
X129672761Y-100636000D01*
X129367239Y-100636000D01*
X129217415Y-100606198D01*
X129067590Y-100576396D01*
X128785326Y-100459479D01*
X128531295Y-100289741D01*
X128315259Y-100073705D01*
X128145521Y-99819674D01*
X128028604Y-99537410D01*
X127969000Y-99237760D01*
X127969000Y-98932240D01*
X127986746Y-98843027D01*
X128028604Y-98632591D01*
X128028604Y-98632590D01*
X128145521Y-98350326D01*
X128315259Y-98096295D01*
X128531295Y-97880259D01*
X128785326Y-97710521D01*
X129067590Y-97593604D01*
X129217415Y-97563802D01*
X129367239Y-97534000D01*
X129672761Y-97534000D01*
X129822585Y-97563802D01*
G37*
G36*
X102081000Y-99521000D02*
G01*
X97979000Y-99521000D01*
X97979000Y-95419000D01*
X102081000Y-95419000D01*
X102081000Y-99521000D01*
G37*
G36*
X75558015Y-97756973D02*
G01*
X75661879Y-97788479D01*
X75689055Y-97803005D01*
X75757600Y-97839643D01*
X75841501Y-97908499D01*
X75910357Y-97992400D01*
X75946995Y-98060945D01*
X75961521Y-98088121D01*
X75993027Y-98191985D01*
X76003666Y-98300000D01*
X75993027Y-98408015D01*
X75961521Y-98511879D01*
X75961519Y-98511882D01*
X75910357Y-98607600D01*
X75841501Y-98691501D01*
X75757600Y-98760357D01*
X75689055Y-98796995D01*
X75661879Y-98811521D01*
X75558015Y-98843027D01*
X75477067Y-98851000D01*
X74822933Y-98851000D01*
X74741985Y-98843027D01*
X74638121Y-98811521D01*
X74610945Y-98796995D01*
X74542400Y-98760357D01*
X74458499Y-98691501D01*
X74389643Y-98607600D01*
X74338481Y-98511882D01*
X74338479Y-98511879D01*
X74306973Y-98408015D01*
X74296334Y-98300000D01*
X74306973Y-98191985D01*
X74338479Y-98088121D01*
X74353005Y-98060945D01*
X74389643Y-97992400D01*
X74458499Y-97908499D01*
X74542400Y-97839643D01*
X74610945Y-97803005D01*
X74638121Y-97788479D01*
X74741985Y-97756973D01*
X74822933Y-97749000D01*
X75477067Y-97749000D01*
X75558015Y-97756973D01*
G37*
G36*
X79988015Y-89116973D02*
G01*
X80091879Y-89148479D01*
X80119055Y-89163005D01*
X80187600Y-89199643D01*
X80271501Y-89268499D01*
X80340357Y-89352400D01*
X80376995Y-89420945D01*
X80391521Y-89448121D01*
X80423027Y-89551985D01*
X80433666Y-89660000D01*
X80423027Y-89768015D01*
X80391521Y-89871879D01*
X80391519Y-89871882D01*
X80340357Y-89967600D01*
X80271501Y-90051501D01*
X80187600Y-90120356D01*
X80143807Y-90143764D01*
X80123437Y-90157375D01*
X80106110Y-90174702D01*
X80092496Y-90195076D01*
X80083119Y-90217715D01*
X80078338Y-90241748D01*
X80078338Y-90266252D01*
X80083118Y-90290286D01*
X80092495Y-90312924D01*
X80106109Y-90333299D01*
X80123436Y-90350626D01*
X80143810Y-90364240D01*
X80166449Y-90373617D01*
X80190482Y-90378398D01*
X80202735Y-90379000D01*
X81021000Y-90379000D01*
X81021000Y-97581000D01*
X80202735Y-97581000D01*
X80178349Y-97583402D01*
X80154900Y-97590515D01*
X80133289Y-97602066D01*
X80114347Y-97617611D01*
X80098802Y-97636553D01*
X80087251Y-97658164D01*
X80080138Y-97681613D01*
X80077736Y-97705999D01*
X80080138Y-97730385D01*
X80087251Y-97753834D01*
X80098802Y-97775445D01*
X80114347Y-97794387D01*
X80133289Y-97809932D01*
X80143802Y-97816233D01*
X80187600Y-97839644D01*
X80187602Y-97839645D01*
X80187601Y-97839645D01*
X80271501Y-97908499D01*
X80340357Y-97992400D01*
X80376995Y-98060945D01*
X80391521Y-98088121D01*
X80423027Y-98191985D01*
X80433666Y-98300000D01*
X80423027Y-98408015D01*
X80391521Y-98511879D01*
X80391519Y-98511882D01*
X80340357Y-98607600D01*
X80271501Y-98691501D01*
X80187600Y-98760357D01*
X80119055Y-98796995D01*
X80091879Y-98811521D01*
X79988015Y-98843027D01*
X79907067Y-98851000D01*
X78752933Y-98851000D01*
X78671985Y-98843027D01*
X78568121Y-98811521D01*
X78540945Y-98796995D01*
X78472400Y-98760357D01*
X78388499Y-98691501D01*
X78319643Y-98607600D01*
X78268481Y-98511882D01*
X78268479Y-98511879D01*
X78236973Y-98408015D01*
X78226334Y-98300000D01*
X78236973Y-98191985D01*
X78268479Y-98088121D01*
X78283005Y-98060945D01*
X78319643Y-97992400D01*
X78388499Y-97908499D01*
X78472400Y-97839643D01*
X78540945Y-97803005D01*
X78568121Y-97788479D01*
X78671985Y-97756973D01*
X78752933Y-97749000D01*
X79344001Y-97749000D01*
X79368387Y-97746598D01*
X79391836Y-97739485D01*
X79413447Y-97727934D01*
X79432389Y-97712389D01*
X79447934Y-97693447D01*
X79459485Y-97671836D01*
X79466598Y-97648387D01*
X79469000Y-97624001D01*
X79469000Y-90335999D01*
X79466598Y-90311613D01*
X79459485Y-90288164D01*
X79447934Y-90266553D01*
X79432389Y-90247611D01*
X79413447Y-90232066D01*
X79391836Y-90220515D01*
X79368387Y-90213402D01*
X79344001Y-90211000D01*
X78752933Y-90211000D01*
X78671985Y-90203027D01*
X78568121Y-90171521D01*
X78540945Y-90156995D01*
X78472400Y-90120357D01*
X78388499Y-90051501D01*
X78319643Y-89967600D01*
X78268481Y-89871882D01*
X78268479Y-89871879D01*
X78236973Y-89768015D01*
X78226334Y-89660000D01*
X78236973Y-89551985D01*
X78268479Y-89448121D01*
X78283005Y-89420945D01*
X78319643Y-89352400D01*
X78388499Y-89268499D01*
X78472400Y-89199643D01*
X78540945Y-89163005D01*
X78568121Y-89148479D01*
X78671985Y-89116973D01*
X78752933Y-89109000D01*
X79907067Y-89109000D01*
X79988015Y-89116973D01*
G37*
G36*
X78909672Y-96508449D02*
G01*
X78909674Y-96508450D01*
X78909675Y-96508450D01*
X78978103Y-96536793D01*
X79039686Y-96577942D01*
X79092058Y-96630314D01*
X79133207Y-96691897D01*
X79161550Y-96760325D01*
X79176000Y-96832967D01*
X79176000Y-96907033D01*
X79161550Y-96979675D01*
X79133207Y-97048103D01*
X79092058Y-97109686D01*
X79039686Y-97162058D01*
X78978103Y-97203207D01*
X78909675Y-97231550D01*
X78909674Y-97231550D01*
X78909672Y-97231551D01*
X78837034Y-97246000D01*
X78762966Y-97246000D01*
X78690328Y-97231551D01*
X78690326Y-97231550D01*
X78690325Y-97231550D01*
X78621897Y-97203207D01*
X78560314Y-97162058D01*
X78507942Y-97109686D01*
X78466793Y-97048103D01*
X78438450Y-96979675D01*
X78424000Y-96907033D01*
X78424000Y-96832967D01*
X78438450Y-96760325D01*
X78466793Y-96691897D01*
X78507942Y-96630314D01*
X78560314Y-96577942D01*
X78621897Y-96536793D01*
X78690325Y-96508450D01*
X78690326Y-96508450D01*
X78690328Y-96508449D01*
X78762966Y-96494000D01*
X78837034Y-96494000D01*
X78909672Y-96508449D01*
G37*
G36*
X107018855Y-94062140D02*
G01*
X107082618Y-94068420D01*
X107173404Y-94095960D01*
X107205336Y-94105646D01*
X107318425Y-94166094D01*
X107417554Y-94247446D01*
X107498906Y-94346575D01*
X107559354Y-94459664D01*
X107559355Y-94459668D01*
X107596580Y-94582382D01*
X107609149Y-94710000D01*
X107596580Y-94837618D01*
X107569040Y-94928404D01*
X107559354Y-94960336D01*
X107498906Y-95073425D01*
X107417554Y-95172554D01*
X107318425Y-95253906D01*
X107205336Y-95314354D01*
X107173404Y-95324040D01*
X107082618Y-95351580D01*
X107018855Y-95357860D01*
X106986974Y-95361000D01*
X106373026Y-95361000D01*
X106341145Y-95357860D01*
X106277382Y-95351580D01*
X106186596Y-95324040D01*
X106154664Y-95314354D01*
X106041575Y-95253906D01*
X105942446Y-95172554D01*
X105861094Y-95073425D01*
X105800646Y-94960336D01*
X105790960Y-94928404D01*
X105763420Y-94837618D01*
X105750851Y-94710000D01*
X105763420Y-94582382D01*
X105800645Y-94459668D01*
X105800646Y-94459664D01*
X105861094Y-94346575D01*
X105942446Y-94247446D01*
X106041575Y-94166094D01*
X106154664Y-94105646D01*
X106186596Y-94095960D01*
X106277382Y-94068420D01*
X106341145Y-94062140D01*
X106373026Y-94059000D01*
X106986974Y-94059000D01*
X107018855Y-94062140D01*
G37*
G36*
X107446242Y-92063404D02*
G01*
X107483337Y-92074657D01*
X107517515Y-92092925D01*
X107547481Y-92117519D01*
X107572075Y-92147485D01*
X107590343Y-92181663D01*
X107601596Y-92218758D01*
X107606000Y-92263474D01*
X107606000Y-93156526D01*
X107601596Y-93201242D01*
X107590343Y-93238337D01*
X107572075Y-93272515D01*
X107547481Y-93302481D01*
X107517515Y-93327075D01*
X107483337Y-93345343D01*
X107446242Y-93356596D01*
X107401526Y-93361000D01*
X105958474Y-93361000D01*
X105913758Y-93356596D01*
X105876663Y-93345343D01*
X105842485Y-93327075D01*
X105812519Y-93302481D01*
X105787925Y-93272515D01*
X105769657Y-93238337D01*
X105758404Y-93201242D01*
X105754000Y-93156526D01*
X105754000Y-92263474D01*
X105758404Y-92218758D01*
X105769657Y-92181663D01*
X105787925Y-92147485D01*
X105812519Y-92117519D01*
X105842485Y-92092925D01*
X105876663Y-92074657D01*
X105913758Y-92063404D01*
X105958474Y-92059000D01*
X107401526Y-92059000D01*
X107446242Y-92063404D01*
G37*
G36*
X102081000Y-92921000D02*
G01*
X97979000Y-92921000D01*
X97979000Y-88819000D01*
X102081000Y-88819000D01*
X102081000Y-92921000D01*
G37*
G36*
X78909672Y-90728449D02*
G01*
X78909674Y-90728450D01*
X78909675Y-90728450D01*
X78978103Y-90756793D01*
X79039686Y-90797942D01*
X79092058Y-90850314D01*
X79133207Y-90911897D01*
X79161550Y-90980325D01*
X79176000Y-91052967D01*
X79176000Y-91127033D01*
X79161550Y-91199675D01*
X79133207Y-91268103D01*
X79092058Y-91329686D01*
X79039686Y-91382058D01*
X78978103Y-91423207D01*
X78909675Y-91451550D01*
X78909674Y-91451550D01*
X78909672Y-91451551D01*
X78837034Y-91466000D01*
X78762966Y-91466000D01*
X78690328Y-91451551D01*
X78690326Y-91451550D01*
X78690325Y-91451550D01*
X78621897Y-91423207D01*
X78560314Y-91382058D01*
X78507942Y-91329686D01*
X78466793Y-91268103D01*
X78438450Y-91199675D01*
X78424000Y-91127033D01*
X78424000Y-91052967D01*
X78438450Y-90980325D01*
X78466793Y-90911897D01*
X78507942Y-90850314D01*
X78560314Y-90797942D01*
X78621897Y-90756793D01*
X78690325Y-90728450D01*
X78690326Y-90728450D01*
X78690328Y-90728449D01*
X78762966Y-90714000D01*
X78837034Y-90714000D01*
X78909672Y-90728449D01*
G37*
G36*
X129822585Y-87363802D02*
G01*
X129972410Y-87393604D01*
X130254674Y-87510521D01*
X130508705Y-87680259D01*
X130724741Y-87896295D01*
X130894479Y-88150326D01*
X131011396Y-88432590D01*
X131071000Y-88732240D01*
X131071000Y-89037760D01*
X131011396Y-89337410D01*
X130894479Y-89619674D01*
X130724741Y-89873705D01*
X130508705Y-90089741D01*
X130254674Y-90259479D01*
X129972410Y-90376396D01*
X129822585Y-90406198D01*
X129672761Y-90436000D01*
X129367239Y-90436000D01*
X129217415Y-90406198D01*
X129067590Y-90376396D01*
X128785326Y-90259479D01*
X128531295Y-90089741D01*
X128315259Y-89873705D01*
X128145521Y-89619674D01*
X128028604Y-89337410D01*
X127969000Y-89037760D01*
X127969000Y-88732240D01*
X128028604Y-88432590D01*
X128145521Y-88150326D01*
X128315259Y-87896295D01*
X128531295Y-87680259D01*
X128785326Y-87510521D01*
X129067590Y-87393604D01*
X129217415Y-87363802D01*
X129367239Y-87334000D01*
X129672761Y-87334000D01*
X129822585Y-87363802D01*
G37*
G36*
X112222585Y-87363802D02*
G01*
X112372410Y-87393604D01*
X112654674Y-87510521D01*
X112908705Y-87680259D01*
X113124741Y-87896295D01*
X113294479Y-88150326D01*
X113411396Y-88432590D01*
X113471000Y-88732240D01*
X113471000Y-89037760D01*
X113411396Y-89337410D01*
X113294479Y-89619674D01*
X113124741Y-89873705D01*
X112908705Y-90089741D01*
X112654674Y-90259479D01*
X112372410Y-90376396D01*
X112222585Y-90406198D01*
X112072761Y-90436000D01*
X111767239Y-90436000D01*
X111617415Y-90406198D01*
X111467590Y-90376396D01*
X111185326Y-90259479D01*
X110931295Y-90089741D01*
X110715259Y-89873705D01*
X110545521Y-89619674D01*
X110428604Y-89337410D01*
X110369000Y-89037760D01*
X110369000Y-88732240D01*
X110428604Y-88432590D01*
X110545521Y-88150326D01*
X110715259Y-87896295D01*
X110931295Y-87680259D01*
X111185326Y-87510521D01*
X111467590Y-87393604D01*
X111617415Y-87363802D01*
X111767239Y-87334000D01*
X112072761Y-87334000D01*
X112222585Y-87363802D01*
G37*
G36*
X75558015Y-89116973D02*
G01*
X75661879Y-89148479D01*
X75689055Y-89163005D01*
X75757600Y-89199643D01*
X75841501Y-89268499D01*
X75910357Y-89352400D01*
X75946995Y-89420945D01*
X75961521Y-89448121D01*
X75993027Y-89551985D01*
X76003666Y-89660000D01*
X75993027Y-89768015D01*
X75961521Y-89871879D01*
X75961519Y-89871882D01*
X75910357Y-89967600D01*
X75841501Y-90051501D01*
X75757600Y-90120357D01*
X75689055Y-90156995D01*
X75661879Y-90171521D01*
X75558015Y-90203027D01*
X75477067Y-90211000D01*
X74822933Y-90211000D01*
X74741985Y-90203027D01*
X74638121Y-90171521D01*
X74610945Y-90156995D01*
X74542400Y-90120357D01*
X74458499Y-90051501D01*
X74389643Y-89967600D01*
X74338481Y-89871882D01*
X74338479Y-89871879D01*
X74306973Y-89768015D01*
X74296334Y-89660000D01*
X74306973Y-89551985D01*
X74338479Y-89448121D01*
X74353005Y-89420945D01*
X74389643Y-89352400D01*
X74458499Y-89268499D01*
X74542400Y-89199643D01*
X74610945Y-89163005D01*
X74638121Y-89148479D01*
X74741985Y-89116973D01*
X74822933Y-89109000D01*
X75477067Y-89109000D01*
X75558015Y-89116973D01*
G37*
G36*
X102081000Y-88521000D02*
G01*
X97979000Y-88521000D01*
X97979000Y-84419000D01*
X102081000Y-84419000D01*
X102081000Y-88521000D01*
G37*
G36*
X77981000Y-88521000D02*
G01*
X73879000Y-88521000D01*
X73879000Y-84419000D01*
X77981000Y-84419000D01*
X77981000Y-88521000D01*
G37*
G36*
X94431000Y-85321000D02*
G01*
X93529000Y-85321000D01*
X93529000Y-84319000D01*
X94431000Y-84319000D01*
X94431000Y-85321000D01*
G37*
G36*
X84191000Y-83751000D02*
G01*
X80589000Y-83751000D01*
X80589000Y-81349000D01*
X84191000Y-81349000D01*
X84191000Y-83751000D01*
G37*
G36*
X89591000Y-83751000D02*
G01*
X85989000Y-83751000D01*
X85989000Y-81349000D01*
X89591000Y-81349000D01*
X89591000Y-83751000D01*
G37*
G36*
X95381000Y-83321000D02*
G01*
X94479000Y-83321000D01*
X94479000Y-82319000D01*
X95381000Y-82319000D01*
X95381000Y-83321000D01*
G37*
G36*
X93481000Y-83321000D02*
G01*
X92579000Y-83321000D01*
X92579000Y-82319000D01*
X93481000Y-82319000D01*
X93481000Y-83321000D01*
G37*
G36*
X77101000Y-82181000D02*
G01*
X75299000Y-82181000D01*
X75299000Y-80379000D01*
X77101000Y-80379000D01*
X77101000Y-82181000D01*
G37*
G36*
X76313512Y-77843927D02*
G01*
X76462812Y-77873624D01*
X76626784Y-77941544D01*
X76774354Y-78040147D01*
X76899853Y-78165646D01*
X76998456Y-78313216D01*
X77066376Y-78477188D01*
X77101000Y-78651259D01*
X77101000Y-78828741D01*
X77066376Y-79002812D01*
X76998456Y-79166784D01*
X76899853Y-79314354D01*
X76774354Y-79439853D01*
X76626784Y-79538456D01*
X76462812Y-79606376D01*
X76313512Y-79636073D01*
X76288742Y-79641000D01*
X76111258Y-79641000D01*
X76086488Y-79636073D01*
X75937188Y-79606376D01*
X75773216Y-79538456D01*
X75625646Y-79439853D01*
X75500147Y-79314354D01*
X75401544Y-79166784D01*
X75333624Y-79002812D01*
X75299000Y-78828741D01*
X75299000Y-78651259D01*
X75333624Y-78477188D01*
X75401544Y-78313216D01*
X75500147Y-78165646D01*
X75625646Y-78040147D01*
X75773216Y-77941544D01*
X75937188Y-77873624D01*
X76086488Y-77843927D01*
X76111258Y-77839000D01*
X76288742Y-77839000D01*
X76313512Y-77843927D01*
G37*
M02*
