G04 #@! TF.GenerationSoftware,KiCad,Pcbnew,(6.0.6)*
G04 #@! TF.CreationDate,2022-07-04T20:34:01+02:00*
G04 #@! TF.ProjectId,vogelhuisje_kicad,766f6765-6c68-4756-9973-6a655f6b6963,rev?*
G04 #@! TF.SameCoordinates,Original*
G04 #@! TF.FileFunction,Legend,Top*
G04 #@! TF.FilePolarity,Positive*
%FSLAX46Y46*%
G04 Gerber Fmt 4.6, Leading zero omitted, Abs format (unit mm)*
G04 Created by KiCad (PCBNEW (6.0.6)) date 2022-07-04 20:34:01*
%MOMM*%
%LPD*%
G01*
G04 APERTURE LIST*
%ADD10C,0.150000*%
%ADD11C,0.120000*%
%ADD12C,0.200000*%
G04 APERTURE END LIST*
D10*
X73166666Y-80252380D02*
X73166666Y-80966666D01*
X73119047Y-81109523D01*
X73023809Y-81204761D01*
X72880952Y-81252380D01*
X72785714Y-81252380D01*
X74166666Y-81252380D02*
X73595238Y-81252380D01*
X73880952Y-81252380D02*
X73880952Y-80252380D01*
X73785714Y-80395238D01*
X73690476Y-80490476D01*
X73595238Y-80538095D01*
X80787380Y-94188333D02*
X81501666Y-94188333D01*
X81644523Y-94235952D01*
X81739761Y-94331190D01*
X81787380Y-94474047D01*
X81787380Y-94569285D01*
X80787380Y-93807380D02*
X80787380Y-93188333D01*
X81168333Y-93521666D01*
X81168333Y-93378809D01*
X81215952Y-93283571D01*
X81263571Y-93235952D01*
X81358809Y-93188333D01*
X81596904Y-93188333D01*
X81692142Y-93235952D01*
X81739761Y-93283571D01*
X81787380Y-93378809D01*
X81787380Y-93664523D01*
X81739761Y-93759761D01*
X81692142Y-93807380D01*
X89961904Y-81352380D02*
X89961904Y-80352380D01*
X90200000Y-80352380D01*
X90342857Y-80400000D01*
X90438095Y-80495238D01*
X90485714Y-80590476D01*
X90533333Y-80780952D01*
X90533333Y-80923809D01*
X90485714Y-81114285D01*
X90438095Y-81209523D01*
X90342857Y-81304761D01*
X90200000Y-81352380D01*
X89961904Y-81352380D01*
X91485714Y-81352380D02*
X90914285Y-81352380D01*
X91200000Y-81352380D02*
X91200000Y-80352380D01*
X91104761Y-80495238D01*
X91009523Y-80590476D01*
X90914285Y-80638095D01*
X88191904Y-98222380D02*
X88191904Y-97222380D01*
X88572857Y-97222380D01*
X88668095Y-97270000D01*
X88715714Y-97317619D01*
X88763333Y-97412857D01*
X88763333Y-97555714D01*
X88715714Y-97650952D01*
X88668095Y-97698571D01*
X88572857Y-97746190D01*
X88191904Y-97746190D01*
X89715714Y-98222380D02*
X89144285Y-98222380D01*
X89430000Y-98222380D02*
X89430000Y-97222380D01*
X89334761Y-97365238D01*
X89239523Y-97460476D01*
X89144285Y-97508095D01*
X119681904Y-97537380D02*
X119681904Y-96537380D01*
X120062857Y-96537380D01*
X120158095Y-96585000D01*
X120205714Y-96632619D01*
X120253333Y-96727857D01*
X120253333Y-96870714D01*
X120205714Y-96965952D01*
X120158095Y-97013571D01*
X120062857Y-97061190D01*
X119681904Y-97061190D01*
X120634285Y-96632619D02*
X120681904Y-96585000D01*
X120777142Y-96537380D01*
X121015238Y-96537380D01*
X121110476Y-96585000D01*
X121158095Y-96632619D01*
X121205714Y-96727857D01*
X121205714Y-96823095D01*
X121158095Y-96965952D01*
X120586666Y-97537380D01*
X121205714Y-97537380D01*
X110748571Y-91456428D02*
X111510476Y-91456428D01*
X111129523Y-91837380D02*
X111129523Y-91075476D01*
X111986666Y-91837380D02*
X111986666Y-90837380D01*
X112462857Y-91170714D02*
X112462857Y-91837380D01*
X112462857Y-91265952D02*
X112510476Y-91218333D01*
X112605714Y-91170714D01*
X112748571Y-91170714D01*
X112843809Y-91218333D01*
X112891428Y-91313571D01*
X112891428Y-91837380D01*
X126196190Y-90937380D02*
X126529523Y-91937380D01*
X126862857Y-90937380D01*
X127339047Y-91937380D02*
X127243809Y-91889761D01*
X127196190Y-91842142D01*
X127148571Y-91746904D01*
X127148571Y-91461190D01*
X127196190Y-91365952D01*
X127243809Y-91318333D01*
X127339047Y-91270714D01*
X127481904Y-91270714D01*
X127577142Y-91318333D01*
X127624761Y-91365952D01*
X127672380Y-91461190D01*
X127672380Y-91746904D01*
X127624761Y-91842142D01*
X127577142Y-91889761D01*
X127481904Y-91937380D01*
X127339047Y-91937380D01*
X128529523Y-91270714D02*
X128529523Y-91937380D01*
X128100952Y-91270714D02*
X128100952Y-91794523D01*
X128148571Y-91889761D01*
X128243809Y-91937380D01*
X128386666Y-91937380D01*
X128481904Y-91889761D01*
X128529523Y-91842142D01*
X128862857Y-91270714D02*
X129243809Y-91270714D01*
X129005714Y-90937380D02*
X129005714Y-91794523D01*
X129053333Y-91889761D01*
X129148571Y-91937380D01*
X129243809Y-91937380D01*
X130339047Y-91556428D02*
X131100952Y-91556428D01*
X130720000Y-91937380D02*
X130720000Y-91175476D01*
X88833333Y-108152380D02*
X88500000Y-107676190D01*
X88261904Y-108152380D02*
X88261904Y-107152380D01*
X88642857Y-107152380D01*
X88738095Y-107200000D01*
X88785714Y-107247619D01*
X88833333Y-107342857D01*
X88833333Y-107485714D01*
X88785714Y-107580952D01*
X88738095Y-107628571D01*
X88642857Y-107676190D01*
X88261904Y-107676190D01*
X89214285Y-107247619D02*
X89261904Y-107200000D01*
X89357142Y-107152380D01*
X89595238Y-107152380D01*
X89690476Y-107200000D01*
X89738095Y-107247619D01*
X89785714Y-107342857D01*
X89785714Y-107438095D01*
X89738095Y-107580952D01*
X89166666Y-108152380D01*
X89785714Y-108152380D01*
X104966666Y-88952380D02*
X104966666Y-89666666D01*
X104919047Y-89809523D01*
X104823809Y-89904761D01*
X104680952Y-89952380D01*
X104585714Y-89952380D01*
X105395238Y-89047619D02*
X105442857Y-89000000D01*
X105538095Y-88952380D01*
X105776190Y-88952380D01*
X105871428Y-89000000D01*
X105919047Y-89047619D01*
X105966666Y-89142857D01*
X105966666Y-89238095D01*
X105919047Y-89380952D01*
X105347619Y-89952380D01*
X105966666Y-89952380D01*
X97027619Y-83915238D02*
X96980000Y-84010476D01*
X96884761Y-84105714D01*
X96741904Y-84248571D01*
X96694285Y-84343809D01*
X96694285Y-84439047D01*
X96932380Y-84391428D02*
X96884761Y-84486666D01*
X96789523Y-84581904D01*
X96599047Y-84629523D01*
X96265714Y-84629523D01*
X96075238Y-84581904D01*
X95980000Y-84486666D01*
X95932380Y-84391428D01*
X95932380Y-84200952D01*
X95980000Y-84105714D01*
X96075238Y-84010476D01*
X96265714Y-83962857D01*
X96599047Y-83962857D01*
X96789523Y-84010476D01*
X96884761Y-84105714D01*
X96932380Y-84200952D01*
X96932380Y-84391428D01*
X96932380Y-83010476D02*
X96932380Y-83581904D01*
X96932380Y-83296190D02*
X95932380Y-83296190D01*
X96075238Y-83391428D01*
X96170476Y-83486666D01*
X96218095Y-83581904D01*
X145132380Y-174786904D02*
X145941904Y-174786904D01*
X146037142Y-174739285D01*
X146084761Y-174691666D01*
X146132380Y-174596428D01*
X146132380Y-174405952D01*
X146084761Y-174310714D01*
X146037142Y-174263095D01*
X145941904Y-174215476D01*
X145132380Y-174215476D01*
X145132380Y-173310714D02*
X145132380Y-173501190D01*
X145180000Y-173596428D01*
X145227619Y-173644047D01*
X145370476Y-173739285D01*
X145560952Y-173786904D01*
X145941904Y-173786904D01*
X146037142Y-173739285D01*
X146084761Y-173691666D01*
X146132380Y-173596428D01*
X146132380Y-173405952D01*
X146084761Y-173310714D01*
X146037142Y-173263095D01*
X145941904Y-173215476D01*
X145703809Y-173215476D01*
X145608571Y-173263095D01*
X145560952Y-173310714D01*
X145513333Y-173405952D01*
X145513333Y-173596428D01*
X145560952Y-173691666D01*
X145608571Y-173739285D01*
X145703809Y-173786904D01*
X78082380Y-159166666D02*
X77606190Y-159500000D01*
X78082380Y-159738095D02*
X77082380Y-159738095D01*
X77082380Y-159357142D01*
X77130000Y-159261904D01*
X77177619Y-159214285D01*
X77272857Y-159166666D01*
X77415714Y-159166666D01*
X77510952Y-159214285D01*
X77558571Y-159261904D01*
X77606190Y-159357142D01*
X77606190Y-159738095D01*
X78082380Y-158214285D02*
X78082380Y-158785714D01*
X78082380Y-158500000D02*
X77082380Y-158500000D01*
X77225238Y-158595238D01*
X77320476Y-158690476D01*
X77368095Y-158785714D01*
X87161904Y-73952380D02*
X87161904Y-72952380D01*
X87400000Y-72952380D01*
X87542857Y-73000000D01*
X87638095Y-73095238D01*
X87685714Y-73190476D01*
X87733333Y-73380952D01*
X87733333Y-73523809D01*
X87685714Y-73714285D01*
X87638095Y-73809523D01*
X87542857Y-73904761D01*
X87400000Y-73952380D01*
X87161904Y-73952380D01*
X88114285Y-73047619D02*
X88161904Y-73000000D01*
X88257142Y-72952380D01*
X88495238Y-72952380D01*
X88590476Y-73000000D01*
X88638095Y-73047619D01*
X88685714Y-73142857D01*
X88685714Y-73238095D01*
X88638095Y-73380952D01*
X88066666Y-73952380D01*
X88685714Y-73952380D01*
X94738095Y-79582380D02*
X94738095Y-78582380D01*
X95309523Y-79582380D02*
X94880952Y-79010952D01*
X95309523Y-78582380D02*
X94738095Y-79153809D01*
X106222380Y-170811904D02*
X107031904Y-170811904D01*
X107127142Y-170764285D01*
X107174761Y-170716666D01*
X107222380Y-170621428D01*
X107222380Y-170430952D01*
X107174761Y-170335714D01*
X107127142Y-170288095D01*
X107031904Y-170240476D01*
X106222380Y-170240476D01*
X106555714Y-169335714D02*
X107222380Y-169335714D01*
X106174761Y-169573809D02*
X106889047Y-169811904D01*
X106889047Y-169192857D01*
X83011666Y-155929285D02*
X83011666Y-155453095D01*
X83297380Y-156024523D02*
X82297380Y-155691190D01*
X83297380Y-155357857D01*
X83297380Y-154500714D02*
X83297380Y-155072142D01*
X83297380Y-154786428D02*
X82297380Y-154786428D01*
X82440238Y-154881666D01*
X82535476Y-154976904D01*
X82583095Y-155072142D01*
X150666666Y-114122380D02*
X150666666Y-114836666D01*
X150619047Y-114979523D01*
X150523809Y-115074761D01*
X150380952Y-115122380D01*
X150285714Y-115122380D01*
X151571428Y-114122380D02*
X151380952Y-114122380D01*
X151285714Y-114170000D01*
X151238095Y-114217619D01*
X151142857Y-114360476D01*
X151095238Y-114550952D01*
X151095238Y-114931904D01*
X151142857Y-115027142D01*
X151190476Y-115074761D01*
X151285714Y-115122380D01*
X151476190Y-115122380D01*
X151571428Y-115074761D01*
X151619047Y-115027142D01*
X151666666Y-114931904D01*
X151666666Y-114693809D01*
X151619047Y-114598571D01*
X151571428Y-114550952D01*
X151476190Y-114503333D01*
X151285714Y-114503333D01*
X151190476Y-114550952D01*
X151142857Y-114598571D01*
X151095238Y-114693809D01*
X145257380Y-170786904D02*
X146066904Y-170786904D01*
X146162142Y-170739285D01*
X146209761Y-170691666D01*
X146257380Y-170596428D01*
X146257380Y-170405952D01*
X146209761Y-170310714D01*
X146162142Y-170263095D01*
X146066904Y-170215476D01*
X145257380Y-170215476D01*
X145257380Y-169834523D02*
X145257380Y-169167857D01*
X146257380Y-169596428D01*
X107807380Y-170761904D02*
X108616904Y-170761904D01*
X108712142Y-170714285D01*
X108759761Y-170666666D01*
X108807380Y-170571428D01*
X108807380Y-170380952D01*
X108759761Y-170285714D01*
X108712142Y-170238095D01*
X108616904Y-170190476D01*
X107807380Y-170190476D01*
X107807380Y-169238095D02*
X107807380Y-169714285D01*
X108283571Y-169761904D01*
X108235952Y-169714285D01*
X108188333Y-169619047D01*
X108188333Y-169380952D01*
X108235952Y-169285714D01*
X108283571Y-169238095D01*
X108378809Y-169190476D01*
X108616904Y-169190476D01*
X108712142Y-169238095D01*
X108759761Y-169285714D01*
X108807380Y-169380952D01*
X108807380Y-169619047D01*
X108759761Y-169714285D01*
X108712142Y-169761904D01*
X137247619Y-124778095D02*
X136438095Y-124778095D01*
X136342857Y-124825714D01*
X136295238Y-124873333D01*
X136247619Y-124968571D01*
X136247619Y-125159047D01*
X136295238Y-125254285D01*
X136342857Y-125301904D01*
X136438095Y-125349523D01*
X137247619Y-125349523D01*
X137247619Y-125730476D02*
X137247619Y-126349523D01*
X136866666Y-126016190D01*
X136866666Y-126159047D01*
X136819047Y-126254285D01*
X136771428Y-126301904D01*
X136676190Y-126349523D01*
X136438095Y-126349523D01*
X136342857Y-126301904D01*
X136295238Y-126254285D01*
X136247619Y-126159047D01*
X136247619Y-125873333D01*
X136295238Y-125778095D01*
X136342857Y-125730476D01*
X68666666Y-72952380D02*
X68333333Y-72476190D01*
X68095238Y-72952380D02*
X68095238Y-71952380D01*
X68476190Y-71952380D01*
X68571428Y-72000000D01*
X68619047Y-72047619D01*
X68666666Y-72142857D01*
X68666666Y-72285714D01*
X68619047Y-72380952D01*
X68571428Y-72428571D01*
X68476190Y-72476190D01*
X68095238Y-72476190D01*
X69095238Y-72428571D02*
X69428571Y-72428571D01*
X69571428Y-72952380D02*
X69095238Y-72952380D01*
X69095238Y-71952380D01*
X69571428Y-71952380D01*
X70333333Y-72428571D02*
X70000000Y-72428571D01*
X70000000Y-72952380D02*
X70000000Y-71952380D01*
X70476190Y-71952380D01*
X71000000Y-71952380D02*
X71000000Y-72190476D01*
X70761904Y-72095238D02*
X71000000Y-72190476D01*
X71238095Y-72095238D01*
X70857142Y-72380952D02*
X71000000Y-72190476D01*
X71142857Y-72380952D01*
X71761904Y-71952380D02*
X71761904Y-72190476D01*
X71523809Y-72095238D02*
X71761904Y-72190476D01*
X72000000Y-72095238D01*
X71619047Y-72380952D02*
X71761904Y-72190476D01*
X71904761Y-72380952D01*
D11*
X74870000Y-82610000D02*
X74870000Y-81280000D01*
X77530000Y-77410000D02*
X74870000Y-77410000D01*
X74870000Y-80010000D02*
X74870000Y-77410000D01*
X77530000Y-80010000D02*
X77530000Y-77410000D01*
X77530000Y-80010000D02*
X74870000Y-80010000D01*
X76200000Y-82610000D02*
X74870000Y-82610000D01*
D12*
X72800000Y-89510000D02*
X72800000Y-98450000D01*
X73950000Y-89510000D02*
X72800000Y-89510000D01*
X72800000Y-98450000D02*
X73950000Y-98450000D01*
D11*
X89690000Y-84700000D02*
X82390000Y-84700000D01*
X89690000Y-84700000D02*
X89690000Y-80400000D01*
X89690000Y-80400000D02*
X82390000Y-80400000D01*
X74930000Y-102870000D02*
X102830000Y-102870000D01*
X102830000Y-102870000D02*
X102830000Y-85470000D01*
X102830000Y-85470000D02*
X74930000Y-85470000D01*
X74930000Y-85470000D02*
X74930000Y-102870000D01*
X132220000Y-86085000D02*
X132220000Y-101885000D01*
X132220000Y-101885000D02*
X109220000Y-101885000D01*
X109220000Y-101885000D02*
X109220000Y-86085000D01*
X109220000Y-86085000D02*
X132220000Y-86085000D01*
X85630000Y-104370000D02*
X85630000Y-104040000D01*
X85630000Y-106450000D02*
X85630000Y-106780000D01*
X85630000Y-104040000D02*
X92170000Y-104040000D01*
X92170000Y-104040000D02*
X92170000Y-104370000D01*
X92170000Y-106780000D02*
X92170000Y-106450000D01*
X85630000Y-106780000D02*
X92170000Y-106780000D01*
X108490000Y-90650000D02*
X103770000Y-90650000D01*
X108590000Y-92410000D02*
X108590000Y-92110000D01*
X107180000Y-96770000D02*
X107180000Y-96160000D01*
X104880000Y-93810000D02*
X104380000Y-93810000D01*
X107880000Y-96160000D02*
X107880000Y-94210000D01*
X107880000Y-93210000D02*
X107880000Y-91260000D01*
X107880000Y-91260000D02*
X104380000Y-91260000D01*
X105880000Y-96770000D02*
X105880000Y-96160000D01*
X107180000Y-90650000D02*
X107180000Y-91260000D01*
X104380000Y-93610000D02*
X104880000Y-93610000D01*
X103770000Y-90650000D02*
X103770000Y-96770000D01*
X104880000Y-93610000D02*
X104880000Y-93810000D01*
X107880000Y-94210000D02*
X108490000Y-94210000D01*
X108690000Y-92110000D02*
X108490000Y-92110000D01*
X104380000Y-91260000D02*
X104380000Y-96160000D01*
X108790000Y-91600000D02*
X108790000Y-90350000D01*
X108790000Y-90350000D02*
X107540000Y-90350000D01*
X104380000Y-96160000D02*
X107880000Y-96160000D01*
X108490000Y-92410000D02*
X108690000Y-92410000D01*
X105880000Y-90650000D02*
X105880000Y-91260000D01*
X108490000Y-93210000D02*
X107880000Y-93210000D01*
X103770000Y-96770000D02*
X108490000Y-96770000D01*
X108490000Y-96770000D02*
X108490000Y-90650000D01*
X108690000Y-92410000D02*
X108690000Y-92110000D01*
X104380000Y-93710000D02*
X104880000Y-93710000D01*
X95560000Y-84580000D02*
X95560000Y-82420000D01*
X92400000Y-84580000D02*
X93330000Y-84580000D01*
X95560000Y-84580000D02*
X94630000Y-84580000D01*
X92400000Y-84580000D02*
X92400000Y-83120000D01*
X144680000Y-172695000D02*
X144680000Y-174025000D01*
X142080000Y-172695000D02*
X142080000Y-175355000D01*
X142080000Y-172695000D02*
X129320000Y-172695000D01*
X129320000Y-172695000D02*
X129320000Y-175355000D01*
X143350000Y-172695000D02*
X144680000Y-172695000D01*
X142080000Y-175355000D02*
X129320000Y-175355000D01*
X81370000Y-155730000D02*
X81040000Y-155730000D01*
X81040000Y-162270000D02*
X81370000Y-162270000D01*
X78960000Y-162270000D02*
X78630000Y-162270000D01*
X81370000Y-162270000D02*
X81370000Y-155730000D01*
X78630000Y-162270000D02*
X78630000Y-155730000D01*
X78630000Y-155730000D02*
X78960000Y-155730000D01*
X93360000Y-76730000D02*
X93220000Y-76730000D01*
X91765000Y-78700000D02*
X91765000Y-74760000D01*
X93220000Y-78700000D02*
X93220000Y-74760000D01*
X83940000Y-76730000D02*
X84080000Y-76730000D01*
X91645000Y-78700000D02*
X91645000Y-74760000D01*
X93220000Y-74760000D02*
X84080000Y-74760000D01*
X91885000Y-78700000D02*
X91885000Y-74760000D01*
X84080000Y-78700000D02*
X93220000Y-78700000D01*
X84080000Y-74760000D02*
X84080000Y-78700000D01*
X84890000Y-168720000D02*
X84890000Y-171380000D01*
X102730000Y-168720000D02*
X102730000Y-171380000D01*
X102730000Y-171380000D02*
X84890000Y-171380000D01*
X105330000Y-171380000D02*
X104000000Y-171380000D01*
X102730000Y-168720000D02*
X84890000Y-168720000D01*
X105330000Y-170050000D02*
X105330000Y-171380000D01*
X127425000Y-164235000D02*
X127425000Y-146195000D01*
X127425000Y-146195000D02*
X83985000Y-146195000D01*
X83985000Y-146195000D02*
X83985000Y-164235000D01*
X89195000Y-161565000D02*
X124755000Y-161565000D01*
X89195000Y-164235000D02*
X127425000Y-164235000D01*
X86655000Y-148865000D02*
X124755000Y-148865000D01*
X86655000Y-148865000D02*
X86655000Y-146195000D01*
X124755000Y-148865000D02*
X124755000Y-146195000D01*
X83985000Y-164235000D02*
X86655000Y-164235000D01*
X89195000Y-161565000D02*
X86655000Y-161565000D01*
X124755000Y-161565000D02*
X124755000Y-164235000D01*
X86655000Y-161565000D02*
X86655000Y-164235000D01*
X89195000Y-161565000D02*
X89195000Y-164235000D01*
X149670000Y-164050000D02*
X152330000Y-164050000D01*
X152330000Y-118270000D02*
X152330000Y-164050000D01*
X149670000Y-118270000D02*
X152330000Y-118270000D01*
X149670000Y-117000000D02*
X149670000Y-115670000D01*
X149670000Y-115670000D02*
X151000000Y-115670000D01*
X149670000Y-118270000D02*
X149670000Y-164050000D01*
X142205000Y-168695000D02*
X129445000Y-168695000D01*
X142205000Y-168695000D02*
X142205000Y-171355000D01*
X129445000Y-168695000D02*
X129445000Y-171355000D01*
X144805000Y-168695000D02*
X144805000Y-170025000D01*
X142205000Y-171355000D02*
X129445000Y-171355000D01*
X143475000Y-168695000D02*
X144805000Y-168695000D01*
X125155000Y-171330000D02*
X125155000Y-168670000D01*
X112395000Y-168670000D02*
X125155000Y-168670000D01*
X109795000Y-170000000D02*
X109795000Y-168670000D01*
X112395000Y-171330000D02*
X112395000Y-168670000D01*
X112395000Y-171330000D02*
X125155000Y-171330000D01*
X109795000Y-168670000D02*
X111125000Y-168670000D01*
X146860000Y-110300000D02*
X73200000Y-110300000D01*
X73200000Y-110300000D02*
X73200000Y-143320000D01*
X73200000Y-143320000D02*
X146860000Y-143320000D01*
X146860000Y-143320000D02*
X146860000Y-110300000D01*
M02*
