G04 #@! TF.GenerationSoftware,KiCad,Pcbnew,5.1.5+dfsg1-2build2*
G04 #@! TF.CreationDate,2022-04-23T15:18:04+02:00*
G04 #@! TF.ProjectId,vogelhuisje_kicad,766f6765-6c68-4756-9973-6a655f6b6963,rev?*
G04 #@! TF.SameCoordinates,Original*
G04 #@! TF.FileFunction,Legend,Top*
G04 #@! TF.FilePolarity,Positive*
%FSLAX46Y46*%
G04 Gerber Fmt 4.6, Leading zero omitted, Abs format (unit mm)*
G04 Created by KiCad (PCBNEW 5.1.5+dfsg1-2build2) date 2022-04-23 15:18:04*
%MOMM*%
%LPD*%
G04 APERTURE LIST*
%ADD10C,0.120000*%
%ADD11C,0.150000*%
G04 APERTURE END LIST*
D10*
X72300000Y-89280000D02*
X72300000Y-98680000D01*
X78100000Y-98680000D02*
X76100000Y-98680000D01*
X74200000Y-98680000D02*
X72300000Y-98680000D01*
X78100000Y-89280000D02*
X76100000Y-89280000D01*
X74200000Y-89280000D02*
X72300000Y-89280000D01*
X76200000Y-82610000D02*
X74870000Y-82610000D01*
X74870000Y-82610000D02*
X74870000Y-81280000D01*
X74870000Y-80010000D02*
X74870000Y-77410000D01*
X77530000Y-77410000D02*
X74870000Y-77410000D01*
X77530000Y-80010000D02*
X77530000Y-77410000D01*
X77530000Y-80010000D02*
X74870000Y-80010000D01*
X92400000Y-84580000D02*
X92400000Y-83120000D01*
X95560000Y-84580000D02*
X95560000Y-82420000D01*
X95560000Y-84580000D02*
X94630000Y-84580000D01*
X92400000Y-84580000D02*
X93330000Y-84580000D01*
X108790000Y-90350000D02*
X107540000Y-90350000D01*
X108790000Y-91600000D02*
X108790000Y-90350000D01*
X104380000Y-93710000D02*
X104880000Y-93710000D01*
X104880000Y-93810000D02*
X104380000Y-93810000D01*
X104880000Y-93610000D02*
X104880000Y-93810000D01*
X104380000Y-93610000D02*
X104880000Y-93610000D01*
X105880000Y-96770000D02*
X105880000Y-96160000D01*
X107180000Y-96770000D02*
X107180000Y-96160000D01*
X105880000Y-90650000D02*
X105880000Y-91260000D01*
X107180000Y-90650000D02*
X107180000Y-91260000D01*
X107880000Y-94210000D02*
X108490000Y-94210000D01*
X107880000Y-96160000D02*
X107880000Y-94210000D01*
X104380000Y-96160000D02*
X107880000Y-96160000D01*
X104380000Y-91260000D02*
X104380000Y-96160000D01*
X107880000Y-91260000D02*
X104380000Y-91260000D01*
X107880000Y-93210000D02*
X107880000Y-91260000D01*
X108490000Y-93210000D02*
X107880000Y-93210000D01*
X108590000Y-92410000D02*
X108590000Y-92110000D01*
X108690000Y-92110000D02*
X108490000Y-92110000D01*
X108690000Y-92410000D02*
X108690000Y-92110000D01*
X108490000Y-92410000D02*
X108690000Y-92410000D01*
X108490000Y-96770000D02*
X108490000Y-90650000D01*
X103770000Y-96770000D02*
X108490000Y-96770000D01*
X103770000Y-90650000D02*
X103770000Y-96770000D01*
X108490000Y-90650000D02*
X103770000Y-90650000D01*
X92170000Y-106780000D02*
X92170000Y-106450000D01*
X85630000Y-106780000D02*
X92170000Y-106780000D01*
X85630000Y-106450000D02*
X85630000Y-106780000D01*
X92170000Y-104040000D02*
X92170000Y-104370000D01*
X85630000Y-104040000D02*
X92170000Y-104040000D01*
X85630000Y-104370000D02*
X85630000Y-104040000D01*
X132220000Y-101885000D02*
X109220000Y-101885000D01*
X132220000Y-86085000D02*
X132220000Y-101885000D01*
X109220000Y-86085000D02*
X132220000Y-86085000D01*
X109220000Y-101885000D02*
X109220000Y-86085000D01*
X102830000Y-85470000D02*
X74930000Y-85470000D01*
X102830000Y-102870000D02*
X102830000Y-85470000D01*
X74930000Y-102870000D02*
X102830000Y-102870000D01*
X74930000Y-85470000D02*
X74930000Y-102870000D01*
X89690000Y-84700000D02*
X82390000Y-84700000D01*
X89690000Y-80400000D02*
X82390000Y-80400000D01*
X89690000Y-84700000D02*
X89690000Y-80400000D01*
D11*
X81297380Y-94313333D02*
X82011666Y-94313333D01*
X82154523Y-94360952D01*
X82249761Y-94456190D01*
X82297380Y-94599047D01*
X82297380Y-94694285D01*
X81297380Y-93932380D02*
X81297380Y-93313333D01*
X81678333Y-93646666D01*
X81678333Y-93503809D01*
X81725952Y-93408571D01*
X81773571Y-93360952D01*
X81868809Y-93313333D01*
X82106904Y-93313333D01*
X82202142Y-93360952D01*
X82249761Y-93408571D01*
X82297380Y-93503809D01*
X82297380Y-93789523D01*
X82249761Y-93884761D01*
X82202142Y-93932380D01*
X75866666Y-83502380D02*
X75866666Y-84216666D01*
X75819047Y-84359523D01*
X75723809Y-84454761D01*
X75580952Y-84502380D01*
X75485714Y-84502380D01*
X76295238Y-83597619D02*
X76342857Y-83550000D01*
X76438095Y-83502380D01*
X76676190Y-83502380D01*
X76771428Y-83550000D01*
X76819047Y-83597619D01*
X76866666Y-83692857D01*
X76866666Y-83788095D01*
X76819047Y-83930952D01*
X76247619Y-84502380D01*
X76866666Y-84502380D01*
X97027619Y-83915238D02*
X96980000Y-84010476D01*
X96884761Y-84105714D01*
X96741904Y-84248571D01*
X96694285Y-84343809D01*
X96694285Y-84439047D01*
X96932380Y-84391428D02*
X96884761Y-84486666D01*
X96789523Y-84581904D01*
X96599047Y-84629523D01*
X96265714Y-84629523D01*
X96075238Y-84581904D01*
X95980000Y-84486666D01*
X95932380Y-84391428D01*
X95932380Y-84200952D01*
X95980000Y-84105714D01*
X96075238Y-84010476D01*
X96265714Y-83962857D01*
X96599047Y-83962857D01*
X96789523Y-84010476D01*
X96884761Y-84105714D01*
X96932380Y-84200952D01*
X96932380Y-84391428D01*
X96932380Y-83010476D02*
X96932380Y-83581904D01*
X96932380Y-83296190D02*
X95932380Y-83296190D01*
X96075238Y-83391428D01*
X96170476Y-83486666D01*
X96218095Y-83581904D01*
X109032380Y-94043333D02*
X109746666Y-94043333D01*
X109889523Y-94090952D01*
X109984761Y-94186190D01*
X110032380Y-94329047D01*
X110032380Y-94424285D01*
X110032380Y-93043333D02*
X110032380Y-93614761D01*
X110032380Y-93329047D02*
X109032380Y-93329047D01*
X109175238Y-93424285D01*
X109270476Y-93519523D01*
X109318095Y-93614761D01*
X88733333Y-103492380D02*
X88400000Y-103016190D01*
X88161904Y-103492380D02*
X88161904Y-102492380D01*
X88542857Y-102492380D01*
X88638095Y-102540000D01*
X88685714Y-102587619D01*
X88733333Y-102682857D01*
X88733333Y-102825714D01*
X88685714Y-102920952D01*
X88638095Y-102968571D01*
X88542857Y-103016190D01*
X88161904Y-103016190D01*
X89685714Y-103492380D02*
X89114285Y-103492380D01*
X89400000Y-103492380D02*
X89400000Y-102492380D01*
X89304761Y-102635238D01*
X89209523Y-102730476D01*
X89114285Y-102778095D01*
X119681904Y-97537380D02*
X119681904Y-96537380D01*
X120062857Y-96537380D01*
X120158095Y-96585000D01*
X120205714Y-96632619D01*
X120253333Y-96727857D01*
X120253333Y-96870714D01*
X120205714Y-96965952D01*
X120158095Y-97013571D01*
X120062857Y-97061190D01*
X119681904Y-97061190D01*
X120634285Y-96632619D02*
X120681904Y-96585000D01*
X120777142Y-96537380D01*
X121015238Y-96537380D01*
X121110476Y-96585000D01*
X121158095Y-96632619D01*
X121205714Y-96727857D01*
X121205714Y-96823095D01*
X121158095Y-96965952D01*
X120586666Y-97537380D01*
X121205714Y-97537380D01*
X126196190Y-90937380D02*
X126529523Y-91937380D01*
X126862857Y-90937380D01*
X127339047Y-91937380D02*
X127243809Y-91889761D01*
X127196190Y-91842142D01*
X127148571Y-91746904D01*
X127148571Y-91461190D01*
X127196190Y-91365952D01*
X127243809Y-91318333D01*
X127339047Y-91270714D01*
X127481904Y-91270714D01*
X127577142Y-91318333D01*
X127624761Y-91365952D01*
X127672380Y-91461190D01*
X127672380Y-91746904D01*
X127624761Y-91842142D01*
X127577142Y-91889761D01*
X127481904Y-91937380D01*
X127339047Y-91937380D01*
X128529523Y-91270714D02*
X128529523Y-91937380D01*
X128100952Y-91270714D02*
X128100952Y-91794523D01*
X128148571Y-91889761D01*
X128243809Y-91937380D01*
X128386666Y-91937380D01*
X128481904Y-91889761D01*
X128529523Y-91842142D01*
X128862857Y-91270714D02*
X129243809Y-91270714D01*
X129005714Y-90937380D02*
X129005714Y-91794523D01*
X129053333Y-91889761D01*
X129148571Y-91937380D01*
X129243809Y-91937380D01*
X130339047Y-91556428D02*
X131100952Y-91556428D01*
X130720000Y-91937380D02*
X130720000Y-91175476D01*
X110748571Y-91456428D02*
X111510476Y-91456428D01*
X111129523Y-91837380D02*
X111129523Y-91075476D01*
X111986666Y-91837380D02*
X111986666Y-90837380D01*
X112462857Y-91170714D02*
X112462857Y-91837380D01*
X112462857Y-91265952D02*
X112510476Y-91218333D01*
X112605714Y-91170714D01*
X112748571Y-91170714D01*
X112843809Y-91218333D01*
X112891428Y-91313571D01*
X112891428Y-91837380D01*
X88191904Y-98222380D02*
X88191904Y-97222380D01*
X88572857Y-97222380D01*
X88668095Y-97270000D01*
X88715714Y-97317619D01*
X88763333Y-97412857D01*
X88763333Y-97555714D01*
X88715714Y-97650952D01*
X88668095Y-97698571D01*
X88572857Y-97746190D01*
X88191904Y-97746190D01*
X89715714Y-98222380D02*
X89144285Y-98222380D01*
X89430000Y-98222380D02*
X89430000Y-97222380D01*
X89334761Y-97365238D01*
X89239523Y-97460476D01*
X89144285Y-97508095D01*
X84351904Y-86002380D02*
X84351904Y-85002380D01*
X84590000Y-85002380D01*
X84732857Y-85050000D01*
X84828095Y-85145238D01*
X84875714Y-85240476D01*
X84923333Y-85430952D01*
X84923333Y-85573809D01*
X84875714Y-85764285D01*
X84828095Y-85859523D01*
X84732857Y-85954761D01*
X84590000Y-86002380D01*
X84351904Y-86002380D01*
X85875714Y-86002380D02*
X85304285Y-86002380D01*
X85590000Y-86002380D02*
X85590000Y-85002380D01*
X85494761Y-85145238D01*
X85399523Y-85240476D01*
X85304285Y-85288095D01*
M02*
