G04 #@! TF.GenerationSoftware,KiCad,Pcbnew,5.1.5+dfsg1-2build2*
G04 #@! TF.CreationDate,2022-04-23T15:18:04+02:00*
G04 #@! TF.ProjectId,vogelhuisje_kicad,766f6765-6c68-4756-9973-6a655f6b6963,rev?*
G04 #@! TF.SameCoordinates,Original*
G04 #@! TF.FileFunction,Copper,L2,Bot*
G04 #@! TF.FilePolarity,Positive*
%FSLAX46Y46*%
G04 Gerber Fmt 4.6, Leading zero omitted, Abs format (unit mm)*
G04 Created by KiCad (PCBNEW 5.1.5+dfsg1-2build2) date 2022-04-23 15:18:04*
%MOMM*%
%LPD*%
G04 APERTURE LIST*
%ADD10O,2.100000X1.000000*%
%ADD11O,1.600000X1.000000*%
%ADD12O,1.700000X1.700000*%
%ADD13R,1.700000X1.700000*%
%ADD14O,1.750000X1.200000*%
%ADD15C,0.100000*%
%ADD16O,1.600000X1.600000*%
%ADD17C,1.600000*%
%ADD18C,3.000000*%
%ADD19C,0.800000*%
%ADD20C,0.250000*%
%ADD21C,1.000000*%
G04 APERTURE END LIST*
D10*
X79330000Y-98300000D03*
X79330000Y-89660000D03*
D11*
X75150000Y-89660000D03*
X75150000Y-98300000D03*
D12*
X76200000Y-78740000D03*
D13*
X76200000Y-81280000D03*
D14*
X106680000Y-94710000D03*
G04 #@! TA.AperFunction,ComponentPad*
D15*
G36*
X107329505Y-92111204D02*
G01*
X107353773Y-92114804D01*
X107377572Y-92120765D01*
X107400671Y-92129030D01*
X107422850Y-92139520D01*
X107443893Y-92152132D01*
X107463599Y-92166747D01*
X107481777Y-92183223D01*
X107498253Y-92201401D01*
X107512868Y-92221107D01*
X107525480Y-92242150D01*
X107535970Y-92264329D01*
X107544235Y-92287428D01*
X107550196Y-92311227D01*
X107553796Y-92335495D01*
X107555000Y-92359999D01*
X107555000Y-93060001D01*
X107553796Y-93084505D01*
X107550196Y-93108773D01*
X107544235Y-93132572D01*
X107535970Y-93155671D01*
X107525480Y-93177850D01*
X107512868Y-93198893D01*
X107498253Y-93218599D01*
X107481777Y-93236777D01*
X107463599Y-93253253D01*
X107443893Y-93267868D01*
X107422850Y-93280480D01*
X107400671Y-93290970D01*
X107377572Y-93299235D01*
X107353773Y-93305196D01*
X107329505Y-93308796D01*
X107305001Y-93310000D01*
X106054999Y-93310000D01*
X106030495Y-93308796D01*
X106006227Y-93305196D01*
X105982428Y-93299235D01*
X105959329Y-93290970D01*
X105937150Y-93280480D01*
X105916107Y-93267868D01*
X105896401Y-93253253D01*
X105878223Y-93236777D01*
X105861747Y-93218599D01*
X105847132Y-93198893D01*
X105834520Y-93177850D01*
X105824030Y-93155671D01*
X105815765Y-93132572D01*
X105809804Y-93108773D01*
X105806204Y-93084505D01*
X105805000Y-93060001D01*
X105805000Y-92359999D01*
X105806204Y-92335495D01*
X105809804Y-92311227D01*
X105815765Y-92287428D01*
X105824030Y-92264329D01*
X105834520Y-92242150D01*
X105847132Y-92221107D01*
X105861747Y-92201401D01*
X105878223Y-92183223D01*
X105896401Y-92166747D01*
X105916107Y-92152132D01*
X105937150Y-92139520D01*
X105959329Y-92129030D01*
X105982428Y-92120765D01*
X106006227Y-92114804D01*
X106030495Y-92111204D01*
X106054999Y-92110000D01*
X107305001Y-92110000D01*
X107329505Y-92111204D01*
G37*
G04 #@! TD.AperFunction*
D16*
X92710000Y-105410000D03*
D17*
X85090000Y-105410000D03*
D18*
X129520000Y-99085000D03*
X129520000Y-88885000D03*
X111920000Y-99085000D03*
X111920000Y-88885000D03*
D19*
X82550000Y-87630000D03*
X83820000Y-91440000D03*
D20*
X85090000Y-105410000D02*
X83820000Y-104140000D01*
X83820000Y-104140000D02*
X82550000Y-102870000D01*
X82550000Y-102870000D02*
X82550000Y-87630000D01*
X82550000Y-87630000D02*
X82550000Y-87630000D01*
D21*
X112976001Y-86684999D02*
X88575001Y-86684999D01*
X115176002Y-88885000D02*
X112976001Y-86684999D01*
X129520000Y-88885000D02*
X115176002Y-88885000D01*
X88575001Y-86684999D02*
X83820000Y-91440000D01*
X83820000Y-91440000D02*
X83820000Y-91440000D01*
M02*
