M48
; DRILL file {KiCad (6.0.7)} date Sat Nov  5 21:45:18 2022
; FORMAT={-:-/ absolute / inch / decimal}
; #@! TF.CreationDate,2022-11-05T21:45:18+01:00
; #@! TF.GenerationSoftware,Kicad,Pcbnew,(6.0.7)
; #@! TF.FileFunction,Plated,1,2,PTH
FMAT,2
INCH
; #@! TA.AperFunction,Plated,PTH,ViaDrill
T1C0.0118
; #@! TA.AperFunction,Plated,PTH,ViaDrill
T2C0.0157
; #@! TA.AperFunction,Plated,PTH,ComponentDrill
T3C0.0295
; #@! TA.AperFunction,Plated,PTH,ComponentDrill
T4C0.0300
; #@! TA.AperFunction,Plated,PTH,ComponentDrill
T5C0.0315
; #@! TA.AperFunction,Plated,PTH,ComponentDrill
T6C0.0394
; #@! TA.AperFunction,Plated,PTH,ComponentDrill
T7C0.0433
; #@! TA.AperFunction,Plated,PTH,ComponentDrill
T8C0.0551
%
G90
G05
T1
X3.4252Y-3.3858
X4.3Y-2.2
X4.3307Y-5.2362
X4.4488Y-5.3543
X4.7244Y-6.063
X4.8Y-6.0
X4.8031Y-6.063
X5.0394Y-4.6142
X5.1024Y-4.7874
X5.315Y-5.7087
X5.3437Y-5.6748
X5.3543Y-5.6299
X5.3976Y-4.7835
X5.5118Y-4.9252
X5.5551Y-5.5709
X5.5748Y-4.9764
X5.5827Y-4.6535
X5.626Y-4.6496
X5.6299Y-4.9213
X5.685Y-4.7677
X5.7Y-2.3
X5.7Y-3.7
X5.7874Y-5.5906
X5.8228Y-5.1575
T2
X3.25Y-3.45
X3.2677Y-6.4961
X3.9Y-3.1
T3
X5.5Y-3.0
X5.5Y-3.0787
X5.5Y-3.4
X5.5Y-3.4787
X5.5Y-3.8
X5.5Y-3.8787
T4
X3.1307Y-5.5425
X3.2307Y-5.5425
X3.3307Y-5.5425
X3.4307Y-5.5425
X4.0803Y-4.4425
X4.0803Y-5.5425
X4.1803Y-4.4425
X4.1803Y-5.5425
X4.2803Y-4.4425
X4.2803Y-5.5425
X4.3803Y-4.4425
X4.3803Y-5.5425
X4.4063Y-3.4994
X4.4063Y-3.901
X4.4803Y-4.4425
X4.4803Y-5.5425
X4.5803Y-4.4425
X4.5803Y-5.5425
X4.6803Y-4.4425
X4.6803Y-5.5425
X4.7803Y-4.4425
X4.7803Y-5.5425
X4.8803Y-4.4425
X4.8803Y-5.5425
X4.9803Y-4.4425
X4.9803Y-5.5425
X5.0803Y-4.4425
X5.0803Y-5.5425
X5.0992Y-3.4994
X5.0992Y-3.901
X5.1803Y-4.4425
X5.1803Y-5.5425
X5.2803Y-4.4425
X5.2803Y-5.5425
X5.3803Y-4.4425
X5.3803Y-5.5425
X5.4803Y-4.4425
X5.4803Y-5.5425
T5
X3.1496Y-6.1098
X3.1496Y-6.4098
X3.35Y-4.15
X3.65Y-4.15
T6
X3.0Y-3.1
X3.0Y-3.2
X3.3945Y-6.6949
X3.4616Y-5.8108
X3.4616Y-6.4108
X3.4945Y-6.6949
X3.5616Y-5.8108
X3.5616Y-6.4108
X3.5945Y-6.6949
X3.6616Y-5.8108
X3.6616Y-6.4108
X3.6945Y-6.6949
X3.7616Y-5.8108
X3.7616Y-6.4108
X3.7945Y-6.6949
X3.8616Y-5.8108
X3.8616Y-6.4108
X3.8945Y-6.6949
X3.9616Y-5.8108
X3.9616Y-6.4108
X3.9945Y-6.6949
X4.0616Y-5.8108
X4.0616Y-6.4108
X4.0945Y-6.6949
X4.1616Y-5.8108
X4.1616Y-6.4108
X4.2616Y-5.8108
X4.2616Y-6.4108
X4.3616Y-5.8108
X4.3616Y-6.4108
X4.375Y-6.6929
X4.4616Y-5.8108
X4.4616Y-6.4108
X4.475Y-6.6929
X4.5616Y-5.8108
X4.5616Y-6.4108
X4.575Y-6.6929
X4.6616Y-5.8108
X4.6616Y-6.4108
X4.675Y-6.6929
X4.7616Y-5.8108
X4.7616Y-6.4108
X4.775Y-6.6929
X4.8616Y-5.8108
X4.8616Y-6.4108
X4.875Y-6.6929
X5.1437Y-6.8514
X5.1486Y-6.6939
X5.2437Y-6.8514
X5.2486Y-6.6939
X5.3437Y-6.8514
X5.3486Y-6.6939
X5.4437Y-6.8514
X5.4486Y-6.6939
X5.5437Y-6.8514
X5.5486Y-6.6939
X5.6437Y-6.8514
X5.6486Y-6.6939
X5.9449Y-4.6063
X5.9449Y-4.7063
X5.9449Y-4.8063
X5.9449Y-4.9063
X5.9449Y-5.0063
X5.9449Y-5.1063
X5.9449Y-5.2063
X5.9449Y-5.3063
X5.9449Y-5.4063
X5.9449Y-5.5063
X5.9449Y-5.6063
X5.9449Y-5.7063
X5.9449Y-5.8063
X5.9449Y-5.9063
X5.9449Y-6.0063
X5.9449Y-6.1063
X5.9449Y-6.2063
X5.9449Y-6.3063
X5.9449Y-6.4063
X5.9449Y-6.5063
T7
X3.2Y-3.25
X3.35Y-3.25
X4.5Y-3.0
X4.5Y-3.1
X4.5Y-3.2
T8
X3.2402Y-3.0209
X3.7402Y-3.0209
T0
M30
