M48
; DRILL file {KiCad (6.0.6)} date ma 04 jul 2022 20:15:53 CEST
; FORMAT={-:-/ absolute / inch / decimal}
; #@! TF.CreationDate,2022-07-04T20:15:53+02:00
; #@! TF.GenerationSoftware,Kicad,Pcbnew,(6.0.6)
; #@! TF.FileFunction,Plated,1,2,PTH
FMAT,2
INCH
; #@! TA.AperFunction,Plated,PTH,ViaDrill
T1C0.0118
; #@! TA.AperFunction,Plated,PTH,ViaDrill
T2C0.0157
; #@! TA.AperFunction,Plated,PTH,ComponentDrill
T3C0.0295
; #@! TA.AperFunction,Plated,PTH,ComponentDrill
T4C0.0315
; #@! TA.AperFunction,Plated,PTH,ComponentDrill
T5C0.0394
%
G90
G05
T1
X3.8776Y-2.7606
X4.1567Y-2.9323
X4.2787Y-2.7315
X4.4094Y-3.9764
X4.4488Y-3.8386
X4.4587Y-2.9898
X4.4665Y-3.7764
X4.4976Y-3.6665
X4.4988Y-2.7063
X4.539Y-3.498
X4.5429Y-3.5752
X4.572Y-2.8661
X4.572Y-3.339
X4.628Y-2.948
X4.6425Y-3.1713
X4.6591Y-2.7346
X4.676Y-3.0059
X4.7161Y-2.8547
X4.7272Y-2.913
T2
X3.9764Y-5.4331
X3.9764Y-5.7874
X4.1311Y-4.3528
X4.1433Y-4.6472
X4.2122Y-2.8051
T3
X4.0551Y-5.6874
X4.0551Y-5.7374
X4.0551Y-5.7874
T4
X3.8583Y-5.1543
X3.8583Y-5.5543
X3.9764Y-5.1543
X3.9764Y-5.5543
X4.0945Y-5.1543
X4.0945Y-5.5543
T5
X3.9961Y-3.2335
X3.9961Y-3.3335
X3.9961Y-3.4335
X3.9961Y-3.5335
X3.9961Y-3.6335
X3.9961Y-3.7335
X3.9961Y-3.8335
X3.9961Y-3.9335
X3.9961Y-4.0335
X3.9961Y-4.1335
X3.9961Y-4.2335
X3.9961Y-4.3335
X3.9961Y-4.4335
X3.9961Y-4.5335
X3.9961Y-4.6335
X3.9961Y-4.7335
X3.9961Y-4.8335
X3.9961Y-4.9335
X3.9961Y-5.0335
T0
M30
