%TF.GenerationSoftware,KiCad,Pcbnew,(6.0.6)*%
%TF.CreationDate,2022-07-04T20:27:39+02:00*%
%TF.ProjectId,vogelhuisje_camera_board,766f6765-6c68-4756-9973-6a655f63616d,rev?*%
%TF.SameCoordinates,Original*%
%TF.FileFunction,Legend,Top*%
%TF.FilePolarity,Positive*%
%FSLAX46Y46*%
G04 Gerber Fmt 4.6, Leading zero omitted, Abs format (unit mm)*
G04 Created by KiCad (PCBNEW (6.0.6)) date 2022-07-04 20:27:39*
%MOMM*%
%LPD*%
G01*
G04 APERTURE LIST*
%ADD10C,0.150000*%
%ADD11C,0.120000*%
G04 APERTURE END LIST*
D10*
%TO.C,D7*%
X120438095Y-145147619D02*
X120438095Y-146147619D01*
X120200000Y-146147619D01*
X120057142Y-146100000D01*
X119961904Y-146004761D01*
X119914285Y-145909523D01*
X119866666Y-145719047D01*
X119866666Y-145576190D01*
X119914285Y-145385714D01*
X119961904Y-145290476D01*
X120057142Y-145195238D01*
X120200000Y-145147619D01*
X120438095Y-145147619D01*
X119533333Y-146147619D02*
X118866666Y-146147619D01*
X119295238Y-145147619D01*
%TO.C,C6*%
X104917142Y-78306666D02*
X104964761Y-78354285D01*
X105012380Y-78497142D01*
X105012380Y-78592380D01*
X104964761Y-78735238D01*
X104869523Y-78830476D01*
X104774285Y-78878095D01*
X104583809Y-78925714D01*
X104440952Y-78925714D01*
X104250476Y-78878095D01*
X104155238Y-78830476D01*
X104060000Y-78735238D01*
X104012380Y-78592380D01*
X104012380Y-78497142D01*
X104060000Y-78354285D01*
X104107619Y-78306666D01*
X104012380Y-77449523D02*
X104012380Y-77640000D01*
X104060000Y-77735238D01*
X104107619Y-77782857D01*
X104250476Y-77878095D01*
X104440952Y-77925714D01*
X104821904Y-77925714D01*
X104917142Y-77878095D01*
X104964761Y-77830476D01*
X105012380Y-77735238D01*
X105012380Y-77544761D01*
X104964761Y-77449523D01*
X104917142Y-77401904D01*
X104821904Y-77354285D01*
X104583809Y-77354285D01*
X104488571Y-77401904D01*
X104440952Y-77449523D01*
X104393333Y-77544761D01*
X104393333Y-77735238D01*
X104440952Y-77830476D01*
X104488571Y-77878095D01*
X104583809Y-77925714D01*
%TO.C,Q2*%
X99987619Y-145905238D02*
X99940000Y-146000476D01*
X99844761Y-146095714D01*
X99701904Y-146238571D01*
X99654285Y-146333809D01*
X99654285Y-146429047D01*
X99892380Y-146381428D02*
X99844761Y-146476666D01*
X99749523Y-146571904D01*
X99559047Y-146619523D01*
X99225714Y-146619523D01*
X99035238Y-146571904D01*
X98940000Y-146476666D01*
X98892380Y-146381428D01*
X98892380Y-146190952D01*
X98940000Y-146095714D01*
X99035238Y-146000476D01*
X99225714Y-145952857D01*
X99559047Y-145952857D01*
X99749523Y-146000476D01*
X99844761Y-146095714D01*
X99892380Y-146190952D01*
X99892380Y-146381428D01*
X98987619Y-145571904D02*
X98940000Y-145524285D01*
X98892380Y-145429047D01*
X98892380Y-145190952D01*
X98940000Y-145095714D01*
X98987619Y-145048095D01*
X99082857Y-145000476D01*
X99178095Y-145000476D01*
X99320952Y-145048095D01*
X99892380Y-145619523D01*
X99892380Y-145000476D01*
%TO.C,C2*%
X114107142Y-69006666D02*
X114154761Y-69054285D01*
X114202380Y-69197142D01*
X114202380Y-69292380D01*
X114154761Y-69435238D01*
X114059523Y-69530476D01*
X113964285Y-69578095D01*
X113773809Y-69625714D01*
X113630952Y-69625714D01*
X113440476Y-69578095D01*
X113345238Y-69530476D01*
X113250000Y-69435238D01*
X113202380Y-69292380D01*
X113202380Y-69197142D01*
X113250000Y-69054285D01*
X113297619Y-69006666D01*
X113297619Y-68625714D02*
X113250000Y-68578095D01*
X113202380Y-68482857D01*
X113202380Y-68244761D01*
X113250000Y-68149523D01*
X113297619Y-68101904D01*
X113392857Y-68054285D01*
X113488095Y-68054285D01*
X113630952Y-68101904D01*
X114202380Y-68673333D01*
X114202380Y-68054285D01*
%TO.C,R1*%
X101452380Y-135866666D02*
X100976190Y-136200000D01*
X101452380Y-136438095D02*
X100452380Y-136438095D01*
X100452380Y-136057142D01*
X100500000Y-135961904D01*
X100547619Y-135914285D01*
X100642857Y-135866666D01*
X100785714Y-135866666D01*
X100880952Y-135914285D01*
X100928571Y-135961904D01*
X100976190Y-136057142D01*
X100976190Y-136438095D01*
X101452380Y-134914285D02*
X101452380Y-135485714D01*
X101452380Y-135200000D02*
X100452380Y-135200000D01*
X100595238Y-135295238D01*
X100690476Y-135390476D01*
X100738095Y-135485714D01*
%TO.C,U2*%
X98798095Y-77192380D02*
X98798095Y-78001904D01*
X98845714Y-78097142D01*
X98893333Y-78144761D01*
X98988571Y-78192380D01*
X99179047Y-78192380D01*
X99274285Y-78144761D01*
X99321904Y-78097142D01*
X99369523Y-78001904D01*
X99369523Y-77192380D01*
X99798095Y-77287619D02*
X99845714Y-77240000D01*
X99940952Y-77192380D01*
X100179047Y-77192380D01*
X100274285Y-77240000D01*
X100321904Y-77287619D01*
X100369523Y-77382857D01*
X100369523Y-77478095D01*
X100321904Y-77620952D01*
X99750476Y-78192380D01*
X100369523Y-78192380D01*
%TO.C,R3*%
X104452380Y-135866666D02*
X103976190Y-136200000D01*
X104452380Y-136438095D02*
X103452380Y-136438095D01*
X103452380Y-136057142D01*
X103500000Y-135961904D01*
X103547619Y-135914285D01*
X103642857Y-135866666D01*
X103785714Y-135866666D01*
X103880952Y-135914285D01*
X103928571Y-135961904D01*
X103976190Y-136057142D01*
X103976190Y-136438095D01*
X103452380Y-135533333D02*
X103452380Y-134914285D01*
X103833333Y-135247619D01*
X103833333Y-135104761D01*
X103880952Y-135009523D01*
X103928571Y-134961904D01*
X104023809Y-134914285D01*
X104261904Y-134914285D01*
X104357142Y-134961904D01*
X104404761Y-135009523D01*
X104452380Y-135104761D01*
X104452380Y-135390476D01*
X104404761Y-135485714D01*
X104357142Y-135533333D01*
%TO.C,D6*%
X107938095Y-138047619D02*
X107938095Y-139047619D01*
X107700000Y-139047619D01*
X107557142Y-139000000D01*
X107461904Y-138904761D01*
X107414285Y-138809523D01*
X107366666Y-138619047D01*
X107366666Y-138476190D01*
X107414285Y-138285714D01*
X107461904Y-138190476D01*
X107557142Y-138095238D01*
X107700000Y-138047619D01*
X107938095Y-138047619D01*
X106509523Y-139047619D02*
X106700000Y-139047619D01*
X106795238Y-139000000D01*
X106842857Y-138952380D01*
X106938095Y-138809523D01*
X106985714Y-138619047D01*
X106985714Y-138238095D01*
X106938095Y-138142857D01*
X106890476Y-138095238D01*
X106795238Y-138047619D01*
X106604761Y-138047619D01*
X106509523Y-138095238D01*
X106461904Y-138142857D01*
X106414285Y-138238095D01*
X106414285Y-138476190D01*
X106461904Y-138571428D01*
X106509523Y-138619047D01*
X106604761Y-138666666D01*
X106795238Y-138666666D01*
X106890476Y-138619047D01*
X106938095Y-138571428D01*
X106985714Y-138476190D01*
%TO.C,J4*%
X108366666Y-77752380D02*
X108366666Y-78466666D01*
X108319047Y-78609523D01*
X108223809Y-78704761D01*
X108080952Y-78752380D01*
X107985714Y-78752380D01*
X109271428Y-78085714D02*
X109271428Y-78752380D01*
X109033333Y-77704761D02*
X108795238Y-78419047D01*
X109414285Y-78419047D01*
%TO.C,J1*%
X103866666Y-126452380D02*
X103866666Y-127166666D01*
X103819047Y-127309523D01*
X103723809Y-127404761D01*
X103580952Y-127452380D01*
X103485714Y-127452380D01*
X104866666Y-127452380D02*
X104295238Y-127452380D01*
X104580952Y-127452380D02*
X104580952Y-126452380D01*
X104485714Y-126595238D01*
X104390476Y-126690476D01*
X104295238Y-126738095D01*
%TO.C,R4*%
X98252380Y-135866666D02*
X97776190Y-136200000D01*
X98252380Y-136438095D02*
X97252380Y-136438095D01*
X97252380Y-136057142D01*
X97300000Y-135961904D01*
X97347619Y-135914285D01*
X97442857Y-135866666D01*
X97585714Y-135866666D01*
X97680952Y-135914285D01*
X97728571Y-135961904D01*
X97776190Y-136057142D01*
X97776190Y-136438095D01*
X97585714Y-135009523D02*
X98252380Y-135009523D01*
X97204761Y-135247619D02*
X97919047Y-135485714D01*
X97919047Y-134866666D01*
%TO.C,C1*%
X117157142Y-68876666D02*
X117204761Y-68924285D01*
X117252380Y-69067142D01*
X117252380Y-69162380D01*
X117204761Y-69305238D01*
X117109523Y-69400476D01*
X117014285Y-69448095D01*
X116823809Y-69495714D01*
X116680952Y-69495714D01*
X116490476Y-69448095D01*
X116395238Y-69400476D01*
X116300000Y-69305238D01*
X116252380Y-69162380D01*
X116252380Y-69067142D01*
X116300000Y-68924285D01*
X116347619Y-68876666D01*
X117252380Y-67924285D02*
X117252380Y-68495714D01*
X117252380Y-68210000D02*
X116252380Y-68210000D01*
X116395238Y-68305238D01*
X116490476Y-68400476D01*
X116538095Y-68495714D01*
%TO.C,D4*%
X123738095Y-138047619D02*
X123738095Y-139047619D01*
X123500000Y-139047619D01*
X123357142Y-139000000D01*
X123261904Y-138904761D01*
X123214285Y-138809523D01*
X123166666Y-138619047D01*
X123166666Y-138476190D01*
X123214285Y-138285714D01*
X123261904Y-138190476D01*
X123357142Y-138095238D01*
X123500000Y-138047619D01*
X123738095Y-138047619D01*
X122309523Y-138714285D02*
X122309523Y-138047619D01*
X122547619Y-139095238D02*
X122785714Y-138380952D01*
X122166666Y-138380952D01*
%TO.C,C3*%
X102957142Y-68566666D02*
X103004761Y-68614285D01*
X103052380Y-68757142D01*
X103052380Y-68852380D01*
X103004761Y-68995238D01*
X102909523Y-69090476D01*
X102814285Y-69138095D01*
X102623809Y-69185714D01*
X102480952Y-69185714D01*
X102290476Y-69138095D01*
X102195238Y-69090476D01*
X102100000Y-68995238D01*
X102052380Y-68852380D01*
X102052380Y-68757142D01*
X102100000Y-68614285D01*
X102147619Y-68566666D01*
X102052380Y-68233333D02*
X102052380Y-67614285D01*
X102433333Y-67947619D01*
X102433333Y-67804761D01*
X102480952Y-67709523D01*
X102528571Y-67661904D01*
X102623809Y-67614285D01*
X102861904Y-67614285D01*
X102957142Y-67661904D01*
X103004761Y-67709523D01*
X103052380Y-67804761D01*
X103052380Y-68090476D01*
X103004761Y-68185714D01*
X102957142Y-68233333D01*
%TO.C,U1*%
X95938095Y-70452380D02*
X95938095Y-71261904D01*
X95985714Y-71357142D01*
X96033333Y-71404761D01*
X96128571Y-71452380D01*
X96319047Y-71452380D01*
X96414285Y-71404761D01*
X96461904Y-71357142D01*
X96509523Y-71261904D01*
X96509523Y-70452380D01*
X97509523Y-71452380D02*
X96938095Y-71452380D01*
X97223809Y-71452380D02*
X97223809Y-70452380D01*
X97128571Y-70595238D01*
X97033333Y-70690476D01*
X96938095Y-70738095D01*
%TO.C,C7*%
X96877142Y-78726666D02*
X96924761Y-78774285D01*
X96972380Y-78917142D01*
X96972380Y-79012380D01*
X96924761Y-79155238D01*
X96829523Y-79250476D01*
X96734285Y-79298095D01*
X96543809Y-79345714D01*
X96400952Y-79345714D01*
X96210476Y-79298095D01*
X96115238Y-79250476D01*
X96020000Y-79155238D01*
X95972380Y-79012380D01*
X95972380Y-78917142D01*
X96020000Y-78774285D01*
X96067619Y-78726666D01*
X95972380Y-78393333D02*
X95972380Y-77726666D01*
X96972380Y-78155238D01*
%TO.C,D5*%
X110638095Y-145047619D02*
X110638095Y-146047619D01*
X110400000Y-146047619D01*
X110257142Y-146000000D01*
X110161904Y-145904761D01*
X110114285Y-145809523D01*
X110066666Y-145619047D01*
X110066666Y-145476190D01*
X110114285Y-145285714D01*
X110161904Y-145190476D01*
X110257142Y-145095238D01*
X110400000Y-145047619D01*
X110638095Y-145047619D01*
X109161904Y-146047619D02*
X109638095Y-146047619D01*
X109685714Y-145571428D01*
X109638095Y-145619047D01*
X109542857Y-145666666D01*
X109304761Y-145666666D01*
X109209523Y-145619047D01*
X109161904Y-145571428D01*
X109114285Y-145476190D01*
X109114285Y-145238095D01*
X109161904Y-145142857D01*
X109209523Y-145095238D01*
X109304761Y-145047619D01*
X109542857Y-145047619D01*
X109638095Y-145095238D01*
X109685714Y-145142857D01*
%TO.C,C5*%
X103017142Y-78406666D02*
X103064761Y-78454285D01*
X103112380Y-78597142D01*
X103112380Y-78692380D01*
X103064761Y-78835238D01*
X102969523Y-78930476D01*
X102874285Y-78978095D01*
X102683809Y-79025714D01*
X102540952Y-79025714D01*
X102350476Y-78978095D01*
X102255238Y-78930476D01*
X102160000Y-78835238D01*
X102112380Y-78692380D01*
X102112380Y-78597142D01*
X102160000Y-78454285D01*
X102207619Y-78406666D01*
X102112380Y-77501904D02*
X102112380Y-77978095D01*
X102588571Y-78025714D01*
X102540952Y-77978095D01*
X102493333Y-77882857D01*
X102493333Y-77644761D01*
X102540952Y-77549523D01*
X102588571Y-77501904D01*
X102683809Y-77454285D01*
X102921904Y-77454285D01*
X103017142Y-77501904D01*
X103064761Y-77549523D01*
X103112380Y-77644761D01*
X103112380Y-77882857D01*
X103064761Y-77978095D01*
X103017142Y-78025714D01*
%TO.C,C4*%
X106457142Y-71566666D02*
X106504761Y-71614285D01*
X106552380Y-71757142D01*
X106552380Y-71852380D01*
X106504761Y-71995238D01*
X106409523Y-72090476D01*
X106314285Y-72138095D01*
X106123809Y-72185714D01*
X105980952Y-72185714D01*
X105790476Y-72138095D01*
X105695238Y-72090476D01*
X105600000Y-71995238D01*
X105552380Y-71852380D01*
X105552380Y-71757142D01*
X105600000Y-71614285D01*
X105647619Y-71566666D01*
X105885714Y-70709523D02*
X106552380Y-70709523D01*
X105504761Y-70947619D02*
X106219047Y-71185714D01*
X106219047Y-70566666D01*
D11*
%TO.C,C6*%
X103890000Y-75153733D02*
X103890000Y-75446267D01*
X104910000Y-75153733D02*
X104910000Y-75446267D01*
%TO.C,Q2*%
X104700000Y-147750000D02*
X104700000Y-143900000D01*
X104690122Y-143861389D02*
G75*
G03*
X104700000Y-147750000I-1690122J-1948611D01*
G01*
%TO.C,R1*%
X101000000Y-131960000D02*
X101000000Y-132730000D01*
X99630000Y-132730000D02*
X99630000Y-139270000D01*
X102370000Y-139270000D02*
X102370000Y-132730000D01*
X99630000Y-139270000D02*
X102370000Y-139270000D01*
X102370000Y-132730000D02*
X99630000Y-132730000D01*
X101000000Y-140040000D02*
X101000000Y-139270000D01*
%TO.C,U2*%
X99560000Y-73780000D02*
X98910000Y-73780000D01*
X99560000Y-76900000D02*
X101235000Y-76900000D01*
X99560000Y-76900000D02*
X98910000Y-76900000D01*
X99560000Y-73780000D02*
X100210000Y-73780000D01*
%TO.C,R3*%
X105370000Y-139270000D02*
X105370000Y-132730000D01*
X104000000Y-131960000D02*
X104000000Y-132730000D01*
X102630000Y-132730000D02*
X102630000Y-139270000D01*
X104000000Y-140040000D02*
X104000000Y-139270000D01*
X102630000Y-139270000D02*
X105370000Y-139270000D01*
X105370000Y-132730000D02*
X102630000Y-132730000D01*
%TO.C,J4*%
X107350000Y-71600000D02*
X107350000Y-72940000D01*
X122650000Y-71600000D02*
X122650000Y-72940000D01*
X108840000Y-71600000D02*
X108840000Y-70400000D01*
X122650000Y-77400000D02*
X122650000Y-75660000D01*
X108840000Y-71600000D02*
X107350000Y-71600000D01*
X121160000Y-71600000D02*
X122650000Y-71600000D01*
X107350000Y-75660000D02*
X107350000Y-77400000D01*
X107350000Y-77400000D02*
X122650000Y-77400000D01*
%TO.C,J1*%
X102830000Y-126580000D02*
X102830000Y-80800000D01*
X102830000Y-126580000D02*
X100170000Y-126580000D01*
X102830000Y-127850000D02*
X102830000Y-129180000D01*
X100170000Y-126580000D02*
X100170000Y-80800000D01*
X102830000Y-80800000D02*
X100170000Y-80800000D01*
X102830000Y-129180000D02*
X101500000Y-129180000D01*
%TO.C,R4*%
X96630000Y-139270000D02*
X99370000Y-139270000D01*
X99370000Y-139270000D02*
X99370000Y-132730000D01*
X98000000Y-140040000D02*
X98000000Y-139270000D01*
X99370000Y-132730000D02*
X96630000Y-132730000D01*
X96630000Y-132730000D02*
X96630000Y-139270000D01*
X98000000Y-131960000D02*
X98000000Y-132730000D01*
%TO.C,C3*%
X101865000Y-71038748D02*
X101865000Y-71561252D01*
X103335000Y-71038748D02*
X103335000Y-71561252D01*
%TO.C,U1*%
X99460000Y-72740000D02*
X101135000Y-72740000D01*
X99460000Y-69620000D02*
X98810000Y-69620000D01*
X99460000Y-69620000D02*
X100110000Y-69620000D01*
X99460000Y-72740000D02*
X98810000Y-72740000D01*
%TO.C,C7*%
X95665000Y-75238748D02*
X95665000Y-75761252D01*
X97135000Y-75238748D02*
X97135000Y-75761252D01*
%TO.C,C5*%
X101865000Y-75038748D02*
X101865000Y-75561252D01*
X103335000Y-75038748D02*
X103335000Y-75561252D01*
%TO.C,C4*%
X104970000Y-71153733D02*
X104970000Y-71446267D01*
X103950000Y-71153733D02*
X103950000Y-71446267D01*
%TD*%
M02*
