%TF.GenerationSoftware,KiCad,Pcbnew,(6.0.6)*%
%TF.CreationDate,2022-07-04T20:27:39+02:00*%
%TF.ProjectId,vogelhuisje_camera_board,766f6765-6c68-4756-9973-6a655f63616d,rev?*%
%TF.SameCoordinates,Original*%
%TF.FileFunction,Soldermask,Top*%
%TF.FilePolarity,Negative*%
%FSLAX46Y46*%
G04 Gerber Fmt 4.6, Leading zero omitted, Abs format (unit mm)*
G04 Created by KiCad (PCBNEW (6.0.6)) date 2022-07-04 20:27:39*
%MOMM*%
%LPD*%
G01*
G04 APERTURE LIST*
G04 Aperture macros list*
%AMRoundRect*
0 Rectangle with rounded corners*
0 $1 Rounding radius*
0 $2 $3 $4 $5 $6 $7 $8 $9 X,Y pos of 4 corners*
0 Add a 4 corners polygon primitive as box body*
4,1,4,$2,$3,$4,$5,$6,$7,$8,$9,$2,$3,0*
0 Add four circle primitives for the rounded corners*
1,1,$1+$1,$2,$3*
1,1,$1+$1,$4,$5*
1,1,$1+$1,$6,$7*
1,1,$1+$1,$8,$9*
0 Add four rect primitives between the rounded corners*
20,1,$1+$1,$2,$3,$4,$5,0*
20,1,$1+$1,$4,$5,$6,$7,0*
20,1,$1+$1,$6,$7,$8,$9,0*
20,1,$1+$1,$8,$9,$2,$3,0*%
G04 Aperture macros list end*
%ADD10C,2.200000*%
%ADD11RoundRect,0.625000X0.675000X0.625000X-0.675000X0.625000X-0.675000X-0.625000X0.675000X-0.625000X0*%
%ADD12RoundRect,0.237500X-0.237500X0.300000X-0.237500X-0.300000X0.237500X-0.300000X0.237500X0.300000X0*%
%ADD13R,1.500000X1.050000*%
%ADD14O,1.500000X1.050000*%
%ADD15RoundRect,0.075000X-0.075000X0.212500X-0.075000X-0.212500X0.075000X-0.212500X0.075000X0.212500X0*%
%ADD16C,1.600000*%
%ADD17O,1.600000X1.600000*%
%ADD18RoundRect,0.150000X0.587500X0.150000X-0.587500X0.150000X-0.587500X-0.150000X0.587500X-0.150000X0*%
%ADD19R,0.300000X1.300000*%
%ADD20R,1.800000X2.200000*%
%ADD21R,1.700000X1.700000*%
%ADD22O,1.700000X1.700000*%
%ADD23RoundRect,0.100000X-0.100000X0.217500X-0.100000X-0.217500X0.100000X-0.217500X0.100000X0.217500X0*%
%ADD24RoundRect,0.250000X-0.475000X0.337500X-0.475000X-0.337500X0.475000X-0.337500X0.475000X0.337500X0*%
G04 APERTURE END LIST*
D10*
%TO.C,REF\u002A\u002A*%
X92500000Y-72500000D03*
%TD*%
D11*
%TO.C,D7*%
X123000000Y-147900000D03*
X123000000Y-143900000D03*
%TD*%
D12*
%TO.C,C6*%
X104400000Y-74437500D03*
X104400000Y-76162500D03*
%TD*%
D13*
%TO.C,Q2*%
X103000000Y-147000000D03*
D14*
X103000000Y-145730000D03*
X103000000Y-144460000D03*
%TD*%
D15*
%TO.C,C2*%
X112750000Y-68502500D03*
X112750000Y-69177500D03*
%TD*%
D16*
%TO.C,R1*%
X101000000Y-141080000D03*
D17*
X101000000Y-130920000D03*
%TD*%
D18*
%TO.C,U2*%
X100497500Y-76290000D03*
X100497500Y-74390000D03*
X98622500Y-75340000D03*
%TD*%
D16*
%TO.C,R3*%
X104000000Y-130920000D03*
D17*
X104000000Y-141080000D03*
%TD*%
D10*
%TO.C,REF\u002A\u002A*%
X92500000Y-147500000D03*
%TD*%
D11*
%TO.C,D6*%
X107200000Y-136000000D03*
X107200000Y-132000000D03*
%TD*%
D19*
%TO.C,J4*%
X109250000Y-71050000D03*
X109750000Y-71050000D03*
X110250000Y-71050000D03*
X110750000Y-71050000D03*
X111250000Y-71050000D03*
X111750000Y-71050000D03*
X112250000Y-71050000D03*
X112750000Y-71050000D03*
X113250000Y-71050000D03*
X113750000Y-71050000D03*
X114250000Y-71050000D03*
X114750000Y-71050000D03*
X115250000Y-71050000D03*
X115750000Y-71050000D03*
X116250000Y-71050000D03*
X116750000Y-71050000D03*
X117250000Y-71050000D03*
X117750000Y-71050000D03*
X118250000Y-71050000D03*
X118750000Y-71050000D03*
X119250000Y-71050000D03*
X119750000Y-71050000D03*
X120250000Y-71050000D03*
X120750000Y-71050000D03*
D20*
X107350000Y-74300000D03*
X122650000Y-74300000D03*
%TD*%
D21*
%TO.C,J1*%
X101500000Y-127850000D03*
D22*
X101500000Y-125310000D03*
X101500000Y-122770000D03*
X101500000Y-120230000D03*
X101500000Y-117690000D03*
X101500000Y-115150000D03*
X101500000Y-112610000D03*
X101500000Y-110070000D03*
X101500000Y-107530000D03*
X101500000Y-104990000D03*
X101500000Y-102450000D03*
X101500000Y-99910000D03*
X101500000Y-97370000D03*
X101500000Y-94830000D03*
X101500000Y-92290000D03*
X101500000Y-89750000D03*
X101500000Y-87210000D03*
X101500000Y-84670000D03*
X101500000Y-82130000D03*
%TD*%
D16*
%TO.C,R4*%
X98000000Y-130920000D03*
D17*
X98000000Y-141080000D03*
%TD*%
D23*
%TO.C,C1*%
X115750000Y-68302500D03*
X115750000Y-69117500D03*
%TD*%
D11*
%TO.C,D4*%
X123000000Y-136000000D03*
X123000000Y-132000000D03*
%TD*%
D10*
%TO.C,REF\u002A\u002A*%
X127500000Y-72500000D03*
%TD*%
D24*
%TO.C,C3*%
X102600000Y-70262500D03*
X102600000Y-72337500D03*
%TD*%
D18*
%TO.C,U1*%
X100397500Y-72130000D03*
X100397500Y-70230000D03*
X98522500Y-71180000D03*
%TD*%
D10*
%TO.C,REF\u002A\u002A*%
X127500000Y-147500000D03*
%TD*%
D24*
%TO.C,C7*%
X96400000Y-74462500D03*
X96400000Y-76537500D03*
%TD*%
D11*
%TO.C,D5*%
X107000000Y-147900000D03*
X107000000Y-143900000D03*
%TD*%
D24*
%TO.C,C5*%
X102600000Y-74262500D03*
X102600000Y-76337500D03*
%TD*%
D12*
%TO.C,C4*%
X104460000Y-70437500D03*
X104460000Y-72162500D03*
%TD*%
G36*
X112852253Y-68783559D02*
G01*
X112852643Y-68785521D01*
X112851860Y-68786541D01*
X112846103Y-68790388D01*
X112847227Y-68792070D01*
X112847358Y-68794066D01*
X112846675Y-68794844D01*
X112827184Y-68807865D01*
X112818546Y-68851280D01*
X112843258Y-68888269D01*
X112845275Y-68889105D01*
X112845620Y-68889290D01*
X112851859Y-68893459D01*
X112852744Y-68895253D01*
X112851633Y-68896916D01*
X112850358Y-68897084D01*
X112824801Y-68892000D01*
X112675199Y-68892000D01*
X112649641Y-68897084D01*
X112647747Y-68896441D01*
X112647357Y-68894479D01*
X112648140Y-68893459D01*
X112653897Y-68889612D01*
X112652773Y-68887930D01*
X112652642Y-68885934D01*
X112653325Y-68885156D01*
X112672816Y-68872135D01*
X112681454Y-68828720D01*
X112656742Y-68791731D01*
X112654725Y-68790895D01*
X112654380Y-68790710D01*
X112648141Y-68786541D01*
X112647256Y-68784747D01*
X112648367Y-68783084D01*
X112649642Y-68782916D01*
X112675199Y-68788000D01*
X112824801Y-68788000D01*
X112850359Y-68782916D01*
X112852253Y-68783559D01*
G37*
M02*
