%TF.GenerationSoftware,KiCad,Pcbnew,(6.0.6)*%
%TF.CreationDate,2022-07-04T20:27:39+02:00*%
%TF.ProjectId,vogelhuisje_camera_board,766f6765-6c68-4756-9973-6a655f63616d,rev?*%
%TF.SameCoordinates,Original*%
%TF.FileFunction,Paste,Top*%
%TF.FilePolarity,Positive*%
%FSLAX46Y46*%
G04 Gerber Fmt 4.6, Leading zero omitted, Abs format (unit mm)*
G04 Created by KiCad (PCBNEW (6.0.6)) date 2022-07-04 20:27:39*
%MOMM*%
%LPD*%
G01*
G04 APERTURE LIST*
G04 Aperture macros list*
%AMRoundRect*
0 Rectangle with rounded corners*
0 $1 Rounding radius*
0 $2 $3 $4 $5 $6 $7 $8 $9 X,Y pos of 4 corners*
0 Add a 4 corners polygon primitive as box body*
4,1,4,$2,$3,$4,$5,$6,$7,$8,$9,$2,$3,0*
0 Add four circle primitives for the rounded corners*
1,1,$1+$1,$2,$3*
1,1,$1+$1,$4,$5*
1,1,$1+$1,$6,$7*
1,1,$1+$1,$8,$9*
0 Add four rect primitives between the rounded corners*
20,1,$1+$1,$2,$3,$4,$5,0*
20,1,$1+$1,$4,$5,$6,$7,0*
20,1,$1+$1,$6,$7,$8,$9,0*
20,1,$1+$1,$8,$9,$2,$3,0*%
G04 Aperture macros list end*
%ADD10RoundRect,0.625000X0.675000X0.625000X-0.675000X0.625000X-0.675000X-0.625000X0.675000X-0.625000X0*%
%ADD11RoundRect,0.237500X-0.237500X0.300000X-0.237500X-0.300000X0.237500X-0.300000X0.237500X0.300000X0*%
%ADD12RoundRect,0.067500X-0.067500X0.137500X-0.067500X-0.137500X0.067500X-0.137500X0.067500X0.137500X0*%
%ADD13RoundRect,0.150000X0.587500X0.150000X-0.587500X0.150000X-0.587500X-0.150000X0.587500X-0.150000X0*%
%ADD14R,0.300000X1.300000*%
%ADD15R,1.800000X2.200000*%
%ADD16RoundRect,0.090000X-0.090000X0.139000X-0.090000X-0.139000X0.090000X-0.139000X0.090000X0.139000X0*%
%ADD17RoundRect,0.250000X-0.475000X0.337500X-0.475000X-0.337500X0.475000X-0.337500X0.475000X0.337500X0*%
G04 APERTURE END LIST*
D10*
%TO.C,D7*%
X123000000Y-147900000D03*
X123000000Y-143900000D03*
%TD*%
D11*
%TO.C,C6*%
X104400000Y-74437500D03*
X104400000Y-76162500D03*
%TD*%
D12*
%TO.C,C2*%
X112750000Y-68477500D03*
X112750000Y-69202500D03*
%TD*%
D13*
%TO.C,U2*%
X100497500Y-76290000D03*
X100497500Y-74390000D03*
X98622500Y-75340000D03*
%TD*%
D10*
%TO.C,D6*%
X107200000Y-136000000D03*
X107200000Y-132000000D03*
%TD*%
D14*
%TO.C,J4*%
X109250000Y-71050000D03*
X109750000Y-71050000D03*
X110250000Y-71050000D03*
X110750000Y-71050000D03*
X111250000Y-71050000D03*
X111750000Y-71050000D03*
X112250000Y-71050000D03*
X112750000Y-71050000D03*
X113250000Y-71050000D03*
X113750000Y-71050000D03*
X114250000Y-71050000D03*
X114750000Y-71050000D03*
X115250000Y-71050000D03*
X115750000Y-71050000D03*
X116250000Y-71050000D03*
X116750000Y-71050000D03*
X117250000Y-71050000D03*
X117750000Y-71050000D03*
X118250000Y-71050000D03*
X118750000Y-71050000D03*
X119250000Y-71050000D03*
X119750000Y-71050000D03*
X120250000Y-71050000D03*
X120750000Y-71050000D03*
D15*
X107350000Y-74300000D03*
X122650000Y-74300000D03*
%TD*%
D16*
%TO.C,C1*%
X115750000Y-68277500D03*
X115750000Y-69142500D03*
%TD*%
D10*
%TO.C,D4*%
X123000000Y-136000000D03*
X123000000Y-132000000D03*
%TD*%
D17*
%TO.C,C3*%
X102600000Y-70262500D03*
X102600000Y-72337500D03*
%TD*%
D13*
%TO.C,U1*%
X100397500Y-72130000D03*
X100397500Y-70230000D03*
X98522500Y-71180000D03*
%TD*%
D17*
%TO.C,C7*%
X96400000Y-74462500D03*
X96400000Y-76537500D03*
%TD*%
D10*
%TO.C,D5*%
X107000000Y-147900000D03*
X107000000Y-143900000D03*
%TD*%
D17*
%TO.C,C5*%
X102600000Y-74262500D03*
X102600000Y-76337500D03*
%TD*%
D11*
%TO.C,C4*%
X104460000Y-70437500D03*
X104460000Y-72162500D03*
%TD*%
M02*
